<svg width="24" height="24" viewBox="0 0 24 24" fill="none" xmlns="http://www.w3.org/2000/svg">
<path fill-rule="evenodd" clip-rule="evenodd" d="M12 2C6.48 2 2 6.48 2 12C2 17.52 6.48 22 12 22C17.52 22 22 17.52 22 12C22 6.48 17.52 2 12 2ZM12 20C7.59 20 4 16.41 4 12C4 7.59 7.59 4 12 4C16.41 4 20 7.59 20 12C20 16.41 16.41 20 12 20ZM15.88 8.29C16.2717 7.89829 16.9072 7.89941 17.2975 8.29251C17.6859 8.68365 17.6848 9.31524 17.295 9.705L10.8 16.2C10.3582 16.6418 9.64183 16.6418 9.2 16.2L6.70568 13.7057C6.31594 13.3159 6.31594 12.6841 6.70568 12.2943C7.09489 11.9051 7.72572 11.9045 8.11568 12.293L9.71222 13.8833C9.87125 14.0417 10.1285 14.0415 10.2872 13.8828L15.88 8.29Z" fill="#32D989"/>
</svg>
