<svg width="24" height="24" viewBox="0 0 24 24" fill="none" xmlns="http://www.w3.org/2000/svg">
<g id="icon">
<path id="icon/navigation/menu_24px" d="M5.63679 18.3637C6.02732 18.7543 6.66048 18.7543 7.05101 18.3637L18.3647 7.05003C18.7552 6.65951 18.7552 6.02634 18.3647 5.63582C17.9742 5.24529 17.341 5.24529 16.9505 5.63582L5.63679 16.9495C5.24627 17.34 5.24627 17.9732 5.63679 18.3637Z" fill="#1D212A"/>
<path id="Path" d="M5.63664 5.63582C5.24612 6.02634 5.24612 6.65951 5.63664 7.05003L16.9504 18.3637C17.3409 18.7543 17.974 18.7543 18.3646 18.3637C18.7551 17.9732 18.7551 17.34 18.3646 16.9495L7.05086 5.63582C6.66033 5.24529 6.02717 5.24529 5.63664 5.63582Z" fill="#1D212A"/>
</g>
</svg>
