<svg width="443" height="365" viewBox="0 0 443 365" fill="none" xmlns="http://www.w3.org/2000/svg">
<g filter="url(#filter0_ddd_895_33)">
<rect x="54" y="126.707" width="298" height="158" rx="8" transform="rotate(-21.808 54 126.707)" fill="#F9FAFC"/>
</g>
<path d="M139.041 130.558C139.558 131.85 139.544 133.106 138.997 134.324C138.459 135.521 137.284 136.483 135.472 137.208L132.486 138.402L135.081 144.887L133.053 145.698L126.839 130.167L131.852 128.161C133.605 127.46 135.104 127.351 136.349 127.835C137.609 128.313 138.506 129.221 139.041 130.558ZM134.803 135.537C135.932 135.085 136.666 134.507 137.005 133.803C137.343 133.098 137.331 132.293 136.969 131.387C136.202 129.471 134.719 128.953 132.521 129.832L129.535 131.027L131.818 136.731L134.803 135.537ZM143.892 129.496C143.969 128.655 144.257 127.911 144.756 127.263C145.27 126.609 146.003 126.092 146.953 125.712L147.792 127.806L147.257 128.02C144.984 128.93 144.341 130.617 145.328 133.083L147.985 139.723L145.957 140.535L141.071 128.324L143.099 127.513L143.892 129.496ZM149.637 122.596C149.251 122.75 148.871 122.747 148.496 122.587C148.122 122.427 147.857 122.153 147.703 121.767C147.548 121.381 147.551 121 147.712 120.626C147.872 120.252 148.145 119.987 148.531 119.833C148.903 119.684 149.268 119.693 149.628 119.859C150.002 120.02 150.267 120.293 150.421 120.679C150.576 121.065 150.573 121.446 150.412 121.82C150.267 122.189 150.008 122.447 149.637 122.596ZM151.411 124.187L156.297 136.397L154.269 137.209L149.383 124.998L151.411 124.187ZM163.549 131.324L163.2 119.469L165.362 118.604L165.457 132.732L163.095 133.677L153.418 123.383L155.602 122.509L163.549 131.324ZM169.025 124.17C168.525 122.922 168.341 121.729 168.472 120.591C168.596 119.438 168.993 118.427 169.661 117.556C170.345 116.679 171.228 116.024 172.313 115.59C173.382 115.162 174.403 115.021 175.374 115.167C176.346 115.312 177.165 115.657 177.83 116.2L176.939 113.972L178.989 113.152L183.875 125.362L181.825 126.183L180.915 123.91C180.799 124.783 180.435 125.618 179.824 126.415C179.22 127.19 178.392 127.789 177.337 128.211C176.252 128.645 175.165 128.77 174.075 128.586C172.984 128.402 171.993 127.928 171.102 127.164C170.21 126.401 169.518 125.403 169.025 124.17ZM179.373 120.055C179.004 119.134 178.497 118.406 177.853 117.871C177.208 117.337 176.495 117.019 175.713 116.918C174.941 116.796 174.176 116.887 173.418 117.19C172.661 117.493 172.041 117.948 171.56 118.554C171.079 119.16 170.789 119.879 170.691 120.711C170.593 121.543 170.728 122.42 171.097 123.341C171.471 124.277 171.984 125.019 172.635 125.569C173.28 126.104 173.988 126.432 174.761 126.553C175.527 126.66 176.289 126.562 177.047 126.259C177.805 125.956 178.424 125.501 178.905 124.895C179.395 124.268 179.689 123.539 179.787 122.707C179.879 121.86 179.741 120.976 179.373 120.055ZM184.092 118.167C183.586 116.904 183.399 115.704 183.53 114.566C183.654 113.413 184.058 112.398 184.742 111.522C185.44 110.639 186.368 109.966 187.527 109.503C189.027 108.902 190.406 108.773 191.663 109.114C192.934 109.45 193.985 110.202 194.814 111.369L192.63 112.243C192.125 111.583 191.482 111.16 190.7 110.973C189.934 110.78 189.105 110.862 188.213 111.218C187.055 111.682 186.279 112.458 185.887 113.545C185.489 114.618 185.581 115.882 186.164 117.338C186.752 118.808 187.564 119.802 188.598 120.319C189.632 120.836 190.728 120.862 191.887 120.399C192.778 120.042 193.437 119.537 193.865 118.883C194.293 118.23 194.464 117.472 194.378 116.61L196.561 115.737C196.734 117.115 196.481 118.379 195.804 119.529C195.121 120.664 194.044 121.526 192.573 122.114C191.414 122.578 190.278 122.731 189.164 122.574C188.065 122.411 187.072 121.955 186.187 121.206C185.301 120.457 184.603 119.444 184.092 118.167ZM206.467 102.157L206.3 123.058L204.206 123.897L204.259 117.051L194.502 106.944L196.752 106.044L204.543 114.404L204.373 102.995L206.467 102.157ZM222.677 91.8188L223.337 93.4677L219.103 95.1618L224.658 109.044L222.63 109.855L217.075 95.9731L212.819 97.6761L212.16 96.0272L222.677 91.8188ZM239.898 95.3197C240.053 95.7059 240.194 96.1233 240.322 96.5719L230.562 100.477C231.118 101.651 231.904 102.43 232.92 102.817C233.945 103.182 234.992 103.151 236.062 102.723C236.938 102.372 237.586 101.88 238.005 101.247C238.433 100.594 238.629 99.8775 238.593 99.0991L240.777 98.2253C240.919 99.5296 240.649 100.749 239.966 101.884C239.277 103.005 238.204 103.856 236.748 104.438C235.59 104.902 234.446 105.058 233.317 104.907C232.203 104.749 231.195 104.299 230.295 103.557C229.389 102.799 228.683 101.789 228.178 100.526C227.672 99.2638 227.482 98.056 227.607 96.9032C227.732 95.7504 228.146 94.7402 228.85 93.8725C229.563 92.9841 230.514 92.3021 231.702 91.8266C232.861 91.3629 233.987 91.2053 235.08 91.3538C236.173 91.5022 237.136 91.9269 237.968 92.628C238.809 93.3083 239.452 94.2055 239.898 95.3197ZM237.634 95.7344C237.325 94.9619 236.89 94.3692 236.328 93.9563C235.761 93.5285 235.123 93.2924 234.416 93.2479C233.718 93.1826 233.012 93.2927 232.299 93.578C231.274 93.9881 230.529 94.6656 230.062 95.6105C229.611 96.5494 229.565 97.619 229.925 98.8193L237.634 95.7344ZM243.14 89.783C243.217 88.9422 243.505 88.1979 244.005 87.5501C244.518 86.8964 245.251 86.3793 246.201 85.9989L247.04 88.0935L246.505 88.3075C244.232 89.2169 243.589 90.9046 244.576 93.3705L247.233 100.011L245.205 100.822L240.319 88.6112L242.347 87.7999L243.14 89.783ZM263.226 79.1867C264.177 78.8063 265.104 78.668 266.007 78.7719C266.905 78.8609 267.726 79.2129 268.472 79.8278C269.218 80.4428 269.816 81.3147 270.268 82.4437L273.148 89.6409L271.143 90.4434L268.379 83.5358C267.891 82.3177 267.215 81.5111 266.351 81.1161C265.495 80.7002 264.555 80.6974 263.53 81.1075C262.475 81.5295 261.772 82.207 261.422 83.14C261.065 84.0581 261.143 85.1559 261.654 86.4335L264.347 93.1627L262.341 93.9652L259.577 87.0576C259.09 85.8395 258.414 85.033 257.549 84.6379C256.693 84.222 255.753 84.2192 254.728 84.6293C253.673 85.0513 252.971 85.7288 252.62 86.6618C252.264 87.5799 252.341 88.6777 252.852 89.9553L255.545 96.6846L253.517 97.4959L248.631 85.2852L250.659 84.4738L251.363 86.2341C251.509 85.4349 251.848 84.7307 252.379 84.1215C252.926 83.5064 253.608 83.0354 254.425 82.7085C255.45 82.2984 256.448 82.166 257.42 82.3115C258.391 82.457 259.248 82.8981 259.991 83.6348C259.988 82.6366 260.285 81.7422 260.882 80.9518C261.479 80.1614 262.261 79.5731 263.226 79.1867ZM280.877 86.7809C279.941 87.1553 279.04 87.3352 278.172 87.3204C277.299 87.2908 276.534 87.08 275.877 86.6878C275.214 86.2809 274.712 85.7149 274.37 84.99L276.465 84.1519C276.768 84.7372 277.249 85.1219 277.909 85.306C278.583 85.4842 279.337 85.4069 280.168 85.074C280.941 84.7649 281.482 84.3504 281.791 83.8304C282.099 83.3104 282.15 82.7905 281.942 82.2706C281.728 81.7358 281.333 81.4372 280.756 81.3749C280.174 81.2977 279.335 81.332 278.238 81.4777C277.237 81.6026 276.399 81.6621 275.725 81.6563C275.059 81.6296 274.423 81.4618 273.817 81.1529C273.22 80.8232 272.764 80.2646 272.449 79.4773C272.199 78.8534 272.156 78.2072 272.319 77.5387C272.483 76.8702 272.847 76.2506 273.411 75.6801C273.97 75.0947 274.687 74.6267 275.563 74.276C276.915 73.7351 278.144 73.6399 279.249 73.9903C280.354 74.3408 281.175 75.0983 281.709 76.263L279.682 77.0743C279.382 76.4534 278.917 76.0449 278.287 75.8489C277.672 75.6469 276.97 75.7035 276.183 76.0185C275.455 76.3097 274.938 76.6975 274.632 77.1819C274.326 77.6662 274.274 78.1609 274.477 78.666C274.637 79.067 274.897 79.3508 275.257 79.5171C275.625 79.6626 276.035 79.7398 276.487 79.7487C276.947 79.7368 277.565 79.6877 278.341 79.6014C279.312 79.4884 280.12 79.4408 280.765 79.4585C281.404 79.4614 282.008 79.6158 282.579 79.9218C283.164 80.2218 283.613 80.7402 283.925 81.477C284.193 82.1455 284.248 82.8214 284.09 83.5048C283.933 84.1882 283.575 84.8226 283.016 85.4079C282.467 85.9725 281.754 86.4302 280.877 86.7809Z" fill="#8770FF"/>
<path d="M181.364 166.057C181.807 167.162 181.96 168.329 181.823 169.557C181.678 170.761 181.196 171.909 180.377 173.001C179.559 174.092 178.388 174.984 176.863 175.675L177.993 178.498L176.44 179.119L175.297 176.261C173.128 176.911 171.162 176.906 169.398 176.248C167.624 175.566 166.338 174.362 165.538 172.635L168.184 171.577C168.701 172.597 169.51 173.392 170.611 173.961C171.726 174.497 173.015 174.582 174.478 174.215L170.568 164.442C168.823 164.649 167.383 164.734 166.249 164.697C165.139 164.65 164.081 164.323 163.074 163.716C162.058 163.086 161.253 162.03 160.66 160.548C159.917 158.69 159.952 156.902 160.765 155.185C161.57 153.445 163.058 152.085 165.232 151.106L164.046 148.143L165.598 147.521L166.798 150.52C168.826 149.927 170.644 149.937 172.253 150.548C173.862 151.159 175.097 152.234 175.958 153.772L173.347 154.817C172.858 154.003 172.098 153.366 171.068 152.905C170.061 152.435 168.92 152.345 167.645 152.637L171.414 162.057C173.103 161.845 174.519 161.77 175.662 161.831C176.82 161.859 177.906 162.188 178.922 162.818C179.939 163.448 180.753 164.528 181.364 166.057ZM163.123 159.44C163.65 160.757 164.45 161.597 165.522 161.959C166.609 162.288 167.994 162.375 169.679 162.22L166.051 153.152C164.668 153.788 163.691 154.656 163.122 155.757C162.577 156.848 162.577 158.076 163.123 159.44ZM176.059 173.664C177.526 172.968 178.503 172.032 178.987 170.856C179.462 169.656 179.445 168.421 178.937 167.151C178.401 165.81 177.584 164.964 176.488 164.611C175.416 164.249 174.021 164.138 172.304 164.28L176.059 173.664Z" fill="#1D212A"/>
<path d="M261.524 129.926C262.395 131.351 263.453 132.292 264.7 132.748C265.947 133.204 267.37 133.112 268.969 132.472C271.18 131.588 272.471 130.075 272.842 127.935C273.228 125.761 272.574 122.694 270.88 118.733C270.95 120.206 270.501 121.572 269.532 122.833C268.578 124.061 267.289 125 265.666 125.649C263.196 126.637 260.912 126.692 258.814 125.812C256.739 124.923 255.175 123.162 254.121 120.528C253.49 118.952 253.227 117.406 253.33 115.892C253.433 114.377 253.962 113.006 254.917 111.778C255.872 110.55 257.255 109.573 259.066 108.849C262.406 107.512 265.172 107.674 267.364 109.335C269.547 110.971 271.453 113.824 273.081 117.893C274.841 122.292 275.505 125.86 275.072 128.598C274.663 131.326 272.871 133.326 269.696 134.596C267.367 135.528 265.307 135.629 263.515 134.9C261.713 134.148 260.285 132.796 259.231 130.844L261.524 129.926ZM265.207 123.377C266.312 122.935 267.234 122.307 267.973 121.493C268.725 120.646 269.205 119.663 269.412 118.543C269.619 117.423 269.473 116.24 268.974 114.994C268.202 113.065 267.014 111.699 265.41 110.894C263.829 110.081 262.016 110.083 259.97 110.902C258.158 111.627 256.926 112.775 256.272 114.346C255.642 115.908 255.704 117.63 256.456 119.511C257.247 121.487 258.409 122.823 259.943 123.519C261.476 124.215 263.231 124.168 265.207 123.377ZM289.662 99.5941L276.749 104.761L280.363 113.793C280.622 112.734 281.212 111.72 282.134 110.751C283.046 109.758 284.161 108.999 285.478 108.472C287.407 107.7 289.143 107.469 290.686 107.779C292.219 108.066 293.511 108.736 294.56 109.79C295.6 110.82 296.407 112.053 296.981 113.487C297.64 115.134 297.92 116.754 297.821 118.349C297.737 119.911 297.203 121.339 296.22 122.633C295.26 123.917 293.828 124.94 291.923 125.703C289.5 126.672 287.287 126.835 285.283 126.19C283.269 125.523 281.67 124.184 280.484 122.176L282.918 121.202C283.845 122.632 285.031 123.549 286.475 123.953C287.919 124.358 289.453 124.235 291.076 123.586C293.122 122.767 294.423 121.551 294.977 119.937C295.546 118.291 295.431 116.468 294.631 114.468C293.85 112.516 292.714 111.211 291.222 110.553C289.722 109.871 287.983 109.925 286.008 110.715C284.644 111.261 283.571 112.059 282.79 113.108C282.009 114.157 281.589 115.321 281.528 116.601L279.199 117.533L273.595 103.526L288.801 97.442L289.662 99.5941Z" fill="#1D212A"/>
<path d="M194.383 199.562L192.965 196.019L204.191 153.528L209.74 151.308L222.632 183.528L229.785 180.666L231.416 184.744L224.264 187.606L228.811 198.97L224.198 200.815L219.651 189.451L194.383 199.562ZM207.387 158.22L198.166 193.318L218.22 185.294L207.387 158.22ZM235.379 183.158L233.961 179.615L245.187 137.124L250.736 134.904L263.628 167.124L270.781 164.262L272.413 168.34L265.26 171.202L269.807 182.566L265.195 184.412L260.647 173.048L235.379 183.158ZM248.383 141.817L239.162 176.914L259.216 168.89L248.383 141.817Z" fill="#1D212A"/>
<g opacity="0.7" clip-path="url(#clip0_895_33)">
<path d="M167.984 202.989C167.984 202.989 165.123 204.506 167.865 202.829C168.645 202.37 169.746 201.671 171.467 200.633C169.566 201.931 168.305 202.75 167.984 202.989Z" fill="#32D989"/>
<path d="M133.625 219.832C134.126 219.333 134.686 218.914 135.187 218.414L135.767 217.855C136.188 217.415 136.748 216.996 137.229 216.636C137.469 216.457 137.789 216.217 138.029 216.037L138.109 215.977C138.83 215.438 139.571 214.759 140.291 214.22C140.612 213.98 140.932 213.74 141.252 213.501C142.453 212.602 143.734 211.643 145.075 210.765C146.596 209.626 148.317 208.588 150.059 207.41C157.404 202.538 164.969 198.126 170.032 195.212C176.036 191.718 181.459 188.784 185.421 186.568L185.962 186.289C190.064 184.093 192.465 182.796 192.465 182.796C196.808 180.421 209.595 173.474 225.324 165.451C228.646 163.715 232.108 161.999 235.65 160.222C233.589 160.64 231.589 161.138 229.608 161.496C224.907 162.391 221.087 163.127 217.666 163.563C217.586 163.623 217.446 163.603 217.446 163.603C215.986 163.821 215.186 163.92 215.186 163.92L214.606 163.98C214.386 164.02 214.246 163.999 214.026 164.039C213.666 164.059 213.225 164.138 212.865 164.158L212.145 164.197C211.065 164.256 209.905 164.375 208.765 164.353C206.405 164.371 204.345 164.289 202.606 163.967C200.946 163.585 199.527 163.023 198.428 162.222C197.388 161.501 196.589 160.6 196.051 159.38C195.711 158.759 195.612 157.959 195.533 157.519C195.493 157.299 195.473 156.939 195.514 156.659C195.554 156.379 195.514 156.159 195.554 155.879L195.575 155.739C195.635 155.319 195.695 154.899 195.896 154.5C195.956 154.08 196.237 153.62 196.437 153.22L196.517 153.16C196.638 152.82 196.898 152.501 197.158 152.181C197.238 152.121 197.339 151.921 197.419 151.861C197.499 151.801 197.519 151.661 197.599 151.601C197.699 151.401 197.779 151.342 197.939 151.222C198.18 151.042 198.36 150.782 198.52 150.662C198.68 150.543 198.78 150.343 198.94 150.223C199.121 149.963 199.441 149.723 199.681 149.544C199.921 149.364 200.242 149.124 200.422 148.864L200.822 148.565C201.243 148.125 201.863 147.786 202.343 147.426C202.584 147.247 202.744 147.127 202.904 147.007L202.984 146.947C203.144 146.827 203.304 146.708 203.464 146.588L203.125 145.967L203.825 145.568C204.686 145.049 205.086 144.749 205.086 144.749L205.647 144.33L206.347 143.931C206.507 143.811 206.668 143.691 206.888 143.651C207.428 143.372 207.908 143.012 208.529 142.673C209.689 142.054 210.79 141.356 211.951 140.737C214.272 139.499 216.673 138.202 219.435 136.885C224.277 134.51 229.78 132.016 236.263 129.163C246.628 124.654 258.313 119.907 272.159 114.542C281.623 110.832 291.587 107.123 301.831 103.454C309.434 100.762 314.176 99.0872 314.176 99.0872C314.176 99.0872 309.874 100.683 302.411 103.394C291.767 107.363 281.723 111.132 271.798 115.061C258.693 120.247 244.367 125.972 229.239 132.796C224.957 134.751 221.055 136.547 217.593 138.263C214.132 139.979 210.049 142.035 205.747 144.63L203.385 146.148C203.065 146.387 202.824 146.567 202.504 146.807C202.024 147.166 201.543 147.526 201.063 147.885C200.983 147.945 200.983 147.945 200.903 148.005C199.361 149.283 197.82 150.562 196.979 151.941C196.718 152.26 196.458 152.58 196.338 152.92C196.317 153.06 196.237 153.12 196.217 153.26C196.117 153.46 196.017 153.66 195.917 153.86L195.636 154.819C195.615 154.959 195.595 155.099 195.515 155.159C195.415 155.359 195.455 155.579 195.354 155.779C195.334 156.419 195.293 157.199 195.472 157.939C195.631 158.819 196.09 159.6 196.31 160.06C197.069 161.241 198.028 162.022 199.427 162.723C200.626 163.325 202.346 163.787 204.606 163.969L206.166 164.051C206.526 164.031 206.806 164.071 207.166 164.052C207.386 164.012 207.526 164.032 207.746 163.992C208.526 164.033 209.386 164.014 210.186 163.915C210.406 163.875 210.766 163.856 211.046 163.896L211.846 163.797L213.226 163.638L214.386 163.52C215.326 163.441 216.266 163.362 217.227 163.143C217.307 163.083 217.447 163.103 217.447 163.103C218.327 162.944 219.487 162.825 220.727 162.646C224.828 161.951 230.189 160.937 235.65 159.722C236.271 159.383 236.811 159.104 237.491 158.844C231.81 160.098 226.509 161.193 221.668 162.067C219.547 162.405 217.567 162.763 215.607 162.981C214.667 163.06 213.646 163.199 212.766 163.358L212.046 163.397L211.686 163.417L211.106 163.476C210.306 163.575 209.526 163.534 208.726 163.633C205.566 163.75 202.806 163.567 200.907 162.865C198.928 162.223 197.709 161.262 196.87 160.141C196.031 159.02 195.493 157.299 195.574 156.239C195.595 155.099 195.996 154.3 196.177 153.54C196.498 152.8 196.718 152.26 197.059 151.881C197.319 151.561 197.499 151.301 197.499 151.301C197.68 151.041 197.94 150.722 198.28 150.342L199.121 149.463C199.782 148.844 200.503 148.305 201.163 147.685C201.884 147.146 202.684 146.547 203.465 146.088C204.165 145.688 204.886 145.149 205.586 144.75L206.067 144.391L206.387 144.151L207.087 143.752C207.548 143.532 207.948 143.233 208.408 143.013C209.269 142.494 210.189 142.055 210.97 141.596C214.312 139.719 217.614 138.123 220.695 136.566C226.638 133.993 232.201 131.579 236.843 129.604C241.485 127.629 245.207 126.093 247.768 125.176C250.349 124.118 251.709 123.6 251.709 123.6C265.535 117.875 276.34 113.786 284.723 110.635C293.107 107.484 298.989 105.331 303.131 103.855C311.414 100.904 312.754 100.526 312.754 100.526L313.913 101.907L312.65 104.226L312.787 106.746C313.965 109.487 311.445 108.624 311.445 108.624C291.378 115.523 272.23 122.482 254.183 129.742C245.099 133.293 236.295 136.883 227.891 140.674C223.689 142.57 219.547 144.545 215.604 146.621C213.603 147.619 211.662 148.697 209.781 149.855L208.54 150.533C208.22 150.773 207.76 150.992 207.519 151.172C206.819 151.571 206.179 152.051 205.458 152.59C204.817 153.069 204.097 153.608 203.576 154.248C203.316 154.568 203.055 154.887 202.855 155.287C202.655 155.687 202.734 156.127 202.894 156.507C203.293 157.208 204.193 157.408 204.953 157.589C205.712 157.77 206.492 157.811 207.412 157.872C208.192 157.913 209.052 157.894 209.912 157.875L211.132 157.836L212.652 157.698C214.753 157.5 216.713 157.282 218.753 157.004C226.854 155.813 234.576 154.281 242.038 152.569C247.579 151.295 252.901 150.061 258.022 148.727C263.025 146.232 268.087 143.817 273.01 141.383C274.171 140.764 276.012 139.886 280.694 137.631L280.754 137.711L280.953 138.311L282.25 141.713C282.33 141.653 282.55 141.613 282.63 141.553L283.248 143.214C283.168 143.274 282.948 143.313 282.868 143.373L284.164 146.775L284.364 147.375C280.782 148.431 272.5 150.882 262.317 153.631C249.91 159.918 235.422 167.262 221.814 174.448C200.022 185.884 182.291 195.905 179.229 197.822C182.291 195.905 200.022 185.884 221.814 174.448C235.422 167.262 249.83 159.978 262.237 153.691C260.896 154.07 259.496 154.368 258.076 154.807C243.308 162.111 231.341 168.318 222.076 173.128C208.168 180.413 200.923 184.585 200.923 184.585C184.614 193.167 175.829 198.118 171.226 200.813C173.828 199.116 177.51 196.86 181.112 194.664C185.335 192.128 189.538 189.733 191.799 188.415L184.475 192.647C179.272 195.542 173.988 198.496 168.765 201.53C171.907 199.554 175.109 197.657 178.311 195.761C175.45 197.277 168.906 201.05 163.042 204.564C160.14 206.361 157.398 208.038 155.497 209.336C153.535 210.554 152.334 211.453 152.334 211.453C155.377 209.176 164.303 203.245 176.231 196.318C188.178 189.251 203.147 181.047 217.776 173.223C228.382 167.535 238.948 162.126 247.973 157.496C247.232 157.675 246.412 157.914 245.672 158.093C237.808 162.105 228.783 166.735 219.517 171.545C204.769 179.209 191.121 186.674 180.074 192.942C167.247 200.169 157.84 205.959 153.337 208.954C157.84 205.959 167.247 200.169 180.074 192.942C191.121 186.674 204.829 179.289 219.577 171.625C228.843 166.815 237.868 162.185 245.652 158.233C245.212 158.313 244.832 158.472 244.392 158.552C232.465 164.479 218.437 171.604 204.809 178.929C189.1 187.312 173.951 195.776 162.784 202.384C157.22 205.798 152.677 208.573 149.515 210.69C147.934 211.748 146.673 212.566 145.872 213.166C145.072 213.765 144.612 213.984 144.612 213.984C145.172 213.565 146.133 212.846 147.414 211.887C148.695 210.929 150.436 209.751 152.498 208.333C156.601 205.637 162.024 202.203 168.348 198.47C180.937 190.923 197.226 181.981 213.395 173.378C222.521 168.548 231.646 163.718 239.97 159.487C239.45 159.627 239.01 159.706 238.49 159.846C227.844 165.314 216.038 171.401 204.351 177.649C187.641 186.531 171.391 195.693 159.403 203.04C153.38 206.674 148.496 209.828 145.154 212.205C143.492 213.323 142.131 214.342 141.251 215.001C140.37 215.66 139.889 216.019 139.889 216.019C141.911 214.381 147.756 210.008 156.462 204.617C165.248 199.166 176.855 192.479 190.203 185.113C204.631 177.189 221.081 168.627 237.97 159.985C237.09 160.144 236.27 160.383 235.389 160.542C231.847 162.318 228.445 164.115 225.064 165.771C209.255 173.854 196.548 180.74 192.205 183.116C192.205 183.116 189.723 184.473 185.701 186.609L185.161 186.888C181.198 189.104 175.775 192.038 169.772 195.531C164.708 198.446 157.204 202.938 149.798 207.73C148.057 208.908 146.476 209.966 144.815 211.084C143.474 211.963 142.193 212.922 140.992 213.82C140.672 214.06 140.351 214.3 140.031 214.539C139.951 214.599 139.791 214.719 139.711 214.779C139.07 215.258 138.43 215.738 137.849 216.297L137.769 216.357C137.529 216.537 137.209 216.776 136.968 216.956C136.488 217.315 136.008 217.675 135.507 218.174L134.926 218.734C134.686 218.914 134.186 219.413 133.625 219.832C132.944 220.592 132.264 221.351 131.583 222.11C132.344 221.291 133.025 220.532 133.625 219.832ZM211.666 164.057L210.865 164.156C210.585 164.115 210.285 164.215 210.005 164.175C209.205 164.274 208.345 164.293 207.565 164.252C207.345 164.292 207.205 164.272 206.985 164.312C206.625 164.331 206.265 164.351 205.985 164.31L204.425 164.229C202.246 163.986 200.446 163.584 199.247 162.983C197.847 162.282 196.828 161.421 196.13 160.32C195.77 159.839 195.451 159.079 195.292 158.199C195.113 157.459 195.154 156.679 195.174 156.039C195.214 155.759 195.235 155.619 195.335 155.419C195.355 155.279 195.375 155.139 195.455 155.079L195.756 153.979C195.857 153.779 195.957 153.58 196.057 153.38C196.077 153.24 196.157 153.18 196.177 153.04C196.298 152.7 196.558 152.38 196.818 152.061C197.66 150.681 199.201 149.403 200.743 148.125C200.823 148.065 200.823 148.065 200.903 148.005C201.383 147.645 201.864 147.286 202.344 146.926C202.664 146.687 202.904 146.507 203.225 146.267L205.586 144.75C209.809 142.215 213.971 140.099 217.433 138.383C220.975 136.607 224.797 134.871 229.079 132.915C244.367 125.972 258.633 120.167 271.798 115.061C281.723 111.132 291.767 107.363 302.411 103.394C306.713 101.799 309.954 100.623 311.915 99.9047C309.814 100.602 306.273 101.879 301.751 103.514C291.647 107.203 281.683 110.912 272.159 114.542C258.313 119.907 246.628 124.654 236.343 129.103C229.94 131.896 224.358 134.45 219.515 136.825C216.754 138.142 214.272 139.499 212.031 140.677C210.87 141.296 209.709 141.914 208.609 142.613C208.068 142.893 207.508 143.312 206.968 143.591C206.808 143.711 206.647 143.831 206.427 143.871L205.727 144.27L205.166 144.69C205.166 144.69 204.766 144.989 203.906 145.508L203.205 145.907L202.805 146.207C202.645 146.327 202.485 146.447 202.324 146.566L202.244 146.626C202.084 146.746 201.844 146.926 201.684 147.046C201.204 147.405 200.723 147.765 200.163 148.184L199.762 148.484C199.522 148.663 199.202 148.903 199.022 149.163C198.701 149.403 198.521 149.662 198.281 149.842C198.121 149.962 198.021 150.162 197.86 150.282C197.62 150.461 197.52 150.661 197.28 150.841C197.12 150.961 197.1 151.101 196.939 151.221C196.859 151.281 196.839 151.421 196.759 151.48C196.679 151.54 196.579 151.74 196.499 151.8C196.238 152.12 195.978 152.44 195.938 152.72L195.858 152.78C195.657 153.179 195.457 153.579 195.316 154.059C195.196 154.399 195.055 154.879 194.995 155.299L194.975 155.439C194.935 155.719 194.974 155.939 194.934 156.219C194.894 156.498 194.993 156.799 194.953 157.079C195.033 157.519 195.212 158.259 195.471 158.939C196.09 160.1 196.749 160.98 197.848 161.782C198.887 162.503 200.307 163.064 202.026 163.526C203.766 163.848 205.826 163.93 208.186 163.913C209.505 164.174 210.645 164.195 211.666 164.057L212.166 164.057L211.666 164.057ZM224.207 162.29C225.828 161.952 227.508 161.694 229.349 161.316C231.409 160.898 233.469 160.48 235.53 160.062C235.53 160.062 235.53 160.062 235.61 160.002C231.549 160.918 227.648 161.714 224.207 162.29ZM235.75 160.023C235.89 160.043 236.05 159.923 236.19 159.943C236.93 159.764 237.59 159.645 238.331 159.465C238.951 159.126 239.571 158.787 240.171 158.587C239.291 158.746 238.471 158.985 237.511 159.204C236.911 159.404 236.37 159.683 235.75 160.023ZM274.207 143.984C273.907 144.084 273.607 144.183 273.387 144.223C272.627 144.542 271.706 144.981 270.566 145.46C271.086 145.321 271.526 145.241 272.046 145.102C272.886 144.723 273.667 144.263 274.207 143.984ZM277.071 140.467C275.47 141.165 269.727 143.839 261.423 147.93C261.803 147.771 262.163 147.751 262.543 147.591C271.468 143.161 277.071 140.467 277.071 140.467ZM275.348 143.505C274.888 143.725 274.287 143.924 273.447 144.303C273.747 144.204 273.967 144.164 274.267 144.064C274.968 143.665 275.348 143.505 275.348 143.505ZM284.244 146.715C277.822 148.648 271.42 150.441 265.318 152.134C264.478 152.514 263.698 152.973 262.857 153.352C269.839 151.499 277.061 149.467 284.444 147.315L284.244 146.715ZM265.178 152.114C263.838 152.493 262.358 152.851 261.017 153.23C260.177 153.609 259.396 154.068 258.636 154.387C259.976 154.009 261.377 153.71 262.797 153.272C263.638 152.893 264.398 152.573 265.178 152.114ZM250.554 155.939C250.474 155.998 250.334 155.978 250.334 155.978C249.594 156.157 248.934 156.277 248.254 156.536C247.633 156.875 246.873 157.195 246.253 157.534C246.993 157.355 247.813 157.116 248.553 156.936C249.234 156.677 249.854 156.338 250.554 155.939ZM248.174 156.596C247.734 156.675 247.353 156.835 246.993 156.855C246.373 157.194 245.613 157.513 244.912 157.912C245.352 157.833 245.732 157.673 246.173 157.594C246.793 157.254 247.413 156.915 248.174 156.596ZM242.032 158.069C241.512 158.209 241.072 158.288 240.552 158.428C239.931 158.767 239.311 159.106 238.711 159.306C239.231 159.166 239.671 159.087 240.191 158.947C240.871 158.688 241.492 158.349 242.032 158.069ZM260.983 148.01C267.746 144.697 274.37 141.364 280.893 138.231L280.694 137.631C273.47 141.163 265.786 144.915 258.102 148.667C259.122 148.528 260.083 148.309 260.983 148.01ZM273.69 141.124C276.072 139.966 278.453 138.809 280.754 137.711C276.772 139.567 274.851 140.505 273.69 141.124ZM283.408 143.094L282.79 141.433C282.71 141.493 282.49 141.533 282.41 141.593L282.609 142.193C282.689 142.133 282.829 142.153 282.989 142.034L283.209 142.494C283.129 142.554 283.049 142.614 282.829 142.653L283.028 143.254C283.168 143.274 283.248 143.214 283.408 143.094ZM284.444 147.315C277.061 149.467 269.839 151.499 262.777 153.412C262.697 153.472 262.617 153.532 262.477 153.511C272.72 150.842 280.863 148.371 284.444 147.315ZM262.397 153.571C262.477 153.511 262.557 153.451 262.697 153.472C261.357 153.85 259.876 154.209 258.536 154.587C258.456 154.647 258.376 154.707 258.236 154.687C259.656 154.248 261.137 153.89 262.397 153.571ZM248.233 157.176C248.313 157.116 248.313 157.116 248.393 157.056C247.653 157.235 246.833 157.475 246.092 157.654C246.012 157.714 246.012 157.714 245.932 157.774C246.753 157.534 247.493 157.355 248.233 157.176ZM245.872 157.693C245.952 157.634 245.953 157.634 246.033 157.574C245.592 157.653 245.212 157.813 244.772 157.892C244.692 157.952 244.692 157.952 244.612 158.012C245.052 157.933 245.492 157.853 245.872 157.693ZM240.031 159.067L240.111 159.007C239.591 159.147 239.151 159.226 238.631 159.366L238.551 159.426C239.071 159.286 239.511 159.207 240.031 159.067ZM238.11 159.505C238.191 159.445 238.191 159.445 238.11 159.505C237.45 159.624 236.79 159.744 236.13 159.863C235.91 159.903 235.83 159.963 235.61 160.002C235.61 160.002 235.61 160.002 235.53 160.062C236.41 159.903 237.29 159.744 238.11 159.505Z" fill="#32D989"/>
</g>
<defs>
<filter id="filter0_ddd_895_33" x="0.396484" y="0.397461" width="442.576" height="364.604" filterUnits="userSpaceOnUse" color-interpolation-filters="sRGB">
<feFlood flood-opacity="0" result="BackgroundImageFix"/>
<feColorMatrix in="SourceAlpha" type="matrix" values="0 0 0 0 0 0 0 0 0 0 0 0 0 0 0 0 0 0 127 0" result="hardAlpha"/>
<feOffset dy="15.8955"/>
<feColorMatrix type="matrix" values="0 0 0 0 0.74902 0 0 0 0 0.8 0 0 0 0 0.882353 0 0 0 0.0372931 0"/>
<feBlend mode="normal" in2="BackgroundImageFix" result="effect1_dropShadow_895_33"/>
<feColorMatrix in="SourceAlpha" type="matrix" values="0 0 0 0 0 0 0 0 0 0 0 0 0 0 0 0 0 0 127 0" result="hardAlpha"/>
<feOffset dy="20.7957"/>
<feGaussianBlur stdDeviation="7.66358"/>
<feColorMatrix type="matrix" values="0 0 0 0 0.74902 0 0 0 0 0.8 0 0 0 0 0.882353 0 0 0 0.177553 0"/>
<feBlend mode="normal" in2="effect1_dropShadow_895_33" result="effect2_dropShadow_895_33"/>
<feColorMatrix in="SourceAlpha" type="matrix" values="0 0 0 0 0 0 0 0 0 0 0 0 0 0 0 0 0 0 127 0" result="hardAlpha"/>
<feOffset dy="38"/>
<feGaussianBlur stdDeviation="28"/>
<feColorMatrix type="matrix" values="0 0 0 0 0.74902 0 0 0 0 0.8 0 0 0 0 0.882353 0 0 0 0.39 0"/>
<feBlend mode="normal" in2="effect2_dropShadow_895_33" result="effect3_dropShadow_895_33"/>
<feBlend mode="normal" in="SourceGraphic" in2="effect3_dropShadow_895_33" result="shape"/>
</filter>
<clipPath id="clip0_895_33">
<rect width="219.8" height="49.9" fill="white" transform="matrix(-0.800647 0.599136 0.599136 0.800647 296.801 75.8684)"/>
</clipPath>
</defs>
</svg>
