<svg width="498" height="690" viewBox="0 0 498 690" fill="none" xmlns="http://www.w3.org/2000/svg">
<g filter="url(#filter0_ddddddd_732_3)">
<path d="M99.5958 18.9037L98.3118 16.8766C98.3626 16.8817 97.855 16.3177 97.992 16.4853L84.312 1.51616C83.8957 1.06393 83.3626 0.753841 82.7583 0.641782C81.8035 0.443194 80.8789 0.965793 80.4367 1.79337C79.0233 4.6265 75.4034 12.0597 75.4034 12.0597C75.0119 12.8924 75.1689 13.8828 75.7679 14.5586C79.4684 18.5727 87.8287 27.7747 87.7424 27.6122C88.8033 28.7961 90.7332 28.9901 92.2777 27.9143L98.283 23.7988C99.99 22.6367 100.57 20.4379 99.5958 18.9037Z" fill="url(#paint0_linear_732_3)"/>
<path d="M165.841 43.1149C165.841 43.1149 156.563 50.6974 134.455 39.9592C120.457 31.7292 111.741 21.9785 108.147 17.4109C105.28 13.7882 101.208 11.4295 96.6522 10.8176C96.3983 10.7921 96.1444 10.7665 95.9412 10.7461C94.8747 10.6389 93.7776 10.8364 92.7971 11.4046C90.455 12.7594 85.6895 15.7684 82.5949 18.9967C80.8825 20.7226 79.9772 23.0938 80.0877 25.5672C80.3593 31.0319 83.3748 33.6948 83.3748 33.6948C83.3748 33.6948 112.63 62.6438 107.68 78.7151C105.964 86.5962 102.852 84.3853 102.73 94.7863C102.978 106.61 168.479 47.484 168.479 47.484C168.479 47.484 176.802 40.2159 165.841 43.1149Z" fill="url(#paint1_radial_732_3)"/>
<path d="M165.841 43.1149C165.841 43.1149 156.563 50.6974 134.455 39.9592C120.457 31.7292 111.741 21.9785 108.147 17.4109C105.28 13.7882 101.208 11.4295 96.6522 10.8176C96.3983 10.7921 96.1444 10.7665 95.9412 10.7461C94.8747 10.6389 93.7776 10.8364 92.7971 11.4046C90.455 12.7594 85.6895 15.7684 82.5949 18.9967C80.8825 20.7226 79.9772 23.0938 80.0877 25.5672C80.3593 31.0319 83.3748 33.6948 83.3748 33.6948C83.3748 33.6948 112.63 62.6438 107.68 78.7151C105.964 86.5962 102.852 84.3853 102.73 94.7863C102.978 106.61 168.479 47.484 168.479 47.484C168.479 47.484 176.802 40.2159 165.841 43.1149Z" fill="url(#paint2_radial_732_3)"/>
<path d="M165.841 43.1149C165.841 43.1149 156.563 50.6974 134.455 39.9592C120.457 31.7292 111.741 21.9785 108.147 17.4109C105.28 13.7882 101.208 11.4295 96.6522 10.8176C96.3983 10.7921 96.1444 10.7665 95.9412 10.7461C94.8747 10.6389 93.7776 10.8364 92.7971 11.4046C90.455 12.7594 85.6895 15.7684 82.5949 18.9967C80.8825 20.7226 79.9772 23.0938 80.0877 25.5672C80.3593 31.0319 83.3748 33.6948 83.3748 33.6948C83.3748 33.6948 112.63 62.6438 107.68 78.7151C105.964 86.5962 102.852 84.3853 102.73 94.7863C102.978 106.61 168.479 47.484 168.479 47.484C168.479 47.484 176.802 40.2159 165.841 43.1149Z" fill="url(#paint3_radial_732_3)"/>
<path d="M180.998 46.4343C176.658 41.6377 169.258 40.7398 163.422 43.1795C161.883 43.1787 112.316 78.0014 110.055 79.5695C105.716 82.9292 102.732 88.118 102.485 93.6333C102.372 96.2893 102.92 99.0118 104.168 101.394C104.34 101.719 104.518 101.994 104.69 102.319L113.45 116.229C113.891 116.94 114.389 117.606 114.947 118.175C114.049 116.392 301.716 322.957 294.336 313.699C292.773 310.875 284.709 299.24 284.06 296.508C282.224 290.783 284.142 284.461 287.928 279.969C289.092 278.598 290.444 277.4 291.881 276.365L340.345 242.816C343.49 240.619 347.315 239.311 351.155 239.389C353.821 239.401 356.523 240.083 358.843 241.496C359.762 242.05 360.57 242.695 361.321 243.386C364.397 246.466 180.201 45.6873 180.998 46.4343Z" fill="url(#paint4_linear_732_3)"/>
<g filter="url(#filter1_di_732_3)">
<path d="M372.14 259.761C376.738 267.097 373.945 277.537 365.836 283.185L317.372 316.733C309.268 322.33 298.939 320.984 294.341 313.648L285.581 299.738C280.984 292.402 283.777 281.962 291.886 276.314L340.35 242.766C348.453 237.168 358.783 238.515 363.381 245.851L372.14 259.761Z" fill="url(#paint5_linear_732_3)"/>
</g>
<g filter="url(#filter2_di_732_3)">
<path fill-rule="evenodd" clip-rule="evenodd" d="M363.381 245.851C358.783 238.515 348.453 237.168 340.35 242.766L291.886 276.314C283.777 281.962 280.984 292.402 285.581 299.738L294.341 313.648C298.939 320.984 309.268 322.33 317.372 316.733L365.836 283.185C373.945 277.537 376.738 267.097 372.14 259.761L363.381 245.851ZM365.265 282.365C365.265 282.364 365.266 282.364 365.266 282.364C373.031 276.954 375.55 267.083 371.293 260.292L362.534 246.382C358.309 239.641 348.67 238.234 340.918 243.588L292.457 277.134C292.457 277.134 292.456 277.135 292.456 277.135C284.691 282.544 282.173 292.414 286.428 299.205C286.428 299.206 286.428 299.206 286.429 299.207L295.187 313.115L295.188 313.117C299.413 319.858 309.052 321.264 316.804 315.91L365.265 282.365Z" fill="url(#paint6_linear_732_3)"/>
</g>
<path d="M373.653 269.198C372.389 267.993 359.039 252.801 357.896 252.429C355.073 250.401 351.473 249.475 348.014 249.692C344.763 249.878 341.624 250.998 338.881 252.774C337.433 253.911 299.607 279.604 299.211 280.487C294.348 284.974 291.668 292.245 293.686 298.706C294.031 299.87 294.589 300.952 295.203 301.988C296.233 303.477 300.44 310.619 301.653 311.819L315.334 326.788C314.78 326.168 314.278 325.553 313.836 324.842C313.405 324.029 308.421 316.449 308.229 315.814C307.077 313.493 306.57 310.877 306.673 308.322C306.894 303.574 309.146 299.03 312.556 295.73C313.069 295.218 313.684 294.715 314.243 294.259C314.522 294.03 314.852 293.807 315.183 293.584L352.012 268.099C358.424 263.511 368.206 263.161 373.653 269.198Z" fill="url(#paint7_linear_732_3)"/>
<g filter="url(#filter3_i_732_3)">
<path d="M380.102 279.028C384.7 286.364 381.907 296.804 373.798 302.453L336.969 327.937C328.865 333.535 318.535 332.188 313.937 324.852L308.984 316.967C304.386 309.631 307.18 299.191 315.289 293.543L352.118 268.058C360.222 262.461 370.551 263.807 375.149 271.143L380.102 279.028Z" fill="url(#paint8_linear_732_3)"/>
</g>
<g filter="url(#filter4_i_732_3)">
<path fill-rule="evenodd" clip-rule="evenodd" d="M313.937 324.852C318.535 332.188 328.865 333.535 336.969 327.937L373.798 302.453C381.907 296.804 384.7 286.364 380.102 279.028L375.149 271.143C370.551 263.807 360.222 262.461 352.118 268.058L315.289 293.543C307.18 299.191 304.386 309.631 308.984 316.967L313.937 324.852ZM309.832 316.436C309.832 316.436 309.832 316.436 309.832 316.436L314.785 324.321C319.01 331.062 328.649 332.469 336.4 327.114L373.226 301.632C373.227 301.632 373.227 301.631 373.227 301.631C380.993 296.222 383.511 286.352 379.256 279.56M379.255 279.559L374.303 271.675L374.302 271.675C370.077 264.934 360.438 263.527 352.686 268.881L315.86 294.364C315.86 294.364 315.86 294.364 315.859 294.364C308.094 299.774 305.575 309.645 309.832 316.436" fill="url(#paint9_linear_732_3)"/>
</g>
</g>
<defs>
<filter id="filter0_ddddddd_732_3" x="0.189453" y="0.599609" width="457.125" height="567.787" filterUnits="userSpaceOnUse" color-interpolation-filters="sRGB">
<feFlood flood-opacity="0" result="BackgroundImageFix"/>
<feColorMatrix in="SourceAlpha" type="matrix" values="0 0 0 0 0 0 0 0 0 0 0 0 0 0 0 0 0 0 127 0" result="hardAlpha"/>
<feOffset dy="8.59731"/>
<feColorMatrix type="matrix" values="0 0 0 0 0.666667 0 0 0 0 0.733333 0 0 0 0 0.843137 0 0 0 0.0930978 0"/>
<feBlend mode="normal" in2="BackgroundImageFix" result="effect1_dropShadow_732_3"/>
<feColorMatrix in="SourceAlpha" type="matrix" values="0 0 0 0 0 0 0 0 0 0 0 0 0 0 0 0 0 0 127 0" result="hardAlpha"/>
<feOffset dy="17.0199"/>
<feColorMatrix type="matrix" values="0 0 0 0 0.666667 0 0 0 0 0.733333 0 0 0 0 0.843137 0 0 0 0.119596 0"/>
<feBlend mode="normal" in2="effect1_dropShadow_732_3" result="effect2_dropShadow_732_3"/>
<feColorMatrix in="SourceAlpha" type="matrix" values="0 0 0 0 0 0 0 0 0 0 0 0 0 0 0 0 0 0 127 0" result="hardAlpha"/>
<feOffset dy="25.7987"/>
<feGaussianBlur stdDeviation="4.49942"/>
<feColorMatrix type="matrix" values="0 0 0 0 0.666667 0 0 0 0 0.733333 0 0 0 0 0.843137 0 0 0 0.127088 0"/>
<feBlend mode="normal" in2="effect2_dropShadow_732_3" result="effect3_dropShadow_732_3"/>
<feColorMatrix in="SourceAlpha" type="matrix" values="0 0 0 0 0 0 0 0 0 0 0 0 0 0 0 0 0 0 127 0" result="hardAlpha"/>
<feOffset dy="36.1339"/>
<feGaussianBlur stdDeviation="12.9102"/>
<feColorMatrix type="matrix" values="0 0 0 0 0.666667 0 0 0 0 0.733333 0 0 0 0 0.843137 0 0 0 0.128818 0"/>
<feBlend mode="normal" in2="effect3_dropShadow_732_3" result="effect4_dropShadow_732_3"/>
<feColorMatrix in="SourceAlpha" type="matrix" values="0 0 0 0 0 0 0 0 0 0 0 0 0 0 0 0 0 0 127 0" result="hardAlpha"/>
<feOffset dy="51.0752"/>
<feGaussianBlur stdDeviation="23.8636"/>
<feColorMatrix type="matrix" values="0 0 0 0 0.666667 0 0 0 0 0.733333 0 0 0 0 0.843137 0 0 0 0.133162 0"/>
<feBlend mode="normal" in2="effect4_dropShadow_732_3" result="effect5_dropShadow_732_3"/>
<feColorMatrix in="SourceAlpha" type="matrix" values="0 0 0 0 0 0 0 0 0 0 0 0 0 0 0 0 0 0 127 0" result="hardAlpha"/>
<feOffset dy="80.1216"/>
<feGaussianBlur stdDeviation="33.0602"/>
<feColorMatrix type="matrix" values="0 0 0 0 0.666667 0 0 0 0 0.733333 0 0 0 0 0.843137 0 0 0 0.149863 0"/>
<feBlend mode="normal" in2="effect5_dropShadow_732_3" result="effect6_dropShadow_732_3"/>
<feColorMatrix in="SourceAlpha" type="matrix" values="0 0 0 0 0 0 0 0 0 0 0 0 0 0 0 0 0 0 127 0" result="hardAlpha"/>
<feOffset dy="162"/>
<feGaussianBlur stdDeviation="37.5"/>
<feColorMatrix type="matrix" values="0 0 0 0 0.666667 0 0 0 0 0.733333 0 0 0 0 0.843137 0 0 0 0.2 0"/>
<feBlend mode="normal" in2="effect6_dropShadow_732_3" result="effect7_dropShadow_732_3"/>
<feBlend mode="normal" in="SourceGraphic" in2="effect7_dropShadow_732_3" result="shape"/>
</filter>
<filter id="filter1_di_732_3" x="280.369" y="237.316" width="93.9824" height="90.8657" filterUnits="userSpaceOnUse" color-interpolation-filters="sRGB">
<feFlood flood-opacity="0" result="BackgroundImageFix"/>
<feColorMatrix in="SourceAlpha" type="matrix" values="0 0 0 0 0 0 0 0 0 0 0 0 0 0 0 0 0 0 127 0" result="hardAlpha"/>
<feOffset dx="-3" dy="-2"/>
<feColorMatrix type="matrix" values="0 0 0 0 0.27451 0 0 0 0 0.345098 0 0 0 0 0.478431 0 0 0 1 0"/>
<feBlend mode="normal" in2="BackgroundImageFix" result="effect1_dropShadow_732_3"/>
<feBlend mode="normal" in="SourceGraphic" in2="effect1_dropShadow_732_3" result="shape"/>
<feColorMatrix in="SourceAlpha" type="matrix" values="0 0 0 0 0 0 0 0 0 0 0 0 0 0 0 0 0 0 127 0" result="hardAlpha"/>
<feOffset dy="8"/>
<feGaussianBlur stdDeviation="8"/>
<feComposite in2="hardAlpha" operator="arithmetic" k2="-1" k3="1"/>
<feColorMatrix type="matrix" values="0 0 0 0 0.337255 0 0 0 0 0.407843 0 0 0 0 0.545098 0 0 0 0.5 0"/>
<feBlend mode="normal" in2="shape" result="effect2_innerShadow_732_3"/>
</filter>
<filter id="filter2_di_732_3" x="280.369" y="237.316" width="93.9824" height="90.8657" filterUnits="userSpaceOnUse" color-interpolation-filters="sRGB">
<feFlood flood-opacity="0" result="BackgroundImageFix"/>
<feColorMatrix in="SourceAlpha" type="matrix" values="0 0 0 0 0 0 0 0 0 0 0 0 0 0 0 0 0 0 127 0" result="hardAlpha"/>
<feOffset dx="-3" dy="-2"/>
<feColorMatrix type="matrix" values="0 0 0 0 0.27451 0 0 0 0 0.345098 0 0 0 0 0.478431 0 0 0 1 0"/>
<feBlend mode="normal" in2="BackgroundImageFix" result="effect1_dropShadow_732_3"/>
<feBlend mode="normal" in="SourceGraphic" in2="effect1_dropShadow_732_3" result="shape"/>
<feColorMatrix in="SourceAlpha" type="matrix" values="0 0 0 0 0 0 0 0 0 0 0 0 0 0 0 0 0 0 127 0" result="hardAlpha"/>
<feOffset dy="8"/>
<feGaussianBlur stdDeviation="8"/>
<feComposite in2="hardAlpha" operator="arithmetic" k2="-1" k3="1"/>
<feColorMatrix type="matrix" values="0 0 0 0 0.337255 0 0 0 0 0.407843 0 0 0 0 0.545098 0 0 0 0.5 0"/>
<feBlend mode="normal" in2="shape" result="effect2_innerShadow_732_3"/>
</filter>
<filter id="filter3_i_732_3" x="306.771" y="264.609" width="75.543" height="74.7773" filterUnits="userSpaceOnUse" color-interpolation-filters="sRGB">
<feFlood flood-opacity="0" result="BackgroundImageFix"/>
<feBlend mode="normal" in="SourceGraphic" in2="BackgroundImageFix" result="shape"/>
<feColorMatrix in="SourceAlpha" type="matrix" values="0 0 0 0 0 0 0 0 0 0 0 0 0 0 0 0 0 0 127 0" result="hardAlpha"/>
<feOffset dy="8"/>
<feGaussianBlur stdDeviation="8"/>
<feComposite in2="hardAlpha" operator="arithmetic" k2="-1" k3="1"/>
<feColorMatrix type="matrix" values="0 0 0 0 0.337255 0 0 0 0 0.407843 0 0 0 0 0.545098 0 0 0 0.5 0"/>
<feBlend mode="normal" in2="shape" result="effect1_innerShadow_732_3"/>
</filter>
<filter id="filter4_i_732_3" x="306.771" y="264.609" width="75.543" height="74.7773" filterUnits="userSpaceOnUse" color-interpolation-filters="sRGB">
<feFlood flood-opacity="0" result="BackgroundImageFix"/>
<feBlend mode="normal" in="SourceGraphic" in2="BackgroundImageFix" result="shape"/>
<feColorMatrix in="SourceAlpha" type="matrix" values="0 0 0 0 0 0 0 0 0 0 0 0 0 0 0 0 0 0 127 0" result="hardAlpha"/>
<feOffset dy="8"/>
<feGaussianBlur stdDeviation="8"/>
<feComposite in2="hardAlpha" operator="arithmetic" k2="-1" k3="1"/>
<feColorMatrix type="matrix" values="0 0 0 0 0.337255 0 0 0 0 0.407843 0 0 0 0 0.545098 0 0 0 0.5 0"/>
<feBlend mode="normal" in2="shape" result="effect1_innerShadow_732_3"/>
</filter>
<linearGradient id="paint0_linear_732_3" x1="89.4649" y1="6.63522" x2="77.3368" y2="17.2921" gradientUnits="userSpaceOnUse">
<stop stop-color="#32D989"/>
<stop offset="0.363756" stop-color="#49F1A1"/>
<stop offset="0.651856" stop-color="#32D989"/>
<stop offset="1" stop-color="#17A25F"/>
</linearGradient>
<radialGradient id="paint1_radial_732_3" cx="0" cy="0" r="1" gradientUnits="userSpaceOnUse" gradientTransform="translate(105.71 36.5024) rotate(139.567) scale(16.4725 46.4635)">
<stop offset="0.313537" stop-color="white"/>
<stop offset="0.577507" stop-color="#FAFBFF"/>
<stop offset="1" stop-color="#F8FAFF"/>
<stop offset="1" stop-color="#E1E7F3"/>
</radialGradient>
<radialGradient id="paint2_radial_732_3" cx="0" cy="0" r="1" gradientUnits="userSpaceOnUse" gradientTransform="translate(94.3762 59.9025) rotate(70.251) scale(39.8821 16.4961)">
<stop stop-color="#C4CDDF"/>
<stop offset="1" stop-color="white"/>
</radialGradient>
<radialGradient id="paint3_radial_732_3" cx="0" cy="0" r="1" gradientUnits="userSpaceOnUse" gradientTransform="translate(133.326 29.4198) rotate(126.345) scale(29.5278 80.749)">
<stop stop-color="#DEE5F1"/>
<stop offset="1" stop-color="white" stop-opacity="0"/>
</radialGradient>
<linearGradient id="paint4_linear_732_3" x1="265.64" y1="133.423" x2="188.322" y2="203.836" gradientUnits="userSpaceOnUse">
<stop stop-color="white"/>
<stop offset="0.796412" stop-color="white"/>
<stop offset="0.906758" stop-color="#EEF1F7"/>
<stop offset="1" stop-color="#C7D2E8"/>
</linearGradient>
<linearGradient id="paint5_linear_732_3" x1="300.727" y1="319.606" x2="294.928" y2="259.028" gradientUnits="userSpaceOnUse">
<stop stop-color="#16243C"/>
<stop offset="1" stop-color="#2A3650"/>
</linearGradient>
<linearGradient id="paint6_linear_732_3" x1="322.143" y1="230.845" x2="318.056" y2="301.538" gradientUnits="userSpaceOnUse">
<stop stop-color="white"/>
<stop offset="1" stop-color="white" stop-opacity="0"/>
</linearGradient>
<linearGradient id="paint7_linear_732_3" x1="304.787" y1="324.923" x2="336.597" y2="296.885" gradientUnits="userSpaceOnUse">
<stop stop-color="#222D3F"/>
<stop offset="0.281083" stop-color="#2D394F"/>
<stop offset="0.39374" stop-color="#5A6D91"/>
<stop offset="0.56133" stop-color="#35425C"/>
<stop offset="1" stop-color="#47587A"/>
</linearGradient>
<linearGradient id="paint8_linear_732_3" x1="321.25" y1="330.914" x2="316.486" y2="280.869" gradientUnits="userSpaceOnUse">
<stop stop-color="#212D42"/>
<stop offset="1" stop-color="#2A3650"/>
</linearGradient>
<linearGradient id="paint9_linear_732_3" x1="338.968" y1="257.601" x2="335.586" y2="315.992" gradientUnits="userSpaceOnUse">
<stop stop-color="white"/>
<stop offset="1" stop-color="#243148"/>
</linearGradient>
</defs>
</svg>
