<svg width="48" height="48" viewBox="0 0 48 48" fill="none" xmlns="http://www.w3.org/2000/svg">
<path fill-rule="evenodd" clip-rule="evenodd" d="M26.8521 7.16451L27.8758 8.36523L29.2818 7.64907C30.0955 7.23457 31.0174 7 32 7C35.1422 7 37.7219 9.41664 37.9789 12.4913L38.0959 13.8915L39.4529 14.2562C42.6494 15.1152 45 18.0355 45 21.5C45 23.7583 44.0019 25.7834 42.4229 27.1584C42.1645 27.3833 42 27.7021 42 28.0447C42 28.8689 42.8754 29.3772 43.5132 28.8551C45.6416 27.1129 47 24.4651 47 21.5C47 17.1082 44.02 13.4126 39.9719 12.3247C39.629 8.22241 36.1909 5 32 5C30.6947 5 29.4625 5.3125 28.374 5.86694C26.3564 3.50049 23.3534 2 20 2C14.2238 2 9.4873 6.45239 9.03528 12.1123C4.48401 12.8167 1 16.7512 1 21.5C1 24.4651 2.35838 27.1129 4.48677 28.8551C5.1246 29.3772 6 28.8689 6 28.0447C6 27.7021 5.83545 27.3833 5.57712 27.1584C3.99805 25.7834 3 23.7583 3 21.5C3 17.7528 5.74972 14.6446 9.34115 14.0888L10.9031 13.8471L11.0289 12.2715C11.3986 7.64274 15.275 4 20 4C22.7432 4 25.1983 5.22479 26.8521 7.16451Z" fill="#32D989"/>
<path fill-rule="evenodd" clip-rule="evenodd" d="M38 39H10V42H38V39ZM10 37C8.89543 37 8 37.8954 8 39V42C8 43.1046 8.89543 44 10 44H38C39.1046 44 40 43.1046 40 42V39C40 37.8954 39.1046 37 38 37H10Z" fill="#32D989"/>
<path fill-rule="evenodd" clip-rule="evenodd" d="M38 30H10V33H38V30ZM10 28C8.89543 28 8 28.8954 8 30V33C8 34.1046 8.89543 35 10 35H38C39.1046 35 40 34.1046 40 33V30C40 28.8954 39.1046 28 38 28H10Z" fill="#32D989"/>
<path fill-rule="evenodd" clip-rule="evenodd" d="M38 21H10V24H38V21ZM10 19C8.89543 19 8 19.8954 8 21V24C8 25.1046 8.89543 26 10 26H38C39.1046 26 40 25.1046 40 24V21C40 19.8954 39.1046 19 38 19H10Z" fill="#32D989"/>
</svg>
