<svg width="445" height="310" viewBox="0 0 445 310" fill="none" xmlns="http://www.w3.org/2000/svg">
<g filter="url(#filter0_f_895_32)">
<path d="M8 267.599L230.676 131.628L342.73 106.634L120.054 242.606L8 267.599Z" fill="#DCE5F0"/>
</g>
<rect width="333.53" height="176.838" rx="8.95382" transform="matrix(0.866025 -0.5 0.866025 0.5 3 166.765)" fill="url(#paint0_linear_895_32)"/>
<path d="M156.135 130.401C155.065 131.019 153.917 131.467 152.692 131.745C151.467 132.004 150.281 132.08 149.133 131.973C147.97 131.856 146.938 131.548 146.039 131.046L148.295 129.743C149.133 130.137 150.087 130.33 151.157 130.321C152.227 130.294 153.289 129.976 154.344 129.367C155.352 128.785 155.895 128.185 155.972 127.568C156.05 126.932 155.693 126.386 154.902 125.929C154.282 125.571 153.607 125.378 152.878 125.351C152.149 125.325 151.428 125.401 150.715 125.58C150.001 125.759 149.094 126.032 147.993 126.399C146.644 126.856 145.504 127.192 144.573 127.406C143.658 127.612 142.674 127.679 141.619 127.608C140.564 127.518 139.533 127.183 138.525 126.601C137.641 126.09 137.083 125.508 136.85 124.855C136.618 124.201 136.718 123.534 137.153 122.853C137.602 122.164 138.355 121.515 139.409 120.906C140.929 120.028 142.55 119.532 144.271 119.415C146.008 119.29 147.567 119.554 148.947 120.208L146.621 121.551C145.923 121.237 145.054 121.112 144.015 121.175C142.961 121.228 141.96 121.528 141.014 122.074C140.13 122.585 139.642 123.135 139.549 123.726C139.44 124.308 139.797 124.837 140.619 125.311C141.208 125.651 141.852 125.835 142.55 125.862C143.263 125.88 143.961 125.808 144.643 125.647C145.326 125.468 146.233 125.195 147.365 124.828C148.73 124.38 149.885 124.053 150.831 123.847C151.762 123.632 152.762 123.565 153.832 123.646C154.887 123.717 155.926 124.049 156.949 124.64C157.74 125.096 158.275 125.647 158.554 126.292C158.833 126.936 158.779 127.621 158.391 128.347C158.004 129.072 157.252 129.757 156.135 130.401ZM157.831 114.245C158.793 113.69 159.871 113.31 161.065 113.104C162.243 112.889 163.461 112.893 164.717 113.117C165.989 113.332 167.214 113.78 168.392 114.46L175.906 118.798L173.813 120.007L166.601 115.844C165.329 115.109 164.042 114.733 162.74 114.716C161.421 114.689 160.212 114.993 159.111 115.629C157.994 116.273 157.451 116.99 157.482 117.778C157.529 118.557 158.219 119.331 159.553 120.101L166.601 124.171L164.484 125.393L147.27 115.454L149.387 114.232L155.668 117.858C155.435 117.24 155.505 116.618 155.877 115.991C156.265 115.356 156.916 114.774 157.831 114.245ZM185.133 113.713C183.939 114.402 182.582 114.872 181.062 115.123C179.558 115.365 178.031 115.36 176.48 115.11C174.929 114.841 173.494 114.326 172.176 113.565C170.873 112.813 170.005 111.989 169.571 111.094C169.136 110.181 169.144 109.29 169.594 108.421C170.028 107.544 170.85 106.756 172.06 106.057C173.269 105.359 174.634 104.884 176.154 104.634C177.658 104.374 179.186 104.37 180.737 104.62C182.303 104.862 183.745 105.363 185.064 106.125C186.382 106.886 187.25 107.727 187.669 108.65C188.088 109.554 188.072 110.449 187.623 111.336C187.173 112.222 186.343 113.015 185.133 113.713ZM183.272 112.638C184.032 112.2 184.567 111.685 184.878 111.094C185.188 110.503 185.188 109.885 184.878 109.24C184.583 108.587 183.924 107.965 182.9 107.374C181.877 106.783 180.807 106.398 179.69 106.219C178.573 106.04 177.519 106.04 176.526 106.219C175.518 106.389 174.634 106.693 173.874 107.132C173.099 107.58 172.564 108.094 172.269 108.676C171.974 109.24 171.99 109.84 172.316 110.476C172.641 111.112 173.316 111.725 174.339 112.316C175.379 112.916 176.441 113.314 177.526 113.511C178.628 113.7 179.674 113.713 180.667 113.552C181.644 113.382 182.512 113.077 183.272 112.638ZM185.963 100.985C185.653 100.323 185.668 99.6154 186.009 98.8633C186.35 98.0932 187.072 97.3904 188.173 96.7546C189.305 96.101 190.6 95.6667 192.058 95.4519C193.531 95.228 195.027 95.2504 196.547 95.519C198.052 95.7787 199.455 96.2846 200.758 97.0367C202.045 97.7799 202.929 98.5946 203.41 99.4811C203.89 100.368 203.945 101.241 203.573 102.1C203.216 102.951 202.471 103.703 201.339 104.356C200.254 104.983 199.052 105.4 197.734 105.605C196.415 105.794 195.175 105.802 194.012 105.632L202.409 110.481L200.293 111.703L181.496 100.851L183.613 99.6288L185.963 100.985ZM198.594 98.2857C197.633 97.7306 196.601 97.359 195.5 97.171C194.399 96.983 193.329 96.974 192.29 97.1441C191.267 97.3053 190.359 97.6142 189.568 98.0709C188.793 98.5185 188.266 99.0468 187.987 99.6557C187.707 100.247 187.731 100.869 188.056 101.523C188.382 102.158 189.018 102.749 189.964 103.295C190.925 103.851 191.964 104.227 193.081 104.424C194.198 104.603 195.276 104.616 196.315 104.464C197.354 104.294 198.261 103.985 199.036 103.537C199.827 103.081 200.362 102.557 200.641 101.966C200.921 101.357 200.897 100.735 200.572 100.099C200.23 99.4542 199.571 98.8498 198.594 98.2857ZM196.24 89.9482C195.836 90.181 195.356 90.2974 194.797 90.2974C194.239 90.2974 193.758 90.181 193.355 89.9482C192.952 89.7154 192.75 89.4378 192.75 89.1155C192.75 88.7932 192.952 88.5156 193.355 88.2828C193.743 88.0589 194.208 87.9515 194.751 87.9604C195.309 87.9604 195.79 88.0768 196.193 88.3096C196.596 88.5424 196.798 88.82 196.798 89.1424C196.814 89.4557 196.627 89.7244 196.24 89.9482ZM199.334 90.5526L212.082 97.9126L209.965 99.1348L197.217 91.7748L199.334 90.5526ZM209.874 86.4818L207.199 88.0263L218.202 94.3791L216.085 95.6013L205.082 89.2485L203.43 90.2021L201.685 89.1948L203.337 88.2412L202.43 87.7174C201.003 86.8937 200.328 86.0834 200.406 85.2865C200.483 84.4717 201.336 83.5942 202.965 82.654L204.733 83.6748C203.802 84.212 203.329 84.7 203.314 85.1387C203.298 85.5596 203.709 86.0117 204.547 86.4952L205.454 87.019L208.129 85.4745L209.874 86.4818ZM221.577 77.7102L232.65 92.9675L230.464 94.23L226.835 89.2337L209.085 84.9225L211.435 83.566L225.765 87.2191L219.391 78.9727L221.577 77.7102Z" fill="#8770FF"/>
<path d="M286.838 114.127L301.459 128.088L299.889 128.995L285.251 115.043L286.838 114.127ZM307.401 109.991C308.145 109.561 308.965 109.269 309.861 109.115C310.745 108.953 311.664 108.953 312.618 109.115C313.571 109.276 314.49 109.612 315.374 110.122L321.01 113.376L319.439 114.282L314.031 111.159C313.077 110.609 312.112 110.327 311.135 110.313C310.158 110.286 309.268 110.505 308.465 110.968C307.639 111.445 307.25 111.979 307.296 112.57C307.331 113.154 307.849 113.735 308.849 114.312L314.118 117.354L312.548 118.261L307.139 115.138C306.186 114.588 305.22 114.306 304.243 114.292C303.266 114.265 302.376 114.484 301.574 114.947C300.748 115.424 300.358 115.958 300.405 116.549C300.44 117.133 300.957 117.714 301.958 118.291L307.227 121.333L305.639 122.25L296.078 116.73L297.666 115.813L299.044 116.609C298.858 116.139 298.893 115.676 299.149 115.219C299.416 114.756 299.87 114.339 300.509 113.97C301.312 113.506 302.202 113.201 303.179 113.053C304.156 112.905 305.145 112.946 306.145 113.174C305.738 112.63 305.656 112.073 305.901 111.502C306.145 110.931 306.645 110.427 307.401 109.991ZM327.941 109.555C327.045 110.072 326.028 110.425 324.888 110.613C323.759 110.794 322.614 110.791 321.451 110.603C320.288 110.401 319.212 110.015 318.223 109.444C317.246 108.88 316.595 108.262 316.269 107.591C315.943 106.906 315.949 106.238 316.286 105.586C316.612 104.928 317.228 104.337 318.136 103.813C319.043 103.29 320.067 102.934 321.206 102.746C322.335 102.551 323.48 102.548 324.643 102.736C325.818 102.917 326.9 103.293 327.889 103.864C328.877 104.435 329.529 105.066 329.843 105.758C330.157 106.436 330.145 107.107 329.808 107.772C329.47 108.437 328.848 109.031 327.941 109.555ZM326.545 108.749C327.115 108.42 327.516 108.034 327.749 107.591C327.982 107.148 327.982 106.684 327.749 106.201C327.528 105.711 327.034 105.244 326.266 104.801C325.498 104.357 324.696 104.069 323.858 103.934C323.021 103.8 322.23 103.8 321.486 103.934C320.73 104.062 320.067 104.29 319.497 104.619C318.915 104.955 318.514 105.341 318.293 105.778C318.072 106.201 318.083 106.651 318.328 107.127C318.572 107.604 319.078 108.064 319.846 108.507C320.625 108.957 321.422 109.256 322.236 109.404C323.062 109.545 323.847 109.555 324.591 109.434C325.324 109.307 325.975 109.078 326.545 108.749ZM329.697 97.1184C330.86 96.4469 332.157 96.1077 333.588 96.101C335.007 96.0876 336.379 96.4636 337.705 97.2292L343.341 100.483L341.77 101.389L336.362 98.2667C335.408 97.7161 334.443 97.434 333.466 97.4206C332.477 97.4004 331.57 97.6288 330.744 98.1056C329.906 98.5891 329.499 99.1263 329.523 99.7172C329.557 100.301 330.075 100.882 331.075 101.46L336.362 104.512L334.774 105.429L325.213 99.9086L326.801 98.992L328.162 99.7777C327.987 99.3143 328.034 98.851 328.301 98.3876C328.58 97.9175 329.046 97.4945 329.697 97.1184ZM339.618 93.1028L345.254 96.3564C345.719 96.625 346.149 96.7593 346.545 96.7593C346.929 96.7526 347.365 96.6082 347.853 96.3262L349.022 95.6513L350.366 96.4269L348.935 97.2529C348.051 97.7633 347.184 98.0285 346.335 98.0487C345.486 98.0688 344.596 97.8103 343.666 97.273L338.031 94.0194L336.792 94.7346L335.483 93.9791L336.722 93.264L334.314 91.8739L335.902 90.9572L338.31 92.3473L340.805 90.9069L342.113 91.6623L339.618 93.1028ZM347.299 86.9556C348.021 86.5393 348.829 86.2539 349.725 86.0994C350.609 85.9383 351.522 85.9416 352.464 86.1095C353.418 86.2707 354.336 86.6064 355.22 87.1168L360.856 90.3704L359.286 91.277L353.877 88.1543C352.923 87.6037 351.958 87.3216 350.981 87.3082C349.992 87.288 349.085 87.5164 348.259 87.9932C347.422 88.4767 347.014 89.0139 347.038 89.6048C347.073 90.1891 347.59 90.77 348.59 91.3475L353.877 94.3996L352.289 95.3163L339.378 87.8622L340.966 86.9456L345.677 89.6653C345.502 89.2019 345.555 88.7352 345.834 88.2651C346.125 87.7883 346.613 87.3518 347.299 86.9556Z" fill="#B6BFD9"/>
<path d="M181.425 159.549C182.579 160.215 183.402 161.016 183.893 161.952C184.359 162.873 184.372 163.859 183.93 164.908C183.488 165.957 182.493 166.97 180.946 167.949L183.893 169.65L182.272 170.585L179.289 168.863C176.907 170.011 174.427 170.621 171.849 170.692C169.246 170.748 166.974 170.274 165.035 169.267L167.797 167.672C169 168.253 170.449 168.579 172.143 168.65C173.838 168.693 175.507 168.353 177.153 167.63L166.95 161.739C164.863 162.434 163.095 162.944 161.646 163.27C160.222 163.582 158.712 163.674 157.116 163.547C155.495 163.405 153.911 162.887 152.364 161.994C150.424 160.874 149.504 159.563 149.602 158.06C149.675 156.543 150.817 155.09 153.027 153.701L149.933 151.914L151.554 150.979L154.685 152.786C156.919 151.723 159.215 151.163 161.572 151.106C163.93 151.05 166.066 151.447 167.981 152.297L165.256 153.871C164.2 153.431 162.898 153.205 161.351 153.19C159.829 153.162 158.343 153.453 156.895 154.062L166.729 159.74C168.742 159.06 170.486 158.563 171.959 158.252C173.432 157.911 174.979 157.812 176.6 157.954C178.221 158.096 179.829 158.627 181.425 159.549ZM154.869 160.421C156.244 161.215 157.705 161.576 159.252 161.505C160.799 161.406 162.591 161.037 164.629 160.399L155.163 154.934C153.764 155.827 153.003 156.763 152.88 157.741C152.782 158.705 153.445 159.598 154.869 160.421ZM178.847 166.736C180.32 165.772 181.045 164.787 181.02 163.781C180.971 162.76 180.283 161.867 178.957 161.101C177.558 160.293 176.072 159.932 174.501 160.017C172.954 160.087 171.137 160.442 169.049 161.08L178.847 166.736Z" fill="#1D212A"/>
<path d="M225.856 180.021C227.997 171.372 228.857 164.24 228.439 158.626C228.02 152.958 225.368 148.714 220.483 145.894C217.272 144.04 213.899 143.033 210.363 142.872C206.828 142.657 203.245 143.597 199.616 145.692C196.08 147.734 194.452 149.963 194.731 152.381C195.01 154.745 196.871 157.055 200.314 159.311L195.568 162.051C190.683 158.908 188.264 155.685 188.31 152.381C188.357 149.023 190.73 145.988 195.429 143.275C199.942 140.669 204.873 139.299 210.224 139.165C215.528 139.004 220.506 140.266 225.159 142.952C230.788 146.203 233.905 150.715 234.51 156.491C235.115 162.212 234.51 168.498 232.696 175.347L258.517 160.439L262.635 162.816L229.346 182.036L225.856 180.021ZM263.77 147.172C267.306 148.623 270.795 149.294 274.238 149.187C277.681 149.08 280.984 148.113 284.148 146.286C288.521 143.761 290.057 140.914 288.754 137.744C287.451 134.521 282.752 130.679 274.657 126.22C276.332 128.208 276.657 130.357 275.634 132.667C274.61 134.924 272.493 136.978 269.283 138.832C264.398 141.652 259.001 143.076 253.092 143.103C247.23 143.103 241.694 141.599 236.483 138.59C233.366 136.79 231.156 134.816 229.853 132.667C228.55 130.518 228.411 128.316 229.434 126.059C230.458 123.803 232.761 121.641 236.343 119.572C242.95 115.758 249.719 114.348 256.652 115.342C263.537 116.309 271.005 119.116 279.054 123.763C287.754 128.786 292.988 133.312 294.756 137.341C296.57 141.343 294.337 145.158 288.056 148.784C283.45 151.443 278.635 152.8 273.61 152.854C268.539 152.88 263.747 151.86 259.234 149.791L263.77 147.172ZM265.864 135.971C268.05 134.709 269.609 133.298 270.539 131.74C271.47 130.129 271.609 128.49 270.958 126.825C270.307 125.159 268.748 123.615 266.282 122.191C262.467 119.989 258.233 118.807 253.581 118.645C248.975 118.457 244.648 119.532 240.6 121.869C237.018 123.937 235.25 126.247 235.296 128.799C235.389 131.324 237.297 133.661 241.019 135.81C244.927 138.066 249.068 139.221 253.441 139.275C257.815 139.329 261.955 138.227 265.864 135.971Z" fill="#1D212A"/>
<g opacity="0.7" clip-path="url(#clip0_895_32)">
<path d="M291.742 114.701C291.053 115.418 289.952 116.533 288.301 118.286C290.09 116.454 291.467 115.179 292.019 114.861C291.88 114.781 294.357 112.072 291.742 114.701Z" fill="#32D989"/>
<path d="M331.032 55.0818C321.069 51.0808 308.941 59.3617 302.739 63.4222C291.438 70.9064 280.695 79.9867 271.88 87.4741C238.271 114.873 174.542 179.008 149.223 206.417C149.36 206.338 164.086 190.801 186.385 168.493C216.805 138.299 237.59 117.505 272.294 87.2353C279.318 81.2613 289.923 72.4201 300.673 65.0948C303.705 63.0245 306.737 60.9543 310.46 58.9647C314.183 56.9751 317.493 55.3839 322.187 54.5921C327.433 53.4819 333.657 55.1649 334.223 58.516C334.781 60.1121 333.41 62.9821 331.76 64.8945C330.11 67.126 327.908 69.3569 325.981 71.4285C306.161 91.5058 275.582 116.515 262.258 137.159C260.609 139.55 260.201 141.384 258.137 143.536C259.23 140.346 261.291 137.078 263.489 133.89C279.574 112.452 303.404 93.0977 323.638 72.9412C326.942 69.595 330.52 65.93 332.578 62.1834C335.869 55.3272 327.569 52.7641 317.633 56.102C310.735 58.646 305.36 62.3885 299.985 65.9714C287.169 74.8098 270.78 88.9086 262.793 95.7588C240.757 114.717 218.594 136.306 204.969 150.409C174.686 180.524 164.914 190.643 151.428 205.144L152.953 206.342L156.679 205.31L160.134 205.554C163.455 206.834 163.17 204.441 163.17 204.441C203.627 161.096 243.402 119.745 289.816 80.4768C297.667 74.1848 305.243 67.8925 314.756 62.4003C317.65 60.4096 328.963 55.9567 325.531 61.9352C311.103 82.8967 240.555 134.18 251.955 152.861C255.42 155.657 261.47 148.007 262.434 147.29C267.526 141.792 271.377 137.171 274.817 133.266C279.906 127.29 283.758 122.827 288.3 118.127C284.169 121.95 268.483 139.161 267.52 140.197L275.5 131.273C280.04 126.093 284.58 120.914 289.258 115.815C286.092 118.922 283.064 122.109 280.175 125.216C282.513 122.427 288.43 115.973 294.211 110.237C299.855 104.58 305.501 99.7213 305.501 99.7213C301.643 102.588 291.866 111.271 280.996 123.143C274.115 130.473 266.413 139.717 258.568 147.764C258.292 148.083 258.017 148.242 257.742 148.561C257.74 148.242 257.601 148.002 257.6 147.683C257.598 147.045 258.701 146.408 259.113 145.85C270.533 133.181 291.856 108.559 301.361 100.992C291.718 108.638 270.533 133.181 259.113 145.85C258.562 146.328 258.15 146.886 257.599 147.364L257.596 146.726C259.384 144.415 261.725 142.264 263.651 140.033C276.032 125.849 290.476 109.036 304.525 97.2472C308.106 94.2204 310.31 92.6278 310.31 92.6278C302.318 98.2017 292.817 107.044 284.56 115.649C278.504 121.864 272.175 129.035 265.572 136.525C263.095 139.394 260.481 142.342 257.867 145.131C258.003 144.732 258.14 144.333 258.138 143.855C272.998 127.281 289.501 107.04 307.411 93.1825C310.028 91.1915 312.509 89.4397 314.024 88.245C300.241 97.162 285.377 112.459 272.582 127.041C268.042 132.221 263.366 137.799 258.136 143.376C258.408 142.1 259.783 140.347 260.746 139.311C260.746 139.311 262.948 136.921 266.249 132.936C280.969 116.123 301.466 92.2976 325.188 80.8404C302.018 91.9792 281.52 115.486 267.074 131.98C262.397 137.239 261.297 138.674 258.957 141.143C259.643 139.788 260.466 138.353 261.289 136.759C273.102 118.267 300.922 94.5304 319.645 76.5258C323.362 72.9408 327.078 69.1963 330.241 65.2915C333.684 62.3443 336.846 57.9609 331.032 55.0818ZM255.108 146.244C253.182 148.475 255.917 140.98 256.742 139.864C265.801 124.081 282.05 109.583 295.679 96.4383C285.355 106.716 272.413 118.825 263.064 131.098C259.49 135.879 255.917 140.98 255.108 146.244ZM255.108 146.244C255.11 146.882 255.112 147.52 254.285 147.998C254.283 147.36 254.557 146.722 255.108 146.244ZM254.978 148.398C254.289 149.115 254.427 148.876 254.424 148.237C255.112 147.52 255.113 147.68 254.978 148.398ZM255.819 151.59C255.681 151.669 255.681 151.669 255.819 151.59C255.681 151.669 255.681 151.669 255.819 151.59ZM254.575 151.508C254.437 151.588 254.024 151.986 254.023 151.667C253.606 151.108 254.158 150.79 254.847 150.392C254.849 150.87 255.126 151.19 254.575 151.508ZM254.571 150.551C253.194 151.666 253.741 150.231 254.707 149.833C254.707 149.993 254.985 150.312 254.571 150.551ZM253.601 149.672C253.184 149.113 253.873 148.715 254.424 148.237C254.565 148.796 254.29 149.274 253.601 149.672ZM255.539 150.791C254.852 151.668 254.849 151.03 254.847 150.392C254.985 150.312 255.397 149.754 255.536 149.994C255.398 149.914 255.539 150.791 255.539 150.791ZM254.847 150.392C254.846 150.232 254.707 149.993 254.707 149.833C254.982 149.674 254.982 149.514 255.258 149.355L255.398 149.914C255.26 149.993 254.984 150.153 254.847 150.392ZM254.421 147.44C254.562 147.998 253.873 148.556 253.459 148.795C252.905 148.315 254.831 146.084 254.421 147.44ZM253.471 151.826C253.471 151.826 253.609 151.906 253.471 151.985C253.61 152.065 253.332 151.586 253.471 151.826ZM254.577 151.987C254.715 151.907 254.852 151.828 255.129 151.828C254.852 151.828 254.439 152.066 254.577 151.987ZM257.055 149.597C256.779 149.756 256.78 149.916 256.504 150.075L256.224 149.117C256.5 148.958 256.499 148.798 256.775 148.639C256.776 148.958 257.053 149.278 257.055 149.597ZM256.224 149.117C255.946 148.638 256.221 148.319 256.634 147.921C256.773 148.32 256.775 148.799 256.224 149.117ZM256.079 147.442C256.077 146.804 256.351 146.325 257.04 145.768C256.904 146.326 256.768 146.884 256.079 147.442ZM256.213 146.245C256.348 145.368 256.621 144.571 257.447 143.774C257.174 144.571 257.177 145.529 256.213 146.245ZM285.226 109.029C276.004 118.51 263.477 130.699 258.132 142.1C257.72 142.977 257.586 143.854 256.622 144.73C258.942 137.155 265.546 129.665 271.599 122.812C283.295 109.984 298.58 96.2027 309.732 85.7668C307.805 87.6788 297.89 96.6007 285.226 109.029ZM254.814 141.776C263.591 124.238 284.939 106.316 300.083 91.8172C303.112 88.9493 304.902 87.4359 304.902 87.4359C295.543 97.1561 281.635 109.344 271.316 120.897C264.987 128.069 256.318 137.55 254.556 146.403C254.696 147.121 254.007 147.519 253.457 148.156C253.31 145.843 253.855 143.77 254.814 141.776ZM252.5 150.947C252.639 151.027 252.778 151.267 252.916 151.347C252.916 151.187 252.639 151.027 252.5 150.947ZM257.877 147.843C257.878 148.162 258.017 148.401 258.018 148.721C257.881 148.96 257.468 149.198 257.33 149.438L257.191 149.198C257.052 148.959 257.051 148.64 257.05 148.32C257.325 148.002 257.739 147.763 257.876 147.524L257.877 147.843ZM257.873 146.886L257.876 147.524C257.601 147.843 257.187 148.081 257.05 148.32C256.911 148.081 257.048 147.842 256.909 147.602C257.323 147.523 258.01 146.487 257.873 146.886ZM258.144 145.291C257.318 146.087 256.906 146.805 257.177 145.369C258.279 144.413 258.69 143.696 258.144 145.291ZM258.69 143.536C258.139 144.014 257.864 144.492 257.314 144.97C257.587 144.333 257.447 143.614 258.135 143.057C260.061 140.826 259.236 141.942 258.69 143.536ZM225.203 130.093C206.754 147.619 163.396 191.199 151.149 204.346C155.965 199.167 169.452 184.985 185.557 168.811C219.967 134.075 237.588 117.026 270.228 88.9079C253.288 103.485 237.318 118.621 225.203 130.093ZM277.665 82.5356C276.425 83.571 275.461 84.4473 274.635 85.0844C275.461 84.2878 276.563 83.4914 277.665 82.5356ZM333.248 56.68C335.329 58.8365 333.958 61.5469 332.446 63.6988C330.659 66.1695 328.596 68.6398 326.118 71.0298C320.612 76.6068 314.417 82.4223 308.634 87.8394C312.627 84.0952 316.62 80.351 320.612 76.6068C323.503 73.6589 326.807 70.6318 329.283 67.6036C332.171 64.1771 336.713 59.3168 332.279 55.9609C325.492 51.565 315.285 56.1788 309.494 59.3624C298.878 65.4914 286.205 75.6861 279.042 81.4205C285.103 76.4824 291.439 71.385 298.467 66.3683C302.325 63.661 306.46 60.7944 311.01 58.4868L314.182 56.8156L315.975 56.0999C322.184 53.6348 329.227 52.9258 333.248 56.68Z" fill="#32D989"/>
<path d="M276.337 133.507C270.694 139.483 265.746 146.337 258.309 152.55C255.692 154.701 251.134 155.094 250.155 151.981C248.756 147.512 249.571 143.684 252.04 139.061C256.157 131.568 262.485 124.237 268.953 117.305C284.228 101.131 299.378 88.2267 314.522 73.7275C316.862 71.5767 322.506 65.9201 323.054 64.804C323.054 64.804 321.816 66.318 319.339 68.8676C318.651 69.5847 318.101 70.2221 317.275 71.0188C301.173 87.9897 245.656 131.554 249.733 149.987C250.013 151.104 249.88 152.3 250.989 153.418C251.96 154.457 254.448 154.619 255.965 153.903C259.276 152.471 261.201 150.081 263.129 148.328C267.12 144.265 270.422 140.44 273.311 137.173C276.2 133.906 282.254 127.213 283.217 126.018C282.253 126.894 279.914 129.523 276.337 133.507Z" fill="#32D989"/>
</g>
<defs>
<filter id="filter0_f_895_32" x="0" y="98.6338" width="350.73" height="176.966" filterUnits="userSpaceOnUse" color-interpolation-filters="sRGB">
<feFlood flood-opacity="0" result="BackgroundImageFix"/>
<feBlend mode="normal" in="SourceGraphic" in2="BackgroundImageFix" result="shape"/>
<feGaussianBlur stdDeviation="4" result="effect1_foregroundBlur_895_32"/>
</filter>
<linearGradient id="paint0_linear_895_32" x1="123.076" y1="-95.1528" x2="17.8821" y2="107.173" gradientUnits="userSpaceOnUse">
<stop stop-color="#F9FAFC"/>
<stop offset="1" stop-color="#F9F9FC"/>
</linearGradient>
<clipPath id="clip0_895_32">
<rect width="256.303" height="63.796" fill="white" transform="matrix(0.866025 -0.5 0.866025 0.5 101.866 179.076)"/>
</clipPath>
</defs>
</svg>
