<svg width="48" height="48" viewBox="0 0 48 48" fill="none" xmlns="http://www.w3.org/2000/svg">
<path fill-rule="evenodd" clip-rule="evenodd" d="M24 45C35.598 45 45 35.598 45 24C45 12.402 35.598 3 24 3C12.402 3 3 12.402 3 24C3 35.598 12.402 45 24 45ZM24 47C36.7025 47 47 36.7025 47 24C47 11.2975 36.7025 1 24 1C11.2975 1 1 11.2975 1 24C1 36.7025 11.2975 47 24 47Z" fill="#32D989"/>
<path fill-rule="evenodd" clip-rule="evenodd" d="M11.4506 28.7582C13.3496 33.5842 18.052 37 23.5522 37C29.4184 37 34.377 33.1146 35.9951 27.7769C36.1318 27.3258 36.5373 27 37.0087 27C37.6513 27 38.1341 27.5902 37.9542 28.2071C36.1355 34.4435 30.376 39 23.5522 39C17.1949 39 11.7614 35.0452 9.57755 29.4616L8.94013 30.9445C8.72202 31.4519 8.13389 31.6864 7.6265 31.4683C7.1191 31.2502 6.88458 30.6621 7.10268 30.1547L8.28741 27.3985L8.68232 26.4798C8.90043 25.9724 9.48856 25.7379 9.99595 25.956L10.9147 26.3509L13.6708 27.5356C14.1782 27.7537 14.4127 28.3419 14.1946 28.8493C13.9765 29.3567 13.3884 29.5912 12.881 29.3731L11.4506 28.7582ZM39.9413 17.7018C39.443 17.4638 38.846 17.6749 38.6081 18.1733L37.9083 19.6387C36.0403 13.4815 30.3196 9 23.5522 9C16.3441 9 10.3234 14.0843 8.8809 20.8623C8.75367 21.4601 9.22742 22 9.83858 22C10.3372 22 10.7571 21.6347 10.866 21.1481C12.166 15.3403 17.3522 11 23.5522 11C29.4299 11 34.3965 14.9007 36.0046 20.2546L34.6082 19.5879C34.1098 19.3499 33.5128 19.561 33.2749 20.0594C33.0369 20.5578 33.248 21.1547 33.7464 21.3927L36.4536 22.6854L37.356 23.1162C37.8544 23.3542 38.4513 23.1431 38.6893 22.6447L39.1202 21.7423L40.4129 19.0351C40.6508 18.5367 40.4397 17.9398 39.9413 17.7018Z" fill="#32D989"/>
</svg>
