<svg width="48" height="48" viewBox="0 0 48 48" fill="none" xmlns="http://www.w3.org/2000/svg">
<path d="M7.25921 13C6.65954 13 6.25977 13.4 6.25977 14C6.25977 14.6 6.65954 15 7.25921 15C7.85888 15 8.25866 14.6 8.25866 14C8.25866 13.4 7.85888 13 7.25921 13Z" fill="#32D989"/>
<path d="M10.2573 13C9.65759 13 9.25781 13.4 9.25781 14C9.25781 14.6 9.65759 15 10.2573 15C10.8569 15 11.2567 14.6 11.2567 14C11.2567 13.4 10.8569 13 10.2573 13Z" fill="#32D989"/>
<path d="M13.2553 13C12.6556 13 12.2559 13.4 12.2559 14C12.2559 14.6 12.6556 15 13.2553 15C13.855 15 14.2548 14.6 14.2548 14C14.2548 13.4 13.855 13 13.2553 13Z" fill="#32D989"/>
<path fill-rule="evenodd" clip-rule="evenodd" d="M35.2436 13H32.3452C30.846 13 29.5468 12 29.2469 10.6C28.9471 8.7 30.4463 7 32.2453 7H35.2436C35.8433 7 36.2431 6.6 36.2431 6C36.2431 5.4 35.8433 5 35.2436 5H32.4452C29.8466 5 27.5479 6.9 27.248 9.5C26.9482 12.5 29.3469 15 32.2453 15H35.2436C35.8433 15 36.2431 14.6 36.2431 14C36.2431 13.4 35.8433 13 35.2436 13ZM42.0399 5H39.2414C38.6417 5 38.242 5.4 38.242 6C38.242 6.6 38.6417 7 39.2414 7H42.1398C43.639 7 44.9383 8 45.2381 9.4C45.5379 11.3 44.0388 13 42.2398 13H39.2414C38.6417 13 38.242 13.4 38.242 14C38.242 14.6 38.6417 15 39.2414 15H42.2398C45.1382 15 47.5368 12.5 47.237 9.5C46.9372 6.9 44.6384 5 42.0399 5ZM40.2409 9H34.2442C33.6445 9 33.2447 9.4 33.2447 10C33.2447 10.6 33.6445 11 34.2442 11H40.2409C40.8405 11 41.2403 10.6 41.2403 10C41.2403 9.4 40.8405 9 40.2409 9Z" fill="#32D989"/>
<path d="M41.2397 17H3.26062V13C3.26062 11.9 4.16012 11 5.25951 11H24.249C24.8487 11 25.2485 10.6 25.2485 10C25.2485 9.4 24.8487 9 24.249 9H5.25951C3.06073 9 1.26172 10.8 1.26172 13V17V19V35C1.26172 37.2 3.06073 39 5.25951 39H39.2408C41.4395 39 43.2385 37.2 43.2385 35V19C43.2385 17.9 42.339 17 41.2397 17ZM41.2397 35C41.2397 36.1 40.3401 37 39.2408 37H5.25951C4.16012 37 3.26062 36.1 3.26062 35V19H40.8399C41.0398 19 41.2397 19.2 41.2397 19.4V35Z" fill="#32D989"/>
</svg>
