<svg width="48" height="48" viewBox="0 0 48 48" fill="none" xmlns="http://www.w3.org/2000/svg">
<path fill-rule="evenodd" clip-rule="evenodd" d="M28.0508 3.54175L28.0139 3.5003L28 3.48482V9C28 10.6569 29.3431 12 31 12H36.4531L28.0508 3.54175ZM26 9V3H12.5556C11.9114 3 11 3.66747 11 5V16C11 16.5523 10.5523 17 10 17C9.44772 17 9 16.5523 9 16V5C9 2.79086 10.5919 1 12.5556 1H26.9946C27.9376 1 28.8419 1.42143 29.5087 2.17157L37.9586 10.6777C38.6254 11.4278 39 12.4452 39 13.5061V43C39 45.2091 37.4081 47 35.4444 47H12.5556C10.5919 47 9 45.2091 9 43V41C9 40.4477 9.44772 40 10 40C10.5523 40 11 40.4477 11 41V43C11 44.3325 11.9114 45 12.5556 45H35.4444C36.0886 45 37 44.3325 37 43V14H31C28.2386 14 26 11.7614 26 9Z" fill="#32D989"/>
<path fill-rule="evenodd" clip-rule="evenodd" d="M24.4349 28.0053L19.4851 23.0555C19.0946 22.665 19.0946 22.0319 19.4851 21.6413C19.8757 21.2508 20.5088 21.2508 20.8993 21.6413L25.8491 26.5911C27.0207 27.7627 27.0207 29.6621 25.8491 30.8337L20.8993 35.7835C20.5088 36.174 19.8757 36.174 19.4851 35.7835C19.0946 35.3929 19.0946 34.7598 19.4851 34.3693L24.4349 29.4195C24.8254 29.029 24.8254 28.3958 24.4349 28.0053Z" fill="#32D989"/>
<path fill-rule="evenodd" clip-rule="evenodd" d="M4.12132 30.8337C2.94975 29.6621 2.94975 27.7627 4.12132 26.5911L9.07107 21.6413C9.46159 21.2508 10.0948 21.2508 10.4853 21.6413C10.8758 22.0319 10.8758 22.665 10.4853 23.0555L5.53553 28.0053C5.14501 28.3958 5.14501 29.029 5.53553 29.4195L10.4853 34.3693C10.8758 34.7598 10.8758 35.3929 10.4853 35.7835C10.0948 36.174 9.46159 36.174 9.07107 35.7835L4.12132 30.8337Z" fill="#32D989"/>
<rect x="16.6289" y="19" width="2" height="19.6475" rx="1" transform="rotate(15 16.6289 19)" fill="#32D989"/>
</svg>
