<svg width="48" height="48" viewBox="0 0 48 48" fill="none" xmlns="http://www.w3.org/2000/svg">
<path d="M24.2853 1.87025C24.1951 1.59477 23.8054 1.59477 23.7151 1.87025L23.1624 3.55733C23.1221 3.68058 23.0071 3.76393 22.8774 3.76393L21.0941 3.76393C20.8029 3.76393 20.6825 4.13707 20.9187 4.30732L22.3571 5.34386C22.4632 5.42025 22.5075 5.55647 22.4669 5.68065L21.9164 7.36085C21.826 7.63681 22.1413 7.8674 22.3769 7.69763L23.8248 6.65425C23.9296 6.57877 24.0709 6.57877 24.1756 6.65425L25.6235 7.69763C25.8591 7.86741 26.1744 7.63681 26.084 7.36085L25.5336 5.68065C25.4929 5.55647 25.5373 5.42025 25.6433 5.34386L27.0817 4.30732C27.318 4.13707 27.1976 3.76393 26.9063 3.76393L25.1231 3.76393C24.9934 3.76393 24.8784 3.68058 24.838 3.55733L24.2853 1.87025Z" fill="#32D989"/>
<path d="M24.2853 39.8702C24.1951 39.5948 23.8054 39.5948 23.7151 39.8702L23.1624 41.5573C23.1221 41.6806 23.0071 41.7639 22.8774 41.7639L21.0941 41.7639C20.8029 41.7639 20.6825 42.1371 20.9187 42.3073L22.3571 43.3439C22.4632 43.4203 22.5075 43.5565 22.4669 43.6806L21.9164 45.3608C21.826 45.6368 22.1413 45.8674 22.3769 45.6976L23.8248 44.6542C23.9296 44.5788 24.0709 44.5788 24.1756 44.6542L25.6235 45.6976C25.8591 45.8674 26.1744 45.6368 26.084 45.3608L25.5336 43.6806C25.4929 43.5565 25.5373 43.4203 25.6433 43.3439L27.0817 42.3073C27.318 42.1371 27.1976 41.7639 26.9063 41.7639L25.1231 41.7639C24.9934 41.7639 24.8784 41.6806 24.838 41.5573L24.2853 39.8702Z" fill="#32D989"/>
<path d="M15.2111 37.8702C15.1209 37.5948 14.7312 37.5948 14.6409 37.8702L14.0882 39.5573C14.0479 39.6806 13.9328 39.7639 13.8031 39.7639L12.0199 39.7639C11.7287 39.7639 11.6082 40.1371 11.8445 40.3073L13.2829 41.3439C13.3889 41.4203 13.4333 41.5565 13.3926 41.6806L12.8422 43.3608C12.7518 43.6368 13.0671 43.8674 13.3027 43.6976L14.7506 42.6542C14.8554 42.5788 14.9966 42.5788 15.1014 42.6542L16.5493 43.6976C16.7849 43.8674 17.1002 43.6368 17.0098 43.3608L16.4594 41.6806C16.4187 41.5565 16.4631 41.4203 16.5691 41.3439L18.0075 40.3073C18.2438 40.1371 18.1233 39.7639 17.8321 39.7639L16.0489 39.7639C15.9192 39.7639 15.8042 39.6806 15.7638 39.5573L15.2111 37.8702Z" fill="#32D989"/>
<path d="M8.1525 30.8702C8.06226 30.5948 7.67257 30.5948 7.58232 30.8702L7.02964 32.5573C6.98926 32.6806 6.87424 32.7639 6.74454 32.7639L4.96129 32.7639C4.67008 32.7639 4.54964 33.1371 4.7859 33.3073L6.22434 34.3439C6.33035 34.4203 6.37472 34.5565 6.33404 34.6806L5.78361 36.3608C5.6932 36.6368 6.00849 36.8674 6.24409 36.6976L7.69202 35.6542C7.79677 35.5788 7.93806 35.5788 8.0428 35.6542L9.49074 36.6976C9.72633 36.8674 10.0416 36.6368 9.95122 36.3608L9.40079 34.6806C9.36011 34.5565 9.40448 34.4203 9.51049 34.3439L10.9489 33.3073C11.1852 33.1371 11.0647 32.7639 10.7735 32.7639L8.99028 32.7639C8.86058 32.7639 8.74557 32.6806 8.70519 32.5573L8.1525 30.8702Z" fill="#32D989"/>
<path d="M5.38102 21.8702C5.29078 21.5948 4.90108 21.5948 4.81084 21.8702L4.25815 23.5573C4.21777 23.6806 4.10276 23.7639 3.97306 23.7639L2.18981 23.7639C1.89859 23.7639 1.77816 24.1371 2.01442 24.3073L3.45285 25.3439C3.55886 25.4203 3.60323 25.5565 3.56256 25.6806L3.01212 27.3608C2.92172 27.6368 3.23701 27.8674 3.4726 27.6976L4.92054 26.6542C5.02528 26.5788 5.16657 26.5788 5.27132 26.6542L6.71925 27.6976C6.95485 27.8674 7.27014 27.6368 7.17973 27.3608L6.6293 25.6806C6.58862 25.5565 6.63299 25.4203 6.739 25.3439L8.17744 24.3073C8.4137 24.1371 8.29326 23.7639 8.00205 23.7639L6.2188 23.7639C6.0891 23.7639 5.97408 23.6806 5.93371 23.5573L5.38102 21.8702Z" fill="#32D989"/>
<path d="M7.14469 11.8702C7.05445 11.5948 6.66475 11.5948 6.57451 11.8702L6.02182 13.5573C5.98145 13.6806 5.86643 13.7639 5.73673 13.7639L3.95348 13.7639C3.66226 13.7639 3.54183 14.1371 3.77809 14.3073L5.21652 15.3439C5.32253 15.4203 5.36691 15.5565 5.32623 15.6806L4.7758 17.3608C4.68539 17.6368 5.00068 17.8674 5.23628 17.6976L6.68421 16.6542C6.78896 16.5788 6.93024 16.5788 7.03499 16.6542L8.48292 17.6976C8.71852 17.8674 9.03381 17.6368 8.9434 17.3608L8.39297 15.6806C8.35229 15.5565 8.39667 15.4203 8.50268 15.3439L9.94111 14.3073C10.1774 14.1371 10.0569 13.7639 9.76572 13.7639L7.98247 13.7639C7.85277 13.7639 7.73776 13.6806 7.69738 13.5573L7.14469 11.8702Z" fill="#32D989"/>
<path d="M14.2033 3.87025C14.113 3.59477 13.7233 3.59477 13.6331 3.87025L13.0804 5.55733C13.04 5.68058 12.925 5.76393 12.7953 5.76393L11.0121 5.76393C10.7209 5.76393 10.6004 6.13707 10.8367 6.30732L12.2751 7.34386C12.3811 7.42025 12.4255 7.55647 12.3848 7.68065L11.8344 9.36085C11.744 9.63681 12.0593 9.8674 12.2949 9.69763L13.7428 8.65425C13.8476 8.57877 13.9888 8.57877 14.0936 8.65425L15.5415 9.69763C15.7771 9.86741 16.0924 9.63681 16.002 9.36085L15.4516 7.68065C15.4109 7.55647 15.4553 7.42025 15.5613 7.34386L16.9997 6.30732C17.236 6.13707 17.1155 5.76393 16.8243 5.76393L15.0411 5.76393C14.9114 5.76393 14.7963 5.68058 14.756 5.55733L14.2033 3.87025Z" fill="#32D989"/>
<path d="M34.3673 3.87025C34.2771 3.59477 33.8874 3.59477 33.7972 3.87025L33.2445 5.55733C33.2041 5.68058 33.0891 5.76393 32.9594 5.76393L31.1761 5.76393C30.8849 5.76393 30.7645 6.13707 31.0007 6.30732L32.4392 7.34386C32.5452 7.42025 32.5896 7.55647 32.5489 7.68065L31.9985 9.36085C31.908 9.63681 32.2233 9.8674 32.4589 9.69763L33.9069 8.65425C34.0116 8.57877 34.1529 8.57877 34.2576 8.65425L35.7056 9.69763C35.9412 9.86741 36.2565 9.63681 36.1661 9.36085L35.6156 7.68065C35.575 7.55647 35.6193 7.42025 35.7253 7.34386L37.1638 6.30732C37.4 6.13707 37.2796 5.76393 36.9884 5.76393L35.2051 5.76393C35.0754 5.76393 34.9604 5.68058 34.92 5.55733L34.3673 3.87025Z" fill="#32D989"/>
<path d="M41.4259 10.8702C41.3357 10.5948 40.946 10.5948 40.8558 10.8702L40.3031 12.5573C40.2627 12.6806 40.1477 12.7639 40.018 12.7639L38.2347 12.7639C37.9435 12.7639 37.8231 13.1371 38.0593 13.3073L39.4978 14.3439C39.6038 14.4203 39.6482 14.5565 39.6075 14.6806L39.057 16.3608C38.9666 16.6368 39.2819 16.8674 39.5175 16.6976L40.9655 15.6542C41.0702 15.5788 41.2115 15.5788 41.3162 15.6542L42.7642 16.6976C42.9998 16.8674 43.3151 16.6368 43.2247 16.3608L42.6742 14.6806C42.6335 14.5565 42.6779 14.4203 42.7839 14.3439L44.2224 13.3073C44.4586 13.1371 44.3382 12.7639 44.047 12.7639L42.2637 12.7639C42.134 12.7639 42.019 12.6806 41.9786 12.5573L41.4259 10.8702Z" fill="#32D989"/>
<path d="M43.1896 20.8702C43.0994 20.5948 42.7097 20.5948 42.6194 20.8702L42.0667 22.5573C42.0264 22.6806 41.9114 22.7639 41.7817 22.7639L39.9984 22.7639C39.7072 22.7639 39.5867 23.1371 39.823 23.3073L41.2614 24.3439C41.3675 24.4203 41.4118 24.5565 41.3711 24.6806L40.8207 26.3608C40.7303 26.6368 41.0456 26.8674 41.2812 26.6976L42.7291 25.6542C42.8339 25.5788 42.9752 25.5788 43.0799 25.6542L44.5278 26.6976C44.7634 26.8674 45.0787 26.6368 44.9883 26.3608L44.4379 24.6806C44.3972 24.5565 44.4416 24.4203 44.5476 24.3439L45.986 23.3073C46.2223 23.1371 46.1019 22.7639 45.8106 22.7639L44.0274 22.7639C43.8977 22.7639 43.7827 22.6806 43.7423 22.5573L43.1896 20.8702Z" fill="#32D989"/>
<path d="M41.6779 30.8702C41.5877 30.5948 41.198 30.5948 41.1077 30.8702L40.555 32.5573C40.5146 32.6806 40.3996 32.7639 40.2699 32.7639L38.4867 32.7639C38.1955 32.7639 38.075 33.1371 38.3113 33.3073L39.7497 34.3439C39.8557 34.4203 39.9001 34.5565 39.8594 34.6806L39.309 36.3608C39.2186 36.6368 39.5339 36.8674 39.7695 36.6976L41.2174 35.6542C41.3222 35.5788 41.4634 35.5788 41.5682 35.6542L43.0161 36.6976C43.2517 36.8674 43.567 36.6368 43.4766 36.3608L42.9262 34.6806C42.8855 34.5565 42.9299 34.4203 43.0359 34.3439L44.4743 33.3073C44.7106 33.1371 44.5901 32.7639 44.2989 32.7639L42.5157 32.7639C42.386 32.7639 42.271 32.6806 42.2306 32.5573L41.6779 30.8702Z" fill="#32D989"/>
<path d="M34.3673 37.8702C34.2771 37.5948 33.8874 37.5948 33.7972 37.8702L33.2445 39.5573C33.2041 39.6806 33.0891 39.7639 32.9594 39.7639L31.1761 39.7639C30.8849 39.7639 30.7645 40.1371 31.0007 40.3073L32.4392 41.3439C32.5452 41.4203 32.5896 41.5565 32.5489 41.6806L31.9985 43.3608C31.908 43.6368 32.2233 43.8674 32.4589 43.6976L33.9069 42.6542C34.0116 42.5788 34.1529 42.5788 34.2576 42.6542L35.7056 43.6976C35.9412 43.8674 36.2565 43.6368 36.1661 43.3608L35.6156 41.6806C35.575 41.5565 35.6193 41.4203 35.7253 41.3439L37.1638 40.3073C37.4 40.1371 37.2796 39.7639 36.9884 39.7639L35.2051 39.7639C35.0754 39.7639 34.9604 39.6806 34.92 39.5573L34.3673 37.8702Z" fill="#32D989"/>
<path fill-rule="evenodd" clip-rule="evenodd" d="M16.9423 21V32H31.0577V21H16.9423ZM15.934 19C15.3772 19 14.9258 19.4477 14.9258 20V33C14.9258 33.5523 15.3772 34 15.934 34H32.0659C32.6228 34 33.0742 33.5523 33.0742 33V20C33.0742 19.4477 32.6228 19 32.0659 19H15.934Z" fill="#32D989"/>
<path fill-rule="evenodd" clip-rule="evenodd" d="M28.033 19V18C28.033 15.7909 26.2274 14 24 14C21.7727 14 19.967 15.7909 19.967 18V19H28.033ZM24 12C20.659 12 17.9506 14.6863 17.9506 18V21H30.0495V18C30.0495 14.6863 27.3411 12 24 12Z" fill="#32D989"/>
<path d="M22.9917 24C22.9917 23.4477 23.4431 23 24 23C24.5568 23 25.0082 23.4477 25.0082 24V29C25.0082 29.5523 24.5568 30 24 30C23.4431 30 22.9917 29.5523 22.9917 29V24Z" fill="#32D989"/>
<path d="M26.0165 25C26.0165 26.1046 25.1137 27 24 27C22.8863 27 21.9835 26.1046 21.9835 25C21.9835 23.8954 22.8863 23 24 23C25.1137 23 26.0165 23.8954 26.0165 25Z" fill="#32D989"/>
</svg>
