<svg width="438" height="568" viewBox="0 0 438 568" fill="none" xmlns="http://www.w3.org/2000/svg">
<g filter="url(#filter0_ddd_895_29)">
<rect width="298" height="158" rx="8" transform="matrix(0.965404 0.26076 -0.260762 0.965403 95.791 245.323)" fill="url(#paint0_linear_895_29)"/>
</g>
<path d="M203.897 305.88L203.433 307.594L199.031 306.405L195.132 320.84L193.024 320.27L196.923 305.836L192.497 304.64L192.96 302.926L203.897 305.88ZM215.561 319.024C215.452 319.425 215.315 319.844 215.147 320.279L204.999 317.538C204.738 318.81 204.898 319.906 205.478 320.825C206.078 321.733 206.935 322.337 208.047 322.637C208.958 322.884 209.771 322.88 210.486 322.625C211.221 322.36 211.808 321.905 212.247 321.261L214.518 321.874C213.848 323.003 212.899 323.816 211.671 324.313C210.447 324.794 209.079 324.83 207.565 324.422C206.36 324.096 205.352 323.534 204.54 322.734C203.744 321.939 203.209 320.974 202.935 319.84C202.666 318.69 202.709 317.458 203.063 316.145C203.418 314.832 203.991 313.753 204.783 312.906C205.576 312.059 206.514 311.5 207.598 311.23C208.702 310.948 209.871 310.974 211.107 311.307C212.312 311.633 213.307 312.183 214.092 312.959C214.877 313.734 215.391 314.652 215.635 315.713C215.899 316.762 215.874 317.865 215.561 319.024ZM213.502 317.995C213.719 317.192 213.727 316.457 213.526 315.789C213.329 315.106 212.962 314.535 212.423 314.074C211.904 313.603 211.274 313.267 210.532 313.067C209.467 312.779 208.463 312.872 207.523 313.348C206.598 313.827 205.919 314.654 205.485 315.83L213.502 317.995ZM221.479 316.545C222.046 315.919 222.723 315.497 223.511 315.279C224.315 315.066 225.211 315.092 226.199 315.359L225.611 317.537L225.055 317.387C222.692 316.749 221.164 317.711 220.471 320.276L218.606 327.18L216.498 326.611L219.927 313.914L222.036 314.483L221.479 316.545ZM243.902 320.141C244.891 320.408 245.715 320.854 246.375 321.48C247.038 322.09 247.484 322.865 247.711 323.805C247.937 324.744 247.892 325.801 247.575 326.975L245.554 334.459L243.468 333.896L245.408 326.713C245.751 325.446 245.695 324.395 245.241 323.56C244.807 322.714 244.056 322.146 242.991 321.859C241.894 321.562 240.925 321.682 240.085 322.217C239.248 322.737 238.65 323.661 238.292 324.99L236.402 331.987L234.316 331.424L236.256 324.241C236.599 322.974 236.543 321.923 236.089 321.088C235.655 320.242 234.904 319.674 233.839 319.387C232.742 319.09 231.773 319.21 230.933 319.745C230.096 320.265 229.498 321.189 229.14 322.518L227.25 329.515L225.141 328.945L228.571 316.248L230.679 316.818L230.185 318.648C230.781 318.097 231.475 317.737 232.266 317.57C233.073 317.406 233.901 317.439 234.75 317.669C235.816 317.957 236.693 318.451 237.383 319.151C238.072 319.85 238.492 320.718 238.644 321.753C239.241 320.953 240.016 320.417 240.968 320.144C241.92 319.871 242.898 319.87 243.902 320.141ZM255.752 318.817L251.121 335.962L249.012 335.393L253.643 318.247L255.752 318.817ZM269.08 327.19L256.39 343.8L254.212 343.211L258.366 337.77L256.638 323.829L258.978 324.461L260.184 335.825L266.902 326.602L269.08 327.19Z" fill="#8770FF"/>
<path d="M265.067 396.746L255.086 414.784L253.522 414.361L263.485 396.319L265.067 396.746ZM277.072 407.149C277.814 407.349 278.432 407.684 278.926 408.153C279.424 408.61 279.758 409.192 279.928 409.896C280.098 410.601 280.065 411.394 279.827 412.274L278.311 417.887L276.747 417.465L278.202 412.078C278.458 411.128 278.417 410.339 278.076 409.713C277.75 409.078 277.188 408.653 276.389 408.437C275.566 408.215 274.839 408.304 274.209 408.706C273.582 409.096 273.133 409.789 272.864 410.785L271.447 416.033L269.883 415.611L271.338 410.224C271.594 409.274 271.553 408.486 271.212 407.859C270.886 407.224 270.324 406.799 269.524 406.583C268.702 406.361 267.975 406.45 267.345 406.852C266.718 407.242 266.269 407.935 266 408.931L264.583 414.179L263.001 413.752L265.574 404.229L267.155 404.656L266.784 406.029C267.231 405.615 267.752 405.346 268.345 405.22C268.95 405.098 269.571 405.122 270.208 405.295C271.007 405.51 271.666 405.881 272.183 406.406C272.7 406.931 273.015 407.582 273.128 408.358C273.576 407.758 274.157 407.356 274.871 407.151C275.586 406.946 276.319 406.945 277.072 407.149ZM285.016 419.866C284.124 419.625 283.367 419.203 282.747 418.601C282.138 418.001 281.726 417.274 281.509 416.42C281.307 415.558 281.339 414.634 281.605 413.649C281.868 412.676 282.308 411.875 282.925 411.246C283.557 410.609 284.291 410.192 285.127 409.995C285.967 409.787 286.838 409.805 287.742 410.049C288.645 410.293 289.407 410.716 290.028 411.319C290.651 411.91 291.071 412.633 291.288 413.487C291.516 414.344 291.498 415.265 291.232 416.25C290.966 417.234 290.511 418.044 289.867 418.678C289.238 419.303 288.498 419.719 287.647 419.924C286.797 420.129 285.919 420.11 285.016 419.866ZM285.391 418.476C285.959 418.629 286.528 418.64 287.098 418.508C287.668 418.376 288.176 418.084 288.621 417.633C289.077 417.184 289.409 416.578 289.616 415.813C289.822 415.048 289.847 414.359 289.689 413.745C289.532 413.131 289.245 412.63 288.827 412.244C288.412 411.846 287.921 411.571 287.354 411.417C286.774 411.261 286.205 411.25 285.647 411.385C285.103 411.512 284.614 411.802 284.181 412.257C283.747 412.712 283.427 413.321 283.221 414.086C283.011 414.862 282.973 415.554 283.107 416.162C283.253 416.773 283.527 417.276 283.93 417.671C284.337 418.054 284.823 418.322 285.391 418.476ZM299.279 413.147C300.437 413.46 301.28 414.066 301.808 414.967C302.338 415.856 302.425 416.961 302.068 418.282L300.552 423.894L298.988 423.472L300.443 418.085C300.7 417.135 300.658 416.347 300.318 415.721C299.98 415.082 299.4 414.652 298.578 414.43C297.744 414.205 297.007 414.286 296.368 414.672C295.741 415.062 295.293 415.755 295.024 416.752L293.601 422.017L292.02 421.59L294.592 412.067L296.174 412.494L295.807 413.85C296.252 413.448 296.776 413.185 297.381 413.063C297.998 412.943 298.63 412.971 299.279 413.147ZM307.284 416.894L305.768 422.507C305.643 422.97 305.652 423.327 305.796 423.577C305.943 423.815 306.26 424 306.746 424.132L307.911 424.446L307.549 425.784L306.124 425.399C305.244 425.162 304.638 424.781 304.308 424.256C303.977 423.732 303.937 423.006 304.187 422.079L305.703 416.467L304.469 416.133L304.821 414.83L306.055 415.163L306.703 412.765L308.284 413.192L307.636 415.59L310.121 416.262L309.769 417.565L307.284 416.894ZM316.811 417.882C317.529 418.076 318.136 418.408 318.63 418.877C319.128 419.335 319.457 419.914 319.615 420.616C319.785 421.321 319.751 422.113 319.514 422.994L317.997 428.606L316.434 428.184L317.889 422.797C318.145 421.847 318.103 421.059 317.763 420.432C317.426 419.794 316.846 419.364 316.023 419.142C315.189 418.917 314.452 418.998 313.813 419.384C313.186 419.774 312.738 420.467 312.469 421.464L311.047 426.729L309.465 426.302L312.939 413.443L314.52 413.87L313.253 418.562C313.697 418.16 314.227 417.899 314.844 417.779C315.472 417.663 316.127 417.697 316.811 417.882Z" fill="#B6BFD9"/>
<path d="M162.383 354.291C164.511 354.866 166.45 354.878 168.199 354.327C169.973 353.783 171.455 352.766 172.644 351.277L175.653 352.089C174.038 354.277 172.022 355.767 169.604 356.557C167.211 357.354 164.596 357.369 161.759 356.603C158.873 355.823 156.56 354.332 154.819 352.13C153.11 349.91 152.233 347.325 152.191 344.375L148.375 343.344L148.871 341.51L152.283 342.431C152.363 341.744 152.516 340.985 152.74 340.154C152.919 339.493 153.127 338.868 153.366 338.276L149.991 337.364L150.486 335.53L154.228 336.541C155.195 334.808 156.444 333.387 157.977 332.279C159.534 331.177 161.234 330.469 163.078 330.153C164.952 329.82 166.868 329.918 168.824 330.446C171.661 331.212 173.922 332.558 175.606 334.482C177.297 336.382 178.274 338.693 178.536 341.414L175.528 340.601C175.257 338.691 174.492 337.054 173.233 335.691C172.005 334.31 170.328 333.332 168.2 332.757C165.95 332.149 163.809 332.254 161.778 333.069C159.754 333.861 158.13 335.259 156.906 337.264L166.334 339.811L165.839 341.645L156.007 338.989C155.768 339.581 155.56 340.207 155.382 340.867C155.19 341.577 155.05 342.339 154.961 343.155L164.719 345.79L164.223 347.625L154.905 345.108C155.029 347.372 155.748 349.324 157.063 350.965C158.409 352.588 160.182 353.697 162.383 354.291Z" fill="#1D212A"/>
<path d="M172.084 396.487C182.338 392.395 190.464 388.449 196.462 384.65C202.519 380.817 206.205 376.467 207.519 371.602C208.383 368.404 208.26 365.637 207.151 363.299C206.102 360.927 203.769 359.253 200.155 358.277C196.633 357.325 193.599 357.699 191.052 359.398C188.563 361.062 186.709 363.694 185.489 367.292L180.762 366.015C182.429 360.947 185.081 357.387 188.718 355.336C192.413 353.252 196.601 352.842 201.281 354.106C205.776 355.32 209.07 357.577 211.162 360.877C213.266 364.13 213.693 368.074 212.441 372.708C210.926 378.315 207.116 383.127 201.008 387.146C194.96 391.131 187.854 394.705 179.691 397.87L205.409 404.817L204.301 408.918L171.145 399.962L172.084 396.487ZM221.853 399.787C221.549 402.936 222.081 405.566 223.451 407.676C224.82 409.786 227.08 411.267 230.231 412.118C234.587 413.295 238.264 412.473 241.263 409.654C244.321 406.8 246.821 401.41 248.764 393.482C247.195 395.793 244.959 397.352 242.056 398.159C239.212 398.932 236.191 398.887 232.994 398.023C228.128 396.709 224.607 394.191 222.43 390.471C220.299 386.763 219.934 382.314 221.336 377.124C222.175 374.019 223.534 371.378 225.415 369.201C227.296 367.025 229.658 365.55 232.502 364.776C235.346 364.003 238.552 364.099 242.12 365.062C248.701 366.84 252.706 370.234 254.137 375.244C255.581 380.208 255.22 386.699 253.054 394.715C250.714 403.381 247.658 409.541 243.886 413.196C240.161 416.864 235.17 417.852 228.915 416.163C224.327 414.924 221.091 412.732 219.205 409.587C217.333 406.397 216.709 402.723 217.334 398.566L221.853 399.787ZM234.885 394.059C237.063 394.647 239.174 394.745 241.219 394.353C243.323 393.927 245.169 392.983 246.757 391.523C248.345 390.062 249.47 388.104 250.134 385.648C251.16 381.848 250.916 378.426 249.401 375.382C247.933 372.35 245.183 370.29 241.152 369.201C237.584 368.237 234.41 368.573 231.631 370.209C228.899 371.858 227.032 374.536 226.031 378.243C224.979 382.135 225.219 385.482 226.75 388.282C228.281 391.082 230.992 393.007 234.885 394.059Z" fill="#1D212A"/>
<g opacity="0.7" clip-path="url(#clip0_895_29)">
<path d="M312.311 387.742C312.311 387.742 314.238 387.323 312.429 387.516C311.864 387.504 311.072 387.603 309.827 387.807C311.07 387.717 312.086 387.738 312.311 387.742Z" fill="#32D989"/>
<path d="M334.675 381.206L334.563 381.204C333.328 380.836 331.979 380.58 330.515 380.437C328.263 380.163 325.781 380.114 322.73 380.282C317.082 380.513 311.651 381.206 308.029 381.707C304.408 382.207 300.669 382.934 296.704 383.656C293.87 384.286 292.171 384.596 292.171 384.596L292.058 384.593C291.832 384.589 291.605 384.699 291.266 384.692C290.813 384.797 290.133 384.898 289.113 385.107C286.963 385.408 283.229 385.906 278.364 386.495L267.614 387.884C262.862 388.476 257.203 389.279 251.32 389.963C248.152 390.358 245.325 390.645 242.61 390.934L240.006 391.34C240.586 390.551 241.169 389.647 241.638 388.741C242.46 387.155 242.832 385.446 242.981 383.618C242.99 383.161 242.999 382.703 243.006 382.36C243.009 382.246 243.013 382.017 242.903 381.9C242.907 381.672 242.801 381.326 242.693 381.095C242.485 380.176 242.163 379.368 241.725 378.673C240.852 377.168 239.634 376 238.073 375.053C236.622 374.223 234.83 373.501 232.809 373.003L231.798 372.754L231.01 372.624C230.448 372.499 229.887 372.373 229.435 372.364C228.422 372.229 227.409 372.095 226.283 371.958C224.483 371.694 222.68 371.543 220.536 371.501C220.311 371.496 220.085 371.492 219.859 371.487C218.618 371.463 217.941 371.449 217.941 371.449C217.829 371.447 217.716 371.445 217.716 371.445C215.008 371.391 212.637 371.458 210.716 371.534C205.071 371.651 201.454 371.923 201.454 371.923C188.802 372.472 170.01 375.303 156.532 377.667C148.605 378.997 141.694 380.347 137.163 381.173C132.176 382.218 129.229 382.846 129.229 382.846C129.229 382.846 132.061 382.33 136.82 381.395C143.391 380.152 150.185 379.029 156.866 377.903C167.169 376.276 176.452 374.859 185.162 373.888C195.456 372.719 206.54 371.566 217.716 371.445C217.941 371.449 218.167 371.454 218.393 371.458C218.844 371.467 219.408 371.478 219.859 371.487C220.423 371.498 221.1 371.512 221.89 371.528L222.116 371.532C223.357 371.557 224.821 371.7 226.624 371.85C227.637 371.985 228.537 372.117 229.663 372.254C230.112 372.377 230.676 372.389 231.351 372.517C231.464 372.519 231.577 372.521 231.577 372.521C231.802 372.526 232.026 372.644 232.139 372.647C232.475 372.768 232.924 372.891 233.262 372.898L233.375 372.9C236.967 373.887 241.55 376.152 242.587 380.75C242.905 381.786 242.884 382.815 242.747 384.071C242.609 385.327 242.248 386.465 241.889 387.487C241.412 388.737 240.71 389.981 239.785 391.107L238.993 391.206C239.688 390.304 240.383 389.403 240.853 388.497C241.44 387.364 241.914 386.229 242.051 384.973C242.3 383.834 242.325 382.575 242.235 381.429C242.032 380.281 241.601 379.243 240.942 378.314C239.738 376.459 237.732 375.161 235.491 374.315C234.932 374.075 234.37 373.95 233.81 373.71C233.587 373.591 233.249 373.584 232.912 373.463L232.127 373.219C231.455 372.976 230.665 372.961 229.993 372.718C224.706 371.812 220.306 371.725 216.583 371.651C212.86 371.577 210.037 371.635 208.004 371.709C205.971 371.783 204.956 371.763 204.956 371.763C194.788 372.248 186.076 373.334 179.963 374.242C173.738 375.148 170.112 375.877 170.112 375.877C151.877 379.062 142.019 381.04 136.691 382.193C131.363 383.346 130.569 383.559 130.569 383.559L130.528 385.618L132.074 387.365L133.037 390.016C133.533 393.459 134.368 391.187 134.368 391.187C147.859 388.137 161.003 385.537 173.461 383.382C185.917 381.34 197.799 379.746 209.102 378.94C214.752 378.595 220.174 378.359 225.359 378.691C226.711 378.832 227.952 378.857 229.188 379.11C229.863 379.238 230.427 379.25 231.1 379.492C231.661 379.617 232.223 379.743 232.785 379.869C233.794 380.232 234.915 380.597 235.802 381.416C236.246 381.768 236.46 382.345 236.562 382.919C236.557 383.147 236.551 383.491 236.546 383.719L236.417 384.518C236.169 385.657 235.699 386.563 235.004 387.465C234.309 388.367 233.506 389.037 232.477 389.703C232.019 390.037 231.45 390.255 230.992 390.589C230.536 390.809 229.968 391.027 229.397 391.359C228.368 392.025 227.557 393.038 227.194 394.29C227.07 394.86 227.054 395.66 227.494 396.241C227.821 396.82 228.378 397.174 228.94 397.3C230.059 397.78 231.187 397.802 232.2 397.937C234.342 398.094 236.492 397.793 238.527 397.605C246.669 396.851 253.799 395.848 260.133 395.173C266.356 394.381 271.785 393.803 276.086 393.202C284.796 392.23 289.433 391.75 289.433 391.75C289.774 391.643 290.112 391.649 290.453 391.542C297.825 389.743 302.922 388.814 306.431 388.312C307.902 388.112 309.148 387.908 310.053 387.812C308.132 387.888 305.531 388.179 302.816 388.469C300.327 388.763 297.836 389.171 296.139 389.366C297.498 389.164 298.969 388.965 300.327 388.763C303.953 388.034 307.69 387.421 311.312 386.921C309.051 387.105 306.675 387.401 304.412 387.7C306.339 387.28 310.98 386.571 315.166 386.082C319.352 385.593 323.077 385.553 323.077 385.553C321.274 385.403 316.872 385.43 310.876 386.112C304.994 386.796 297.523 387.906 289.932 389.357C277.828 390.719 264.479 392.284 254.3 393.341C249.212 393.812 244.914 394.299 241.861 394.581C238.808 394.864 237 394.942 237 394.942C237.907 394.732 239.945 394.429 243 394.032C243.451 394.041 243.905 393.935 244.469 393.947C247.861 393.671 252.272 393.186 256.798 392.59C261.776 392.002 267.433 391.313 273.09 390.625C278.296 389.927 283.499 389.344 288.251 388.752L289.722 388.552C290.289 388.449 290.742 388.343 291.308 388.24L292.441 388.034C293.348 387.823 294.255 387.612 295.16 387.516C296.972 387.208 298.671 386.899 300.37 386.589C303.428 386.078 306.486 385.567 309.428 385.167C315.653 384.261 319.607 384.111 321.527 384.035C319.72 384.113 315.651 384.376 309.428 385.167C306.486 385.567 303.428 386.078 300.37 386.589C298.671 386.899 296.972 387.208 295.16 387.516C294.253 387.727 293.346 387.937 292.441 388.034L291.308 388.24C290.742 388.343 290.289 388.449 289.722 388.552L288.251 388.752C283.386 389.342 278.18 390.039 273.09 390.625C267.433 391.313 261.776 392.002 256.798 392.59C252.274 393.072 247.863 393.556 244.469 393.947C244.131 393.94 243.79 394.048 243.564 394.043C246.96 393.538 251.259 393.052 256.239 392.35C266.084 391.058 278.192 389.467 289.736 387.866C290.981 387.662 292.116 387.341 293.362 387.137C294.608 386.933 295.855 386.614 296.988 386.408C299.366 385.997 301.747 385.472 304.01 385.174C308.539 384.463 312.727 383.86 316.233 383.472C319.74 383.084 322.791 382.915 324.824 382.841C326.857 382.767 328.098 382.792 328.098 382.792C326.636 382.534 321.559 382.433 314.548 383.095C311.041 383.483 307.081 383.976 302.893 384.58C300.743 384.88 298.59 385.295 296.325 385.708C295.192 385.914 294.059 386.121 292.927 386.327C291.794 386.533 290.774 386.742 289.641 386.948C283.305 387.738 276.743 388.523 270.409 389.198C264.073 389.988 258.078 390.67 252.764 391.136C247.561 391.719 243.152 392.09 239.986 392.37C239.76 392.365 239.535 392.361 239.307 392.471C239.422 392.359 239.422 392.359 239.537 392.247C240.103 392.143 240.78 392.157 241.459 392.056C244.74 391.663 249.152 391.179 254.242 390.593C259.333 390.008 265.102 389.322 271.213 388.528C277.211 387.731 283.434 386.939 289.431 386.143C290.679 385.825 292.038 385.623 293.286 385.304C294.644 385.102 295.892 384.784 297.25 384.582C299.856 384.062 302.348 383.653 304.839 383.245C309.708 382.427 314.235 381.83 318.19 381.565C322.035 381.184 325.309 381.135 327.678 381.182C330.048 381.229 331.399 381.37 331.399 381.37C330.499 381.238 328.585 380.971 326.103 380.921C323.621 380.872 320.458 381.038 316.726 381.422C312.994 381.805 308.808 382.294 304.164 383.117C301.898 383.53 299.52 383.941 297.029 384.349C295.783 384.553 294.536 384.871 293.29 385.076C292.044 385.28 290.797 385.598 289.549 385.917C283.892 386.605 277.894 387.402 271.781 388.31C265.558 389.102 259.222 389.891 252.773 390.679C249.605 391.073 246.439 391.354 243.271 391.749C242.141 391.841 241.01 391.933 239.88 392.025C240.11 391.8 240.227 391.574 240.458 391.349L242.944 391.17C245.546 390.878 248.486 390.593 251.654 390.199C257.649 389.517 263.309 388.714 267.948 388.119L278.698 386.731C283.563 386.141 287.297 385.643 289.447 385.343C290.467 385.134 291.149 384.919 291.6 384.928C291.941 384.82 292.166 384.824 292.392 384.829L292.505 384.831C292.505 384.831 294.204 384.522 297.038 383.891C300.89 383.167 304.742 382.442 308.363 381.942C311.985 381.442 317.416 380.749 323.064 380.518C326.112 380.464 328.595 380.513 330.849 380.672C332.313 380.816 333.662 381.072 334.897 381.439L334.675 381.206C336.133 381.693 337.591 382.18 339.256 383.586C337.591 382.18 336.02 381.691 334.675 381.206ZM185.162 373.888C176.45 374.973 167.169 376.276 156.866 377.903C150.185 379.029 143.391 380.152 136.82 381.395C133.988 381.911 131.835 382.326 130.587 382.644C131.948 382.328 134.216 381.801 137.16 381.287C141.581 380.345 148.605 378.997 156.419 377.665C169.897 375.301 188.687 372.584 201.341 371.92C201.341 371.92 205.071 371.651 210.603 371.532C212.411 371.454 214.554 371.496 216.926 371.429C206.088 371.557 195.23 372.714 185.162 373.888ZM241.997 387.718C242.469 386.698 242.717 385.558 242.855 384.302C242.99 383.161 242.9 382.015 242.695 380.981C242.285 378.913 241.078 377.173 239.185 375.876C237.741 374.703 235.726 373.862 233.481 373.245L233.368 373.243C233.032 373.122 232.583 372.999 232.245 372.992C232.019 372.988 231.796 372.869 231.683 372.866C231.57 372.864 231.457 372.862 231.457 372.862C230.782 372.734 230.221 372.609 229.769 372.6C228.756 372.465 227.743 372.33 226.73 372.196C226.392 372.189 226.166 372.185 225.943 372.066C226.168 372.07 226.281 372.073 226.507 372.077C227.52 372.212 228.646 372.348 229.659 372.483C230.108 372.606 230.672 372.617 231.234 372.743L232.021 372.873L233.032 373.122C235.054 373.62 236.732 374.34 238.296 375.172C239.857 376.118 241.186 377.404 241.949 378.792C242.386 379.487 242.709 380.295 242.916 381.214C243.024 381.445 243.018 381.788 243.126 382.019C243.124 382.134 243.119 382.362 243.23 382.479C243.336 382.824 243.327 383.282 243.205 383.737C243.055 385.565 242.57 387.272 241.861 388.86C241.392 389.766 240.81 390.67 240.23 391.459L240.117 391.457C240.819 390.212 241.518 389.082 241.997 387.718ZM223.467 371.673C223.58 371.676 223.693 371.678 223.806 371.68C223.58 371.676 223.467 371.673 223.467 371.673ZM239.891 391.453C239.661 391.677 239.431 391.901 239.198 392.24C238.86 392.233 238.632 392.343 238.294 392.336C238.409 392.224 238.524 392.112 238.639 392C238.754 391.888 238.871 391.661 238.986 391.549L239.891 391.453ZM237.951 392.558L238.066 392.446C238.404 392.453 238.632 392.343 238.97 392.35C238.968 392.464 238.855 392.462 238.853 392.576C238.627 392.572 238.289 392.565 237.951 392.558ZM239.081 392.466C238.968 392.464 238.968 392.464 239.081 392.466C239.081 392.466 239.083 392.352 239.198 392.24L239.311 392.242C239.196 392.354 239.081 392.466 239.081 392.466ZM239.426 392.13L239.313 392.128C239.544 391.903 239.774 391.679 240.006 391.34L240.119 391.343C239.774 391.679 239.544 391.903 239.426 392.13Z" fill="#32D989"/>
<path d="M299.945 390.929C298.7 391.133 297.339 391.45 295.642 391.645C295.189 391.75 294.622 391.853 294.169 391.959L293.149 392.167C292.242 392.378 291.335 392.589 290.315 392.798L269.384 395.357C260.333 396.436 252.869 397.203 246.535 397.878C242.916 398.264 239.524 398.54 236.361 398.706C235.118 398.796 233.423 398.876 231.846 398.731C230.381 398.587 228.917 398.444 227.692 397.618C227.024 397.147 226.474 396.45 226.377 395.647C226.28 394.844 226.519 394.162 226.641 393.707C226.998 392.798 227.575 392.123 228.379 391.453C228.952 391.006 229.521 390.789 229.861 390.681C230.202 390.573 230.317 390.461 230.317 390.461C230.317 390.461 230.202 390.573 229.861 390.681C229.521 390.789 228.95 391.121 228.379 391.453C227.578 392.009 226.998 392.798 226.641 393.707C226.404 394.274 226.167 394.842 226.377 395.647C226.474 396.45 227.024 397.147 227.692 397.618C228.917 398.444 230.269 398.585 231.846 398.731C232.297 398.74 232.748 398.749 233.312 398.76C234.441 398.782 235.571 398.69 236.474 398.708C239.637 398.542 243.029 398.266 246.648 397.88C252.982 397.205 260.446 396.438 269.497 395.359L290.428 392.8C291.448 392.591 292.355 392.38 293.262 392.17L294.282 391.961C294.735 391.856 295.302 391.752 295.755 391.647C297.341 391.335 298.7 391.133 299.945 390.929C302.324 390.519 304.021 390.324 304.813 390.225C304.136 390.211 302.437 390.521 299.945 390.929Z" fill="#32D989"/>
</g>
<path d="M22.2892 207.345C21.5772 200.037 25.8423 190.65 31.8156 186.379L281.672 7.73324C287.646 3.46237 293.065 5.92484 293.777 13.2333L308.357 162.885C309.069 170.193 304.804 179.58 298.831 183.851L48.974 362.497C43.0007 366.768 37.5811 364.305 36.8691 356.997L22.2892 207.345Z" fill="url(#paint1_linear_895_29)"/>
<path fill-rule="evenodd" clip-rule="evenodd" d="M282.351 14.7003L32.4944 193.346C29.6659 195.368 27.6463 199.813 27.9835 203.274L42.5633 352.925C42.9005 356.386 45.4667 357.552 48.2952 355.53L298.152 176.884C300.981 174.862 303 170.417 302.663 166.956L288.083 17.3046C287.746 13.8439 285.18 12.6779 282.351 14.7003ZM31.8156 186.379C25.8423 190.65 21.5772 200.037 22.2892 207.345L36.8691 356.997C37.5811 364.305 43.0007 366.768 48.974 362.497L298.831 183.851C304.804 179.58 309.069 170.193 308.357 162.885L293.777 13.2333C293.065 5.92484 287.646 3.46237 281.672 7.73324L31.8156 186.379Z" fill="url(#paint2_linear_895_29)"/>
<path d="M120.239 164.223C119.711 163.437 119.017 163.037 118.158 163.022C117.297 162.988 116.335 163.352 115.27 164.113C114.206 164.874 113.274 165.865 112.473 167.086C111.685 168.279 111.098 169.615 110.712 171.093C110.338 172.542 110.223 173.998 110.365 175.461C110.508 176.923 110.873 178.035 111.462 178.797C112.066 179.549 112.819 179.925 113.724 179.927C114.641 179.901 115.632 179.507 116.696 178.746C118.183 177.683 119.354 176.264 120.21 174.488C121.066 172.712 121.484 170.84 121.464 168.87L115.386 173.216L115.193 171.237L123.392 165.374L123.574 167.247C123.607 168.864 123.351 170.554 122.806 172.318C122.258 174.064 121.475 175.702 120.454 177.233C119.432 178.745 118.251 179.981 116.91 180.94C115.496 181.951 114.167 182.472 112.922 182.503C111.676 182.517 110.64 182.046 109.815 181.091C109.003 180.126 108.509 178.734 108.332 176.915C108.155 175.096 108.331 173.224 108.861 171.3C109.403 169.348 110.219 167.553 111.307 165.917C112.393 164.263 113.643 162.93 115.057 161.919C116.675 160.763 118.151 160.232 119.486 160.327C120.835 160.411 121.88 161.142 122.623 162.519L120.239 164.223ZM137.166 157.844C137.211 158.307 137.237 158.813 137.244 159.362L127.667 166.209C127.881 167.602 128.392 168.448 129.201 168.747C130.022 169.018 130.958 168.778 132.007 168.028C132.867 167.413 133.558 166.662 134.08 165.774C134.614 164.857 134.958 163.906 135.111 162.918L137.254 161.386C137.071 163.025 136.541 164.633 135.666 166.213C134.789 167.775 133.637 169.066 132.208 170.088C131.071 170.901 130.02 171.318 129.056 171.34C128.106 171.352 127.32 170.969 126.699 170.192C126.076 169.398 125.69 168.243 125.543 166.727C125.395 165.211 125.513 163.705 125.898 162.209C126.282 160.713 126.889 159.344 127.719 158.102C128.562 156.832 129.567 155.78 130.733 154.946C131.87 154.133 132.905 153.717 133.839 153.698C134.773 153.679 135.525 154.038 136.095 154.775C136.679 155.483 137.036 156.506 137.166 157.844ZM135.061 158.805C134.971 157.877 134.726 157.204 134.327 156.783C133.925 156.345 133.417 156.165 132.801 156.243C132.197 156.293 131.546 156.568 130.846 157.069C129.84 157.788 129.019 158.795 128.381 160.09C127.758 161.375 127.463 162.75 127.496 164.214L135.061 158.805ZM141.756 149.469L142.598 158.11C142.667 158.823 142.84 159.243 143.118 159.369C143.393 159.477 143.837 159.312 144.45 158.874L145.914 157.827L146.115 159.887L144.322 161.169C143.214 161.961 142.353 162.243 141.738 162.015C141.124 161.786 140.747 160.959 140.608 159.532L139.766 150.891L138.214 152.001L138.018 149.995L139.571 148.885L139.211 145.193L141.201 143.77L141.56 147.462L144.687 145.227L144.882 147.233L141.756 149.469ZM156.089 132.81L156.282 134.79L152.128 137.76L153.752 154.427L151.762 155.849L150.138 139.183L145.962 142.169L145.769 140.189L156.089 132.81ZM170.519 133.997C170.564 134.461 170.59 134.967 170.596 135.515L161.02 142.362C161.233 143.755 161.744 144.601 162.553 144.9C163.375 145.171 164.31 144.932 165.36 144.181C166.22 143.566 166.911 142.815 167.432 141.927C167.967 141.01 168.31 140.059 168.464 139.072L170.607 137.54C170.423 139.178 169.894 140.787 169.019 142.366C168.142 143.928 166.989 145.22 165.561 146.241C164.424 147.054 163.373 147.471 162.408 147.493C161.458 147.505 160.673 147.122 160.051 146.346C159.428 145.551 159.043 144.396 158.895 142.88C158.747 141.364 158.866 139.858 159.25 138.362C159.634 136.867 160.242 135.498 161.072 134.256C161.915 132.985 162.919 131.933 164.085 131.099C165.222 130.286 166.258 129.87 167.191 129.852C168.125 129.833 168.877 130.191 169.448 130.928C170.031 131.636 170.388 132.659 170.519 133.997ZM168.414 134.958C168.323 134.031 168.079 133.357 167.679 132.937C167.278 132.499 166.769 132.319 166.153 132.397C165.55 132.446 164.898 132.722 164.199 133.222C163.193 133.941 162.371 134.948 161.733 136.244C161.11 137.529 160.815 138.903 160.849 140.367L168.414 134.958ZM174.707 126.309C174.975 125.221 175.408 124.215 176.004 123.293C176.615 122.36 177.386 121.561 178.319 120.894L178.564 123.408L178.04 123.783C175.809 125.378 174.838 127.656 175.127 130.616L175.904 138.588L173.914 140.011L172.486 125.351L174.475 123.928L174.707 126.309ZM195.025 108.949C195.958 108.282 196.812 107.929 197.588 107.889C198.362 107.832 199.006 108.125 199.521 108.768C200.036 109.411 200.359 110.41 200.492 111.765L201.333 120.406L199.366 121.813L198.558 113.52C198.415 112.058 198.008 111.156 197.335 110.817C196.676 110.449 195.843 110.625 194.837 111.344C193.802 112.084 193.019 113.083 192.487 114.341C191.953 115.581 191.76 116.968 191.91 118.502L192.697 126.581L190.729 127.988L189.921 119.695C189.778 118.233 189.371 117.332 188.699 116.992C188.039 116.624 187.207 116.8 186.201 117.519C185.166 118.259 184.382 119.258 183.85 120.516C183.316 121.756 183.124 123.143 183.273 124.677L184.06 132.756L182.07 134.179L180.642 119.519L182.632 118.096L182.838 120.21C183.157 119.161 183.624 118.198 184.24 117.318C184.871 116.429 185.587 115.697 186.388 115.124C187.394 114.405 188.31 114.046 189.137 114.046C189.963 114.047 190.618 114.447 191.101 115.246C191.336 113.971 191.811 112.773 192.528 111.65C193.245 110.527 194.078 109.626 195.025 108.949ZM208.862 115.28C207.944 115.937 207.102 116.339 206.337 116.485C205.57 116.614 204.942 116.491 204.453 116.115C203.963 115.722 203.652 115.095 203.522 114.234L205.577 112.765C205.706 113.454 206.042 113.854 206.582 113.963C207.138 114.062 207.824 113.82 208.64 113.236C209.398 112.694 209.976 112.062 210.373 111.339C210.77 110.616 210.938 109.943 210.878 109.318C210.815 108.676 210.536 108.37 210.04 108.401C209.542 108.413 208.79 108.617 207.784 109.012C206.867 109.362 206.11 109.598 205.514 109.719C204.931 109.812 204.407 109.719 203.943 109.44C203.492 109.133 203.221 108.507 203.129 107.562C203.056 106.813 203.171 105.996 203.475 105.111C203.778 104.226 204.248 103.366 204.884 102.53C205.518 101.676 206.265 100.941 207.125 100.326C208.451 99.3779 209.563 99.0221 210.459 99.2588C211.355 99.4956 211.902 100.307 212.099 101.692L210.109 103.114C209.991 102.379 209.676 101.946 209.164 101.815C208.667 101.675 208.033 101.881 207.26 102.433C206.546 102.944 205.995 103.538 205.609 104.214C205.223 104.891 205.059 105.533 205.119 106.139C205.165 106.621 205.328 106.933 205.607 107.077C205.899 107.193 206.244 107.213 206.643 107.138C207.053 107.035 207.613 106.855 208.32 106.597C209.208 106.267 209.936 106.052 210.503 105.952C211.068 105.834 211.567 105.916 212 106.198C212.448 106.469 212.722 107.046 212.824 107.927C212.902 108.73 212.79 109.582 212.488 110.485C212.186 111.387 211.718 112.266 211.084 113.12C210.463 113.945 209.722 114.666 208.862 115.28Z" fill="#9E8BFF"/>
<path d="M134.507 212.592C134.636 213.919 134.494 215.38 134.082 216.974C133.666 218.539 132.966 220.097 131.982 221.647C130.997 223.196 129.747 224.558 128.232 225.732L128.563 229.121L127.039 230.21L126.705 226.779C124.629 228.022 122.887 228.391 121.481 227.886C120.071 227.354 119.217 226.062 118.918 224.01L121.514 222.153C121.731 223.358 122.259 224.219 123.099 224.736C123.96 225.208 125.082 225.07 126.466 224.322L125.323 212.589C123.727 213.186 122.431 213.569 121.435 213.737C120.462 213.889 119.602 213.674 118.854 213.091C118.103 212.48 117.641 211.285 117.468 209.506C117.251 207.275 117.707 204.986 118.836 202.638C119.962 200.262 121.604 198.242 123.763 196.578L123.416 193.02L124.939 191.931L125.29 195.531C127.228 194.387 128.837 194.052 130.117 194.526C131.398 195 132.237 196.137 132.634 197.937L130.073 199.769C129.832 198.823 129.31 198.154 128.507 197.762C127.727 197.353 126.737 197.457 125.538 198.073L126.64 209.382C128.186 208.789 129.459 208.423 130.458 208.283C131.477 208.098 132.361 208.311 133.112 208.922C133.863 209.533 134.328 210.757 134.507 212.592ZM119.914 207.621C120.068 209.203 120.577 210.122 121.441 210.38C122.326 210.593 123.533 210.44 125.063 209.92L124.002 199.035C122.626 200.109 121.554 201.404 120.788 202.918C120.046 204.416 119.754 205.984 119.914 207.621ZM127.997 223.318C129.463 222.149 130.551 220.767 131.259 219.173C131.965 217.55 132.244 215.977 132.096 214.452C131.939 212.842 131.417 211.917 130.529 211.676C129.665 211.418 128.455 211.543 126.9 212.051L127.997 223.318Z" fill="#3F4552"/>
<path d="M137.355 254.649L136.941 250.395L156.986 193.999L162.43 190.106L166.199 228.789L173.218 223.771L173.695 228.667L166.676 233.685L168.005 247.329L163.479 250.565L162.15 236.921L137.355 254.649ZM158.703 199.381L142.191 245.955L161.87 231.885L158.703 199.381ZM185.553 218.386C186.373 221.519 187.726 223.413 189.614 224.066C191.502 224.72 193.933 223.983 196.907 221.857C201.017 218.918 203.866 214.792 205.453 209.479C207.079 204.082 207.362 196.898 206.301 187.927C205.756 191.464 204.387 194.932 202.192 198.333C200.036 201.649 197.45 204.385 194.432 206.543C189.841 209.826 185.981 210.782 182.854 209.412C179.771 208.011 177.937 204.315 177.353 198.322C177.004 194.738 177.257 191.094 178.113 187.392C178.968 183.69 180.474 180.181 182.63 176.865C184.786 173.549 187.548 170.688 190.915 168.28C197.125 163.84 201.696 163.233 204.63 166.458C207.558 169.629 209.473 175.843 210.375 185.099C211.35 195.105 210.858 203.498 208.899 210.278C206.984 217.027 203.075 222.512 197.171 226.733C192.842 229.828 189.337 230.818 186.655 229.702C183.969 228.532 182.18 225.776 181.289 221.434L185.553 218.386ZM194.685 201.211C196.74 199.742 198.571 197.889 200.177 195.653C201.822 193.332 203.07 190.78 203.922 187.997C204.773 185.213 205.061 182.404 204.784 179.568C204.357 175.18 202.978 172.304 200.646 170.937C198.358 169.54 195.312 170.201 191.507 172.922C188.14 175.329 185.554 178.552 183.749 182.589C181.988 186.596 181.316 190.739 181.733 195.02C182.17 199.514 183.52 202.326 185.782 203.456C188.044 204.586 191.011 203.838 194.685 201.211Z" fill="#3F4552"/>
<path d="M103.882 269.784C103.882 269.784 100.986 272.266 103.814 269.602C104.615 268.867 105.756 267.765 107.528 266.111C105.535 268.131 104.223 269.417 103.882 269.784Z" fill="#32D989"/>
<g opacity="0.7" clip-path="url(#clip1_895_29)">
<path d="M268.028 112.942C267.599 113.274 266.839 113.829 265.885 114.602C266.977 113.822 267.876 113.259 268.057 113.354C268.057 113.354 269.688 111.823 268.028 112.942Z" fill="#71FFBB"/>
<path d="M243.727 125.348C246.215 123.153 248.565 120.966 250.956 118.879C253.347 116.793 255.642 114.815 257.937 112.836C260.231 110.858 262.374 109.198 264.476 107.437C266.577 105.675 268.485 104.13 270.296 102.694C273.918 99.8207 276.919 97.4964 279.062 95.8361C281.205 94.1759 282.436 93.3893 282.436 93.3893C281.302 94.0676 278.314 96.0811 274.028 99.4016C271.885 101.062 269.506 102.837 266.741 105.046C264.018 107.357 261.018 109.681 257.866 112.323C245.162 123 229.338 137.766 214.223 153.218C199.054 168.881 184.551 185.129 173.987 197.558C168.657 203.827 164.335 209.113 161.325 212.782C158.315 216.451 156.562 218.712 156.562 218.712C149.024 228.195 142.759 236.992 138.399 243.211C136.22 246.838 134.551 249.301 133.323 251.121C132.192 252.833 131.502 253.902 131.502 253.902C118.505 272.762 111.831 283.648 108.176 289.521C104.563 295.495 104.151 296.55 104.151 296.55L105.405 298.554L107.693 298.954L110.013 300.8C112.518 303.774 111.857 300.809 111.857 300.809C120.307 286.007 129.23 272.008 137.88 259.056C146.53 246.105 155.044 234.194 163.243 223.23C171.442 212.266 179.366 202.349 186.74 193.495C194.113 184.641 201.171 176.733 207.497 169.793C220.289 155.907 230.611 145.972 237.701 139.51C239.47 137.972 241.101 136.441 242.442 135.235C243.782 134.03 244.93 133.041 245.884 132.268C247.75 130.622 248.704 129.85 248.704 129.85C258.004 121.207 263.161 116.912 265.884 114.602C264.224 115.72 262.039 117.279 259.758 118.947C255.997 121.827 252.332 124.599 252.332 124.599L257.669 120.397C260.683 117.762 263.834 115.12 266.89 112.586L261.04 116.917C262.671 115.386 266.583 112.188 270.109 109.423C273.677 106.76 276.774 104.327 276.774 104.327C274.795 105.359 269.194 109.263 261.949 115.009C260.138 116.446 258.23 117.991 256.322 119.536C254.318 121.189 252.313 122.842 250.212 124.603C246.051 128.228 241.752 131.859 237.537 135.693C233.321 139.527 229.148 143.462 225.361 146.963C221.52 150.675 218.01 154.162 214.984 157.108C212 160.155 209.499 162.661 207.813 164.401C206.128 166.142 205.161 167.225 205.161 167.225C205.754 166.264 207.356 164.321 209.579 161.83C211.071 160.306 213.144 158.133 215.741 155.519C216.653 154.645 217.523 153.67 218.532 152.688C220.453 150.832 222.718 148.442 224.971 146.363C225.98 145.381 227.085 144.291 228.191 143.2C230.733 140.796 233.331 138.182 236.012 135.771C242.397 129.655 249.667 123.287 258.984 115.368C261.804 112.949 264.376 110.957 266.712 109.08C267.334 108.531 267.901 108.192 268.523 107.643C271.289 105.434 273.474 103.875 275.091 102.656C273.474 103.875 271.192 105.543 268.523 107.643C267.998 108.084 267.376 108.632 266.712 109.08C264.376 110.957 261.749 113.159 258.984 115.368C249.667 123.287 242.438 129.756 236.012 135.771C233.331 138.182 230.733 140.796 228.191 143.2C227.085 144.291 226.076 145.273 224.971 146.363C222.664 148.652 220.453 150.832 218.532 152.688C217.523 153.67 216.611 154.544 215.741 155.519C213.476 157.909 211.458 159.873 210.008 161.498C217.162 153.482 230.646 139.56 244.15 127.394C253.161 119.077 262.229 111.583 268.907 106.176C272.336 103.52 275.101 101.311 277.051 99.8675C278.005 99.0951 278.765 98.5393 279.333 98.2002C279.858 97.7598 280.093 97.6444 280.093 97.6444C279.387 97.9906 277.589 99.1163 274.975 101.007C272.362 102.898 269.084 105.237 265.268 108.327C263.361 109.871 261.314 111.423 259.213 113.185C257.112 114.946 254.914 116.816 252.577 118.693C250.241 120.57 247.988 122.649 245.693 124.627C243.399 126.606 241.007 128.692 238.658 130.88C229.273 139.32 220.333 148.151 213.604 154.801C210.33 158.173 207.539 161.003 205.564 163.069C203.685 165.026 202.621 166.217 202.621 166.217C204.816 163.314 224.197 142.784 243.727 125.348Z" fill="#71FFBB"/>
<path d="M263.406 106.561C262.881 107.002 262.356 107.442 261.83 107.882C260.545 108.879 259.301 109.976 258.153 110.965C256.909 112.062 255.762 113.051 254.808 113.824L253.993 114.589C251.601 116.676 250.164 117.99 250.164 117.99C247.537 120.192 240.931 126.112 232.916 133.758C223.602 142.711 213.447 153.052 204.233 162.93C201.014 166.093 187.933 180.305 176.195 194.344C173.53 197.479 170.617 201.039 167.607 204.708C167.22 205.141 166.875 205.676 166.489 206.109C166.005 206.651 165.757 207.077 165.66 207.185C165.564 207.294 165.564 207.294 165.467 207.402C165.274 207.619 165.08 207.835 164.887 208.052C163.189 210.103 161.684 211.937 160.317 213.765C158.274 216.35 156.479 218.51 155.306 220.12C154.091 221.63 153.456 222.489 153.456 222.489C149.176 227.877 143.807 235.078 137.984 243.233C132.45 251.063 126.614 259.529 121.248 267.763C114.999 277.284 110.31 284.76 108.035 288.495C106.408 291.059 105.07 293.299 104.174 294.895C103.249 296.08 102.753 296.932 102.753 296.932C102.753 296.932 103.249 296.08 104.09 294.693C104.78 293.624 105.924 291.601 107.896 288.502C110.71 284.016 115.441 276.641 121.732 267.222C135.099 247.206 151.081 225.299 165.535 206.882C165.921 206.448 166.211 206.123 166.556 205.589C170.34 201.053 186.453 181.518 203.956 162.945C213.17 153.066 223.518 142.509 232.874 133.657C240.889 126.011 247.399 120.199 250.122 117.888C250.122 117.888 251.559 116.574 253.951 114.488L254.766 113.723C255.817 112.842 256.867 111.961 258.111 110.864C259.259 109.875 260.545 108.879 261.788 107.781C262.356 107.442 262.881 107.002 263.406 106.561C270.471 100.721 279.846 93.6256 287.384 88.5882C279.942 93.5172 270.567 100.613 263.406 106.561ZM121.773 267.323C115.483 276.742 110.752 284.117 107.938 288.603C106.063 291.594 104.78 293.624 104.132 294.794C103.981 295.112 103.788 295.329 103.733 295.538C103.884 295.22 104.078 295.004 104.229 294.686C105.222 292.981 106.559 290.742 108.09 288.285C110.365 284.551 115.012 276.973 121.303 267.554C126.765 259.211 132.505 250.853 138.038 243.024C143.862 234.869 149.231 227.668 153.511 222.28C153.511 222.28 154.146 221.42 155.361 219.911C156.576 218.401 158.232 216.249 160.372 213.555C161.684 211.937 163.189 210.103 164.694 208.269C150.584 226.151 134.893 247.733 121.773 267.323ZM170.382 201.155C172.467 198.67 174.359 196.402 176.25 194.135C187.546 180.738 200.198 166.858 203.901 163.154C190.06 177.922 177.024 193.268 170.382 201.155Z" fill="#71FFBB"/>
<path d="M255.801 125.455C253.796 127.108 251.405 129.195 248.82 131.498C242.794 136.768 234.695 144.212 225.478 153.057C217.74 160.689 209.657 168.856 203.579 175.37C201.604 177.435 199.863 179.385 198.468 180.8C197.791 181.558 197.114 182.317 196.589 182.757L193.882 185.79L196.534 182.967C197.114 182.317 197.694 181.667 198.413 181.01C199.767 179.493 201.549 177.645 203.524 175.579C209.699 168.957 217.685 160.899 225.423 153.267C234.64 144.422 242.697 136.877 248.765 131.708C251.501 129.087 253.935 127.101 255.801 125.455C256.326 125.015 256.851 124.575 257.377 124.134C259.81 122.149 261.289 120.936 261.953 120.489C261.289 120.936 259.81 122.149 257.377 124.134C256.948 124.466 256.423 124.907 255.801 125.455Z" fill="#71FFBB"/>
</g>
<defs>
<filter id="filter0_ddd_895_29" x="0.398438" y="229.131" width="437.275" height="338.626" filterUnits="userSpaceOnUse" color-interpolation-filters="sRGB">
<feFlood flood-opacity="0" result="BackgroundImageFix"/>
<feColorMatrix in="SourceAlpha" type="matrix" values="0 0 0 0 0 0 0 0 0 0 0 0 0 0 0 0 0 0 127 0" result="hardAlpha"/>
<feOffset dy="15.8955"/>
<feColorMatrix type="matrix" values="0 0 0 0 0.74902 0 0 0 0 0.8 0 0 0 0 0.882353 0 0 0 0.0372931 0"/>
<feBlend mode="normal" in2="BackgroundImageFix" result="effect1_dropShadow_895_29"/>
<feColorMatrix in="SourceAlpha" type="matrix" values="0 0 0 0 0 0 0 0 0 0 0 0 0 0 0 0 0 0 127 0" result="hardAlpha"/>
<feOffset dy="20.7957"/>
<feGaussianBlur stdDeviation="7.66358"/>
<feColorMatrix type="matrix" values="0 0 0 0 0.74902 0 0 0 0 0.8 0 0 0 0 0.882353 0 0 0 0.177553 0"/>
<feBlend mode="normal" in2="effect1_dropShadow_895_29" result="effect2_dropShadow_895_29"/>
<feColorMatrix in="SourceAlpha" type="matrix" values="0 0 0 0 0 0 0 0 0 0 0 0 0 0 0 0 0 0 127 0" result="hardAlpha"/>
<feOffset dy="38"/>
<feGaussianBlur stdDeviation="28"/>
<feColorMatrix type="matrix" values="0 0 0 0 0.74902 0 0 0 0 0.8 0 0 0 0 0.882353 0 0 0 0.39 0"/>
<feBlend mode="normal" in2="effect2_dropShadow_895_29" result="effect3_dropShadow_895_29"/>
<feBlend mode="normal" in="SourceGraphic" in2="effect3_dropShadow_895_29" result="shape"/>
</filter>
<linearGradient id="paint0_linear_895_29" x1="177.221" y1="210.955" x2="56.2039" y2="53.3481" gradientUnits="userSpaceOnUse">
<stop stop-color="#F9FAFC"/>
<stop offset="0.909896" stop-color="#F9F9FC"/>
<stop offset="0.9375" stop-color="#E7ECF1"/>
<stop offset="0.989583" stop-color="#DAE3ED"/>
</linearGradient>
<linearGradient id="paint1_linear_895_29" x1="285.559" y1="157.033" x2="103.267" y2="299.532" gradientUnits="userSpaceOnUse">
<stop stop-color="#F4F6F8"/>
<stop offset="0.40625" stop-color="#FAFBFC"/>
<stop offset="1" stop-color="white"/>
</linearGradient>
<linearGradient id="paint2_linear_895_29" x1="320.649" y1="180.086" x2="218.112" y2="152.976" gradientUnits="userSpaceOnUse">
<stop stop-color="white"/>
<stop offset="1" stop-color="white" stop-opacity="0"/>
</linearGradient>
<clipPath id="clip0_895_29">
<rect width="210" height="27" fill="white" transform="translate(129.49 369.692) rotate(1.13813)"/>
</clipPath>
<clipPath id="clip1_895_29">
<rect width="246.185" height="31.3841" fill="white" transform="matrix(0.751668 -0.842177 0.325757 0.787157 96.8457 282.656)"/>
</clipPath>
</defs>
</svg>
