<svg width="48" height="48" viewBox="0 0 48 48" fill="none" xmlns="http://www.w3.org/2000/svg">
<path fill-rule="evenodd" clip-rule="evenodd" d="M31.7406 3.03299L11.1844 18.9999H7.92407L30.5137 1.4535C32.2584 0.0983444 34.7713 0.4141 36.1264 2.15876L46.3969 15.3812C47.752 17.1259 47.4363 19.6388 45.6916 20.9939L43 23.0846V26V32V42C43 44.2091 41.2091 46 39 46H6C3.79086 46 2 44.2091 2 42V32V26V23C2 20.7909 3.79086 19 6 19H39C40.4714 19 41.7573 19.7945 42.452 20.9779L44.4648 19.4144C45.3371 18.7369 45.495 17.4804 44.8174 16.6081L34.5469 3.38563C33.8694 2.5133 32.6129 2.35542 31.7406 3.03299ZM39 21H6C4.89543 21 4 21.8954 4 23V26H41V23C41 21.8954 40.1046 21 39 21ZM4 30V28H41V30H4ZM4 32H41V42C41 43.1046 40.1046 44 39 44H6C4.89543 44 4 43.1046 4 42V32Z" fill="#32D989"/>
<path fill-rule="evenodd" clip-rule="evenodd" d="M32 38C32 38.5523 31.5523 39 31 39C30.4477 39 30 38.5523 30 38C30 37.4477 30.4477 37 31 37C31.5523 37 32 37.4477 32 38ZM33 35.7639C32.4692 35.2889 31.7684 35 31 35C29.3431 35 28 36.3431 28 38C28 39.6569 29.3431 41 31 41C31.7684 41 32.4692 40.7111 33 40.2361C33.5308 40.7111 34.2316 41 35 41C36.6569 41 38 39.6569 38 38C38 36.3431 36.6569 35 35 35C34.2316 35 33.5308 35.2889 33 35.7639ZM34 38C34 38.5523 34.4477 39 35 39C35.5523 39 36 38.5523 36 38C36 37.4477 35.5523 37 35 37C34.4477 37 34 37.4477 34 38Z" fill="#32D989"/>
</svg>
