<svg width="491" height="457" viewBox="0 0 491 457" fill="none" xmlns="http://www.w3.org/2000/svg">
<g filter="url(#filter0_ddd_895_30)">
<rect x="137" y="18" width="298" height="158" rx="8" fill="url(#paint0_linear_895_30)"/>
</g>
<path d="M237.231 63.224H243.087V65H235.047V48.272H237.231V63.224ZM257.071 51.848V65H254.887V63.056C254.471 63.728 253.887 64.256 253.135 64.64C252.399 65.008 251.583 65.192 250.687 65.192C249.663 65.192 248.743 64.984 247.927 64.568C247.111 64.136 246.463 63.496 245.983 62.648C245.519 61.8 245.287 60.768 245.287 59.552V51.848H247.447V59.264C247.447 60.56 247.775 61.56 248.431 62.264C249.087 62.952 249.983 63.296 251.119 63.296C252.287 63.296 253.207 62.936 253.879 62.216C254.551 61.496 254.887 60.448 254.887 59.072V51.848H257.071ZM262.942 54.296C263.39 53.512 264.046 52.872 264.91 52.376C265.774 51.88 266.758 51.632 267.862 51.632C269.046 51.632 270.11 51.912 271.054 52.472C271.998 53.032 272.742 53.824 273.286 54.848C273.83 55.856 274.102 57.032 274.102 58.376C274.102 59.704 273.83 60.888 273.286 61.928C272.742 62.968 271.99 63.776 271.03 64.352C270.086 64.928 269.03 65.216 267.862 65.216C266.726 65.216 265.726 64.968 264.862 64.472C264.014 63.976 263.374 63.344 262.942 62.576V65H260.758V47.24H262.942V54.296ZM271.87 58.376C271.87 57.384 271.67 56.52 271.27 55.784C270.87 55.048 270.326 54.488 269.638 54.104C268.966 53.72 268.222 53.528 267.406 53.528C266.606 53.528 265.862 53.728 265.174 54.128C264.502 54.512 263.958 55.08 263.542 55.832C263.142 56.568 262.942 57.424 262.942 58.4C262.942 59.392 263.142 60.264 263.542 61.016C263.958 61.752 264.502 62.32 265.174 62.72C265.862 63.104 266.606 63.296 267.406 63.296C268.222 63.296 268.966 63.104 269.638 62.72C270.326 62.32 270.87 61.752 271.27 61.016C271.67 60.264 271.87 59.384 271.87 58.376ZM288.977 57.92C288.977 58.336 288.953 58.776 288.905 59.24H278.393C278.473 60.536 278.913 61.552 279.713 62.288C280.529 63.008 281.513 63.368 282.665 63.368C283.609 63.368 284.393 63.152 285.017 62.72C285.657 62.272 286.105 61.68 286.361 60.944H288.713C288.361 62.208 287.657 63.24 286.601 64.04C285.545 64.824 284.233 65.216 282.665 65.216C281.417 65.216 280.297 64.936 279.305 64.376C278.329 63.816 277.561 63.024 277.001 62C276.441 60.96 276.161 59.76 276.161 58.4C276.161 57.04 276.433 55.848 276.977 54.824C277.521 53.8 278.281 53.016 279.257 52.472C280.249 51.912 281.385 51.632 282.665 51.632C283.913 51.632 285.017 51.904 285.977 52.448C286.937 52.992 287.673 53.744 288.185 54.704C288.713 55.648 288.977 56.72 288.977 57.92ZM286.721 57.464C286.721 56.632 286.537 55.92 286.169 55.328C285.801 54.72 285.297 54.264 284.657 53.96C284.033 53.64 283.337 53.48 282.569 53.48C281.465 53.48 280.521 53.832 279.737 54.536C278.969 55.24 278.529 56.216 278.417 57.464H286.721ZM298.268 51.608C299.868 51.608 301.164 52.096 302.156 53.072C303.148 54.032 303.644 55.424 303.644 57.248V65H301.484V57.56C301.484 56.248 301.156 55.248 300.5 54.56C299.844 53.856 298.948 53.504 297.812 53.504C296.66 53.504 295.74 53.864 295.052 54.584C294.38 55.304 294.044 56.352 294.044 57.728V65H291.86V51.848H294.044V53.72C294.476 53.048 295.06 52.528 295.796 52.16C296.548 51.792 297.372 51.608 298.268 51.608ZM306.395 58.376C306.395 57.032 306.667 55.856 307.211 54.848C307.755 53.824 308.499 53.032 309.443 52.472C310.403 51.912 311.475 51.632 312.659 51.632C313.683 51.632 314.635 51.872 315.515 52.352C316.395 52.816 317.067 53.432 317.531 54.2V47.24H319.739V65H317.531V62.528C317.099 63.312 316.459 63.96 315.611 64.472C314.763 64.968 313.771 65.216 312.635 65.216C311.467 65.216 310.403 64.928 309.443 64.352C308.499 63.776 307.755 62.968 307.211 61.928C306.667 60.888 306.395 59.704 306.395 58.376ZM317.531 58.4C317.531 57.408 317.331 56.544 316.931 55.808C316.531 55.072 315.987 54.512 315.299 54.128C314.627 53.728 313.883 53.528 313.067 53.528C312.251 53.528 311.507 53.72 310.835 54.104C310.163 54.488 309.627 55.048 309.227 55.784C308.827 56.52 308.627 57.384 308.627 58.376C308.627 59.384 308.827 60.264 309.227 61.016C309.627 61.752 310.163 62.32 310.835 62.72C311.507 63.104 312.251 63.296 313.067 63.296C313.883 63.296 314.627 63.104 315.299 62.72C315.987 62.32 316.531 61.752 316.931 61.016C317.331 60.264 317.531 59.392 317.531 58.4ZM322.614 58.376C322.614 57.032 322.886 55.856 323.43 54.848C323.974 53.824 324.718 53.032 325.662 52.472C326.622 51.912 327.686 51.632 328.854 51.632C330.006 51.632 331.006 51.88 331.854 52.376C332.702 52.872 333.334 53.496 333.75 54.248V51.848H335.958V65H333.75V62.552C333.318 63.32 332.67 63.96 331.806 64.472C330.958 64.968 329.966 65.216 328.83 65.216C327.662 65.216 326.606 64.928 325.662 64.352C324.718 63.776 323.974 62.968 323.43 61.928C322.886 60.888 322.614 59.704 322.614 58.376ZM333.75 58.4C333.75 57.408 333.55 56.544 333.15 55.808C332.75 55.072 332.206 54.512 331.518 54.128C330.846 53.728 330.102 53.528 329.286 53.528C328.47 53.528 327.726 53.72 327.054 54.104C326.382 54.488 325.846 55.048 325.446 55.784C325.046 56.52 324.846 57.384 324.846 58.376C324.846 59.384 325.046 60.264 325.446 61.016C325.846 61.752 326.382 62.32 327.054 62.72C327.726 63.104 328.47 63.296 329.286 63.296C330.102 63.296 330.846 63.104 331.518 62.72C332.206 62.32 332.75 61.752 333.15 61.016C333.55 60.264 333.75 59.392 333.75 58.4Z" fill="#8770FF"/>
<path d="M310.447 117.41L305.515 137.426H303.895L308.809 117.41H310.447ZM324.75 124.322C325.518 124.322 326.202 124.484 326.802 124.808C327.402 125.12 327.876 125.594 328.224 126.23C328.572 126.866 328.746 127.64 328.746 128.552V134.366H327.126V128.786C327.126 127.802 326.88 127.052 326.388 126.536C325.908 126.008 325.254 125.744 324.426 125.744C323.574 125.744 322.896 126.02 322.392 126.572C321.888 127.112 321.636 127.898 321.636 128.93V134.366H320.016V128.786C320.016 127.802 319.77 127.052 319.278 126.536C318.798 126.008 318.144 125.744 317.316 125.744C316.464 125.744 315.786 126.02 315.282 126.572C314.778 127.112 314.526 127.898 314.526 128.93V134.366H312.888V124.502H314.526V125.924C314.85 125.408 315.282 125.012 315.822 124.736C316.374 124.46 316.98 124.322 317.64 124.322C318.468 124.322 319.2 124.508 319.836 124.88C320.472 125.252 320.946 125.798 321.258 126.518C321.534 125.822 321.99 125.282 322.626 124.898C323.262 124.514 323.97 124.322 324.75 124.322ZM335.735 134.528C334.811 134.528 333.971 134.318 333.215 133.898C332.471 133.478 331.883 132.884 331.451 132.116C331.031 131.336 330.821 130.436 330.821 129.416C330.821 128.408 331.037 127.52 331.469 126.752C331.913 125.972 332.513 125.378 333.269 124.97C334.025 124.55 334.871 124.34 335.807 124.34C336.743 124.34 337.589 124.55 338.345 124.97C339.101 125.378 339.695 125.966 340.127 126.734C340.571 127.502 340.793 128.396 340.793 129.416C340.793 130.436 340.565 131.336 340.109 132.116C339.665 132.884 339.059 133.478 338.291 133.898C337.523 134.318 336.671 134.528 335.735 134.528ZM335.735 133.088C336.323 133.088 336.875 132.95 337.391 132.674C337.907 132.398 338.321 131.984 338.633 131.432C338.957 130.88 339.119 130.208 339.119 129.416C339.119 128.624 338.963 127.952 338.651 127.4C338.339 126.848 337.931 126.44 337.427 126.176C336.923 125.9 336.377 125.762 335.789 125.762C335.189 125.762 334.637 125.9 334.133 126.176C333.641 126.44 333.245 126.848 332.945 127.4C332.645 127.952 332.495 128.624 332.495 129.416C332.495 130.22 332.639 130.898 332.927 131.45C333.227 132.002 333.623 132.416 334.115 132.692C334.607 132.956 335.147 133.088 335.735 133.088ZM347.753 124.322C348.953 124.322 349.925 124.688 350.669 125.42C351.413 126.14 351.785 127.184 351.785 128.552V134.366H350.165V128.786C350.165 127.802 349.919 127.052 349.427 126.536C348.935 126.008 348.263 125.744 347.411 125.744C346.547 125.744 345.857 126.014 345.341 126.554C344.837 127.094 344.585 127.88 344.585 128.912V134.366H342.947V124.502H344.585V125.906C344.909 125.402 345.347 125.012 345.899 124.736C346.463 124.46 347.081 124.322 347.753 124.322ZM356.458 125.852V131.666C356.458 132.146 356.56 132.488 356.764 132.692C356.968 132.884 357.322 132.98 357.826 132.98H359.032V134.366H357.556C356.644 134.366 355.96 134.156 355.504 133.736C355.048 133.316 354.82 132.626 354.82 131.666V125.852H353.542V124.502H354.82V122.018H356.458V124.502H359.032V125.852H356.458ZM365.913 124.322C366.657 124.322 367.329 124.484 367.929 124.808C368.529 125.12 368.997 125.594 369.333 126.23C369.681 126.866 369.855 127.64 369.855 128.552V134.366H368.235V128.786C368.235 127.802 367.989 127.052 367.497 126.536C367.005 126.008 366.333 125.744 365.481 125.744C364.617 125.744 363.927 126.014 363.411 126.554C362.907 127.094 362.655 127.88 362.655 128.912V134.366H361.017V121.046H362.655V125.906C362.979 125.402 363.423 125.012 363.987 124.736C364.563 124.46 365.205 124.322 365.913 124.322Z" fill="#B6BFD9"/>
<path d="M247.486 103.854C247.486 105.044 247.195 106.184 246.612 107.274C246.03 108.338 245.156 109.224 243.99 109.934C242.825 110.643 241.406 111.036 239.734 111.112V114.152H238.062V111.074C235.808 110.871 233.984 110.136 232.59 108.87C231.197 107.578 230.45 105.982 230.348 104.082H233.198C233.3 105.222 233.756 106.26 234.566 107.198C235.402 108.11 236.568 108.667 238.062 108.87V98.3437C236.365 97.8877 234.997 97.4317 233.958 96.9757C232.945 96.5197 232.084 95.823 231.374 94.8857C230.665 93.923 230.31 92.6437 230.31 91.0477C230.31 89.0464 231.007 87.3997 232.4 86.1077C233.794 84.7904 235.681 84.081 238.062 83.9797V80.7877H239.734V84.0177C241.837 84.2204 243.522 84.9044 244.788 86.0697C246.055 87.235 246.802 88.6917 247.03 90.4397H244.218C244.066 89.5024 243.598 88.6284 242.812 87.8177C242.052 87.007 241.026 86.5004 239.734 86.2977V96.4437C241.381 96.8744 242.724 97.3304 243.762 97.8117C244.826 98.2677 245.713 98.977 246.422 99.9397C247.132 100.902 247.486 102.207 247.486 103.854ZM233.008 90.9337C233.008 92.3524 233.439 93.429 234.3 94.1637C235.187 94.873 236.441 95.4684 238.062 95.9497V86.1837C236.542 86.2597 235.314 86.703 234.376 87.5137C233.464 88.3244 233.008 89.4644 233.008 90.9337ZM239.734 108.946C241.356 108.844 242.61 108.338 243.496 107.426C244.383 106.488 244.826 105.336 244.826 103.968C244.826 102.524 244.383 101.434 243.496 100.7C242.635 99.965 241.381 99.3444 239.734 98.8377V108.946Z" fill="#1D212A"/>
<path d="M268.421 134.215C268.949 137.335 270.149 139.735 272.021 141.415C273.893 143.095 276.461 143.935 279.725 143.935C284.237 143.935 287.573 142.183 289.733 138.679C291.941 135.127 292.949 129.271 292.757 121.111C291.845 123.751 290.093 125.839 287.501 127.375C284.957 128.863 282.029 129.607 278.717 129.607C273.677 129.607 269.621 128.095 266.549 125.071C263.525 122.047 262.013 117.847 262.013 112.471C262.013 109.255 262.637 106.351 263.885 103.759C265.133 101.167 267.029 99.1268 269.573 97.6388C272.117 96.1508 275.237 95.4068 278.933 95.4068C285.749 95.4068 290.501 97.6388 293.189 102.103C295.877 106.519 297.221 112.879 297.221 121.183C297.221 130.159 295.877 136.903 293.189 141.415C290.549 145.927 285.989 148.183 279.509 148.183C274.757 148.183 271.061 146.911 268.421 144.367C265.781 141.775 264.221 138.391 263.741 134.215H268.421ZM279.509 125.287C281.765 125.287 283.829 124.831 285.701 123.919C287.621 122.959 289.157 121.567 290.309 119.743C291.461 117.919 292.037 115.735 292.037 113.191C292.037 109.255 290.909 106.015 288.653 103.471C286.445 100.927 283.253 99.6548 279.077 99.6548C275.381 99.6548 272.405 100.807 270.149 103.111C267.941 105.415 266.837 108.487 266.837 112.327C266.837 116.359 267.941 119.527 270.149 121.831C272.357 124.135 275.477 125.287 279.509 125.287Z" fill="#1D212A"/>
<g opacity="0.7" clip-path="url(#clip0_895_30)">
<path d="M370.6 125.9C370.2 125.8 369.5 125.6 368.6 125.4C369.6 125.7 370.4 126 370.5 126.2C370.5 126.2 372.1 126.4 370.6 125.9Z" fill="#32D989"/>
<path d="M349.8 115.9C352.2 116.3 354.5 116.6 356.8 117C359.1 117.4 361.3 117.8 363.5 118.2C365.7 118.6 367.7 119.1 369.7 119.5C371.7 119.9 373.5 120.3 375.2 120.7C378.6 121.5 381.4 122.2 383.4 122.7C385.4 123.2 386.5 123.6 386.5 123.6C385.5 123.2 382.8 122.3 378.8 121.3C376.8 120.8 374.6 120.2 372 119.6C369.4 119.1 366.6 118.4 363.6 117.8C351.5 115.4 336 113.4 320.8 112.4C305.5 111.5 290.5 111.5 279.4 111.9C273.8 112.1 269.2 112.4 266 112.6C262.8 112.8 260.9 113 260.9 113C252.8 113.7 245.8 114.9 240.9 115.8C238.3 116.6 236.4 117 235 117.3C233.7 117.6 232.9 117.8 232.9 117.8C218.2 120.7 210.3 123 206 124.2C201.7 125.5 201.1 125.9 201.1 125.9L201.4 128.2L202.9 130.2L204 133.2C204.9 137.1 205.3 134.6 205.3 134.6C215.6 131 226 128.3 235.9 126.1C245.8 123.9 255.3 122.3 264.3 121.1C273.3 119.9 281.8 119.2 289.6 118.8C297.4 118.4 304.7 118.4 311.2 118.5C324.3 118.8 334.5 119.9 341.4 120.9C343.1 121.2 344.7 121.4 346 121.6C347.3 121.8 348.4 122 349.3 122.2C351.1 122.5 352 122.7 352 122.7C361.1 123.9 366 124.9 368.6 125.4C367.1 124.9 365.1 124.3 363 123.7C359.5 122.8 356.1 121.9 356.1 121.9L361.1 123.1C364 123.6 367 124.2 369.9 124.8L364.5 123.3C366.1 123.5 369.8 124.3 373.1 125.1C376.4 126 379.3 126.7 379.3 126.7C377.6 125.9 372.5 124.3 365.7 122.7C364 122.3 362.2 121.9 360.4 121.5C358.5 121.1 356.6 120.7 354.6 120.3C350.6 119.6 346.5 118.8 342.4 118.2C338.3 117.6 334.2 117.1 330.5 116.6C326.7 116.2 323.2 115.9 320.2 115.6C317.2 115.4 314.7 115.2 313 115.1C311.3 115 310.3 115 310.3 115C311 114.8 312.7 114.7 315 114.7C316.5 114.8 318.6 114.9 321.2 115.1C322.1 115.2 323 115.2 324 115.3C325.9 115.5 328.2 115.6 330.4 115.9C331.4 116 332.5 116.1 333.6 116.2C336.1 116.5 338.7 116.7 341.3 117.1C347.6 117.8 354.6 119 363.5 120.7C366.2 121.2 368.6 121.8 370.8 122.3C371.4 122.4 371.9 122.6 372.5 122.7C375.1 123.3 377.1 123.9 378.6 124.3C377.1 123.9 375 123.3 372.5 122.7C372 122.6 371.4 122.5 370.8 122.3C368.6 121.8 366.1 121.3 363.5 120.7C354.6 119 347.6 117.9 341.3 117.1C338.7 116.7 336.1 116.5 333.6 116.2C332.5 116.1 331.5 116 330.4 115.9C328.1 115.7 325.9 115.5 324 115.3C323 115.2 322.1 115.1 321.2 115.1C318.9 115 316.9 114.8 315.4 114.8C322.8 114.8 336.4 115.6 349.5 117.6C358.3 118.8 366.9 120.6 373.2 122C376.4 122.8 379 123.4 380.8 123.9C381.7 124.1 382.4 124.3 382.9 124.5C383.4 124.6 383.6 124.7 383.6 124.7C383 124.4 381.4 123.8 379 123.1C376.6 122.4 373.6 121.5 370 120.7C368.2 120.3 366.3 119.8 364.3 119.4C362.3 119 360.2 118.6 358 118.1C355.8 117.6 353.6 117.3 351.4 116.9C349.2 116.5 346.9 116.1 344.6 115.8C335.5 114.4 326.6 113.6 319.9 113C316.6 112.8 313.8 112.6 311.8 112.5C309.9 112.4 308.8 112.4 308.8 112.4C311.2 112.1 330.9 112.9 349.8 115.9Z" fill="#32D989"/>
<path d="M369.2 118.1C368.7 118 368.2 117.9 367.7 117.8C366.5 117.5 365.3 117.3 364.2 117.1C363 116.9 361.9 116.7 361 116.5L360.2 116.4C357.9 116 356.5 115.8 356.5 115.8C354 115.3 347.6 114.3 339.7 113.4C330.5 112.4 320.3 111.7 310.9 111.4C307.7 111.1 294.3 110.8 281.9 111.4C279.1 111.5 276 111.7 272.8 111.9C272.4 111.9 272 112 271.6 112C271.1 112 270.8 112.1 270.7 112.1C270.6 112.1 270.6 112.1 270.5 112.1C270.3 112.1 270.1 112.1 269.9 112.1C268.1 112.2 266.5 112.3 265 112.5C262.8 112.7 260.9 112.8 259.6 113C258.3 113.1 257.6 113.2 257.6 113.2C253 113.6 247.1 114.4 240.6 115.5C234.4 116.6 227.8 117.9 221.6 119.4C214.4 121.1 208.9 122.6 206.2 123.4C204.3 123.9 202.7 124.4 201.6 124.8C200.6 124.9 200 125.1 200 125.1C200 125.1 200.6 124.9 201.6 124.6C202.4 124.4 203.8 123.9 206.1 123.3C209.4 122.4 214.9 121 222.1 119.4C237.4 116 255.1 113.3 270.7 111.8C271.1 111.8 271.4 111.8 271.8 111.7C275.8 111.5 292.9 110.5 310.7 111.2C320.1 111.5 330.5 112.2 339.7 113.3C347.6 114.2 353.9 115.2 356.5 115.7C356.5 115.7 357.9 115.9 360.2 116.3L361 116.4C362 116.6 363 116.8 364.2 117C365.3 117.2 366.5 117.5 367.7 117.7C368.2 117.9 368.7 118 369.2 118.1C375.9 119.5 384.6 121.8 391.4 124.1C384.7 121.8 376 119.5 369.2 118.1ZM222.1 119.5C214.9 121.1 209.4 122.5 206.1 123.4C203.9 124 202.4 124.4 201.6 124.7C201.4 124.8 201.2 124.8 201.1 124.9C201.3 124.8 201.5 124.8 201.7 124.7C202.9 124.3 204.5 123.8 206.3 123.3C209 122.5 214.5 120.9 221.7 119.3C228 117.8 234.5 116.5 240.7 115.4C247.2 114.3 253.1 113.5 257.7 113.1C257.7 113.1 258.4 113 259.7 112.9C261 112.8 262.8 112.6 265.1 112.4C266.5 112.3 268.1 112.2 269.7 112.1C254.5 113.5 237.1 116.2 222.1 119.5ZM275.8 111.6C278 111.5 280 111.4 282 111.3C293.9 110.8 306.9 111 310.6 111.3C296.5 110.8 282.8 111.3 275.8 111.6Z" fill="#32D989"/>
<path d="M358.3 125.1C356.4 124.7 354.1 124.3 351.6 123.9C345.8 122.9 337.9 121.8 328.8 120.8C321.1 120.1 313 119.5 306.8 119.3C304.8 119.2 303 119.2 301.6 119.1C300.9 119.1 300.2 119.1 299.7 119H296.9L299.6 119.1C300.2 119.1 300.8 119.1 301.5 119.2C302.9 119.2 304.7 119.3 306.7 119.4C313 119.6 321 120.2 328.7 120.9C337.8 121.9 345.7 122.9 351.5 124C354.2 124.3 356.5 124.8 358.3 125.1C358.8 125.2 359.3 125.3 359.8 125.4C362.1 125.9 363.5 126.2 364.1 126.4C363.5 126.2 362.1 125.9 359.8 125.4C359.4 125.3 358.9 125.2 358.3 125.1Z" fill="#32D989"/>
</g>
<path d="M9.33337 387.268C4.17869 385.604 3.25707 381.311 7.27486 377.679L263.714 145.836C267.731 142.204 275.167 140.607 280.322 142.271L445.989 195.728C451.144 197.391 452.066 201.684 448.048 205.316L191.609 437.159C187.591 440.792 180.155 442.388 175.001 440.725L9.33337 387.268Z" fill="#F9FAFC"/>
<path fill-rule="evenodd" clip-rule="evenodd" d="M269.424 147.679L12.985 379.522C11.4252 380.932 11.783 382.598 13.7841 383.244L179.451 436.701C181.452 437.347 184.339 436.727 185.899 435.317L442.338 203.474C443.897 202.064 443.54 200.397 441.539 199.751L275.871 146.294C273.87 145.649 270.984 146.268 269.424 147.679ZM7.27486 377.679C3.25707 381.311 4.17869 385.604 9.33337 387.268L175.001 440.725C180.155 442.388 187.591 440.792 191.609 437.159L448.048 205.316C452.066 201.684 451.144 197.391 445.989 195.728L280.322 142.271C275.167 140.607 267.731 142.204 263.714 145.836L7.27486 377.679Z" fill="url(#paint1_linear_895_30)"/>
<path d="M103.238 334.018L118.346 344.301L116.12 346.314L96.876 344.441L108.918 352.825L106.741 354.827L82.9414 352.368L85.0584 350.454L104.924 352.795L92.0422 344.14L94.2683 342.127L114.252 344.292L101.099 335.952L103.238 334.018ZM127.58 325.819C128.065 325.976 128.557 326.161 129.054 326.375L119.495 335.018C121.08 335.44 122.666 335.461 124.252 335.08C125.834 334.68 127.149 334.007 128.196 333.06C129.055 332.283 129.515 331.558 129.579 330.882C129.638 330.187 129.355 329.596 128.729 329.108L130.868 327.175C132.022 327.94 132.586 328.907 132.559 330.077C132.514 331.24 131.778 332.466 130.352 333.755C129.217 334.781 127.872 335.597 126.317 336.201C124.776 336.793 123.153 337.126 121.45 337.201C119.727 337.27 118.072 337.048 116.486 336.537C114.899 336.025 113.756 335.352 113.056 334.519C112.356 333.687 112.132 332.767 112.385 331.76C112.634 330.733 113.34 329.694 114.504 328.641C115.639 327.615 116.96 326.81 118.468 326.226C119.975 325.641 121.522 325.319 123.108 325.26C124.689 325.181 126.18 325.368 127.58 325.819ZM124.996 327.502C124.026 327.189 123.028 327.072 122.002 327.152C120.958 327.226 119.968 327.468 119.032 327.88C118.091 328.273 117.271 328.785 116.573 329.416C115.569 330.324 115.121 331.232 115.229 332.142C115.352 333.038 116.091 333.768 117.445 334.329L124.996 327.502ZM127.959 320.289C127.452 319.626 127.302 318.846 127.509 317.949C127.716 317.052 128.322 316.149 129.325 315.242C130.402 314.268 131.696 313.499 133.208 312.934C134.72 312.368 136.32 312.055 138.01 311.993C139.681 311.925 141.3 312.144 142.868 312.65C144.417 313.15 145.551 313.82 146.27 314.658C146.989 315.497 147.247 316.419 147.046 317.426C146.86 318.419 146.236 319.395 145.174 320.355C144.14 321.289 142.942 322.018 141.577 322.542C140.228 323.052 138.908 323.34 137.619 323.406L140.447 324.319L138.461 326.115L117.741 319.429L119.727 317.633L127.959 320.289ZM140.838 314.485C139.681 314.112 138.491 313.951 137.269 314.003C136.046 314.055 134.898 314.291 133.825 314.712C132.765 315.12 131.865 315.659 131.123 316.33C130.395 316.988 129.952 317.675 129.793 318.391C129.63 319.088 129.798 319.749 130.297 320.374C130.792 320.98 131.609 321.467 132.747 321.834C133.905 322.208 135.104 322.372 136.345 322.326C137.582 322.261 138.739 322.028 139.817 321.626C140.891 321.205 141.791 320.665 142.519 320.007C143.261 319.337 143.713 318.653 143.877 317.956C144.035 317.239 143.868 316.578 143.373 315.972C142.859 315.36 142.014 314.865 140.838 314.485ZM157.696 309.034C156.779 309.863 155.761 310.543 154.642 311.074C153.504 311.599 152.369 311.938 151.238 312.09C150.088 312.237 149.024 312.179 148.047 311.918L150.099 310.063C150.922 310.257 151.824 310.209 152.804 309.919C153.799 309.615 154.703 309.095 155.518 308.358C156.275 307.674 156.657 307.065 156.664 306.532C156.671 305.999 156.348 305.627 155.695 305.416C155.023 305.199 154.295 305.25 153.512 305.569C152.711 305.881 151.664 306.427 150.372 307.206C149.185 307.912 148.159 308.473 147.293 308.89C146.423 309.287 145.485 309.574 144.481 309.749C143.472 309.906 142.473 309.824 141.483 309.505C140.699 309.252 140.163 308.856 139.873 308.316C139.583 307.777 139.587 307.144 139.883 306.418C140.16 305.687 140.728 304.933 141.586 304.157C142.91 302.96 144.409 302.132 146.082 301.672C147.756 301.212 149.368 301.197 150.92 301.627L148.934 303.422C148.087 303.203 147.189 303.225 146.238 303.489C145.302 303.74 144.448 304.215 143.677 304.912C142.964 305.556 142.592 306.133 142.562 306.641C142.532 307.149 142.835 307.505 143.469 307.71C143.973 307.872 144.517 307.896 145.1 307.781C145.68 307.646 146.261 307.441 146.845 307.166C147.424 306.871 148.177 306.453 149.104 305.913C150.261 305.234 151.258 304.699 152.095 304.308C152.913 303.912 153.801 303.636 154.758 303.481C155.729 303.312 156.689 303.372 157.637 303.66C158.477 303.931 159.051 304.34 159.359 304.885C159.668 305.431 159.683 306.07 159.406 306.801C159.124 307.514 158.554 308.258 157.696 309.034ZM147.802 295.789C147.424 296.131 146.936 296.366 146.338 296.495C145.74 296.623 145.198 296.609 144.713 296.452C144.228 296.296 143.948 296.045 143.874 295.699C143.8 295.354 143.952 295.011 144.33 294.669C144.694 294.34 145.168 294.118 145.751 294.003C146.349 293.874 146.89 293.888 147.376 294.045C147.861 294.202 148.141 294.452 148.215 294.798C148.304 295.13 148.166 295.46 147.802 295.789ZM151.255 295.725L166.599 300.676L164.613 302.472L149.268 297.52L151.255 295.725ZM159.162 291.152L168.206 294.07C168.953 294.311 169.608 294.371 170.173 294.25C170.719 294.123 171.298 293.783 171.909 293.23L173.371 291.908L175.527 292.604L173.737 294.222C172.631 295.222 171.475 295.866 170.269 296.155C169.063 296.444 167.713 296.348 166.22 295.866L157.176 292.948L155.626 294.349L153.526 293.671L155.076 292.27L151.212 291.023L153.198 289.228L157.062 290.475L160.183 287.653L162.283 288.331L159.162 291.152ZM180.585 277.898C181.071 278.054 181.562 278.24 182.06 278.454L172.501 287.096C174.086 287.518 175.671 287.539 177.257 287.158C178.839 286.758 180.154 286.085 181.202 285.138C182.06 284.362 182.521 283.636 182.584 282.96C182.644 282.265 182.36 281.674 181.735 281.187L183.873 279.253C185.028 280.018 185.592 280.986 185.565 282.155C185.519 283.318 184.783 284.544 183.358 285.834C182.223 286.86 180.878 287.675 179.322 288.28C177.781 288.871 176.159 289.205 174.455 289.279C172.732 289.348 171.078 289.127 169.491 288.615C167.904 288.103 166.761 287.43 166.061 286.598C165.361 285.765 165.138 284.845 165.39 283.838C165.639 282.811 166.346 281.772 167.51 280.72C168.644 279.694 169.966 278.888 171.473 278.304C172.981 277.72 174.528 277.398 176.113 277.338C177.695 277.259 179.185 277.446 180.585 277.898ZM178.002 279.581C177.031 279.267 176.033 279.151 175.008 279.23C173.964 279.304 172.974 279.547 172.037 279.958C171.096 280.351 170.277 280.863 169.578 281.494C168.574 282.402 168.127 283.311 168.235 284.22C168.358 285.117 169.096 285.846 170.451 286.408L178.002 279.581ZM193.652 259.283C195.276 259.807 196.192 260.639 196.402 261.777C196.608 262.897 195.823 264.259 194.048 265.864L191.123 268.508L199.271 271.137L197.285 272.932L177.769 266.635L182.68 262.196C184.397 260.643 186.231 259.638 188.182 259.179C190.149 258.706 191.972 258.741 193.652 259.283ZM191.948 265.186C193.054 264.186 193.56 263.35 193.468 262.678C193.376 262.006 192.761 261.486 191.622 261.118C189.214 260.341 186.933 260.926 184.78 262.873L181.855 265.517L189.023 267.83L191.948 265.186ZM215.392 256.872C214.272 257.884 212.927 258.7 211.357 259.318C209.801 259.922 208.164 260.269 206.446 260.357C204.723 260.426 203.069 260.204 201.482 259.692C199.914 259.186 198.795 258.504 198.124 257.645C197.449 256.767 197.252 255.811 197.534 254.777C197.797 253.738 198.496 252.705 199.631 251.679C200.766 250.653 202.119 249.831 203.689 249.213C205.24 248.589 206.875 248.233 208.593 248.145C210.326 248.044 211.986 248.249 213.573 248.761C215.159 249.273 216.283 249.975 216.943 250.866C217.6 251.738 217.789 252.701 217.511 253.753C217.233 254.806 216.527 255.846 215.392 256.872ZM213.152 256.149C213.865 255.504 214.32 254.83 214.516 254.126C214.712 253.421 214.57 252.76 214.09 252.141C213.624 251.509 212.775 250.994 211.543 250.596C210.311 250.199 209.077 250.032 207.84 250.097C206.603 250.162 205.473 250.405 204.452 250.825C203.411 251.238 202.534 251.768 201.822 252.412C201.094 253.07 200.639 253.744 200.458 254.435C200.272 255.107 200.426 255.746 200.921 256.352C201.416 256.958 202.28 257.46 203.512 257.857C204.762 258.261 205.992 258.443 207.199 258.405C208.422 258.353 209.546 258.127 210.572 257.726C211.579 257.319 212.439 256.793 213.152 256.149ZM205.15 240.403L225.87 247.089L223.884 248.885L203.164 242.199L205.15 240.403ZM212.445 237.346C212.066 237.688 211.578 237.924 210.98 238.052C210.382 238.18 209.841 238.166 209.356 238.01C208.87 237.853 208.59 237.602 208.516 237.257C208.442 236.912 208.594 236.568 208.973 236.226C209.336 235.897 209.81 235.675 210.393 235.56C210.991 235.432 211.533 235.446 212.018 235.602C212.503 235.759 212.783 236.01 212.857 236.355C212.946 236.687 212.808 237.018 212.445 237.346ZM215.897 237.282L231.241 242.234L229.255 244.029L213.911 239.078L215.897 237.282ZM226.184 237.36C224.597 236.848 223.463 236.178 222.782 235.352C222.082 234.519 221.842 233.602 222.061 232.602C222.295 231.589 222.98 230.57 224.115 229.543C225.584 228.215 227.249 227.271 229.11 226.711C230.985 226.138 232.887 225.975 234.817 226.223L232.678 228.157C231.541 228.04 230.403 228.163 229.265 228.528C228.142 228.88 227.144 229.45 226.271 230.239C225.136 231.265 224.723 232.257 225.033 233.213C225.324 234.164 226.384 234.934 228.213 235.525C230.061 236.121 231.839 236.266 233.545 235.96C235.251 235.654 236.672 234.988 237.807 233.962C238.68 233.172 239.146 232.43 239.205 231.735C239.265 231.041 238.918 230.438 238.166 229.927L240.305 227.994C241.552 228.789 242.172 229.775 242.164 230.95C242.137 232.119 241.403 233.355 239.963 234.657C238.828 235.683 237.49 236.492 235.949 237.084C234.423 237.662 232.815 237.982 231.126 238.044C229.436 238.106 227.789 237.878 226.184 237.36ZM231.072 220.505C230.694 220.847 230.206 221.083 229.608 221.211C229.01 221.339 228.468 221.325 227.983 221.169C227.498 221.012 227.218 220.761 227.144 220.416C227.07 220.071 227.222 219.727 227.6 219.385C227.964 219.056 228.437 218.834 229.021 218.719C229.619 218.591 230.16 218.605 230.646 218.761C231.131 218.918 231.411 219.169 231.485 219.514C231.574 219.846 231.436 220.177 231.072 220.505ZM234.525 220.441L249.869 225.393L247.883 227.188L232.538 222.237L234.525 220.441ZM255.906 209.801C256.391 209.958 256.882 210.143 257.38 210.358L247.821 219C249.406 219.422 250.991 219.443 252.577 219.062C254.159 218.662 255.474 217.989 256.522 217.042C257.38 216.266 257.841 215.54 257.905 214.864C257.964 214.169 257.681 213.578 257.055 213.091L259.194 211.157C260.348 211.922 260.912 212.889 260.885 214.059C260.839 215.222 260.104 216.448 258.678 217.737C257.543 218.763 256.198 219.579 254.642 220.184C253.102 220.775 251.479 221.108 249.775 221.183C248.053 221.252 246.398 221.031 244.811 220.519C243.225 220.007 242.081 219.334 241.381 218.502C240.681 217.669 240.458 216.749 240.711 215.742C240.959 214.715 241.666 213.676 242.83 212.624C243.965 211.598 245.286 210.792 246.794 210.208C248.301 209.623 249.848 209.301 251.433 209.242C253.015 209.163 254.506 209.35 255.906 209.801ZM253.322 211.484C252.351 211.171 251.353 211.055 250.328 211.134C249.284 211.208 248.294 211.451 247.357 211.862C246.416 212.255 245.597 212.767 244.898 213.398C243.895 214.306 243.447 215.214 243.555 216.124C243.678 217.02 244.417 217.75 245.771 218.312L253.322 211.484ZM271.273 206.35C270.357 207.179 269.338 207.859 268.219 208.39C267.081 208.915 265.946 209.254 264.815 209.407C263.665 209.553 262.601 209.496 261.624 209.234L263.676 207.379C264.499 207.574 265.401 207.525 266.381 207.235C267.376 206.931 268.281 206.411 269.095 205.674C269.852 204.99 270.234 204.382 270.241 203.848C270.248 203.315 269.925 202.943 269.272 202.732C268.6 202.516 267.872 202.566 267.089 202.885C266.288 203.197 265.241 203.743 263.949 204.522C262.762 205.228 261.736 205.789 260.87 206.206C260 206.604 259.062 206.89 258.058 207.066C257.049 207.222 256.05 207.141 255.06 206.821C254.276 206.568 253.74 206.172 253.45 205.632C253.16 205.093 253.164 204.46 253.46 203.735C253.737 203.003 254.305 202.249 255.163 201.473C256.487 200.276 257.986 199.448 259.659 198.988C261.333 198.529 262.945 198.513 264.497 198.943L262.511 200.738C261.665 200.519 260.766 200.541 259.815 200.805C258.879 201.057 258.025 201.531 257.254 202.228C256.541 202.873 256.169 203.449 256.139 203.957C256.109 204.465 256.412 204.821 257.047 205.026C257.551 205.188 258.094 205.212 258.678 205.097C259.257 204.963 259.838 204.758 260.422 204.482C261.001 204.187 261.754 203.769 262.681 203.229C263.838 202.55 264.835 202.015 265.672 201.624C266.49 201.228 267.378 200.952 268.335 200.797C269.306 200.628 270.266 200.688 271.214 200.976C272.054 201.247 272.628 201.656 272.936 202.201C273.245 202.747 273.26 203.386 272.983 204.117C272.701 204.83 272.132 205.574 271.273 206.35Z" fill="#8770FF"/>
<path d="M191.936 330.583C193.325 331.031 194.39 331.7 195.131 332.589C195.843 333.468 196.083 334.521 195.85 335.746C195.618 336.971 194.786 338.285 193.355 339.688L196.901 340.833L195.381 342.207L191.79 341.049C189.503 342.826 186.987 344.049 184.242 344.718C181.468 345.377 178.926 345.39 176.618 344.758L179.209 342.415C180.631 342.761 182.258 342.777 184.089 342.464C185.913 342.12 187.623 341.371 189.218 340.219L176.938 336.256C174.863 337.48 173.087 338.433 171.61 339.115C170.157 339.777 168.561 340.223 166.822 340.453C165.054 340.674 163.239 340.484 161.377 339.883C159.042 339.129 157.754 337.937 157.514 336.305C157.244 334.663 158.133 332.845 160.18 330.849L156.456 329.647L157.976 328.273L161.745 329.489C163.893 327.836 166.223 326.709 168.735 326.106C171.246 325.503 173.625 325.437 175.872 325.908L173.315 328.22C172.083 327.992 170.637 328.048 168.977 328.389C167.34 328.708 165.816 329.361 164.405 330.347L176.242 334.166C178.242 332.975 179.995 332.043 181.501 331.37C183 330.667 184.634 330.205 186.402 329.984C188.17 329.763 190.015 329.963 191.936 330.583ZM163.697 337.622C165.352 338.156 167 338.207 168.64 337.776C170.274 337.314 172.109 336.507 174.145 335.355L162.751 331.679C161.458 332.957 160.858 334.134 160.951 335.21C161.068 336.265 161.983 337.069 163.697 337.622ZM190.828 338.873C192.184 337.502 192.733 336.28 192.475 335.208C192.188 334.126 191.246 333.328 189.65 332.813C187.966 332.269 186.292 332.223 184.628 332.676C182.988 333.107 181.123 333.905 179.035 335.068L190.828 338.873Z" fill="#1D212A"/>
<path d="M260.15 263.521C262.325 263.912 264.378 263.868 266.311 263.389C268.244 262.911 269.994 261.964 271.56 260.547C273.726 258.589 274.248 256.794 273.127 255.16C272 253.497 268.878 251.896 263.761 250.358C264.949 251.278 265.394 252.453 265.096 253.883C264.791 255.282 263.844 256.701 262.254 258.138C259.835 260.325 256.958 261.784 253.621 262.516C250.308 263.228 246.996 263.049 243.686 261.981C241.706 261.342 240.217 260.494 239.22 259.438C238.223 258.381 237.877 257.153 238.182 255.754C238.486 254.354 239.526 252.853 241.3 251.249C244.571 248.292 248.226 246.673 252.265 246.394C256.274 246.105 260.835 246.785 265.948 248.435C271.475 250.219 274.982 252.142 276.471 254.204C277.982 256.246 277.182 258.673 274.072 261.485C271.792 263.547 269.235 264.898 266.401 265.538C263.538 266.168 260.706 266.173 257.904 265.552L260.15 263.521ZM259.974 256.936C261.057 255.957 261.767 254.971 262.104 253.977C262.434 252.953 262.314 252.01 261.744 251.148C261.174 250.286 260.106 249.602 258.539 249.097C256.115 248.315 253.579 248.16 250.93 248.634C248.304 249.086 245.989 250.219 243.984 252.031C242.211 253.634 241.492 255.155 241.828 256.591C242.186 258.007 243.548 259.096 245.913 259.859C248.395 260.66 250.876 260.811 253.354 260.311C255.833 259.81 258.039 258.685 259.974 256.936ZM273.493 226.113L260.846 237.547L272.195 241.21C271.737 240.355 271.735 239.323 272.191 238.114C272.617 236.895 273.475 235.702 274.765 234.536C276.654 232.828 278.7 231.594 280.903 230.836C283.076 230.067 285.226 229.701 287.352 229.737C289.448 229.763 291.397 230.068 293.2 230.649C295.269 231.317 296.835 232.204 297.898 233.31C298.954 234.385 299.336 235.653 299.044 237.113C298.776 238.553 297.708 240.116 295.842 241.803C293.47 243.948 290.763 245.435 287.722 246.262C284.652 247.08 281.61 247.201 278.598 246.625L280.983 244.469C283.233 244.828 285.431 244.689 287.578 244.054C289.725 243.418 291.593 242.382 293.182 240.945C295.187 239.133 295.942 237.525 295.448 236.122C294.948 234.689 293.442 233.567 290.929 232.757C288.476 231.965 286.052 231.819 283.655 232.317C281.23 232.806 279.049 233.926 277.114 235.675C275.778 236.883 275.002 238.074 274.786 239.248C274.571 240.422 274.901 241.447 275.777 242.323L273.496 244.385L255.896 238.706L270.789 225.241L273.493 226.113Z" fill="#1D212A"/>
<path d="M203.559 322.544L198.267 320.836L209.397 310.773L269.626 330.207L264.977 334.41L210.041 316.684L203.559 322.544ZM269.884 310.292C274.004 311.032 277.896 310.949 281.558 310.042C285.22 309.136 288.535 307.341 291.504 304.657C295.607 300.948 296.596 297.546 294.472 294.451C292.336 291.298 286.421 288.265 276.726 285.351C278.977 287.095 279.82 289.321 279.255 292.03C278.677 294.682 276.883 297.369 273.871 300.092C269.288 304.236 263.835 307.001 257.514 308.388C251.236 309.736 244.961 309.398 238.689 307.374C234.937 306.163 232.116 304.557 230.227 302.555C228.338 300.554 227.682 298.227 228.259 295.575C228.837 292.923 230.806 290.078 234.167 287.04C240.365 281.436 247.291 278.369 254.943 277.84C262.539 277.293 271.182 278.582 280.87 281.708C291.342 285.087 297.987 288.731 300.807 292.639C303.67 296.508 302.156 301.107 296.263 306.434C291.942 310.341 287.097 312.901 281.728 314.113C276.303 315.308 270.937 315.317 265.628 314.139L269.884 310.292ZM269.551 297.815C271.603 295.96 272.947 294.091 273.586 292.209C274.212 290.269 273.985 288.482 272.904 286.848C271.824 285.215 269.799 283.919 266.831 282.961C262.239 281.48 257.434 281.187 252.414 282.084C247.438 282.942 243.052 285.087 239.254 288.52C235.893 291.559 234.531 294.439 235.167 297.162C235.847 299.844 238.428 301.908 242.908 303.354C247.612 304.872 252.312 305.157 257.007 304.209C261.703 303.261 265.884 301.13 269.551 297.815Z" fill="#1D212A"/>
<g opacity="0.7" clip-path="url(#clip1_895_30)">
<path d="M336.722 218.1C335.629 218.893 333.469 220.653 331.441 222.292C334.294 220.101 336.504 218.684 337.062 218.373C337.038 218.201 340.934 214.873 336.722 218.1Z" fill="#32D989"/>
<path d="M205.554 348.899C205.129 349.09 205.421 349.02 205.554 348.899C205.846 348.829 205.846 348.829 205.554 348.899Z" fill="#32D989"/>
<path d="M219.283 347.924C219.574 347.855 219.441 347.975 219.416 347.804C219.258 347.753 219.416 347.804 219.283 347.924Z" fill="#32D989"/>
<path d="M287.49 250.203C314.045 225.032 348.363 198.27 383.536 175.388C348.496 198.15 314.021 224.86 287.49 250.203C288.811 247.845 289.683 245.506 288.757 243.242C287.392 240.017 281.194 238.836 275.412 240.574C272.23 241.512 269.546 242.776 267.045 244.262C263.985 246.059 260.525 248.218 257.939 250.168C240.967 262.217 228.967 276.361 217.721 291.568C208.247 304.399 198.8 319.531 189.731 336.259C181.257 351.869 171.27 372.723 165.335 388.17C167.37 383.421 169.272 378.794 171.708 373.684C187.549 339.977 220.36 273.093 266.669 244.795C268.454 243.57 273.505 240.941 277.186 240.327C285.398 238.718 290.457 242.48 288.58 247.279C288.144 248.449 287.55 249.568 286.956 250.686C285.62 251.893 285.244 252.427 286.214 250.775C289.574 245.799 288.899 240.012 279.458 240.405C275.704 240.504 270.87 242.548 268.102 244.275C263.233 247.126 263.099 247.247 259.53 249.699C234.727 267.082 217.795 292.083 206.432 310.692C187.938 340.594 177.417 361.931 167.738 385.997L170.849 386.673L175.342 384.356L180.481 383.393C186.374 383.493 183.941 381.234 183.941 381.234C189.078 368.642 194.689 356.203 200.798 344.089C209.987 326.089 219.614 309.049 232.205 291.656C240.017 280.91 248.886 270.177 259.993 260.33C264.556 256.398 269.461 252.739 275.156 249.335C273.155 253.276 269.94 257.152 267.016 260.959C256.207 274.996 243.965 289.554 233.981 303.039C224.398 316.162 215.117 328.235 210.612 341.031C210.334 342.252 209.923 343.593 208.43 344.749C208.767 342.893 209.288 341.259 209.858 339.969C211.433 336.219 213.081 332.984 214.779 330.092C216.61 327.079 218.842 323.705 220.212 321.69C220.054 321.639 219.703 322.345 218.708 323.825C215.482 328.681 212.196 334.172 209.858 339.969C209.446 341.31 208.792 343.065 208.454 344.921C207.41 346.058 206.342 347.024 205.25 347.818C205.116 347.939 204.983 348.06 204.449 348.542L205.931 348.365C205.797 348.486 205.53 348.728 205.397 348.848L205.846 348.83C205.98 348.709 206.247 348.467 206.38 348.347L206.672 348.277C206.405 348.518 206.271 348.639 206.138 348.76L208.519 348.545L208.544 348.717L206.004 348.881C206.004 348.881 206.004 348.881 205.871 349.001L208.41 348.838C208.326 349.302 208.849 349.798 208.631 350.383C208.631 350.383 208.631 350.383 208.764 350.262L208.922 350.313C209.252 351.566 210.481 352.782 211.393 353.895C213.153 352.498 215.072 351.151 216.807 349.582C217.341 349.099 217.875 348.616 218.543 348.013L220.183 347.887C220.183 347.887 220.183 347.887 220.025 347.836L218.543 348.013L218.676 347.892L219.867 347.785C219.843 347.613 219.685 347.562 219.66 347.391C219.685 347.562 219.843 347.613 219.867 347.785L220.317 347.766C220.159 347.715 220.134 347.543 220.11 347.372L221.458 347.316C221.276 347.093 221.227 346.75 220.971 346.012C220.764 345.617 220.982 345.033 221.674 344.601C224.404 341.551 226.685 338.52 228.856 335.781C233.418 329.718 237.905 323.141 242.442 316.907C262.53 288.665 289.543 260.366 316.709 237.357C319.671 234.873 322.098 232.872 323.3 231.785C321.273 233.424 316.417 237.426 313.48 240.082C287.941 261.814 261.377 290.095 242.309 317.027C235.091 326.655 229.464 335.813 221.031 345.376C220.884 344.346 221.404 342.712 222.739 341.505C225.687 337.87 228.053 334.375 230.442 331.051C247.241 306.171 269.541 278.644 291.655 258.263C309.933 240.575 318.15 233.727 331.782 222.566C322.665 229.451 312.663 237.525 304.203 244.786C301.132 247.563 298.838 249.443 298.838 249.443C301.908 246.667 308.208 241.165 311.303 238.56C318.537 232.214 325.796 226.039 333.504 219.846C331.052 221.675 328.624 223.676 326.172 225.505C323.72 227.335 321.292 229.336 318.998 231.216C324.581 225.975 343.858 211.066 353.133 204.232C356.278 201.971 358.329 200.503 358.329 200.503C346.006 208.156 309.551 236.849 293.494 252.141C275.337 268.557 257.596 287.892 244.13 305.495C239.435 311.678 235.007 317.619 231.247 322.958C238.961 311.525 249.443 298.365 257.002 289.011C265.931 277.642 275.724 267.044 287.132 256.148C303.358 239.928 336.995 212.619 353.142 201.123C343.575 208.027 328.886 219.174 312.9 232.852C295.846 247.495 282.034 260.563 268.31 275.298C279.143 261.432 295.081 247.412 309.124 234.909C323.216 222.75 335.137 213.33 348.758 203.148C354.888 198.574 360.618 194.363 365.972 190.686C357.134 196.35 341.862 207.638 332.369 215.057C316.879 226.929 298.574 242.315 281.656 258.967C282.808 257.537 283.827 256.228 284.688 254.868C304.568 235.732 326.2 218.308 342.783 205.642C350.782 199.379 364.477 189.712 371.19 184.999C367.597 187.279 358.273 193.77 345.186 203.469C329.088 215.309 303.16 236.424 285.708 253.559C286.01 252.51 286.896 251.322 287.49 250.203ZM219.341 345.158C219.401 344.523 220.227 343.97 220.737 343.316C220.543 344.072 220.483 344.708 220.423 345.344C219.137 346.894 219.379 346.481 219.341 345.158ZM205.639 348.435L204.291 348.491C205.517 347.577 206.852 346.37 208.162 344.991C208.334 346.193 207.132 347.279 205.639 348.435ZM209.402 345.227C209.342 345.863 208.359 346.364 207.983 346.898C208.067 346.434 208.893 345.882 209.402 345.227ZM206.38 348.347L206.089 348.416C206.623 347.934 207.29 347.33 207.958 346.727C208.032 347.242 206.914 347.864 206.38 348.347ZM210.475 348.522C210.342 348.642 210.342 348.642 209.892 348.661C210.159 348.42 210.317 348.471 210.475 348.522ZM207.936 348.685L209.285 348.629C209.285 348.629 209.443 348.68 209.309 348.8L207.936 348.685C208.094 348.736 208.094 348.736 207.936 348.685ZM208.315 350.281C208.29 350.109 209.565 349.538 209.516 349.195C207.805 350.936 208.424 349.989 208.119 348.908L209.467 348.851C209.492 349.023 209.492 349.023 209.516 349.195C209.917 348.833 209.759 348.782 210.208 348.763C208.315 350.281 208.315 350.281 208.315 350.281C209.383 349.316 209.59 349.71 209.821 350.276C209.821 350.276 208.473 350.332 208.315 350.281ZM212.837 352.396L210.786 353.863C209.739 352.87 208.644 351.534 208.315 350.281L209.797 350.104C210.186 350.721 210.284 351.408 210.966 351.956L211.306 352.229L211.707 351.867C212.666 351.194 213.467 350.47 214.268 349.745L215.617 349.689L214.268 349.745C214.802 349.263 215.47 348.659 216.004 348.176L217.644 348.05C216.091 349.842 214.464 351.119 212.837 352.396ZM217.802 348.101L216.162 348.227L216.295 348.106L217.935 347.981C217.935 347.981 217.935 347.981 217.802 348.101ZM209.511 344.935C208.977 345.417 208.443 345.9 208.067 346.434C208.152 345.97 208.236 345.506 208.321 345.042C209.874 343.25 209.983 342.958 209.511 344.935ZM218.796 346.62C218.663 346.741 218.979 346.843 218.845 346.964C218.821 346.792 218.796 346.62 218.796 346.62ZM219.052 347.358C218.845 346.964 219.003 347.015 219.052 347.358V347.358ZM220.984 347.163L219.636 347.219C219.112 346.722 219.755 345.947 220.423 345.344C220.521 346.03 220.668 347.061 220.984 347.163ZM220.655 345.91C220.753 346.597 220.802 346.94 220.984 347.163C220.802 346.94 220.363 345.979 220.715 345.274C220.606 345.566 220.63 345.738 220.655 345.91ZM220.557 345.223C220.374 345 220.494 343.729 220.712 343.144C220.543 344.072 220.641 344.759 220.557 345.223ZM226.819 328.899C225.557 330.622 224.429 332.223 223.301 333.824C232.735 317.541 247.754 298.147 266.865 276.798C253.737 292.544 238.329 311.321 226.819 328.899ZM265.846 278.107C253.895 292.595 241.677 307.324 230.737 323.612C227.595 328.003 231.44 322.201 232.811 320.187C243.558 304.655 256.067 289.856 267.266 276.435C266.999 276.677 266.356 277.452 265.846 278.107ZM267.642 275.902C268.285 275.126 269.438 273.697 270.081 272.921C269.304 273.817 268.552 274.885 267.642 275.902ZM267.108 276.384C251.138 293.343 235.38 314.956 227.642 326.217C230.953 320.897 234.737 315.731 238.547 310.736C251.419 294.252 260.942 281.765 274.182 267.857C272.786 269.7 270.323 272.508 267.108 276.384ZM287.792 249.155C290.678 244.025 287.695 238.968 278.352 240.048C273.165 240.667 268.028 243.76 264.993 245.729C248.225 256.042 235.217 270.516 225.62 282.488C196.626 320.139 183.172 348.392 166.752 384.368C170.264 375.183 182.153 349.701 189.598 336.38C205.541 307.62 236.403 256.649 274.538 240.783C283.927 237.916 291.076 241.533 288.738 247.33C288.46 248.551 286.253 252.097 287.792 249.155ZM277.007 263.364C279.179 260.625 280.926 258.076 283.729 255.542C282.007 258.262 279.52 260.899 277.007 263.364ZM281.231 259.158C281.073 259.107 283.487 255.955 284.263 255.059C283.244 256.368 282.383 257.728 281.231 259.158ZM282.236 256.698C283.898 254.613 284.819 252.618 286.956 250.686C285.768 252.923 284.372 254.766 282.236 256.698ZM285.149 253.87C284.481 254.474 284.748 254.233 285.149 253.87C285.901 252.803 286.313 251.461 287.356 250.324C286.762 251.443 285.877 252.631 285.149 253.87Z" fill="#32D989"/>
<path d="M330.5 237.876C330.767 237.634 331.192 237.444 331.192 237.444C331.192 237.444 331.702 236.789 330.5 237.876Z" fill="#32D989"/>
<path d="M333.12 232.988C330.084 234.957 297.178 263.157 297.178 263.157C292.614 267.089 289.883 270.139 289.883 270.139C282.055 277.604 281.546 278.258 281.546 278.258L282.36 278.685L283.575 278.75L284.973 279.037C286.553 279.547 285.872 278.999 285.872 278.999C307.461 255.992 325.803 241.929 325.803 241.929C328.34 239.635 329.833 238.479 330.501 237.876C329.117 238.739 326.398 240.81 326.398 240.81C327.49 240.016 329.651 238.257 330.585 237.412L328.801 238.637C329.735 237.792 333.256 234.998 333.256 234.998C330.621 236.604 312.401 251.526 312.401 251.526C312.668 251.285 312.91 250.871 313.578 250.268C316.807 247.543 328.921 237.366 332.041 234.933C328.921 237.366 317.074 247.301 313.711 250.147C318.226 245.872 333.193 233.503 333.193 233.503C331.25 234.678 311.027 251.41 311.027 251.41C311.804 250.515 333.12 232.988 333.12 232.988Z" fill="#32D989"/>
<path d="M310.978 251.067C309.751 251.982 298.888 261.416 296.218 263.83C290.962 268.194 280.937 278.226 280.962 278.398C281.095 278.277 290.501 269.192 299.689 260.691C309.375 252.516 322.885 240.496 334.138 231.679C321.817 241.462 323.601 240.236 310.978 251.067ZM281.071 278.105C282.648 276.485 291.229 267.953 296.06 263.779C296.06 263.779 297.528 262.451 299.555 260.812C291.169 268.588 282.673 276.657 281.071 278.105ZM300.891 259.605C304.653 256.397 309.484 252.223 310.686 251.137C306.814 254.637 302.918 257.966 300.891 259.605Z" fill="#32D989"/>
<path d="M309.951 255.485C310.085 255.365 328.147 240.392 329.774 239.115C328.28 240.271 310.085 255.365 309.951 255.485Z" fill="#32D989"/>
</g>
<defs>
<filter id="filter0_ddd_895_30" x="81" y="0" width="410" height="270" filterUnits="userSpaceOnUse" color-interpolation-filters="sRGB">
<feFlood flood-opacity="0" result="BackgroundImageFix"/>
<feColorMatrix in="SourceAlpha" type="matrix" values="0 0 0 0 0 0 0 0 0 0 0 0 0 0 0 0 0 0 127 0" result="hardAlpha"/>
<feOffset dy="15.8955"/>
<feColorMatrix type="matrix" values="0 0 0 0 0.74902 0 0 0 0 0.8 0 0 0 0 0.882353 0 0 0 0.0372931 0"/>
<feBlend mode="normal" in2="BackgroundImageFix" result="effect1_dropShadow_895_30"/>
<feColorMatrix in="SourceAlpha" type="matrix" values="0 0 0 0 0 0 0 0 0 0 0 0 0 0 0 0 0 0 127 0" result="hardAlpha"/>
<feOffset dy="20.7957"/>
<feGaussianBlur stdDeviation="7.66358"/>
<feColorMatrix type="matrix" values="0 0 0 0 0.74902 0 0 0 0 0.8 0 0 0 0 0.882353 0 0 0 0.177553 0"/>
<feBlend mode="normal" in2="effect1_dropShadow_895_30" result="effect2_dropShadow_895_30"/>
<feColorMatrix in="SourceAlpha" type="matrix" values="0 0 0 0 0 0 0 0 0 0 0 0 0 0 0 0 0 0 127 0" result="hardAlpha"/>
<feOffset dy="38"/>
<feGaussianBlur stdDeviation="28"/>
<feColorMatrix type="matrix" values="0 0 0 0 0.74902 0 0 0 0 0.8 0 0 0 0 0.882353 0 0 0 0.39 0"/>
<feBlend mode="normal" in2="effect2_dropShadow_895_30" result="effect3_dropShadow_895_30"/>
<feBlend mode="normal" in="SourceGraphic" in2="effect3_dropShadow_895_30" result="shape"/>
</filter>
<linearGradient id="paint0_linear_895_30" x1="246.965" y1="-67.0165" x2="152.977" y2="113.756" gradientUnits="userSpaceOnUse">
<stop stop-color="#F9FAFC"/>
<stop offset="1" stop-color="#F9F9FC"/>
</linearGradient>
<linearGradient id="paint1_linear_895_30" x1="180" y1="438" x2="203.705" y2="337.186" gradientUnits="userSpaceOnUse">
<stop stop-color="white"/>
<stop offset="1" stop-color="white" stop-opacity="0"/>
</linearGradient>
<clipPath id="clip0_895_30">
<rect width="191.4" height="24.4" fill="white" transform="translate(200 111)"/>
</clipPath>
<clipPath id="clip1_895_30">
<rect width="311.38" height="57.6175" fill="white" transform="matrix(0.741785 -0.670638 0.951682 0.307085 119.982 373.535)"/>
</clipPath>
</defs>
</svg>
