<svg width="267" height="203" viewBox="0 0 267 203" fill="none" xmlns="http://www.w3.org/2000/svg">
<g clip-path="url(#clip0_1085_5645)">
<path d="M187.232 42.9598C217.102 60.8312 243.081 84.7742 267 112.269C242.852 84.4305 217.903 61.4039 187.232 42.9598C186.545 42.5016 185.858 42.1579 185.172 41.8142C182.768 38.2629 180.136 34.9406 177.275 31.9621C161.482 14.2053 139.508 2.52021 115.589 0.572688C108.265 -0.114671 100.826 -0.114671 93.0436 0.458129C86.5202 0.916368 79.9969 2.06197 73.4735 3.55124C94.7603 -1.26027 118.221 -1.71851 138.593 5.61332C157.018 12.2578 173.956 25.3176 185.286 41.8142C184.943 41.5851 184.6 41.4705 184.256 41.2414C168.806 19.5896 145.574 4.92596 119.48 1.37461L112.957 0.687248C109.409 0.458129 104.03 0.343569 100.483 0.458129C93.0436 0.687248 85.7191 1.37461 78.3946 2.86388C83.6591 1.83285 89.038 1.14549 94.4169 0.801808C102.428 0.229009 111.469 0.458129 119.48 1.37461C145.23 4.58228 169.836 20.277 184.027 41.0123C167.547 18.5586 145.803 6.07156 120.968 2.06197C85.8336 -2.97867 49.2112 8.13364 21.7444 28.2962C11.4444 35.9717 8.92658 38.6065 4.23433 43.3035C3.77655 43.7617 3.66211 43.8763 3.66211 43.8763L4.11989 46.2821C5.72212 45.5947 7.32435 45.0219 8.92658 44.4491C9.95658 44.6782 11.101 44.9073 12.131 45.251C13.161 46.6257 14.191 46.1675 14.9922 45.3656C15.7933 44.5637 16.2511 43.4181 16.2511 43.4181C34.7911 26.9214 57.4512 15.3509 81.1413 10.9976C112.156 5.15508 141.912 9.85203 165.602 31.733C126.233 13.6325 75.0757 9.39379 39.2545 39.7521C70.0402 13.6325 113.3 13.0597 148.32 24.9739C152.898 26.5778 159.078 28.6398 165.716 31.733C166.174 32.0766 167.204 33.1077 167.547 33.4514C166.403 32.8786 165.144 32.3058 163.885 31.8475C118.336 11.1122 58.939 11.1122 26.0933 54.874C10.5288 75.3802 5.83656 102.989 12.5888 127.62C18.0822 146.866 26.5511 165.997 41.3145 179.973C59.6257 197.959 86.5202 203 110.897 202.198C131.84 202.427 153.356 194.981 169.607 182.265C188.033 168.059 197.646 149.5 201.881 128.307C207.145 102.416 203.483 75.8385 191.466 53.0411C190.322 52.2392 188.948 51.3227 187.346 50.2916C187.575 50.4062 187.69 50.5208 187.918 50.6353C189.292 51.4372 190.436 52.1246 191.466 52.812C191.237 52.3537 191.008 51.8955 190.78 51.4372C191.237 51.8955 191.352 52.5828 191.695 53.0411C200.393 69.194 204.856 89.1274 204.513 107.113C204.398 121.319 201.423 136.441 195.815 150.073C188.491 167.372 174.986 181.119 158.621 190.398C142.942 199.449 125.775 203.114 107.464 202.771C75.5335 203.344 46.8078 192.919 29.1833 166.226C46.9223 193.033 75.5335 203.229 107.464 202.771C120.281 202.885 133.099 201.396 144.544 196.928C136.189 200.021 127.377 201.969 118.794 202.427C90.2969 204.145 62.7157 200.48 41.6578 180.89C35.1345 175.276 27.81 164.966 24.0333 157.749C25.6355 160.613 27.3522 163.362 29.0689 165.997C23.0033 156.947 18.6544 147.438 14.8777 136.555C3.891 108.03 8.12546 75.1511 27.9244 51.2081C31.2433 47.084 35.02 43.3035 39.14 39.7521C25.9789 50.8644 16.2511 65.8718 11.7877 82.483C6.75212 100.24 8.35435 119.6 14.7633 136.899C21.5155 157.405 34.1045 179.744 56.4212 191.888C71.7568 200.25 88.9236 203 106.663 203C126.233 203.458 144.773 199.219 161.711 188.565C161.939 188.451 162.054 188.336 162.283 188.222C160.452 189.482 153.242 193.377 158.506 190.513C165.716 186.389 171.782 181.463 174.071 179.401C177.962 175.964 181.395 172.412 185.172 167.83C201.995 146.522 207.145 116.164 203.712 89.9294C202.796 83.0558 201.308 76.4113 199.363 70.3396C197.532 64.7262 195.243 59.1128 192.496 53.843C193.641 54.6449 194.442 55.2177 194.785 55.4468C194.785 55.4468 200.965 59.4564 195.014 55.3323C194.327 54.874 193.412 54.3012 192.382 53.4993C192.382 53.0411 191.123 51.7809 192.038 52.3537C189.063 49.3752 203.254 59.571 204.399 60.3729C211.609 65.6427 219.276 71.8289 225.456 77.4423C226.601 78.4734 227.288 79.0462 227.288 79.0462C216.873 69.3086 203.941 59.1128 190.78 50.6353C190.322 49.7188 189.75 48.9169 189.292 48.0005C201.881 55.5614 215.729 66.4446 224.541 74.1201C218.475 68.9649 211.036 62.7787 201.423 56.0196C197.99 53.4993 193.87 50.8644 189.177 48.0005C188.948 47.5422 188.605 47.1985 188.376 46.7403C207.374 58.1963 226.601 74.2347 239.533 86.8362C241.25 88.4401 242.051 89.3566 242.051 89.3566C226.372 73.6619 213.554 62.5495 191.466 48.115C189.75 46.9694 187.575 46.1675 186.66 44.22C210.121 57.9672 232.323 77.3278 248.345 93.7098C250.062 95.5428 250.978 96.4593 250.978 96.4593C243.768 88.8983 234.726 79.8481 224.312 71.027C217.102 64.9553 208.633 58.1963 198.562 51.4372C194.671 48.9169 190.551 46.2821 186.316 43.6472C184.828 41.356 185.515 42.0433 187.232 42.9598ZM23.8044 157.863C23.0033 156.374 22.3166 155.114 21.8589 154.083C22.5455 155.343 23.1177 156.603 23.8044 157.863ZM151.067 194.293C151.411 194.179 151.754 193.95 152.097 193.835C151.754 193.95 151.411 194.064 151.067 194.293ZM145.23 196.699C145.803 196.47 146.26 196.241 146.833 196.126C146.375 196.355 145.803 196.47 145.23 196.699ZM148.435 195.439C148.778 195.324 149.122 195.21 149.465 194.981C149.122 195.21 148.778 195.324 148.435 195.439ZM153.585 193.033C154.043 192.804 154.501 192.575 155.073 192.346C154.501 192.575 154.043 192.804 153.585 193.033ZM174.185 179.286C174.643 178.828 175.101 178.37 175.558 178.026C175.215 178.37 174.757 178.828 174.185 179.286ZM184.142 41.2414C184.371 41.5851 185.515 42.9598 185.057 42.7307C184.943 42.387 183.684 40.8977 184.142 41.2414ZM124.859 23.4847C76.9069 14.549 26.78 36.5445 14.5344 86.2634C8.69769 109.977 15.221 133.118 25.2922 153.625C19.4555 143.2 11.101 122.121 11.7877 104.478C11.6733 81.1082 22.66 58.0817 39.9412 43.1889C60.1979 25.3176 88.8091 18.3295 115.475 21.1935C131.497 22.7973 147.977 27.2651 164.457 34.8261C168.005 36.659 172.125 37.6901 174.414 41.1269C160.223 33.5659 143.399 26.6923 124.859 23.4847ZM138.822 27.8379C138.478 27.7234 138.135 27.6088 137.906 27.6088C138.135 27.6088 138.478 27.7234 138.822 27.8379ZM172.011 38.3774C141.225 22.9119 107.921 15.4655 75.0757 24.4011C46.0067 32.3058 22.0877 54.4158 14.4199 84.0868C10.1855 98.5213 11.3299 117.996 15.6788 130.713C11.5588 118.226 10.1855 102.645 12.9321 89.0129C20.7144 47.5422 58.7101 20.8498 100.025 20.0479C120.396 19.3605 140.882 24.172 159.193 31.733C163.198 33.3368 167.089 35.1698 170.866 37.0027C171.324 37.4609 171.667 37.9192 172.011 38.3774ZM175.329 42.1579C175.444 42.2725 175.444 42.387 175.558 42.387C173.613 41.356 171.667 40.3249 169.722 39.2939C171.095 40.0958 173.041 41.0123 175.329 42.1579ZM188.376 47.7713C187.804 46.7403 189.521 49.4897 189.75 50.0625C189.177 49.3752 188.834 48.4587 188.376 47.7713ZM188.147 47.3131C188.033 46.9694 187.117 45.9384 187.461 46.0529C187.575 46.3966 188.376 47.4277 188.147 47.3131ZM186.545 44.9073C186.202 44.3345 185.858 43.8763 185.515 43.3035C185.744 43.4181 186.888 45.1365 186.545 44.9073ZM16.9377 140.565C-10.758 71.1415 45.0912 10.8831 116.619 19.1314C134.473 20.9643 151.868 26.4632 168.005 34.0242L169.264 35.2843C169.378 35.3989 169.493 35.5134 169.607 35.628C160.452 31.1602 150.495 27.2651 139.852 24.2866C119.595 18.5586 97.1636 17.0693 76.3346 22.4536C45.8923 29.7854 19.6844 54.4158 12.4744 84.6596C5.83656 109.977 13.5044 136.326 24.72 157.405C25.9789 159.582 26.5511 160.727 26.5511 160.727C25.1778 158.436 20.9433 151.448 16.9377 140.565ZM193.412 133.806C188.491 154.197 176.932 170.236 159.422 181.806C147.29 189.711 133.9 194.752 119.595 195.897C106.205 196.928 92.2425 196.699 79.3102 193.721C62.7157 190.169 48.0667 181.119 37.7667 167.945C24.6055 150.875 15.6788 127.39 14.8777 106.884C13.9622 54.874 58.7101 21.6517 107.006 23.9429C131.383 24.5157 157.133 33.5659 176.703 44.3345C195.93 69.4231 201.309 104.364 193.412 133.806ZM176.588 43.8763C167.891 38.8357 156.561 33.6805 147.405 30.4728C156.561 33.6805 165.487 37.4609 173.956 41.9288C174.872 42.5016 176.016 42.8453 176.588 43.8763ZM143.399 29.2126C143.743 29.3272 143.972 29.4418 144.315 29.4418C143.972 29.4418 143.628 29.3272 143.399 29.2126ZM190.551 51.5518C190.436 51.4372 189.978 50.6353 190.207 50.8644C190.322 50.979 190.78 51.6664 190.551 51.5518ZM180.823 172.756C180.594 173.1 180.251 173.329 180.022 173.673C180.365 173.329 180.594 173.1 180.823 172.756ZM183.57 169.778C183.341 170.121 182.997 170.465 182.654 170.923C182.883 170.465 183.226 170.121 183.57 169.778ZM185.858 166.914C186.087 166.57 186.316 166.341 186.545 165.997C186.316 166.341 186.087 166.57 185.858 166.914ZM199.248 70.3396C204.055 85.347 205.657 101.729 203.941 117.653C202.453 130.942 198.791 145.147 192.153 157.176C191.695 157.978 191.237 158.894 190.665 159.696C191.695 157.749 192.954 155.916 193.87 153.854C196.158 149.157 198.104 143.543 199.592 138.732C207.832 110.206 205.314 79.5044 191.466 53.1556C191.81 53.3848 192.038 53.6139 192.267 53.7284C195.128 59.1128 197.417 64.7262 199.248 70.3396ZM192.267 53.4993C191.466 53.1556 191.123 52.3537 190.78 51.6664C191.581 52.01 191.81 52.6974 192.267 53.4993ZM191.466 52.1246C190.894 51.7809 190.436 51.4372 190.207 50.8644C190.894 51.2081 191.237 51.5518 191.466 52.1246ZM190.665 50.5208C189.635 50.4062 189.063 48.4587 188.376 47.4277C189.521 48.0005 189.864 49.3752 190.665 50.5208ZM189.177 47.8859C188.376 47.5422 187.918 46.8549 187.461 46.0529C188.262 46.3966 188.72 47.1985 189.177 47.8859ZM187.69 45.5947C186.66 45.1365 186.202 44.3345 185.744 43.4181C186.66 43.8763 187.232 44.6782 187.69 45.5947ZM186.316 43.4181C185.286 43.0744 184.828 42.0433 184.256 41.2414C185.286 41.5851 185.744 42.5016 186.316 43.4181Z" fill="#32D989"/>
<path d="M51.7291 10.7686C34.7913 17.7568 18.769 28.1817 5.49336 40.7833C4.34891 41.9289 5.26447 41.0124 5.95114 40.325C19.2267 27.7235 35.8213 16.9548 52.8736 10.0812C58.0236 7.79005 69.8114 4.35326 71.8714 3.89502C54.4758 8.24829 38.2246 15.8092 23.4612 26.1196C14.6489 32.3059 6.86669 38.7212 0 46.5113C0 46.5113 0.114445 46.3967 0.343335 46.053L1.37334 44.9074C20.4856 25.0886 45.8924 10.4249 72.5581 4.12414C65.4625 5.72798 58.4813 8.01917 51.7291 10.7686ZM4.00557 42.2726C3.89113 42.3871 3.77668 42.5017 3.66224 42.6162C3.66224 42.6162 3.77668 42.3871 4.00557 42.2726Z" fill="#32D989"/>
<path d="M73.3597 3.89502C73.1308 4.00958 72.7875 4.00958 72.5586 4.12414C72.7875 4.00958 73.1308 4.00958 73.3597 3.89502Z" fill="#32D989"/>
<path d="M78.0505 2.86377C76.4482 3.20745 74.9604 3.55113 73.4727 3.89481C74.9604 3.55113 76.4482 3.20745 78.0505 2.86377Z" fill="#32D989"/>
<path d="M72.6719 3.78033C72.9008 3.78033 73.1297 3.66577 73.3586 3.66577C73.1297 3.66577 72.9008 3.66577 72.6719 3.78033Z" fill="#32D989"/>
<path d="M169.951 182.837C168.921 183.639 167.891 184.441 166.861 185.129C167.891 184.441 168.921 183.639 169.951 182.837Z" fill="#32D989"/>
<path d="M177.505 176.307C176.933 176.88 176.36 177.453 175.674 178.026C176.246 177.338 176.933 176.88 177.505 176.307Z" fill="#32D989"/>
<path d="M171.324 181.692C170.866 182.035 170.294 182.494 169.836 182.837C170.408 182.494 170.866 182.035 171.324 181.692Z" fill="#32D989"/>
<path d="M165.945 185.816C164.686 186.618 163.427 187.534 162.168 188.222C163.427 187.42 164.686 186.618 165.945 185.816Z" fill="#32D989"/>
<path d="M166.861 185.129C166.518 185.358 166.289 185.587 165.945 185.816C166.174 185.587 166.518 185.358 166.861 185.129Z" fill="#32D989"/>
<path d="M20.5996 132.087C21.1718 133.691 21.6296 135.41 22.2018 137.013C21.6296 135.41 21.1718 133.806 20.5996 132.087Z" fill="#32D989"/>
<path d="M22.5449 137.701C23.1171 139.419 23.8038 141.137 24.4905 142.856C23.8038 141.137 23.1171 139.419 22.5449 137.701Z" fill="#32D989"/>
<path d="M36.6222 165.195C44.29 175.62 54.1323 183.868 65.9201 188.909C67.4079 189.596 71.9857 191.2 72.5579 191.429C72.5579 191.429 71.5279 191.086 69.4679 190.398C56.3067 185.472 44.9767 176.766 36.6222 165.195C32.1588 159.009 28.0388 151.563 24.6055 143.314C27.8099 151.219 32.1588 159.123 36.6222 165.195Z" fill="#32D989"/>
<path d="M24.4922 142.856C24.6066 142.971 24.6066 143.2 24.7211 143.314C24.6066 143.085 24.4922 142.971 24.4922 142.856Z" fill="#32D989"/>
<path d="M150.723 34.0243C110.095 18.4441 60.3116 21.4227 32.0437 57.8527C17.9669 75.9532 12.8169 100.011 17.9669 122.464C18.5392 124.412 18.5392 124.756 17.9669 122.464C16.0214 113.529 15.5636 104.822 16.5936 96.0011C20.8281 58.0818 52.4149 30.702 89.495 26.0051C115.817 22.1101 146.603 30.3584 168.805 41.9289C169.034 42.0435 169.263 42.158 169.378 42.158C169.149 42.0435 169.034 41.9289 168.805 41.8143C165.715 40.3251 159.535 37.2319 150.723 34.0243Z" fill="#32D989"/>
<path d="M20.1426 130.713C20.257 131.171 20.3715 131.629 20.6004 132.087C20.4859 131.629 20.3715 131.171 20.1426 130.713Z" fill="#32D989"/>
<path d="M18.998 126.474C19.3414 127.963 19.7992 129.338 20.2569 130.713C19.7992 129.338 19.3414 127.963 18.998 126.474Z" fill="#32D989"/>
<path d="M22.2031 137.013C22.3176 137.243 22.3176 137.472 22.432 137.701C22.432 137.472 22.3176 137.243 22.2031 137.013Z" fill="#32D989"/>
<path d="M18.4258 124.297C18.6547 124.985 18.7691 125.787 18.998 126.474C18.7691 125.787 18.5402 124.985 18.4258 124.297Z" fill="#32D989"/>
</g>
<path d="M110.528 97.312C109.589 91.7653 106.368 88.992 100.864 88.992C96.6827 88.992 93.5467 90.6133 91.456 93.856C89.3653 97.0987 88.4053 102.411 88.576 109.792C89.4293 107.232 91.0507 105.227 93.44 103.776C95.872 102.283 98.6453 101.536 101.76 101.536C106.24 101.536 109.781 102.923 112.384 105.696C115.029 108.427 116.352 112.203 116.352 117.024C116.352 119.84 115.797 122.4 114.688 124.704C113.621 126.965 111.957 128.779 109.696 130.144C107.477 131.509 104.704 132.192 101.376 132.192C95.0187 132.192 90.624 130.165 88.192 126.112C85.8027 122.059 84.608 116.32 84.608 108.896C84.608 93.1093 90.0267 85.216 100.864 85.216C104.96 85.216 108.181 86.3467 110.528 88.608C112.875 90.8267 114.261 93.728 114.688 97.312H110.528ZM100.928 105.376C98.9227 105.376 97.024 105.781 95.232 106.592C93.44 107.403 91.968 108.64 90.816 110.304C89.7067 111.925 89.152 113.931 89.152 116.32C89.152 119.776 90.176 122.656 92.224 124.96C94.272 127.264 97.2587 128.416 101.184 128.416C104.469 128.416 107.093 127.413 109.056 125.408C111.019 123.403 112 120.672 112 117.216C112 113.504 111.04 110.603 109.12 108.512C107.2 106.421 104.469 105.376 100.928 105.376Z" fill="#1D212A"/>
<path d="M121.296 79.344C121.456 80.256 121.824 80.96 122.4 81.456C122.992 81.952 123.784 82.2 124.776 82.2C126.104 82.2 127.08 81.68 127.704 80.64C128.344 79.6 128.648 77.848 128.616 75.384C128.28 76.104 127.72 76.672 126.936 77.088C126.152 77.488 125.28 77.688 124.32 77.688C123.248 77.688 122.288 77.472 121.44 77.04C120.608 76.592 119.952 75.944 119.472 75.096C118.992 74.248 118.752 73.224 118.752 72.024C118.752 70.312 119.248 68.936 120.24 67.896C121.232 66.84 122.64 66.312 124.464 66.312C126.704 66.312 128.272 67.04 129.168 68.496C130.08 69.952 130.536 72.12 130.536 75C130.536 77.016 130.352 78.68 129.984 79.992C129.632 81.304 129.024 82.304 128.16 82.992C127.312 83.68 126.144 84.024 124.656 84.024C123.024 84.024 121.752 83.584 120.84 82.704C119.928 81.824 119.408 80.704 119.28 79.344H121.296ZM124.68 75.84C125.752 75.84 126.632 75.512 127.32 74.856C128.008 74.184 128.352 73.28 128.352 72.144C128.352 70.944 128.016 69.976 127.344 69.24C126.672 68.504 125.728 68.136 124.512 68.136C123.392 68.136 122.496 68.488 121.824 69.192C121.168 69.896 120.84 70.824 120.84 71.976C120.84 73.144 121.168 74.08 121.824 74.784C122.48 75.488 123.432 75.84 124.68 75.84ZM144.669 68.544H136.245V74.016C136.613 73.504 137.157 73.088 137.877 72.768C138.597 72.432 139.373 72.264 140.205 72.264C141.533 72.264 142.613 72.544 143.445 73.104C144.277 73.648 144.869 74.36 145.221 75.24C145.589 76.104 145.773 77.024 145.773 78C145.773 79.152 145.557 80.184 145.125 81.096C144.693 82.008 144.029 82.728 143.133 83.256C142.253 83.784 141.157 84.048 139.845 84.048C138.165 84.048 136.805 83.616 135.765 82.752C134.725 81.888 134.093 80.736 133.869 79.296H136.005C136.213 80.208 136.653 80.92 137.325 81.432C137.997 81.944 138.845 82.2 139.869 82.2C141.133 82.2 142.085 81.824 142.725 81.072C143.365 80.304 143.685 79.296 143.685 78.048C143.685 76.8 143.365 75.84 142.725 75.168C142.085 74.48 141.141 74.136 139.893 74.136C139.045 74.136 138.301 74.344 137.661 74.76C137.037 75.16 136.581 75.712 136.293 76.416H134.229V66.624H144.669V68.544Z" fill="#1D212A"/>
<path d="M81.648 79.416C81.648 80.184 81.456 80.92 81.072 81.624C80.688 82.312 80.12 82.888 79.368 83.352C78.632 83.816 77.744 84.08 76.704 84.144V86.088H75.408V84.144C73.952 84.016 72.768 83.552 71.856 82.752C70.944 81.936 70.48 80.904 70.464 79.656H72.792C72.856 80.328 73.104 80.912 73.536 81.408C73.984 81.904 74.608 82.216 75.408 82.344V76.344C74.336 76.072 73.472 75.792 72.816 75.504C72.16 75.216 71.6 74.768 71.136 74.16C70.672 73.552 70.44 72.736 70.44 71.712C70.44 70.416 70.888 69.344 71.784 68.496C72.696 67.648 73.904 67.176 75.408 67.08V65.088H76.704V67.08C78.064 67.192 79.16 67.632 79.992 68.4C80.824 69.152 81.304 70.136 81.432 71.352H79.104C79.024 70.792 78.776 70.288 78.36 69.84C77.944 69.376 77.392 69.072 76.704 68.928V74.784C77.76 75.056 78.616 75.336 79.272 75.624C79.944 75.896 80.504 76.336 80.952 76.944C81.416 77.552 81.648 78.376 81.648 79.416ZM72.672 71.592C72.672 72.376 72.904 72.976 73.368 73.392C73.832 73.808 74.512 74.152 75.408 74.424V68.88C74.576 68.96 73.912 69.232 73.416 69.696C72.92 70.144 72.672 70.776 72.672 71.592ZM76.704 82.368C77.568 82.272 78.24 81.96 78.72 81.432C79.216 80.904 79.464 80.272 79.464 79.536C79.464 78.752 79.224 78.152 78.744 77.736C78.264 77.304 77.584 76.96 76.704 76.704V82.368Z" fill="#1D212A"/>
<defs>
<clipPath id="clip0_1085_5645">
<rect width="267" height="203" fill="white"/>
</clipPath>
</defs>
</svg>
