<svg width="48" height="48" viewBox="0 0 48 48" fill="none" xmlns="http://www.w3.org/2000/svg">
<path d="M20.0008 23.3374C19.4008 23.3374 18.9008 23.8374 18.9008 24.4374V35.0374L16.6008 32.7374C16.2008 32.3374 15.5008 32.3374 15.1008 32.7374C14.7008 33.1374 14.7008 33.8374 15.1008 34.2374L19.2008 38.3374C19.4008 38.5374 19.7008 38.6374 19.9008 38.6374C20.2008 38.6374 20.4008 38.5374 20.6008 38.3374L24.7008 34.2374C24.9008 34.0374 25.0008 33.7374 25.0008 33.5374C25.0008 33.3374 25.0008 32.9374 24.8008 32.7374C24.4008 32.3374 23.7008 32.3374 23.3008 32.7374L21.0008 35.0374V24.4374C21.0008 23.8374 20.6008 23.3374 20.0008 23.3374Z" fill="#32D989"/>
<path d="M27.4004 36.5376C26.8004 36.5376 26.3004 37.0376 26.3004 37.6376V40.9376C26.3004 41.2376 26.0004 41.5376 25.7004 41.5376H14.2004C13.9004 41.5376 13.6004 41.2376 13.6004 40.9376V37.6376C13.6004 37.0376 13.1004 36.5376 12.5004 36.5376C11.9004 36.5376 11.4004 37.0376 11.4004 37.6376V40.9376C11.4004 42.4376 12.6004 43.6376 14.1004 43.6376H25.6004C27.1004 43.6376 28.3004 42.4376 28.3004 40.9376V37.6376C28.4004 36.9376 28.0004 36.5376 27.4004 36.5376Z" fill="#32D989"/>
<path d="M37.9008 24.0375C32.4008 24.0375 27.8008 19.5375 27.8008 13.9375C27.8008 8.3375 32.4008 3.9375 37.9008 3.9375C43.4008 3.9375 48.0008 8.4375 48.0008 14.0375C48.0008 19.6375 43.5008 24.0375 37.9008 24.0375ZM37.9008 5.9375C33.5008 5.9375 29.8008 9.5375 29.8008 14.0375C29.8008 18.4375 33.4008 22.1375 37.9008 22.1375C42.3008 22.1375 46.0008 18.5375 46.0008 14.0375C46.0008 9.5375 42.4008 5.9375 37.9008 5.9375Z" fill="#32D989"/>
<path d="M34.6993 17.2376C33.5993 17.2376 32.7993 16.6376 32.3993 16.2376C31.7993 15.6376 30.8993 14.0376 32.0993 12.2376L32.1993 12.1376C33.7993 10.3376 35.6993 10.7376 36.6993 11.4376L36.7993 11.5376L40.3993 15.0376C40.7993 15.2376 41.1993 15.2376 41.4993 15.0376C41.9993 14.8376 42.2993 14.2376 42.1993 13.7376C42.1993 13.4376 41.9993 13.2376 41.6993 13.0376C40.9993 12.5376 40.3993 12.8376 40.0993 13.0376L39.7993 13.4376L38.2993 12.0376L38.7993 11.5376C39.4993 10.9376 41.2993 10.1376 42.8993 11.4376C43.4993 11.9376 43.9993 12.6376 44.0993 13.3376C44.2993 14.7376 43.5993 16.1376 42.2993 16.7376C41.5993 17.0376 40.4993 17.3376 39.1993 16.5376L38.9993 16.4376L35.3993 12.9376C35.0993 12.7376 34.4993 12.4376 33.6993 13.2376C33.1993 14.0376 33.6993 14.5376 33.7993 14.7376C33.9993 15.0376 34.5993 15.4376 35.4993 14.8376L35.8993 14.4376L37.2993 15.8376L36.6993 16.3376C36.0993 17.0376 35.3993 17.2376 34.6993 17.2376Z" fill="#32D989"/>
<path d="M24.1 13.4375H17.2L14.2 9.43745C14 9.23745 13.7 9.13745 13.5 9.13745H4.5C1.9 9.23745 0 11.1375 0 13.5375V35.9375C0 38.3375 1.9 40.2374 4.3 40.2374H7.6C8.2 40.2374 8.7 39.7375 8.7 39.1375C8.7 38.5375 8.2 38.0374 7.6 38.0374H4.3C3.1 38.0374 2.1 37.0375 2.1 35.8375V13.5375C2.1 12.3375 3.1 11.3375 4.3 11.3375H13L16 15.3375C16.2 15.5375 16.5 15.6375 16.7 15.6375H24.1C24.7 15.6375 25.2 15.1375 25.2 14.5375C25.1 13.9375 24.6 13.4375 24.1 13.4375Z" fill="#32D989"/>
<path d="M37.7992 27.4374V35.9374C37.7992 37.1374 36.7992 38.1374 35.5992 38.1374H32.2992C31.6992 38.1374 31.1992 38.6374 31.1992 39.2374C31.1992 39.8374 31.6992 40.3374 32.2992 40.3374H35.5992C37.9992 40.3374 39.8992 38.4374 39.8992 36.0374V27.5374C39.8992 26.9374 39.3992 26.4374 38.7992 26.4374C38.2992 26.3374 37.7992 26.8374 37.7992 27.4374Z" fill="#32D989"/>
</svg>
