<svg width="49" height="48" viewBox="0 0 49 48" fill="none" xmlns="http://www.w3.org/2000/svg">
<g clip-path="url(#clip0_1674_0)">
<path d="M47.0543 4.42656C46.9564 4.3282 38.9309 -5.31115 26.7947 4.22984C16.2245 12.6889 9.56915 4.72164 9.27553 4.42656C8.98191 4.13148 8.59043 3.93475 8.19894 4.13148C7.80745 4.22984 7.51383 4.62328 7.51383 5.01672V20.1643C4.67553 19.1807 3.10957 17.2134 2.91383 17.1151C2.71809 16.7216 2.3266 16.6233 1.93511 16.7216C1.54362 16.9184 1.25 17.2134 1.25 17.7052V42.9839C1.25 43.1807 1.34787 43.4757 1.44574 43.5741C1.54362 43.6725 5.06702 48.0003 11.1351 48.0003C14.0713 48.0003 17.6926 46.9184 21.7053 43.7708C32.2755 35.4102 38.9309 43.279 39.2245 43.5741C39.5181 43.8692 39.9096 44.0659 40.3011 43.8692C40.6926 43.7708 40.9862 43.3774 40.9862 42.9839V27.8364C43.8245 28.9184 45.4883 30.8856 45.5862 30.8856C45.7819 31.0823 46.0755 31.279 46.3691 31.279C46.467 31.279 46.5649 31.279 46.6628 31.1807C47.0543 31.0823 47.3479 30.6889 47.3479 30.2954V5.01672C47.25 4.82 47.1521 4.62328 47.0543 4.42656ZM39.0287 40.7216C35.9947 38.4593 29.3394 35.2134 20.5309 42.197C10.8415 49.8692 4.47979 43.9675 3.20745 42.5905V19.8692C6.24149 22.1315 12.8968 25.3774 21.7053 18.3938C31.3947 10.7216 37.7564 16.6233 39.0287 18.0003V40.7216ZM45.2926 28.0331C44.3138 27.2462 42.8457 26.361 40.9862 25.7708V17.7052C40.9862 17.5085 40.8883 17.2134 40.7904 17.1151C40.6926 17.0167 32.667 7.37738 20.5309 16.9184C16.1266 20.4593 12.4074 21.0495 9.56915 20.6561V7.27902C12.6032 9.63967 19.2585 12.7872 28.067 5.80361C37.6585 -1.86852 44.0202 4.03311 45.2926 5.41016V28.0331Z" fill="#32D989"/>
<path d="M36.8753 33.7377C33.3519 31.8688 27.6753 30.8852 20.5306 36.5901C13.9732 41.7049 8.98166 40.8197 5.94762 39.0492C5.45826 38.7541 4.87103 38.9508 4.57741 39.4426C4.28379 39.9344 4.47954 40.5246 4.9689 40.8197C6.53485 41.7049 8.59017 42.3934 11.037 42.3934C14.071 42.3934 17.5944 41.3115 21.6072 38.0656C27.9689 33.0492 32.8625 33.836 35.8966 35.4098C36.3859 35.7049 36.9732 35.5082 37.1689 35.0164C37.5604 34.5246 37.3646 33.9344 36.8753 33.7377Z" fill="#32D989"/>
<path d="M36.8752 27.3444C33.3518 25.4755 27.6752 24.4919 20.5305 30.1968C20.139 30.4919 20.0412 31.1804 20.3348 31.5739C20.5305 31.869 20.8241 31.9673 21.1178 31.9673C21.3135 31.9673 21.5093 31.869 21.705 31.7706C28.0667 26.7542 32.9603 27.5411 35.9944 29.1149C36.4837 29.41 37.0709 29.2132 37.2667 28.7214C37.5603 28.1313 37.3646 27.5411 36.8752 27.3444Z" fill="#32D989"/>
<path d="M36.8752 20.9508C33.3518 19.082 27.6752 18.0984 20.5305 23.8033C20.139 24.0984 20.0412 24.7869 20.3348 25.1803C20.5305 25.4754 20.8241 25.5738 21.1178 25.5738C21.3135 25.5738 21.5093 25.4754 21.705 25.3771C28.0667 20.3607 32.9603 21.1475 35.9944 22.7213C36.4837 23.0164 37.0709 22.8197 37.2667 22.3279C37.5603 21.7377 37.3646 21.1475 36.8752 20.9508Z" fill="#32D989"/>
<path d="M16.4193 27.7377L17.398 27.2459L18.3767 27.7377L18.181 26.7541L18.9639 25.9672L17.8874 25.7705L17.398 24.8853L16.9086 25.7705L15.832 25.9672L16.615 26.7541L16.4193 27.7377Z" fill="#32D989"/>
<path d="M12.8958 28.7214L13.7767 28.2296L14.7554 28.7214L14.5597 27.7378L15.3426 26.9509L14.266 26.7541L13.7767 25.8689L13.3852 26.7541L12.3086 26.9509L13.0916 27.7378L12.8958 28.7214Z" fill="#32D989"/>
<path d="M9.27473 28.7214L10.2535 28.2296L11.1343 28.7214L10.9386 27.7378L11.7215 26.9509L10.6449 26.7541L10.2535 25.8689L9.7641 26.7541L8.6875 26.9509L9.47048 27.7378L9.27473 28.7214Z" fill="#32D989"/>
<path d="M5.65364 27.7377L6.63236 27.2459L7.61109 27.7377L7.41534 26.7541L8.19832 25.9672L7.12173 25.7705L6.63236 24.8853L6.143 25.7705L5.06641 25.9672L5.84938 26.7541L5.65364 27.7377Z" fill="#32D989"/>
<path d="M16.4193 35.6066L17.398 35.1148L18.3767 35.6066L18.181 34.623L18.9639 33.8361L17.8874 33.6394L17.398 32.7542L16.9086 33.6394L15.832 33.8361L16.615 34.623L16.4193 35.6066Z" fill="#32D989"/>
<path d="M12.8958 36.5903L13.7767 36.0984L14.7554 36.5903L14.5597 35.6066L15.3426 34.8198L14.266 34.623L13.7767 33.7378L13.3852 34.623L12.3086 34.8198L13.0916 35.6066L12.8958 36.5903Z" fill="#32D989"/>
<path d="M9.27473 36.5903L10.2535 36.0984L11.1343 36.5903L10.9386 35.6066L11.7215 34.8198L10.6449 34.623L10.2535 33.7378L9.7641 34.623L8.6875 34.8198L9.47048 35.6066L9.27473 36.5903Z" fill="#32D989"/>
<path d="M5.65364 35.6066L6.63236 35.1148L7.61109 35.6066L7.41534 34.623L8.19832 33.8361L7.12173 33.6394L6.63236 32.7542L6.143 33.6394L5.06641 33.8361L5.84938 34.623L5.65364 35.6066Z" fill="#32D989"/>
<path d="M16.4193 31.672L17.398 31.1802L18.3767 31.672L18.181 30.6884L18.9639 29.9015L17.8874 29.7048L17.398 28.8196L16.9086 29.7048L15.832 29.9015L16.615 30.6884L16.4193 31.672Z" fill="#32D989"/>
<path d="M12.8958 32.6557L13.7767 32.1639L14.7554 32.6557L14.5597 31.6721L15.3426 30.8852L14.266 30.6885L13.7767 29.8032L13.3852 30.6885L12.3086 30.8852L13.0916 31.6721L12.8958 32.6557Z" fill="#32D989"/>
<path d="M9.27473 32.6557L10.2535 32.1639L11.1343 32.6557L10.9386 31.6721L11.7215 30.8852L10.6449 30.6885L10.2535 29.8032L9.7641 30.6885L8.6875 30.8852L9.47048 31.6721L9.27473 32.6557Z" fill="#32D989"/>
<path d="M5.65364 31.672L6.63236 31.1802L7.61109 31.672L7.41534 30.6884L8.19832 29.9015L7.12173 29.7048L6.63236 28.8196L6.143 29.7048L5.06641 29.9015L5.84938 30.6884L5.65364 31.672Z" fill="#32D989"/>
<path d="M27.5489 8.80713L27.1003 9.79854L26.011 9.91536L26.823 10.6449L26.5984 11.7085L27.5489 11.168L28.4994 11.7085L28.2748 10.6449L29.0869 9.91536L27.9976 9.79854L27.5489 8.80713Z" fill="#32D989"/>
<path d="M20.6739 12.8169L20.2253 13.8083L19.136 13.9251L19.948 14.6547L19.7234 15.7183L20.6739 15.1778L21.6244 15.7183L21.3998 14.6547L22.2119 13.9251L21.1226 13.8083L20.6739 12.8169Z" fill="#32D989"/>
<path d="M23.5021 9.60913L23.0534 10.6005L21.9641 10.7174L22.7762 11.4469L22.5516 12.5105L23.5021 11.97L24.4526 12.5105L24.228 11.4469L25.04 10.7174L23.9507 10.6005L23.5021 9.60913Z" fill="#32D989"/>
<path d="M31.59 9.60913L31.1413 10.6005L30.052 10.7174L30.8641 11.4469L30.6395 12.5105L31.59 11.97L32.5404 12.5105L32.3159 11.4469L33.1279 10.7174L32.0386 10.6005L31.59 9.60913Z" fill="#32D989"/>
</g>
<defs>
<clipPath id="clip0_1674_0">
<rect width="48" height="48" fill="white" transform="translate(0.25)"/>
</clipPath>
</defs>
</svg>
