<svg width="518" height="500" viewBox="0 0 518 500" fill="none" xmlns="http://www.w3.org/2000/svg">
<g clip-path="url(#clip0_789_0)">
<g clip-path="url(#clip1_789_0)">
<ellipse cx="305.055" cy="451.435" rx="481.055" ry="49.2396" fill="url(#paint0_radial_789_0)"/>
</g>
<g filter="url(#filter0_i_789_0)">
<rect width="306.144" height="194.162" rx="11.4983" transform="matrix(0.870702 0.491358 -0.634645 0.773322 211.504 132.122)" fill="url(#paint1_linear_789_0)"/>
</g>
<ellipse opacity="0.8" cx="18.8396" cy="15.6097" rx="18.8396" ry="15.6097" transform="matrix(0.870702 0.491358 -0.634645 0.773322 219.411 162.698)" fill="#8770FF"/>
<ellipse opacity="0.5" cx="18.8396" cy="15.6097" rx="18.8396" ry="15.6097" transform="matrix(0.870702 0.491358 -0.634645 0.773322 237.865 173.112)" fill="#8770FF"/>
<path d="M176.41 224.324C175.926 224.052 175.633 223.666 175.531 223.167C175.436 222.658 175.569 222.185 175.929 221.746C176.296 221.299 176.779 221.023 177.376 220.918C177.981 220.805 178.525 220.885 179.009 221.158C179.513 221.442 179.807 221.836 179.892 222.338C179.994 222.837 179.862 223.311 179.494 223.758C179.134 224.197 178.652 224.473 178.047 224.586C177.46 224.696 176.914 224.609 176.41 224.324ZM183.606 228.385C183.122 228.112 182.829 227.726 182.727 227.227C182.632 226.719 182.765 226.246 183.125 225.807C183.492 225.359 183.975 225.083 184.572 224.979C185.177 224.866 185.721 224.946 186.205 225.219C186.709 225.503 187.003 225.897 187.088 226.399C187.19 226.898 187.058 227.371 186.69 227.819C186.33 228.258 185.848 228.534 185.243 228.647C184.656 228.757 184.11 228.67 183.606 228.385ZM190.802 232.446C190.318 232.173 190.025 231.787 189.923 231.288C189.828 230.78 189.96 230.307 190.32 229.868C190.688 229.42 191.17 229.144 191.768 229.04C192.373 228.927 192.917 229.006 193.4 229.279C193.905 229.564 194.199 229.957 194.284 230.46C194.386 230.959 194.253 231.432 193.886 231.88C193.526 232.319 193.043 232.595 192.439 232.708C191.851 232.818 191.306 232.73 190.802 232.446ZM197.997 236.507C197.514 236.234 197.221 235.848 197.118 235.349C197.024 234.841 197.156 234.367 197.516 233.929C197.884 233.481 198.366 233.205 198.963 233.101C199.568 232.987 200.113 233.067 200.596 233.34C201.1 233.625 201.395 234.018 201.479 234.52C201.582 235.019 201.449 235.493 201.082 235.941C200.722 236.379 200.239 236.655 199.634 236.769C199.047 236.879 198.502 236.791 197.997 236.507ZM234.088 256.873C233.604 256.6 233.311 256.215 233.209 255.715C233.114 255.207 233.247 254.734 233.607 254.295C233.974 253.847 234.457 253.571 235.054 253.467C235.659 253.354 236.203 253.434 236.687 253.707C237.191 253.991 237.485 254.385 237.57 254.887C237.672 255.386 237.539 255.859 237.172 256.307C236.812 256.746 236.33 257.022 235.725 257.135C235.138 257.245 234.592 257.158 234.088 256.873ZM241.284 260.934C240.8 260.661 240.507 260.275 240.405 259.776C240.31 259.268 240.442 258.795 240.802 258.356C241.17 257.908 241.652 257.632 242.25 257.528C242.855 257.415 243.399 257.495 243.882 257.768C244.387 258.052 244.681 258.445 244.765 258.948C244.868 259.447 244.735 259.92 244.368 260.368C244.008 260.807 243.525 261.083 242.92 261.196C242.333 261.306 241.788 261.219 241.284 260.934ZM248.479 264.995C247.996 264.722 247.703 264.336 247.6 263.837C247.506 263.329 247.638 262.855 247.998 262.417C248.366 261.969 248.848 261.693 249.445 261.589C250.05 261.476 250.595 261.555 251.078 261.828C251.582 262.113 251.877 262.506 251.961 263.009C252.064 263.508 251.931 263.981 251.564 264.429C251.204 264.867 250.721 265.143 250.116 265.257C249.529 265.367 248.984 265.279 248.479 264.995ZM255.675 269.056C255.192 268.783 254.899 268.397 254.796 267.898C254.701 267.39 254.834 266.916 255.194 266.478C255.561 266.03 256.044 265.754 256.641 265.65C257.246 265.536 257.79 265.616 258.274 265.889C258.778 266.174 259.072 266.567 259.157 267.069C259.259 267.568 259.127 268.042 258.759 268.49C258.399 268.928 257.917 269.204 257.312 269.317C256.725 269.427 256.179 269.34 255.675 269.056ZM291.766 289.422C291.282 289.149 290.989 288.763 290.887 288.264C290.792 287.756 290.924 287.283 291.284 286.844C291.652 286.396 292.134 286.12 292.732 286.016C293.336 285.903 293.881 285.983 294.364 286.256C294.869 286.54 295.163 286.934 295.247 287.436C295.35 287.935 295.217 288.408 294.85 288.856C294.49 289.295 294.007 289.571 293.402 289.684C292.815 289.794 292.27 289.707 291.766 289.422ZM298.961 293.483C298.478 293.21 298.185 292.824 298.082 292.325C297.988 291.817 298.12 291.344 298.48 290.905C298.848 290.457 299.33 290.181 299.927 290.077C300.532 289.964 301.076 290.044 301.56 290.316C302.064 290.601 302.359 290.994 302.443 291.497C302.546 291.996 302.413 292.469 302.046 292.917C301.685 293.356 301.203 293.632 300.598 293.745C300.011 293.855 299.466 293.768 298.961 293.483ZM306.157 297.544C305.673 297.271 305.38 296.885 305.278 296.386C305.183 295.878 305.316 295.404 305.676 294.966C306.043 294.518 306.526 294.242 307.123 294.138C307.728 294.024 308.272 294.104 308.756 294.377C309.26 294.662 309.554 295.055 309.639 295.557C309.741 296.057 309.609 296.53 309.241 296.978C308.881 297.416 308.399 297.692 307.794 297.806C307.207 297.916 306.661 297.828 306.157 297.544ZM313.353 301.605C312.869 301.332 312.576 300.946 312.474 300.447C312.379 299.939 312.512 299.465 312.872 299.026C313.239 298.579 313.722 298.303 314.319 298.198C314.924 298.085 315.468 298.165 315.952 298.438C316.456 298.722 316.75 299.116 316.835 299.618C316.937 300.117 316.805 300.591 316.437 301.038C316.077 301.477 315.595 301.753 314.99 301.866C314.403 301.976 313.857 301.889 313.353 301.605ZM359.553 318.871L353.904 315.683L351.024 319.193C351.543 319.018 352.133 318.969 352.792 319.047C353.458 319.116 354.079 319.312 354.656 319.638C355.499 320.114 356.061 320.658 356.341 321.271C356.629 321.874 356.688 322.49 356.52 323.117C356.359 323.735 356.05 324.322 355.593 324.88C355.068 325.52 354.452 326.021 353.747 326.386C353.06 326.746 352.309 326.918 351.496 326.9C350.692 326.888 349.874 326.647 349.041 326.177C347.981 325.579 347.32 324.852 347.059 323.996C346.806 323.13 346.948 322.241 347.487 321.328L348.552 321.929C348.19 322.608 348.117 323.248 348.33 323.85C348.544 324.452 349.006 324.953 349.716 325.354C350.611 325.859 351.476 326.007 352.311 325.796C353.164 325.582 353.91 325.087 354.547 324.31C355.17 323.551 355.422 322.831 355.304 322.15C355.193 321.459 354.706 320.869 353.842 320.382C353.245 320.045 352.619 319.872 351.964 319.863C351.308 319.855 350.7 320 350.139 320.298L349.12 319.723L353.587 314.281L360.239 318.035L359.553 318.871ZM368.711 326.346C369.46 325.03 369.17 323.998 367.843 323.249C366.835 322.68 365.793 322.6 364.719 323.01C363.645 323.42 362.48 324.427 361.223 326.032C361.879 325.599 362.622 325.39 363.454 325.405C364.303 325.416 365.103 325.634 365.854 326.057C366.934 326.667 367.545 327.446 367.685 328.394C367.843 329.339 367.498 330.328 366.651 331.361C366.156 331.964 365.572 332.437 364.899 332.779C364.244 333.119 363.524 333.28 362.739 333.265C361.964 333.256 361.175 333.024 360.373 332.572C358.839 331.706 358.136 330.674 358.262 329.475C358.398 328.282 359.119 326.89 360.424 325.3C363.199 321.918 365.893 320.965 368.507 322.44C369.494 322.997 370.073 323.678 370.241 324.482C370.417 325.276 370.241 326.086 369.714 326.912L368.711 326.346ZM364.978 326.767C364.495 326.494 363.966 326.322 363.391 326.252C362.816 326.182 362.244 326.246 361.673 326.446C361.121 326.642 360.635 326.996 360.215 327.508C359.607 328.248 359.348 329.005 359.437 329.777C359.526 330.549 360.043 331.202 360.99 331.737C361.782 332.184 362.591 332.326 363.417 332.164C364.243 332.001 364.96 331.55 365.567 330.81C366.22 330.015 366.498 329.262 366.403 328.553C366.307 327.844 365.832 327.249 364.978 326.767ZM367.907 335.66C370.836 335.468 373.223 335.163 375.07 334.748C376.934 334.329 378.26 333.64 379.047 332.68C379.565 332.05 379.797 331.446 379.745 330.868C379.71 330.286 379.291 329.769 378.488 329.316C377.706 328.875 376.919 328.752 376.127 328.947C375.353 329.138 374.644 329.58 374 330.273L372.95 329.681C373.844 328.701 374.839 328.113 375.935 327.915C377.048 327.715 378.124 327.907 379.163 328.494C380.162 329.057 380.763 329.764 380.968 330.615C381.18 331.457 380.911 332.335 380.161 333.249C379.254 334.355 377.853 335.135 375.959 335.591C374.082 336.043 371.983 336.336 369.66 336.469L375.371 339.692L374.707 340.5L367.345 336.346L367.907 335.66ZM383.842 335.045C384.597 334.254 385.493 333.804 386.531 333.695C387.587 333.582 388.635 333.819 389.674 334.405C390.364 334.794 390.865 335.238 391.179 335.736C391.493 336.234 391.616 336.745 391.548 337.268C391.498 337.788 391.278 338.285 390.888 338.761C390.415 339.336 389.816 339.727 389.09 339.932C388.365 340.138 387.611 340.094 386.828 339.799L386.772 339.868C387.398 340.408 387.747 341.019 387.819 341.702C387.898 342.375 387.65 343.064 387.072 343.768C386.427 344.554 385.6 345.029 384.591 345.195C383.599 345.358 382.543 345.123 381.421 344.49C380.351 343.886 379.674 343.143 379.389 342.26C379.112 341.368 379.297 340.437 379.944 339.465L380.994 340.057C380.584 340.721 380.463 341.382 380.632 342.039C380.808 342.686 381.292 343.234 382.085 343.681C382.867 344.122 383.614 344.276 384.325 344.143C385.047 344.015 385.64 343.668 386.105 343.102C387.245 341.713 386.689 340.382 384.435 339.111L384.096 338.919L384.759 338.11L385.114 338.311C387.214 339.495 388.762 339.48 389.759 338.264C390.194 337.734 390.348 337.199 390.219 336.658C390.098 336.109 389.677 335.631 388.957 335.224C388.257 334.829 387.541 334.666 386.808 334.733C386.093 334.798 385.454 335.099 384.892 335.638L383.842 335.045Z" fill="white"/>
<path d="M160.204 252.076C159.681 251.781 159.139 251.703 158.58 251.842C158.025 251.98 157.526 252.318 157.084 252.857C156.63 253.41 156.424 253.921 156.466 254.388C156.513 254.855 156.806 255.241 157.347 255.546C157.68 255.734 158.102 255.895 158.615 256.029L158.261 256.46C157.841 256.384 157.388 256.209 156.904 255.935C156.202 255.539 155.815 255.044 155.743 254.45C155.673 253.857 155.924 253.213 156.496 252.516C156.854 252.08 157.259 251.749 157.711 251.524C158.164 251.301 158.637 251.197 159.128 251.215C159.621 251.233 160.103 251.375 160.572 251.64C161.072 251.922 161.442 252.25 161.683 252.622L161.101 252.913C160.864 252.559 160.565 252.28 160.204 252.076ZM161.328 258.347L161.591 257.835L161.565 257.82C161.224 257.919 160.935 257.953 160.698 257.924C160.465 257.894 160.216 257.804 159.951 257.655C159.597 257.455 159.385 257.217 159.316 256.941C159.249 256.666 159.339 256.379 159.584 256.08C160.11 255.439 160.962 255.429 162.141 256.049L162.762 256.374L162.923 256.177C163.128 255.928 163.217 255.711 163.192 255.524C163.171 255.337 163.028 255.169 162.763 255.019C162.465 254.851 162.062 254.742 161.553 254.692L161.688 254.231C161.934 254.245 162.181 254.287 162.429 254.357C162.679 254.427 162.91 254.522 163.121 254.641C163.547 254.881 163.793 255.143 163.859 255.426C163.928 255.711 163.81 256.038 163.506 256.408L161.729 258.574L161.328 258.347ZM160.384 257.319C160.721 257.509 161.052 257.576 161.378 257.52C161.706 257.465 161.991 257.29 162.233 256.995L162.469 256.708L161.911 256.423C161.47 256.194 161.11 256.078 160.832 256.077C160.557 256.074 160.329 256.184 160.147 256.406C160.004 256.579 159.954 256.745 159.997 256.902C160.042 257.06 160.171 257.199 160.384 257.319ZM167.127 256.894C167.286 256.983 167.419 257.075 167.526 257.169L167.085 257.573C166.961 257.46 166.843 257.372 166.73 257.309C166.441 257.146 166.108 257.11 165.73 257.202C165.355 257.295 165.04 257.497 164.785 257.808L163.388 259.51L162.847 259.204L165.45 256.032L165.897 256.284L165.477 256.906L165.503 256.921C165.805 256.79 166.095 256.72 166.374 256.714C166.652 256.707 166.904 256.767 167.127 256.894ZM168.352 261.688L168.323 261.672C167.808 261.853 167.302 261.803 166.805 261.523C166.338 261.259 166.09 260.912 166.062 260.481C166.036 260.051 166.238 259.575 166.667 259.052C167.096 258.529 167.56 258.197 168.058 258.054C168.557 257.912 169.038 257.972 169.503 258.234C169.988 258.508 170.231 258.874 170.233 259.332L170.275 259.356L170.44 259.115L170.61 258.884L171.67 257.593L172.211 257.899L168.514 262.403L168.074 262.154L168.352 261.688ZM167.203 261.159C167.573 261.367 167.913 261.429 168.224 261.345C168.538 261.26 168.859 261.019 169.185 260.621L169.268 260.52C169.637 260.07 169.815 259.702 169.802 259.415C169.794 259.128 169.604 258.88 169.235 258.672C168.918 258.493 168.584 258.465 168.234 258.59C167.888 258.713 167.551 258.975 167.223 259.374C166.891 259.78 166.723 260.133 166.721 260.433C166.719 260.734 166.88 260.976 167.203 261.159ZM175.098 266.118L174.543 265.805L176.178 263.814L173.668 262.397L172.034 264.389L171.48 264.076L174.953 259.844L175.507 260.157L174.029 261.957L176.539 263.374L178.016 261.573L178.57 261.886L175.098 266.118ZM180.713 266.962C180.289 267.479 179.81 267.8 179.278 267.926C178.747 268.05 178.223 267.966 177.706 267.674C177.387 267.494 177.158 267.268 177.019 266.995C176.881 266.722 176.847 266.423 176.916 266.098C176.986 265.773 177.158 265.444 177.431 265.11C177.856 264.593 178.332 264.272 178.859 264.149C179.387 264.024 179.91 264.107 180.427 264.399C180.927 264.681 181.202 265.053 181.254 265.513C181.307 265.975 181.127 266.458 180.713 266.962ZM177.992 265.426C177.659 265.831 177.497 266.192 177.506 266.507C177.514 266.822 177.695 267.08 178.049 267.279C178.403 267.479 178.758 267.526 179.113 267.418C179.472 267.31 179.819 267.053 180.153 266.645C180.484 266.242 180.642 265.884 180.629 265.572C180.619 265.258 180.435 265 180.076 264.798C179.722 264.598 179.37 264.551 179.02 264.655C178.671 264.76 178.328 265.017 177.992 265.426ZM180.902 269.393L180.361 269.088L184.057 264.584L184.598 264.889L180.902 269.393ZM184.829 270.987L184.8 270.97C184.286 271.152 183.78 271.102 183.282 270.821C182.815 270.558 182.568 270.21 182.54 269.78C182.514 269.35 182.716 268.874 183.145 268.351C183.574 267.828 184.038 267.495 184.536 267.353C185.034 267.211 185.516 267.271 185.981 267.533C186.465 267.806 186.708 268.172 186.71 268.631L186.753 268.655L186.918 268.413L187.088 268.183L188.147 266.892L188.688 267.197L184.992 271.701L184.552 271.453L184.829 270.987ZM183.681 270.457C184.05 270.666 184.39 270.728 184.701 270.644C185.016 270.559 185.336 270.317 185.662 269.92L185.745 269.818C186.114 269.369 186.293 269.001 186.28 268.714C186.271 268.427 186.082 268.179 185.712 267.97C185.395 267.791 185.062 267.764 184.712 267.888C184.365 268.012 184.028 268.273 183.701 268.673C183.368 269.078 183.201 269.431 183.198 269.732C183.196 270.033 183.357 270.275 183.681 270.457ZM187.604 273.26C187.076 272.962 186.776 272.584 186.704 272.125C186.634 271.668 186.807 271.186 187.224 270.678C187.643 270.167 188.118 269.84 188.648 269.699C189.179 269.558 189.684 269.623 190.162 269.893C190.61 270.145 190.856 270.476 190.901 270.886C190.948 271.293 190.796 271.711 190.444 272.14L190.195 272.444L187.734 271.055C187.44 271.434 187.313 271.776 187.355 272.082C187.398 272.389 187.603 272.645 187.968 272.851C188.352 273.068 188.791 273.211 189.284 273.281L188.933 273.709C188.681 273.675 188.457 273.624 188.26 273.558C188.064 273.495 187.845 273.396 187.604 273.26ZM189.825 270.291C189.539 270.129 189.241 270.083 188.933 270.152C188.628 270.222 188.339 270.396 188.068 270.672L189.936 271.726C190.184 271.423 190.298 271.148 190.278 270.902C190.259 270.654 190.108 270.451 189.825 270.291ZM194.171 272.155C194.329 272.244 194.462 272.336 194.569 272.43L194.128 272.834C194.004 272.722 193.886 272.634 193.773 272.57C193.484 272.407 193.151 272.371 192.773 272.463C192.398 272.556 192.083 272.758 191.828 273.069L190.431 274.771L189.89 274.465L192.494 271.293L192.94 271.545L192.52 272.168L192.546 272.182C192.848 272.051 193.138 271.982 193.417 271.975C193.696 271.969 193.947 272.028 194.171 272.155Z" fill="#B6BFD9"/>
<path d="M341.627 360.156L338.971 358.657L342.444 354.425L345.1 355.924L344.742 356.361L342.64 355.175L341.521 356.538L343.496 357.653L343.139 358.087L341.164 356.972L339.886 358.53L341.989 359.716L341.627 360.156ZM344.798 359.569L344.827 357.32L345.443 357.668L345.387 359.415L347.324 358.729L347.933 359.073L345.421 359.921L345.395 362.282L344.782 361.936L344.836 360.086L342.771 360.801L342.159 360.456L344.798 359.569ZM347.72 363.679C347.487 363.547 347.305 363.39 347.174 363.205C347.046 363.02 346.982 362.812 346.981 362.58L346.942 362.558C346.816 362.758 346.685 362.941 346.549 363.107L345.478 364.412L344.937 364.107L348.709 359.51L349.149 359.759L348.867 360.235L348.893 360.25C349.175 360.155 349.44 360.121 349.688 360.148C349.936 360.175 350.179 360.256 350.418 360.39C350.892 360.658 351.139 361.008 351.159 361.44C351.182 361.873 350.98 362.349 350.554 362.868C350.127 363.389 349.663 363.721 349.162 363.862C348.666 364.002 348.185 363.941 347.72 363.679ZM350.005 360.754C349.64 360.548 349.303 360.489 348.992 360.577C348.682 360.664 348.364 360.903 348.038 361.292L347.95 361.399C347.585 361.845 347.406 362.211 347.415 362.499C347.426 362.784 347.616 363.031 347.985 363.24C348.293 363.414 348.626 363.439 348.982 363.315C349.34 363.192 349.679 362.936 349.999 362.546C350.323 362.151 350.484 361.798 350.48 361.489C350.481 361.178 350.322 360.933 350.005 360.754ZM350.74 365.298L350.199 364.993L352.802 361.82L353.343 362.126L350.74 365.298ZM353.462 360.935C353.552 360.825 353.648 360.762 353.75 360.746C353.854 360.728 353.951 360.745 354.043 360.797C354.13 360.846 354.183 360.914 354.203 361.002C354.224 361.089 354.189 361.187 354.101 361.295C354.012 361.403 353.914 361.467 353.807 361.485C353.701 361.502 353.605 361.486 353.518 361.436C353.426 361.385 353.372 361.316 353.354 361.23C353.337 361.141 353.373 361.043 353.462 360.935ZM356.167 363.635C356.326 363.724 356.459 363.816 356.566 363.91L356.125 364.314C356.001 364.201 355.882 364.113 355.769 364.05C355.48 363.887 355.147 363.851 354.77 363.943C354.395 364.036 354.079 364.238 353.824 364.549L352.428 366.251L351.887 365.945L354.49 362.773L354.937 363.025L354.516 363.648L354.542 363.662C354.844 363.531 355.135 363.461 355.414 363.455C355.692 363.449 355.943 363.508 356.167 363.635ZM356.073 368.392C355.545 368.094 355.245 367.716 355.173 367.258C355.103 366.8 355.276 366.318 355.693 365.811C356.112 365.299 356.587 364.973 357.117 364.831C357.648 364.691 358.153 364.755 358.631 365.025C359.079 365.278 359.325 365.609 359.37 366.018C359.417 366.426 359.265 366.844 358.913 367.272L358.664 367.576L356.203 366.188C355.909 366.566 355.782 366.908 355.824 367.214C355.867 367.521 356.072 367.778 356.437 367.984C356.821 368.201 357.26 368.344 357.753 368.413L357.402 368.842C357.15 368.807 356.926 368.757 356.729 368.691C356.533 368.628 356.314 368.528 356.073 368.392ZM358.294 365.424C358.008 365.262 357.71 365.216 357.402 365.285C357.097 365.355 356.808 365.528 356.537 365.804L358.405 366.858C358.653 366.555 358.767 366.281 358.747 366.035C358.728 365.787 358.577 365.583 358.294 365.424ZM361.373 370.033C361.131 370.328 360.82 370.486 360.441 370.506C360.062 370.527 359.649 370.41 359.201 370.158C358.728 369.891 358.413 369.616 358.257 369.333L358.623 368.887C358.731 369.061 358.865 369.226 359.024 369.38C359.185 369.536 359.357 369.666 359.54 369.769C359.822 369.928 360.072 370.011 360.289 370.018C360.508 370.023 360.684 369.943 360.819 369.779C360.92 369.655 360.946 369.516 360.895 369.36C360.849 369.204 360.699 368.968 360.448 368.651C360.206 368.353 360.047 368.124 359.973 367.963C359.902 367.802 359.874 367.649 359.89 367.506C359.908 367.364 359.977 367.22 360.095 367.075C360.308 366.817 360.593 366.68 360.952 366.665C361.312 366.648 361.699 366.756 362.112 366.989C362.496 367.206 362.815 367.488 363.068 367.834L362.555 368.116C362.304 367.783 362.033 367.534 361.742 367.37C361.486 367.225 361.263 367.151 361.074 367.149C360.885 367.147 360.739 367.209 360.637 367.334C360.567 367.419 360.531 367.505 360.53 367.592C360.531 367.68 360.564 367.781 360.628 367.897C360.692 368.012 360.837 368.208 361.061 368.484C361.372 368.86 361.545 369.16 361.579 369.382C361.614 369.605 361.546 369.822 361.373 370.033Z" fill="#32D989"/>
<path d="M151.175 265.012L151.687 263.331L149.777 262.253L148.086 263.268L147.525 262.952L152.896 259.766L153.362 260.029L151.749 265.335L151.175 265.012ZM151.877 262.791L152.4 261.167C152.464 260.96 152.557 260.715 152.679 260.431C152.479 260.589 152.244 260.754 151.973 260.926L150.336 261.921L151.877 262.791ZM152.863 265.964L152.322 265.659L156.019 261.155L156.56 261.461L152.863 265.964ZM158.319 264.325C158.788 264.59 159.035 264.938 159.059 265.37C159.087 265.801 158.887 266.276 158.46 266.797C158.032 267.318 157.568 267.649 157.068 267.791C156.571 267.931 156.09 267.87 155.625 267.608C155.393 267.476 155.211 267.319 155.079 267.134C154.951 266.949 154.887 266.741 154.887 266.509L154.847 266.487L154.398 266.831L154.011 266.612L157.707 262.108L158.248 262.413L157.35 263.507C157.149 263.752 156.96 263.967 156.782 264.153L156.808 264.167C157.32 263.993 157.824 264.046 158.319 264.325ZM157.911 264.683C157.541 264.475 157.197 264.419 156.879 264.517C156.563 264.612 156.222 264.882 155.856 265.328C155.49 265.774 155.312 266.14 155.32 266.428C155.331 266.713 155.521 266.96 155.89 267.168C156.223 267.356 156.558 267.389 156.897 267.267C157.237 267.142 157.573 266.879 157.904 266.475C158.243 266.062 158.414 265.709 158.417 265.414C158.421 265.119 158.252 264.876 157.911 264.683ZM159.565 269.831C159.037 269.533 158.737 269.155 158.665 268.696C158.596 268.239 158.769 267.757 159.186 267.249C159.605 266.738 160.08 266.412 160.609 266.27C161.141 266.129 161.646 266.194 162.124 266.464C162.571 266.716 162.818 267.048 162.863 267.457C162.91 267.865 162.758 268.283 162.406 268.711L162.157 269.015L159.696 267.626C159.401 268.005 159.275 268.347 159.316 268.653C159.36 268.96 159.564 269.216 159.929 269.422C160.314 269.639 160.753 269.783 161.246 269.852L160.894 270.28C160.643 270.246 160.419 270.195 160.222 270.129C160.025 270.067 159.807 269.967 159.565 269.831ZM161.787 266.863C161.5 266.701 161.203 266.654 160.895 266.723C160.589 266.794 160.301 266.967 160.03 267.243L161.897 268.297C162.146 267.994 162.26 267.719 162.239 267.473C162.22 267.226 162.069 267.022 161.787 266.863ZM166.132 268.726C166.291 268.815 166.424 268.907 166.531 269.002L166.09 269.405C165.966 269.293 165.847 269.205 165.734 269.141C165.446 268.978 165.112 268.942 164.735 269.034C164.36 269.127 164.045 269.329 163.79 269.64L162.393 271.342L161.852 271.037L164.455 267.864L164.902 268.116L164.481 268.739L164.508 268.754C164.81 268.622 165.1 268.553 165.379 268.546C165.657 268.54 165.908 268.6 166.132 268.726ZM166.008 272.887C166.104 272.941 166.201 272.987 166.299 273.026C166.399 273.062 166.481 273.089 166.544 273.105L166.243 273.472C166.163 273.464 166.06 273.435 165.932 273.386C165.805 273.339 165.696 273.29 165.604 273.239C164.913 272.849 164.833 272.331 165.364 271.685L166.912 269.797L166.401 269.509L166.591 269.277L167.266 269.366L168.05 268.817L168.363 268.994L167.76 269.729L168.796 270.314L168.49 270.687L167.453 270.103L165.921 271.97C165.765 272.161 165.695 272.336 165.713 272.496C165.732 272.656 165.83 272.786 166.008 272.887ZM173.953 272.229C173.429 271.933 172.888 271.855 172.329 271.994C171.773 272.132 171.275 272.471 170.833 273.009C170.378 273.563 170.172 274.074 170.215 274.541C170.261 275.007 170.555 275.393 171.096 275.699C171.428 275.886 171.851 276.047 172.364 276.181L172.01 276.612C171.589 276.536 171.137 276.361 170.652 276.088C169.951 275.692 169.564 275.197 169.492 274.603C169.422 274.01 169.673 273.365 170.245 272.669C170.602 272.233 171.007 271.902 171.459 271.677C171.913 271.453 172.385 271.35 172.877 271.367C173.37 271.386 173.851 271.528 174.321 271.793C174.82 272.075 175.19 272.402 175.431 272.775L174.85 273.065C174.612 272.711 174.314 272.432 173.953 272.229ZM177.267 277.411C176.843 277.928 176.365 278.25 175.832 278.376C175.301 278.499 174.777 278.416 174.26 278.124C173.941 277.943 173.712 277.717 173.573 277.444C173.435 277.171 173.401 276.872 173.47 276.547C173.54 276.222 173.712 275.893 173.986 275.559C174.41 275.042 174.886 274.722 175.413 274.598C175.941 274.473 176.464 274.557 176.981 274.848C177.481 275.13 177.757 275.502 177.808 275.963C177.861 276.425 177.681 276.907 177.267 277.411ZM174.546 275.875C174.214 276.281 174.051 276.641 174.06 276.956C174.068 277.271 174.249 277.529 174.603 277.729C174.958 277.929 175.312 277.975 175.667 277.868C176.026 277.759 176.373 277.502 176.707 277.095C177.038 276.691 177.196 276.333 177.183 276.021C177.173 275.707 176.989 275.45 176.63 275.247C176.276 275.048 175.924 275 175.574 275.105C175.225 275.209 174.882 275.466 174.546 275.875ZM181.195 277.226C181.354 277.316 181.487 277.408 181.594 277.502L181.153 277.906C181.029 277.793 180.911 277.705 180.798 277.641C180.509 277.478 180.175 277.443 179.798 277.535C179.423 277.628 179.108 277.83 178.853 278.14L177.456 279.842L176.915 279.537L179.518 276.365L179.965 276.617L179.545 277.239L179.571 277.254C179.873 277.122 180.163 277.053 180.442 277.047C180.72 277.04 180.972 277.1 181.195 277.226ZM181.071 281.387C181.167 281.441 181.264 281.487 181.362 281.526C181.462 281.563 181.544 281.589 181.607 281.605L181.306 281.973C181.226 281.965 181.123 281.936 180.995 281.886C180.868 281.84 180.759 281.791 180.667 281.739C179.976 281.35 179.896 280.831 180.427 280.185L181.976 278.298L181.464 278.009L181.654 277.777L182.329 277.866L183.113 277.318L183.426 277.494L182.823 278.23L183.859 278.814L183.553 279.188L182.517 278.603L180.984 280.47C180.828 280.661 180.758 280.836 180.776 280.996C180.795 281.156 180.893 281.287 181.071 281.387ZM182.54 282.711L181.999 282.406L184.602 279.234L185.143 279.539L182.54 282.711ZM185.262 278.348C185.353 278.238 185.449 278.175 185.551 278.16C185.654 278.142 185.752 278.159 185.843 278.21C185.93 278.259 185.983 278.328 186.004 278.415C186.024 278.503 185.99 278.601 185.901 278.709C185.812 278.817 185.714 278.88 185.607 278.899C185.501 278.915 185.405 278.899 185.318 278.85C185.227 278.798 185.172 278.729 185.154 278.643C185.137 278.555 185.174 278.456 185.262 278.348ZM186.701 283.794C186.459 284.089 186.148 284.247 185.769 284.267C185.39 284.287 184.977 284.171 184.529 283.919C184.056 283.652 183.741 283.377 183.585 283.094L183.951 282.648C184.059 282.822 184.193 282.986 184.352 283.141C184.513 283.297 184.685 283.427 184.868 283.53C185.15 283.689 185.4 283.772 185.617 283.779C185.835 283.784 186.012 283.704 186.147 283.54C186.248 283.416 186.274 283.277 186.223 283.121C186.176 282.965 186.027 282.729 185.776 282.412C185.534 282.114 185.375 281.885 185.3 281.724C185.229 281.563 185.202 281.41 185.218 281.267C185.236 281.125 185.305 280.981 185.423 280.836C185.636 280.578 185.921 280.441 186.28 280.426C186.64 280.409 187.027 280.517 187.44 280.75C187.824 280.967 188.143 281.249 188.396 281.595L187.883 281.877C187.632 281.544 187.361 281.295 187.07 281.13C186.814 280.986 186.591 280.912 186.402 280.91C186.213 280.908 186.067 280.97 185.964 281.095C185.895 281.18 185.859 281.266 185.858 281.353C185.859 281.441 185.891 281.542 185.956 281.658C186.02 281.773 186.164 281.969 186.389 282.245C186.7 282.621 186.873 282.921 186.906 283.143C186.942 283.366 186.874 283.583 186.701 283.794Z" fill="white"/>
<path d="M337.029 371.305L336.501 371.007L338.976 367.991C339.182 367.74 339.385 367.508 339.587 367.294C339.508 367.309 339.422 367.322 339.329 367.335C339.236 367.347 338.823 367.39 338.09 367.462L338.074 366.97L340.046 366.816L340.502 367.073L337.029 371.305ZM343.967 371.671C342.608 373.327 341.207 373.748 339.765 372.934C339.513 372.792 339.328 372.659 339.212 372.537L339.552 372.124C339.685 372.272 339.862 372.408 340.083 372.534C340.605 372.828 341.115 372.907 341.615 372.771C342.118 372.634 342.625 372.276 343.135 371.697L343.096 371.675C342.845 371.768 342.585 371.801 342.318 371.774C342.052 371.746 341.796 371.662 341.548 371.522C341.126 371.284 340.884 370.983 340.82 370.62C340.756 370.256 340.888 369.874 341.218 369.472C341.579 369.032 342.002 368.763 342.487 368.664C342.974 368.566 343.443 368.645 343.895 368.9C344.219 369.082 344.441 369.316 344.56 369.601C344.683 369.885 344.693 370.205 344.591 370.562C344.49 370.918 344.282 371.287 343.967 371.671ZM343.558 369.311C343.247 369.135 342.934 369.089 342.619 369.17C342.304 369.252 342.017 369.452 341.757 369.768C341.529 370.046 341.427 370.309 341.452 370.558C341.479 370.804 341.652 371.017 341.971 371.198C342.169 371.309 342.38 371.376 342.603 371.398C342.829 371.421 343.041 371.397 343.238 371.328C343.435 371.258 343.589 371.156 343.699 371.021C343.866 370.818 343.975 370.606 344.027 370.384C344.079 370.162 344.064 369.956 343.984 369.767C343.907 369.579 343.764 369.427 343.558 369.311ZM348.193 371.414L342.944 374.643L342.403 374.338L347.652 371.109L348.193 371.414ZM348.246 377.636L345.114 375.868L345.454 375.454L347.628 375.042C348.292 374.914 348.746 374.812 348.988 374.734C349.23 374.656 349.438 374.564 349.613 374.46C349.788 374.355 349.941 374.223 350.072 374.063C350.258 373.837 350.327 373.615 350.28 373.396C350.235 373.176 350.076 372.989 349.802 372.834C349.605 372.723 349.393 372.646 349.167 372.603C348.944 372.562 348.661 372.556 348.318 372.586L348.3 372.097C349.005 372.02 349.616 372.128 350.133 372.42C350.581 372.672 350.848 372.973 350.934 373.321C351.022 373.667 350.925 374.011 350.643 374.355C350.423 374.623 350.12 374.841 349.736 375.007C349.351 375.174 348.761 375.327 347.967 375.466L346.18 375.784L346.161 375.807L348.612 377.19L348.246 377.636ZM352.066 379.791L348.934 378.024L349.274 377.61L351.448 377.198C352.112 377.07 352.565 376.967 352.807 376.889C353.049 376.811 353.258 376.72 353.432 376.615C353.607 376.511 353.76 376.378 353.892 376.218C354.077 375.992 354.147 375.77 354.1 375.552C354.055 375.332 353.896 375.144 353.622 374.99C353.424 374.878 353.212 374.801 352.987 374.759C352.763 374.717 352.48 374.711 352.138 374.741L352.12 374.252C352.825 374.176 353.436 374.283 353.953 374.575C354.4 374.828 354.667 375.128 354.753 375.476C354.841 375.822 354.744 376.167 354.463 376.51C354.242 376.779 353.94 376.996 353.555 377.163C353.17 377.33 352.581 377.483 351.786 377.622L350 377.939L349.981 377.962L352.432 379.345L352.066 379.791Z" fill="white"/>
<g clip-path="url(#clip2_789_0)" filter="url(#filter1_dddd_789_0)">
<rect width="296.973" height="192.771" rx="12.7763" transform="matrix(0.886896 -0.46172 0.681582 0.731956 53.8828 145.488)" fill="white"/>
<path d="M156.227 205.086C155.758 205.33 155.228 205.404 154.636 205.309C154.037 205.206 153.553 204.957 153.185 204.562C152.81 204.158 152.665 203.733 152.751 203.285C152.83 202.828 153.103 202.478 153.572 202.234C154.06 201.98 154.6 201.907 155.189 202.015C155.781 202.111 156.265 202.36 156.64 202.763C157.008 203.158 157.153 203.584 157.074 204.04C156.998 204.483 156.716 204.831 156.227 205.086ZM163.2 201.456C162.732 201.7 162.201 201.774 161.61 201.679C161.01 201.576 160.526 201.326 160.158 200.931C159.783 200.528 159.638 200.103 159.724 199.654C159.803 199.198 160.076 198.848 160.545 198.604C161.034 198.35 161.573 198.277 162.162 198.385C162.754 198.48 163.238 198.729 163.614 199.133C163.981 199.528 164.126 199.953 164.048 200.41C163.971 200.853 163.689 201.201 163.2 201.456ZM170.174 197.825C169.705 198.069 169.175 198.144 168.583 198.049C167.983 197.945 167.5 197.696 167.132 197.301C166.756 196.898 166.612 196.472 166.698 196.024C166.776 195.568 167.05 195.218 167.518 194.974C168.007 194.719 168.546 194.646 169.136 194.755C169.728 194.85 170.211 195.099 170.587 195.502C170.955 195.897 171.099 196.323 171.021 196.779C170.945 197.222 170.662 197.571 170.174 197.825ZM177.147 194.195C176.678 194.439 176.148 194.513 175.556 194.418C174.956 194.315 174.473 194.066 174.105 193.671C173.729 193.268 173.585 192.842 173.671 192.394C173.749 191.938 174.023 191.587 174.492 191.343C174.98 191.089 175.519 191.016 176.109 191.125C176.701 191.22 177.185 191.469 177.56 191.872C177.928 192.267 178.073 192.693 177.994 193.149C177.918 193.592 177.636 193.941 177.147 194.195ZM212.121 175.987C211.653 176.231 211.122 176.306 210.53 176.211C209.931 176.107 209.447 175.858 209.079 175.463C208.704 175.06 208.559 174.634 208.645 174.186C208.724 173.73 208.997 173.38 209.466 173.136C209.955 172.881 210.494 172.808 211.083 172.917C211.675 173.012 212.159 173.261 212.534 173.664C212.902 174.059 213.047 174.485 212.968 174.941C212.892 175.384 212.61 175.733 212.121 175.987ZM219.094 172.357C218.626 172.601 218.096 172.675 217.504 172.58C216.904 172.477 216.42 172.228 216.052 171.833C215.677 171.43 215.532 171.004 215.618 170.556C215.697 170.1 215.971 169.749 216.439 169.505C216.928 169.251 217.467 169.178 218.057 169.287C218.648 169.382 219.132 169.631 219.508 170.034C219.875 170.429 220.02 170.855 219.942 171.311C219.865 171.754 219.583 172.103 219.094 172.357ZM226.068 168.727C225.599 168.971 225.069 169.045 224.477 168.95C223.877 168.847 223.394 168.598 223.026 168.203C222.65 167.799 222.506 167.374 222.592 166.926C222.67 166.469 222.944 166.119 223.412 165.875C223.901 165.621 224.44 165.548 225.03 165.656C225.622 165.751 226.105 166.001 226.481 166.404C226.849 166.799 226.993 167.225 226.915 167.681C226.839 168.124 226.556 168.472 226.068 168.727ZM233.041 165.096C232.572 165.34 232.042 165.415 231.45 165.32C230.851 165.216 230.367 164.967 229.999 164.572C229.623 164.169 229.479 163.743 229.565 163.295C229.643 162.839 229.917 162.489 230.386 162.245C230.874 161.991 231.413 161.918 232.003 162.026C232.595 162.121 233.079 162.37 233.454 162.774C233.822 163.169 233.967 163.594 233.888 164.051C233.812 164.493 233.53 164.842 233.041 165.096ZM268.015 146.889C267.547 147.133 267.016 147.207 266.424 147.112C265.825 147.009 265.341 146.76 264.973 146.365C264.598 145.961 264.453 145.536 264.539 145.088C264.618 144.631 264.891 144.281 265.36 144.037C265.849 143.783 266.388 143.71 266.977 143.818C267.569 143.913 268.053 144.163 268.428 144.566C268.796 144.961 268.941 145.387 268.862 145.843C268.786 146.286 268.504 146.634 268.015 146.889ZM274.989 143.258C274.52 143.502 273.99 143.577 273.398 143.482C272.798 143.378 272.314 143.129 271.947 142.734C271.571 142.331 271.426 141.905 271.513 141.457C271.591 141.001 271.865 140.651 272.333 140.407C272.822 140.153 273.361 140.08 273.951 140.188C274.542 140.283 275.026 140.532 275.402 140.936C275.77 141.331 275.914 141.756 275.836 142.213C275.76 142.655 275.477 143.004 274.989 143.258ZM281.962 139.628C281.493 139.872 280.963 139.947 280.371 139.851C279.771 139.748 279.288 139.499 278.92 139.104C278.544 138.701 278.4 138.275 278.486 137.827C278.564 137.371 278.838 137.021 279.307 136.777C279.795 136.522 280.334 136.449 280.924 136.558C281.516 136.653 281.999 136.902 282.375 137.305C282.743 137.7 282.887 138.126 282.809 138.582C282.733 139.025 282.45 139.374 281.962 139.628ZM288.935 135.998C288.466 136.242 287.936 136.316 287.344 136.221C286.745 136.118 286.261 135.869 285.893 135.474C285.518 135.07 285.373 134.645 285.459 134.197C285.538 133.74 285.811 133.39 286.28 133.146C286.768 132.892 287.307 132.819 287.897 132.928C288.489 133.023 288.973 133.272 289.348 133.675C289.716 134.07 289.861 134.496 289.782 134.952C289.706 135.395 289.424 135.743 288.935 135.998ZM322.247 119.535L321.638 118.881L321.45 109.998L322.692 109.351L328.232 115.301L329.833 114.468L330.534 115.221L328.933 116.054L330.887 118.153L329.855 118.69L327.901 116.592L322.247 119.535ZM322.59 110.816L322.758 118.151L327.245 115.815L322.59 110.816ZM333.047 104.987L327.573 107.837L330.515 110.997C330.496 110.579 330.642 110.155 330.952 109.725C331.254 109.287 331.685 108.922 332.243 108.631C333.061 108.206 333.859 107.998 334.638 108.008C335.41 108.009 336.117 108.172 336.76 108.497C337.395 108.814 337.947 109.224 338.414 109.726C338.951 110.302 339.303 110.894 339.47 111.504C339.64 112.099 339.577 112.676 339.282 113.233C338.996 113.785 338.45 114.271 337.642 114.692C336.615 115.226 335.579 115.442 334.535 115.338C333.483 115.225 332.538 114.831 331.701 114.155L332.733 113.618C333.369 114.093 334.059 114.357 334.803 114.41C335.548 114.462 336.264 114.309 336.952 113.951C337.82 113.499 338.277 112.949 338.325 112.301C338.376 111.64 338.075 110.959 337.424 110.26C336.788 109.577 336.069 109.163 335.268 109.018C334.459 108.864 333.636 109.006 332.798 109.442C332.22 109.743 331.815 110.119 331.583 110.57C331.351 111.02 331.307 111.489 331.45 111.977L330.463 112.491L325.899 107.59L332.346 104.234L333.047 104.987ZM343.002 101.912C341.786 100.956 340.535 100.813 339.249 101.483C338.272 101.992 337.83 102.686 337.924 103.566C338.018 104.446 338.747 105.587 340.113 106.99C339.853 106.392 339.871 105.808 340.169 105.238C340.469 104.654 340.984 104.173 341.711 103.794C342.758 103.249 343.835 103.085 344.942 103.303C346.05 103.508 347.037 104.076 347.903 105.006C348.409 105.549 348.739 106.11 348.894 106.689C349.051 107.255 348.988 107.807 348.704 108.346C348.431 108.879 347.905 109.348 347.128 109.753C345.642 110.527 344.251 110.67 342.954 110.185C341.668 109.693 340.358 108.732 339.025 107.3C336.189 104.255 336.038 102.073 338.571 100.755C339.528 100.256 340.484 100.083 341.439 100.233C342.386 100.376 343.231 100.767 343.974 101.406L343.002 101.912ZM342.207 104.635C341.738 104.879 341.367 105.189 341.094 105.563C340.821 105.937 340.699 106.355 340.729 106.816C340.76 107.264 340.991 107.718 341.42 108.179C342.041 108.846 342.797 109.277 343.69 109.472C344.582 109.667 345.487 109.526 346.405 109.048C347.172 108.649 347.606 108.136 347.704 107.51C347.803 106.885 347.542 106.239 346.921 105.572C346.254 104.856 345.509 104.413 344.684 104.244C343.86 104.074 343.034 104.205 342.207 104.635ZM350.279 101.239C349.508 101.397 348.793 101.384 348.134 101.201C347.486 101.014 346.928 100.669 346.46 100.167C346.046 99.7223 345.813 99.2572 345.761 98.7714C345.71 98.2722 345.857 97.7862 346.202 97.3136C346.539 96.8327 347.076 96.4002 347.814 96.0161C348.552 95.6319 349.281 95.4051 350.001 95.3357C350.714 95.2581 351.369 95.3262 351.968 95.5399C352.569 95.7402 353.076 96.0625 353.49 96.5069C353.95 97.0007 354.184 97.5142 354.192 98.0477C354.21 98.5759 353.983 99.0791 353.51 99.5573C354.319 99.3442 355.101 99.3339 355.858 99.5265C356.614 99.719 357.257 100.099 357.786 100.667C358.276 101.194 358.546 101.738 358.595 102.299C358.646 102.847 358.482 103.378 358.103 103.893C357.734 104.403 357.17 104.855 356.412 105.25C355.654 105.644 354.887 105.885 354.109 105.972C353.341 106.054 352.618 105.985 351.939 105.764C351.262 105.53 350.678 105.149 350.188 104.623C349.659 104.055 349.405 103.472 349.426 102.875C349.447 102.277 349.732 101.732 350.279 101.239ZM352.565 97.1351C352.059 96.592 351.444 96.2891 350.719 96.2264C349.995 96.1638 349.249 96.3323 348.481 96.732C347.713 97.1317 347.243 97.5965 347.07 98.1264C346.889 98.648 347.056 99.1846 347.569 99.7359C348.044 100.246 348.653 100.534 349.395 100.6C350.138 100.666 350.883 100.504 351.63 100.114C352.378 99.725 352.84 99.2587 353.015 98.7154C353.19 98.1721 353.04 97.6454 352.565 97.1351ZM352.251 100.781C351.433 101.207 350.907 101.707 350.672 102.281C350.437 102.856 350.607 103.451 351.182 104.069C351.734 104.661 352.416 104.996 353.229 105.074C354.041 105.152 354.876 104.968 355.734 104.521C356.582 104.08 357.098 103.561 357.282 102.964C357.459 102.359 357.275 101.764 356.731 101.18C356.164 100.571 355.479 100.249 354.677 100.214C353.878 100.166 353.069 100.355 352.251 100.781Z" fill="#1D212A"/>
<path d="M175.654 228.404C175.085 228.7 174.781 229.091 174.743 229.577C174.705 230.059 174.939 230.572 175.445 231.116C175.966 231.675 176.527 232.025 177.128 232.166C177.729 232.304 178.324 232.22 178.912 231.914C179.273 231.726 179.635 231.458 179.998 231.11L180.404 231.546C180.148 231.844 179.757 232.13 179.231 232.404C178.468 232.801 177.702 232.916 176.931 232.751C176.162 232.584 175.45 232.149 174.795 231.446C174.385 231.005 174.125 230.568 174.015 230.133C173.907 229.698 173.958 229.293 174.166 228.918C174.377 228.542 174.737 228.221 175.247 227.956C175.79 227.673 176.341 227.508 176.899 227.46L177.041 228.02C176.508 228.072 176.045 228.2 175.654 228.404ZM183.932 229.869L183.391 229.474L183.362 229.489C183.356 229.791 183.289 230.028 183.163 230.201C183.037 230.37 182.83 230.53 182.542 230.68C182.157 230.88 181.779 230.956 181.407 230.906C181.037 230.856 180.712 230.68 180.43 230.378C179.828 229.731 180.139 229.065 181.364 228.382L182.006 228.021L181.821 227.823C181.587 227.571 181.349 227.421 181.106 227.371C180.863 227.317 180.598 227.366 180.31 227.516C179.987 227.684 179.697 227.956 179.441 228.333L178.915 228.055C179.026 227.87 179.173 227.694 179.354 227.528C179.538 227.36 179.744 227.216 179.973 227.097C180.435 226.856 180.857 226.763 181.236 226.816C181.619 226.869 181.984 227.083 182.332 227.457L184.368 229.643L183.932 229.869ZM182.286 230.219C182.652 230.028 182.861 229.796 182.915 229.522C182.971 229.247 182.86 228.961 182.582 228.663L182.313 228.374L181.744 228.7C181.29 228.957 181.008 229.193 180.9 229.408C180.793 229.621 180.843 229.839 181.052 230.063C181.215 230.238 181.403 230.338 181.616 230.363C181.831 230.387 182.054 230.339 182.286 230.219ZM184.316 224.827C184.488 224.738 184.654 224.669 184.812 224.621L185.15 225.113C184.962 225.168 184.807 225.227 184.684 225.291C184.37 225.454 184.199 225.699 184.171 226.027C184.145 226.352 184.278 226.672 184.57 226.986L186.17 228.704L185.582 229.01L182.6 225.807L183.085 225.555L183.704 226.113L183.733 226.098C183.683 225.815 183.707 225.564 183.804 225.345C183.902 225.126 184.073 224.954 184.316 224.827ZM190.784 225.664L190.752 225.681C190.784 226.148 190.529 226.522 189.989 226.803C189.481 227.067 188.952 227.13 188.402 226.991C187.855 226.851 187.335 226.517 186.843 225.989C186.352 225.461 186.111 224.977 186.123 224.537C186.134 224.098 186.392 223.746 186.897 223.483C187.424 223.209 187.974 223.157 188.549 223.326L188.595 223.302L188.355 223.084L188.132 222.867L186.918 221.563L187.506 221.257L191.74 225.805L191.262 226.053L190.784 225.664ZM189.685 226.358C190.086 226.149 190.293 225.909 190.305 225.636C190.318 225.36 190.138 225.022 189.764 224.62L189.669 224.518C189.246 224.064 188.853 223.788 188.489 223.691C188.126 223.591 187.744 223.646 187.343 223.855C186.998 224.034 186.837 224.283 186.86 224.601C186.883 224.915 187.082 225.274 187.458 225.678C187.839 226.087 188.217 226.348 188.593 226.462C188.969 226.576 189.333 226.541 189.685 226.358ZM198.893 222.081L198.291 222.394L196.419 220.384L193.692 221.803L195.564 223.814L194.962 224.127L190.984 219.854L191.586 219.541L193.278 221.359L196.005 219.939L194.312 218.122L194.914 217.808L198.893 222.081ZM202.084 218.037C202.57 218.56 202.791 219.051 202.746 219.511C202.699 219.969 202.395 220.344 201.833 220.637C201.486 220.817 201.116 220.911 200.721 220.916C200.327 220.922 199.94 220.837 199.559 220.662C199.179 220.487 198.832 220.231 198.518 219.894C198.032 219.372 197.812 218.883 197.858 218.428C197.902 217.971 198.205 217.597 198.767 217.304C199.31 217.021 199.879 216.946 200.475 217.078C201.074 217.209 201.61 217.529 202.084 218.037ZM199.127 219.577C199.508 219.986 199.897 220.246 200.295 220.357C200.693 220.468 201.084 220.424 201.469 220.223C201.854 220.023 202.047 219.765 202.047 219.449C202.048 219.131 201.857 218.766 201.475 218.355C201.095 217.947 200.708 217.691 200.311 217.585C199.915 217.476 199.522 217.523 199.133 217.725C198.748 217.926 198.555 218.181 198.553 218.492C198.551 218.802 198.742 219.164 199.127 219.577ZM205.199 218.798L204.612 219.104L200.377 214.556L200.965 214.25L205.199 218.798ZM208.687 216.344L208.656 216.36C208.687 216.827 208.433 217.201 207.892 217.483C207.384 217.747 206.856 217.81 206.306 217.671C205.758 217.53 205.238 217.196 204.747 216.668C204.255 216.14 204.015 215.657 204.026 215.217C204.037 214.777 204.295 214.426 204.801 214.163C205.327 213.889 205.878 213.836 206.452 214.006L206.498 213.982L206.259 213.764L206.035 213.546L204.821 212.243L205.409 211.937L209.643 216.484L209.165 216.733L208.687 216.344ZM207.588 217.038C207.989 216.829 208.196 216.588 208.209 216.315C208.222 216.04 208.041 215.701 207.668 215.3L207.573 215.197C207.15 214.743 206.757 214.468 206.393 214.371C206.03 214.271 205.647 214.325 205.246 214.534C204.901 214.713 204.74 214.962 204.763 215.28C204.786 215.595 204.986 215.954 205.361 216.357C205.742 216.766 206.121 217.028 206.497 217.142C206.872 217.255 207.236 217.221 207.588 217.038ZM212.587 215.038C212.014 215.337 211.426 215.429 210.825 215.314C210.226 215.197 209.688 214.883 209.211 214.371C208.73 213.854 208.501 213.364 208.525 212.901C208.552 212.436 208.824 212.068 209.344 211.798C209.83 211.544 210.338 211.477 210.868 211.594C211.396 211.71 211.862 211.984 212.265 212.416L212.55 212.723L209.877 214.115C210.239 214.485 210.619 214.711 211.018 214.792C211.419 214.873 211.817 214.81 212.214 214.603C212.632 214.386 212.978 214.099 213.252 213.742L213.655 214.174C213.516 214.357 213.368 214.512 213.21 214.64C213.057 214.769 212.849 214.902 212.587 215.038ZM209.715 212.208C209.403 212.37 209.232 212.583 209.202 212.848C209.174 213.111 209.281 213.4 209.524 213.713L211.553 212.657C211.268 212.351 210.967 212.16 210.652 212.084C210.334 212.007 210.022 212.048 209.715 212.208ZM213.699 209.53C213.871 209.44 214.037 209.372 214.196 209.324L214.533 209.816C214.346 209.871 214.19 209.93 214.068 209.994C213.754 210.157 213.582 210.402 213.554 210.73C213.528 211.055 213.661 211.375 213.953 211.689L215.553 213.407L214.966 213.713L211.983 210.51L212.468 210.258L213.088 210.816L213.116 210.801C213.066 210.518 213.09 210.267 213.188 210.048C213.286 209.829 213.456 209.657 213.699 209.53Z" fill="#B6BFD9"/>
<path d="M188.106 238.212C188.763 238.917 189.033 239.578 188.916 240.194C188.8 240.807 188.307 241.34 187.435 241.794L186.001 242.541L182.023 238.268L183.609 237.442C184.414 237.023 185.211 236.881 186 237.017C186.789 237.153 187.491 237.552 188.106 238.212ZM187.485 238.561C186.966 238.004 186.405 237.673 185.802 237.567C185.202 237.461 184.568 237.581 183.899 237.929L183.025 238.384L186.203 241.798L186.936 241.416C187.654 241.042 188.058 240.616 188.149 240.138C188.238 239.658 188.017 239.132 187.485 238.561ZM196.15 237.257L194.21 235.174C193.972 234.918 193.728 234.762 193.478 234.704C193.226 234.644 192.961 234.687 192.682 234.832C192.316 235.022 192.127 235.25 192.113 235.514C192.1 235.778 192.261 236.091 192.597 236.451L194.263 238.24L193.675 238.546L191.734 236.462C191.497 236.207 191.253 236.05 191.003 235.993C190.751 235.933 190.484 235.976 190.203 236.122C189.835 236.314 189.65 236.546 189.648 236.819C189.647 237.089 189.84 237.431 190.226 237.846L191.791 239.526L191.203 239.833L188.221 236.63L188.699 236.381L189.202 236.769L189.231 236.755C189.197 236.541 189.239 236.338 189.358 236.146C189.479 235.953 189.665 235.791 189.915 235.66C190.522 235.345 191.087 235.319 191.611 235.585L191.64 235.57C191.599 235.342 191.644 235.122 191.772 234.911C191.901 234.699 192.106 234.52 192.387 234.374C192.826 234.145 193.241 234.068 193.633 234.142C194.025 234.213 194.411 234.453 194.792 234.862L196.738 236.951L196.15 237.257ZM198.54 236.013L197.952 236.319L194.97 233.116L195.558 232.81L198.54 236.013ZM194.112 232.274C194.009 232.163 193.966 232.065 193.985 231.98C194.002 231.893 194.06 231.823 194.16 231.772C194.254 231.722 194.36 231.706 194.477 231.723C194.595 231.74 194.704 231.803 194.806 231.912C194.908 232.022 194.95 232.121 194.932 232.211C194.912 232.3 194.855 232.368 194.761 232.417C194.662 232.469 194.555 232.486 194.44 232.468C194.323 232.447 194.214 232.383 194.112 232.274ZM200.722 234.369C200.826 234.315 200.92 234.257 201.006 234.195C201.09 234.131 201.154 234.078 201.198 234.034L201.544 234.406C201.504 234.464 201.428 234.534 201.318 234.614C201.211 234.696 201.109 234.762 201.009 234.814C200.259 235.205 199.58 235.074 198.972 234.421L197.198 232.516L196.642 232.805L196.424 232.571L196.792 232.08L196.403 231.268L196.743 231.091L197.434 231.833L198.56 231.247L198.911 231.624L197.785 232.21L199.541 234.095C199.72 234.288 199.914 234.407 200.121 234.452C200.328 234.498 200.528 234.47 200.722 234.369ZM201.084 229.846C201.256 229.756 201.422 229.688 201.58 229.64L201.918 230.132C201.73 230.187 201.575 230.246 201.452 230.31C201.138 230.473 200.967 230.718 200.939 231.045C200.913 231.371 201.046 231.691 201.338 232.005L202.938 233.723L202.35 234.029L199.368 230.826L199.853 230.574L200.473 231.132L200.501 231.117C200.451 230.834 200.475 230.583 200.572 230.364C200.67 230.145 200.841 229.973 201.084 229.846ZM201.712 229.606L202.342 229.278L204.893 230.662C205.468 230.982 205.863 231.223 206.081 231.384L206.109 231.37C206.047 231.254 205.953 231.051 205.827 230.761C205.701 230.468 205.333 229.561 204.722 228.039L205.352 227.711L207.08 232.226C207.251 232.673 207.295 233.029 207.213 233.294C207.135 233.561 206.935 233.777 206.614 233.944C206.435 234.038 206.242 234.113 206.037 234.171L205.675 233.783C205.826 233.738 205.982 233.674 206.143 233.591C206.547 233.381 206.66 233.044 206.484 232.58L206.276 232.012L201.712 229.606ZM214.677 227.612L213.968 227.981L210.152 226.891L209.98 227.571L211.539 229.245L210.937 229.559L206.959 225.286L207.561 224.973L209.534 227.092L209.908 223.751L210.62 223.38L210.266 226.32L214.677 227.612ZM217.69 226.043L217.149 225.648L217.12 225.663C217.114 225.965 217.047 226.202 216.92 226.375C216.795 226.544 216.588 226.704 216.3 226.854C215.915 227.054 215.536 227.13 215.165 227.08C214.795 227.03 214.47 226.854 214.188 226.552C213.586 225.905 213.897 225.239 215.122 224.556L215.764 224.195L215.579 223.997C215.345 223.745 215.106 223.595 214.864 223.545C214.621 223.491 214.356 223.54 214.068 223.69C213.745 223.858 213.455 224.13 213.199 224.507L212.673 224.229C212.784 224.044 212.93 223.868 213.112 223.702C213.295 223.534 213.502 223.39 213.731 223.271C214.193 223.03 214.615 222.936 214.994 222.99C215.376 223.043 215.742 223.257 216.09 223.631L218.125 225.817L217.69 226.043ZM216.044 226.393C216.41 226.202 216.619 225.97 216.673 225.696C216.729 225.421 216.618 225.135 216.34 224.837L216.071 224.547L215.502 224.874C215.047 225.131 214.766 225.367 214.658 225.582C214.551 225.795 214.601 226.013 214.81 226.237C214.973 226.412 215.161 226.512 215.374 226.537C215.589 226.561 215.812 226.513 216.044 226.393ZM221.996 223.802L220.066 221.73C219.823 221.469 219.57 221.311 219.306 221.258C219.042 221.204 218.757 221.257 218.45 221.417C218.044 221.628 217.831 221.874 217.811 222.153C217.791 222.433 217.975 222.781 218.363 223.198L219.928 224.878L219.34 225.184L216.358 221.981L216.836 221.733L217.339 222.121L217.368 222.106C217.341 221.886 217.397 221.676 217.534 221.477C217.669 221.277 217.871 221.107 218.137 220.968C218.605 220.725 219.044 220.635 219.454 220.699C219.862 220.761 220.257 220.997 220.638 221.406L222.584 223.496L221.996 223.802ZM226.036 221.06L226.004 221.077C226.036 221.544 225.781 221.918 225.241 222.199C224.733 222.463 224.204 222.526 223.654 222.387C223.107 222.247 222.587 221.913 222.096 221.385C221.604 220.857 221.364 220.373 221.375 219.933C221.386 219.494 221.644 219.142 222.149 218.879C222.676 218.605 223.226 218.553 223.801 218.722L223.847 218.698L223.607 218.48L223.384 218.263L222.17 216.959L222.758 216.653L226.992 221.201L226.514 221.449L226.036 221.06ZM224.937 221.754C225.338 221.545 225.545 221.305 225.558 221.032C225.571 220.756 225.39 220.418 225.017 220.016L224.921 219.914C224.499 219.46 224.105 219.184 223.742 219.087C223.378 218.987 222.996 219.042 222.595 219.251C222.25 219.43 222.089 219.679 222.112 219.997C222.135 220.311 222.335 220.67 222.71 221.074C223.091 221.483 223.469 221.744 223.845 221.858C224.221 221.972 224.585 221.937 224.937 221.754Z" fill="#1D212A"/>
</g>
<rect x="3.13901" y="0.540416" width="292.88" height="188.535" rx="11.2958" transform="matrix(0.887222 -0.461094 0.682284 0.731302 53.3183 148.128)" fill="url(#paint2_linear_789_0)" stroke="url(#paint3_linear_789_0)" stroke-width="4"/>
<ellipse opacity="0.8" cx="19.2078" cy="16.4645" rx="19.2078" ry="16.4645" transform="matrix(0.887222 -0.461094 0.682284 0.731302 101.195 160.602)" fill="#8770FF"/>
<ellipse opacity="0.5" cx="19.2078" cy="16.4645" rx="19.2078" ry="16.4645" transform="matrix(0.887222 -0.461094 0.682284 0.731302 120.367 150.638)" fill="#8770FF"/>
<path d="M155.676 206.01C155.207 206.254 154.677 206.328 154.085 206.233C153.485 206.13 153 205.881 152.632 205.486C152.256 205.083 152.111 204.658 152.197 204.211C152.276 203.755 152.549 203.405 153.018 203.161C153.507 202.907 154.046 202.835 154.636 202.943C155.229 203.038 155.713 203.287 156.089 203.69C156.457 204.085 156.602 204.51 156.523 204.966C156.447 205.408 156.165 205.756 155.676 206.01ZM162.652 202.385C162.183 202.629 161.653 202.703 161.06 202.608C160.46 202.505 159.976 202.256 159.608 201.861C159.232 201.458 159.087 201.033 159.173 200.585C159.252 200.129 159.525 199.78 159.994 199.536C160.483 199.282 161.022 199.209 161.612 199.318C162.205 199.413 162.689 199.662 163.064 200.065C163.433 200.459 163.578 200.885 163.499 201.34C163.423 201.783 163.141 202.131 162.652 202.385ZM169.628 198.76C169.159 199.003 168.628 199.078 168.036 198.982C167.436 198.879 166.952 198.63 166.584 198.236C166.208 197.833 166.063 197.407 166.149 196.96C166.227 196.504 166.501 196.154 166.97 195.911C167.459 195.657 167.998 195.584 168.588 195.692C169.18 195.787 169.664 196.036 170.04 196.439C170.409 196.834 170.553 197.259 170.475 197.715C170.399 198.157 170.117 198.506 169.628 198.76ZM176.604 195.134C176.135 195.378 175.604 195.452 175.012 195.357C174.412 195.254 173.928 195.005 173.56 194.61C173.184 194.207 173.039 193.782 173.125 193.334C173.203 192.879 173.477 192.529 173.946 192.285C174.434 192.031 174.974 191.958 175.564 192.067C176.156 192.162 176.64 192.411 177.016 192.814C177.384 193.209 177.529 193.634 177.451 194.09C177.375 194.532 177.092 194.88 176.604 195.134ZM211.591 176.951C211.122 177.195 210.591 177.269 209.999 177.174C209.399 177.071 208.915 176.822 208.547 176.427C208.171 176.024 208.026 175.599 208.112 175.151C208.19 174.696 208.464 174.346 208.933 174.102C209.422 173.848 209.961 173.775 210.551 173.884C211.143 173.979 211.627 174.228 212.003 174.631C212.371 175.026 212.516 175.451 212.438 175.907C212.362 176.349 212.08 176.697 211.591 176.951ZM218.567 173.326C218.098 173.57 217.567 173.644 216.975 173.549C216.375 173.445 215.891 173.196 215.523 172.802C215.147 172.399 215.002 171.974 215.088 171.526C215.166 171.07 215.44 170.721 215.909 170.477C216.397 170.223 216.937 170.15 217.527 170.259C218.119 170.354 218.603 170.603 218.979 171.006C219.347 171.4 219.492 171.825 219.414 172.281C219.338 172.724 219.055 173.072 218.567 173.326ZM225.542 169.7C225.074 169.944 224.543 170.018 223.951 169.923C223.351 169.82 222.867 169.571 222.499 169.176C222.123 168.774 221.978 168.348 222.064 167.901C222.142 167.445 222.416 167.095 222.884 166.852C223.373 166.598 223.913 166.525 224.503 166.633C225.095 166.728 225.579 166.977 225.955 167.38C226.323 167.775 226.468 168.2 226.39 168.656C226.314 169.098 226.031 169.446 225.542 169.7ZM232.518 166.075C232.049 166.319 231.519 166.393 230.927 166.298C230.327 166.195 229.843 165.946 229.474 165.551C229.098 165.148 228.953 164.723 229.04 164.275C229.118 163.82 229.391 163.47 229.86 163.226C230.349 162.972 230.888 162.899 231.478 163.008C232.071 163.103 232.555 163.352 232.931 163.755C233.299 164.149 233.444 164.575 233.366 165.03C233.289 165.473 233.007 165.821 232.518 166.075ZM267.505 147.892C267.037 148.136 266.506 148.21 265.914 148.115C265.314 148.012 264.83 147.763 264.461 147.368C264.086 146.965 263.941 146.54 264.027 146.092C264.105 145.637 264.379 145.287 264.847 145.043C265.336 144.789 265.876 144.716 266.466 144.825C267.058 144.92 267.542 145.169 267.918 145.572C268.286 145.966 268.431 146.392 268.353 146.847C268.277 147.29 267.994 147.638 267.505 147.892ZM274.481 144.267C274.012 144.51 273.482 144.585 272.89 144.49C272.29 144.386 271.805 144.137 271.437 143.743C271.061 143.34 270.916 142.915 271.002 142.467C271.081 142.011 271.354 141.661 271.823 141.418C272.312 141.164 272.851 141.091 273.441 141.199C274.034 141.295 274.518 141.544 274.894 141.946C275.262 142.341 275.407 142.766 275.328 143.222C275.252 143.665 274.97 144.013 274.481 144.267ZM281.457 140.641C280.988 140.885 280.458 140.959 279.865 140.864C279.265 140.761 278.781 140.512 278.413 140.117C278.037 139.714 277.892 139.289 277.978 138.842C278.057 138.386 278.33 138.036 278.799 137.792C279.288 137.538 279.827 137.466 280.417 137.574C281.01 137.669 281.494 137.918 281.869 138.321C282.238 138.716 282.383 139.141 282.304 139.597C282.228 140.039 281.946 140.387 281.457 140.641ZM288.433 137.016C287.964 137.26 287.433 137.334 286.841 137.239C286.241 137.136 285.757 136.887 285.389 136.492C285.013 136.089 284.868 135.664 284.954 135.216C285.032 134.76 285.306 134.411 285.775 134.167C286.264 133.913 286.803 133.84 287.393 133.949C287.985 134.044 288.469 134.293 288.845 134.696C289.214 135.09 289.358 135.516 289.28 135.971C289.204 136.414 288.922 136.762 288.433 137.016ZM321.758 120.576L321.148 119.922L320.956 111.048L322.198 110.403L327.744 116.348L329.345 115.516L330.047 116.268L328.446 117.1L330.402 119.197L329.37 119.733L327.414 117.636L321.758 120.576ZM322.097 111.866L322.268 119.194L326.757 116.861L322.097 111.866ZM332.558 106.045L327.081 108.891L330.027 112.048C330.008 111.631 330.153 111.207 330.463 110.777C330.766 110.339 331.196 109.975 331.755 109.685C332.573 109.26 333.371 109.052 334.151 109.062C334.923 109.064 335.631 109.227 336.274 109.552C336.91 109.869 337.462 110.278 337.93 110.779C338.467 111.355 338.82 111.947 338.988 112.556C339.158 113.151 339.095 113.727 338.8 114.283C338.514 114.834 337.967 115.32 337.159 115.74C336.132 116.274 335.096 116.489 334.051 116.385C332.998 116.273 332.053 115.879 331.215 115.203L332.248 114.666C332.884 115.142 333.574 115.406 334.319 115.458C335.064 115.51 335.781 115.358 336.469 115C337.337 114.549 337.795 114 337.842 113.352C337.892 112.691 337.591 112.011 336.939 111.313C336.302 110.63 335.583 110.216 334.782 110.072C333.972 109.918 333.148 110.06 332.311 110.495C331.732 110.796 331.327 111.171 331.095 111.621C330.863 112.071 330.819 112.54 330.962 113.027L329.975 113.54L325.407 108.644L331.856 105.292L332.558 106.045ZM342.517 102.975C341.3 102.02 340.049 101.877 338.762 102.546C337.784 103.054 337.343 103.747 337.437 104.626C337.531 105.505 338.262 106.645 339.629 108.047C339.368 107.45 339.386 106.866 339.684 106.297C339.984 105.713 340.499 105.232 341.227 104.854C342.274 104.31 343.351 104.147 344.458 104.365C345.568 104.57 346.556 105.137 347.423 106.066C347.929 106.608 348.26 107.169 348.415 107.748C348.572 108.313 348.509 108.865 348.226 109.403C347.952 109.935 347.427 110.404 346.649 110.808C345.162 111.581 343.77 111.724 342.473 111.238C341.186 110.748 339.875 109.787 338.54 108.356C335.702 105.314 335.549 103.135 338.083 101.818C339.041 101.32 339.997 101.147 340.952 101.297C341.9 101.44 342.746 101.83 343.49 102.469L342.517 102.975ZM341.723 105.695C341.254 105.939 340.883 106.248 340.61 106.621C340.336 106.995 340.215 107.413 340.244 107.873C340.277 108.321 340.507 108.774 340.937 109.235C341.558 109.901 342.316 110.331 343.209 110.527C344.102 110.722 345.007 110.581 345.925 110.104C346.693 109.705 347.126 109.193 347.224 108.568C347.323 107.943 347.061 107.297 346.44 106.631C345.772 105.916 345.026 105.474 344.202 105.304C343.377 105.134 342.551 105.265 341.723 105.695ZM349.799 102.304C349.027 102.461 348.311 102.448 347.652 102.265C347.003 102.078 346.445 101.733 345.977 101.232C345.563 100.788 345.329 100.323 345.276 99.8377C345.226 99.339 345.373 98.8536 345.717 98.3815C346.054 97.9011 346.592 97.4692 347.33 97.0856C348.068 96.7019 348.797 96.4755 349.518 96.4063C350.231 96.3289 350.886 96.3969 351.486 96.6105C352.087 96.8107 352.595 97.1328 353.009 97.5768C353.47 98.0701 353.704 98.5832 353.712 99.1161C353.73 99.6437 353.503 100.146 353.031 100.624C353.839 100.411 354.622 100.401 355.38 100.594C356.137 100.786 356.78 101.166 357.309 101.733C357.8 102.26 358.07 102.803 358.119 103.363C358.171 103.911 358.007 104.441 357.628 104.956C357.258 105.465 356.695 105.917 355.937 106.311C355.179 106.705 354.411 106.945 353.632 107.032C352.864 107.114 352.141 107.044 351.461 106.824C350.783 106.59 350.199 106.21 349.708 105.684C349.179 105.116 348.925 104.534 348.946 103.937C348.966 103.341 349.251 102.796 349.799 102.304ZM352.084 98.2042C351.578 97.6616 350.962 97.3589 350.237 97.2962C349.512 97.2335 348.765 97.4017 347.997 97.8009C347.229 98.2001 346.759 98.6643 346.586 99.1936C346.406 99.7146 346.572 100.251 347.086 100.801C347.562 101.311 348.171 101.599 348.914 101.665C349.656 101.731 350.402 101.569 351.15 101.18C351.898 100.791 352.36 100.326 352.535 99.7829C352.71 99.2402 352.559 98.714 352.084 98.2042ZM351.771 101.846C350.953 102.271 350.427 102.771 350.192 103.345C349.957 103.918 350.127 104.514 350.703 105.13C351.255 105.722 351.938 106.057 352.751 106.135C353.564 106.213 354.4 106.029 355.258 105.583C356.106 105.142 356.622 104.624 356.806 104.028C356.983 103.423 356.799 102.829 356.254 102.245C355.686 101.637 355.001 101.315 354.199 101.281C353.398 101.233 352.589 101.421 351.771 101.846Z" fill="#1D212A"/>
<path d="M175.09 229.27C174.521 229.566 174.217 229.957 174.179 230.442C174.141 230.924 174.376 231.436 174.883 231.98C175.404 232.538 175.965 232.888 176.567 233.029C177.169 233.167 177.764 233.083 178.352 232.778C178.713 232.59 179.075 232.322 179.438 231.975L179.844 232.41C179.589 232.707 179.198 232.993 178.671 233.267C177.908 233.663 177.141 233.778 176.37 233.613C175.6 233.446 174.888 233.011 174.232 232.309C173.822 231.869 173.562 231.432 173.451 230.998C173.343 230.563 173.393 230.158 173.602 229.784C173.813 229.408 174.173 229.088 174.683 228.823C175.226 228.541 175.777 228.376 176.336 228.328L176.479 228.887C175.945 228.939 175.482 229.067 175.09 229.27ZM183.374 230.736L182.832 230.341L182.804 230.356C182.797 230.657 182.731 230.894 182.604 231.066C182.478 231.236 182.271 231.396 181.983 231.545C181.598 231.745 181.22 231.821 180.848 231.771C180.478 231.721 180.152 231.545 179.871 231.243C179.268 230.597 179.579 229.932 180.804 229.249L181.446 228.889L181.261 228.691C181.027 228.44 180.788 228.289 180.545 228.239C180.303 228.186 180.037 228.234 179.749 228.384C179.426 228.552 179.136 228.824 178.88 229.2L178.353 228.923C178.465 228.738 178.611 228.562 178.792 228.396C178.976 228.228 179.182 228.084 179.411 227.965C179.874 227.725 180.296 227.632 180.676 227.686C181.058 227.738 181.423 227.952 181.772 228.325L183.81 230.509L183.374 230.736ZM181.727 231.084C182.093 230.894 182.303 230.662 182.356 230.389C182.412 230.114 182.301 229.828 182.023 229.53L181.753 229.241L181.184 229.567C180.73 229.824 180.448 230.06 180.34 230.275C180.233 230.487 180.284 230.704 180.492 230.928C180.656 231.104 180.844 231.204 181.057 231.229C181.272 231.253 181.496 231.205 181.727 231.084ZM183.756 225.699C183.928 225.609 184.094 225.541 184.253 225.493L184.591 225.985C184.403 226.039 184.247 226.098 184.125 226.162C183.811 226.325 183.639 226.57 183.611 226.897C183.585 227.223 183.719 227.542 184.011 227.855L185.613 229.572L185.025 229.878L182.039 226.678L182.524 226.426L183.145 226.983L183.173 226.969C183.123 226.685 183.147 226.435 183.244 226.216C183.342 225.998 183.513 225.825 183.756 225.699ZM190.228 226.536L190.196 226.553C190.228 227.019 189.974 227.393 189.433 227.674C188.925 227.938 188.396 228 187.846 227.861C187.298 227.721 186.778 227.387 186.285 226.86C185.793 226.332 185.553 225.849 185.564 225.41C185.575 224.97 185.833 224.619 186.338 224.357C186.865 224.083 187.416 224.031 187.991 224.2L188.037 224.176L187.797 223.959L187.573 223.741L186.358 222.439L186.946 222.133L191.185 226.676L190.707 226.925L190.228 226.536ZM189.129 227.229C189.53 227.021 189.737 226.78 189.749 226.508C189.762 226.232 189.582 225.894 189.208 225.493L189.112 225.391C188.689 224.937 188.296 224.662 187.932 224.565C187.568 224.465 187.186 224.519 186.784 224.728C186.439 224.907 186.278 225.155 186.301 225.473C186.325 225.787 186.524 226.146 186.9 226.549C187.282 226.958 187.66 227.219 188.036 227.333C188.413 227.447 188.777 227.412 189.129 227.229ZM198.34 222.958L197.738 223.271L195.864 221.262L193.136 222.679L195.011 224.688L194.408 225.001L190.426 220.732L191.028 220.419L192.722 222.236L195.45 220.818L193.756 219.002L194.358 218.689L198.34 222.958ZM201.531 218.919C202.018 219.441 202.239 219.931 202.195 220.391C202.148 220.849 201.844 221.224 201.282 221.516C200.935 221.696 200.564 221.789 200.169 221.795C199.775 221.8 199.387 221.716 199.007 221.541C198.626 221.366 198.278 221.11 197.964 220.773C197.478 220.251 197.257 219.763 197.303 219.309C197.347 218.852 197.65 218.478 198.212 218.186C198.755 217.904 199.325 217.829 199.922 217.961C200.521 218.092 201.057 218.411 201.531 218.919ZM198.573 220.456C198.955 220.865 199.345 221.125 199.743 221.236C200.141 221.347 200.532 221.303 200.917 221.102C201.302 220.902 201.495 220.645 201.495 220.329C201.496 220.011 201.305 219.646 200.922 219.236C200.542 218.829 200.154 218.573 199.757 218.467C199.361 218.358 198.968 218.404 198.578 218.607C198.194 218.807 198 219.062 197.999 219.372C197.997 219.682 198.188 220.044 198.573 220.456ZM204.649 219.679L204.061 219.985L199.823 215.441L200.411 215.136L204.649 219.679ZM208.138 217.228L208.106 217.245C208.138 217.711 207.884 218.085 207.343 218.366C206.835 218.63 206.306 218.692 205.756 218.553C205.208 218.413 204.688 218.079 204.195 217.552C203.703 217.024 203.463 216.541 203.474 216.102C203.485 215.662 203.743 215.312 204.248 215.049C204.775 214.775 205.326 214.723 205.901 214.892L205.947 214.868L205.707 214.651L205.483 214.433L204.268 213.131L204.856 212.825L209.095 217.369L208.617 217.617L208.138 217.228ZM207.038 217.921C207.44 217.713 207.647 217.472 207.659 217.2C207.672 216.924 207.492 216.586 207.118 216.185L207.022 216.083C206.599 215.629 206.205 215.354 205.842 215.257C205.478 215.157 205.096 215.211 204.694 215.42C204.349 215.599 204.188 215.847 204.211 216.165C204.235 216.479 204.434 216.838 204.81 217.241C205.192 217.65 205.57 217.911 205.946 218.025C206.323 218.139 206.687 218.104 207.038 217.921ZM212.04 215.925C211.466 216.223 210.878 216.315 210.276 216.199C209.677 216.083 209.139 215.769 208.661 215.257C208.18 214.741 207.951 214.252 207.975 213.789C208.001 213.324 208.273 212.957 208.793 212.687C209.279 212.434 209.788 212.366 210.318 212.484C210.847 212.599 211.313 212.873 211.716 213.305L212.002 213.612L209.327 215.002C209.69 215.371 210.07 215.597 210.469 215.679C210.87 215.759 211.269 215.696 211.666 215.49C212.084 215.273 212.43 214.986 212.704 214.63L213.108 215.062C212.969 215.244 212.821 215.399 212.663 215.527C212.51 215.656 212.302 215.788 212.04 215.925ZM209.165 213.096C208.853 213.258 208.682 213.472 208.651 213.736C208.623 213.999 208.731 214.287 208.974 214.6L211.004 213.545C210.718 213.24 210.418 213.049 210.102 212.974C209.784 212.896 209.472 212.937 209.165 213.096ZM213.15 210.423C213.322 210.333 213.488 210.264 213.647 210.216L213.985 210.708C213.797 210.763 213.642 210.822 213.519 210.886C213.205 211.049 213.034 211.294 213.005 211.621C212.98 211.946 213.113 212.266 213.405 212.579L215.007 214.296L214.419 214.602L211.433 211.401L211.919 211.149L212.539 211.707L212.567 211.692C212.517 211.409 212.541 211.158 212.639 210.94C212.736 210.721 212.907 210.549 213.15 210.423Z" fill="#B6BFD9"/>
<path d="M362.658 137.44L359.771 138.94L355.788 134.672L358.675 133.171L359.086 133.612L356.802 134.8L358.085 136.175L360.231 135.059L360.64 135.497L358.493 136.613L359.959 138.184L362.244 136.996L362.658 137.44ZM363.127 134.764L360.32 133.903L360.99 133.555L363.158 134.249L363.034 132.493L363.696 132.149L363.804 134.412L366.753 135.312L366.087 135.658L363.79 134.927L363.901 136.794L363.235 137.14L363.127 134.764ZM369.386 134.03C369.133 134.161 368.866 134.244 368.585 134.277C368.305 134.307 368.019 134.279 367.729 134.193L367.686 134.215C367.889 134.388 368.068 134.557 368.224 134.725L369.453 136.042L368.865 136.347L364.539 131.71L365.017 131.462L365.507 131.858L365.536 131.843C365.523 131.589 365.581 131.371 365.709 131.189C365.838 131.007 366.031 130.848 366.291 130.713C366.806 130.446 367.338 130.384 367.887 130.53C368.439 130.674 368.959 131.007 369.448 131.531C369.938 132.057 370.176 132.54 370.163 132.98C370.15 133.417 369.891 133.767 369.386 134.03ZM366.59 131.169C366.194 131.375 365.991 131.615 365.983 131.888C365.975 132.161 366.153 132.496 366.516 132.894L366.617 133.002C367.037 133.452 367.428 133.727 367.792 133.827C368.153 133.925 368.535 133.87 368.936 133.661C369.272 133.487 369.429 133.239 369.409 132.917C369.392 132.593 369.2 132.235 368.833 131.842C368.461 131.443 368.08 131.187 367.691 131.074C367.302 130.958 366.935 130.99 366.59 131.169ZM372.562 132.293L371.974 132.598L368.988 129.398L369.576 129.093L372.562 132.293ZM368.13 128.557C368.026 128.446 367.984 128.348 368.003 128.263C368.02 128.176 368.078 128.107 368.177 128.055C368.272 128.006 368.378 127.99 368.495 128.007C368.613 128.024 368.722 128.087 368.824 128.196C368.926 128.305 368.968 128.405 368.95 128.495C368.931 128.583 368.874 128.651 368.779 128.701C368.68 128.752 368.573 128.769 368.458 128.751C368.341 128.73 368.231 128.666 368.13 128.557ZM372.54 127.466C372.712 127.376 372.878 127.307 373.037 127.26L373.375 127.752C373.187 127.806 373.032 127.865 372.909 127.929C372.595 128.092 372.424 128.337 372.395 128.664C372.369 128.989 372.503 129.309 372.795 129.622L374.397 131.339L373.809 131.645L370.823 128.445L371.309 128.192L371.929 128.75L371.957 128.735C371.907 128.452 371.931 128.201 372.028 127.983C372.126 127.765 372.297 127.592 372.54 127.466ZM378.465 129.312C377.891 129.61 377.303 129.702 376.701 129.586C376.102 129.47 375.563 129.156 375.086 128.644C374.605 128.128 374.376 127.639 374.4 127.176C374.426 126.711 374.698 126.344 375.218 126.074C375.704 125.821 376.213 125.753 376.743 125.871C377.272 125.986 377.738 126.26 378.141 126.692L378.427 126.999L375.752 128.389C376.115 128.758 376.495 128.984 376.894 129.066C377.295 129.146 377.694 129.083 378.091 128.877C378.509 128.66 378.855 128.373 379.129 128.017L379.532 128.449C379.394 128.631 379.245 128.786 379.088 128.914C378.935 129.043 378.727 129.175 378.465 129.312ZM375.589 126.483C375.278 126.646 375.107 126.859 375.076 127.123C375.048 127.386 375.156 127.674 375.399 127.987L377.429 126.932C377.143 126.627 376.843 126.436 376.527 126.361C376.209 126.283 375.896 126.324 375.589 126.483ZM382.534 125.814C382.812 126.112 382.891 126.411 382.773 126.713C382.654 127.014 382.352 127.292 381.865 127.544C381.351 127.812 380.886 127.953 380.473 127.969L380.054 127.519C380.313 127.5 380.57 127.458 380.824 127.392C381.081 127.325 381.308 127.24 381.506 127.137C381.813 126.977 382.012 126.815 382.103 126.649C382.192 126.481 382.16 126.315 382.005 126.149C381.889 126.025 381.724 125.953 381.51 125.934C381.296 125.912 380.943 125.94 380.451 126.017C379.986 126.093 379.638 126.131 379.409 126.129C379.179 126.124 378.978 126.088 378.804 126.022C378.633 125.955 378.479 125.849 378.343 125.703C378.1 125.442 378.037 125.17 378.154 124.886C378.27 124.6 378.552 124.341 379.001 124.108C379.419 123.891 379.893 123.748 380.423 123.681L380.582 124.184C380.069 124.254 379.654 124.371 379.337 124.536C379.059 124.681 378.882 124.826 378.808 124.971C378.733 125.117 378.755 125.253 378.873 125.38C378.953 125.465 379.047 125.525 379.155 125.558C379.266 125.59 379.405 125.603 379.574 125.596C379.743 125.589 380.044 125.55 380.475 125.479C381.065 125.378 381.505 125.356 381.796 125.413C382.09 125.468 382.336 125.602 382.534 125.814Z" fill="#B6BFD9"/>
<path d="M188.695 241.691L186.784 240.668L184.708 241.747L185.337 243.436L184.728 243.753L182.776 238.402L183.283 238.139L189.319 241.367L188.695 241.691ZM186.179 240.319L184.343 239.309C184.109 239.182 183.837 239.019 183.527 238.818C183.65 239.032 183.767 239.276 183.879 239.551L184.504 241.19L186.179 240.319ZM190.53 240.737L189.942 241.043L185.703 236.5L186.291 236.194L190.53 240.737ZM190.549 235.898C191.059 235.633 191.589 235.571 192.139 235.713C192.689 235.852 193.21 236.184 193.7 236.71C194.19 237.235 194.429 237.718 194.415 238.159C194.403 238.596 194.143 238.946 193.638 239.209C193.385 239.34 193.119 239.422 192.838 239.456C192.557 239.486 192.272 239.458 191.981 239.372L191.938 239.394L192.199 239.87L191.777 240.089L187.538 235.546L188.126 235.24L189.156 236.344C189.387 236.591 189.584 236.818 189.749 237.025L189.777 237.01C189.753 236.548 190.011 236.177 190.549 235.898ZM190.843 236.348C190.441 236.556 190.241 236.802 190.242 237.085C190.241 237.366 190.45 237.731 190.87 238.181C191.289 238.63 191.681 238.905 192.044 239.005C192.406 239.104 192.787 239.048 193.189 238.84C193.55 238.652 193.718 238.404 193.694 238.096C193.668 237.786 193.465 237.427 193.085 237.021C192.696 236.604 192.318 236.34 191.95 236.227C191.583 236.115 191.213 236.155 190.843 236.348ZM197.921 236.983C197.347 237.281 196.759 237.373 196.157 237.258C195.558 237.142 195.019 236.827 194.542 236.315C194.061 235.8 193.832 235.31 193.855 234.847C193.882 234.382 194.154 234.015 194.674 233.745C195.16 233.492 195.669 233.425 196.199 233.542C196.728 233.658 197.194 233.932 197.597 234.364L197.883 234.67L195.208 236.06C195.571 236.43 195.951 236.655 196.35 236.737C196.751 236.818 197.15 236.755 197.547 236.549C197.965 236.331 198.311 236.045 198.585 235.688L198.988 236.12C198.85 236.302 198.701 236.457 198.544 236.585C198.391 236.714 198.183 236.847 197.921 236.983ZM195.045 234.155C194.734 234.317 194.563 234.53 194.532 234.794C194.504 235.057 194.612 235.346 194.855 235.659L196.884 234.604C196.599 234.298 196.299 234.108 195.983 234.032C195.665 233.954 195.352 233.995 195.045 234.155ZM199.031 231.481C199.203 231.391 199.369 231.323 199.528 231.275L199.866 231.767C199.678 231.821 199.523 231.88 199.4 231.944C199.086 232.107 198.915 232.352 198.886 232.679C198.86 233.005 198.994 233.324 199.286 233.637L200.888 235.354L200.3 235.66L197.314 232.46L197.8 232.208L198.42 232.765L198.448 232.751C198.398 232.467 198.422 232.217 198.519 231.998C198.617 231.78 198.788 231.607 199.031 231.481ZM204.196 233.127C204.3 233.073 204.395 233.015 204.481 232.953C204.565 232.89 204.629 232.836 204.673 232.793L205.019 233.164C204.979 233.222 204.904 233.292 204.793 233.372C204.687 233.454 204.584 233.52 204.485 233.572C203.734 233.962 203.054 233.831 202.446 233.179L200.67 231.275L200.113 231.564L199.895 231.331L200.264 230.84L199.874 230.028L200.214 229.851L200.906 230.593L202.033 230.008L202.384 230.384L201.258 230.97L203.015 232.853C203.194 233.046 203.388 233.165 203.595 233.21C203.802 233.256 204.003 233.228 204.196 233.127ZM206.391 226.724C205.822 227.02 205.518 227.41 205.48 227.895C205.442 228.377 205.676 228.89 206.183 229.433C206.704 229.992 207.266 230.342 207.867 230.483C208.469 230.621 209.064 230.537 209.653 230.231C210.014 230.044 210.376 229.776 210.739 229.428L211.145 229.863C210.889 230.161 210.498 230.446 209.972 230.72C209.209 231.116 208.442 231.232 207.67 231.066C206.901 230.9 206.189 230.465 205.533 229.762C205.123 229.322 204.862 228.885 204.752 228.451C204.644 228.016 204.694 227.611 204.902 227.237C205.113 226.862 205.474 226.541 205.984 226.276C206.527 225.994 207.078 225.829 207.637 225.782L207.779 226.34C207.246 226.392 206.783 226.52 206.391 226.724ZM214.143 226.086C214.629 226.607 214.85 227.098 214.806 227.557C214.759 228.015 214.455 228.39 213.893 228.682C213.546 228.863 213.175 228.956 212.781 228.961C212.386 228.967 211.998 228.882 211.618 228.707C211.237 228.532 210.89 228.276 210.575 227.939C210.089 227.418 209.868 226.93 209.914 226.475C209.958 226.019 210.261 225.644 210.823 225.352C211.366 225.07 211.936 224.995 212.533 225.127C213.132 225.258 213.669 225.577 214.143 226.086ZM211.185 227.623C211.566 228.031 211.956 228.291 212.354 228.402C212.752 228.513 213.144 228.469 213.529 228.269C213.914 228.069 214.106 227.811 214.107 227.496C214.108 227.177 213.916 226.813 213.533 226.402C213.154 225.995 212.766 225.739 212.369 225.633C211.972 225.524 211.579 225.571 211.19 225.773C210.805 225.973 210.611 226.228 210.61 226.539C210.608 226.849 210.8 227.21 211.185 227.623ZM215.404 222.972C215.576 222.882 215.742 222.814 215.9 222.766L216.238 223.258C216.05 223.312 215.895 223.371 215.772 223.435C215.458 223.598 215.287 223.843 215.259 224.17C215.233 224.496 215.366 224.815 215.659 225.128L217.26 226.845L216.672 227.151L213.687 223.951L214.172 223.699L214.792 224.256L214.821 224.242C214.771 223.958 214.794 223.708 214.892 223.489C214.99 223.271 215.16 223.098 215.404 222.972ZM220.569 224.619C220.673 224.565 220.768 224.507 220.854 224.445C220.938 224.381 221.002 224.327 221.046 224.284L221.392 224.655C221.352 224.713 221.276 224.783 221.166 224.863C221.059 224.945 220.956 225.011 220.857 225.063C220.106 225.453 219.427 225.322 218.818 224.67L217.042 222.766L216.486 223.055L216.268 222.822L216.636 222.331L216.247 221.519L216.587 221.342L217.279 222.084L218.405 221.499L218.757 221.875L217.63 222.461L219.387 224.344C219.567 224.537 219.761 224.656 219.968 224.701C220.175 224.747 220.375 224.719 220.569 224.619ZM222.787 223.973L222.198 224.279L219.213 221.079L219.801 220.773L222.787 223.973ZM218.354 220.238C218.251 220.127 218.208 220.029 218.227 219.944C218.244 219.857 218.303 219.787 218.402 219.736C218.496 219.687 218.602 219.671 218.72 219.688C218.837 219.705 218.947 219.768 219.049 219.877C219.15 219.986 219.192 220.085 219.175 220.175C219.155 220.263 219.098 220.332 219.004 220.381C218.905 220.433 218.797 220.449 218.682 220.431C218.565 220.411 218.456 220.347 218.354 220.238ZM225.723 221.151C226.001 221.449 226.081 221.748 225.962 222.05C225.844 222.351 225.541 222.628 225.055 222.881C224.54 223.149 224.076 223.29 223.663 223.306L223.243 222.856C223.502 222.837 223.759 222.795 224.013 222.729C224.27 222.662 224.498 222.577 224.696 222.474C225.003 222.314 225.202 222.152 225.293 221.986C225.382 221.818 225.349 221.652 225.195 221.486C225.078 221.362 224.913 221.29 224.699 221.271C224.486 221.249 224.133 221.276 223.64 221.353C223.175 221.43 222.828 221.468 222.598 221.466C222.369 221.461 222.167 221.425 221.994 221.359C221.823 221.292 221.669 221.186 221.533 221.04C221.289 220.779 221.226 220.507 221.344 220.223C221.46 219.937 221.742 219.678 222.191 219.445C222.609 219.227 223.083 219.085 223.612 219.018L223.771 219.521C223.258 219.591 222.843 219.708 222.527 219.873C222.248 220.017 222.072 220.163 221.997 220.308C221.923 220.454 221.944 220.59 222.062 220.717C222.142 220.802 222.236 220.862 222.345 220.895C222.455 220.927 222.595 220.94 222.764 220.933C222.933 220.926 223.233 220.887 223.665 220.816C224.254 220.715 224.695 220.693 224.986 220.749C225.28 220.805 225.525 220.939 225.723 221.151Z" fill="#1D212A"/>
<path d="M374.97 141.431C375.658 142.169 376.03 142.793 376.086 143.305C376.145 143.815 375.884 144.221 375.303 144.523C374.746 144.812 374.148 144.847 373.511 144.626C372.872 144.403 372.216 143.932 371.544 143.211C370.851 142.468 370.476 141.843 370.421 141.337C370.366 140.831 370.627 140.428 371.203 140.128C371.765 139.836 372.367 139.802 373.008 140.027C373.651 140.251 374.305 140.719 374.97 141.431ZM372.139 142.902C372.719 143.523 373.229 143.93 373.672 144.122C374.112 144.312 374.526 144.306 374.913 144.105C375.305 143.901 375.455 143.611 375.363 143.234C375.271 142.854 374.94 142.357 374.367 141.744C373.795 141.131 373.288 140.728 372.846 140.536C372.404 140.341 371.987 140.345 371.595 140.549C371.208 140.75 371.058 141.038 371.144 141.412C371.228 141.784 371.56 142.281 372.139 142.902ZM380.419 140.32L379.65 140.72L380.565 141.701L380.002 141.994L379.087 141.013L376.568 142.321L376.173 141.898L375.938 137.733L376.561 137.409L379.239 140.279L380.007 139.879L380.419 140.32ZM378.676 140.572L377.352 139.153C377.092 138.874 376.81 138.554 376.507 138.191L376.479 138.206C376.54 138.452 376.578 138.662 376.593 138.836L376.745 141.575L378.676 140.572ZM380.09 135.61L382.142 140.882L381.554 141.187L379.502 135.915L380.09 135.61ZM387.905 137.886L384.501 139.656L384.111 139.238L384.421 137.399C384.513 136.837 384.557 136.447 384.551 136.231C384.545 136.014 384.51 135.818 384.445 135.644C384.381 135.469 384.273 135.301 384.122 135.14C383.91 134.912 383.658 134.775 383.367 134.73C383.074 134.683 382.779 134.737 382.481 134.891C382.266 135.003 382.089 135.138 381.95 135.298C381.813 135.455 381.698 135.672 381.606 135.949L380.986 135.781C381.158 135.206 381.525 134.773 382.087 134.481C382.574 134.228 383.051 134.133 383.52 134.195C383.987 134.256 384.382 134.46 384.705 134.806C384.958 135.077 385.115 135.392 385.178 135.753C385.241 136.113 385.209 136.627 385.081 137.295L384.8 138.798L384.822 138.821L387.486 137.437L387.905 137.886ZM392.057 135.729L388.653 137.498L388.263 137.08L388.573 135.242C388.665 134.679 388.708 134.29 388.702 134.073C388.697 133.856 388.662 133.661 388.597 133.486C388.532 133.312 388.425 133.144 388.274 132.982C388.061 132.754 387.81 132.618 387.518 132.573C387.225 132.525 386.93 132.579 386.633 132.734C386.418 132.846 386.241 132.981 386.101 133.14C385.965 133.298 385.85 133.515 385.757 133.791L385.138 133.623C385.31 133.049 385.677 132.615 386.239 132.323C386.725 132.07 387.203 131.975 387.672 132.038C388.139 132.099 388.534 132.302 388.857 132.649C389.109 132.919 389.267 133.235 389.33 133.595C389.393 133.956 389.36 134.47 389.233 135.137L388.952 136.64L388.973 136.664L391.637 135.279L392.057 135.729Z" fill="#1D212A"/>
</g>
<defs>
<filter id="filter0_i_789_0" x="93.1992" y="136.127" width="379.945" height="292.565" filterUnits="userSpaceOnUse" color-interpolation-filters="sRGB">
<feFlood flood-opacity="0" result="BackgroundImageFix"/>
<feBlend mode="normal" in="SourceGraphic" in2="BackgroundImageFix" result="shape"/>
<feColorMatrix in="SourceAlpha" type="matrix" values="0 0 0 0 0 0 0 0 0 0 0 0 0 0 0 0 0 0 127 0" result="hardAlpha"/>
<feOffset dx="-1.70954" dy="-3.41909"/>
<feComposite in2="hardAlpha" operator="arithmetic" k2="-1" k3="1"/>
<feColorMatrix type="matrix" values="0 0 0 0 1 0 0 0 0 1 0 0 0 0 1 0 0 0 0.5 0"/>
<feBlend mode="normal" in2="shape" result="effect1_innerShadow_789_0"/>
</filter>
<filter id="filter1_dddd_789_0" x="125.95" y="196.928" width="281.444" height="193.998" filterUnits="userSpaceOnUse" color-interpolation-filters="sRGB">
<feFlood flood-opacity="0" result="BackgroundImageFix"/>
<feColorMatrix in="SourceAlpha" type="matrix" values="0 0 0 0 0 0 0 0 0 0 0 0 0 0 0 0 0 0 127 0" result="hardAlpha"/>
<feOffset dx="20.1875" dy="14.6377"/>
<feGaussianBlur stdDeviation="5.5"/>
<feColorMatrix type="matrix" values="0 0 0 0 0.127638 0 0 0 0 0.0736111 0 0 0 0 0.441667 0 0 0 0.15 0"/>
<feBlend mode="normal" in2="BackgroundImageFix" result="effect1_dropShadow_789_0"/>
<feColorMatrix in="SourceAlpha" type="matrix" values="0 0 0 0 0 0 0 0 0 0 0 0 0 0 0 0 0 0 127 0" result="hardAlpha"/>
<feOffset dx="20.1875" dy="19.5168"/>
<feGaussianBlur stdDeviation="9.33671"/>
<feColorMatrix type="matrix" values="0 0 0 0 0.234194 0 0 0 0 0.169826 0 0 0 0 0.608333 0 0 0 0.0813207 0"/>
<feBlend mode="normal" in2="effect1_dropShadow_789_0" result="effect2_dropShadow_789_0"/>
<feColorMatrix in="SourceAlpha" type="matrix" values="0 0 0 0 0 0 0 0 0 0 0 0 0 0 0 0 0 0 127 0" result="hardAlpha"/>
<feOffset dx="20.1875" dy="27.7105"/>
<feGaussianBlur stdDeviation="13.5182"/>
<feColorMatrix type="matrix" values="0 0 0 0 0.300701 0 0 0 0 0.233437 0 0 0 0 0.691667 0 0 0 0.0698078 0"/>
<feBlend mode="normal" in2="effect2_dropShadow_789_0" result="effect3_dropShadow_789_0"/>
<feColorMatrix in="SourceAlpha" type="matrix" values="0 0 0 0 0 0 0 0 0 0 0 0 0 0 0 0 0 0 127 0" result="hardAlpha"/>
<feOffset dx="20.1875" dy="65.6095"/>
<feGaussianBlur stdDeviation="20.1875"/>
<feColorMatrix type="matrix" values="0 0 0 0 0.25578 0 0 0 0 0.182222 0 0 0 0 0.683333 0 0 0 0.15 0"/>
<feBlend mode="normal" in2="effect3_dropShadow_789_0" result="effect4_dropShadow_789_0"/>
<feBlend mode="normal" in="SourceGraphic" in2="effect4_dropShadow_789_0" result="shape"/>
</filter>
<radialGradient id="paint0_radial_789_0" cx="0" cy="0" r="1" gradientUnits="userSpaceOnUse" gradientTransform="translate(348.5 447) rotate(90) scale(64.5 461.195)">
<stop stop-color="#DEE7F1"/>
<stop offset="0.130208" stop-color="#E9F0FA" stop-opacity="0.869792"/>
<stop offset="1" stop-color="white" stop-opacity="0"/>
</radialGradient>
<linearGradient id="paint1_linear_789_0" x1="287.587" y1="7.84105" x2="173.215" y2="205.8" gradientUnits="userSpaceOnUse">
<stop stop-color="#9987FF"/>
<stop offset="1" stop-color="#836FF3"/>
</linearGradient>
<linearGradient id="paint2_linear_789_0" x1="-32.9894" y1="65.8925" x2="97.4617" y2="-37.6277" gradientUnits="userSpaceOnUse">
<stop stop-color="#F4F6F8"/>
<stop offset="0.40625" stop-color="#FAFBFC"/>
<stop offset="1" stop-color="white"/>
</linearGradient>
<linearGradient id="paint3_linear_789_0" x1="-8.23268" y1="199.081" x2="10.251" y2="58.1887" gradientUnits="userSpaceOnUse">
<stop stop-color="white"/>
<stop offset="1" stop-color="white" stop-opacity="0"/>
</linearGradient>
<clipPath id="clip0_789_0">
<rect width="518" height="500" fill="white" transform="translate(0 -0.000488281)"/>
</clipPath>
<clipPath id="clip1_789_0">
<rect width="350" height="98" fill="white" transform="translate(168 402)"/>
</clipPath>
<clipPath id="clip2_789_0">
<rect width="195.458" height="72.4773" fill="white" transform="matrix(0.996738 -0.0807057 0.0810267 0.996712 146.138 212.702)"/>
</clipPath>
</defs>
</svg>
