<svg width="60" height="60" viewBox="0 0 60 60" fill="none" xmlns="http://www.w3.org/2000/svg">
<g clip-path="url(#clip0_6359_8945)">
<path fill-rule="evenodd" clip-rule="evenodd" d="M21.5 44.4159C28.9558 44.4159 35 38.2715 35 30.6922C35 23.1128 28.9558 16.9684 21.5 16.9684C14.0442 16.9684 8 23.1128 8 30.6922C8 38.2715 14.0442 44.4159 21.5 44.4159ZM21.5 46.449C30.0604 46.449 37 39.3944 37 30.6922C37 21.9899 30.0604 14.9353 21.5 14.9353C12.9396 14.9353 6 21.9899 6 30.6922C6 39.3944 12.9396 46.449 21.5 46.449Z" fill="#32D989"/>
<path fill-rule="evenodd" clip-rule="evenodd" d="M21.4998 29.1507C22.8805 29.1507 23.9998 28.0128 23.9998 26.6092C23.9998 25.2056 22.8805 24.0678 21.4998 24.0678C20.119 24.0678 18.9998 25.2056 18.9998 26.6092C18.9998 28.0128 20.119 29.1507 21.4998 29.1507ZM21.4998 31.1838C23.985 31.1838 25.9998 29.1357 25.9998 26.6092C25.9998 24.0828 23.985 22.0347 21.4998 22.0347C19.0145 22.0347 16.9998 24.0828 16.9998 26.6092C16.9998 29.1357 19.0145 31.1838 21.4998 31.1838Z" fill="#32D989"/>
<path fill-rule="evenodd" clip-rule="evenodd" d="M15.2685 36.2667H27.731C26.9157 33.2606 24.3735 31.1838 21.4998 31.1838C18.626 31.1838 16.0838 33.2606 15.2685 36.2667ZM28.0027 36.2664L28.0003 36.2667L28.0027 36.2664ZM14.9993 36.2667L14.9968 36.2664L14.9993 36.2667ZM27.9998 38.2998C29.1043 38.2998 30.0219 37.3791 29.7921 36.2808C28.938 32.1993 25.5496 29.1507 21.4998 29.1507C17.4499 29.1507 14.0615 32.1993 13.2074 36.2808C12.9776 37.3791 13.8952 38.2998 14.9998 38.2998H27.9998Z" fill="#32D989"/>
<path d="M29.2572 2.17856L13.2572 8.68461C12.4979 8.99337 12 9.74098 12 10.5723V15.9519C12 16.5134 11.5523 16.9685 11 16.9685C10.4477 16.9685 10 16.5134 10 15.9519V10.5723C10 8.90962 10.9958 7.41441 12.5144 6.79689L28.5144 0.290834C29.4681 -0.0969447 30.5319 -0.0969447 31.4856 0.290834L47.4856 6.79689C49.0042 7.41441 50 8.90962 50 10.5723V12.9188C50 13.4711 49.5523 13.9188 49 13.9188C48.4477 13.9188 48 13.4711 48 12.9188V10.5723C48 9.74098 47.5021 8.99337 46.7428 8.68461L30.7428 2.17856C30.266 1.98467 29.734 1.98467 29.2572 2.17856Z" fill="#32D989"/>
<path d="M49 11.4543C48.4477 11.4543 48 11.902 48 12.4543V24.7719C48 37.9905 41.5563 50.2937 30.8946 57.6857C30.3539 58.0606 29.6461 58.0606 29.1054 57.6857C25.346 55.0792 22.1109 51.862 19.498 48.2094C19.2055 47.8007 18.6471 47.6935 18.2353 47.9767C17.8266 48.2576 17.7132 48.8202 17.9878 49.2369C20.7736 53.4628 23.6283 56.3493 27.9785 59.3654C29.199 60.2115 30.801 60.2115 32.0215 59.3654C43.2275 51.5961 50 38.6651 50 24.7719V12.4543C50 11.902 49.5523 11.4543 49 11.4543Z" fill="#32D989"/>
</g>
<defs>
<clipPath id="clip0_6359_8945">
<rect width="60" height="60" fill="white"/>
</clipPath>
</defs>
</svg>
