<svg width="60" height="60" viewBox="0 0 60 60" fill="none" xmlns="http://www.w3.org/2000/svg">
<path fill-rule="evenodd" clip-rule="evenodd" d="M20.5011 19.9919C21.3298 19.9919 22.0016 19.3214 22.0016 18.4943C22.0016 17.6673 21.3298 16.9968 20.5011 16.9968C19.6724 16.9968 19.0006 17.6673 19.0006 18.4943C19.0006 19.3214 19.6724 19.9919 20.5011 19.9919ZM20.5011 21.9887C22.4347 21.9887 24.0022 20.4242 24.0022 18.4943C24.0022 16.5645 22.4347 15 20.5011 15C18.5675 15 17 16.5645 17 18.4943C17 20.4242 18.5675 21.9887 20.5011 21.9887Z" fill="#32D989"/>
<path fill-rule="evenodd" clip-rule="evenodd" d="M33.4157 37.9402C35.073 37.9402 36.4166 36.5992 36.4166 34.945C36.4166 33.2909 35.073 31.9499 33.4157 31.9499C31.7583 31.9499 30.4147 33.2909 30.4147 34.945C30.4147 36.5992 31.7583 37.9402 33.4157 37.9402ZM33.4157 39.9369C36.178 39.9369 38.4173 37.702 38.4173 34.945C38.4173 32.1881 36.178 29.9531 33.4157 29.9531C30.6534 29.9531 28.4141 32.1881 28.4141 34.945C28.4141 37.702 30.6534 39.9369 33.4157 39.9369Z" fill="#32D989"/>
<path d="M45.0137 39.9369C45.0137 40.4882 44.566 40.9352 44.0137 40.9352C43.4614 40.9352 43.0137 40.4882 43.0137 39.9369C43.0137 39.3855 43.4614 38.9385 44.0137 38.9385C44.566 38.9385 45.0137 39.3855 45.0137 39.9369Z" fill="#32D989"/>
<path fill-rule="evenodd" clip-rule="evenodd" d="M16.0049 39.9366C16.5573 39.9366 17.0052 39.4897 17.0052 38.9383C17.0052 38.3869 16.5573 37.9399 16.0049 37.9399C15.4524 37.9399 15.0045 38.3869 15.0045 38.9383C15.0045 39.4897 15.4524 39.9366 16.0049 39.9366ZM16.0049 41.9334C17.6623 41.9334 19.0058 40.5924 19.0058 38.9383C19.0058 37.2841 17.6623 35.9431 16.0049 35.9431C14.3475 35.9431 13.0039 37.2841 13.0039 38.9383C13.0039 40.5924 14.3475 41.9334 16.0049 41.9334Z" fill="#32D989"/>
<path fill-rule="evenodd" clip-rule="evenodd" d="M44.014 12.8866C46.7763 12.8866 49.0156 10.6516 49.0156 7.89468C49.0156 5.13772 46.7763 2.90277 44.014 2.90277C41.2517 2.90277 39.0124 5.13772 39.0124 7.89468C39.0124 10.6516 41.2517 12.8866 44.014 12.8866ZM44.014 14.8834C47.8812 14.8834 51.0162 11.7544 51.0162 7.89468C51.0162 4.03494 47.8812 0.906006 44.014 0.906006C40.1467 0.906006 37.0117 4.03494 37.0117 7.89468C37.0117 11.7544 40.1467 14.8834 44.014 14.8834Z" fill="#32D989"/>
<path fill-rule="evenodd" clip-rule="evenodd" d="M53.5154 26.9579C55.449 26.9579 57.0166 25.3934 57.0166 23.4635C57.0166 21.5336 55.449 19.9692 53.5154 19.9692C51.5818 19.9692 50.0143 21.5336 50.0143 23.4635C50.0143 25.3934 51.5818 26.9579 53.5154 26.9579ZM53.5154 28.9546C56.554 28.9546 59.0172 26.4962 59.0172 23.4635C59.0172 20.4309 56.554 17.9724 53.5154 17.9724C50.4769 17.9724 48.0137 20.4309 48.0137 23.4635C48.0137 26.4962 50.4769 28.9546 53.5154 28.9546Z" fill="#32D989"/>
<path fill-rule="evenodd" clip-rule="evenodd" d="M49.7678 48.5515L49.464 46.5747C49.9743 46.4963 50.3162 46.0201 50.2347 45.5205L50.1417 44.9504C49.7958 42.8295 50.8682 40.7322 52.7864 39.7672L53.3031 39.5071C53.4755 39.4204 53.6092 39.2872 53.696 39.13C49.9754 37.8404 46.679 35.2581 44.5539 31.5846C42.3149 27.7139 41.7767 23.324 42.7081 19.2877C42.7703 19.0181 42.5656 18.6584 42.2935 18.5752C38.3281 17.363 34.7891 14.7043 32.5501 10.8338C31.7457 9.44327 31.1597 7.98327 30.7831 6.49471C30.7806 6.48485 30.7615 6.41902 30.6608 6.28345C30.5559 6.14213 30.4049 5.98042 30.1807 5.76567C30.1513 5.7375 30.1222 5.7089 30.0933 5.67985L29.6859 5.26968C29.3242 4.90555 28.7328 4.90555 28.3711 5.26967L27.9637 5.67985L26.5447 4.27036L26.9522 3.86018C28.096 2.70871 29.961 2.70872 31.1048 3.86018L31.5123 4.27036C31.5294 4.28765 31.5468 4.30469 31.5643 4.32147C32.0626 4.79881 32.5529 5.33585 32.722 6.00419C33.0537 7.31536 33.5703 8.60322 34.2813 9.83231C36.2568 13.2474 39.3766 15.5921 42.8782 16.6626C44.1521 17.052 44.9559 18.4416 44.6569 19.7374C43.835 23.2992 44.3096 27.168 46.2852 30.5831C48.2117 33.9135 51.2264 36.226 54.6222 37.3314C55.2332 37.5303 55.7928 37.9693 55.8094 38.6104C55.8377 39.7035 55.2465 40.7683 54.2021 41.2938L53.6853 41.5538C52.5459 42.127 51.9106 43.3715 52.1156 44.6284L52.2086 45.1985C52.4697 46.7989 51.3735 48.3048 49.7678 48.5515ZM49.1958 48.6394C47.9347 48.8332 46.9452 49.8209 46.751 51.0795L46.6629 51.6504C46.4157 53.2529 44.9069 54.347 43.3034 54.0865L42.7322 53.9937C41.4728 53.7891 40.2259 54.4231 39.6516 55.5603L37.8664 54.6586C38.8347 52.7415 40.9347 51.6754 43.0529 52.0196L43.6241 52.1124C44.1347 52.1953 44.609 51.8467 44.6863 51.3454L44.7744 50.7746C45.102 48.6511 46.7705 46.9887 48.892 46.6627L49.464 46.5747L49.7678 48.5515L49.1958 48.6394ZM39.391 56.0761L39.6516 55.5603L37.8664 54.6586L37.6058 55.1744C37.376 55.6295 36.8149 55.8139 36.3559 55.578L35.8414 55.3136C33.9325 54.3325 31.6064 54.6996 30.0933 56.2227L29.6859 56.6329C29.3242 56.997 28.7328 56.997 28.3711 56.6329L27.9636 56.2227C26.4506 54.6996 24.1245 54.3325 22.2156 55.3136L21.7011 55.578C21.2421 55.8139 20.681 55.6295 20.4511 55.1744L20.1906 54.6586C19.2223 52.7415 17.1223 51.6754 15.004 52.0196L14.4328 52.1124C13.9223 52.1953 13.448 51.8467 13.3707 51.3454L13.2826 50.7746C12.955 48.6511 11.2865 46.9887 9.16499 46.6627L8.59301 46.5748C8.08272 46.4963 7.74078 46.0201 7.82228 45.5205L7.91527 44.9504C8.26123 42.8295 7.18874 40.7322 5.27062 39.7672L4.75385 39.5071C4.29503 39.2763 4.1164 38.72 4.34906 38.2691L4.61401 37.7556C5.59928 35.846 5.22947 33.5195 3.70252 32.0086L3.29154 31.6019C2.92886 31.243 2.92886 30.6595 3.29155 30.3006L3.70252 29.894C5.22947 28.383 5.59928 26.0566 4.61401 24.147L4.34906 23.6335C4.1164 23.1826 4.29502 22.6263 4.75384 22.3954L5.27061 22.1354C7.18874 21.1703 8.26123 19.0731 7.91527 16.9522L7.82228 16.3821C7.74078 15.8824 8.0827 15.4062 8.59301 15.3278L9.16499 15.2399C11.2865 14.9139 12.955 13.2514 13.2826 11.128L13.3707 10.5571C13.448 10.0559 13.9223 9.70722 14.4328 9.79017L15.0041 9.88298C17.1223 10.2272 19.2223 9.16107 20.1906 7.24395L20.4511 6.72818C20.681 6.27309 21.2421 6.08866 21.7011 6.32455L22.2156 6.58899C24.1245 7.57008 26.4506 7.20299 27.9637 5.67985L26.5447 4.27036C25.6464 5.17471 24.2642 5.39321 23.1298 4.81018L22.6153 4.54574C21.171 3.8034 19.3973 4.3786 18.6659 5.82649L18.4054 6.34226C17.8311 7.47941 16.5842 8.1135 15.3248 7.90887L14.7536 7.81606C13.1501 7.55552 11.6413 8.64961 11.3941 10.2522L11.306 10.8231C11.1118 12.0817 10.1223 13.0693 8.8612 13.2631L8.28922 13.351C6.68354 13.5978 5.58732 15.1037 5.84836 16.7041L5.94136 17.2741C6.14638 18.5311 5.51106 19.7755 4.3717 20.3488L3.85493 20.6088C2.40424 21.3387 1.82792 23.109 2.5717 24.5505L2.83665 25.064C3.42081 26.1962 3.20189 27.5757 2.29579 28.4723L1.88481 28.879C0.731106 30.0206 0.731104 31.882 1.88481 33.0236L2.29578 33.4302C3.20189 34.3268 3.4208 35.7063 2.83665 36.8385L2.5717 37.352C1.82792 38.7936 2.40424 40.5639 3.85493 41.2938L4.3717 41.5538C5.51106 42.127 6.14638 43.3715 5.94136 44.6284L5.84836 45.1985C5.58732 46.7989 6.68353 48.3048 8.28922 48.5515L8.8612 48.6394C10.1223 48.8332 11.1118 49.8209 11.306 51.0795L11.3941 51.6504C11.6413 53.2529 13.1501 54.347 14.7536 54.0865L15.3248 53.9937C16.5842 53.7891 17.8311 54.4231 18.4054 55.5603L18.6659 56.0761C19.3973 57.524 21.171 58.0992 22.6153 57.3568L23.1298 57.0924C24.2642 56.5094 25.6464 56.7278 26.5447 57.6322L26.9522 58.0424C28.096 59.1938 29.961 59.1938 31.1048 58.0424L31.5123 57.6322C32.4106 56.7278 33.7928 56.5094 34.9272 57.0924L35.4417 57.3568C36.886 58.0992 38.6597 57.524 39.391 56.0761Z" fill="#32D989"/>
</svg>
