<svg width="60" height="60" viewBox="0 0 60 60" fill="none" xmlns="http://www.w3.org/2000/svg">
<path fill-rule="evenodd" clip-rule="evenodd" d="M13.0079 15.1392L2.06251 19.2928L2.45735 29.4067C2.74237 36.7077 6.64665 43.468 13.0079 47.6447C19.3692 43.468 23.2735 36.7077 23.5585 29.4067L23.9533 19.2928L13.0079 15.1392ZM12.2983 13.2693C12.7555 13.0958 13.2604 13.0958 13.7175 13.2693L24.6629 17.4229C25.4664 17.7278 25.9853 18.512 25.9518 19.3708L25.557 29.4847C25.2442 37.4974 20.9426 44.869 14.0109 49.3784C13.4009 49.7753 12.615 49.7753 12.0049 49.3784C5.0732 44.869 0.771672 37.4974 0.458876 29.4847L0.0640337 19.3708C0.0305069 18.512 0.549385 17.7278 1.35291 17.4229L12.2983 13.2693Z" fill="#32D989"/>
<path fill-rule="evenodd" clip-rule="evenodd" d="M39.0078 2H21.0078C19.9032 2 19.0078 2.89543 19.0078 4H41.0078C41.0078 2.89543 40.1124 2 39.0078 2ZM21.0078 0C18.7987 0 17.0078 1.79086 17.0078 4V6H43.0078V4C43.0078 1.79086 41.217 0 39.0078 0H21.0078Z" fill="#32D989"/>
<path fill-rule="evenodd" clip-rule="evenodd" d="M25.0078 12L35.0078 12C36.1124 12 37.0078 11.1046 37.0078 10L37.0078 6L23.0078 6L23.0078 10C23.0078 11.1046 23.9032 12 25.0078 12ZM35.0078 14C37.217 14 39.0078 12.2091 39.0078 10L39.0078 4L21.0078 4L21.0078 10C21.0078 12.2091 22.7987 14 25.0078 14L35.0078 14Z" fill="#32D989"/>
<path fill-rule="evenodd" clip-rule="evenodd" d="M13.0078 36C16.3215 36 19.0078 33.3137 19.0078 30C19.0078 26.6863 16.3215 24 13.0078 24C9.6941 24 7.00781 26.6863 7.00781 30C7.00781 33.3137 9.6941 36 13.0078 36ZM13.0078 38C17.4261 38 21.0078 34.4183 21.0078 30C21.0078 25.5817 17.4261 22 13.0078 22C8.58953 22 5.00781 25.5817 5.00781 30C5.00781 34.4183 8.58953 38 13.0078 38Z" fill="#32D989"/>
<path fill-rule="evenodd" clip-rule="evenodd" d="M16.3006 29.7071C16.6911 29.3166 16.6911 28.6834 16.3006 28.2929C15.9101 27.9024 15.2769 27.9024 14.8864 28.2929L12.0077 31.1716L11.129 30.2929C10.7385 29.9024 10.1053 29.9024 9.71477 30.2929C9.32424 30.6834 9.32424 31.3166 9.71477 31.7071L11.3006 33.2929C11.6911 33.6834 12.3242 33.6834 12.7148 33.2929L13.4127 32.5949C13.4158 32.5919 13.4189 32.5888 13.4219 32.5858L16.3006 29.7071Z" fill="#32D989"/>
<path fill-rule="evenodd" clip-rule="evenodd" d="M14.0078 6H46.0078C47.1124 6 48.0078 6.89543 48.0078 8V9C48.0078 9.03481 48.0096 9.0692 48.0131 9.10309V12.8384H48.0208C48.0123 12.891 48.0078 12.945 48.0078 13V56C48.0078 57.1046 47.1124 58 46.0078 58H19.0078C18.9508 58 18.895 58.0048 18.8406 58.0139H15.175C15.1206 58.0048 15.0648 58 15.0078 58H14.0078C12.9032 58 12.0078 57.1046 12.0078 56V52C12.0078 51.4477 11.5601 51 11.0078 51C10.4555 51 10.0078 51.4477 10.0078 52V56C10.0078 58.2091 11.7987 60 14.0078 60H14.2405H15.0078H19.0078H20.1274H46.0078C48.217 60 50.0078 58.2091 50.0078 56V13C50.0078 12.945 50.0034 12.891 49.9948 12.8384H50.0078V9V8.38403V8C50.0078 5.79086 48.2169 4 46.0078 4H14.0078C11.7987 4 10.0078 5.79086 10.0078 8V11C10.0078 11.5523 10.4555 12 11.0078 12C11.5601 12 12.0078 11.5523 12.0078 11V8C12.0078 6.89543 12.9032 6 14.0078 6Z" fill="#32D989"/>
</svg>
