<svg width="60" height="60" viewBox="0 0 60 60" fill="none" xmlns="http://www.w3.org/2000/svg">
<path fill-rule="evenodd" clip-rule="evenodd" d="M43.9998 12H56.9998C57.552 12 57.9998 11.5523 57.9998 11V10C58.0013 8.53048 58.004 6.98583 57.0707 4.95709C56.5719 3.87261 55.7982 2.86298 54.6134 2.13299C53.433 1.40574 51.9161 1 49.9998 1C49.6524 1 49.3192 1.01933 48.9998 1.05629V1H20.9998C18.2388 1 16.4374 2.27336 15.3669 3.88398C14.3322 5.44084 13.9998 7.27195 13.9998 8.5V50H1.99976C1.41942 50 0.960951 50.4924 1.0023 51.0713C1.09418 52.3577 1.52855 54.2795 2.56889 55.9124C3.63145 57.5801 5.37403 59 7.99976 59H36.9605C38.1674 59.09 39.9136 58.7865 41.3823 57.5871C42.9077 56.3413 43.9998 54.2402 43.9998 51V12ZM20.9998 3H44.8747C44.249 3.61606 43.7521 4.32845 43.364 5.06888C42.2645 7.16686 41.9998 9.53315 41.9998 10.7646V51C41.9998 53.7598 41.0918 55.2421 40.1172 56.038C39.1038 56.8656 37.8746 57.0695 37.0828 57.0035L37.0414 57H36.0146C33.3142 57 31.8402 55.9713 31.0213 54.8015C30.2699 53.728 30.0064 52.4407 29.9998 51.4684V51.3928C30.0005 51.2808 30.0048 51.1733 30.012 51.0712L29.9998 51.0703V51C29.9998 50.4478 29.552 50 28.9998 50H15.9998V8.5C15.9998 7.56138 16.2673 6.14249 17.0326 4.99102C17.7621 3.89331 18.9607 3 20.9998 3ZM28.021 52H3.14902C3.33413 52.9022 3.68469 53.9416 4.25562 54.8377C5.0514 56.0867 6.22549 57 7.99976 57H30.292C29.9464 56.6753 29.6444 56.322 29.3829 55.9484C28.4862 54.6675 28.1092 53.2119 28.021 52ZM45.1355 5.99728C44.4232 7.35647 44.1271 8.90204 44.0345 10H55.9943C55.9715 8.64299 55.8543 7.09841 55.2538 5.79291C54.8901 5.00239 54.3576 4.32452 53.5643 3.83576C52.7665 3.34426 51.6334 3 49.9998 3C47.4583 3 46.0071 4.33413 45.1355 5.99728Z" fill="#32D989"/>
<path fill-rule="evenodd" clip-rule="evenodd" d="M37.5536 35.0001L29 20.0312L20.4463 35.0001L37.5536 35.0001ZM30.7364 19.039C29.9687 17.6953 28.0313 17.6953 27.2635 19.039L18.7098 34.0078C17.9479 35.3412 18.9107 37.0001 20.4463 37.0001H37.5536C39.0892 37.0001 40.052 35.3412 39.2901 34.0078L30.7364 19.039Z" fill="#32D989"/>
<rect x="28" y="24" width="2" height="7" rx="1" fill="#32D989"/>
<circle cx="29" cy="33" r="1" fill="#32D989"/>
</svg>
