<svg width="60" height="60" viewBox="0 0 60 60" fill="none" xmlns="http://www.w3.org/2000/svg">
<path fill-rule="evenodd" clip-rule="evenodd" d="M20.9788 4.78876L19.3924 6.00671C19.0258 5.52928 18.4969 5.43929 17.9828 5.68136C17.7245 5.80298 17.543 5.98531 17.4475 6.1675C17.3646 6.32565 17.3111 6.54482 17.398 6.8724L17.5265 7.35697C18.6769 11.6955 14.0652 15.0674 10.235 13.1269L9.78038 12.8966C9.20625 12.6057 8.69427 12.7735 8.36035 13.1829C8.18964 13.3922 8.11082 13.622 8.10585 13.8183C8.10154 13.9886 8.1482 14.2133 8.3805 14.4816L8.71131 14.8637L7.33276 16.0573L8.71131 14.8637C11.6581 18.2673 9.00956 23.3152 4.67002 23.1909L4.15824 23.1763C3.77692 23.1653 3.54264 23.278 3.39096 23.4024C3.22207 23.5409 3.08927 23.7512 3.03082 24.0016C2.97234 24.2521 3.00043 24.4895 3.08516 24.673C3.15997 24.835 3.31045 25.0281 3.65308 25.1775L4.12068 25.3814L3.36685 27.1102L4.12069 25.3814C8.18636 27.1543 8.18634 32.8457 4.12069 34.6186L3.65309 34.8225L2.85365 32.9892L3.32125 32.7853C5.78616 31.7104 5.78616 28.2896 3.32126 27.2147L2.85366 27.0108C-0.267424 25.6498 0.799524 21.0793 4.21549 21.1771L4.72727 21.1917C7.42506 21.269 8.94311 18.1869 7.1993 16.1728L6.86848 15.7908C4.66045 13.2405 7.64998 9.57522 10.6843 11.1125L11.1389 11.3428C13.5352 12.5568 16.2706 10.424 15.5933 7.86959L15.4648 7.38502C14.6071 4.15062 18.9271 2.11654 20.9788 4.78876ZM21.2861 5.18911C22.9064 7.29953 26.3174 6.53832 26.8407 3.94955L26.94 3.45844L28.9003 3.85471L28.8011 4.34581C27.9274 8.66775 22.3333 9.83733 19.6997 6.40706L19.3924 6.00671L20.9788 4.78876L21.2861 5.18911ZM33.06 3.45844C32.3974 0.180517 27.6026 0.180522 26.94 3.45844L28.9003 3.85471C28.9674 3.52297 29.1153 3.33861 29.2732 3.22162C29.452 3.08912 29.708 3 30 3C30.292 3 30.548 3.08912 30.7268 3.22162C30.8847 3.3386 31.0326 3.52297 31.0997 3.85469L31.1989 4.34579L33.1593 3.94955L31.1989 4.34581C32.0726 8.66773 37.6667 9.83735 40.3003 6.40707L38.7884 5.24634L40.3003 6.40706L40.6076 6.00671C40.9742 5.52929 41.5031 5.43929 42.0172 5.68137C42.2755 5.80298 42.4571 5.98531 42.5525 6.1675C42.6354 6.32565 42.6889 6.54482 42.602 6.87239L42.4735 7.35697C41.3231 11.6955 45.9348 15.0674 49.765 13.1269L50.2196 12.8966C50.7938 12.6057 51.3057 12.7735 51.6397 13.1829C51.8104 13.3922 51.8892 13.622 51.8942 13.8183C51.8985 13.9886 51.8518 14.2133 51.6195 14.4816L51.2887 14.8637C48.3419 18.2673 50.9904 23.3152 55.33 23.1909L55.8418 23.1763C56.2231 23.1653 56.4574 23.278 56.609 23.4024C56.7779 23.5409 56.9107 23.7512 56.9692 24.0016C57.0277 24.2521 56.9996 24.4895 56.9148 24.673C56.84 24.835 56.6896 25.0281 56.3469 25.1775L55.8793 25.3814L56.6787 27.2147L55.8793 25.3814C51.8137 27.1543 51.8137 32.8457 55.8793 34.6186L56.3469 34.8225C56.6895 34.9719 56.84 35.165 56.9148 35.327C56.9996 35.5105 57.0277 35.7479 56.9692 35.9984C56.9107 36.2488 56.7779 36.4591 56.609 36.5976C56.4574 36.722 56.2231 36.8346 55.8418 36.8237L55.33 36.8091C50.9904 36.6848 48.3419 41.7327 51.2887 45.1363L51.6195 45.5184C51.8518 45.7867 51.8985 46.0113 51.8942 46.1817C51.8892 46.378 51.8104 46.6078 51.6397 46.8171C51.3057 47.2265 50.7938 47.3943 50.2196 47.1034L49.765 46.8731C45.9348 44.9326 41.3231 48.3045 42.4735 52.643L42.602 53.1276C42.6889 53.4552 42.6354 53.6743 42.5525 53.8325C42.457 54.0147 42.2755 54.197 42.0172 54.3186C41.5031 54.5607 40.9742 54.4707 40.6076 53.9933L40.3003 53.5929C37.6667 50.1627 32.0726 51.3323 31.1989 55.6542L31.0997 56.1453C31.0326 56.477 30.8847 56.6614 30.7268 56.7784C30.548 56.9109 30.292 57 30 57C29.708 57 29.452 56.9109 29.2732 56.7784C29.1153 56.6614 28.9674 56.477 28.9003 56.1453L28.8011 55.6542C27.9274 51.3323 22.3333 50.1627 19.6997 53.5929L19.3924 53.9933C19.0258 54.4707 18.4969 54.5607 17.9828 54.3186C17.7245 54.197 17.543 54.0147 17.4475 53.8325C17.3646 53.6744 17.3111 53.4552 17.398 53.1276L17.5265 52.643C18.6769 48.3045 14.0652 44.9326 10.235 46.8731L9.78038 47.1034C9.20625 47.3943 8.69427 47.2265 8.36035 46.8171C8.18964 46.6078 8.11082 46.378 8.10585 46.1817C8.10153 46.0113 8.14819 45.7867 8.3805 45.5184L6.86848 44.2092L8.3805 45.5184L8.71131 45.1363C11.6581 41.7327 9.00957 36.6848 4.67002 36.8091L4.15825 36.8237C3.77692 36.8346 3.54264 36.722 3.39096 36.5976C3.22207 36.4591 3.08927 36.2488 3.03082 35.9984C2.97234 35.7479 3.00043 35.5105 3.08516 35.327C3.15997 35.165 3.31045 34.9719 3.65309 34.8225L2.85365 32.9892C-0.267428 34.3502 0.79953 38.9207 4.21549 38.8229L4.72727 38.8083C7.42506 38.731 8.94311 41.8131 7.19929 43.8272L6.86848 44.2092C4.66045 46.7595 7.64999 50.4248 10.6843 48.8875L11.1389 48.6572C13.5352 47.4431 16.2706 49.576 15.5933 52.1304L15.4648 52.615C14.6071 55.8494 18.9272 57.8835 20.9788 55.2112L21.2861 54.8109C22.9064 52.7005 26.3174 53.4617 26.8407 56.0504L26.94 56.5416C27.6026 59.8195 32.3974 59.8195 33.06 56.5416L33.1593 56.0504C33.6826 53.4617 37.0936 52.7005 38.7139 54.8109L39.0213 55.2112C41.0729 57.8835 45.3929 55.8494 44.5352 52.615L44.4067 52.1304C43.7294 49.576 46.4648 47.4432 48.8611 48.6572L49.3158 48.8875C52.35 50.4248 55.3396 46.7595 53.1315 44.2092L52.8007 43.8272C51.0569 41.8131 52.5749 38.731 55.2727 38.8083L55.7845 38.8229C59.2005 38.9207 60.2674 34.3502 57.1463 32.9892L56.6787 32.7853C54.2138 31.7104 54.2138 28.2896 56.6787 27.2147L57.1464 27.0108C60.2674 25.6498 59.2005 21.0793 55.7845 21.1771L55.2727 21.1917C52.5749 21.269 51.0569 18.1869 52.8007 16.1728L53.1315 15.7907C55.3396 13.2405 52.35 9.57522 49.3157 11.1125L48.8611 11.3428C46.4648 12.5568 43.7294 10.424 44.4067 7.86959L44.5352 7.38501C45.3929 4.15062 41.0729 2.11655 39.0212 4.78877L38.7139 5.18912C37.0936 7.29953 33.6826 6.53832 33.1593 3.94955L33.06 3.45844Z" fill="#32D989"/>
<path fill-rule="evenodd" clip-rule="evenodd" d="M30 39C34.9706 39 39 34.9706 39 30C39 25.0294 34.9706 21 30 21C25.0294 21 21 25.0294 21 30C21 34.9706 25.0294 39 30 39ZM30 41C36.0751 41 41 36.0751 41 30C41 23.9249 36.0751 19 30 19C23.9249 19 19 23.9249 19 30C19 36.0751 23.9249 41 30 41Z" fill="#32D989"/>
<path fill-rule="evenodd" clip-rule="evenodd" d="M30 43C37.1797 43 43 37.1797 43 30C43 22.8203 37.1797 17 30 17C22.8203 17 17 22.8203 17 30C17 37.1797 22.8203 43 30 43ZM30 45C38.2843 45 45 38.2843 45 30C45 21.7157 38.2843 15 30 15C21.7157 15 15 21.7157 15 30C15 38.2843 21.7157 45 30 45Z" fill="#32D989"/>
</svg>
