<svg width="24" height="24" viewBox="0 0 24 24" fill="none" xmlns="http://www.w3.org/2000/svg">
<path d="M5.01707 1C2.79179 1 1 2.79179 1 5.01706V18.9829C1 21.2082 2.79179 23 5.01707 23H12.5865V14.3994H10.3122V11.3029H12.5865V8.65737C12.5865 6.57892 13.9302 4.67056 17.0256 4.67056C18.2789 4.67056 19.2057 4.79088 19.2057 4.79088L19.1328 7.68251C19.1328 7.68251 18.1876 7.67358 17.1562 7.67358C16.04 7.67358 15.861 8.18789 15.861 9.04171V11.3029H19.2215L19.0751 14.3994H15.861V23H18.9829C21.2082 23 23 21.2082 23 18.9829V5.01708C23 2.79181 21.2082 1.00002 18.9829 1.00002H5.01705L5.01707 1Z" fill="#3B5998"/>
</svg>
