<svg width="24" height="24" viewBox="0 0 24 24" fill="none" xmlns="http://www.w3.org/2000/svg">
<path fill-rule="evenodd" clip-rule="evenodd" d="M1 5.65187C1 3.07661 3.07662 1 5.65188 1H8.05215L18.3481 1.00002C20.9234 1.00002 23 3.07663 23 5.65189V18.3481C23 20.9234 20.9234 23 18.3481 23H14.51V13.1813H17.4781L17.5166 12.3663H14.51V9.31065C14.51 8.9194 14.5333 8.28887 14.9309 7.78112C15.3789 7.20905 16.0588 7.06689 16.6875 7.06689C16.9766 7.06689 17.2581 7.06765 17.5094 7.06872L17.5272 6.36335C17.2509 6.3482 16.9251 6.33687 16.5688 6.33687C15.3739 6.33687 14.6425 6.69938 14.2096 7.14078C13.7682 7.59069 13.5331 8.22815 13.5331 8.96125V12.3662H11.4656V13.1812H13.5331V23H5.65188C3.07662 23 1 20.9234 1 18.3481V5.65187ZM18.5506 5.44625L18.6794 4.45458L19.573 4.57059L19.4593 9.08427L18.4749 9.07496L18.3275 9.07371C18.2328 9.07295 18.0967 9.07194 17.9314 9.07093C17.6007 9.06891 17.1536 9.06689 16.6875 9.06689C16.6164 9.06689 16.5611 9.0702 16.5191 9.07458C16.5136 9.13159 16.51 9.20809 16.51 9.31065V10.3663H19.6134L19.3857 15.1813H16.51V21H18.3481C19.8188 21 21 19.8188 21 18.3481V5.65189C21 4.1812 19.8188 3.00002 18.3481 3.00002H5.64139C4.17557 3.00562 3 4.18468 3 5.65187V18.3481C3 19.8188 4.18118 21 5.65188 21H11.5331V15.1812H9.46564V10.3662H11.5331V8.96125C11.5331 7.80485 11.9089 6.63012 12.7818 5.74022C13.6631 4.8418 14.9495 4.33687 16.5688 4.33687C17.1695 4.33687 17.6913 4.36567 18.0642 4.39455C18.251 4.40902 18.4013 4.42358 18.5065 4.43473C18.5592 4.44031 18.6006 4.44504 18.6298 4.44849L18.6642 4.45265L18.6742 4.45391L18.6774 4.45432L18.6794 4.45458C18.6795 4.45459 18.6794 4.45458 18.5506 5.44625Z" fill="#8770FF"/>
</svg>
