<svg width="110" height="24" viewBox="0 0 110 24" fill="none" xmlns="http://www.w3.org/2000/svg">
<path d="M4.35156 11.0234C5.55469 11.0234 6.5 11.3229 7.1875 11.9219C7.88021 12.5156 8.22656 13.3307 8.22656 14.3672C8.22656 15.5495 7.84896 16.4766 7.09375 17.1484C6.34375 17.8203 5.30729 18.1562 3.98438 18.1562C2.69792 18.1562 1.71615 17.9505 1.03906 17.5391V16.2891C1.40365 16.5234 1.85677 16.7083 2.39844 16.8438C2.9401 16.974 3.47396 17.0391 4 17.0391C4.91667 17.0391 5.6276 16.8229 6.13281 16.3906C6.64323 15.9583 6.89844 15.3333 6.89844 14.5156C6.89844 12.9219 5.92188 12.125 3.96875 12.125C3.47396 12.125 2.8125 12.2005 1.98438 12.3516L1.3125 11.9219L1.74219 6.57812H7.42188V7.77344H2.85156L2.5625 11.2031C3.16146 11.0833 3.75781 11.0234 4.35156 11.0234ZM10.3438 17.1719C10.3438 16.8229 10.4219 16.5599 10.5781 16.3828C10.7396 16.2005 10.9688 16.1094 11.2656 16.1094C11.5677 16.1094 11.8021 16.2005 11.9688 16.3828C12.1406 16.5599 12.2266 16.8229 12.2266 17.1719C12.2266 17.5104 12.1406 17.7708 11.9688 17.9531C11.7969 18.1354 11.5625 18.2266 11.2656 18.2266C11 18.2266 10.7786 18.1458 10.6016 17.9844C10.4297 17.8177 10.3438 17.5469 10.3438 17.1719ZM21.7734 12.2734C21.7734 14.2474 21.4609 15.7214 20.8359 16.6953C20.2161 17.6693 19.2656 18.1562 17.9844 18.1562C16.7552 18.1562 15.8203 17.6589 15.1797 16.6641C14.5391 15.6641 14.2188 14.2005 14.2188 12.2734C14.2188 10.2839 14.5286 8.80729 15.1484 7.84375C15.7682 6.88021 16.7135 6.39844 17.9844 6.39844C19.224 6.39844 20.1641 6.90104 20.8047 7.90625C21.4505 8.91146 21.7734 10.3672 21.7734 12.2734ZM15.5312 12.2734C15.5312 13.9349 15.7266 15.1458 16.1172 15.9062C16.5078 16.6615 17.1302 17.0391 17.9844 17.0391C18.849 17.0391 19.474 16.6562 19.8594 15.8906C20.25 15.1198 20.4453 13.9141 20.4453 12.2734C20.4453 10.6328 20.25 9.43229 19.8594 8.67188C19.474 7.90625 18.849 7.52344 17.9844 7.52344C17.1302 7.52344 16.5078 7.90104 16.1172 8.65625C15.7266 9.40625 15.5312 10.612 15.5312 12.2734Z" fill="#1D212A"/>
<path d="M38 4L39.7961 9.52786H45.6085L40.9062 12.9443L42.7023 18.4721L38 15.0557L33.2977 18.4721L35.0938 12.9443L30.3915 9.52786H36.2039L38 4Z" fill="#32D989"/>
<path d="M54 4L55.7961 9.52786H61.6085L56.9062 12.9443L58.7023 18.4721L54 15.0557L49.2977 18.4721L51.0938 12.9443L46.3915 9.52786H52.2039L54 4Z" fill="#32D989"/>
<path d="M70 4L71.7961 9.52786H77.6085L72.9062 12.9443L74.7023 18.4721L70 15.0557L65.2977 18.4721L67.0938 12.9443L62.3915 9.52786H68.2039L70 4Z" fill="#32D989"/>
<path d="M86 4L87.7961 9.52786H93.6085L88.9062 12.9443L90.7023 18.4721L86 15.0557L81.2977 18.4721L83.0938 12.9443L78.3915 9.52786H84.2039L86 4Z" fill="#32D989"/>
<path d="M102 4L103.796 9.52786H109.608L104.906 12.9443L106.702 18.4721L102 15.0557L97.2977 18.4721L99.0938 12.9443L94.3915 9.52786H100.204L102 4Z" fill="#32D989"/>
</svg>
