<svg width="1437" height="779" viewBox="0 0 1437 779" fill="none" xmlns="http://www.w3.org/2000/svg">
<path d="M871.433 -73.6065C875.259 -75.8156 881.463 -75.8156 885.29 -73.6064L1107.46 54.6649C1111.29 56.8741 1111.29 60.4558 1107.46 62.6649L954.259 151.117C950.433 153.326 944.229 153.326 940.403 151.117L718.23 22.8454C714.404 20.6362 714.404 17.0545 718.23 14.8454L871.433 -73.6065Z" fill="white" fill-opacity="0.1"/>
<path fill-rule="evenodd" clip-rule="evenodd" d="M1104 56.6649L881.825 -71.6064C879.912 -72.711 876.81 -72.711 874.897 -71.6065L721.694 16.8454C719.781 17.95 719.781 19.7408 721.694 20.8454L943.867 149.117C945.78 150.221 948.882 150.221 950.795 149.117L1104 60.6649C1105.91 59.5604 1105.91 57.7695 1104 56.6649ZM885.29 -73.6064C881.463 -75.8156 875.259 -75.8156 871.433 -73.6065L718.23 14.8454C714.404 17.0545 714.404 20.6362 718.23 22.8454L940.403 151.117C944.229 153.326 950.433 153.326 954.259 151.117L1107.46 62.6649C1111.29 60.4558 1111.29 56.8741 1107.46 54.6649L885.29 -73.6064Z" fill="white" fill-opacity="0.1"/>
<path fill-rule="evenodd" clip-rule="evenodd" d="M1095.03 67.1866L863.602 -66.4302L867.066 -68.4302L1098.5 65.1866L1095.03 67.1866Z" fill="white" fill-opacity="0.1"/>
<path fill-rule="evenodd" clip-rule="evenodd" d="M938.703 107.891L793.1 23.8271L796.564 21.8271L942.167 105.891L938.703 107.891Z" fill="white" fill-opacity="0.1"/>
<path fill-rule="evenodd" clip-rule="evenodd" d="M946.365 125.588L762.446 19.4028L765.91 17.4028L949.829 123.588L946.365 125.588Z" fill="white" fill-opacity="0.1"/>
<path fill-rule="evenodd" clip-rule="evenodd" d="M881.825 56.6649C898.957 66.5562 926.734 66.5562 943.866 56.6649C960.999 46.7736 960.999 30.7366 943.866 20.8453C926.734 10.954 898.957 10.954 881.825 20.8453C864.693 30.7366 864.693 46.7736 881.825 56.6649ZM878.361 58.6649C897.406 69.6607 928.285 69.6607 947.33 58.6649C966.376 47.669 966.376 29.8412 947.33 18.8453C928.285 7.84946 897.406 7.84946 878.361 18.8453C859.316 29.8412 859.316 47.669 878.361 58.6649Z" fill="white" fill-opacity="0.1"/>
<path fill-rule="evenodd" clip-rule="evenodd" d="M902.355 40.9138L935.199 40.9138L935.199 43.7423L897.456 43.7423L897.456 32.2178L902.355 32.2178L902.355 40.9138Z" fill="white" fill-opacity="0.1"/>
<path d="M804.914 104.903C808.74 102.694 814.944 102.694 818.77 104.903L1040.94 233.174C1044.77 235.383 1044.77 238.965 1040.94 241.174L887.739 329.626C883.913 331.835 877.709 331.835 873.883 329.626L651.711 201.355C647.884 199.146 647.884 195.564 651.711 193.355L804.914 104.903Z" fill="white" fill-opacity="0.1"/>
<path fill-rule="evenodd" clip-rule="evenodd" d="M1037.48 235.174L815.306 106.903C813.393 105.798 810.291 105.798 808.378 106.903L655.175 195.355C653.261 196.459 653.261 198.25 655.175 199.355L877.347 327.626C879.26 328.731 882.362 328.731 884.275 327.626L1037.48 239.174C1039.39 238.07 1039.39 236.279 1037.48 235.174ZM818.77 104.903C814.944 102.694 808.74 102.694 804.914 104.903L651.711 193.355C647.884 195.564 647.884 199.146 651.711 201.355L873.883 329.626C877.709 331.835 883.913 331.835 887.739 329.626L1040.94 241.174C1044.77 238.965 1044.77 235.383 1040.94 233.174L818.77 104.903Z" fill="white" fill-opacity="0.1"/>
<path fill-rule="evenodd" clip-rule="evenodd" d="M1028.51 245.696L797.083 112.079L800.547 110.079L1031.98 243.696L1028.51 245.696Z" fill="white" fill-opacity="0.1"/>
<path fill-rule="evenodd" clip-rule="evenodd" d="M872.183 286.4L726.581 202.336L730.045 200.336L875.647 284.4L872.183 286.4Z" fill="white" fill-opacity="0.1"/>
<path fill-rule="evenodd" clip-rule="evenodd" d="M879.845 304.098L695.927 197.912L699.391 195.912L883.309 302.098L879.845 304.098Z" fill="white" fill-opacity="0.1"/>
<path d="M813.533 111.389C812.923 111.741 811.936 111.741 811.327 111.389C810.718 111.037 810.718 110.467 811.327 110.115C811.936 109.764 812.923 109.764 813.533 110.115C814.142 110.467 814.142 111.037 813.533 111.389Z" fill="white" fill-opacity="0.2"/>
<path d="M817.945 113.936C817.336 114.288 816.348 114.288 815.739 113.936C815.13 113.585 815.13 113.014 815.739 112.663C816.348 112.311 817.336 112.311 817.945 112.663C818.554 113.014 818.554 113.585 817.945 113.936Z" fill="white" fill-opacity="0.2"/>
<path d="M822.357 116.483C821.748 116.835 820.76 116.835 820.151 116.483C819.542 116.131 819.542 115.561 820.151 115.21C820.76 114.858 821.748 114.858 822.357 115.21C822.966 115.561 822.966 116.131 822.357 116.483Z" fill="white" fill-opacity="0.2"/>
<path fill-rule="evenodd" clip-rule="evenodd" d="M815.306 235.174C832.438 245.065 860.215 245.065 877.347 235.174C894.479 225.283 894.479 209.246 877.347 199.355C860.215 189.463 832.438 189.463 815.306 199.355C798.173 209.246 798.173 225.283 815.306 235.174ZM811.841 237.174C830.887 248.17 861.766 248.17 880.811 237.174C899.856 226.178 899.856 208.35 880.811 197.355C861.766 186.359 830.887 186.359 811.841 197.355C792.796 208.35 792.796 226.178 811.841 237.174Z" fill="white" fill-opacity="0.1"/>
<path fill-rule="evenodd" clip-rule="evenodd" d="M835.835 219.423L868.68 219.423L868.68 222.252L830.936 222.252L830.936 210.727L835.835 210.727L835.835 219.423Z" fill="white" fill-opacity="0.1"/>
<path d="M547.912 -43.6069C551.738 -45.8161 557.942 -45.8161 561.768 -43.6069L783.941 84.6644C787.767 86.8736 787.767 90.4553 783.941 92.6644L630.738 181.116C626.911 183.325 620.707 183.325 616.881 181.116L394.709 52.8449C390.882 50.6357 390.882 47.054 394.709 44.8449L547.912 -43.6069Z" fill="white" fill-opacity="0.1"/>
<path fill-rule="evenodd" clip-rule="evenodd" d="M780.476 86.6644L558.304 -41.6069C556.391 -42.7115 553.289 -42.7115 551.376 -41.6069L398.173 46.8449C396.26 47.9495 396.26 49.7403 398.173 50.8449L620.345 179.116C622.258 180.221 625.36 180.221 627.273 179.116L780.476 90.6644C782.39 89.5599 782.39 87.769 780.476 86.6644ZM561.768 -43.6069C557.942 -45.8161 551.738 -45.8161 547.912 -43.6069L394.709 44.8449C390.882 47.054 390.882 50.6357 394.709 52.8449L616.881 181.116C620.707 183.325 626.911 183.325 630.738 181.116L783.941 92.6644C787.767 90.4553 787.767 86.8736 783.941 84.6644L561.768 -43.6069Z" fill="white" fill-opacity="0.1"/>
<path fill-rule="evenodd" clip-rule="evenodd" d="M771.512 97.1861L540.081 -36.4307L543.545 -38.4307L774.976 95.1861L771.512 97.1861Z" fill="white" fill-opacity="0.1"/>
<path fill-rule="evenodd" clip-rule="evenodd" d="M615.181 137.89L469.579 53.8267L473.043 51.8267L618.645 135.89L615.181 137.89Z" fill="white" fill-opacity="0.1"/>
<path fill-rule="evenodd" clip-rule="evenodd" d="M622.843 155.588L438.925 49.4023L442.389 47.4023L626.307 153.588L622.843 155.588Z" fill="white" fill-opacity="0.1"/>
<path fill-rule="evenodd" clip-rule="evenodd" d="M558.304 86.6644C575.436 96.5557 603.213 96.5557 620.345 86.6644C637.477 76.7731 637.477 60.7361 620.345 50.8448C603.213 40.9535 575.436 40.9535 558.304 50.8448C541.171 60.7361 541.171 76.7731 558.304 86.6644ZM554.839 88.6644C573.885 99.6603 604.764 99.6603 623.809 88.6644C642.854 77.6685 642.854 59.8407 623.809 48.8448C604.764 37.849 573.885 37.849 554.839 48.8448C535.794 59.8407 535.794 77.6685 554.839 88.6644Z" fill="white" fill-opacity="0.1"/>
<path fill-rule="evenodd" clip-rule="evenodd" d="M578.833 70.9133L611.678 70.9133L611.678 73.7418L573.934 73.7418L573.934 62.2173L578.833 62.2173L578.833 70.9133Z" fill="white" fill-opacity="0.1"/>
<path d="M491.335 145.842C495.162 143.633 501.366 143.633 505.192 145.842L727.364 274.114C731.191 276.323 731.191 279.905 727.364 282.114L574.161 370.565C570.335 372.775 564.131 372.775 560.305 370.565L338.132 242.294C334.306 240.085 334.306 236.503 338.132 234.294L491.335 145.842Z" fill="white" fill-opacity="0.1"/>
<path fill-rule="evenodd" clip-rule="evenodd" d="M723.9 276.114L501.728 147.842C499.815 146.738 496.713 146.738 494.8 147.842L341.597 236.294C339.683 237.399 339.683 239.19 341.597 240.294L563.769 368.565C565.682 369.67 568.784 369.67 570.697 368.565L723.9 280.114C725.813 279.009 725.813 277.218 723.9 276.114ZM505.192 145.842C501.366 143.633 495.162 143.633 491.335 145.842L338.132 234.294C334.306 236.503 334.306 240.085 338.132 242.294L560.305 370.565C564.131 372.775 570.335 372.775 574.161 370.565L727.364 282.114C731.191 279.905 731.191 276.323 727.364 274.114L505.192 145.842Z" fill="white" fill-opacity="0.1"/>
<path fill-rule="evenodd" clip-rule="evenodd" d="M714.936 286.635L483.505 153.019L486.969 151.019L718.4 284.635L714.936 286.635Z" fill="white" fill-opacity="0.1"/>
<path fill-rule="evenodd" clip-rule="evenodd" d="M558.605 327.339L413.003 243.276L416.467 241.276L562.069 325.339L558.605 327.339Z" fill="white" fill-opacity="0.1"/>
<path fill-rule="evenodd" clip-rule="evenodd" d="M566.267 345.037L382.348 238.852L385.812 236.852L569.731 343.037L566.267 345.037Z" fill="white" fill-opacity="0.1"/>
<path d="M499.955 152.328C499.345 152.68 498.358 152.68 497.749 152.328C497.139 151.977 497.139 151.406 497.749 151.055C498.358 150.703 499.345 150.703 499.955 151.055C500.564 151.406 500.564 151.977 499.955 152.328Z" fill="white" fill-opacity="0.2"/>
<path d="M504.367 154.876C503.757 155.227 502.77 155.227 502.161 154.876C501.552 154.524 501.552 153.954 502.161 153.602C502.77 153.25 503.757 153.25 504.367 153.602C504.976 153.954 504.976 154.524 504.367 154.876Z" fill="white" fill-opacity="0.2"/>
<path d="M508.779 157.423C508.17 157.774 507.182 157.774 506.573 157.423C505.964 157.071 505.964 156.501 506.573 156.149C507.182 155.797 508.17 155.797 508.779 156.149C509.388 156.501 509.388 157.071 508.779 157.423Z" fill="white" fill-opacity="0.2"/>
<path fill-rule="evenodd" clip-rule="evenodd" d="M501.727 276.114C518.86 286.005 546.636 286.005 563.769 276.114C580.901 266.222 580.901 250.185 563.769 240.294C546.636 230.403 518.86 230.403 501.727 240.294C484.595 250.185 484.595 266.222 501.727 276.114ZM498.263 278.114C517.309 289.109 548.187 289.109 567.233 278.114C586.278 267.118 586.278 249.29 567.233 238.294C548.187 227.298 517.309 227.298 498.263 238.294C479.218 249.29 479.218 267.118 498.263 278.114Z" fill="white" fill-opacity="0.1"/>
<path fill-rule="evenodd" clip-rule="evenodd" d="M522.257 260.363L555.102 260.363L555.102 263.191L517.358 263.191L517.358 251.666L522.257 251.667L522.257 260.363Z" fill="white" fill-opacity="0.1"/>
<path d="M419.027 329.75C422.853 327.541 429.057 327.541 432.883 329.75L655.056 458.022C658.882 460.231 658.882 463.813 655.056 466.022L501.853 554.474C498.026 556.683 491.823 556.683 487.996 554.474L265.824 426.202C261.997 423.993 261.997 420.411 265.824 418.202L419.027 329.75Z" fill="white" fill-opacity="0.1"/>
<path fill-rule="evenodd" clip-rule="evenodd" d="M651.592 460.022L429.419 331.75C427.506 330.646 424.404 330.646 422.491 331.75L269.288 420.202C267.375 421.307 267.375 423.098 269.288 424.202L491.46 552.474C493.374 553.578 496.476 553.578 498.389 552.474L651.592 464.022C653.505 462.917 653.505 461.126 651.592 460.022ZM432.883 329.75C429.057 327.541 422.853 327.541 419.027 329.75L265.824 418.202C261.997 420.411 261.997 423.993 265.824 426.202L487.996 554.474C491.823 556.683 498.026 556.683 501.853 554.474L655.056 466.022C658.882 463.813 658.882 460.231 655.056 458.022L432.883 329.75Z" fill="white" fill-opacity="0.1"/>
<path fill-rule="evenodd" clip-rule="evenodd" d="M642.627 470.543L411.196 336.927L414.66 334.927L646.091 468.543L642.627 470.543Z" fill="white" fill-opacity="0.1"/>
<path fill-rule="evenodd" clip-rule="evenodd" d="M486.296 511.248L340.694 427.185L344.158 425.185L489.76 509.248L486.296 511.248Z" fill="white" fill-opacity="0.1"/>
<path fill-rule="evenodd" clip-rule="evenodd" d="M493.958 528.945L310.04 422.76L313.504 420.76L497.423 526.945L493.958 528.945Z" fill="white" fill-opacity="0.1"/>
<path d="M427.646 336.237C427.037 336.588 426.049 336.588 425.44 336.237C424.831 335.885 424.831 335.315 425.44 334.963C426.049 334.611 427.037 334.611 427.646 334.963C428.255 335.315 428.255 335.885 427.646 336.237Z" fill="white" fill-opacity="0.2"/>
<path d="M432.058 338.784C431.449 339.136 430.461 339.136 429.852 338.784C429.243 338.432 429.243 337.862 429.852 337.51C430.461 337.159 431.449 337.159 432.058 337.51C432.667 337.862 432.667 338.432 432.058 338.784Z" fill="white" fill-opacity="0.2"/>
<path d="M436.47 341.331C435.861 341.682 434.873 341.682 434.264 341.331C433.655 340.979 433.655 340.409 434.264 340.057C434.873 339.706 435.861 339.706 436.47 340.057C437.079 340.409 437.079 340.979 436.47 341.331Z" fill="white" fill-opacity="0.2"/>
<path fill-rule="evenodd" clip-rule="evenodd" d="M429.419 460.022C446.551 469.914 474.328 469.914 491.46 460.022C508.592 450.131 508.592 434.094 491.46 424.203C474.328 414.311 446.551 414.311 429.419 424.203C412.287 434.094 412.287 450.131 429.419 460.022ZM425.955 462.022C445 473.018 475.879 473.018 494.924 462.022C513.97 451.026 513.97 433.199 494.924 422.203C475.879 411.207 445 411.207 425.955 422.203C406.909 433.199 406.909 451.026 425.955 462.022Z" fill="white" fill-opacity="0.1"/>
<path fill-rule="evenodd" clip-rule="evenodd" d="M449.948 444.271L482.793 444.271L482.793 447.1L445.049 447.1L445.049 435.575L449.948 435.575L449.948 444.271Z" fill="white" fill-opacity="0.1"/>
<path d="M1130.45 75.937C1134.28 73.7279 1140.48 73.7279 1144.31 75.937L1366.48 204.208C1370.31 206.418 1370.31 209.999 1366.48 212.208L1213.28 300.66C1209.45 302.869 1203.25 302.869 1199.42 300.66L977.249 172.389C973.422 170.18 973.422 166.598 977.249 164.389L1130.45 75.937Z" fill="white" fill-opacity="0.1"/>
<path fill-rule="evenodd" clip-rule="evenodd" d="M1363.02 206.208L1140.84 77.937C1138.93 76.8324 1135.83 76.8324 1133.92 77.937L980.713 166.389C978.8 167.493 978.8 169.284 980.713 170.389L1202.89 298.66C1204.8 299.765 1207.9 299.765 1209.81 298.66L1363.02 210.208C1364.93 209.104 1364.93 207.313 1363.02 206.208ZM1144.31 75.937C1140.48 73.7279 1134.28 73.7279 1130.45 75.937L977.249 164.389C973.422 166.598 973.422 170.18 977.249 172.389L1199.42 300.66C1203.25 302.869 1209.45 302.869 1213.28 300.66L1366.48 212.208C1370.31 209.999 1370.31 206.418 1366.48 204.208L1144.31 75.937Z" fill="white" fill-opacity="0.1"/>
<path fill-rule="evenodd" clip-rule="evenodd" d="M1354.05 216.73L1122.62 83.1133L1126.08 81.1133L1357.51 214.73L1354.05 216.73Z" fill="white" fill-opacity="0.1"/>
<path fill-rule="evenodd" clip-rule="evenodd" d="M1197.72 257.434L1052.12 173.371L1055.58 171.371L1201.18 255.434L1197.72 257.434Z" fill="white" fill-opacity="0.1"/>
<path fill-rule="evenodd" clip-rule="evenodd" d="M1205.38 275.132L1021.46 168.946L1024.93 166.946L1208.85 273.132L1205.38 275.132Z" fill="white" fill-opacity="0.1"/>
<path d="M1139.07 82.423C1138.46 82.7747 1137.47 82.7747 1136.86 82.423C1136.25 82.0714 1136.25 81.5012 1136.86 81.1495C1137.47 80.7978 1138.46 80.7978 1139.07 81.1495C1139.68 81.5012 1139.68 82.0714 1139.07 82.423Z" fill="white" fill-opacity="0.2"/>
<path d="M1143.48 84.9704C1142.87 85.3221 1141.89 85.3221 1141.28 84.9704C1140.67 84.6187 1140.67 84.0485 1141.28 83.6968C1141.89 83.3452 1142.87 83.3452 1143.48 83.6968C1144.09 84.0485 1144.09 84.6187 1143.48 84.9704Z" fill="white" fill-opacity="0.2"/>
<path d="M1147.89 87.5173C1147.28 87.869 1146.3 87.869 1145.69 87.5173C1145.08 87.1656 1145.08 86.5954 1145.69 86.2437C1146.3 85.892 1147.28 85.892 1147.89 86.2437C1148.5 86.5954 1148.5 87.1656 1147.89 87.5173Z" fill="white" fill-opacity="0.2"/>
<path fill-rule="evenodd" clip-rule="evenodd" d="M1140.84 206.208C1157.98 216.1 1185.75 216.1 1202.88 206.208C1220.02 196.317 1220.02 180.28 1202.88 170.389C1185.75 160.497 1157.98 160.497 1140.84 170.389C1123.71 180.28 1123.71 196.317 1140.84 206.208ZM1137.38 208.208C1156.42 219.204 1187.3 219.204 1206.35 208.208C1225.39 197.212 1225.39 179.385 1206.35 168.389C1187.3 157.393 1156.42 157.393 1137.38 168.389C1118.33 179.385 1118.33 197.212 1137.38 208.208Z" fill="white" fill-opacity="0.1"/>
<path fill-rule="evenodd" clip-rule="evenodd" d="M1161.37 190.457L1194.22 190.457L1194.22 193.286L1156.47 193.286L1156.47 181.761L1161.37 181.761L1161.37 190.457Z" fill="white" fill-opacity="0.1"/>
<path d="M1063.93 254.447C1067.76 252.238 1073.96 252.238 1077.79 254.447L1299.96 382.719C1303.79 384.928 1303.79 388.51 1299.96 390.719L1146.76 479.17C1142.93 481.38 1136.73 481.38 1132.9 479.17L910.729 350.899C906.903 348.69 906.903 345.108 910.729 342.899L1063.93 254.447Z" fill="white" fill-opacity="0.1"/>
<path fill-rule="evenodd" clip-rule="evenodd" d="M1296.5 384.719L1074.32 256.447C1072.41 255.343 1069.31 255.343 1067.4 256.447L914.193 344.899C912.28 346.004 912.28 347.795 914.193 348.899L1136.37 477.17C1138.28 478.275 1141.38 478.275 1143.29 477.17L1296.5 388.719C1298.41 387.614 1298.41 385.823 1296.5 384.719ZM1077.79 254.447C1073.96 252.238 1067.76 252.238 1063.93 254.447L910.729 342.899C906.903 345.108 906.903 348.69 910.729 350.899L1132.9 479.17C1136.73 481.38 1142.93 481.38 1146.76 479.17L1299.96 390.719C1303.79 388.51 1303.79 384.928 1299.96 382.719L1077.79 254.447Z" fill="white" fill-opacity="0.1"/>
<path fill-rule="evenodd" clip-rule="evenodd" d="M1287.53 395.24L1056.1 261.624L1059.56 259.624L1291 393.24L1287.53 395.24Z" fill="white" fill-opacity="0.1"/>
<path fill-rule="evenodd" clip-rule="evenodd" d="M1131.2 435.944L985.598 351.881L989.062 349.881L1134.66 433.944L1131.2 435.944Z" fill="white" fill-opacity="0.1"/>
<path fill-rule="evenodd" clip-rule="evenodd" d="M1138.86 453.643L954.946 347.457L958.41 345.457L1142.33 451.643L1138.86 453.643Z" fill="white" fill-opacity="0.1"/>
<path d="M1072.55 260.933C1071.94 261.285 1070.95 261.285 1070.34 260.933C1069.74 260.582 1069.74 260.011 1070.34 259.66C1070.95 259.308 1071.94 259.308 1072.55 259.66C1073.16 260.011 1073.16 260.582 1072.55 260.933Z" fill="white" fill-opacity="0.2"/>
<path d="M1076.96 263.481C1076.35 263.832 1075.37 263.832 1074.76 263.481C1074.15 263.129 1074.15 262.559 1074.76 262.207C1075.37 261.855 1076.35 261.855 1076.96 262.207C1077.57 262.559 1077.57 263.129 1076.96 263.481Z" fill="white" fill-opacity="0.2"/>
<path d="M1081.37 266.028C1080.76 266.379 1079.78 266.379 1079.17 266.028C1078.56 265.676 1078.56 265.106 1079.17 264.754C1079.78 264.402 1080.76 264.402 1081.37 264.754C1081.98 265.106 1081.98 265.676 1081.37 266.028Z" fill="white" fill-opacity="0.2"/>
<path fill-rule="evenodd" clip-rule="evenodd" d="M1074.32 384.719C1091.46 394.61 1119.23 394.61 1136.37 384.719C1153.5 374.827 1153.5 358.79 1136.37 348.899C1119.23 339.008 1091.46 339.008 1074.32 348.899C1057.19 358.79 1057.19 374.827 1074.32 384.719ZM1070.86 386.719C1089.91 397.714 1120.78 397.714 1139.83 386.719C1158.87 375.723 1158.87 357.895 1139.83 346.899C1120.78 335.903 1089.91 335.903 1070.86 346.899C1051.81 357.895 1051.81 375.723 1070.86 386.719Z" fill="white" fill-opacity="0.1"/>
<path fill-rule="evenodd" clip-rule="evenodd" d="M1094.85 368.968L1127.7 368.968L1127.7 371.796L1089.95 371.796L1089.95 360.271L1094.85 360.271L1094.85 368.968Z" fill="white" fill-opacity="0.1"/>
<path d="M750.353 295.387C754.179 293.178 760.383 293.178 764.209 295.387L986.382 423.659C990.208 425.868 990.208 429.449 986.382 431.659L833.179 520.11C829.353 522.32 823.149 522.32 819.323 520.11L597.15 391.839C593.324 389.63 593.324 386.048 597.15 383.839L750.353 295.387Z" fill="white" fill-opacity="0.1"/>
<path fill-rule="evenodd" clip-rule="evenodd" d="M982.918 425.659L760.745 297.387C758.832 296.283 755.73 296.283 753.817 297.387L600.614 385.839C598.701 386.944 598.701 388.734 600.614 389.839L822.787 518.11C824.7 519.215 827.802 519.215 829.715 518.11L982.918 429.659C984.831 428.554 984.831 426.763 982.918 425.659ZM764.209 295.387C760.383 293.178 754.179 293.178 750.353 295.387L597.15 383.839C593.324 386.048 593.324 389.63 597.15 391.839L819.323 520.11C823.149 522.32 829.353 522.32 833.179 520.11L986.382 431.659C990.208 429.449 990.208 425.868 986.382 423.659L764.209 295.387Z" fill="white" fill-opacity="0.1"/>
<path fill-rule="evenodd" clip-rule="evenodd" d="M973.953 436.18L742.522 302.563L745.986 300.563L977.417 434.18L973.953 436.18Z" fill="white" fill-opacity="0.1"/>
<path fill-rule="evenodd" clip-rule="evenodd" d="M817.623 476.885L672.02 392.821L675.484 390.821L821.087 474.885L817.623 476.885Z" fill="white" fill-opacity="0.1"/>
<path fill-rule="evenodd" clip-rule="evenodd" d="M825.285 494.582L641.366 388.396L644.83 386.396L828.749 492.582L825.285 494.582Z" fill="white" fill-opacity="0.1"/>
<path d="M758.972 301.873C758.363 302.225 757.375 302.225 756.766 301.873C756.157 301.522 756.157 300.951 756.766 300.6C757.375 300.248 758.363 300.248 758.972 300.6C759.581 300.951 759.581 301.522 758.972 301.873Z" fill="white" fill-opacity="0.2"/>
<path d="M763.384 304.421C762.775 304.772 761.787 304.772 761.178 304.421C760.569 304.069 760.569 303.499 761.178 303.147C761.787 302.795 762.775 302.795 763.384 303.147C763.993 303.499 763.993 304.069 763.384 304.421Z" fill="white" fill-opacity="0.2"/>
<path d="M767.796 306.967C767.187 307.319 766.2 307.319 765.59 306.967C764.981 306.616 764.981 306.046 765.59 305.694C766.2 305.342 767.187 305.342 767.796 305.694C768.405 306.046 768.405 306.616 767.796 306.967Z" fill="white" fill-opacity="0.2"/>
<path fill-rule="evenodd" clip-rule="evenodd" d="M760.745 425.659C777.877 435.55 805.654 435.55 822.786 425.659C839.919 415.768 839.919 399.731 822.786 389.839C805.654 379.948 777.877 379.948 760.745 389.839C743.613 399.731 743.613 415.768 760.745 425.659ZM757.281 427.659C776.326 438.655 807.205 438.655 826.25 427.659C845.296 416.663 845.296 398.835 826.25 387.839C807.205 376.844 776.326 376.844 757.281 387.839C738.235 398.835 738.235 416.663 757.281 427.659Z" fill="white" fill-opacity="0.1"/>
<path fill-rule="evenodd" clip-rule="evenodd" d="M781.275 409.908L814.119 409.908L814.119 412.736L776.376 412.736L776.376 401.212L781.275 401.212L781.275 409.908Z" fill="white" fill-opacity="0.1"/>
<path d="M678.044 479.295C681.871 477.086 688.075 477.086 691.901 479.295L914.073 607.566C917.9 609.775 917.9 613.357 914.073 615.566L760.87 704.018C757.044 706.227 750.84 706.227 747.014 704.018L524.841 575.747C521.015 573.538 521.015 569.956 524.841 567.747L678.044 479.295Z" fill="white" fill-opacity="0.1"/>
<path fill-rule="evenodd" clip-rule="evenodd" d="M910.609 609.566L688.437 481.295C686.524 480.19 683.422 480.19 681.509 481.295L528.306 569.747C526.392 570.851 526.392 572.642 528.306 573.747L750.478 702.018C752.391 703.123 755.493 703.123 757.406 702.018L910.609 613.566C912.522 612.462 912.522 610.671 910.609 609.566ZM691.901 479.295C688.075 477.086 681.871 477.086 678.044 479.295L524.841 567.747C521.015 569.956 521.015 573.538 524.841 575.747L747.014 704.018C750.84 706.227 757.044 706.227 760.87 704.018L914.073 615.566C917.9 613.357 917.9 609.775 914.073 607.566L691.901 479.295Z" fill="white" fill-opacity="0.1"/>
<path fill-rule="evenodd" clip-rule="evenodd" d="M901.645 620.087L670.214 486.471L673.678 484.471L905.109 618.087L901.645 620.087Z" fill="white" fill-opacity="0.1"/>
<path fill-rule="evenodd" clip-rule="evenodd" d="M745.314 660.792L599.712 576.729L603.176 574.729L748.778 658.792L745.314 660.792Z" fill="white" fill-opacity="0.1"/>
<path fill-rule="evenodd" clip-rule="evenodd" d="M752.976 678.49L569.057 572.305L572.521 570.305L756.44 676.49L752.976 678.49Z" fill="white" fill-opacity="0.1"/>
<path d="M686.663 485.781C686.054 486.133 685.067 486.133 684.458 485.781C683.848 485.43 683.848 484.86 684.458 484.508C685.067 484.156 686.054 484.156 686.663 484.508C687.273 484.86 687.273 485.43 686.663 485.781Z" fill="white" fill-opacity="0.2"/>
<path d="M691.076 488.328C690.466 488.68 689.479 488.68 688.87 488.328C688.261 487.977 688.261 487.406 688.87 487.055C689.479 486.703 690.466 486.703 691.076 487.055C691.685 487.406 691.685 487.977 691.076 488.328Z" fill="white" fill-opacity="0.2"/>
<path d="M695.488 490.876C694.879 491.228 693.891 491.228 693.282 490.876C692.673 490.524 692.673 489.954 693.282 489.603C693.891 489.251 694.879 489.251 695.488 489.603C696.097 489.954 696.097 490.524 695.488 490.876Z" fill="white" fill-opacity="0.2"/>
<path fill-rule="evenodd" clip-rule="evenodd" d="M688.436 609.566C705.569 619.458 733.345 619.458 750.478 609.566C767.61 599.675 767.61 583.638 750.478 573.747C733.345 563.855 705.569 563.855 688.436 573.747C671.304 583.638 671.304 599.675 688.436 609.566ZM684.972 611.566C704.018 622.562 734.896 622.562 753.942 611.566C772.987 600.57 772.987 582.743 753.942 571.747C734.896 560.751 704.018 560.751 684.972 571.747C665.927 582.743 665.927 600.57 684.972 611.566Z" fill="white" fill-opacity="0.1"/>
<path fill-rule="evenodd" clip-rule="evenodd" d="M708.966 593.815L741.811 593.815L741.811 596.644L704.067 596.644L704.067 585.119L708.966 585.119L708.966 593.815Z" fill="white" fill-opacity="0.1"/>
<path d="M1389.47 225.481C1393.3 223.272 1399.5 223.272 1403.33 225.481L1625.5 353.753C1629.33 355.962 1629.33 359.544 1625.5 361.753L1472.3 450.205C1468.47 452.414 1462.27 452.414 1458.44 450.205L1236.27 321.933C1232.44 319.724 1232.44 316.142 1236.27 313.933L1389.47 225.481Z" fill="white" fill-opacity="0.1"/>
<path fill-rule="evenodd" clip-rule="evenodd" d="M1622.04 355.753L1399.86 227.481C1397.95 226.377 1394.85 226.377 1392.93 227.481L1239.73 315.933C1237.82 317.038 1237.82 318.829 1239.73 319.933L1461.9 448.205C1463.82 449.309 1466.92 449.309 1468.83 448.205L1622.04 359.753C1623.95 358.648 1623.95 356.857 1622.04 355.753ZM1403.33 225.481C1399.5 223.272 1393.3 223.272 1389.47 225.481L1236.27 313.933C1232.44 316.142 1232.44 319.724 1236.27 321.933L1458.44 450.205C1462.27 452.414 1468.47 452.414 1472.3 450.205L1625.5 361.753C1629.33 359.544 1629.33 355.962 1625.5 353.753L1403.33 225.481Z" fill="white" fill-opacity="0.1"/>
<path fill-rule="evenodd" clip-rule="evenodd" d="M1613.07 366.274L1381.64 232.658L1385.1 230.658L1616.53 364.274L1613.07 366.274Z" fill="white" fill-opacity="0.1"/>
<path fill-rule="evenodd" clip-rule="evenodd" d="M1456.74 406.979L1311.14 322.915L1314.6 320.915L1460.2 404.979L1456.74 406.979Z" fill="white" fill-opacity="0.1"/>
<path fill-rule="evenodd" clip-rule="evenodd" d="M1464.4 424.676L1280.48 318.491L1283.95 316.491L1467.87 422.676L1464.4 424.676Z" fill="white" fill-opacity="0.1"/>
<path d="M1398.09 231.967C1397.48 232.319 1396.49 232.319 1395.88 231.967C1395.27 231.616 1395.27 231.046 1395.88 230.694C1396.49 230.342 1397.48 230.342 1398.09 230.694C1398.7 231.046 1398.7 231.616 1398.09 231.967Z" fill="white" fill-opacity="0.2"/>
<path d="M1402.5 234.515C1401.89 234.867 1400.9 234.867 1400.29 234.515C1399.69 234.163 1399.69 233.593 1400.29 233.241C1400.9 232.89 1401.89 232.89 1402.5 233.241C1403.11 233.593 1403.11 234.163 1402.5 234.515Z" fill="white" fill-opacity="0.2"/>
<path d="M1406.91 237.062C1406.3 237.413 1405.31 237.413 1404.71 237.062C1404.1 236.71 1404.1 236.14 1404.71 235.788C1405.31 235.436 1406.3 235.436 1406.91 235.788C1407.52 236.14 1407.52 236.71 1406.91 237.062Z" fill="white" fill-opacity="0.2"/>
<path fill-rule="evenodd" clip-rule="evenodd" d="M1399.86 355.753C1416.99 365.644 1444.77 365.644 1461.9 355.753C1479.04 345.861 1479.04 329.825 1461.9 319.933C1444.77 310.042 1416.99 310.042 1399.86 319.933C1382.73 329.825 1382.73 345.861 1399.86 355.753ZM1396.4 357.753C1415.44 368.749 1446.32 368.749 1465.37 357.753C1484.41 346.757 1484.41 328.929 1465.37 317.933C1446.32 306.937 1415.44 306.937 1396.4 317.933C1377.35 328.929 1377.35 346.757 1396.4 357.753Z" fill="white" fill-opacity="0.1"/>
<path fill-rule="evenodd" clip-rule="evenodd" d="M1420.39 340.002L1453.24 340.002L1453.24 342.83L1415.49 342.83L1415.49 331.306L1420.39 331.306L1420.39 340.002Z" fill="white" fill-opacity="0.1"/>
<path d="M1322.95 403.992C1326.78 401.783 1332.98 401.783 1336.81 403.992L1558.98 532.264C1562.81 534.473 1562.81 538.054 1558.98 540.264L1405.78 628.715C1401.95 630.925 1395.75 630.925 1391.92 628.715L1169.75 500.444C1165.92 498.235 1165.92 494.653 1169.75 492.444L1322.95 403.992Z" fill="white" fill-opacity="0.1"/>
<path fill-rule="evenodd" clip-rule="evenodd" d="M1555.52 534.264L1333.34 405.992C1331.43 404.888 1328.33 404.888 1326.41 405.992L1173.21 494.444C1171.3 495.549 1171.3 497.339 1173.21 498.444L1395.38 626.715C1397.3 627.82 1400.4 627.82 1402.31 626.715L1555.52 538.264C1557.43 537.159 1557.43 535.368 1555.52 534.264ZM1336.81 403.992C1332.98 401.783 1326.78 401.783 1322.95 403.992L1169.75 492.444C1165.92 494.653 1165.92 498.235 1169.75 500.444L1391.92 628.715C1395.75 630.925 1401.95 630.925 1405.78 628.715L1558.98 540.264C1562.81 538.054 1562.81 534.473 1558.98 532.264L1336.81 403.992Z" fill="white" fill-opacity="0.1"/>
<path fill-rule="evenodd" clip-rule="evenodd" d="M1546.55 544.785L1315.12 411.168L1318.58 409.168L1550.01 542.785L1546.55 544.785Z" fill="white" fill-opacity="0.1"/>
<path fill-rule="evenodd" clip-rule="evenodd" d="M1390.22 585.489L1244.62 501.426L1248.08 499.426L1393.68 583.489L1390.22 585.489Z" fill="white" fill-opacity="0.1"/>
<path fill-rule="evenodd" clip-rule="evenodd" d="M1397.88 603.187L1213.96 497.002L1217.43 495.002L1401.35 601.187L1397.88 603.187Z" fill="white" fill-opacity="0.1"/>
<path d="M1331.57 410.479C1330.96 410.83 1329.97 410.83 1329.36 410.479C1328.75 410.127 1328.75 409.557 1329.36 409.205C1329.97 408.853 1330.96 408.853 1331.57 409.205C1332.18 409.557 1332.18 410.127 1331.57 410.479Z" fill="white" fill-opacity="0.2"/>
<path d="M1335.98 413.026C1335.37 413.377 1334.38 413.377 1333.77 413.026C1333.17 412.674 1333.17 412.104 1333.77 411.752C1334.38 411.4 1335.37 411.4 1335.98 411.752C1336.59 412.104 1336.59 412.674 1335.98 413.026Z" fill="white" fill-opacity="0.2"/>
<path d="M1340.39 415.573C1339.78 415.925 1338.8 415.925 1338.19 415.573C1337.58 415.222 1337.58 414.652 1338.19 414.3C1338.8 413.948 1339.78 413.948 1340.39 414.3C1341 414.652 1341 415.222 1340.39 415.573Z" fill="white" fill-opacity="0.2"/>
<path fill-rule="evenodd" clip-rule="evenodd" d="M1333.34 534.264C1350.47 544.155 1378.25 544.155 1395.38 534.264C1412.52 524.372 1412.52 508.335 1395.38 498.444C1378.25 488.553 1350.47 488.553 1333.34 498.444C1316.21 508.335 1316.21 524.372 1333.34 534.264ZM1329.88 536.264C1348.92 547.259 1379.8 547.259 1398.85 536.264C1417.89 525.268 1417.89 507.44 1398.85 496.444C1379.8 485.448 1348.92 485.448 1329.88 496.444C1310.83 507.44 1310.83 525.268 1329.88 536.264Z" fill="white" fill-opacity="0.1"/>
<path fill-rule="evenodd" clip-rule="evenodd" d="M1353.87 518.512L1386.72 518.512L1386.72 521.341L1348.97 521.341L1348.97 509.816L1353.87 509.816L1353.87 518.512Z" fill="white" fill-opacity="0.1"/>
<path d="M1009.37 444.932C1013.2 442.722 1019.4 442.723 1023.23 444.932L1245.4 573.203C1249.23 575.412 1249.23 578.994 1245.4 581.203L1092.2 669.655C1088.37 671.864 1082.17 671.864 1078.34 669.655L856.169 541.383C852.342 539.174 852.342 535.593 856.169 533.383L1009.37 444.932Z" fill="white" fill-opacity="0.1"/>
<path fill-rule="evenodd" clip-rule="evenodd" d="M1241.94 575.203L1019.76 446.932C1017.85 445.827 1014.75 445.827 1012.84 446.932L859.633 535.383C857.719 536.488 857.719 538.279 859.633 539.383L1081.81 667.655C1083.72 668.759 1086.82 668.759 1088.73 667.655L1241.94 579.203C1243.85 578.098 1243.85 576.308 1241.94 575.203ZM1023.23 444.932C1019.4 442.723 1013.2 442.722 1009.37 444.932L856.169 533.383C852.342 535.593 852.342 539.174 856.169 541.383L1078.34 669.655C1082.17 671.864 1088.37 671.864 1092.2 669.655L1245.4 581.203C1249.23 578.994 1249.23 575.412 1245.4 573.203L1023.23 444.932Z" fill="white" fill-opacity="0.1"/>
<path fill-rule="evenodd" clip-rule="evenodd" d="M1232.97 585.724L1001.54 452.107L1005 450.107L1236.43 583.724L1232.97 585.724Z" fill="white" fill-opacity="0.1"/>
<path fill-rule="evenodd" clip-rule="evenodd" d="M1076.64 626.429L931.038 542.365L934.502 540.365L1080.1 624.429L1076.64 626.429Z" fill="white" fill-opacity="0.1"/>
<path fill-rule="evenodd" clip-rule="evenodd" d="M1084.3 644.127L900.386 537.941L903.85 535.941L1087.77 642.127L1084.3 644.127Z" fill="white" fill-opacity="0.1"/>
<path d="M1017.99 451.418C1017.38 451.77 1016.39 451.77 1015.78 451.418C1015.17 451.066 1015.17 450.496 1015.78 450.145C1016.39 449.793 1017.38 449.793 1017.99 450.145C1018.6 450.496 1018.6 451.066 1017.99 451.418Z" fill="white" fill-opacity="0.2"/>
<path d="M1022.4 453.965C1021.79 454.317 1020.81 454.317 1020.2 453.965C1019.59 453.613 1019.59 453.043 1020.2 452.691C1020.81 452.34 1021.79 452.34 1022.4 452.691C1023.01 453.043 1023.01 453.613 1022.4 453.965Z" fill="white" fill-opacity="0.2"/>
<path d="M1026.81 456.513C1026.2 456.865 1025.22 456.865 1024.61 456.513C1024 456.161 1024 455.591 1024.61 455.239C1025.22 454.888 1026.2 454.888 1026.81 455.239C1027.42 455.591 1027.42 456.161 1026.81 456.513Z" fill="white" fill-opacity="0.2"/>
<path fill-rule="evenodd" clip-rule="evenodd" d="M1019.76 575.203C1036.9 585.094 1064.67 585.094 1081.8 575.203C1098.94 565.312 1098.94 549.275 1081.8 539.383C1064.67 529.492 1036.9 529.492 1019.76 539.383C1002.63 549.275 1002.63 565.312 1019.76 575.203ZM1016.3 577.203C1035.34 588.199 1066.22 588.199 1085.27 577.203C1104.31 566.207 1104.31 548.379 1085.27 537.383C1066.22 526.388 1035.34 526.388 1016.3 537.383C997.254 548.379 997.254 566.207 1016.3 577.203Z" fill="white" fill-opacity="0.1"/>
<path fill-rule="evenodd" clip-rule="evenodd" d="M1040.29 559.452L1073.14 559.452L1073.14 562.28L1035.39 562.28L1035.39 550.756L1040.29 550.756L1040.29 559.452Z" fill="white" fill-opacity="0.1"/>
<path d="M937.064 628.839C940.89 626.63 947.094 626.63 950.92 628.839L1173.09 757.11C1176.92 759.319 1176.92 762.901 1173.09 765.11L1019.89 853.562C1016.06 855.771 1009.86 855.771 1006.03 853.562L783.861 725.291C780.035 723.082 780.035 719.5 783.861 717.291L937.064 628.839Z" fill="white" fill-opacity="0.1"/>
<path fill-rule="evenodd" clip-rule="evenodd" d="M1169.63 759.11L947.456 630.839C945.543 629.734 942.441 629.734 940.528 630.839L787.325 719.291C785.412 720.395 785.412 722.186 787.325 723.291L1009.5 851.562C1011.41 852.667 1014.51 852.667 1016.43 851.562L1169.63 763.11C1171.54 762.006 1171.54 760.215 1169.63 759.11ZM950.92 628.839C947.094 626.63 940.89 626.63 937.064 628.839L783.861 717.291C780.035 719.5 780.035 723.082 783.861 725.291L1006.03 853.562C1009.86 855.771 1016.06 855.771 1019.89 853.562L1173.09 765.11C1176.92 762.901 1176.92 759.319 1173.09 757.11L950.92 628.839Z" fill="white" fill-opacity="0.1"/>
<path fill-rule="evenodd" clip-rule="evenodd" d="M1160.66 769.631L929.233 636.015L932.697 634.015L1164.13 767.631L1160.66 769.631Z" fill="white" fill-opacity="0.1"/>
<path fill-rule="evenodd" clip-rule="evenodd" d="M1004.33 810.336L858.731 726.272L862.195 724.272L1007.8 808.336L1004.33 810.336Z" fill="white" fill-opacity="0.1"/>
<path fill-rule="evenodd" clip-rule="evenodd" d="M1012 828.034L828.077 721.849L831.541 719.849L1015.46 826.034L1012 828.034Z" fill="white" fill-opacity="0.1"/>
<path d="M945.683 635.325C945.074 635.677 944.086 635.677 943.477 635.325C942.868 634.974 942.868 634.404 943.477 634.052C944.086 633.7 945.074 633.7 945.683 634.052C946.292 634.404 946.292 634.974 945.683 635.325Z" fill="white" fill-opacity="0.2"/>
<path d="M950.095 637.872C949.486 638.224 948.498 638.224 947.889 637.872C947.28 637.521 947.28 636.95 947.889 636.599C948.498 636.247 949.486 636.247 950.095 636.599C950.704 636.95 950.704 637.521 950.095 637.872Z" fill="white" fill-opacity="0.2"/>
<path d="M954.507 640.42C953.898 640.772 952.91 640.772 952.301 640.42C951.692 640.068 951.692 639.498 952.301 639.147C952.91 638.795 953.898 638.795 954.507 639.147C955.116 639.498 955.116 640.068 954.507 640.42Z" fill="white" fill-opacity="0.2"/>
<path fill-rule="evenodd" clip-rule="evenodd" d="M947.456 759.11C964.588 769.001 992.365 769.001 1009.5 759.11C1026.63 749.219 1026.63 733.182 1009.5 723.291C992.365 713.399 964.588 713.399 947.456 723.291C930.324 733.182 930.324 749.219 947.456 759.11ZM943.992 761.11C963.037 772.106 993.916 772.106 1012.96 761.11C1032.01 750.114 1032.01 732.287 1012.96 721.291C993.916 710.295 963.037 710.295 943.992 721.291C924.946 732.287 924.946 750.114 943.992 761.11Z" fill="white" fill-opacity="0.1"/>
<path fill-rule="evenodd" clip-rule="evenodd" d="M967.985 743.359L1000.83 743.359L1000.83 746.188L963.086 746.188L963.086 734.663L967.985 734.663L967.985 743.359Z" fill="white" fill-opacity="0.1"/>
<path d="M1581.97 553.536C1585.8 551.327 1592 551.327 1595.83 553.536L1818 681.808C1821.82 684.017 1821.82 687.598 1818 689.808L1664.8 778.259C1660.97 780.468 1654.77 780.468 1650.94 778.259L1428.77 649.988C1424.94 647.779 1424.94 644.197 1428.77 641.988L1581.97 553.536Z" fill="white" fill-opacity="0.1"/>
<path fill-rule="evenodd" clip-rule="evenodd" d="M1814.53 683.808L1592.36 555.536C1590.45 554.432 1587.35 554.432 1585.43 555.536L1432.23 643.988C1430.32 645.093 1430.32 646.883 1432.23 647.988L1654.4 776.259C1656.32 777.364 1659.42 777.364 1661.33 776.259L1814.53 687.808C1816.45 686.703 1816.45 684.912 1814.53 683.808ZM1595.83 553.536C1592 551.327 1585.8 551.327 1581.97 553.536L1428.77 641.988C1424.94 644.197 1424.94 647.779 1428.77 649.988L1650.94 778.259C1654.77 780.468 1660.97 780.468 1664.8 778.259L1818 689.808C1821.82 687.598 1821.82 684.017 1818 681.808L1595.83 553.536Z" fill="white" fill-opacity="0.1"/>
<path d="M1268.39 594.476C1272.22 592.266 1278.42 592.266 1282.25 594.476L1504.42 722.747C1508.25 724.956 1508.25 728.538 1504.42 730.747L1351.22 819.199C1347.39 821.408 1341.19 821.408 1337.36 819.199L1115.19 690.927C1111.36 688.718 1111.36 685.137 1115.19 682.927L1268.39 594.476Z" fill="white" fill-opacity="0.1"/>
<path fill-rule="evenodd" clip-rule="evenodd" d="M1500.95 724.747L1278.78 596.476C1276.87 595.371 1273.77 595.371 1271.85 596.476L1118.65 684.927C1116.74 686.032 1116.74 687.823 1118.65 688.927L1340.82 817.199C1342.74 818.303 1345.84 818.303 1347.75 817.199L1500.95 728.747C1502.87 727.642 1502.87 725.852 1500.95 724.747ZM1282.25 594.476C1278.42 592.266 1272.22 592.266 1268.39 594.476L1115.19 682.927C1111.36 685.137 1111.36 688.718 1115.19 690.927L1337.36 819.199C1341.19 821.408 1347.39 821.408 1351.22 819.199L1504.42 730.747C1508.25 728.538 1508.25 724.956 1504.42 722.747L1282.25 594.476Z" fill="white" fill-opacity="0.1"/>
<path fill-rule="evenodd" clip-rule="evenodd" d="M1491.99 735.268L1260.56 601.651L1264.02 599.651L1495.45 733.268L1491.99 735.268Z" fill="white" fill-opacity="0.1"/>
<path fill-rule="evenodd" clip-rule="evenodd" d="M1335.66 775.973L1190.06 691.909L1193.52 689.909L1339.12 773.973L1335.66 775.973Z" fill="white" fill-opacity="0.1"/>
<path fill-rule="evenodd" clip-rule="evenodd" d="M1343.32 793.671L1159.4 687.485L1162.87 685.485L1346.79 791.671L1343.32 793.671Z" fill="white" fill-opacity="0.1"/>
<path d="M1277.01 600.962C1276.4 601.314 1275.41 601.314 1274.8 600.962C1274.19 600.61 1274.19 600.04 1274.8 599.689C1275.41 599.337 1276.4 599.337 1277.01 599.689C1277.62 600.04 1277.62 600.61 1277.01 600.962Z" fill="white" fill-opacity="0.2"/>
<path d="M1281.42 603.509C1280.81 603.861 1279.82 603.861 1279.21 603.509C1278.61 603.157 1278.61 602.587 1279.21 602.235C1279.82 601.884 1280.81 601.884 1281.42 602.235C1282.03 602.587 1282.03 603.157 1281.42 603.509Z" fill="white" fill-opacity="0.2"/>
<path d="M1285.83 606.057C1285.22 606.409 1284.23 606.409 1283.63 606.057C1283.02 605.705 1283.02 605.135 1283.63 604.783C1284.23 604.432 1285.22 604.432 1285.83 604.783C1286.44 605.135 1286.44 605.705 1285.83 606.057Z" fill="white" fill-opacity="0.2"/>
<path fill-rule="evenodd" clip-rule="evenodd" d="M1278.78 724.747C1295.91 734.638 1323.69 734.638 1340.82 724.747C1357.96 714.856 1357.96 698.819 1340.82 688.927C1323.69 679.036 1295.91 679.036 1278.78 688.927C1261.65 698.819 1261.65 714.856 1278.78 724.747ZM1275.32 726.747C1294.36 737.743 1325.24 737.743 1344.29 726.747C1363.33 715.751 1363.33 697.923 1344.29 686.927C1325.24 675.931 1294.36 675.931 1275.32 686.927C1256.27 697.923 1256.27 715.751 1275.32 726.747Z" fill="white" fill-opacity="0.1"/>
<path fill-rule="evenodd" clip-rule="evenodd" d="M1299.31 708.996L1332.16 708.996L1332.16 711.824L1294.41 711.824L1294.41 700.3L1299.31 700.3L1299.31 708.996Z" fill="white" fill-opacity="0.1"/>
<path d="M1196.08 778.384C1199.91 776.175 1206.11 776.175 1209.94 778.384L1432.11 906.655C1435.94 908.864 1435.94 912.446 1432.11 914.655L1278.91 1003.11C1275.08 1005.32 1268.88 1005.32 1265.05 1003.11L1042.88 874.836C1039.05 872.626 1039.05 869.045 1042.88 866.836L1196.08 778.384Z" fill="white" fill-opacity="0.1"/>
<path fill-rule="evenodd" clip-rule="evenodd" d="M1428.65 908.655L1206.47 780.384C1204.56 779.279 1201.46 779.279 1199.55 780.384L1046.34 868.836C1044.43 869.94 1044.43 871.731 1046.34 872.836L1268.52 1001.11C1270.43 1002.21 1273.53 1002.21 1275.44 1001.11L1428.65 912.655C1430.56 911.551 1430.56 909.76 1428.65 908.655ZM1209.94 778.384C1206.11 776.175 1199.91 776.175 1196.08 778.384L1042.88 866.836C1039.05 869.045 1039.05 872.626 1042.88 874.836L1265.05 1003.11C1268.88 1005.32 1275.08 1005.32 1278.91 1003.11L1432.11 914.655C1435.94 912.446 1435.94 908.864 1432.11 906.655L1209.94 778.384Z" fill="white" fill-opacity="0.1"/>
</svg>
