<svg width="22" height="22" viewBox="0 0 22 22" fill="none" xmlns="http://www.w3.org/2000/svg">
<g clip-path="url(#clip0_1224_777)">
<path d="M4.82722 8.95125C5.25611 7.65366 6.08384 6.52466 7.19232 5.72531C8.30081 4.92597 9.63342 4.49711 11.0001 4.49992C12.5492 4.49992 13.9499 5.04992 15.0499 5.95008L18.2509 2.75C16.3002 1.04958 13.8005 0 11.0001 0C6.66422 0 2.93155 2.47317 1.13672 6.09583L4.82722 8.95125Z" fill="#EA4335"/>
<path d="M14.7042 16.5119C13.705 17.1563 12.4363 17.5001 11.0008 17.5001C9.63966 17.5029 8.31208 17.0774 7.20607 16.284C6.10005 15.4906 5.27163 14.3693 4.8381 13.079L1.13477 15.8904C2.04341 17.7295 3.44959 19.2769 5.1936 20.3569C6.93761 21.4369 8.94954 22.0061 11.0008 22C13.6894 22 16.2579 21.0439 18.182 19.25L14.7051 16.5119H14.7042Z" fill="#34A853"/>
<path d="M18.1812 19.25C20.1932 17.3727 21.4995 14.5787 21.4995 11C21.4995 10.3492 21.3996 9.64975 21.2502 8.99983H11V13.2504H16.8997C16.6091 14.6795 15.8272 15.7859 14.7043 16.5119L18.1812 19.25Z" fill="#4A90E2"/>
<path d="M4.83736 13.079C4.6131 12.4088 4.49917 11.7067 4.50002 11C4.50002 10.2832 4.61461 9.59475 4.82727 8.95125L1.13677 6.09583C0.381787 7.61996 -0.00740662 9.29914 0.00010675 11C0.00010675 12.76 0.408023 14.4192 1.13402 15.8904L4.83736 13.079Z" fill="#FBBC05"/>
</g>
<defs>
<clipPath id="clip0_1224_777">
<rect width="22" height="22" fill="white"/>
</clipPath>
</defs>
</svg>
