<svg width="343" height="89" viewBox="0 0 343 89" fill="none" xmlns="http://www.w3.org/2000/svg">
<g opacity="0.7" clip-path="url(#clip0_1085_3927)">
<path d="M174.115 14.4856C172.044 14.6349 168.748 14.8296 163.861 15.1816C169.176 14.8415 172.95 14.6122 173.962 14.582C173.962 14.582 181.77 14.0195 174.115 14.4856Z" fill="#32D989"/>
<path d="M340.763 33.0633C340.757 32.9784 340.698 32.8974 340.692 32.8125C340.689 32.7701 340.683 32.6852 340.627 32.6466C340.621 32.5617 340.561 32.4807 340.555 32.3958C340.549 32.3109 340.49 32.2299 340.431 32.1488C340.428 32.1064 340.372 32.0678 340.369 32.0253C340.245 31.7784 340.121 31.5314 339.996 31.2844C339.819 31.0413 339.698 30.8368 339.523 30.6361C339.287 30.3119 339.053 30.0301 338.767 29.7522C338.708 29.6711 338.592 29.5515 338.533 29.4704C337.901 28.8335 337.169 28.2891 336.389 27.8335C336.333 27.7949 336.277 27.7563 336.221 27.7176C336.108 27.6404 335.996 27.5632 335.884 27.486L335.382 27.1809C335.27 27.1037 335.16 27.0689 335.048 26.9917C334.827 26.8797 334.602 26.7252 334.381 26.6132C334.159 26.5012 333.941 26.4317 333.772 26.3158C333.333 26.1343 332.943 25.9064 332.559 25.7634C332.063 25.5433 331.57 25.3655 331.13 25.1839L330.965 25.1105L329.651 24.6507C329.102 24.4343 328.612 24.299 328.231 24.1985C328.069 24.1675 327.903 24.0941 327.794 24.0594L327.139 23.8506C324.629 23.093 321.857 22.397 318.551 21.6968C318.064 21.6039 317.577 21.511 317.037 21.422C314.546 20.919 312.002 20.4198 309.36 20.0556C307.034 19.626 304.664 19.3276 302.185 18.9943C301.323 18.8858 300.461 18.7773 299.596 18.6263C298.734 18.5178 297.82 18.4131 296.961 18.347C294.484 18.0562 291.902 17.773 289.326 17.5748C276.481 16.3674 261.864 15.7569 244.618 15.7196C230.415 15.6764 214.855 16.0722 197.088 16.9682C196.397 17.018 195.704 17.0253 195.013 17.075C193.736 17.1244 192.461 17.2162 191.13 17.2694C189.59 17.3804 188.046 17.4489 186.506 17.5599L185.178 17.6555C181.882 17.8503 178.589 18.0875 175.349 18.3209C174.712 18.3668 174.022 18.4166 173.384 18.4625C170.144 18.6959 166.904 18.9293 163.717 19.1589L161.805 19.2966C160 19.4267 158.141 19.5606 156.391 19.7293L156.072 19.7523C154.163 19.9324 152.304 20.0663 150.395 20.2465C149.07 20.3846 147.742 20.4803 146.414 20.5759C144.08 20.7867 141.64 21.0051 139.253 21.2198L128.442 22.3398L123.196 22.8883C122.03 23.0149 120.921 23.1801 119.755 23.3068L118.009 23.5179C116.793 23.6908 115.628 23.8174 114.409 23.9478C112.187 24.2358 110.122 24.4699 108.006 24.7503C94.9472 26.5441 83.4495 28.524 73.7727 30.5859C64.8865 32.5057 56.8773 34.7461 51.211 36.903C50.745 37.1072 50.3291 37.2651 49.9132 37.4231C49.1345 37.7351 48.462 38.0394 47.7866 38.3014C47.4769 38.4516 47.1672 38.6019 46.9106 38.7483C46.9106 38.7483 46.8575 38.7522 46.8605 38.7946C46.2913 39.0489 45.8283 39.2955 45.4184 39.5383L44.5455 40.0277L44.4423 40.0778L44.2889 40.1741L43.9321 40.4131C43.8289 40.4632 43.7788 40.5095 43.7287 40.5557L43.6255 40.6058L43.5754 40.6521C43.5754 40.6521 43.5223 40.6559 43.5253 40.6983L43.3749 40.8371L43.5253 40.6983L43.6255 40.6058C43.6756 40.5595 43.6756 40.5595 43.7257 40.5133L43.9291 40.3707C44.0324 40.3206 44.1326 40.2281 44.2358 40.178L44.339 40.1279L44.5425 39.9853C44.6958 39.8889 44.8492 39.7926 45.0556 39.6924C45.1588 39.6423 45.2621 39.5922 45.3653 39.5421C45.8283 39.2955 46.3414 39.0026 46.9608 38.7021C47.0139 38.6983 47.0109 38.6558 47.064 38.652C48.0962 38.1511 49.3409 37.6349 50.7951 37.061C53.3406 36.0672 56.3641 35.039 59.8717 34.0612C63.6388 32.9794 67.887 31.9056 72.4067 30.8976C72.8286 30.8246 73.2475 30.7091 73.6664 30.5936C74.4541 30.4089 75.2418 30.2242 76.0325 30.0819L76.8763 29.9358C77.8765 29.7358 78.8766 29.5358 79.8768 29.3358L81.1926 29.0704C82.0865 28.8781 82.9835 28.7281 83.9305 28.532C84.8244 28.3396 85.6682 28.1935 86.6183 28.0398C87.0933 27.9629 87.6214 27.8822 88.1496 27.8015C88.9934 27.6554 89.8372 27.5093 90.7341 27.3594L92.5811 27.0557C93.1092 26.975 93.6373 26.8943 94.1124 26.8175C95.1155 26.6599 96.1157 26.4599 97.1749 26.3409C100.294 25.903 103.516 25.415 106.847 24.9618C108.431 24.7197 110.018 24.52 111.712 24.3127L113.087 24.1283C114.409 23.9478 115.787 23.8059 117.162 23.6215L117.268 23.6139C119.015 23.4028 120.762 23.1916 122.561 22.9767C123.724 22.8076 124.945 22.7196 126.111 22.593C126.748 22.5471 127.436 22.4549 128.073 22.409C130.723 22.1328 133.479 21.849 136.235 21.5652L139.628 21.2354C142.174 21.0093 144.721 20.7832 147.374 20.5495C148.808 20.4462 150.239 20.3004 151.673 20.1971C157.559 19.6451 163.561 19.2128 169.885 18.7999C172.169 18.6354 174.506 18.467 176.789 18.3025C176.949 18.291 177.108 18.2795 177.267 18.2681L180.614 18.027L181.517 17.962C182.313 17.9046 183.163 17.8434 183.963 17.8284L190.767 17.4235C192.254 17.3164 193.745 17.2517 195.235 17.187C196.032 17.1296 196.884 17.1108 197.681 17.0535C198.478 16.9961 199.278 16.9811 200.074 16.9237C201.564 16.859 203.161 16.7867 204.704 16.7182C213.911 16.3109 223.661 16.035 233.688 15.9098C244.518 15.8121 254.401 15.9106 263.924 16.2056C271.577 16.4648 278.651 16.8509 285.362 17.3911C283.966 17.2784 282.573 17.2081 281.177 17.0954C279.191 16.9399 277.208 16.8269 275.224 16.7138C273.294 16.5969 271.367 16.5225 269.49 16.4018C267.616 16.3235 265.745 16.2877 263.924 16.2056C260.283 16.0414 256.759 16.0393 253.442 15.937C250.075 15.881 246.873 15.8984 243.828 15.8619C231.605 15.8893 221.802 16.169 215.091 16.3964C211.736 16.5102 209.131 16.6552 207.372 16.6966C205.616 16.7804 204.71 16.803 204.71 16.803C200.133 17.0048 195.719 17.2375 191.411 17.4625C187.105 17.73 182.903 17.9474 178.867 18.2382C174.83 18.5289 170.9 18.8121 167.076 19.0876C163.251 19.363 159.584 19.5846 155.978 19.9297C141.702 21.1286 129.242 22.3248 118.392 23.6609C96.741 26.2442 81.6145 28.9974 71.162 31.4138C60.6564 33.8341 54.8188 35.8327 51.5417 37.0498C49.9342 37.7201 48.949 38.1323 48.3267 38.3904C47.7605 38.6871 47.551 38.7449 47.551 38.7449C47.2594 39.1498 46.9707 39.5971 46.7322 39.9981C47.57 39.7672 48.3517 39.4976 49.1393 39.3129L51.5556 38.755C52.3051 38.7863 53.1139 38.8986 53.8695 39.0148C54.0207 39.6437 55.1241 39.3936 56.2155 38.9738C56.475 38.8698 56.7346 38.7658 56.9942 38.6618C57.2537 38.5578 57.4602 38.4576 57.6666 38.3574C58.0825 38.1995 58.3391 38.053 58.3391 38.053L60.6902 37.3292L61.8908 36.9441L63.0944 36.6015C64.7199 36.1858 66.2892 35.7316 67.9147 35.3159C69.5403 34.9002 71.1718 34.5694 72.8003 34.1962C74.4288 33.823 76.0543 33.4073 77.6888 33.1189C79.3203 32.7881 80.9518 32.4573 82.6364 32.1227L85.3833 31.7116C86.2271 31.5655 87.0178 31.4232 87.8616 31.2771C91.1868 30.739 94.4528 30.1199 97.7278 29.628C101.056 29.1324 104.331 28.6405 107.609 28.1911C109.247 27.9452 110.887 27.7417 112.528 27.5382C114.168 27.3348 115.809 27.1313 117.449 26.9278C124.005 26.029 130.582 25.4272 137.097 24.702C138.741 24.541 140.328 24.3413 141.972 24.1802C143.615 24.0192 145.209 23.9044 146.852 23.7434C150.089 23.4675 153.323 23.1493 156.56 22.8734C159.794 22.5552 163.037 22.3642 166.224 22.1347C169.463 21.9013 172.65 21.6717 175.837 21.4421C188.638 20.52 201.24 19.8254 213.752 19.3506C226.211 18.8797 238.581 18.671 250.707 18.7785C262.833 18.8861 274.82 19.3021 286.528 20.2928C289.429 20.553 292.381 20.7669 295.235 21.1158C296.687 21.2671 298.139 21.4185 299.541 21.616C300.996 21.8098 302.398 22.0074 303.8 22.2049L305.955 22.4763L308.062 22.8363C309.467 23.0763 310.869 23.2739 312.274 23.5139C315.034 24.0402 317.844 24.5202 320.559 25.1777C323.272 25.7926 325.938 26.4963 328.456 27.3813L329.386 27.6981C329.714 27.8025 329.991 27.9531 330.319 28.0575C330.647 28.1618 330.924 28.3124 331.252 28.4168L332.135 28.8224C332.74 29.0774 333.245 29.4248 333.853 29.7223C334.358 30.0697 334.914 30.371 335.369 30.7647C336.275 31.5098 337.029 32.3513 337.257 33.3158C337.539 34.2766 337.289 35.2756 336.715 36.2127C336.141 37.1497 335.295 38.0211 334.337 38.8152C333.375 39.5669 332.308 40.3262 331.179 40.9621C328.979 42.3148 326.552 43.4707 324.115 44.4993C321.682 45.5703 319.187 46.5178 316.635 47.4267C311.582 49.1983 306.47 50.8888 301.399 52.4057C291.207 55.4858 280.976 58.0142 270.827 60.1955C250.53 64.5581 230.667 67.5245 211.503 69.8007C192.333 71.9921 173.823 73.7093 156.136 74.9834C138.45 76.2575 121.588 77.1309 105.544 77.4763C89.5 77.8216 74.3287 77.6776 60.1716 76.778C53.0915 76.307 46.265 75.6471 39.7362 74.6673C36.4983 74.1754 33.3075 73.5948 30.217 72.9218C27.1265 72.2487 24.1863 71.4368 21.3403 70.4475C19.9173 69.9529 18.5976 69.4082 17.2748 68.821C16.0051 68.23 14.7325 67.5966 13.56 66.8706C11.2683 65.4149 9.28019 63.724 7.70499 61.8328C6.94245 60.8641 6.28614 59.8877 5.83928 58.8535C5.44553 57.8156 5.15501 56.7275 5.13005 55.6203C5.16122 54.5518 5.35172 53.4717 5.75768 52.4188C6.21975 51.4045 6.73794 50.4288 7.4746 49.5227C8.89479 47.7142 10.7078 46.1761 12.5889 44.8463C14.5232 43.5127 16.5225 42.345 18.584 41.3007C22.71 39.2547 26.8099 37.5945 30.8216 36.1965C38.7948 33.4468 46.0815 31.557 52.4332 30.0332C58.7879 28.5517 64.1574 27.4825 68.5298 26.6556C72.9022 25.8288 76.1712 25.2521 78.4431 24.9179C80.6589 24.545 81.8214 24.3759 81.8214 24.3759C97.1252 21.8659 110.093 20.292 121.055 19.0332C132.019 17.8168 140.93 17.0043 148.201 16.3952C154.781 15.8359 159.93 15.4223 163.966 15.1315C162.904 15.2081 161.736 15.2922 160.567 15.3764C153.45 15.8891 144.424 16.582 135.563 17.3483C126.705 18.157 117.959 19.0429 111.5 19.8067C111.341 19.8182 111.181 19.8297 111.022 19.8412C116 19.2693 120.977 18.6975 125.961 18.2105C133.273 17.4279 140.537 16.734 147.861 16.1211C155.182 15.4658 162.458 14.9416 169.788 14.4136C160.599 15.0755 151.517 15.7298 142.443 16.5114C146.368 16.1434 152.948 15.584 160.593 14.9906C168.292 14.3934 177.061 13.847 185.353 13.335C201.94 12.3534 216.582 11.8105 216.582 11.8105C211.946 11.9312 203.161 12.2654 191.249 12.9103C179.389 13.5513 164.396 14.4181 147.521 15.847C130.643 17.2335 111.827 19.1434 92.324 21.9132C87.4616 22.6047 82.552 23.3849 77.5924 24.2114C72.6327 25.0378 67.6791 25.9492 62.7314 26.9454C52.8362 28.9378 42.9148 31.316 33.3631 34.3926C28.6169 35.9715 23.9357 37.7162 19.4941 39.8276C17.2733 40.8833 15.1677 42.0587 13.1212 43.3151C11.1308 44.6101 9.20259 46.0286 7.61105 47.6787C6.01951 49.3289 4.76467 51.2107 4.1622 53.2588C3.71907 55.2954 3.92532 57.4559 4.80703 59.3544C5.68875 61.253 7.03347 62.9049 8.57863 64.3717C9.37627 65.082 10.1739 65.7923 11.0718 66.4101C11.4706 66.7652 11.9696 67.0279 12.4186 67.3367C12.8675 67.6456 13.3665 67.9083 13.8125 68.1747C17.7016 70.3258 21.9675 71.7672 26.1564 72.873C28.2788 73.4453 30.3953 73.9326 32.5058 74.335C34.6192 74.7799 36.6736 75.1438 38.778 75.4614C47.0365 76.7432 54.9844 77.4076 62.2238 77.8671C69.5163 78.3228 76.2006 78.4811 82.0821 78.6119C87.9606 78.7003 93.1397 78.7111 97.3537 78.6634C101.568 78.6158 104.873 78.5483 107.112 78.5149C109.352 78.4815 110.577 78.436 110.577 78.436C106.959 78.6113 98.7557 78.861 87.1699 78.8425C80.8134 78.7886 70.1276 78.6627 57.4106 77.7447C52.3669 77.3829 44.6845 76.6994 36.4731 75.3288C32.4206 74.6398 28.7338 73.839 25.1943 72.857C22.0357 71.9756 17.8849 70.6538 13.9988 68.5452C13.11 68.0547 12.2181 67.5218 11.4325 66.9812C11.1519 66.7882 10.9244 66.5913 10.6439 66.3983C10.5286 66.2786 10.3633 66.2052 10.248 66.0855C9.85523 65.8153 9.51252 65.4987 9.11671 65.186L9.06059 65.1474C7.4152 63.7731 6.14161 62.372 5.23381 60.8592C4.08953 59.0222 3.58562 57.1818 3.61885 55.388C3.64608 53.5093 4.36378 51.5808 5.57151 49.7877C6.63492 48.2182 8.07913 46.7493 9.99836 45.2035C11.5668 43.9815 13.3507 42.7867 15.5064 41.5651C19.1544 39.5535 23.1892 37.7274 27.9234 35.9788C31.9291 34.4959 36.2624 33.1174 41.1831 31.7393C45.4222 30.5382 49.8798 29.4067 54.8214 28.3256C63.3328 26.3902 72.3932 24.6712 82.4218 23.0531C98.363 20.4972 115.718 18.3086 135.393 16.4647C144.939 15.5638 154.596 14.7402 164.688 14.0132C169.787 13.6459 174.942 13.3172 180.256 12.977C192.853 12.1976 203.335 11.6984 211.104 11.352C203.335 11.6984 192.853 12.1976 180.256 12.977C164.47 13.9436 149.816 15.0845 135.446 16.4609C115.774 18.3472 98.4161 20.4933 82.4749 23.0493C72.4464 24.6674 63.439 26.3826 54.8746 28.3218C49.989 29.4415 45.5284 30.5306 41.2362 31.7355C36.3156 33.1136 31.9822 34.4921 27.9765 35.9749C23.2954 37.7197 19.2075 39.5497 15.5595 41.5613C13.4038 42.7829 11.6199 43.9777 10.0515 45.1997C8.12924 46.7031 6.68803 48.2144 5.62463 49.7839C4.41689 51.577 3.69919 53.5054 3.67197 55.3841C3.6318 56.3254 3.75397 57.2976 4.0886 58.2545C4.36411 59.1304 4.74585 59.9986 5.28993 60.8978C6.19773 62.4106 7.47132 63.8117 9.17583 65.2671L9.23194 65.3057C9.57464 65.6222 9.97046 65.9349 10.3633 66.2052C10.4785 66.3249 10.6439 66.3983 10.7591 66.5179C10.9866 66.7148 11.2671 66.9079 11.5477 67.1009C12.3364 67.6839 13.2252 68.1743 14.1141 68.6648C18.0002 70.7734 22.0948 72.0566 25.3095 72.9767C28.849 73.9587 32.5358 74.7594 36.5884 75.4485C44.7998 76.819 52.4821 77.5026 57.5258 77.8643C68.8469 78.6696 78.6297 78.8606 85.1486 78.9455C79.5417 78.9229 73.2322 78.7802 66.2704 78.4713C58.7183 78.1196 50.5109 77.5592 41.7774 76.3543C37.4121 75.773 32.9256 74.9873 28.4211 73.9468C26.1423 73.4286 23.9106 72.8216 21.6669 72.0448C19.4261 71.3105 17.1764 70.4489 15.071 69.3636C14.5189 69.1048 14.0168 68.7998 13.5178 68.5371C13.0158 68.2321 12.4606 67.9309 12.0117 67.622C11.5066 67.2745 11.0046 66.9694 10.5526 66.6181C10.1007 66.2668 9.64878 65.9155 9.19384 65.5217C7.43322 64.0277 5.81693 62.3101 4.71375 60.2995C4.46226 59.7631 4.21378 59.2692 4.0154 58.729C3.94127 58.4358 3.81703 58.1888 3.74289 57.8956L3.57661 57.0545C3.44243 55.9125 3.41447 54.7629 3.7082 53.6328L3.7844 53.2007C3.82851 53.0696 3.87261 52.9385 3.91371 52.7649L4.22846 51.9318L4.5432 51.0987L4.72864 50.7015L4.96718 50.3004L5.44727 49.5407C5.64171 49.2708 5.83915 49.0433 5.98348 48.8197C6.32224 48.3261 6.77024 47.8673 7.21824 47.4085C8.96011 45.6195 10.9856 44.0661 13.1854 42.7133C15.3852 41.3606 17.7002 40.1275 20.0774 39.0178C22.4546 37.9082 24.8939 36.9221 27.3893 35.9746C29.8877 35.0695 32.4392 34.1606 34.9997 33.379C45.2358 30.1678 55.9008 27.736 66.5367 25.6476C87.8144 21.5556 109.191 18.8641 129.067 16.8352C148.942 14.8063 167.429 13.5172 183.216 12.5506C199.002 11.584 212.095 11.0247 221.196 10.625C230.352 10.264 235.519 10.105 235.519 10.105C232.214 10.1725 224.011 10.4222 212.139 10.8935C200.271 11.4073 184.738 12.185 166.886 13.3857C149.037 14.6289 128.765 16.3451 107.542 18.9403C102.248 19.5775 96.8548 20.3072 91.4642 21.0794C86.0767 21.8941 80.636 22.7125 75.1512 23.6621C64.2348 25.5575 53.2892 27.7962 42.5511 30.7024C37.2085 32.1536 31.878 33.7745 26.784 35.7196C21.69 37.6647 16.6671 39.8607 12.1792 42.8284C9.93531 44.3123 7.86274 45.9545 6.13288 47.9132C5.88232 48.1445 5.741 48.4106 5.54656 48.6805C5.35212 48.9505 5.10157 49.1818 4.96024 49.4479C4.62448 49.9839 4.2356 50.5237 4.00907 51.0946C3.39366 52.2052 3.05582 53.4665 2.92744 54.67C2.74895 55.9198 2.94225 57.1428 3.2919 58.3119L3.56741 59.1878C3.69465 59.4772 3.81889 59.7242 3.94614 60.0136C4.20063 60.5924 4.55534 61.0787 4.85995 61.6112C6.23169 63.6451 8.00432 65.3088 9.92429 66.7913L10.6568 67.3357L11.4424 67.8762C11.9475 68.2237 12.5026 68.525 13.0608 68.8686C13.6159 69.1699 14.1711 69.4711 14.7263 69.7723C15.2784 70.0311 15.8336 70.3324 16.4388 70.5873C18.7006 71.6187 21.0535 72.4302 23.3975 73.1144C28.0883 74.5253 32.7993 75.4655 37.4451 76.2398C46.6807 77.7499 55.4844 78.4379 63.6327 78.9173C71.7781 79.3542 79.2119 79.5438 85.837 79.621C92.409 79.7021 98.1693 79.6283 102.861 79.5463C107.553 79.4642 111.283 79.3661 113.789 79.3136C116.291 79.2186 117.625 79.2079 117.625 79.2079C114.804 79.3258 106.713 79.6527 94.7079 79.7497C88.7322 79.7963 81.7353 79.7459 73.9798 79.5368C66.2212 79.2853 57.651 78.879 48.5076 77.9168C43.9359 77.4358 39.1928 76.7964 34.3816 75.9487C29.5674 75.0586 24.629 73.9214 19.8109 72.2212C17.4018 71.371 14.9808 70.3512 12.7511 69.0189C11.6378 68.374 10.5155 67.6018 9.55549 66.8605C8.5394 66.0807 7.62652 65.2507 6.70765 64.3359C5.84188 63.4172 5.02623 62.4523 4.36091 61.3486C3.68958 60.16 3.17759 58.96 2.87806 57.7446C2.276 55.2714 2.82742 52.5019 4.21458 50.2267C5.59874 47.909 7.59717 45.9736 9.77597 44.3238C11.9548 42.674 14.361 41.2211 16.8855 39.9302C19.3569 38.6432 21.9465 37.5183 24.5923 36.432C27.241 35.3881 29.8958 34.4291 32.6597 33.5049C38.0845 31.7066 43.6334 30.1552 49.2475 28.7698C54.8616 27.3843 60.5408 26.1648 66.1759 25.0764C71.8642 23.9842 77.5584 22.9769 83.2085 22.1007C88.8557 21.182 94.5118 20.3907 100.118 19.6457C111.33 18.1555 122.347 16.9353 133.002 15.8692C154.318 13.8219 174.135 12.4796 191.097 11.5137C208.058 10.5478 222.113 10.0045 231.966 9.67858C236.867 9.53876 240.754 9.38677 243.362 9.28416C245.974 9.22399 247.411 9.16312 247.411 9.16312C242.028 9.29494 228.439 9.63405 208.748 10.498C189.01 11.4507 163.22 12.882 133.474 15.7499C118.63 17.2032 102.797 19.0262 86.3713 21.5316C78.1336 22.8075 69.7486 24.2646 61.3315 26.0226C52.8613 27.7844 44.3029 29.8084 35.7865 32.4266C31.5563 33.755 27.3352 35.2107 23.1852 36.9172C21.1087 37.7493 19.0973 38.7472 17.086 39.7452C15.0776 40.7856 13.1283 41.907 11.2973 43.1905C9.41018 44.4355 7.64428 45.8849 6.10585 47.5313C4.62354 49.2162 3.3717 51.1405 2.82836 53.2696C2.28501 55.3988 2.50026 57.6865 3.38498 59.6275C4.27269 61.6109 5.62342 63.3477 7.2247 64.8531C7.62652 65.2507 8.02534 65.6059 8.42416 65.961C8.82298 66.3162 9.27491 66.6675 9.72384 66.9764L10.4002 67.4821L11.1267 67.9416C11.5787 68.293 12.0777 68.5556 12.5798 68.8606C14.5819 69.996 16.6783 70.954 18.8188 71.7808C23.1499 73.3882 27.6634 74.5559 32.209 75.4227C41.3033 77.1989 50.606 78.1495 59.8317 78.7645C69.1104 79.3757 78.3621 79.605 87.5487 79.6683C96.7353 79.7317 105.904 79.5404 114.96 79.2719C133.07 78.6924 150.822 77.5842 167.915 76.2249C185.009 74.8656 201.444 73.2551 216.952 71.3702C224.733 70.4258 232.239 69.3733 239.53 68.2936C243.174 67.7325 246.711 67.1791 250.19 66.5447C251.93 66.2486 253.671 65.9526 255.359 65.6605C257.043 65.3258 258.731 65.0336 260.419 64.7415C267.107 63.4493 273.474 62.1376 279.46 60.7253C282.454 60.0404 285.392 59.3169 288.225 58.6011C289.641 58.2431 291.003 57.889 292.363 57.4925C293.726 57.1384 295.089 56.7843 296.396 56.3916C297.706 56.0413 299.013 55.6486 300.269 55.3022C301.526 54.9557 302.78 54.5668 303.98 54.1818C306.438 53.4503 308.733 52.6878 310.978 51.9716C313.222 51.2554 315.358 50.5044 317.39 49.8035C319.423 49.1026 321.346 48.3669 323.216 47.6351C326.85 46.179 330.053 44.6687 332.719 43.1118C334.052 42.3333 335.222 41.5239 336.287 40.7221C336.54 40.5332 336.791 40.3019 337.041 40.0706C337.295 39.8817 337.545 39.6504 337.743 39.4229C337.94 39.1954 338.191 38.9641 338.391 38.779C338.589 38.5516 338.786 38.3241 338.93 38.1004C339.031 38.0079 339.128 37.8729 339.175 37.7842C339.272 37.6493 339.319 37.5606 339.417 37.4256C339.561 37.2019 339.705 36.9783 339.85 36.7546C339.941 36.5348 340.082 36.2687 340.173 36.0488C340.265 35.829 340.356 35.6092 340.394 35.3931C340.523 34.9573 340.599 34.5253 340.572 34.1434C340.598 33.7576 340.571 33.3757 340.497 33.0824C340.423 32.7892 340.349 32.496 340.281 32.2876C340.213 32.0793 340.091 31.8747 340.029 31.7512C339.902 31.4618 339.837 31.2959 339.837 31.2959C339.11 30.0687 338.138 29.1577 337.065 28.3392C335.999 27.6056 334.886 26.9607 333.781 26.4431C331.517 25.3693 329.22 24.5964 326.929 23.9084C324.641 23.2628 322.356 22.6596 320.081 22.1838C318.941 21.9246 317.805 21.7079 316.668 21.4912C315.532 21.2745 314.396 21.0578 313.312 20.8372C309.959 20.2257 306.612 19.6991 303.377 19.2497C303.702 19.3116 304.024 19.3311 304.348 19.393C305.157 19.5053 306.019 19.6139 306.884 19.7648L308.07 19.9353C308.988 20.0824 309.906 20.2296 310.824 20.3767L312.769 20.7058L314.717 21.0773L318.614 21.8203C321.108 22.3657 323.764 22.9421 326.38 23.692C328.505 24.3067 331.292 25.2149 334 26.5127C334.44 26.6943 334.83 26.9221 335.219 27.15C335.441 27.262 335.609 27.3778 335.831 27.4898L336.726 28.0651C336.782 28.1037 336.838 28.1424 336.894 28.181C337.006 28.2582 337.115 28.293 337.175 28.374L337.627 28.7253C339.041 29.8604 339.922 30.9912 340.387 32.28C340.523 32.6967 340.606 33.1172 340.63 33.4567C340.661 33.8811 340.634 34.2668 340.608 34.6526L340.614 34.7375C340.532 35.0846 340.45 35.4318 340.368 35.7789C340.232 36.1299 340.097 36.4809 339.909 36.8357C339.155 38.2549 338.056 39.3151 337.103 40.1941C334.89 42.1023 332.477 43.4704 330.159 44.661C327.997 45.7978 325.614 46.8225 322.759 47.9666C320.267 48.9565 317.718 49.9079 315.161 50.7319C311.409 52.0259 307.338 53.3428 302.267 54.8597C301.745 55.0253 301.223 55.1909 300.697 55.314C300.435 55.3756 300.175 55.4796 299.86 55.545C298.447 55.9453 297.087 56.3419 295.674 56.7422C295.202 56.8615 294.679 57.0271 294.101 57.1541C293.054 57.4428 292.007 57.7315 290.956 57.9777C290.694 58.0393 290.431 58.1009 290.172 58.2049C288.599 58.6167 287.027 59.0286 285.452 59.398C285.348 59.4481 285.189 59.4595 285.086 59.5096C283.67 59.8676 282.304 60.1792 280.888 60.5371C280.678 60.5949 280.469 60.6526 280.256 60.6679C279.206 60.9142 278.156 61.1605 277.052 61.4106C276.58 61.5299 276.105 61.6068 275.633 61.7261C274.739 61.9184 273.899 62.1069 272.952 62.3031C270.692 62.8071 268.429 63.2687 265.954 63.7456C262.797 64.3995 259.478 65.0225 255.999 65.657C255.524 65.7338 255.102 65.8069 254.63 65.9262C254.102 66.0069 253.524 66.1339 252.996 66.2146C249.461 66.8104 245.823 67.4563 241.967 68.0327C232.251 69.543 222.576 70.8797 213.152 71.9852C202.931 73.148 192.014 74.2757 180.663 75.3066C172.545 76.0193 164.69 76.6705 157.042 77.2214C139.993 78.4496 124.035 79.258 108.846 79.627C95.0977 79.9776 82.9248 79.9588 71.6337 79.5778C64.728 79.3075 58.7253 78.9722 53.1945 78.5176C46.6426 77.9659 40.716 77.1985 35.1492 76.2346C31.8523 75.6617 28.9802 75.0582 26.3707 74.3931C23.2711 73.5927 20.5404 72.7231 17.963 71.7571C14.9427 70.5672 12.3973 69.3003 10.2619 67.7907C7.7898 66.0494 5.84281 64.1849 4.36484 62.1587C2.64739 59.7659 1.87097 57.0921 2.12173 54.6001C2.28821 53.1806 2.67615 51.873 3.29157 50.7624L3.52711 50.3189L3.81576 49.8715L4.50531 49.0541L5.14174 48.2405C5.33617 47.9706 5.58373 47.6968 5.78117 47.4693C7.3637 45.6919 9.33004 44.0574 11.8806 42.3808C14.0243 40.9894 16.2833 39.7177 18.6604 38.6081C22.583 36.7047 26.9985 34.9791 32.4764 33.1769C36.4941 31.8638 40.8334 30.5702 45.7099 29.3232C49.6925 28.2685 53.8434 27.3297 57.9974 26.4333C61.8888 25.5985 65.6268 24.8601 69.0492 24.187C82.01 21.7605 91.791 20.4161 97.0783 19.694C97.4471 19.6248 97.8189 19.598 98.1346 19.5326C98.1346 19.5326 99.8282 19.3253 102.894 18.8912C104.428 18.6954 106.334 18.4727 108.503 18.1886L116.021 17.3058C120.683 16.7993 127.779 15.9896 135.734 15.2459C143.689 14.5022 151.966 13.778 160.302 13.1349C161.895 13.0201 163.435 12.9092 165.029 12.7944C181.494 11.6083 199.255 10.6274 216.765 9.87786C233.745 9.16656 252.017 8.61807 271 8.31689C252.017 8.61807 233.742 9.12413 216.762 9.83542C199.252 10.585 181.491 11.5658 165.026 12.7519C163.432 12.8667 161.839 12.9815 160.299 13.0925C151.963 13.7356 143.683 14.4174 135.731 15.2035C127.723 15.9509 120.627 16.7607 116.018 17.2633L108.447 18.15C106.225 18.438 104.372 18.6568 102.838 18.8526C99.7721 19.2867 98.0785 19.494 98.0785 19.494C97.7628 19.5594 97.391 19.5862 97.0222 19.6554C91.788 20.3737 82.007 21.7181 68.993 24.1484C65.5707 24.8215 61.8296 25.5175 57.9413 26.3947C53.7873 27.2911 49.6394 28.2724 45.6538 29.2846C40.7773 30.5316 36.4379 31.8252 32.4202 33.1383C26.9424 34.9405 22.583 36.7047 18.6043 38.5695C16.2271 39.6791 13.9682 40.9508 11.8245 42.3422C9.27392 44.0188 7.30758 45.6533 5.72505 47.4307C5.4745 47.662 5.28006 47.932 5.08562 48.2019L4.50531 49.0541L3.92499 49.9063L3.63634 50.3536L3.4008 50.7971C2.78538 51.9078 2.39744 53.2153 2.23096 54.6349C1.92409 57.0882 2.75662 59.8007 4.47407 62.1935C5.95204 64.2197 7.84592 66.088 10.3711 67.8255C12.5597 69.3313 15.0549 70.6444 18.0752 71.8344C20.6556 72.8428 23.4395 73.7086 26.4829 74.4703C29.0924 75.1354 31.9645 75.7389 35.2615 76.3118C40.8283 77.2757 46.7518 78.0006 53.3068 78.5948C58.8375 79.0494 64.8433 79.4272 71.746 79.6551C82.6622 80.0203 94.4103 80.0697 107.627 79.7574C110.186 79.7011 117.168 79.5393 127.44 79.098C137.124 78.6562 147.013 78.0719 156.839 77.3641C158.113 77.2722 159.441 77.1766 160.716 77.0847C174.257 76.0666 188.314 74.7981 202.409 73.3135C218.464 71.6026 233.641 69.5708 247.52 67.2915C254.748 66.0883 262.177 64.7001 269.647 63.1383C271.645 62.6958 273.698 62.292 275.692 61.8071C275.746 61.8033 275.849 61.7532 275.902 61.7494C276.321 61.6339 276.69 61.5647 277.109 61.4492C278.368 61.1452 279.631 60.8836 280.891 60.5796C281.941 60.3333 283.097 60.0794 284.251 59.783C284.567 59.7176 284.829 59.6561 285.142 59.5482C285.245 59.4982 285.404 59.4867 285.508 59.4366C287.239 59.0133 288.812 58.6014 290.228 58.2435C290.334 58.2358 290.437 58.1858 290.543 58.1781C290.7 58.1242 290.856 58.0703 291.069 58.055C292.222 57.7586 293.269 57.4699 294.213 57.2313C294.739 57.1082 295.261 56.9426 295.786 56.8194C295.839 56.8156 295.839 56.8156 295.892 56.8118C298.562 56.065 299.922 55.6684 299.922 55.6684L299.975 55.6646C300.184 55.6069 300.447 55.5453 300.653 55.4451C301.229 55.2757 301.804 55.1063 302.379 54.9369C304.783 54.2093 307.187 53.4816 309.535 52.7153C310.267 52.492 310.996 52.2262 311.727 52.0029C312.196 51.8412 312.665 51.6794 313.134 51.5177L313.916 51.2481C314.385 51.0863 314.801 50.9284 315.22 50.8129C316.158 50.4895 317.149 50.1621 318.137 49.7924C321.104 48.7256 323.703 47.728 326.083 46.6608C328.826 45.4395 331.147 44.2913 333.094 43.1274C333.247 43.0311 333.35 42.981 333.503 42.8846C333.657 42.7883 333.76 42.7382 333.913 42.6418C334.167 42.4529 334.423 42.3065 334.677 42.1176C335.187 41.7823 335.694 41.4046 336.151 41.0731L336.204 41.0692C336.561 40.8303 336.862 40.5527 337.163 40.2751C337.313 40.1363 337.463 39.9975 337.616 39.9012C337.814 39.6737 338.068 39.4848 338.265 39.2573L338.563 38.9373L338.857 38.5749C339.7 37.6611 340.262 36.5543 340.609 35.4203C340.603 35.3354 340.653 35.2891 340.647 35.2043C340.685 34.9883 340.774 34.726 340.759 34.5138C340.791 34.2129 340.77 33.9159 340.749 33.6188C340.843 33.4414 340.828 33.2292 340.763 33.0633ZM107.744 20.2906C107.11 20.3789 106.525 20.421 105.997 20.5017C106.579 20.4172 107.163 20.3751 107.744 20.2906ZM45.8874 39.3765C46.0407 39.2802 46.2472 39.18 46.4536 39.0798C46.2472 39.18 46.0407 39.2802 45.8874 39.3765ZM48.0521 38.2822C48.6214 38.028 49.1906 37.7737 49.8661 37.5118C49.1405 37.82 48.468 38.1243 47.8457 38.3824C47.8958 38.3361 48.002 38.3285 48.0521 38.2822ZM287.508 17.5351C287.077 17.4808 286.649 17.469 286.218 17.4148C289.331 17.6596 292.342 17.9546 295.246 18.2573L295.462 18.2844C296.698 18.4086 297.938 18.5752 299.174 18.6994C300.036 18.8079 300.898 18.9164 301.707 19.0288C302.138 19.083 302.625 19.1759 303.109 19.2264C303.218 19.2611 303.377 19.2497 303.487 19.2845C297.988 18.5289 292.664 17.9741 287.508 17.5351ZM266.069 63.8653C266.228 63.8538 266.384 63.7999 266.597 63.7846C265.65 63.9808 264.756 64.1731 263.806 64.3269C264.543 64.1884 265.331 64.0037 266.069 63.8653ZM256.114 65.7766C257.59 65.4998 259.012 65.2267 260.384 64.9999C258.855 65.2806 257.38 65.5575 255.852 65.8382C255.955 65.7881 256.008 65.7843 256.114 65.7766ZM247.573 67.2876C233.697 69.6095 218.52 71.6412 202.515 73.3059C188.42 74.7904 174.363 76.059 160.822 77.0771C159.547 77.1689 158.22 77.2646 156.945 77.3564C147.066 78.0681 137.231 78.6486 127.546 79.0903C118.392 79.4938 111.838 79.6673 108.746 79.7195C108.852 79.7119 108.958 79.7042 109.065 79.6966C124.25 79.2851 140.158 78.523 157.261 77.291C164.856 76.7439 172.711 76.0927 180.881 75.3762C192.232 74.3452 203.153 73.26 213.371 72.0547C222.795 70.9493 232.473 69.655 242.185 68.1023C245.989 67.5297 249.68 66.88 253.214 66.2841C253.636 66.2111 254.058 66.138 254.533 66.0612C252.055 66.4956 249.789 66.9148 247.573 67.2876ZM269.647 63.1383C269.279 63.2075 268.963 63.2729 268.594 63.3421C270.119 63.019 271.592 62.6997 273.011 62.3842C273.748 62.2457 274.43 62.0687 275.114 61.9341C273.329 62.3612 271.488 62.7498 269.647 63.1383ZM280.212 60.7991C280.159 60.8029 280.106 60.8067 280.056 60.853C280.106 60.8067 280.159 60.8029 280.212 60.7991ZM281.997 60.3719C282.575 60.245 283.1 60.1218 283.676 59.9524C283.1 60.1218 282.522 60.2488 281.997 60.3719ZM340.815 34.5524C340.777 34.7684 340.742 35.0269 340.703 35.2429C340.709 35.3278 340.659 35.374 340.665 35.4589C340.372 36.589 339.756 37.6997 338.913 38.6135L338.619 38.9759L338.321 39.2959C338.124 39.5234 337.87 39.7123 337.673 39.9398C337.522 40.0786 337.369 40.1749 337.219 40.3137C336.918 40.5913 336.617 40.8689 336.261 41.1078L336.207 41.1117C335.753 41.4856 335.243 41.8209 334.733 42.1562C334.48 42.3451 334.223 42.4916 333.969 42.6804C333.816 42.7768 333.713 42.8269 333.56 42.9232C333.406 43.0196 333.303 43.0697 333.15 43.166C331.15 44.3337 328.885 45.5206 326.139 46.6994C323.756 47.7241 321.161 48.7642 318.193 49.831C317.258 50.1969 316.267 50.5242 315.276 50.8516C314.86 51.0095 314.388 51.1288 313.972 51.2867L313.19 51.5563C312.721 51.718 312.252 51.8798 311.783 52.0415C311.052 52.2648 310.323 52.5306 309.592 52.7539C309.488 52.804 309.435 52.8078 309.329 52.8155C311.418 52.1532 313.4 51.4985 315.273 50.8091C317.827 49.9427 320.379 49.0337 322.871 48.0438C325.727 46.8997 328.107 45.8326 330.271 44.7383C332.589 43.5476 335.002 42.1795 337.216 40.2713C338.171 39.4347 339.267 38.3321 340.021 36.9129C340.209 36.5581 340.342 36.1647 340.48 35.8561C340.562 35.509 340.644 35.1618 340.727 34.8147L340.721 34.7298C340.747 34.3441 340.72 33.9621 340.743 33.5339C340.666 33.1983 340.582 32.7777 340.499 32.3572C340.088 31.0646 339.207 29.9338 337.739 28.8026L337.287 28.4512C337.175 28.374 337.115 28.293 337.006 28.2582C336.95 28.2196 336.894 28.181 336.838 28.1424L335.943 27.567C335.722 27.455 335.553 27.3392 335.332 27.2272C334.942 26.9993 334.499 26.7753 334.112 26.5899C331.405 25.2921 328.618 24.3839 326.492 23.7693C323.877 23.0193 321.217 22.4005 318.726 21.8975L314.936 21.1468L312.878 20.7406L310.933 20.4115C310.015 20.2643 309.097 20.1172 308.18 19.9701L306.993 19.7996C306.131 19.6911 305.266 19.5401 304.458 19.4278C304.027 19.3735 303.543 19.3231 303.056 19.2302C302.572 19.1797 302.141 19.1255 301.654 19.0326C300.845 18.9203 299.983 18.8117 299.121 18.7032C297.885 18.579 296.645 18.4124 295.408 18.2882L295.193 18.2611C285.725 17.237 275.534 16.5636 264.137 16.1903C254.667 15.8915 244.784 15.793 233.9 15.8945C223.876 16.0622 214.126 16.338 204.917 16.7028C203.373 16.7714 201.83 16.8399 200.287 16.9084C199.49 16.9658 198.69 16.9808 197.894 17.0381C197.097 17.0955 196.244 17.1143 195.447 17.1717C193.957 17.2364 192.467 17.3011 190.98 17.4082L184.228 17.8093C183.379 17.8705 182.579 17.8855 181.782 17.9428L180.879 18.0079L177.533 18.2489C177.374 18.2604 177.214 18.2719 177.055 18.2834C174.718 18.4517 172.381 18.6201 170.15 18.7808C163.83 19.2361 157.825 19.626 151.938 20.178C150.507 20.3237 149.02 20.4309 147.639 20.5304C144.933 20.7679 142.44 20.9902 139.893 21.2163L136.5 21.546C133.744 21.8299 131.042 22.1099 128.339 22.3899C127.651 22.482 127.014 22.528 126.377 22.5739C125.211 22.7005 123.992 22.8309 122.827 22.9575C121.027 23.1725 119.28 23.3836 117.534 23.5948L117.427 23.6024C116.052 23.7868 114.674 23.9287 113.353 24.1092L112.187 24.2358L111.975 24.2511C110.281 24.4584 108.694 24.6581 107.109 24.9002C103.781 25.3959 100.556 25.8414 97.4375 26.2794C96.4314 26.3945 95.3781 26.5983 94.3749 26.7559C93.8468 26.8366 93.3718 26.9135 92.8436 26.9942L90.9967 27.2978C90.1529 27.4439 89.2559 27.5938 88.4121 27.7399C87.884 27.8206 87.409 27.8975 86.8808 27.9782C85.9308 28.1319 85.087 28.278 84.1931 28.4704C83.2991 28.6627 82.3491 28.8165 81.4552 29.0088L80.1394 29.2742C79.1392 29.4742 78.1391 29.6743 77.1389 29.8743L76.2951 30.0204C75.5044 30.1626 74.6636 30.3511 73.929 30.532C73.5101 30.6475 73.0882 30.7205 72.6693 30.836C68.1496 31.8441 63.8984 32.8754 60.1343 33.9996C56.6297 35.0198 53.55 36.0094 51.0576 36.9994C50.8482 37.0571 50.6949 37.1535 50.4854 37.2112C50.8482 37.0571 51.211 36.903 51.6269 36.7451C57.24 34.592 65.2493 32.3516 74.1886 30.428C83.8624 28.3236 95.4162 26.3823 108.422 24.5924C110.538 24.312 112.603 24.0779 114.825 23.7899C115.99 23.6633 117.206 23.4904 118.425 23.36L120.171 23.1488C121.284 23.0261 122.446 22.857 123.612 22.7304L128.858 22.1819L139.669 21.0618C142.056 20.8472 144.496 20.6288 146.83 20.418C148.105 20.3262 149.483 20.1843 150.811 20.0886C152.667 19.9122 154.579 19.7745 156.488 19.5943L156.807 19.5714C158.556 19.4027 160.415 19.2688 162.221 19.1387L164.133 19.0009C167.32 18.7714 170.56 18.538 173.8 18.3046C174.437 18.2587 175.128 18.2089 175.765 18.163C178.952 17.9334 182.298 17.6924 185.594 17.4976L186.922 17.402C188.462 17.291 190.006 17.2225 191.546 17.1115C192.821 17.0197 194.152 16.9665 195.429 16.9171C196.12 16.8674 196.813 16.86 197.504 16.8103C215.271 15.9143 230.831 15.5185 245.034 15.5617C262.283 15.6414 276.9 16.2519 289.741 17.4168C292.318 17.6151 294.9 17.8983 297.377 18.1891C298.238 18.2976 299.153 18.4023 300.012 18.4684C300.874 18.5769 301.792 18.7241 302.601 18.8364C305.08 19.1697 307.397 19.4719 309.776 19.8977C312.421 20.3044 314.965 20.8035 317.453 21.2641C317.94 21.3569 318.48 21.446 318.967 21.5389C322.22 22.2429 325.045 22.9351 327.554 23.6927L328.21 23.9014C328.319 23.9362 328.481 23.9672 328.647 24.0406C329.028 24.1411 329.464 24.2802 330.067 24.4928L331.381 24.9526L331.546 25.026C331.986 25.2076 332.479 25.3853 332.975 25.6055C333.359 25.7485 333.745 25.9339 334.188 26.1579C334.41 26.2699 334.628 26.3395 334.797 26.4553C335.018 26.5673 335.24 26.6793 335.464 26.8338C335.576 26.911 335.686 26.9458 335.798 27.023L336.3 27.3281C336.412 27.4053 336.524 27.4825 336.636 27.5597C336.693 27.5983 336.749 27.6369 336.805 27.6756C337.587 28.1737 338.267 28.7219 338.949 29.3125C339.008 29.3936 339.124 29.5132 339.183 29.5943C339.416 29.876 339.7 30.1115 339.939 30.4781C340.061 30.6827 340.235 30.8834 340.412 31.1265C340.536 31.3735 340.661 31.6204 340.785 31.8674C340.788 31.9099 340.844 31.9485 340.847 31.9909C340.906 32.072 340.912 32.1568 340.971 32.2379C340.977 32.3227 341.036 32.4038 341.042 32.4887C341.045 32.5311 341.051 32.616 341.108 32.6546C341.114 32.7395 341.12 32.8243 341.179 32.9054C341.247 33.1137 341.262 33.3259 341.274 33.4957C340.826 33.9545 340.847 34.2515 340.815 34.5524ZM304.471 54.3171C304.783 54.2093 305.046 54.1477 305.358 54.0399C305.046 54.1477 304.733 54.2555 304.471 54.3171Z" fill="#32D989"/>
<path d="M5.63324 55.9689C5.60922 55.6294 5.63831 55.2861 5.6674 54.9427C5.6584 54.8154 5.7025 54.6843 5.69349 54.557C5.8519 53.7778 6.0454 52.7402 6.5666 51.8069C6.70192 51.456 6.94647 51.1398 7.14091 50.8699C7.23813 50.7349 7.28523 50.6462 7.38245 50.5112C7.57689 50.2413 7.77133 49.9714 8.01888 49.6976C8.1161 49.5627 8.26644 49.4239 8.36365 49.2889C8.51399 49.1501 8.61121 49.0152 8.76154 48.8764C9.01209 48.6451 9.20653 48.3751 9.45709 48.1438C9.60742 48.005 9.75775 47.8662 9.90809 47.7275C10.1586 47.4961 10.4092 47.2648 10.7129 47.0297C12.2723 45.6804 14.1564 44.393 16.3121 43.1714C18.4679 41.9498 20.5293 40.9056 22.5497 40.0349C23.2222 39.7306 23.9478 39.4224 24.6733 39.1142C25.0361 38.9601 25.452 38.8022 25.8148 38.6481C26.2307 38.4902 26.5935 38.3361 27.0094 38.1782C27.6849 37.9163 28.4104 37.6081 29.142 37.3848C33.2008 35.8981 37.5342 34.5196 42.5079 33.1376C46.8533 31.9289 51.364 30.7935 55.7805 29.8356C63.454 28.1312 71.6677 26.5158 81.0087 24.9899C97.2095 22.33 111.399 20.668 121.942 19.5247C131.637 18.485 138.692 17.8488 142.46 17.5347C142.885 17.5041 143.31 17.4735 143.629 17.4505C143.31 17.4735 142.885 17.5041 142.46 17.5347C138.692 17.8488 131.637 18.485 121.942 19.5247C111.399 20.668 97.2095 22.33 81.0087 24.9899C71.6677 26.5158 63.4009 28.135 55.7805 29.8356C51.1485 30.7664 46.6909 31.8979 42.3456 33.1067C37.4249 34.4848 33.0385 35.8671 28.9797 37.3538C28.2511 37.6195 27.5225 37.8853 26.8471 38.1472C26.4843 38.3013 26.0684 38.4592 25.6525 38.6171C25.2897 38.7712 24.8738 38.9292 24.511 39.0833C23.8385 39.3876 23.11 39.6534 22.3874 40.004C20.367 40.8746 18.3055 41.9189 16.1498 43.1405C13.9941 44.3621 12.11 45.6494 10.5505 46.9987C10.3 47.23 9.9963 47.4652 9.74574 47.6965C9.59541 47.8353 9.44508 47.9741 9.29474 48.1129C9.04419 48.3442 8.79664 48.6179 8.5992 48.8454C8.44886 48.9842 8.35164 49.1192 8.20131 49.258C8.10409 49.3929 8.00687 49.5279 7.85654 49.6667C7.6621 49.9366 7.41455 50.2103 7.22011 50.4803C7.12289 50.6152 7.07578 50.7039 6.97856 50.8389C6.89335 51.1436 6.70192 51.456 6.5666 51.8069C6.0454 52.7402 5.79879 53.7816 5.69349 54.557C5.7025 54.6843 5.6584 54.8154 5.6674 54.9427C5.63831 55.2861 5.60922 55.6294 5.63324 55.9689C5.63924 56.0538 5.64525 56.1386 5.65125 56.2235C5.66327 56.3932 5.67227 56.5206 5.68428 56.6903L5.84156 57.4041C6.22723 59.0824 7.25627 60.7997 8.87257 62.5174C9.10304 62.7567 9.33351 62.996 9.61709 63.2315C9.73232 63.3512 9.90368 63.5094 10.0189 63.6291L11.2685 64.6907L12.5682 65.7061C12.7365 65.8219 12.9049 65.9377 13.0732 66.0536C13.3538 66.2466 13.6344 66.4397 13.9681 66.6289C15.7548 67.7371 17.798 68.6989 20.2101 69.5915C24.0512 71.0636 28.5116 72.2351 34.1405 73.3225C38.4707 74.1622 43.2167 74.844 48.544 75.4412C57.0441 76.3644 66.0512 76.9099 76.9615 77.1903C85.4636 77.3882 94.1691 77.4435 103.5 77.2832C110.857 77.1371 118.37 76.9371 127.205 76.5566C140.029 75.974 150.817 75.2822 158.625 74.7198C159.953 74.6241 161.227 74.5323 162.396 74.4481C170.732 73.805 175.615 73.4105 175.668 73.4067C175.615 73.4105 170.788 73.8436 162.396 74.4481C161.227 74.5323 159.953 74.6241 158.625 74.7198C150.817 75.2822 140.029 75.974 127.205 76.5566C114.059 77.1198 96.483 77.7034 76.9645 77.2327C66.1073 76.9485 57.1002 76.403 48.547 75.4837C43.1666 74.8902 38.4737 74.2046 34.1435 73.3649C28.5146 72.2775 24.1043 71.0597 20.2131 69.6339C17.798 68.6989 15.7548 67.7371 13.9711 66.6713C13.6374 66.4821 13.3568 66.289 13.0762 66.096C12.9079 65.9802 12.7395 65.8643 12.5712 65.7485L11.2715 64.7331L9.9628 63.5905C9.84756 63.4708 9.67621 63.3125 9.56097 63.1929C9.3305 62.9536 9.04692 62.7181 8.81645 62.4788C7.20015 60.7611 6.22423 59.04 5.78544 57.3655L5.62817 56.6517C5.61616 56.4819 5.60715 56.3546 5.59514 56.1849C5.64525 56.1386 5.63924 56.0538 5.63324 55.9689Z" fill="#32D989"/>
</g>
<defs>
<clipPath id="clip0_1085_3927">
<rect width="339.37" height="63.8569" fill="white" transform="matrix(0.997415 -0.0718505 0.070579 0.997506 0 24.6406)"/>
</clipPath>
</defs>
</svg>
