<svg width="1288" height="283" viewBox="0 0 1288 283" fill="none" xmlns="http://www.w3.org/2000/svg">
<path fill-rule="evenodd" clip-rule="evenodd" d="M277.485 238.39C154.374 179.21 51.9653 75.0437 0 3.33587L0.0304633 0C51.8552 71.5139 155.661 177.535 278.381 236.526C339.73 266.016 405.963 283.971 473.173 280.506C540.366 277.043 608.599 252.169 673.976 195.895C800.116 87.3179 935.879 40.6232 1048.95 26.0136C1105.48 18.7091 1156.35 19.4241 1197.52 24.4385C1238.66 29.4497 1270.19 38.7645 1288 48.7177L1286.99 50.523C1269.51 40.7573 1238.29 31.4879 1197.27 26.4914C1156.27 21.4981 1105.58 20.782 1049.21 28.0646C936.49 42.6295 801.12 89.1827 675.326 197.462C609.613 254.025 540.946 279.084 473.28 282.572C405.632 286.059 339.051 267.984 277.485 238.39Z" fill="url(#paint0_linear_985_5048)"/>
<defs>
<linearGradient id="paint0_linear_985_5048" x1="1296.8" y1="51.1775" x2="-1.02807" y2="51.1775" gradientUnits="userSpaceOnUse">
<stop stop-color="#DAD2FF"/>
<stop offset="0.1875" stop-color="#C4B9FF"/>
<stop offset="0.791667" stop-color="#9480FF"/>
<stop offset="1" stop-color="#BDB0FF"/>
</linearGradient>
</defs>
</svg>
