<svg width="150" height="330" viewBox="0 0 150 330" fill="none" xmlns="http://www.w3.org/2000/svg">
<g clip-path="url(#clip0_985_5130)">
<ellipse opacity="0.5" cx="77.7534" cy="311.151" rx="109.167" ry="18.8491" fill="url(#paint0_radial_985_5130)"/>
<mask id="path-2-inside-1_985_5130" fill="white">
<path d="M94.9552 38.5493H84.8067L83.7991 36.3194C83.7991 36.3194 81.424 26.8241 69.0443 20.3501C69.0443 20.3501 66.3813 17.9763 57.9602 18.4798C49.5392 18.9834 48.2437 18.9834 45.6526 23.0116C43.0615 27.0399 47.0201 36.3913 47.0201 36.3913L51.3386 44.8795L32.6252 41.4986L31.8335 38.3335C31.8335 38.3335 27.2271 27.6873 31.6176 17.6886C36.008 7.76173 44.7169 5.96339 44.7169 5.96339C44.7169 5.96339 52.8501 3.80539 64.9418 5.38793C77.0335 6.97046 87.7577 18.4798 87.7577 18.4798C87.7577 18.4798 95.6749 26.4645 99.2736 38.909"/>
</mask>
<g filter="url(#filter0_i_985_5130)">
<path d="M94.9552 38.5493H84.8067L83.7991 36.3194C83.7991 36.3194 81.424 26.8241 69.0443 20.3501C69.0443 20.3501 66.3813 17.9763 57.9602 18.4798C49.5392 18.9834 48.2437 18.9834 45.6526 23.0116C43.0615 27.0399 47.0201 36.3913 47.0201 36.3913L51.3386 44.8795L32.6252 41.4986L31.8335 38.3335C31.8335 38.3335 27.2271 27.6873 31.6176 17.6886C36.008 7.76173 44.7169 5.96339 44.7169 5.96339C44.7169 5.96339 52.8501 3.80539 64.9418 5.38793C77.0335 6.97046 87.7577 18.4798 87.7577 18.4798C87.7577 18.4798 95.6749 26.4645 99.2736 38.909" fill="white"/>
</g>
<path d="M84.8067 38.5493L83.3753 39.1961L83.7929 40.1201H84.8067V38.5493ZM83.7991 36.3194L82.2753 36.7005L82.3096 36.8375L82.3677 36.9662L83.7991 36.3194ZM69.0443 20.3501L67.9991 21.5226L68.1442 21.652L68.3164 21.742L69.0443 20.3501ZM47.0201 36.3913L45.5736 37.0036L45.5951 37.0544L45.6201 37.1035L47.0201 36.3913ZM51.3386 44.8795L51.0593 46.4252L54.1736 46.9878L52.7386 44.1672L51.3386 44.8795ZM32.6252 41.4986L31.1014 41.8797L31.3476 42.8639L32.3459 43.0443L32.6252 41.4986ZM31.8335 38.3335L33.3573 37.9523L33.3261 37.8277L33.2751 37.7098L31.8335 38.3335ZM31.6176 17.6886L30.181 17.0532L30.1794 17.057L31.6176 17.6886ZM44.7169 5.96339L45.0346 7.50169L45.0775 7.49284L45.1198 7.48161L44.7169 5.96339ZM87.7577 18.4798L86.6085 19.5506L86.6251 19.5685L86.6423 19.5858L87.7577 18.4798ZM94.9552 36.9785H84.8067V40.1201H94.9552V36.9785ZM86.2382 37.9025L85.2305 35.6726L82.3677 36.9662L83.3753 39.1961L86.2382 37.9025ZM83.7991 36.3194C85.3229 35.9382 85.3227 35.9374 85.3225 35.9365C85.3224 35.9362 85.3222 35.9352 85.322 35.9346C85.3217 35.9332 85.3213 35.9317 85.3209 35.9301C85.32 35.9268 85.319 35.9229 85.3179 35.9185C85.3156 35.9096 85.3127 35.8984 85.309 35.885C85.3018 35.8581 85.292 35.8222 85.2792 35.7777C85.2536 35.6887 85.2164 35.5651 85.1657 35.4101C85.0642 35.1001 84.9084 34.6639 84.6829 34.1266C84.232 33.0523 83.5013 31.5714 82.3674 29.8858C80.0949 26.5076 76.216 22.328 69.7722 18.9582L68.3164 21.742C74.2523 24.8462 77.7508 28.6513 79.7608 31.6392C80.7681 33.1366 81.4049 34.4341 81.7862 35.3425C81.9768 35.7966 82.1033 36.1528 82.1801 36.3874C82.2184 36.5046 82.2444 36.5913 82.2596 36.6446C82.2673 36.6712 82.2723 36.6894 82.2748 36.6988C82.2761 36.7036 82.2767 36.7061 82.2768 36.7064C82.2768 36.7066 82.2767 36.7061 82.2765 36.7052C82.2763 36.7047 82.2762 36.704 82.276 36.7033C82.2759 36.7029 82.2757 36.7022 82.2757 36.702C82.2755 36.7013 82.2753 36.7005 83.7991 36.3194ZM69.0443 20.3501C70.0895 19.1776 70.0885 19.1767 70.0876 19.1758C70.0872 19.1755 70.0862 19.1746 70.0855 19.174C70.0842 19.1728 70.0828 19.1716 70.0813 19.1703C70.0784 19.1677 70.0753 19.1651 70.0721 19.1622C70.0656 19.1566 70.0583 19.1504 70.0504 19.1437C70.0345 19.1303 70.0158 19.1148 69.9941 19.0974C69.9508 19.0627 69.8956 19.0205 69.828 18.972C69.6927 18.8751 69.5077 18.7537 69.2674 18.6184C68.786 18.3473 68.0866 18.0226 67.1235 17.7253C65.1968 17.1305 62.2334 16.6508 57.8665 16.9119L58.054 20.0478C62.1082 19.8054 64.6868 20.2608 66.1968 20.727C66.9521 20.9602 67.4448 21.1974 67.7259 21.3557C67.8668 21.4351 67.9557 21.4952 67.9989 21.5262C68.0205 21.5416 68.0309 21.5499 68.0306 21.5497C68.0305 21.5496 68.0277 21.5474 68.0225 21.543C68.0198 21.5407 68.0166 21.5379 68.0127 21.5345C68.0107 21.5329 68.0086 21.531 68.0064 21.529C68.0052 21.5281 68.0041 21.527 68.0029 21.526C68.0023 21.5254 68.0013 21.5246 68.001 21.5243C68.0001 21.5235 67.9991 21.5226 69.0443 20.3501ZM57.8665 16.9119C53.779 17.1563 51.0739 17.284 49.1237 17.9337C46.9201 18.6679 45.7008 20.0332 44.3315 22.1619L46.9737 23.8614C48.1955 21.9618 48.9195 21.313 50.1167 20.9142C51.5673 20.4309 53.7205 20.3069 58.054 20.0478L57.8665 16.9119ZM44.3315 22.1619C43.4475 23.5363 43.195 25.2299 43.2024 26.809C43.2099 28.4143 43.4878 30.0872 43.8354 31.5704C44.1849 33.062 44.6172 34.4133 44.9604 35.3886C45.1325 35.8777 45.2835 36.2759 45.3924 36.5542C45.4469 36.6934 45.491 36.8029 45.522 36.8789C45.5376 36.917 45.5498 36.9467 45.5585 36.9676C45.5629 36.9781 45.5664 36.9863 45.5689 36.9924C45.5701 36.9954 45.5712 36.9978 45.572 36.9997C45.5724 37.0006 45.5727 37.0014 45.573 37.0021C45.5731 37.0024 45.5733 37.0028 45.5733 37.003C45.5735 37.0033 45.5736 37.0036 47.0201 36.3913C48.4666 35.779 48.4667 35.7792 48.4668 35.7794C48.4668 35.7794 48.4669 35.7796 48.4669 35.7796C48.4669 35.7797 48.4669 35.7797 48.4668 35.7795C48.4667 35.7791 48.4663 35.7781 48.4656 35.7766C48.4644 35.7736 48.4622 35.7684 48.4591 35.7611C48.453 35.7464 48.4434 35.7231 48.4305 35.6916C48.4049 35.6287 48.3664 35.5333 48.3177 35.409C48.2203 35.1602 48.0823 34.7963 47.9238 34.3458C47.6057 33.4418 47.2103 32.2035 46.894 30.8537C46.5758 29.4955 46.3499 28.0753 46.3439 26.7943C46.3378 25.4871 46.5622 24.5012 46.9737 23.8614L44.3315 22.1619ZM45.6201 37.1035L49.9386 45.5917L52.7386 44.1672L48.4201 35.679L45.6201 37.1035ZM51.6178 43.3337L32.9045 39.9528L32.3459 43.0443L51.0593 46.4252L51.6178 43.3337ZM34.149 41.1174L33.3573 37.9523L30.3097 38.7147L31.1014 41.8797L34.149 41.1174ZM31.8335 38.3335C33.2751 37.7098 33.2753 37.7102 33.2755 37.7106C33.2755 37.7107 33.2756 37.711 33.2757 37.7112C33.2759 37.7115 33.2759 37.7117 33.2759 37.7117C33.2759 37.7117 33.2757 37.7111 33.2751 37.7099C33.2741 37.7074 33.2719 37.7023 33.2688 37.6948C33.2625 37.6798 33.2521 37.6549 33.2381 37.6203C33.2101 37.5513 33.1674 37.444 33.1135 37.3013C33.0055 37.0157 32.8526 36.5887 32.6807 36.0423C32.3363 34.9479 31.9185 33.3833 31.6315 31.5213C31.0549 27.7795 31.0232 22.9492 33.0558 18.3201L30.1794 17.057C27.8215 22.4267 27.8978 27.9188 28.5267 31.9998C28.8425 34.0492 29.3019 35.7711 29.684 36.9853C29.8753 37.5932 30.048 38.0761 30.1748 38.4117C30.2382 38.5796 30.2903 38.7108 30.3276 38.8026C30.3462 38.8486 30.3612 38.8846 30.372 38.9105C30.3775 38.9234 30.3819 38.9338 30.3852 38.9416C30.3869 38.9455 30.3882 38.9488 30.3894 38.9514C30.3899 38.9527 30.3904 38.9538 30.3908 38.9548C30.391 38.9553 30.3913 38.9559 30.3914 38.9562C30.3917 38.9567 30.3919 38.9572 31.8335 38.3335ZM33.0541 18.3239C35.0995 13.6991 38.1341 10.9932 40.6415 9.43834C41.8992 8.65838 43.0257 8.16779 43.8271 7.87468C44.2273 7.7283 44.5447 7.63181 44.7547 7.57345C44.8597 7.54429 44.9375 7.52472 44.9853 7.51324C45.0091 7.5075 45.0254 7.50379 45.0338 7.50193C45.038 7.501 45.0402 7.50053 45.0403 7.5005C45.0404 7.50048 45.0399 7.50058 45.039 7.50078C45.0385 7.50088 45.0379 7.501 45.0372 7.50116C45.0368 7.50123 45.0362 7.50137 45.036 7.50141C45.0353 7.50155 45.0346 7.50169 44.7169 5.96339C44.3993 4.42509 44.3985 4.42525 44.3977 4.42542C44.3974 4.42549 44.3965 4.42566 44.3959 4.4258C44.3946 4.42606 44.3932 4.42635 44.3917 4.42668C44.3886 4.42732 44.385 4.42808 44.3809 4.42897C44.3726 4.43074 44.3623 4.433 44.3498 4.43578C44.325 4.44133 44.2918 4.44893 44.2508 4.45879C44.1689 4.4785 44.0553 4.50725 43.9136 4.54665C43.6301 4.62542 43.2329 4.74697 42.748 4.9243C41.7793 5.27859 40.4541 5.85801 38.9859 6.76849C36.0411 8.59454 32.526 11.7512 30.181 17.0532L33.0541 18.3239ZM44.7169 5.96339C45.1198 7.48161 45.1194 7.48171 45.119 7.48181C45.119 7.48182 45.1187 7.48191 45.1185 7.48195C45.1182 7.48203 45.118 7.48207 45.118 7.48209C45.1179 7.48211 45.1183 7.48201 45.1191 7.48178C45.1209 7.48132 45.1246 7.48036 45.1303 7.47891C45.1416 7.47602 45.1606 7.47119 45.1873 7.4646C45.2408 7.45143 45.3247 7.43123 45.4382 7.40544C45.6651 7.35386 46.0101 7.27991 46.4649 7.19502C47.3746 7.02521 48.7232 6.81175 50.4457 6.64572C53.8916 6.31356 58.8273 6.17183 64.7379 6.9454L65.1456 3.83045C58.9645 3.02148 53.7878 3.16749 50.1442 3.5187C48.322 3.69435 46.8815 3.92149 45.8885 4.10684C45.3919 4.19954 45.0069 4.28182 44.7419 4.34207C44.6093 4.3722 44.5067 4.39682 44.4351 4.41449C44.3993 4.42332 44.3712 4.43041 44.351 4.43559C44.3409 4.43818 44.3328 4.44028 44.3266 4.44189C44.3235 4.44269 44.3209 4.44337 44.3189 4.44392C44.3178 4.44419 44.3169 4.44443 44.3161 4.44464C44.3157 4.44475 44.3152 4.44488 44.315 4.44493C44.3145 4.44506 44.3141 4.44517 44.7169 5.96339ZM64.7379 6.9454C70.3969 7.68602 75.8443 10.7787 79.9551 13.7939C81.9935 15.289 83.666 16.7373 84.827 17.8104C85.407 18.3463 85.8577 18.7871 86.1609 19.0912C86.3125 19.2433 86.4272 19.3611 86.5025 19.4394C86.5402 19.4786 86.5681 19.5078 86.5859 19.5266C86.5947 19.536 86.6011 19.5427 86.6049 19.5468C86.6068 19.5488 86.608 19.5501 86.6086 19.5508C86.6089 19.5511 86.6091 19.5512 86.6091 19.5512C86.609 19.5512 86.6089 19.5511 86.6089 19.5511C86.6087 19.5509 86.6085 19.5506 87.7577 18.4798C88.9069 17.409 88.9066 17.4087 88.9063 17.4083C88.9061 17.4082 88.9057 17.4078 88.9054 17.4074C88.9047 17.4067 88.9039 17.4058 88.9029 17.4047C88.9009 17.4026 88.8982 17.3997 88.8949 17.3962C88.8883 17.3892 88.8791 17.3794 88.8673 17.3669C88.8437 17.342 88.8099 17.3065 88.7661 17.261C88.6785 17.1699 88.5509 17.0389 88.3856 16.8732C88.0552 16.5417 87.5736 16.071 86.9592 15.5032C85.7316 14.3687 83.9673 12.8408 81.8132 11.2608C77.5389 8.12566 71.5784 4.67237 65.1456 3.83045L64.7379 6.9454ZM87.7577 18.4798C86.6423 19.5858 86.6421 19.5855 86.6418 19.5853C86.6418 19.5853 86.6416 19.585 86.6415 19.585C86.6413 19.5848 86.6413 19.5848 86.6414 19.5848C86.6415 19.585 86.6422 19.5857 86.6433 19.5868C86.6455 19.589 86.6496 19.5932 86.6555 19.5993C86.6673 19.6114 86.6865 19.6312 86.7126 19.6585C86.7648 19.7131 86.8448 19.7977 86.9497 19.9115C87.1593 20.1391 87.4681 20.4832 87.8522 20.9369C88.6209 21.8447 89.6895 23.1889 90.8696 24.9144C93.2335 28.3707 96.0242 33.3264 97.7647 39.3453L100.783 38.4726C98.9244 32.047 95.9571 26.7881 93.4627 23.141C92.2137 21.3148 91.078 19.885 90.2498 18.9069C89.8355 18.4176 89.4976 18.0407 89.2602 17.783C89.1415 17.6541 89.0479 17.5551 88.9824 17.4866C88.9496 17.4524 88.9239 17.4258 88.9056 17.407C88.8964 17.3975 88.8891 17.3901 88.8836 17.3846C88.8809 17.3818 88.8787 17.3795 88.8769 17.3777C88.8761 17.3768 88.8753 17.3761 88.8747 17.3754C88.8743 17.3751 88.8739 17.3747 88.8738 17.3746C88.8734 17.3742 88.8731 17.3739 87.7577 18.4798Z" fill="url(#paint1_linear_985_5130)" mask="url(#path-2-inside-1_985_5130)"/>
<path d="M132.527 99.1893C131.159 100.34 129.432 100.988 127.704 101.132L63.6471 107.102C56.3776 107.677 49.2521 103.361 45.4375 97.319C44.8617 96.312 44.2859 95.3049 43.926 94.2259L26.0763 46.1023C25.0687 43.4408 24.9967 40.4196 26.3642 37.9738C23.4852 42.9372 20.6063 47.8287 17.7993 52.7921C16.3598 55.2379 16.4317 58.1872 17.3674 60.8487L34.1375 108.037C34.3534 108.613 34.5693 109.188 34.8572 109.764C36.3687 112.785 38.7439 115.374 41.5509 117.245C44.5738 119.259 48.1725 120.554 51.8432 120.482C52.2751 120.482 52.7069 120.482 53.1388 120.41L115.973 113.648C117.772 113.432 119.427 112.785 120.795 111.634C124.25 108.037 130.871 101.06 132.527 99.1893Z" fill="url(#paint2_linear_985_5130)"/>
<path d="M112.883 45.0607L112.883 45.0607L112.887 45.0696L132.965 87.7915C132.966 87.7925 132.966 87.7935 132.967 87.7945C133.723 89.4439 134.129 91.011 134.264 92.4987C134.398 93.9689 134.194 95.263 133.688 96.337L133.68 96.3545L133.673 96.3724C133.228 97.4522 132.461 98.4149 131.497 99.1243C130.466 99.8305 129.232 100.289 127.709 100.421L127.704 100.421L63.6469 106.392L63.6469 106.392L63.6331 106.393C61.8215 106.595 59.8401 106.329 57.9524 105.841C56.0122 105.286 54.1498 104.457 52.4294 103.287L52.4204 103.281L52.4111 103.275C50.6765 102.166 49.0836 100.78 47.771 99.1925C46.4523 97.5971 45.4206 95.8744 44.7352 94.0249L44.7351 94.0247L26.8855 45.9011L26.8844 45.8983C26.2747 44.2734 26.0796 42.7386 26.2112 41.3573C26.3406 39.9996 26.8586 38.7673 27.5715 37.7944C28.3423 36.7686 29.3807 35.9813 30.6527 35.378C31.9632 34.7901 33.4999 34.5151 35.2899 34.5151L35.2917 34.5151L96.9001 34.3712C96.9004 34.3712 96.9007 34.3712 96.901 34.3712C98.3894 34.3714 99.9575 34.642 101.536 35.1909C103.127 35.7438 104.651 36.5049 106.109 37.4765C107.557 38.441 108.877 39.619 110.069 40.8793C111.25 42.1996 112.205 43.5701 112.883 45.0607Z" fill="#EDF0F6" stroke="url(#paint3_linear_985_5130)" stroke-width="1.57075"/>
<path d="M105.391 40.8512L100.497 47.2532C100.425 47.1094 100.353 47.0374 100.281 46.9655C100.209 46.8936 100.065 46.7497 99.9932 46.6778C99.9212 46.6058 99.7773 46.5339 99.6333 46.5339C99.4894 46.462 99.4174 46.462 99.2734 46.462L104.168 40.0599C104.312 40.0599 104.452 39.988 104.596 40.0599C104.74 40.1318 104.913 40.1889 105.057 40.2609C105.201 40.3328 105.356 40.4879 105.428 40.6317C105.572 40.7037 105.391 40.7792 105.391 40.8512Z" fill="#BBAFFE"/>
<path d="M124.035 83.1481L118.637 89.1905L124.035 83.1481Z" fill="#483C87"/>
<g filter="url(#filter1_d_985_5130)">
<path d="M125.108 83.6519L118.706 88.3993L100.496 47.2533L105.39 40.8512L125.108 83.6519Z" fill="#BBAFFE"/>
<path d="M91.3563 62.9348L85.8143 69.2649C90.3487 62.8628 80.5601 54.9501 74.2983 56.5327C73.0748 56.8204 71.9951 57.4678 71.2754 58.4749L75.9537 51.857C76.3856 51.2096 77.0334 50.7061 77.7531 50.3464C84.0869 47.3252 96.8264 56.1011 92.0761 62.8628" fill="url(#paint4_linear_985_5130)"/>
<path d="M95.5325 73.0055L90.4223 79.3356L84.7363 70.4159L89.6306 64.0138L95.5325 73.0055Z" fill="#8673F4"/>
<path d="M104.237 40.0599L99.3429 46.462L42.627 48.1165L46.0097 41.0026L104.237 40.0599Z" fill="url(#paint5_linear_985_5130)"/>
<path d="M98.5528 80.2708C93.5866 80.6304 83.7261 81.3498 78.8318 81.7094C78.256 78.4724 76.8885 70.7036 76.3127 67.5385C70.0509 63.3664 64.221 54.4466 68.8274 47.2533L64.221 53.9431C63.7172 54.5905 63.3573 55.3818 63.0694 56.173C60.8382 63.1506 65.9484 70.3439 71.4185 74.0845C71.9943 77.2496 73.2898 85.1623 73.7936 88.1115C74.0095 88.1115 83.1503 87.3922 83.0063 87.3922C87.9726 86.9606 97.5452 86.2413 102.152 85.8816C102.224 85.7377 107.542 79.4726 107.398 79.6164C107.254 79.5445 98.5528 80.2708 98.5528 80.2708Z" fill="url(#paint6_linear_985_5130)"/>
<g filter="url(#filter2_i_985_5130)">
<path d="M77.6083 43.0092C88.2605 42.5056 103.375 55.0221 98.6249 66.3157C100.568 69.2649 105.39 76.6022 107.406 79.6234L98.6249 80.2708C93.7306 80.6304 83.7981 81.3498 78.9038 81.7094L77.3204 72.5739L76.4567 67.5385C74.7293 66.3157 73.1459 64.9489 71.7784 63.3664C64.7249 55.8134 65.5166 43.4408 77.6083 43.0092ZM89.628 64.0138C95.458 59.41 89.1242 51.7851 83.7261 50.2745C78.328 48.4042 73.2179 51.857 75.665 57.6836C77.0325 60.8487 80.1994 63.0067 83.2943 64.3015L85.0217 73.6529L95.458 73.0055L89.628 64.0138Z" fill="url(#paint7_linear_985_5130)"/>
</g>
<path d="M130.001 89.0492C129.785 89.1931 129.6 89.4714 129.312 89.6153C129.025 89.7592 128.744 89.8423 128.384 89.9862C128.024 90.0581 127.713 90.1924 127.353 90.2643L68.4583 95.6804C67.2347 95.8242 65.9392 95.6804 64.7156 95.3207C63.4921 94.961 62.2685 94.3856 61.1169 93.6662C59.9653 92.9469 58.9577 92.0117 58.094 91.0047C57.2303 89.9976 56.5825 88.8467 56.0787 87.6238L39.1647 42.1618C38.9487 41.6582 38.8768 41.1547 38.7328 40.6512C38.6609 40.1476 38.6609 39.716 38.6609 39.2844C38.6609 38.8528 38.7328 38.4212 38.8768 37.9896C39.0207 37.558 38.9487 36.9928 39.1647 36.6332L35.2061 43.8163C34.9901 44.1759 34.8462 44.5356 34.7023 44.9672C34.5583 45.3988 34.4863 45.7585 34.4863 46.262C34.4863 46.6936 34.4863 47.1971 34.5583 47.6287C34.6303 48.1323 34.7742 48.5639 34.9182 49.0674L51.4003 94.0259C51.8322 95.2488 52.48 96.3278 53.3436 97.3348C54.2073 98.3419 55.215 99.2051 56.2946 99.9244C57.3742 100.644 58.5978 101.219 59.8214 101.507C61.0449 101.867 62.2685 102.011 63.4921 101.867L121.863 96.2558C122.223 96.2558 122.583 96.1839 122.943 96.04C123.303 95.9681 123.591 95.8242 123.879 95.6804C124.167 95.5365 124.454 95.3926 124.67 95.1768C124.886 94.961 125.174 94.8172 125.318 94.6014L130.632 88.5271C130.392 88.6868 130.197 88.8052 130.001 89.0492Z" fill="url(#paint8_linear_985_5130)"/>
<g filter="url(#filter3_i_985_5130)">
<path d="M101.287 33.6578C102.295 33.6578 103.374 33.8017 104.454 34.1614C105.533 34.521 106.541 35.0246 107.477 35.672C108.412 36.3194 109.348 37.1106 110.068 37.9019C110.86 38.7651 111.435 39.7002 111.939 40.7073L130.725 81.7814C131.228 82.8604 131.516 83.9394 131.588 84.9464C131.66 85.9535 131.516 86.8167 131.156 87.608C130.797 88.3993 130.293 89.0467 129.573 89.5502C128.853 90.0537 127.99 90.3415 126.91 90.4853L67.9628 95.7365C66.7392 95.8803 65.4437 95.7365 64.2201 95.3768C62.9965 95.0171 61.773 94.4417 60.6214 93.7223C59.4698 93.003 58.4621 92.0679 57.5984 91.0608C56.7347 90.0537 56.087 88.9028 55.5832 87.6799L38.5972 42.2898C38.1653 41.2108 38.0214 40.1318 38.1653 39.1967C38.2373 38.2616 38.5972 37.3984 39.101 36.679C39.6048 35.9597 40.3245 35.3842 41.1882 34.9526C42.0519 34.521 43.1316 34.3052 44.2831 34.3052L101.287 33.6578ZM124.103 82.3568L105.39 40.8512C105.318 40.7073 105.246 40.6354 105.174 40.5634C105.102 40.4915 104.958 40.3476 104.886 40.2757C104.814 40.2038 104.67 40.1318 104.526 40.1318C104.382 40.0599 104.31 40.0599 104.166 40.0599L46.9462 41.2108C46.8023 41.2108 46.7303 41.2108 46.5863 41.2828C46.5144 41.3547 46.4424 41.4266 46.3704 41.4986C46.2984 41.5705 46.2984 41.6424 46.2984 41.7863C46.2984 41.8582 46.2984 42.0021 46.3704 42.146L63.5723 87.1045C63.6443 87.2483 63.7163 87.3922 63.7883 87.4641C63.8602 87.608 64.0042 87.6799 64.1481 87.7519C64.2921 87.8238 64.436 87.8957 64.508 87.9677C64.6519 88.0396 64.7959 88.0396 64.9398 88.0396L123.671 83.4358C123.815 83.4358 123.887 83.3639 123.959 83.3639C124.031 83.292 124.103 83.22 124.175 83.1481C124.247 83.0762 124.247 82.9323 124.247 82.8604C124.175 82.5726 124.175 82.5007 124.103 82.3568Z" fill="url(#paint9_linear_985_5130)"/>
</g>
</g>
</g>
<defs>
<filter id="filter0_i_985_5130" x="27.3646" y="0.0957417" width="71.9089" height="44.7837" filterUnits="userSpaceOnUse" color-interpolation-filters="sRGB">
<feFlood flood-opacity="0" result="BackgroundImageFix"/>
<feBlend mode="normal" in="SourceGraphic" in2="BackgroundImageFix" result="shape"/>
<feColorMatrix in="SourceAlpha" type="matrix" values="0 0 0 0 0 0 0 0 0 0 0 0 0 0 0 0 0 0 127 0" result="hardAlpha"/>
<feOffset dx="-2.35613" dy="-4.71226"/>
<feGaussianBlur stdDeviation="2.74882"/>
<feComposite in2="hardAlpha" operator="arithmetic" k2="-1" k3="1"/>
<feColorMatrix type="matrix" values="0 0 0 0 0.749913 0 0 0 0 0.795505 0 0 0 0 0.891753 0 0 0 0.79 0"/>
<feBlend mode="normal" in2="shape" result="effect1_innerShadow_985_5130"/>
</filter>
<filter id="filter1_d_985_5130" x="34.4863" y="33.6578" width="98.6899" height="70.6201" filterUnits="userSpaceOnUse" color-interpolation-filters="sRGB">
<feFlood flood-opacity="0" result="BackgroundImageFix"/>
<feColorMatrix in="SourceAlpha" type="matrix" values="0 0 0 0 0 0 0 0 0 0 0 0 0 0 0 0 0 0 127 0" result="hardAlpha"/>
<feOffset dx="0.785377" dy="1.57075"/>
<feGaussianBlur stdDeviation="0.392689"/>
<feColorMatrix type="matrix" values="0 0 0 0 0.56849 0 0 0 0 0.635938 0 0 0 0 0.770833 0 0 0 0.26 0"/>
<feBlend mode="normal" in2="BackgroundImageFix" result="effect1_dropShadow_985_5130"/>
<feBlend mode="normal" in="SourceGraphic" in2="effect1_dropShadow_985_5130" result="shape"/>
</filter>
<filter id="filter2_i_985_5130" x="67.2969" y="42.9945" width="40.5021" height="38.715" filterUnits="userSpaceOnUse" color-interpolation-filters="sRGB">
<feFlood flood-opacity="0" result="BackgroundImageFix"/>
<feBlend mode="normal" in="SourceGraphic" in2="BackgroundImageFix" result="shape"/>
<feColorMatrix in="SourceAlpha" type="matrix" values="0 0 0 0 0 0 0 0 0 0 0 0 0 0 0 0 0 0 127 0" result="hardAlpha"/>
<feOffset dx="0.392689"/>
<feGaussianBlur stdDeviation="0.392689"/>
<feComposite in2="hardAlpha" operator="arithmetic" k2="-1" k3="1"/>
<feColorMatrix type="matrix" values="0 0 0 0 1 0 0 0 0 1 0 0 0 0 1 0 0 0 1 0"/>
<feBlend mode="normal" in2="shape" result="effect1_innerShadow_985_5130"/>
</filter>
<filter id="filter3_i_985_5130" x="38.1113" y="33.6578" width="93.8868" height="62.1338" filterUnits="userSpaceOnUse" color-interpolation-filters="sRGB">
<feFlood flood-opacity="0" result="BackgroundImageFix"/>
<feBlend mode="normal" in="SourceGraphic" in2="BackgroundImageFix" result="shape"/>
<feColorMatrix in="SourceAlpha" type="matrix" values="0 0 0 0 0 0 0 0 0 0 0 0 0 0 0 0 0 0 127 0" result="hardAlpha"/>
<feOffset dx="0.392689"/>
<feGaussianBlur stdDeviation="0.392689"/>
<feComposite in2="hardAlpha" operator="arithmetic" k2="-1" k3="1"/>
<feColorMatrix type="matrix" values="0 0 0 0 1 0 0 0 0 1 0 0 0 0 1 0 0 0 1 0"/>
<feBlend mode="normal" in2="shape" result="effect1_innerShadow_985_5130"/>
</filter>
<radialGradient id="paint0_radial_985_5130" cx="0" cy="0" r="1" gradientUnits="userSpaceOnUse" gradientTransform="translate(77.7534 311.151) rotate(90) scale(25.9797 150.466)">
<stop stop-color="#D8E2EE"/>
<stop offset="0.148052" stop-color="#E7EDF5" stop-opacity="0.869792"/>
<stop offset="1" stop-color="white" stop-opacity="0"/>
</radialGradient>
<linearGradient id="paint1_linear_985_5130" x1="37.0078" y1="14.3568" x2="42.7215" y2="22.8023" gradientUnits="userSpaceOnUse">
<stop stop-color="white"/>
<stop offset="1" stop-color="white" stop-opacity="0"/>
</linearGradient>
<linearGradient id="paint2_linear_985_5130" x1="16.6875" y1="36.1294" x2="74.5046" y2="120.555" gradientUnits="userSpaceOnUse">
<stop stop-color="white"/>
<stop offset="0.712492" stop-color="#F4F7FB"/>
<stop offset="0.827246" stop-color="#E2E8F4"/>
<stop offset="1" stop-color="#D2DCEE"/>
</linearGradient>
<linearGradient id="paint3_linear_985_5130" x1="70.0638" y1="38.641" x2="137.699" y2="86.6868" gradientUnits="userSpaceOnUse">
<stop stop-color="white"/>
<stop offset="1" stop-color="white" stop-opacity="0"/>
</linearGradient>
<linearGradient id="paint4_linear_985_5130" x1="72.7813" y1="70.4327" x2="94.7887" y2="61.2163" gradientUnits="userSpaceOnUse">
<stop stop-color="#6A61CC"/>
<stop offset="0.498015" stop-color="#7F6CF2"/>
<stop offset="1" stop-color="#BBAFFE"/>
</linearGradient>
<linearGradient id="paint5_linear_985_5130" x1="47.4655" y1="45.8111" x2="63.8529" y2="18.4336" gradientUnits="userSpaceOnUse">
<stop stop-color="#6A61CC"/>
<stop offset="0.460989" stop-color="#7F6CF2"/>
<stop offset="1" stop-color="#BBAFFE"/>
</linearGradient>
<linearGradient id="paint6_linear_985_5130" x1="89.4587" y1="92.9235" x2="74.7061" y2="82.982" gradientUnits="userSpaceOnUse">
<stop stop-color="#6A61CC"/>
<stop offset="0.832618" stop-color="#7F6CF2"/>
<stop offset="0.864792" stop-color="#BBAFFE"/>
</linearGradient>
<linearGradient id="paint7_linear_985_5130" x1="-21.9453" y1="1.32016" x2="101.233" y2="83.7938" gradientUnits="userSpaceOnUse">
<stop stop-color="#D4CCFF"/>
<stop offset="1" stop-color="#9783FF"/>
</linearGradient>
<linearGradient id="paint8_linear_985_5130" x1="110.45" y1="97.2458" x2="55.5785" y2="102.917" gradientUnits="userSpaceOnUse">
<stop stop-color="#6A61CC"/>
<stop offset="0.783523" stop-color="#7F6CF2"/>
<stop offset="1" stop-color="#BBAFFE"/>
</linearGradient>
<linearGradient id="paint9_linear_985_5130" x1="-17.4892" y1="8.36659" x2="40.8886" y2="86.9286" gradientUnits="userSpaceOnUse">
<stop stop-color="#D4CCFF"/>
<stop offset="1" stop-color="#9783FF"/>
</linearGradient>
<clipPath id="clip0_985_5130">
<rect width="150" height="330" fill="white"/>
</clipPath>
</defs>
</svg>
