<svg width="430" height="320" viewBox="0 0 430 320" fill="none" xmlns="http://www.w3.org/2000/svg">
<g clip-path="url(#clip0_985_5068)">
<circle opacity="0.3" cx="96.1387" cy="177" r="13" fill="#8770FF"/>
<circle opacity="0.3" cx="42.1387" cy="195" r="4" fill="#8770FF"/>
<ellipse cx="210.296" cy="281.755" rx="219.296" ry="37.9768" fill="url(#paint0_radial_985_5068)"/>
<g clip-path="url(#clip1_985_5068)">
<path d="M387.894 184.69L386.062 175.332C387.235 181.259 382.472 186.59 376.903 188.003L210.415 233.042C208.888 233.515 207.276 233.645 205.693 233.425C204.111 233.204 202.596 232.638 201.255 231.767C200.471 231.219 199.781 230.547 199.213 229.776L205.029 237.767C205.588 238.532 206.268 239.198 207.044 239.74C208.356 240.598 209.839 241.158 211.389 241.382C212.94 241.605 214.52 241.486 216.02 241.034L378.927 197.159C384.432 195.792 389.057 190.498 387.894 184.69Z" fill="url(#paint1_linear_985_5068)"/>
<g filter="url(#filter0_i_985_5068)">
<path d="M320.62 7.5964C321.892 7.21489 323.212 7.01415 324.54 7.00003C325.737 6.98271 326.93 7.15297 328.075 7.50465C329.083 7.81531 330.018 8.32715 330.823 9.00933C331.573 9.63528 332.135 10.4581 332.444 11.3856L385.733 174.24C386.187 175.624 386.309 177.095 386.09 178.534C385.867 179.972 385.339 181.345 384.542 182.562C383.7 183.859 382.618 184.983 381.355 185.874C379.989 186.849 378.46 187.57 376.839 188.003L210.415 233.042C208.899 233.464 207.317 233.595 205.753 233.428C204.353 233.273 203.001 232.823 201.787 232.106C200.636 231.424 199.661 230.481 198.938 229.354C198.194 228.171 197.739 226.829 197.61 225.436L180.693 56.4161C180.606 55.4117 180.764 54.4013 181.151 53.4709C181.58 52.4576 182.182 51.5263 182.928 50.7185C183.741 49.7775 184.685 48.9586 185.731 48.2871C186.839 47.5881 188.038 47.0448 189.294 46.6723L320.62 7.5964Z" fill="#5A6D90"/>
</g>
<path d="M226.82 42.0482L228.651 46.1861C228.647 46.2196 228.647 46.2535 228.651 46.287V46.3787V46.4705C228.649 46.501 228.649 46.5317 228.651 46.5622L226.82 42.4244V42.3326V42.2409C226.82 42.2409 226.82 42.1766 226.82 42.1399C226.815 42.1095 226.815 42.0786 226.82 42.0482Z" fill="#858585"/>
<g filter="url(#filter1_d_985_5068)">
<path d="M373.696 169.075L374.997 176.699L206.713 220.041L202.354 213.353L373.696 169.075Z" fill="#DCE3F1"/>
<path d="M184.701 49.2948L323.348 10.8146L372.718 168.531L203.021 212.384L184.701 49.2948Z" fill="white" stroke="url(#paint2_linear_985_5068)" stroke-width="1.54253"/>
<path d="M338.287 146.459C345.835 144.55 348.72 153.193 340.935 155.542L218.42 188.36C217.684 188.564 216.919 188.642 216.157 188.59C210.955 188.122 211.074 182.351 215.04 179.984C215.702 179.567 216.425 179.257 217.183 179.066L338.287 146.459Z" fill="#E6EDF6"/>
<path d="M330.136 120.695C337.702 118.796 340.514 127.448 332.747 129.788L216.424 160.937C215.695 161.129 214.94 161.197 214.189 161.138C208.986 160.68 209.06 154.918 213.035 152.551C213.697 152.134 214.42 151.824 215.178 151.633L330.136 120.695Z" fill="#E6EDF6"/>
<path d="M322.864 97.3178C330.439 95.4186 333.205 104.089 325.456 106.41L212.714 136.605C211.975 136.809 211.207 136.886 210.443 136.834C205.24 136.375 205.286 130.623 209.27 128.246C209.932 127.83 210.655 127.52 211.414 127.329L322.864 97.3178Z" fill="#E6EDF6"/>
<path d="M273.009 51.3805C278.779 49.729 283.084 55.6743 277.588 59.5461C276.918 59.9658 276.185 60.2756 275.418 60.4636L194.624 82.1531C186.628 83.878 186.069 74.8132 193.149 72.8589L273.009 51.3805Z" fill="#E6EDF6"/>
<path d="M277.589 71.5653C284.99 69.4 287.536 78.8502 279.989 80.6943L199.204 102.338C196.63 103.099 193.232 102.109 192.792 99.1909C187.077 90.7684 275.006 74.3086 277.589 71.5653Z" fill="#E6EDF6"/>
</g>
<g filter="url(#filter2_d_985_5068)">
<path d="M281.226 21.9421C281.638 21.8878 282.056 21.9442 282.44 22.1054C282.823 22.2666 283.156 22.5269 283.406 22.8596C283.506 23.0614 283.635 23.4101 283.488 22.9788C283.222 22.1898 282.883 20.8686 282.627 20.0979C282.453 19.6575 282.352 19.0245 282.142 18.6116C281.831 18.1691 281.385 17.8401 280.871 17.6746C280.357 17.509 279.803 17.5158 279.293 17.6941L227.433 31.6858C226.821 31.7997 226.269 32.13 225.879 32.6166C225.489 33.1032 225.287 33.7138 225.308 34.3374L226.819 43.0811L228.651 47.2189L227.131 38.512C227.094 38.2273 227.117 37.938 227.199 37.663C227.282 37.3879 227.42 37.1333 227.607 36.9155C228.026 36.4022 228.597 36.0359 229.238 35.8696L280.658 22.043C280.843 21.9895 281.033 21.9557 281.226 21.9421Z" fill="#CED7EA"/>
<g filter="url(#filter3_i_985_5068)">
<path d="M277.297 9.5009C283.214 7.79437 291.091 9.6844 292.868 16.1527L295.112 24.7588C296.751 31.5115 290.688 37.411 284.459 38.9891L231.226 53.201C225.244 54.9626 217.367 52.6505 216.268 45.9069L214.867 37.1541C214.153 32.4198 217.239 28.0342 221.141 25.5203C221.517 23.7495 274.915 10.4551 277.297 9.5009ZM284.423 27.6305L282.289 19.0428C282.212 18.7731 282.075 18.5245 281.887 18.3161C281.7 18.1078 281.468 17.9452 281.208 17.8409C280.597 17.5991 279.924 17.5668 279.293 17.7491L227.434 31.6858C226.822 31.8015 226.272 32.1322 225.882 32.6184C225.492 33.1046 225.289 33.7142 225.309 34.3374L226.82 43.0811C226.916 43.4971 227.149 43.8688 227.481 44.1366C227.813 44.4044 228.225 44.5528 228.652 44.5582C228.988 44.5831 229.326 44.5489 229.65 44.4573L282.353 30.3463C283.543 30.0435 284.688 28.9242 284.395 27.5938" fill="#E9EFF3"/>
</g>
<path d="M296.347 29.1352L294.103 20.5567L292.894 16.1986L295.138 24.8046C295.499 26.2441 295.499 27.7508 295.138 29.1902C293.892 34.1447 289.376 37.7229 284.458 39.0349L231.224 53.201C227.13 54.2928 222.34 53.8524 219.061 50.9715C218.168 50.1766 217.445 49.2091 216.936 48.1273C217.21 48.7328 218.914 52.5129 219.216 52.99C221.964 57.5774 228.137 58.6509 233.001 57.3022L285.795 43.237C292.042 41.6773 297.977 35.7962 296.347 29.1352Z" fill="#CED7EA"/>
</g>
<g filter="url(#filter4_d_985_5068)">
<path d="M213.697 128.357L207.258 124.044L196.881 117.09L199.83 124.393L210.079 131.32L216.436 135.623L213.697 128.357Z" fill="#BBAFFE"/>
<path d="M240.806 108.383C241.804 109.76 242.571 111.291 243.078 112.915C241.924 109.649 240.513 102.96 238.269 100.291C224.53 82.4453 188.644 96.2719 191.648 119.072C192.189 122.228 195.083 127.916 195.935 130.219C192.161 121.439 197.336 111.548 204.618 106.364C215.05 98.5748 232.16 97.1894 240.806 108.383Z" fill="url(#paint3_linear_985_5068)"/>
<path d="M251.322 102.346C251.404 102.538 253.832 111.154 253.813 111.071C255.847 119.099 253.419 127.237 248.473 133.917C236.713 149.982 210.38 156.707 193.765 144.422C191.256 142.547 189.131 140.204 187.509 137.522L184.191 129.913C187.58 135.528 193.005 139.302 199.37 141.348C215.665 146.587 235.889 139.66 246.01 126.026C251.166 119.127 253.676 110.612 251.322 102.346Z" fill="url(#paint4_linear_985_5068)"/>
<path d="M237.084 104.805L213.691 128.357L216.439 135.623L222.484 129.494L239.456 112.31L237.084 104.805Z" fill="#6A61CC"/>
<g filter="url(#filter5_i_985_5068)">
<path d="M237.127 104.805L219.852 122.173L213.697 128.357L207.258 124.044L196.881 117.09L202.99 111.08L213.395 117.916L230.624 100.731L237.127 104.805Z" fill="url(#paint5_linear_985_5068)"/>
</g>
<g filter="url(#filter6_i_985_5068)">
<path d="M210.524 85.317C222.862 81.9407 237.141 83.7206 246.026 93.0331C254.818 102.144 253.609 116.337 246.026 126.063C233.01 143.871 201.017 150.514 185.794 132.311C177.944 122.723 180.207 108.768 187.965 99.6482C193.822 92.6466 201.704 87.6391 210.524 85.317ZM220.416 132.623C234.86 129.237 248.544 112.135 237.123 98.8317C226.223 87.4364 205.459 91.7853 196.291 103.419C190.877 109.842 189.412 119.686 194.99 126.292C200.98 133.494 211.477 135.017 220.416 132.604" fill="url(#paint6_linear_985_5068)"/>
</g>
<path d="M258.584 77.6468C258.816 77.678 259.036 77.7723 259.218 77.9195C259.401 78.0667 259.539 78.2611 259.619 78.4817L259.207 76.9037L259.152 76.6926C258.896 75.5366 258.09 72.6557 257.833 71.5455C257.742 71.1235 257.549 70.5179 257.458 70.1142C257.381 69.8974 257.247 69.7058 257.069 69.5602C256.892 69.4147 256.677 69.3207 256.45 69.2885C256.32 69.2699 256.187 69.2699 256.056 69.2885C255.745 69.2885 255.864 69.2885 255.827 69.2885C254.737 69.3986 210.287 73.2337 210.113 73.2612C209.587 73.3168 209.066 73.4182 208.556 73.564C208.035 73.7118 207.526 73.9021 207.036 74.1328L164.802 94.1617C164.673 94.226 164.55 94.3028 164.436 94.391C164.171 94.5536 163.967 94.7986 163.854 95.0886C163.742 95.3786 163.727 95.6976 163.813 95.9966C164.005 96.8499 164.216 97.7307 164.436 98.5748C165.577 102.928 166.953 107.216 168.558 111.42C170.499 116.925 174.429 125.017 176.517 129.623C175.229 126.809 174.007 123.965 172.853 121.09C170.913 116.232 169.274 111.259 167.944 106.199C167.685 105.294 167.477 104.375 167.321 103.447C167.321 102.722 168.475 101.997 168.402 102.098L210.068 82.2343C210.561 82.0036 211.077 81.8223 211.606 81.693C212.096 81.5684 212.596 81.4825 213.099 81.4361C214.015 81.3627 257.98 77.6468 258.062 77.656C258.236 77.6438 258.41 77.6407 258.584 77.6468Z" fill="url(#paint7_linear_985_5068)"/>
<path d="M272.406 106.217C272.509 96.9746 271.783 87.7411 270.235 78.6285C269.896 76.3899 268.229 69.8573 267.743 67.6187C267.743 67.6829 267.743 67.7471 267.743 67.8113C270.033 79.1056 270.546 90.6935 270.281 102.236C270.205 108.342 269.74 114.437 268.888 120.484C267.249 129.328 264.193 137.849 259.839 145.715C255.27 154.069 249.826 161.912 243.6 169.111C241.56 171.509 239.447 173.843 237.261 176.112C235.732 177.754 234.147 179.387 232.013 180.186C229.852 181.081 227.456 181.236 225.199 180.626C223.504 180.121 220.079 179.048 215.655 177.277C198.774 170.534 179.933 158.661 170.609 141.495C168.991 138.535 167.446 135.54 165.975 132.513L169.638 140.155C173.98 149.523 179.659 158.799 187.38 165.506C196.347 173.837 208.446 180.525 218.723 184.654C223.074 186.415 226.453 187.498 228.12 187.993C228.977 188.245 229.865 188.374 230.758 188.379C234.523 188.443 237.628 186.351 239.982 183.553C242.629 180.8 245.184 177.901 247.621 174.928C258.08 162.129 266.992 147.45 270.464 131.109C272.195 122.98 272.268 114.521 272.406 106.217Z" fill="url(#paint8_linear_985_5068)"/>
<g filter="url(#filter7_i_985_5068)">
<path d="M256.221 61.3155C257.594 61.1848 258.978 61.2466 260.334 61.499C261.555 61.7291 262.733 62.1501 263.823 62.7468C264.812 63.296 265.686 64.0312 266.397 64.912C267.081 65.768 267.552 66.7743 267.771 67.848C268.147 69.683 268.568 71.9584 268.962 74.7842C269.356 77.6101 269.722 81.0048 269.988 84.8766C270.253 88.7484 270.409 93.2625 270.372 98.2537C270.336 103.245 270.116 108.887 269.621 115.025C269.03 121.571 267.535 128.003 265.179 134.137C262.838 140.241 259.918 146.106 256.459 151.652C253.235 156.849 249.671 161.827 245.789 166.552C242.125 170.974 238.663 174.809 235.668 177.8C235.322 178.13 234.955 178.436 234.569 178.718C234.18 179.012 233.773 179.282 233.351 179.525C232.924 179.762 232.483 179.973 232.032 180.158C231.582 180.342 231.119 180.496 230.649 180.617C229.751 180.852 228.828 180.972 227.901 180.975C227.444 180.976 226.988 180.946 226.536 180.883C226.09 180.821 225.649 180.726 225.217 180.598C223.523 180.094 220.097 179.02 215.673 177.25C210.401 175.143 205.28 172.672 200.35 169.855C194.446 166.513 188.919 162.545 183.863 158.019C178.56 153.287 174.079 147.706 170.6 141.504C167.77 136.33 165.398 131.494 163.401 127.054C161.404 122.613 159.838 118.649 158.547 115.053C157.255 111.456 156.312 108.383 155.57 105.676C154.828 102.97 154.26 100.731 153.894 98.9601C153.669 97.8747 153.688 96.7528 153.949 95.6755C154.225 94.5287 154.7 93.4389 155.35 92.4551C156.056 91.3747 156.917 90.404 157.905 89.5742C158.972 88.6656 160.155 87.9035 161.423 87.308L203.198 67.5544C203.5 67.4076 203.812 67.27 204.114 67.1415C204.416 67.0131 204.746 66.8846 205.03 66.7654C205.314 66.6461 205.671 66.536 205.946 66.4351C206.221 66.3342 206.596 66.2332 206.926 66.1415C207.256 66.0497 207.585 65.9672 207.915 65.8938C208.245 65.8204 208.584 65.747 208.914 65.6827L209.912 65.5268L210.919 65.4075L256.221 61.3155ZM257.476 70.1968C257.445 70.0462 257.379 69.9049 257.284 69.7839C257.184 69.6619 257.063 69.5593 256.927 69.4811C256.772 69.3973 256.605 69.3384 256.432 69.3068C256.238 69.279 256.04 69.279 255.846 69.3068L210.242 73.2429H209.829L209.417 73.3071L209.005 73.3897L208.602 73.4906L208.208 73.6099L207.778 73.7934L207.393 73.9402L207.008 74.1145L164.848 94.1616C164.664 94.2412 164.494 94.3496 164.344 94.4828C164.204 94.5967 164.083 94.7331 163.987 94.8865C163.892 95.0254 163.824 95.181 163.786 95.3452C163.749 95.4959 163.749 95.6532 163.786 95.804C164.161 97.483 164.702 99.6299 165.453 102.226C166.204 104.823 167.211 107.823 168.494 111.218C169.776 114.613 171.37 118.475 173.321 122.668C175.271 126.861 177.644 131.522 180.437 136.476C183.428 141.647 187.215 146.314 191.657 150.303C195.932 154.168 200.598 157.575 205.58 160.469C209.896 162.995 214.379 165.224 218.998 167.139C223.037 168.809 226.389 169.937 228.533 170.598C231.281 167.781 234.422 164.341 237.628 160.395C241.033 156.219 244.166 151.827 247.007 147.248C250.024 142.412 252.581 137.304 254.646 131.99C256.719 126.692 258.063 121.136 258.639 115.475C259.189 109.566 259.473 104.199 259.555 99.3546C259.638 94.5103 259.555 90.2898 259.354 86.5098C259.152 82.7297 258.841 79.546 258.502 76.8211C258.163 74.0961 257.788 71.8941 257.458 70.1784" fill="url(#paint9_linear_985_5068)"/>
</g>
</g>
</g>
</g>
<defs>
<filter id="filter0_i_985_5068" x="179.899" y="6.22756" width="206.297" height="227.271" filterUnits="userSpaceOnUse" color-interpolation-filters="sRGB">
<feFlood flood-opacity="0" result="BackgroundImageFix"/>
<feBlend mode="normal" in="SourceGraphic" in2="BackgroundImageFix" result="shape"/>
<feColorMatrix in="SourceAlpha" type="matrix" values="0 0 0 0 0 0 0 0 0 0 0 0 0 0 0 0 0 0 127 0" result="hardAlpha"/>
<feOffset dx="-0.771266" dy="-0.771266"/>
<feGaussianBlur stdDeviation="0.385633"/>
<feComposite in2="hardAlpha" operator="arithmetic" k2="-1" k3="1"/>
<feColorMatrix type="matrix" values="0 0 0 0 0.655208 0 0 0 0 0.695891 0 0 0 0 0.770833 0 0 0 1 0"/>
<feBlend mode="normal" in2="shape" result="effect1_innerShadow_985_5068"/>
</filter>
<filter id="filter1_d_985_5068" x="183.861" y="9.87178" width="194.991" height="216.34" filterUnits="userSpaceOnUse" color-interpolation-filters="sRGB">
<feFlood flood-opacity="0" result="BackgroundImageFix"/>
<feColorMatrix in="SourceAlpha" type="matrix" values="0 0 0 0 0 0 0 0 0 0 0 0 0 0 0 0 0 0 127 0" result="hardAlpha"/>
<feOffset dx="3.08506" dy="5.39886"/>
<feGaussianBlur stdDeviation="0.385633"/>
<feColorMatrix type="matrix" values="0 0 0 0 0.290469 0 0 0 0 0.358672 0 0 0 0 0.4875 0 0 0 1 0"/>
<feBlend mode="normal" in2="BackgroundImageFix" result="effect1_dropShadow_985_5068"/>
<feBlend mode="normal" in="SourceGraphic" in2="effect1_dropShadow_985_5068" result="shape"/>
</filter>
<filter id="filter2_d_985_5068" x="214.764" y="8.90611" width="84.1693" height="52.0228" filterUnits="userSpaceOnUse" color-interpolation-filters="sRGB">
<feFlood flood-opacity="0" result="BackgroundImageFix"/>
<feColorMatrix in="SourceAlpha" type="matrix" values="0 0 0 0 0 0 0 0 0 0 0 0 0 0 0 0 0 0 127 0" result="hardAlpha"/>
<feOffset dx="1.54253" dy="2.3138"/>
<feGaussianBlur stdDeviation="0.385633"/>
<feColorMatrix type="matrix" values="0 0 0 0 0.878924 0 0 0 0 0.89853 0 0 0 0 0.937743 0 0 0 0.54 0"/>
<feBlend mode="normal" in2="BackgroundImageFix" result="effect1_dropShadow_985_5068"/>
<feBlend mode="normal" in="SourceGraphic" in2="effect1_dropShadow_985_5068" result="shape"/>
</filter>
<filter id="filter3_i_985_5068" x="214.764" y="8.90611" width="81.3904" height="44.8626" filterUnits="userSpaceOnUse" color-interpolation-filters="sRGB">
<feFlood flood-opacity="0" result="BackgroundImageFix"/>
<feBlend mode="normal" in="SourceGraphic" in2="BackgroundImageFix" result="shape"/>
<feColorMatrix in="SourceAlpha" type="matrix" values="0 0 0 0 0 0 0 0 0 0 0 0 0 0 0 0 0 0 127 0" result="hardAlpha"/>
<feOffset dx="0.771266"/>
<feGaussianBlur stdDeviation="0.385633"/>
<feComposite in2="hardAlpha" operator="arithmetic" k2="-1" k3="1"/>
<feColorMatrix type="matrix" values="0 0 0 0 1 0 0 0 0 1 0 0 0 0 1 0 0 0 1 0"/>
<feBlend mode="normal" in2="shape" result="effect1_innerShadow_985_5068"/>
</filter>
<filter id="filter4_d_985_5068" x="153.738" y="61.2489" width="124.077" height="130.988" filterUnits="userSpaceOnUse" color-interpolation-filters="sRGB">
<feFlood flood-opacity="0" result="BackgroundImageFix"/>
<feColorMatrix in="SourceAlpha" type="matrix" values="0 0 0 0 0 0 0 0 0 0 0 0 0 0 0 0 0 0 127 0" result="hardAlpha"/>
<feOffset dx="4.62759" dy="3.08506"/>
<feGaussianBlur stdDeviation="0.385633"/>
<feColorMatrix type="matrix" values="0 0 0 0 0.618889 0 0 0 0 0.695186 0 0 0 0 0.847778 0 0 0 0.22 0"/>
<feBlend mode="normal" in2="BackgroundImageFix" result="effect1_dropShadow_985_5068"/>
<feBlend mode="normal" in="SourceGraphic" in2="effect1_dropShadow_985_5068" result="shape"/>
</filter>
<filter id="filter5_i_985_5068" x="196.881" y="100.731" width="41.0174" height="27.6256" filterUnits="userSpaceOnUse" color-interpolation-filters="sRGB">
<feFlood flood-opacity="0" result="BackgroundImageFix"/>
<feBlend mode="normal" in="SourceGraphic" in2="BackgroundImageFix" result="shape"/>
<feColorMatrix in="SourceAlpha" type="matrix" values="0 0 0 0 0 0 0 0 0 0 0 0 0 0 0 0 0 0 127 0" result="hardAlpha"/>
<feOffset dx="0.771266"/>
<feGaussianBlur stdDeviation="0.385633"/>
<feComposite in2="hardAlpha" operator="arithmetic" k2="-1" k3="1"/>
<feColorMatrix type="matrix" values="0 0 0 0 1 0 0 0 0 1 0 0 0 0 1 0 0 0 1 0"/>
<feBlend mode="normal" in2="shape" result="effect1_innerShadow_985_5068"/>
</filter>
<filter id="filter6_i_985_5068" x="180.91" y="83.7341" width="72.0369" height="59.3803" filterUnits="userSpaceOnUse" color-interpolation-filters="sRGB">
<feFlood flood-opacity="0" result="BackgroundImageFix"/>
<feBlend mode="normal" in="SourceGraphic" in2="BackgroundImageFix" result="shape"/>
<feColorMatrix in="SourceAlpha" type="matrix" values="0 0 0 0 0 0 0 0 0 0 0 0 0 0 0 0 0 0 127 0" result="hardAlpha"/>
<feOffset dx="0.771266"/>
<feGaussianBlur stdDeviation="0.385633"/>
<feComposite in2="hardAlpha" operator="arithmetic" k2="-1" k3="1"/>
<feColorMatrix type="matrix" values="0 0 0 0 1 0 0 0 0 1 0 0 0 0 1 0 0 0 1 0"/>
<feBlend mode="normal" in2="shape" result="effect1_innerShadow_985_5068"/>
</filter>
<filter id="filter7_i_985_5068" x="153.738" y="61.2489" width="117.41" height="119.726" filterUnits="userSpaceOnUse" color-interpolation-filters="sRGB">
<feFlood flood-opacity="0" result="BackgroundImageFix"/>
<feBlend mode="normal" in="SourceGraphic" in2="BackgroundImageFix" result="shape"/>
<feColorMatrix in="SourceAlpha" type="matrix" values="0 0 0 0 0 0 0 0 0 0 0 0 0 0 0 0 0 0 127 0" result="hardAlpha"/>
<feOffset dx="0.771266"/>
<feGaussianBlur stdDeviation="0.385633"/>
<feComposite in2="hardAlpha" operator="arithmetic" k2="-1" k3="1"/>
<feColorMatrix type="matrix" values="0 0 0 0 1 0 0 0 0 1 0 0 0 0 1 0 0 0 1 0"/>
<feBlend mode="normal" in2="shape" result="effect1_innerShadow_985_5068"/>
</filter>
<radialGradient id="paint0_radial_985_5068" cx="0" cy="0" r="1" gradientUnits="userSpaceOnUse" gradientTransform="translate(210.296 281.755) rotate(90) scale(52.3435 302.256)">
<stop stop-color="#D8E2EE"/>
<stop offset="0.170557" stop-color="#E5EBF3" stop-opacity="0.869792"/>
<stop offset="1" stop-color="#F1F3F6" stop-opacity="0"/>
</radialGradient>
<linearGradient id="paint1_linear_985_5068" x1="416.353" y1="211.771" x2="358.9" y2="233.022" gradientUnits="userSpaceOnUse">
<stop stop-color="#222D3F"/>
<stop offset="0.281083" stop-color="#2D394F"/>
<stop offset="0.39374" stop-color="#5A6D91"/>
<stop offset="0.56133" stop-color="#35425C"/>
<stop offset="1" stop-color="#47587A"/>
</linearGradient>
<linearGradient id="paint2_linear_985_5068" x1="375.681" y1="161.933" x2="223.933" y2="166.575" gradientUnits="userSpaceOnUse">
<stop stop-color="white"/>
<stop offset="1" stop-color="white" stop-opacity="0"/>
</linearGradient>
<linearGradient id="paint3_linear_985_5068" x1="195.029" y1="132.495" x2="243.631" y2="107.822" gradientUnits="userSpaceOnUse">
<stop stop-color="#6A61CC"/>
<stop offset="0.498015" stop-color="#7F6CF2"/>
<stop offset="1" stop-color="#BBAFFE"/>
</linearGradient>
<linearGradient id="paint4_linear_985_5068" x1="249.226" y1="127.848" x2="208.951" y2="156.23" gradientUnits="userSpaceOnUse">
<stop stop-color="#6A61CC"/>
<stop offset="0.498015" stop-color="#7F6CF2"/>
<stop offset="1" stop-color="#BBAFFE"/>
</linearGradient>
<linearGradient id="paint5_linear_985_5068" x1="184.742" y1="103.474" x2="231.697" y2="147.913" gradientUnits="userSpaceOnUse">
<stop stop-color="#D4CCFF"/>
<stop offset="1" stop-color="#9783FF"/>
</linearGradient>
<linearGradient id="paint6_linear_985_5068" x1="159.415" y1="89.6308" x2="257.444" y2="166.06" gradientUnits="userSpaceOnUse">
<stop stop-color="#D4CCFF"/>
<stop offset="1" stop-color="#9783FF"/>
</linearGradient>
<linearGradient id="paint7_linear_985_5068" x1="171.286" y1="112.354" x2="257.56" y2="82.4151" gradientUnits="userSpaceOnUse">
<stop stop-color="#6A61CC"/>
<stop offset="0.460989" stop-color="#7F6CF2"/>
<stop offset="1" stop-color="#BBAFFE"/>
</linearGradient>
<linearGradient id="paint8_linear_985_5068" x1="264.384" y1="131.241" x2="187.264" y2="164.205" gradientUnits="userSpaceOnUse">
<stop stop-color="#6A61CC"/>
<stop offset="0.498015" stop-color="#7F6CF2"/>
<stop offset="1" stop-color="#BBAFFE"/>
</linearGradient>
<linearGradient id="paint9_linear_985_5068" x1="156.319" y1="92.213" x2="265.262" y2="161.36" gradientUnits="userSpaceOnUse">
<stop stop-color="#D4CCFF"/>
<stop offset="1" stop-color="#9783FF"/>
</linearGradient>
<clipPath id="clip0_985_5068">
<rect width="430" height="320" fill="white"/>
</clipPath>
<clipPath id="clip1_985_5068">
<rect width="235.236" height="234.465" fill="white" transform="translate(153.738 7)"/>
</clipPath>
</defs>
</svg>
