<svg width="300" height="250" viewBox="0 0 300 250" fill="none" xmlns="http://www.w3.org/2000/svg">
<g clip-path="url(#clip0_985_5103)">
<ellipse opacity="0.5" cx="148.219" cy="222.363" rx="231.135" ry="40.027" fill="url(#paint0_radial_985_5103)"/>
<g clip-path="url(#clip1_985_5103)">
<g filter="url(#filter0_i_985_5103)">
<path d="M101.037 97.5272C101.037 97.5272 103.41 99.654 106.293 99.3161C109.176 98.9782 110.737 97.4277 110.737 97.4277C110.737 97.4277 113.464 94.1843 115.163 94.5982C116.862 95.0121 119.147 95.5931 121.717 94.2072C124.328 92.7694 125.284 90.4882 125.284 90.4882C125.284 90.4882 126.59 87.9773 128.768 88.0521C130.945 88.127 133.581 87.2993 134.803 86.0715C136.025 84.8436 136.944 83.84 137.262 82.1522C137.581 80.4643 138.357 79.053 140.835 78.4796C143.313 77.9062 145.637 76.0305 146.319 73.8285C147.002 71.6265 146.505 69.4212 146.505 69.4212C146.505 69.4212 147.15 68.4968 147.825 68.229C148.547 67.9557 152.288 65.301 152.507 62.7759C152.727 60.2508 151.648 57.5008 151.648 57.5008C151.648 57.5008 157.666 53.7774 152.323 45.6796C152.323 45.6796 154.096 38.3512 146.719 34.9718C146.719 34.9718 144.764 27.6088 137.713 29.3783C137.713 29.3783 134.851 23.9136 129.002 26.6741C127.889 27.2289 127 27.286 127 27.286C127 27.286 125.645 25.7943 124.096 25.4571C122.548 25.1199 121.634 25.3684 120.319 25.8055C119.004 26.2426 116.748 28.2989 115.391 27.9864C114.486 27.9039 114.614 26.993 111.167 27.3498C110.481 27.5246 108.309 28.2978 106.719 29.9933C105.128 31.6887 104.009 31.3955 104.009 31.3955C104.009 31.3955 101.489 31.2192 100.576 31.4678C99.6624 31.7163 97.439 32.4485 95.5152 35.3147C94.5068 36.7533 92.8958 37.0836 92.8958 37.0836C92.8958 37.0836 88.678 37.2951 86.5327 40.2816C84.6769 42.5268 86.5888 42.3499 83.305 44.4796C81.1776 45.6249 80.1651 45.0362 77.6919 48.4385C76.599 50.3585 78.008 50.7121 76.5921 52.2927C75.1763 53.8734 74.1723 53.7553 72.9504 54.9831C71.7285 56.2109 69.244 55.1346 71.2043 61.7425C71.2043 61.7425 70.4064 62.9678 68.8015 64.1462C67.1967 65.3246 66.8868 68.2846 67.1719 69.1C67.4104 69.9209 67.2795 70.4078 68.4295 72.1593C68.4295 72.1593 63.6319 76.6356 69.6376 82.7693C69.6376 82.7693 69.1421 90.1367 76.945 92.3344C76.945 92.3344 80.9334 100.544 87.8405 96.7633C87.8405 96.7633 90.3878 101.558 96.1255 99.8476C99.3169 98.5304 99.3628 97.7234 101.037 97.5272Z" fill="url(#paint1_radial_985_5103)"/>
</g>
<g filter="url(#filter1_d_985_5103)">
<path d="M143.379 35.0834C144.9 35.1885 147.17 35.253 146.983 37.256C146.799 38.8814 144.308 40.5408 145.691 42.2657C146.66 43.2844 148.92 43.2559 148.809 45.1084C148.809 47.8915 143.515 49.3601 145.482 52.4319C145.977 53.0343 146.659 53.6149 146.712 54.4578C146.756 54.83 146.666 55.265 146.478 55.6644C145.35 58.485 141.098 58.7941 140.381 61.8968C140.095 63.0624 140.832 64.1083 140.546 65.2738C140.153 66.7349 138.874 67.8752 137.54 68.5502C136.422 69.0584 135.183 69.3449 134.076 69.9462C132.835 70.6103 131.742 71.7288 131.338 73.0968C131.101 73.8793 131.009 74.692 130.626 75.4443C129.815 76.9543 128.246 78.0341 126.548 78.4216C124.607 78.7431 122.476 78.6623 120.894 80.0268C119.633 80.929 119.055 82.4118 118.159 83.6015C116.596 85.5297 113.966 86.4036 111.607 85.5947C110.095 85.1586 108.459 85.6801 107.147 86.5412C106.016 87.3341 105.207 88.4664 104.117 89.2073C102.332 90.4539 100.018 90.819 98.3208 89.2252C97.3272 88.3981 95.9159 88.4217 94.7402 88.8424C92.7552 89.5936 91.0065 91.5435 88.7663 91.334C87.9129 91.2924 87.1604 90.9087 86.7877 90.1504C86.4316 89.5317 86.2914 88.7463 85.6783 88.3463C84.3892 87.4122 82.6367 88.1362 81.2805 88.6251C79.9763 89.1551 78.2152 89.4084 77.3579 88.1408C76.6102 87.0019 77.7025 85.0816 76.4189 84.1941C75.1243 83.2135 73.1779 84.2904 71.7989 83.7914C71.1095 83.5419 70.6659 82.9806 70.6241 82.2307C70.4832 80.6434 72.5983 78.6034 70.9752 77.2368C70.1951 76.6205 68.7649 76.8822 68.0667 76.162C66.5224 74.2673 69.13 72.4055 69.8259 70.7202C70.9475 67.8531 67.4991 68.5869 68.1013 66.1107C68.6571 63.64 72.1298 62.7147 72.338 60.0959C72.3593 59.4802 72.0198 59.0011 71.8141 58.4591C71.1831 56.316 73.5858 54.714 75.2178 53.7683C76.5354 52.9537 78.0358 51.6932 77.9824 50.0485C77.8249 48.3216 78.9778 46.9131 80.3884 46.0876C81.3096 45.5081 82.4089 45.2379 83.3876 44.746C84.7217 44.071 85.8612 42.9471 86.3058 41.5271C86.7503 40.1071 87.8898 38.9832 89.1829 38.3602C89.9812 37.9365 90.9055 37.7812 91.7834 37.6313C93.4981 37.3834 95.1246 36.3912 96.086 34.9579C97.1184 33.3276 98.7528 32.0043 100.705 31.7757C101.635 31.6669 102.47 31.9466 103.4 31.8378C105.637 31.6231 107.06 29.7113 108.804 28.5166C109.947 27.8168 111.489 27.3061 112.769 27.7695C116.368 29.8955 118.536 25.9154 121.853 25.6686C124.7 25.4297 123.661 28.1929 126.981 27.5686C128.731 27.2222 130.551 25.8771 132.395 26.3217C133.073 26.4781 133.634 26.837 133.764 27.5294C133.909 28.3614 133.979 29.3439 134.912 29.6593C136.452 30.328 138.352 29.2566 139.936 29.4958C142.007 29.8666 141.83 31.1609 141.32 32.8244C141.004 34.135 142.148 35.0388 143.379 35.0834ZM89.2321 56.2791C90.0076 54.8676 89.0439 53.8955 87.5727 54.2091C86.0495 54.4818 83.7453 56.1194 84.3787 57.8849C84.9649 58.854 86.3432 58.5512 87.2344 58.1167C88.0327 57.6931 88.7624 57.0888 89.2321 56.2791ZM99.6126 75.0645C100.271 73.8554 99.6458 72.5605 98.229 72.5377C96.3938 72.5638 94.3465 73.9826 94.0966 75.8515C93.9751 77.611 96.2453 77.6755 97.399 77.0688C98.3367 76.6289 99.1539 75.9672 99.6126 75.0645ZM117.828 38.6398C118.216 37.9341 118.065 37.0555 117.23 36.7758C115.764 36.3342 113.987 37.2497 113.091 38.4395C112.148 39.6348 112.633 40.9459 114.272 40.8485C115.672 40.7318 117.129 39.9009 117.828 38.6398ZM130.663 55.8643C131.31 54.5621 130.336 53.4969 128.93 53.5671C127.379 53.6071 125.794 54.5474 125.111 55.948C124.216 57.9396 126.377 58.6772 127.955 58.0681C129.089 57.6994 130.18 56.9586 130.663 55.8643ZM99.84 45.5564C100.947 44.9551 102.504 42.9804 100.854 42.1829C99.1745 41.5305 95.6126 43.6926 96.4595 45.669C97.2892 46.704 98.8723 46.1414 99.84 45.5564ZM107.55 57.7202C110.962 55.4813 109.006 52.5026 105.573 54.5554C102.109 56.7532 104.071 59.7784 107.55 57.7202ZM86.4691 70.7536C87.5188 70.0647 88.7813 68.7848 88.203 67.4846C86.9596 65.7433 83.9226 67.561 83.1581 69.0656C81.894 71.5249 84.8127 71.8908 86.4691 70.7536ZM128.632 44.6868C129.64 44.0499 130.851 42.729 130.103 41.59C128.822 40.3249 126.539 41.3468 125.446 42.4653C123.088 45.2413 126.492 46.1166 128.632 44.6868ZM116.187 71.3322C119.82 68.9731 117.628 65.5974 113.927 67.7759C110.294 70.1351 112.485 73.5107 116.187 71.3322Z" fill="url(#paint2_radial_985_5103)"/>
<path d="M145.057 42.7735L145.079 42.8004L145.102 42.8254C145.447 43.188 145.877 43.4285 146.246 43.609C146.405 43.6867 146.568 43.7607 146.719 43.8287C146.746 43.8408 146.772 43.8527 146.798 43.8644C146.975 43.9447 147.133 44.0179 147.279 44.0943C147.578 44.2509 147.757 44.3869 147.862 44.5221C147.946 44.6311 148.014 44.7801 147.998 45.0589L147.996 45.0831L147.996 45.1072C147.996 45.5324 147.797 45.9672 147.379 46.484C147.08 46.855 146.735 47.1938 146.356 47.5661C146.186 47.7329 146.009 47.9064 145.827 48.0925C145.284 48.6459 144.691 49.3135 144.406 50.108C144.096 50.9742 144.179 51.9039 144.797 52.8693L144.823 52.9102L144.854 52.9476C144.96 53.0767 145.077 53.2078 145.182 53.3258C145.211 53.3587 145.239 53.3907 145.266 53.4212C145.398 53.5702 145.511 53.7028 145.607 53.8346C145.799 54.0965 145.887 54.3032 145.9 54.5074L145.902 54.5299L145.904 54.5523C145.926 54.7379 145.883 55.019 145.742 55.317L145.732 55.3392L145.722 55.362C145.292 56.4398 144.281 57.0778 142.974 57.9031C142.93 57.9311 142.885 57.9593 142.84 57.9877C141.577 58.7861 140.034 59.7949 139.59 61.7078C139.405 62.4675 139.55 63.1741 139.656 63.6958L139.667 63.7465C139.784 64.3207 139.848 64.695 139.758 65.071C139.448 66.2104 138.408 67.196 137.187 67.8172C136.754 68.0131 136.303 68.1732 135.811 68.3474C135.719 68.3803 135.625 68.4137 135.529 68.448C134.938 68.6593 134.302 68.8983 133.69 69.2303C132.311 69.9684 131.04 71.2373 130.559 72.8624C130.474 73.1455 130.4 73.4533 130.334 73.7298C130.304 73.8548 130.276 73.9734 130.249 74.0805C130.154 74.4521 130.054 74.7729 129.905 75.0673C129.223 76.3316 127.88 77.2771 126.39 77.6238C125.992 77.6889 125.585 77.7368 125.155 77.7874C125.094 77.7945 125.033 77.8017 124.971 77.809C124.473 77.868 123.949 77.9337 123.429 78.0355C122.396 78.2377 121.324 78.5929 120.39 79.3873C119.654 79.9227 119.136 80.6086 118.709 81.2604C118.536 81.5244 118.386 81.7692 118.242 82.0021C118.003 82.39 117.785 82.7449 117.518 83.1004C116.149 84.7804 113.873 85.5128 111.87 84.826L111.851 84.8194L111.832 84.8138C110.001 84.2861 108.116 84.9324 106.7 85.8616L106.69 85.8684L106.68 85.8755C106.062 86.3083 105.539 86.8262 105.075 87.2851L105.044 87.3157C104.556 87.7992 104.132 88.2133 103.659 88.5348L103.659 88.5348L103.65 88.5408C102.034 89.67 100.181 89.8575 98.8771 88.6332L98.8593 88.6165L98.8406 88.6009C97.5351 87.5142 95.7791 87.6071 94.4653 88.0771L94.4584 88.0796L94.4514 88.0822C93.888 88.2954 93.3582 88.587 92.8671 88.8799C92.6435 89.0133 92.4409 89.1386 92.2442 89.2603C91.9783 89.4248 91.7234 89.5824 91.4428 89.7438C90.5107 90.2799 89.6994 90.6051 88.8409 90.5248L88.8228 90.5231L88.8048 90.5222C88.1671 90.4911 87.7275 90.2205 87.5173 89.7929L87.5056 89.7689L87.4923 89.7458C87.4269 89.6322 87.3661 89.5015 87.2955 89.3398C87.2809 89.3063 87.2654 89.2704 87.2492 89.2328C87.1934 89.1033 87.1291 88.954 87.0615 88.8141C86.8856 88.4495 86.6216 87.9986 86.1399 87.6776C85.2533 87.0429 84.2463 87.0075 83.3726 87.1499C82.6104 87.2742 81.8463 87.5532 81.2353 87.7763C81.1554 87.8055 81.0781 87.8337 81.0037 87.8605L80.9885 87.866L80.9734 87.8721C80.3828 88.1122 79.737 88.2675 79.1835 88.245C78.653 88.2234 78.2784 88.0481 78.0347 87.6913C77.9585 87.5731 77.9058 87.3999 77.8876 87.1174C77.8735 86.8976 77.8816 86.6808 77.8913 86.4208C77.895 86.3198 77.8991 86.2123 77.9021 86.0955C77.9208 85.3792 77.9122 84.2497 76.8954 83.536C75.9697 82.844 74.8593 82.9212 74.0564 83.0036C73.9265 83.0169 73.8044 83.0306 73.6878 83.0438C73.4002 83.0761 73.1456 83.1047 72.8877 83.1147C72.5381 83.1284 72.2778 83.1006 72.0747 83.0272C71.6776 82.8834 71.4587 82.5958 71.4359 82.1867L71.4352 82.1733L71.434 82.16C71.4147 81.9423 71.471 81.6529 71.6149 81.2432C71.6847 81.0447 71.7663 80.8407 71.8561 80.6163L71.8578 80.6122C71.9447 80.3952 72.0394 80.1586 72.1228 79.9208C72.2867 79.4532 72.4416 78.8895 72.3958 78.3077C72.3464 77.6812 72.07 77.0966 71.4984 76.6154L71.4887 76.6072L71.4787 76.5993C70.943 76.1762 70.2312 76.0471 69.7593 75.9616C69.7172 75.9539 69.6769 75.9466 69.6389 75.9395C69.0781 75.8344 68.816 75.7497 68.6714 75.6174C68.4343 75.3138 68.3829 75.0577 68.4026 74.8166C68.4259 74.5307 68.5568 74.1941 68.8043 73.7803C69.0026 73.4486 69.2391 73.1242 69.4969 72.7706C69.5633 72.6795 69.6311 72.5866 69.7 72.491C70.0163 72.0525 70.363 71.5506 70.5775 71.0313L70.5804 71.0242L70.5832 71.0172C70.9097 70.1826 70.9602 69.4596 70.6949 68.8258C70.4448 68.2283 69.9666 67.8594 69.6454 67.6187C69.6084 67.591 69.5732 67.5647 69.5396 67.5397C69.2284 67.3074 69.059 67.1809 68.9461 67.0152C68.872 66.9066 68.7876 66.7306 68.8914 66.3037L68.8915 66.3038L68.8946 66.29C69.0996 65.3784 69.8341 64.7174 70.8345 63.8172L70.8945 63.7631C71.8272 62.9236 73.0153 61.8364 73.1485 60.1615L73.15 60.1434L73.1506 60.1252C73.1669 59.6549 73.0426 59.259 72.9139 58.9438C72.8583 58.8075 72.7964 58.6739 72.7435 58.5596C72.7368 58.5451 72.7302 58.5308 72.7237 58.517C72.6691 58.3987 72.6238 58.2984 72.5858 58.2016C72.3997 57.5285 72.6452 56.8882 73.2653 56.2162C73.9017 55.5265 74.8169 54.9406 75.6263 54.4716L75.6363 54.4658L75.6462 54.4597C76.3381 54.0319 77.1216 53.4617 77.7322 52.7487C78.3451 52.033 78.8305 51.116 78.795 50.0232L78.7942 49.9995L78.792 49.9758C78.6749 48.6909 79.5286 47.5331 80.7999 46.7892L80.8111 46.7826L80.8221 46.7757C81.2135 46.5295 81.6572 46.34 82.165 46.1404C82.2456 46.1087 82.3284 46.0765 82.413 46.0437C82.8395 45.878 83.3095 45.6955 83.7536 45.4723L83.7555 45.4713C85.2313 44.7246 86.5557 43.4511 87.0817 41.7708C87.4458 40.6078 88.4017 39.6393 89.5368 39.0924L89.551 39.0856L89.5649 39.0782C90.225 38.7279 91.0107 38.588 91.9115 38.4341C93.8403 38.1522 95.669 37.0399 96.7615 35.4112L96.7674 35.4023L96.7731 35.3933C97.7177 33.9018 99.1618 32.7748 100.801 32.583C101.166 32.5402 101.523 32.5719 101.975 32.6157L102.004 32.6185C102.426 32.6595 102.938 32.7091 103.487 32.646C104.824 32.5155 105.883 31.8791 106.782 31.19C107.154 30.9051 107.515 30.597 107.858 30.3053C107.928 30.2459 107.997 30.1873 108.065 30.1296C108.471 29.7855 108.854 29.4697 109.247 29.1991C110.293 28.5626 111.515 28.2163 112.43 28.512C113.442 29.0924 114.402 29.276 115.324 29.1814C116.245 29.0871 117.069 28.7213 117.804 28.3239C118.133 28.1462 118.459 27.9533 118.772 27.7687C118.809 27.7464 118.847 27.7244 118.884 27.7024C119.236 27.4945 119.574 27.2979 119.914 27.1223C120.595 26.771 121.24 26.5293 121.915 26.4791L121.915 26.4792L121.922 26.4785C122.497 26.4304 122.786 26.5369 122.967 26.6468C123.165 26.7673 123.303 26.9259 123.54 27.1971C123.568 27.2292 123.597 27.2629 123.628 27.2983C123.898 27.6053 124.273 28.0113 124.875 28.2548C125.479 28.4993 126.206 28.5415 127.132 28.3674L127.14 28.3659C127.644 28.2661 128.135 28.0982 128.593 27.9257C128.797 27.8489 128.984 27.7755 129.165 27.7044C129.419 27.6044 129.663 27.5088 129.928 27.4137C130.802 27.1006 131.526 26.948 132.205 27.1118L132.213 27.1136C132.475 27.1741 132.658 27.2617 132.773 27.3552C132.873 27.4364 132.936 27.5312 132.964 27.6735C132.974 27.7311 132.984 27.795 132.995 27.8638C133.051 28.2095 133.127 28.6777 133.285 29.0831C133.496 29.6216 133.886 30.1582 134.619 30.4177C135.629 30.8438 136.702 30.6903 137.551 30.5388C137.691 30.5138 137.825 30.4891 137.954 30.4652C138.7 30.3274 139.277 30.2207 139.805 30.2979C140.241 30.3771 140.481 30.4918 140.611 30.5889C140.725 30.6739 140.779 30.7625 140.809 30.8797C140.846 31.0189 140.854 31.2249 140.807 31.5292C140.76 31.831 140.667 32.1788 140.543 32.5852L140.536 32.6088L140.53 32.6328C140.3 33.5859 140.611 34.4262 141.199 35.0065C141.759 35.5602 142.55 35.8633 143.336 35.8951C143.388 35.8986 143.438 35.9021 143.489 35.9056C144.247 35.957 144.98 36.0067 145.533 36.2175C145.811 36.3235 145.969 36.445 146.055 36.5634C146.13 36.6657 146.204 36.8378 146.174 37.1709C146.146 37.4029 146.028 37.6893 145.805 38.0743C145.7 38.255 145.585 38.4381 145.459 38.638L145.441 38.6661C145.311 38.8716 145.171 39.0945 145.042 39.3219C144.79 39.7671 144.534 40.307 144.475 40.9027C144.412 41.5399 144.58 42.1779 145.057 42.7735ZM89.9356 56.6876L89.9403 56.6794L89.9449 56.6711C90.4351 55.7787 90.4826 54.7886 89.8604 54.067C89.2748 53.3878 88.3222 53.2216 87.4152 53.4115C86.4883 53.5808 85.3938 54.1368 84.6015 54.9024C83.8133 55.6641 83.1392 56.8365 83.6135 58.1583L83.641 58.235L83.6831 58.3047C84.1766 59.1205 85.0004 59.3517 85.7069 59.3398C86.3951 59.3283 87.0823 59.0956 87.5916 58.8473L87.6041 58.8412L87.6164 58.8347C88.5104 58.3603 89.3706 57.6615 89.9356 56.6876ZM98.241 71.725L98.2287 71.7248L98.2163 71.725C97.1056 71.7408 95.9689 72.1722 95.0733 72.8581C94.1776 73.5441 93.4512 74.5426 93.2907 75.7427L93.2872 75.7685L93.2855 75.7944C93.2421 76.4225 93.4138 76.9775 93.7878 77.4044C94.1468 77.8141 94.6287 78.0339 95.0883 78.1396C95.9777 78.3441 97.0225 78.1797 97.7612 77.7972C98.8 77.3067 99.7709 76.5418 100.333 75.4433C100.766 74.6402 100.813 73.7293 100.419 72.979C100.014 72.209 99.2132 71.7407 98.241 71.725ZM118.539 39.0345L118.541 39.0318C118.82 38.524 118.929 37.9118 118.772 37.335C118.606 36.7299 118.162 36.2314 117.488 36.0053L117.476 36.0013L117.464 35.9976C116.494 35.7058 115.48 35.876 114.621 36.2508C113.761 36.6254 112.982 37.2346 112.446 37.943C111.864 38.6852 111.599 39.6292 111.971 40.46C112.363 41.335 113.29 41.7211 114.321 41.6598L114.331 41.6593L114.34 41.6585C115.975 41.5222 117.692 40.5625 118.539 39.0345ZM124.38 55.5913L124.375 55.6026L124.369 55.614C124.089 56.2387 124.005 56.8625 124.177 57.4365C124.349 58.0143 124.746 58.4277 125.203 58.689C126.075 59.1866 127.261 59.2008 128.227 58.8344C129.479 58.4233 130.791 57.5728 131.4 56.2099C131.838 55.315 131.757 54.3842 131.199 53.6919C130.666 53.0302 129.801 52.7125 128.898 52.7549C127.074 52.8056 125.205 53.8986 124.38 55.5913ZM101.207 41.4513L101.178 41.4371L101.148 41.4254C100.51 41.1776 99.7832 41.2225 99.1382 41.3868C98.4783 41.5549 97.8114 41.8702 97.2381 42.2773C96.669 42.6812 96.1463 43.2083 95.829 43.8274C95.5035 44.4625 95.385 45.2244 95.7123 45.9882L95.756 46.0902L95.8254 46.1767C96.4837 46.9979 97.425 47.1322 98.2088 47.0255C98.972 46.9217 99.7107 46.583 100.246 46.2614C100.932 45.8835 101.716 45.1249 102.114 44.2962C102.318 43.8728 102.465 43.3378 102.341 42.7852C102.208 42.1911 101.799 41.737 101.207 41.4513ZM107.965 58.4198L107.982 58.4102L107.997 58.3998C108.941 57.7802 109.587 57.0628 109.91 56.3155C110.236 55.5614 110.235 54.7494 109.813 54.0909C109.393 53.4352 108.658 53.091 107.843 53.057C107.031 53.0231 106.11 53.2868 105.155 53.8577L105.146 53.8632L105.136 53.869C104.178 54.4772 103.52 55.1891 103.188 55.936C102.853 56.6904 102.85 57.5063 103.272 58.1693C103.691 58.8285 104.429 59.1772 105.25 59.215C106.067 59.2526 106.998 58.9918 107.965 58.4198ZM88.9458 67.1552L88.9124 67.08L88.8645 67.013C88.406 66.3709 87.7638 66.0508 87.0839 65.9774C86.4318 65.9069 85.7691 66.0629 85.1848 66.3086C84.0407 66.7898 82.9224 67.7351 82.434 68.695C82.0652 69.4132 81.9201 70.1344 82.1385 70.7846C82.3644 71.457 82.9075 71.8464 83.4647 72.0301C84.5219 72.3787 85.9231 72.1118 86.9229 71.4287C87.4991 71.0495 88.1707 70.4868 88.6258 69.796C89.0888 69.093 89.3877 68.1488 88.9458 67.1552ZM130.783 41.1448L130.735 41.0727L130.674 41.0122C129.745 40.0949 128.504 40.0721 127.489 40.3498C126.471 40.6278 125.504 41.2426 124.864 41.8969L124.844 41.9171L124.826 41.9387C124.181 42.6981 123.801 43.4712 123.836 44.2212C123.874 45.0411 124.39 45.5987 125.007 45.8886C125.598 46.1663 126.317 46.2285 127.005 46.1393C127.701 46.0491 128.432 45.7966 129.075 45.3686C129.649 45.0052 130.304 44.4358 130.721 43.7491C131.148 43.0468 131.393 42.0748 130.783 41.1448ZM116.6 72.0328L116.615 72.0237L116.63 72.014C118.584 70.7454 119.418 68.8577 118.491 67.4141C117.577 65.9899 115.51 65.9003 113.514 67.0754L113.498 67.0844L113.483 67.0941C111.53 68.3627 110.696 70.2505 111.622 71.694C112.537 73.1182 114.603 73.2079 116.6 72.0328Z" stroke="url(#paint3_linear_985_5103)" stroke-width="1.62581"/>
</g>
<g filter="url(#filter2_d_985_5103)">
<ellipse cx="45.2097" cy="32.6538" rx="45.2097" ry="32.6538" transform="matrix(0.846324 -0.532669 0.534682 0.845054 50.6035 51.9081)" fill="url(#paint4_radial_985_5103)"/>
</g>
<g filter="url(#filter3_d_985_5103)">
<g filter="url(#filter4_i_985_5103)">
<path d="M92.5895 83.5718C92.5895 83.5718 94.9626 85.6987 97.8455 85.3608C100.728 85.0229 102.289 83.4724 102.289 83.4724C102.289 83.4724 105.017 80.2289 106.716 80.6428C108.415 81.0567 110.699 81.6378 113.27 80.2519C115.881 78.8141 116.837 76.5328 116.837 76.5328C116.837 76.5328 118.143 74.0219 120.32 74.0968C122.498 74.1717 125.134 73.3439 126.356 72.1161C127.578 70.8883 128.496 69.8847 128.815 68.1968C129.134 66.509 129.91 65.0976 132.388 64.5243C134.866 63.9509 137.19 62.0752 137.872 59.8732C138.554 57.6711 138.058 55.4658 138.058 55.4658C138.058 55.4658 138.703 54.5414 139.378 54.2736C140.1 54.0004 143.84 51.3456 144.06 48.8205C144.28 46.2955 143.2 43.5455 143.2 43.5455C143.2 43.5455 149.219 39.8221 143.876 31.7243C143.876 31.7243 145.649 24.3958 138.272 21.0164C138.272 21.0164 136.317 13.6534 129.266 15.423C129.266 15.423 126.404 9.95822 120.555 12.7187C119.442 13.2736 118.553 13.3306 118.553 13.3306C118.553 13.3306 117.198 11.839 115.649 11.5017C114.101 11.1645 113.187 11.413 111.872 11.8502C110.556 12.2873 108.301 14.3436 106.944 14.0311C106.039 13.9486 106.166 13.0376 102.72 13.3944C102.034 13.5692 99.8622 14.3424 98.2713 16.0379C96.6805 17.7334 95.5615 17.4401 95.5615 17.4401C95.5615 17.4401 93.042 17.2639 92.1286 17.5124C91.2151 17.761 88.9917 18.4931 87.0679 21.3594C86.0595 22.798 84.4486 23.1283 84.4486 23.1283C84.4486 23.1283 80.2307 23.3397 78.0854 26.3262C76.2296 28.5715 78.1415 28.3945 74.8578 30.5242C72.7304 31.6696 71.7179 31.0809 69.2446 34.4831C68.1518 36.4032 69.5608 36.7567 68.1449 38.3374C66.729 39.918 65.725 39.7999 64.5031 41.0278C63.2812 42.2556 60.7967 41.1793 62.7571 47.7872C62.7571 47.7872 61.9592 49.0125 60.3543 50.1909C58.7494 51.3693 58.4396 54.3293 58.7246 55.1447C58.9632 55.9655 58.8322 56.4525 59.9823 58.2039C59.9823 58.2039 55.1847 62.6802 61.1904 68.814C61.1904 68.814 60.6948 76.1813 68.4978 78.3791C68.4978 78.3791 72.4862 86.5884 79.3933 82.8079C79.3933 82.8079 81.9405 87.6023 87.6783 85.8923C90.8696 84.5751 90.9156 83.768 92.5895 83.5718Z" fill="url(#paint5_radial_985_5103)"/>
<path d="M92.5895 83.5718C92.5895 83.5718 94.9626 85.6987 97.8455 85.3608C100.728 85.0229 102.289 83.4724 102.289 83.4724C102.289 83.4724 105.017 80.2289 106.716 80.6428C108.415 81.0567 110.699 81.6378 113.27 80.2519C115.881 78.8141 116.837 76.5328 116.837 76.5328C116.837 76.5328 118.143 74.0219 120.32 74.0968C122.498 74.1717 125.134 73.3439 126.356 72.1161C127.578 70.8883 128.496 69.8847 128.815 68.1968C129.134 66.509 129.91 65.0976 132.388 64.5243C134.866 63.9509 137.19 62.0752 137.872 59.8732C138.554 57.6711 138.058 55.4658 138.058 55.4658C138.058 55.4658 138.703 54.5414 139.378 54.2736C140.1 54.0004 143.84 51.3456 144.06 48.8205C144.28 46.2955 143.2 43.5455 143.2 43.5455C143.2 43.5455 149.219 39.8221 143.876 31.7243C143.876 31.7243 145.649 24.3958 138.272 21.0164C138.272 21.0164 136.317 13.6534 129.266 15.423C129.266 15.423 126.404 9.95822 120.555 12.7187C119.442 13.2736 118.553 13.3306 118.553 13.3306C118.553 13.3306 117.198 11.839 115.649 11.5017C114.101 11.1645 113.187 11.413 111.872 11.8502C110.556 12.2873 108.301 14.3436 106.944 14.0311C106.039 13.9486 106.166 13.0376 102.72 13.3944C102.034 13.5692 99.8622 14.3424 98.2713 16.0379C96.6805 17.7334 95.5615 17.4401 95.5615 17.4401C95.5615 17.4401 93.042 17.2639 92.1286 17.5124C91.2151 17.761 88.9917 18.4931 87.0679 21.3594C86.0595 22.798 84.4486 23.1283 84.4486 23.1283C84.4486 23.1283 80.2307 23.3397 78.0854 26.3262C76.2296 28.5715 78.1415 28.3945 74.8578 30.5242C72.7304 31.6696 71.7179 31.0809 69.2446 34.4831C68.1518 36.4032 69.5608 36.7567 68.1449 38.3374C66.729 39.918 65.725 39.7999 64.5031 41.0278C63.2812 42.2556 60.7967 41.1793 62.7571 47.7872C62.7571 47.7872 61.9592 49.0125 60.3543 50.1909C58.7494 51.3693 58.4396 54.3293 58.7246 55.1447C58.9632 55.9655 58.8322 56.4525 59.9823 58.2039C59.9823 58.2039 55.1847 62.6802 61.1904 68.814C61.1904 68.814 60.6948 76.1813 68.4978 78.3791C68.4978 78.3791 72.4862 86.5884 79.3933 82.8079C79.3933 82.8079 81.9405 87.6023 87.6783 85.8923C90.8696 84.5751 90.9156 83.768 92.5895 83.5718Z" fill="url(#paint6_linear_985_5103)" fill-opacity="0.5"/>
</g>
<g filter="url(#filter5_d_985_5103)">
<path d="M134.93 21.1281C136.451 21.2331 138.721 21.2976 138.534 23.3006C138.349 24.926 135.859 26.5854 137.242 28.3104C138.211 29.329 140.47 29.3005 140.36 31.153C140.36 33.9361 135.066 35.4047 137.032 38.4765C137.528 39.0789 138.21 39.6595 138.262 40.5024C138.306 40.8746 138.217 41.3096 138.028 41.7091C136.901 44.5297 132.648 44.8387 131.932 47.9415C131.646 49.107 132.382 50.1529 132.096 51.3185C131.704 52.7795 130.425 53.9198 129.091 54.5948C127.973 55.103 126.734 55.3895 125.627 55.9908C124.385 56.6549 123.292 57.7734 122.889 59.1414C122.652 59.9239 122.559 60.7366 122.177 61.4889C121.366 62.9989 119.797 64.0788 118.099 64.4662C116.157 64.7878 114.027 64.7069 112.444 66.0714C111.184 66.9736 110.606 68.4564 109.71 69.6462C108.147 71.5744 105.517 72.4483 103.158 71.6393C101.645 71.2032 100.01 71.7248 98.6981 72.5859C97.5665 73.3787 96.7579 74.5111 95.6673 75.2519C93.8824 76.4986 91.5688 76.8637 89.8716 75.2698C88.878 74.4427 87.4667 74.4664 86.291 74.887C84.306 75.6382 82.5573 77.5881 80.317 77.3786C79.4636 77.337 78.7111 76.9533 78.3385 76.1951C77.9823 75.5764 77.8421 74.7909 77.2291 74.3909C75.94 73.4569 74.1875 74.1809 72.8313 74.6698C71.5271 75.1998 69.7659 75.453 68.9087 74.1854C68.161 73.0465 69.2533 71.1262 67.9697 70.2387C66.6751 69.2581 64.7287 70.335 63.3497 69.836C62.6602 69.5865 62.2166 69.0252 62.1749 68.2753C62.034 66.688 64.1491 64.648 62.5259 63.2814C61.7459 62.6651 60.3156 62.9268 59.6175 62.2067C58.0732 60.3119 60.6808 58.4501 61.3767 56.7649C62.4982 53.8977 59.0499 54.6315 59.6521 52.1553C60.2078 49.6846 63.6806 48.7593 63.8888 46.1406C63.9101 45.5249 63.5705 45.0457 63.3649 44.5038C62.7339 42.3606 65.1366 40.7586 66.7686 39.8129C68.0862 38.9983 69.5866 37.7378 69.5331 36.0931C69.3757 34.3662 70.5286 32.9577 71.9392 32.1322C72.8604 31.5527 73.9596 31.2826 74.9384 30.7907C76.2725 30.1156 77.412 28.9917 77.8565 27.5717C78.3011 26.1518 79.4406 25.0278 80.7337 24.4048C81.532 23.9812 82.4563 23.8258 83.3341 23.6759C85.0488 23.4281 86.6753 22.4358 87.6368 21.0025C88.6692 19.3723 90.3036 18.0489 92.2562 17.8204C93.1861 17.7115 94.0205 17.9912 94.9504 17.8824C97.1875 17.6678 98.6108 15.7559 100.355 14.5612C101.497 13.8615 103.039 13.3508 104.32 13.8141C107.919 15.9402 110.087 11.96 113.404 11.7132C116.251 11.4744 115.212 14.2376 118.531 13.6132C120.282 13.2668 122.102 11.9217 123.946 12.3663C124.624 12.5228 125.185 12.8816 125.314 13.5741C125.46 14.4061 125.529 15.3885 126.462 15.7039C128.003 16.3727 129.903 15.3012 131.487 15.5404C133.557 15.9113 133.381 17.2055 132.871 18.869C132.555 20.1796 133.699 21.0834 134.93 21.1281ZM80.7829 42.3237C81.5584 40.9122 80.5947 39.9401 79.1235 40.2538C77.6003 40.5264 75.2961 42.164 75.9295 43.9295C76.5157 44.8986 77.8939 44.5958 78.7852 44.1613C79.5834 43.7377 80.3132 43.1334 80.7829 42.3237ZM91.1633 61.1091C91.8214 59.9 91.1966 58.6052 89.7798 58.5823C87.9446 58.6084 85.8973 60.0273 85.6473 61.8961C85.5259 63.6557 87.7961 63.7202 88.9497 63.1134C89.8875 62.6735 90.7047 62.0118 91.1633 61.1091ZM109.379 24.6844C109.767 23.9787 109.615 23.1001 108.781 22.8204C107.314 22.3789 105.537 23.2944 104.641 24.4842C103.699 25.6794 104.184 26.9905 105.822 26.8931C107.223 26.7764 108.68 25.9455 109.379 24.6844ZM122.214 41.9089C122.861 40.6067 121.886 39.5416 120.481 39.6117C118.93 39.6517 117.344 40.592 116.662 41.9926C115.766 43.9842 117.928 44.7219 119.506 44.1127C120.64 43.744 121.731 43.0032 122.214 41.9089ZM91.3908 31.601C92.498 30.9998 94.0552 29.025 92.4052 28.2276C90.7252 27.5751 87.1634 29.7373 88.0103 31.7136C88.84 32.7486 90.4231 32.186 91.3908 31.601ZM99.1012 43.7648C102.513 41.5259 100.557 38.5472 97.1236 40.6C93.6602 42.7978 95.6213 45.823 99.1012 43.7648ZM78.0199 56.7982C79.0696 56.1093 80.332 54.8295 79.7537 53.5292C78.5104 51.7879 75.4734 53.6056 74.7089 55.1102C73.4448 57.5695 76.3635 57.9355 78.0199 56.7982ZM120.183 30.7314C121.191 30.0945 122.402 28.7736 121.654 27.6347C120.373 26.3695 118.09 27.3914 116.997 28.5099C114.639 31.2859 118.042 32.1612 120.183 30.7314ZM107.737 57.3769C111.37 55.0177 109.179 51.6421 105.478 53.8205C101.845 56.1797 104.036 59.5554 107.737 57.3769Z" fill="#F9FAFC"/>
<path d="M136.608 28.8181L136.629 28.845L136.653 28.8701C136.998 29.2327 137.428 29.4732 137.797 29.6536C137.956 29.7313 138.119 29.8054 138.27 29.8733C138.296 29.8854 138.323 29.8973 138.348 29.909C138.525 29.9893 138.684 30.0626 138.829 30.1389C139.129 30.2955 139.308 30.4315 139.412 30.5667C139.496 30.6757 139.565 30.8248 139.548 31.1036L139.547 31.1277L139.547 31.1519C139.547 31.5771 139.347 32.0118 138.93 32.5287C138.631 32.8996 138.286 33.2384 137.907 33.6107C137.737 33.7775 137.56 33.951 137.378 34.1372C136.835 34.6905 136.242 35.3581 135.957 36.1526C135.647 37.0188 135.73 37.9485 136.348 38.914L136.374 38.9548L136.405 38.9923C136.511 39.1213 136.627 39.2524 136.732 39.3704C136.762 39.4034 136.79 39.4353 136.817 39.4659C136.948 39.6148 137.061 39.7475 137.158 39.8792C137.35 40.1411 137.438 40.3478 137.451 40.552L137.452 40.5745L137.455 40.5969C137.477 40.7825 137.433 41.0637 137.293 41.3616L137.282 41.3838L137.273 41.4067C136.843 42.4844 135.832 43.1224 134.525 43.9478C134.481 43.9757 134.436 44.0039 134.391 44.0323C133.128 44.8307 131.585 45.8395 131.141 47.7525C130.956 48.5121 131.1 49.2187 131.207 49.7404L131.217 49.7911C131.334 50.3653 131.399 50.7396 131.309 51.1156C130.999 52.255 129.958 53.2406 128.738 53.8618C128.305 54.0577 127.853 54.2178 127.362 54.3921C127.269 54.425 127.175 54.4584 127.08 54.4926C126.489 54.7039 125.852 54.9429 125.241 55.2749C123.862 56.0131 122.59 57.2823 122.11 58.9078C122.024 59.1907 121.951 59.4982 121.885 59.7745C121.855 59.8995 121.827 60.0181 121.799 60.1251C121.705 60.4967 121.605 60.8176 121.456 61.112C120.774 62.3762 119.431 63.3218 117.941 63.6684C117.542 63.7335 117.135 63.7814 116.706 63.832C116.645 63.8392 116.584 63.8464 116.522 63.8537C116.024 63.9127 115.499 63.9783 114.98 64.0801C113.947 64.2824 112.875 64.6376 111.94 65.4319C111.204 65.9673 110.687 66.6532 110.26 67.305C110.087 67.569 109.936 67.8139 109.793 68.0468C109.554 68.4346 109.335 68.7895 109.069 69.1451C107.7 70.825 105.423 71.5574 103.421 70.8706L103.402 70.864L103.382 70.8584C101.552 70.3307 99.6672 70.977 98.2512 71.9063L98.2409 71.913L98.2309 71.9201C97.6131 72.3529 97.0896 72.8709 96.626 73.3297L96.595 73.3603C96.1063 73.8438 95.6831 74.2579 95.2097 74.5795L95.2097 74.5794L95.201 74.5854C93.5843 75.7146 91.7316 75.9022 90.4278 74.6778L90.4101 74.6611L90.3914 74.6456C89.0858 73.5588 87.3299 73.6517 86.0161 74.1217L86.0091 74.1242L86.0022 74.1268C85.4388 74.34 84.909 74.6316 84.4178 74.9246C84.1943 75.0579 83.9916 75.1833 83.7949 75.3049C83.529 75.4694 83.2741 75.6271 82.9935 75.7884C82.0614 76.3245 81.2501 76.6497 80.3916 76.5694L80.3736 76.5677L80.3555 76.5668C79.7179 76.5357 79.2782 76.2651 79.0681 75.8375L79.0563 75.8136L79.043 75.7904C78.9776 75.6768 78.9168 75.5461 78.8463 75.3844C78.8316 75.3508 78.8162 75.3149 78.8 75.2773C78.7442 75.1479 78.6798 74.9986 78.6123 74.8587C78.4364 74.4941 78.1724 74.0433 77.6907 73.7223C76.804 73.0876 75.7971 73.0521 74.9234 73.1946C74.1612 73.3188 73.3971 73.5978 72.786 73.821C72.7061 73.8501 72.6288 73.8784 72.5545 73.9051L72.5392 73.9107L72.5242 73.9168C71.9336 74.1568 71.2878 74.3121 70.7343 74.2896C70.2037 74.268 69.8292 74.0928 69.5855 73.7359C69.5093 73.6177 69.4566 73.4445 69.4384 73.162C69.4242 72.9422 69.4323 72.7254 69.442 72.4655C69.4458 72.3644 69.4498 72.2569 69.4529 72.1401C69.4716 71.4238 69.463 70.2943 68.4461 69.5806C67.5205 68.8887 66.41 68.9658 65.6071 69.0482C65.4773 69.0616 65.3552 69.0753 65.2386 69.0884C64.9509 69.1207 64.6963 69.1493 64.4385 69.1594C64.0889 69.173 63.8286 69.1453 63.6255 69.0718C63.2283 68.9281 63.0095 68.6404 62.9867 68.2313L62.986 68.218L62.9848 68.2046C62.9654 67.987 63.0218 67.6975 63.1657 67.2878C63.2355 67.0893 63.3171 66.8853 63.4069 66.661L63.4086 66.6567C63.4955 66.4397 63.5902 66.2032 63.6736 65.9654C63.8375 65.4979 63.9924 64.9341 63.9466 64.3523C63.8972 63.7258 63.6207 63.1413 63.0492 62.66L63.0395 62.6518L63.0295 62.644C62.4938 62.2208 61.782 62.0917 61.3101 62.0062C61.2679 61.9986 61.2277 61.9913 61.1897 61.9841C60.6289 61.8791 60.3668 61.7943 60.2222 61.6621C59.9851 61.3585 59.9337 61.1024 59.9534 60.8613C59.9767 60.5754 60.1076 60.2388 60.3551 59.8249C60.5534 59.4932 60.7898 59.1689 61.0477 58.8152C61.1141 58.7242 61.1819 58.6312 61.2508 58.5356C61.5671 58.0971 61.9138 57.5953 62.1283 57.0759L62.1312 57.0689L62.134 57.0618C62.4604 56.2272 62.511 55.5043 62.2457 54.8704C61.9956 54.273 61.5174 53.904 61.1962 53.6634C61.1592 53.6356 61.124 53.6094 61.0904 53.5843C60.7792 53.352 60.6098 53.2255 60.4969 53.0599C60.4227 52.9512 60.3383 52.7753 60.4422 52.3484L60.4423 52.3484L60.4454 52.3347C60.6504 51.423 61.3849 50.7621 62.3853 49.8618L62.4453 49.8078C63.3779 48.9682 64.5661 47.881 64.6993 46.2061L64.7007 46.188L64.7014 46.1698C64.7176 45.6995 64.5934 45.3037 64.4647 44.9884C64.4091 44.8521 64.3472 44.7185 64.2943 44.6042C64.2875 44.5897 64.2809 44.5755 64.2745 44.5616C64.2199 44.4433 64.1745 44.343 64.1365 44.2462C63.9505 43.5731 64.196 42.9328 64.8161 42.2608C65.4525 41.5711 66.3677 40.9853 67.1771 40.5162L67.1871 40.5104L67.1969 40.5043C67.8889 40.0765 68.6724 39.5063 69.2829 38.7934C69.8959 38.0776 70.3813 37.1607 70.3457 36.0678L70.345 36.0441L70.3428 36.0204C70.2256 34.7355 71.0794 33.5777 72.3506 32.8338L72.3619 32.8272L72.3729 32.8203C72.7643 32.5741 73.208 32.3847 73.7157 32.185C73.7963 32.1533 73.8792 32.1211 73.9637 32.0883C74.3903 31.9226 74.8603 31.7401 75.3044 31.5169L75.3063 31.5159C76.7821 30.7692 78.1065 29.4957 78.6325 27.8155C78.9966 26.6524 79.9525 25.6839 81.0875 25.1371L81.1018 25.1302L81.1157 25.1228C81.7758 24.7725 82.5615 24.6326 83.4623 24.4788C85.3911 24.1969 87.2198 23.0845 88.3122 21.4559L88.3182 21.447L88.3239 21.4379C89.2685 19.9464 90.7126 18.8195 92.3519 18.6276C92.7172 18.5849 93.0736 18.6166 93.526 18.6604L93.5548 18.6632C93.977 18.7041 94.4888 18.7538 95.0375 18.6907C96.3748 18.5601 97.4336 17.9237 98.3327 17.2346C98.7043 16.9498 99.0661 16.6417 99.4087 16.35C99.4784 16.2906 99.5474 16.2319 99.6154 16.1742C100.021 15.8302 100.405 15.5144 100.798 15.2437C101.844 14.6073 103.066 14.2609 103.981 14.5566C104.993 15.137 105.952 15.3206 106.875 15.226C107.795 15.1317 108.62 14.7659 109.355 14.3686C109.684 14.1909 110.01 13.998 110.323 13.8133C110.36 13.7911 110.398 13.769 110.435 13.747C110.787 13.5391 111.124 13.3425 111.465 13.1669C112.146 12.8156 112.791 12.5739 113.465 12.5238L113.465 12.5238L113.473 12.5232C114.047 12.475 114.337 12.5816 114.518 12.6914C114.716 12.8119 114.854 12.9705 115.091 13.2417C115.119 13.2738 115.148 13.3076 115.179 13.343C115.448 13.65 115.824 14.0559 116.426 14.2994C117.03 14.5439 117.757 14.5861 118.683 14.412L118.69 14.4105C119.194 14.3107 119.686 14.1428 120.144 13.9703C120.348 13.8935 120.535 13.8202 120.716 13.749C120.97 13.6491 121.213 13.5534 121.479 13.4583C122.353 13.1452 123.077 12.9926 123.756 13.1564L123.764 13.1583C124.026 13.2187 124.209 13.3063 124.324 13.3998C124.424 13.4811 124.487 13.5759 124.514 13.7182C124.524 13.7758 124.535 13.8397 124.546 13.9084C124.602 14.2541 124.677 14.7224 124.836 15.1278C125.047 15.6662 125.437 16.2028 126.17 16.4623C127.18 16.8885 128.252 16.735 129.102 16.5834C129.242 16.5585 129.376 16.5337 129.505 16.5098C130.25 16.3721 130.828 16.2653 131.356 16.3425C131.791 16.4218 132.032 16.5364 132.162 16.6335C132.275 16.7185 132.329 16.8071 132.36 16.9243C132.396 17.0635 132.405 17.2696 132.357 17.5739C132.311 17.8756 132.218 18.2234 132.094 18.6299L132.086 18.6535L132.08 18.6775C131.851 19.6305 132.162 20.4708 132.749 21.0511C133.31 21.6049 134.1 21.908 134.887 21.9398C134.938 21.9433 134.989 21.9467 135.04 21.9502C135.798 22.0016 136.53 22.0513 137.084 22.2621C137.362 22.3681 137.52 22.4896 137.606 22.6081C137.68 22.7103 137.755 22.8824 137.725 23.2156C137.697 23.4475 137.578 23.7339 137.356 24.1189C137.251 24.2999 137.135 24.4832 137.009 24.6834L136.992 24.7108C136.862 24.9162 136.722 25.1392 136.593 25.3666C136.34 25.8117 136.084 26.3516 136.025 26.9474C135.962 27.5845 136.13 28.2225 136.608 28.8181ZM81.4863 42.7322L81.4911 42.724L81.4956 42.7158C81.9859 41.8234 82.0334 40.8332 81.4112 40.1117C80.8256 39.4324 79.873 39.2662 78.966 39.4561C78.0391 39.6254 76.9446 40.1814 76.1523 40.9471C75.3641 41.7087 74.69 42.8812 75.1642 44.203L75.1917 44.2796L75.2339 44.3493C75.7273 45.1651 76.5512 45.3963 77.2577 45.3844C77.9458 45.3729 78.6331 45.1402 79.1424 44.892L79.1549 44.8859L79.1672 44.8793C80.0611 44.4049 80.9214 43.7062 81.4863 42.7322ZM89.7918 57.7696L89.7794 57.7694L89.7671 57.7696C88.6564 57.7854 87.5197 58.2168 86.6241 58.9027C85.7283 59.5887 85.0019 60.5873 84.8415 61.7873L84.838 61.8131L84.8362 61.8391C84.7929 62.4671 84.9646 63.0221 85.3386 63.449C85.6976 63.8588 86.1795 64.0785 86.6391 64.1842C87.5284 64.3888 88.5733 64.2244 89.3119 63.8418C90.3508 63.3513 91.3216 62.5865 91.8832 61.488C92.3165 60.6849 92.3636 59.774 91.9693 59.0236C91.5646 58.2536 90.764 57.7853 89.7918 57.7696ZM110.09 25.0792L110.092 25.0765C110.371 24.5687 110.48 23.9565 110.322 23.3796C110.157 22.7746 109.713 22.276 109.038 22.0499L109.026 22.0459L109.014 22.0422C108.045 21.7504 107.031 21.9206 106.171 22.2955C105.312 22.6701 104.533 23.2793 103.997 23.9877C103.415 24.7298 103.15 25.6739 103.522 26.5047C103.914 27.3797 104.841 27.7658 105.872 27.7045L105.882 27.7039L105.891 27.7031C107.526 27.5669 109.243 26.6071 110.09 25.0792ZM115.931 41.6359L115.925 41.6472L115.92 41.6586C115.639 42.2833 115.556 42.9071 115.727 43.4811C115.9 44.0589 116.296 44.4724 116.754 44.7336C117.625 45.2312 118.812 45.2455 119.778 44.879C121.03 44.4679 122.341 43.6174 122.951 42.2546C123.388 41.3597 123.308 40.4289 122.75 39.7365C122.217 39.0748 121.351 38.7571 120.449 38.7995C118.624 38.8502 116.756 39.9433 115.931 41.6359ZM92.7583 27.4959L92.729 27.4818L92.6987 27.47C92.0606 27.2222 91.334 27.2672 90.6889 27.4315C90.0291 27.5995 89.3622 27.9149 88.7888 28.3219C88.2198 28.7258 87.697 29.2529 87.3797 29.872C87.0543 30.5072 86.9357 31.269 87.263 32.0328L87.3067 32.1348L87.3761 32.2214C88.0344 33.0426 88.9758 33.1768 89.7595 33.0702C90.5228 32.9663 91.2614 32.6276 91.7968 32.306C92.4824 31.9282 93.2663 31.1695 93.6648 30.3408C93.8684 29.9174 94.0157 29.3824 93.8918 28.8299C93.7587 28.2357 93.3493 27.7816 92.7583 27.4959ZM99.516 44.4645L99.5323 44.4548L99.5481 44.4444C100.492 43.8248 101.138 43.1074 101.461 42.3602C101.786 41.6061 101.785 40.794 101.364 40.1356C100.944 39.4799 100.209 39.1356 99.3936 39.1016C98.5821 39.0677 97.6604 39.3314 96.7056 39.9023L96.6963 39.9079L96.6872 39.9136C95.7287 40.5219 95.0704 41.2337 94.7389 41.9806C94.404 42.7351 94.4009 43.5509 94.8228 44.214C95.2423 44.8731 95.9801 45.2218 96.8008 45.2596C97.6181 45.2972 98.549 45.0364 99.516 44.4645ZM80.4966 53.1999L80.4631 53.1246L80.4153 53.0576C79.9568 52.4155 79.3146 52.0955 78.6347 52.022C77.9826 51.9515 77.3199 52.1075 76.7356 52.3533C75.5914 52.8344 74.4732 53.7798 73.9848 54.7396C73.6159 55.4578 73.4709 56.1791 73.6893 56.8292C73.9152 57.5016 74.4583 57.891 75.0155 58.0747C76.0726 58.4233 77.4738 58.1564 78.4736 57.4733C79.0499 57.0942 79.7215 56.5315 80.1765 55.8406C80.6396 55.1377 80.9385 54.1934 80.4966 53.1999ZM122.334 27.1894L122.286 27.1174L122.225 27.0568C121.296 26.1395 120.055 26.1168 119.039 26.3944C118.022 26.6725 117.054 27.2872 116.415 27.9415L116.395 27.9618L116.377 27.9833C115.732 28.7427 115.352 29.5158 115.387 30.2658C115.425 31.0857 115.941 31.6434 116.558 31.9333C117.149 32.211 117.867 32.2732 118.556 32.1839C119.252 32.0937 119.982 31.8412 120.626 31.4132C121.199 31.0498 121.855 30.4804 122.272 29.7937C122.698 29.0914 122.944 28.1194 122.334 27.1894ZM108.151 58.0774L108.166 58.0684L108.181 58.0586C110.135 56.79 110.969 54.9023 110.042 53.4587C109.128 52.0346 107.061 51.9449 105.065 53.12L105.049 53.1291L105.034 53.1388C103.081 54.4074 102.246 56.2951 103.173 57.7387C104.088 59.1628 106.154 59.2525 108.151 58.0774Z" stroke="url(#paint7_linear_985_5103)" stroke-width="1.62581"/>
</g>
</g>
<g filter="url(#filter6_i_985_5103)">
<path d="M141.133 168.288C141.133 168.288 145.144 171.883 150.017 171.312C154.89 170.741 157.528 168.12 157.528 168.12C157.528 168.12 162.139 162.638 165.011 163.338C167.883 164.037 171.744 165.019 176.088 162.677C180.502 160.246 182.118 156.391 182.118 156.391C182.118 156.391 184.325 152.147 188.006 152.273C191.686 152.4 196.142 151.001 198.208 148.925C200.273 146.85 201.825 145.153 202.364 142.301C202.903 139.448 204.215 137.062 208.403 136.093C212.591 135.124 216.519 131.953 217.673 128.231C218.826 124.509 217.987 120.782 217.987 120.782C217.987 120.782 219.077 119.219 220.218 118.767C221.439 118.305 227.761 113.817 228.132 109.549C228.504 105.281 226.679 100.633 226.679 100.633C226.679 100.633 236.851 94.3396 227.821 80.6523C227.821 80.6523 230.818 68.2652 218.349 62.5531C218.349 62.5531 215.044 50.1077 203.126 53.0987C203.126 53.0987 198.288 43.8618 188.402 48.5278C186.521 49.4656 185.018 49.562 185.018 49.562C185.018 49.562 182.728 47.0408 180.11 46.4708C177.493 45.9008 175.949 46.3209 173.725 47.0597C171.502 47.7986 167.69 51.2743 165.396 50.746C163.866 50.6066 164.082 49.0668 158.257 49.6699C157.096 49.9653 153.426 51.2723 150.737 54.1381C148.048 57.0039 146.157 56.5082 146.157 56.5082C146.157 56.5082 141.898 56.2103 140.354 56.6304C138.81 57.0505 135.052 58.2881 131.8 63.1328C130.096 65.5644 127.373 66.1227 127.373 66.1227C127.373 66.1227 120.244 66.4801 116.617 71.5281C113.481 75.3232 116.712 75.0241 111.162 78.6239C107.566 80.5598 105.855 79.5648 101.674 85.3154C99.827 88.5608 102.209 89.1584 99.8153 91.8302C97.4221 94.5019 95.7251 94.3023 93.6598 96.3776C91.5945 98.4529 87.395 96.6337 90.7085 107.803C90.7085 107.803 89.3598 109.874 86.6471 111.866C83.9345 113.857 83.4108 118.861 83.8926 120.239C84.2958 121.626 84.0744 122.449 86.0183 125.41C86.0183 125.41 77.9091 132.976 88.0604 143.344C88.0604 143.344 87.2228 155.796 100.412 159.511C100.412 159.511 107.153 173.387 118.828 166.997C118.828 166.997 123.134 175.101 132.832 172.211C138.226 169.984 138.304 168.62 141.133 168.288Z" fill="url(#paint8_radial_985_5103)"/>
</g>
<g filter="url(#filter7_d_985_5103)">
<path d="M212.695 62.7419C215.265 62.9194 219.102 63.0284 218.786 66.4141C218.475 69.1614 214.266 71.9662 216.603 74.8819C218.241 76.6037 222.06 76.5554 221.873 79.6867C221.873 84.3909 212.925 86.8732 216.249 92.0653C217.086 93.0835 218.238 94.0649 218.328 95.4896C218.402 96.1187 218.25 96.8541 217.932 97.5292C216.027 102.297 208.838 102.819 207.627 108.064C207.144 110.034 208.389 111.802 207.905 113.772C207.242 116.241 205.08 118.169 202.825 119.31C200.935 120.169 198.841 120.653 196.97 121.669C194.872 122.792 193.024 124.682 192.342 126.995C191.941 128.317 191.785 129.691 191.139 130.962C189.768 133.515 187.117 135.34 184.246 135.995C180.964 136.538 177.363 136.402 174.688 138.708C172.558 140.233 171.58 142.739 170.066 144.75C167.425 148.01 162.978 149.487 158.992 148.119C156.435 147.382 153.671 148.264 151.453 149.719C149.541 151.059 148.174 152.973 146.33 154.226C143.314 156.333 139.403 156.95 136.534 154.256C134.855 152.858 132.469 152.898 130.482 153.609C127.127 154.878 124.171 158.174 120.384 157.82C118.942 157.75 117.67 157.101 117.04 155.82C116.438 154.774 116.201 153.446 115.165 152.77C112.986 151.191 110.024 152.415 107.732 153.242C105.527 154.137 102.55 154.566 101.101 152.423C99.8375 150.498 101.684 147.252 99.5141 145.752C97.3259 144.094 94.036 145.915 91.7052 145.071C90.5398 144.649 89.79 143.701 89.7195 142.433C89.4812 139.75 93.0564 136.302 90.3128 133.992C88.9942 132.951 86.5768 133.393 85.3968 132.176C82.7864 128.973 87.194 125.826 88.3703 122.978C90.2659 118.131 84.4374 119.372 85.4553 115.186C86.3946 111.01 92.2644 109.446 92.6164 105.02C92.6524 103.979 92.0784 103.169 91.7309 102.253C90.6642 98.6305 94.7255 95.9228 97.484 94.3242C99.711 92.9474 102.247 90.8167 102.157 88.0368C101.891 85.1179 103.839 82.7371 106.224 81.3418C107.781 80.3623 109.639 79.9057 111.293 79.0742C113.548 77.9333 115.474 76.0335 116.226 73.6334C116.977 71.2333 118.903 69.3335 121.089 68.2804C122.438 67.5644 124 67.3018 125.484 67.0484C128.382 66.6295 131.132 64.9523 132.757 62.5297C134.502 59.7741 137.264 57.5372 140.565 57.151C142.137 56.967 143.547 57.4398 145.119 57.2558C148.9 56.893 151.306 53.6615 154.253 51.6421C156.185 50.4593 158.791 49.5962 160.956 50.3794C167.038 53.9729 170.703 47.2453 176.31 46.8283C181.123 46.4245 179.365 51.0951 184.977 50.0397C187.935 49.4543 191.012 47.1807 194.129 47.9321C195.275 48.1966 196.224 48.8032 196.442 49.9736C196.688 51.3799 196.805 53.0405 198.382 53.5735C200.986 54.704 204.198 52.893 206.875 53.2972C210.375 53.9241 210.076 56.1117 209.214 58.9234C208.68 61.1387 210.614 62.6664 212.695 62.7419ZM121.172 98.5682C122.483 96.1824 120.854 94.5392 118.367 95.0694C115.792 95.5302 111.898 98.2982 112.968 101.282C113.959 102.92 116.289 102.409 117.795 101.674C119.145 100.958 120.378 99.9368 121.172 98.5682ZM138.718 130.32C139.83 128.277 138.774 126.088 136.379 126.049C133.277 126.094 129.817 128.492 129.394 131.651C129.189 134.625 133.026 134.734 134.976 133.708C136.561 132.965 137.942 131.846 138.718 130.32ZM169.507 68.7531C170.162 67.5602 169.906 66.0752 168.496 65.6024C166.017 64.856 163.014 66.4035 161.499 68.4146C159.906 70.4348 160.726 72.651 163.495 72.4864C165.862 72.2891 168.325 70.8846 169.507 68.7531ZM191.202 97.867C192.295 95.666 190.648 93.8656 188.272 93.9842C185.65 94.0518 182.97 95.6411 181.817 98.0086C180.304 101.375 183.957 102.622 186.623 101.592C188.541 100.969 190.385 99.7166 191.202 97.867ZM139.102 80.444C140.974 79.4276 143.606 76.0898 140.817 74.7419C137.977 73.6391 131.957 77.2937 133.388 80.6343C134.791 82.3837 137.466 81.4327 139.102 80.444ZM152.135 101.004C157.901 97.2197 154.595 92.1849 148.792 95.6546C142.938 99.3695 146.253 104.483 152.135 101.004ZM116.502 123.034C118.276 121.869 120.41 119.706 119.432 117.508C117.331 114.565 112.197 117.638 110.905 120.181C108.769 124.338 113.702 124.956 116.502 123.034ZM187.768 78.9741C189.473 77.8975 191.519 75.6648 190.255 73.7398C188.089 71.6013 184.231 73.3286 182.383 75.2191C178.398 79.9113 184.15 81.3908 187.768 78.9741ZM166.732 124.012C172.873 120.024 169.169 114.319 162.913 118.001C156.772 121.988 160.476 127.694 166.732 124.012Z" fill="url(#paint9_radial_985_5103)"/>
<path d="M215.969 75.3896L215.99 75.4165L216.014 75.4416C216.526 75.98 217.179 76.3511 217.787 76.6485C218.047 76.7757 218.314 76.8967 218.569 77.0117C218.614 77.0324 218.66 77.0529 218.704 77.0732C219.004 77.2092 219.284 77.3386 219.546 77.4757C220.077 77.7537 220.465 78.029 220.715 78.3532C220.945 78.6512 221.097 79.0388 221.061 79.6373L221.06 79.6614L221.06 79.6856C221.06 80.591 220.632 81.4493 219.893 82.3645C219.366 83.0176 218.747 83.6255 218.094 84.2669C217.812 84.5441 217.523 84.8276 217.233 85.1237C216.319 86.0564 215.396 87.1095 214.96 88.3272C214.497 89.6167 214.607 91.0073 215.564 92.5028L215.59 92.5436L215.621 92.5811C215.793 92.79 215.98 93.0002 216.156 93.1987C216.207 93.2558 216.257 93.3119 216.305 93.3668C216.529 93.6209 216.734 93.8608 216.913 94.105C217.27 94.5918 217.485 95.0441 217.516 95.5392L217.517 95.5617L217.52 95.5841C217.573 96.0267 217.467 96.6081 217.196 97.1818L217.186 97.204L217.177 97.2268C216.38 99.2217 214.524 100.392 212.385 101.741C212.285 101.804 212.185 101.867 212.084 101.93C209.928 103.293 207.528 104.891 206.836 107.875C206.553 109.036 206.775 110.123 206.958 111.02L206.97 111.079C207.165 112.035 207.306 112.791 207.118 113.569C206.537 115.716 204.614 117.489 202.472 118.577C201.713 118.921 200.921 119.202 200.087 119.497C199.931 119.553 199.774 119.608 199.615 119.665C198.619 120.022 197.578 120.414 196.584 120.953C194.348 122.15 192.322 124.191 191.563 126.761C191.423 127.224 191.306 127.713 191.197 128.172C191.145 128.389 191.095 128.599 191.045 128.796C190.881 129.441 190.699 130.031 190.418 130.585C189.176 132.892 186.75 134.583 184.088 135.197C183.395 135.311 182.688 135.394 181.957 135.48C181.854 135.492 181.751 135.504 181.647 135.517C180.806 135.616 179.938 135.725 179.082 135.893C177.378 136.226 175.665 136.803 174.184 138.068C173.013 138.915 172.178 140.013 171.466 141.101C171.193 141.518 170.945 141.92 170.704 142.31C170.287 142.987 169.892 143.628 169.425 144.249C166.977 147.26 162.885 148.596 159.255 147.351L159.236 147.344L159.216 147.338C156.341 146.51 153.328 147.516 151.006 149.04L150.996 149.046L150.986 149.053C149.981 149.757 149.126 150.604 148.334 151.387L148.294 151.427C147.474 152.239 146.723 152.976 145.873 153.553L145.873 153.553L145.864 153.559C143.015 155.549 139.566 155.988 137.09 153.664L137.073 153.647L137.054 153.632C135.063 151.974 132.332 152.083 130.207 152.843L130.2 152.846L130.193 152.849C129.287 153.191 128.425 153.664 127.604 154.154C127.244 154.369 126.906 154.578 126.573 154.784C126.113 155.068 125.665 155.345 125.189 155.619C123.59 156.538 122.091 157.164 120.459 157.011L120.441 157.009L120.423 157.008C119.196 156.949 118.237 156.413 117.77 155.462L117.758 155.438L117.745 155.415C117.618 155.195 117.505 154.95 117.384 154.673C117.357 154.612 117.33 154.548 117.302 154.482C117.208 154.265 117.106 154.029 116.998 153.804C116.714 153.216 116.32 152.56 115.626 152.101C114.294 151.144 112.763 151.073 111.359 151.302C110.127 151.503 108.889 151.954 107.85 152.333C107.715 152.383 107.583 152.431 107.455 152.477L107.44 152.482L107.424 152.489C106.384 152.912 105.209 153.202 104.165 153.16C103.144 153.118 102.318 152.768 101.778 151.973C101.573 151.659 101.471 151.256 101.437 150.728C101.411 150.326 101.426 149.92 101.443 149.469C101.449 149.303 101.455 149.131 101.46 148.95C101.492 147.729 101.451 146.114 99.9906 145.094C98.618 144.063 96.9478 144.157 95.5789 144.298C95.373 144.319 95.1743 144.341 94.981 144.363C94.4857 144.419 94.0256 144.47 93.5681 144.488C92.9448 144.512 92.422 144.467 91.981 144.307C91.1079 143.991 90.5828 143.316 90.5312 142.389L90.5305 142.376L90.5293 142.363C90.4857 141.871 90.615 141.288 90.8646 140.578C90.9872 140.229 91.1298 139.872 91.2808 139.495L91.2816 139.494C91.4298 139.123 91.5861 138.733 91.7229 138.343C91.9932 137.572 92.2226 136.709 92.1545 135.846C92.083 134.937 91.6877 134.088 90.836 133.371L90.8263 133.363L90.8163 133.355C90.0277 132.732 88.9644 132.537 88.1459 132.387C88.0794 132.375 88.0145 132.363 87.9515 132.351C87.0069 132.174 86.3861 132.01 86.0032 131.634C85.4972 131 85.3591 130.419 85.4051 129.855C85.4548 129.247 85.7257 128.59 86.1616 127.861C86.5112 127.277 86.93 126.702 87.3679 126.102C87.4784 125.95 87.59 125.797 87.702 125.642C88.238 124.899 88.7873 124.099 89.1219 123.289L89.1248 123.282L89.1275 123.274C89.6475 121.945 89.6944 120.883 89.3214 119.991C88.9635 119.136 88.2734 118.592 87.729 118.184C87.6624 118.134 87.598 118.086 87.5357 118.04C87.0332 117.666 86.6666 117.393 86.4195 117.031C86.1928 116.698 86.0376 116.233 86.2453 115.379L86.2454 115.379L86.2485 115.366C86.635 113.647 88.0012 112.419 89.6186 110.965C89.679 110.911 89.7396 110.856 89.8006 110.801C91.3985 109.363 93.2218 107.664 93.4269 105.085L93.4283 105.067L93.4289 105.049C93.4526 104.366 93.2734 103.781 93.0702 103.283C92.9815 103.066 92.8826 102.853 92.7926 102.658C92.7812 102.634 92.77 102.609 92.7589 102.585C92.6619 102.376 92.5756 102.185 92.5023 101.995C92.0993 100.583 92.6488 99.2973 93.771 98.0811C94.9084 96.8485 96.5198 95.823 97.8925 95.0275L97.9025 95.0217L97.9123 95.0156C99.059 94.3067 100.329 93.3784 101.307 92.2357C102.288 91.0902 103.023 89.672 102.969 88.0115L102.969 87.9878L102.966 87.9641C102.741 85.4871 104.39 83.3571 106.635 82.0434L106.646 82.0368L106.657 82.0299C107.367 81.5837 108.159 81.2476 109.02 80.9089C109.161 80.8536 109.304 80.798 109.449 80.7418C110.17 80.4616 110.935 80.1646 111.659 79.8005L111.661 79.7995C114.058 78.5869 116.169 76.5375 117.002 73.8771C117.672 71.7339 119.415 69.9896 121.443 69.0127L121.457 69.0058L121.471 68.9984C122.682 68.3559 124.105 68.1087 125.612 67.8513C128.725 67.3983 131.676 65.601 133.432 62.983L133.438 62.9741L133.444 62.9651C135.101 60.3482 137.673 58.3078 140.661 57.9582C141.347 57.8779 142.008 57.9391 142.764 58.0124L142.796 58.0155C143.52 58.0856 144.336 58.1647 145.206 58.0641C147.315 57.8595 149.006 56.856 150.494 55.7154C151.109 55.2436 151.708 54.734 152.287 54.2411C152.406 54.14 152.524 54.0396 152.641 53.9404C153.332 53.3542 154.003 52.8014 154.696 52.3246C156.534 51.2037 158.818 50.5079 160.613 51.12C162.247 52.0684 163.767 52.3563 165.216 52.2077C166.662 52.0595 167.978 51.4826 169.199 50.8229C169.744 50.528 170.286 50.2076 170.816 49.8948C170.879 49.8573 170.943 49.8199 171.006 49.7827C171.601 49.4313 172.184 49.0917 172.775 48.7868C173.957 48.1769 175.125 47.7315 176.372 47.6388L176.372 47.6388L176.379 47.6382C177.445 47.5488 178.058 47.7437 178.484 48.0024C178.898 48.2541 179.191 48.5909 179.579 49.0375C179.629 49.0944 179.68 49.153 179.733 49.2135C180.178 49.7217 180.741 50.3206 181.628 50.6797C182.518 51.0398 183.629 51.1204 185.128 50.8385L185.136 50.837C185.942 50.6775 186.739 50.4067 187.504 50.1184C187.832 49.995 188.143 49.8728 188.449 49.7526C188.888 49.58 189.317 49.4116 189.769 49.2498C191.267 48.713 192.623 48.405 193.939 48.7223L193.947 48.7241C194.948 48.955 195.508 49.4109 195.642 50.1174C195.661 50.2282 195.681 50.347 195.701 50.4715C195.796 51.0584 195.912 51.7732 196.156 52.3961C196.472 53.2028 197.035 53.9639 198.09 54.3322C199.632 54.9891 201.299 54.7658 202.745 54.5078C202.971 54.4675 203.192 54.4265 203.407 54.3865C204.664 54.153 205.748 53.9516 206.744 54.0993C207.537 54.2426 208.038 54.4613 208.352 54.6959C208.649 54.9185 208.811 55.1787 208.894 55.4953C208.982 55.834 208.987 56.2673 208.901 56.8209C208.816 57.3719 208.65 57.9908 208.437 58.6843L208.43 58.7079L208.424 58.7319C208.085 60.1373 208.539 61.3597 209.403 62.2129C210.24 63.0398 211.441 63.5065 212.652 63.5536C212.749 63.5602 212.845 63.5667 212.942 63.5733C214.196 63.6577 215.516 63.7467 216.534 64.1344C217.066 64.3369 217.441 64.5959 217.672 64.9141C217.891 65.2157 218.04 65.6495 217.978 66.3289C217.918 66.8407 217.668 67.4089 217.281 68.0786C217.099 68.394 216.898 68.7122 216.686 69.0476L216.654 69.0975C216.435 69.4457 216.204 69.812 215.994 70.1833C215.578 70.9161 215.193 71.7459 215.105 72.634C215.013 73.5635 215.253 74.4964 215.969 75.3896ZM121.875 98.9767L121.88 98.9685L121.885 98.9602C122.643 97.5807 122.658 96.1792 121.809 95.1951C120.997 94.2531 119.624 93.9737 118.21 94.2717C116.757 94.5352 115.002 95.4208 113.735 96.6449C112.473 97.865 111.51 99.6247 112.203 101.556L112.231 101.632L112.273 101.702C112.969 102.852 114.131 103.199 115.203 103.181C116.257 103.163 117.336 102.803 118.152 102.405L118.165 102.399L118.177 102.392C119.622 101.625 120.986 100.51 121.875 98.9767ZM136.391 125.237L136.379 125.237L136.366 125.237C134.622 125.262 132.816 125.942 131.387 127.037C129.958 128.131 128.835 129.697 128.588 131.542L128.585 131.568L128.583 131.594C128.519 132.525 128.773 133.311 129.294 133.906C129.801 134.484 130.496 134.81 131.196 134.971C132.566 135.287 134.201 135.029 135.339 134.437C137.024 133.643 138.559 132.421 139.438 130.699C140.098 129.479 140.151 128.136 139.583 127.056C139.005 125.956 137.852 125.26 136.391 125.237ZM170.218 69.1478L170.219 69.1451C170.632 68.3937 170.783 67.5081 170.56 66.6946C170.33 65.853 169.716 65.1545 168.753 64.8319L168.742 64.8279L168.729 64.8242C167.254 64.38 165.68 64.632 164.31 65.2294C162.94 65.8265 161.7 66.7989 160.855 67.9179C159.948 69.0722 159.603 70.4489 160.12 71.6011C160.655 72.7971 161.948 73.3926 163.545 73.2977L163.554 73.2971L163.564 73.2963C166.165 73.0795 168.888 71.5462 170.218 69.1478ZM181.086 97.6518L181.08 97.6631L181.075 97.6745C180.64 98.6429 180.534 99.5563 180.775 100.365C181.018 101.177 181.577 101.77 182.25 102.154C183.554 102.899 185.385 102.935 186.896 102.358C188.93 101.693 190.995 100.331 191.938 98.2127C192.599 96.8689 192.462 95.5293 191.671 94.5466C190.904 93.5946 189.627 93.1053 188.24 93.1719C185.345 93.2503 182.382 94.9924 181.086 97.6518ZM141.17 74.0103L141.14 73.9961L141.11 73.9843C140.182 73.6239 139.084 73.6778 138.055 73.9399C137.011 74.2059 135.946 74.7082 135.029 75.3589C134.117 76.0065 133.306 76.834 132.822 77.7778C132.33 78.7377 132.167 79.8487 132.641 80.9535L132.685 81.0554L132.754 81.142C133.699 82.3204 135.056 82.5362 136.268 82.3713C137.46 82.2092 138.639 81.6723 139.508 81.1491C140.576 80.5635 141.819 79.3605 142.44 78.0702C142.754 77.4161 142.953 76.6461 142.782 75.8819C142.601 75.0761 142.046 74.4335 141.17 74.0103ZM152.55 101.704L152.566 101.694L152.582 101.684C154.114 100.678 155.117 99.5419 155.608 98.4068C156.101 97.2647 156.078 96.0951 155.487 95.1716C154.897 94.2508 153.845 93.7341 152.606 93.6824C151.372 93.6309 149.921 94.0318 148.374 94.9569L148.365 94.9625L148.356 94.9683C146.8 95.9558 145.778 97.0826 145.274 98.2164C144.768 99.3577 144.785 100.532 145.377 101.463C145.966 102.389 147.023 102.913 148.271 102.97C149.516 103.027 150.982 102.631 152.55 101.704ZM120.175 117.179L120.142 117.104L110.905 120.181L110.182 119.808C110.182 119.809 110.181 119.81 110.181 119.811C109.594 120.953 109.411 122.008 109.714 122.908C110.024 123.831 110.773 124.386 111.599 124.659C113.193 125.185 115.384 124.784 116.956 123.709C117.894 123.092 118.965 122.19 119.678 121.106C120.4 120.011 120.817 118.621 120.175 117.179ZM190.934 73.2945L190.887 73.2225L190.826 73.1619C189.455 71.8079 187.599 71.7432 185.984 72.1846C184.368 72.6263 182.818 73.6104 181.801 74.6508L181.781 74.671L181.763 74.6926C180.711 75.931 180.173 77.1012 180.222 78.1618C180.275 79.2924 180.978 80.0744 181.879 80.4979C182.754 80.9092 183.854 81.0143 184.946 80.8728C186.044 80.7304 187.198 80.3306 188.212 79.6559C189.133 79.0727 190.172 78.1655 190.82 77.0975C191.478 76.014 191.803 74.6176 190.934 73.2945ZM167.146 124.713L167.161 124.703L167.176 124.694C170.383 122.611 171.466 119.734 170.155 117.692C168.857 115.67 165.774 115.373 162.5 117.3L162.484 117.309L162.469 117.319C159.262 119.402 158.179 122.279 159.49 124.321C160.788 126.343 163.872 126.639 167.146 124.713Z" stroke="url(#paint10_linear_985_5103)" stroke-width="1.62581"/>
</g>
<g filter="url(#filter8_d_985_5103)">
<ellipse cx="76.4164" cy="55.1935" rx="76.4164" ry="55.1935" transform="matrix(0.846324 -0.532669 0.534682 0.845054 55.8828 91.18)" fill="url(#paint11_radial_985_5103)"/>
</g>
<g filter="url(#filter9_d_985_5103)">
<g filter="url(#filter10_i_985_5103)">
<path d="M126.854 144.7C126.854 144.7 130.865 148.295 135.738 147.724C140.611 147.153 143.249 144.532 143.249 144.532C143.249 144.532 147.86 139.05 150.731 139.749C153.603 140.449 157.465 141.431 161.809 139.089C166.223 136.658 167.839 132.802 167.839 132.802C167.839 132.802 170.046 128.558 173.726 128.685C177.407 128.811 181.863 127.412 183.928 125.337C185.994 123.262 187.546 121.565 188.085 118.712C188.624 115.859 189.936 113.474 194.124 112.505C198.312 111.536 202.24 108.365 203.393 104.643C204.547 100.921 203.707 97.1935 203.707 97.1935C203.707 97.1935 204.797 95.631 205.939 95.1784C207.16 94.7165 213.482 90.2292 213.853 85.9612C214.225 81.6932 212.4 77.0449 212.4 77.0449C212.4 77.0449 222.572 70.7514 213.542 57.064C213.542 57.064 216.539 44.6769 204.07 38.9648C204.07 38.9648 200.765 26.5194 188.847 29.5104C188.847 29.5104 184.009 20.2735 174.122 24.9395C172.241 25.8773 170.739 25.9737 170.739 25.9737C170.739 25.9737 168.448 23.4525 165.831 22.8825C163.214 22.3125 161.67 22.7326 159.446 23.4714C157.223 24.2103 153.411 27.686 151.117 27.1578C149.586 27.0183 149.803 25.4785 143.977 26.0816C142.817 26.377 139.147 27.684 136.458 30.5498C133.769 33.4156 131.877 32.92 131.877 32.92C131.877 32.92 127.619 32.622 126.075 33.0421C124.531 33.4622 120.773 34.6998 117.521 39.5445C115.817 41.9761 113.094 42.5344 113.094 42.5344C113.094 42.5344 105.964 42.8918 102.338 47.9398C99.2014 51.7349 102.433 51.4358 96.8826 55.0356C93.2867 56.9715 91.5753 55.9765 87.3949 61.7271C85.5477 64.9725 87.9292 65.5702 85.536 68.2419C83.1428 70.9136 81.4458 70.714 79.3805 72.7893C77.3152 74.8647 73.1157 73.0454 76.4292 84.2145C76.4292 84.2145 75.0805 86.2856 72.3679 88.2774C69.6552 90.2692 69.1315 95.2724 69.6133 96.6507C70.0165 98.0381 69.7951 98.8612 71.7391 101.822C71.7391 101.822 63.6298 109.388 73.7811 119.755C73.7811 119.755 72.9435 132.208 86.1325 135.923C86.1325 135.923 92.874 149.799 104.549 143.409C104.549 143.409 108.854 151.513 118.553 148.622C123.947 146.396 124.025 145.032 126.854 144.7Z" fill="url(#paint12_radial_985_5103)"/>
<path d="M126.854 144.7C126.854 144.7 130.865 148.295 135.738 147.724C140.611 147.153 143.249 144.532 143.249 144.532C143.249 144.532 147.86 139.05 150.731 139.749C153.603 140.449 157.465 141.431 161.809 139.089C166.223 136.658 167.839 132.802 167.839 132.802C167.839 132.802 170.046 128.558 173.726 128.685C177.407 128.811 181.863 127.412 183.928 125.337C185.994 123.262 187.546 121.565 188.085 118.712C188.624 115.859 189.936 113.474 194.124 112.505C198.312 111.536 202.24 108.365 203.393 104.643C204.547 100.921 203.707 97.1935 203.707 97.1935C203.707 97.1935 204.797 95.631 205.939 95.1784C207.16 94.7165 213.482 90.2292 213.853 85.9612C214.225 81.6932 212.4 77.0449 212.4 77.0449C212.4 77.0449 222.572 70.7514 213.542 57.064C213.542 57.064 216.539 44.6769 204.07 38.9648C204.07 38.9648 200.765 26.5194 188.847 29.5104C188.847 29.5104 184.009 20.2735 174.122 24.9395C172.241 25.8773 170.739 25.9737 170.739 25.9737C170.739 25.9737 168.448 23.4525 165.831 22.8825C163.214 22.3125 161.67 22.7326 159.446 23.4714C157.223 24.2103 153.411 27.686 151.117 27.1578C149.586 27.0183 149.803 25.4785 143.977 26.0816C142.817 26.377 139.147 27.684 136.458 30.5498C133.769 33.4156 131.877 32.92 131.877 32.92C131.877 32.92 127.619 32.622 126.075 33.0421C124.531 33.4622 120.773 34.6998 117.521 39.5445C115.817 41.9761 113.094 42.5344 113.094 42.5344C113.094 42.5344 105.964 42.8918 102.338 47.9398C99.2014 51.7349 102.433 51.4358 96.8826 55.0356C93.2867 56.9715 91.5753 55.9765 87.3949 61.7271C85.5477 64.9725 87.9292 65.5702 85.536 68.2419C83.1428 70.9136 81.4458 70.714 79.3805 72.7893C77.3152 74.8647 73.1157 73.0454 76.4292 84.2145C76.4292 84.2145 75.0805 86.2856 72.3679 88.2774C69.6552 90.2692 69.1315 95.2724 69.6133 96.6507C70.0165 98.0381 69.7951 98.8612 71.7391 101.822C71.7391 101.822 63.6298 109.388 73.7811 119.755C73.7811 119.755 72.9435 132.208 86.1325 135.923C86.1325 135.923 92.874 149.799 104.549 143.409C104.549 143.409 108.854 151.513 118.553 148.622C123.947 146.396 124.025 145.032 126.854 144.7Z" fill="url(#paint13_linear_985_5103)" fill-opacity="0.5"/>
</g>
<g filter="url(#filter11_d_985_5103)">
<path d="M198.421 39.1535C200.992 39.331 204.829 39.4401 204.513 42.8257C204.201 45.573 199.992 48.3778 202.329 51.2935C203.968 53.0153 207.786 52.967 207.599 56.0984C207.599 60.8025 198.651 63.2849 201.975 68.477C202.813 69.4952 203.965 70.4765 204.054 71.9013C204.129 72.5304 203.977 73.2657 203.658 73.9408C201.753 78.7084 194.565 79.2308 193.354 84.4753C192.87 86.4454 194.116 88.2132 193.632 90.1833C192.968 92.6529 190.807 94.5802 188.552 95.7212C186.661 96.5802 184.568 97.0644 182.696 98.0808C180.598 99.2033 178.751 101.094 178.069 103.406C177.668 104.729 177.512 106.102 176.866 107.374C175.495 109.926 172.843 111.752 169.973 112.406C166.691 112.95 163.089 112.813 160.415 115.12C158.285 116.645 157.307 119.151 155.793 121.162C153.151 124.421 148.705 125.898 144.719 124.531C142.161 123.794 139.398 124.675 137.18 126.131C135.267 127.471 133.901 129.385 132.057 130.637C129.04 132.744 125.13 133.361 122.261 130.667C120.581 129.269 118.196 129.309 116.209 130.02C112.853 131.29 109.898 134.586 106.111 134.232C104.669 134.162 103.397 133.513 102.767 132.231C102.165 131.186 101.928 129.858 100.892 129.182C98.7127 127.603 95.7504 128.827 93.4581 129.653C91.2537 130.549 88.2769 130.977 86.8279 128.835C85.564 126.909 87.4103 123.664 85.2407 122.164C83.0525 120.506 79.7625 122.326 77.4317 121.483C76.2663 121.061 75.5165 120.112 75.446 118.845C75.2078 116.162 78.7829 112.714 76.0393 110.404C74.7208 109.362 72.3033 109.805 71.1233 108.587C68.513 105.385 72.9206 102.238 74.0968 99.3892C75.9925 94.5429 70.1639 95.7832 71.1818 91.5978C72.1211 87.4216 77.991 85.8576 78.343 81.4313C78.379 80.3906 77.805 79.5807 77.4574 78.6646C76.3908 75.0421 80.452 72.3344 83.2105 70.7359C85.4376 69.359 87.9737 67.2284 87.8834 64.4484C87.6172 61.5295 89.566 59.1487 91.9502 57.7535C93.5073 56.7739 95.3653 56.3173 97.0196 55.4858C99.2747 54.3449 101.201 52.4451 101.952 50.045C102.703 47.6449 104.63 45.7451 106.815 44.692C108.165 43.976 109.727 43.7134 111.211 43.46C114.109 43.0411 116.858 41.3639 118.483 38.9413C120.228 36.1857 122.991 33.9489 126.291 33.5626C127.863 33.3787 129.274 33.8514 130.845 33.6675C134.627 33.3047 137.032 30.0731 139.98 28.0538C141.911 26.871 144.518 26.0078 146.682 26.791C152.765 30.3846 156.429 23.657 162.037 23.2399C166.849 22.8362 165.092 27.5067 170.703 26.4513C173.662 25.8659 176.739 23.5923 179.855 24.3438C181.002 24.6082 181.95 25.2148 182.169 26.3852C182.415 27.7915 182.532 29.4522 184.109 29.9852C186.713 31.1156 189.924 29.3046 192.601 29.7089C196.102 30.3357 195.803 32.5234 194.941 35.3351C194.407 37.5503 196.341 39.0781 198.421 39.1535ZM106.898 74.9798C108.209 72.594 106.58 70.9508 104.094 71.481C101.519 71.9418 97.6243 74.7098 98.6949 77.694C99.6858 79.3321 102.015 78.8203 103.522 78.0859C104.871 77.3698 106.105 76.3484 106.898 74.9798ZM124.444 106.732C125.556 104.688 124.5 102.5 122.106 102.461C119.004 102.505 115.543 104.903 115.121 108.062C114.915 111.036 118.753 111.145 120.703 110.12C122.288 109.376 123.669 108.258 124.444 106.732ZM155.233 45.1647C155.889 43.9718 155.633 42.4868 154.223 42.0141C151.744 41.2677 148.74 42.8151 147.226 44.8262C145.633 46.8464 146.453 49.0626 149.222 48.898C151.589 48.7007 154.052 47.2963 155.233 45.1647ZM176.928 74.2786C178.022 72.0776 176.374 70.2772 173.998 70.3958C171.377 70.4634 168.697 72.0527 167.543 74.4202C166.03 77.7865 169.683 79.0333 172.35 78.0036C174.268 77.3805 176.112 76.1283 176.928 74.2786ZM124.829 56.8556C126.7 55.8393 129.332 52.5015 126.543 51.1535C123.704 50.0507 117.683 53.7053 119.115 57.0459C120.517 58.7953 123.193 57.8443 124.829 56.8556ZM137.861 77.4156C143.628 73.6313 140.322 68.5965 134.519 72.0663C128.665 75.7811 131.979 80.8946 137.861 77.4156ZM102.228 99.4455C104.003 98.2811 106.136 96.1178 105.159 93.92C103.057 90.9768 97.9239 94.0492 96.6318 96.5923C94.4951 100.749 99.4285 101.368 102.228 99.4455ZM173.494 55.3857C175.199 54.3092 177.245 52.0765 175.981 50.1514C173.816 48.0129 169.957 49.7402 168.11 51.6308C164.124 56.3229 169.877 57.8024 173.494 55.3857ZM152.459 100.424C158.599 96.436 154.896 90.7302 148.639 94.4125C142.499 98.4001 146.203 104.106 152.459 100.424Z" fill="white"/>
<path d="M201.695 51.8012L201.717 51.8282L201.741 51.8532C202.253 52.3916 202.906 52.7627 203.514 53.0602C203.773 53.1874 204.041 53.3085 204.295 53.4235C204.341 53.4442 204.386 53.4646 204.431 53.4849C204.731 53.6208 205.011 53.7502 205.272 53.8873C205.804 54.1653 206.192 54.4407 206.442 54.7648C206.672 55.0628 206.824 55.4504 206.788 56.0489L206.786 56.073L206.786 56.0972C206.786 57.0027 206.358 57.861 205.62 58.7761C205.093 59.4292 204.474 60.0371 203.821 60.6784C203.539 60.9557 203.25 61.2392 202.96 61.5353C202.045 62.468 201.123 63.5211 200.686 64.7388C200.224 66.0283 200.333 67.4189 201.291 68.9144L201.317 68.9553L201.348 68.9927C201.52 69.2018 201.707 69.4123 201.883 69.6108C201.934 69.6678 201.983 69.7237 202.032 69.7784C202.256 70.0325 202.461 70.2724 202.64 70.5166C202.997 71.0034 203.212 71.4558 203.243 71.9509L203.244 71.9734L203.247 71.9958C203.299 72.4383 203.193 73.0198 202.923 73.5934L202.912 73.6156L202.903 73.6384C202.106 75.6333 200.251 76.8033 198.111 78.1524C198.012 78.2152 197.912 78.2784 197.811 78.3421C195.655 79.7047 193.255 81.3022 192.563 84.2856C192.279 85.4471 192.501 86.5348 192.684 87.4314L192.696 87.4904C192.891 88.447 193.033 89.2022 192.844 89.9804C192.263 92.1278 190.341 93.9007 188.199 94.9883C187.439 95.3323 186.647 95.6133 185.813 95.9091C185.658 95.9643 185.501 96.02 185.342 96.0767C184.346 96.4332 183.304 96.8255 182.31 97.3652C180.075 98.5618 178.049 100.603 177.29 103.173C177.15 103.635 177.033 104.125 176.923 104.584C176.872 104.8 176.821 105.01 176.771 105.208C176.607 105.852 176.425 106.443 176.145 106.997C174.903 109.303 172.477 110.995 169.814 111.609C169.122 111.723 168.415 111.806 167.683 111.892C167.581 111.904 167.478 111.916 167.374 111.928C166.533 112.028 165.664 112.137 164.809 112.304C163.104 112.638 161.391 113.215 159.911 114.48C158.74 115.327 157.905 116.425 157.193 117.513C156.919 117.93 156.671 118.332 156.431 118.722C156.014 119.398 155.619 120.039 155.151 120.661C152.704 123.672 148.612 125.007 144.982 123.762L144.962 123.756L144.943 123.75C142.068 122.921 139.055 123.928 136.733 125.451L136.723 125.458L136.713 125.465C135.708 126.169 134.852 127.016 134.061 127.799L134.02 127.839C133.2 128.65 132.449 129.387 131.599 129.965L131.599 129.965L131.591 129.971C128.742 131.96 125.292 132.4 122.817 130.075L122.799 130.059L122.781 130.043C120.789 128.386 118.059 128.495 115.934 129.255L115.927 129.258L115.92 129.26C115.014 129.603 114.152 130.076 113.331 130.566C112.971 130.78 112.632 130.99 112.299 131.195C111.84 131.479 111.392 131.757 110.915 132.03C109.317 132.95 107.817 133.575 106.186 133.423L106.168 133.421L106.15 133.42C104.923 133.36 103.964 132.825 103.496 131.874L103.485 131.85L103.471 131.827C103.344 131.606 103.232 131.362 103.111 131.085C103.084 131.024 103.056 130.96 103.028 130.894C102.934 130.677 102.833 130.44 102.724 130.216C102.441 129.628 102.046 128.972 101.352 128.513C100.021 127.556 98.4892 127.485 97.0854 127.713C95.8536 127.914 94.6153 128.366 93.577 128.745C93.4416 128.794 93.3095 128.842 93.1814 128.889L93.1661 128.894L93.151 128.9C92.1103 129.323 90.9355 129.614 89.8916 129.571C88.8703 129.53 88.0441 129.179 87.5046 128.385C87.2998 128.071 87.1972 127.668 87.1632 127.14C87.1373 126.738 87.1525 126.332 87.1694 125.88C87.1756 125.714 87.182 125.542 87.1867 125.362C87.2186 124.14 87.1772 122.525 85.7172 121.505C84.3446 120.475 82.6744 120.569 81.3055 120.709C81.0995 120.731 80.9009 120.753 80.7075 120.775C80.2123 120.83 79.7522 120.882 79.2947 120.9C78.6713 120.924 78.1485 120.878 77.7075 120.719C76.8344 120.403 76.3094 119.728 76.2578 118.801L76.2571 118.788L76.2559 118.774C76.2122 118.283 76.3416 117.7 76.5912 116.989C76.7138 116.64 76.8564 116.284 77.0073 115.907L77.0081 115.905C77.1564 115.535 77.3126 115.145 77.4495 114.754C77.7198 113.983 77.9492 113.121 77.8811 112.257C77.8095 111.349 77.4142 110.5 76.5626 109.782L76.5529 109.774L76.5429 109.766C75.7543 109.143 74.6909 108.948 73.8725 108.798C73.806 108.786 73.7411 108.774 73.6781 108.763C72.7335 108.586 72.1126 108.421 71.7298 108.045C71.2238 107.412 71.0856 106.83 71.1317 106.267C71.1813 105.658 71.4523 105.002 71.8882 104.273C72.2377 103.688 72.6566 103.114 73.0945 102.514C73.2049 102.362 73.3166 102.209 73.4286 102.054C73.9646 101.311 74.5139 100.51 74.8484 99.7002L74.8513 99.6932L74.8541 99.6861C75.3741 98.3567 75.421 97.2944 75.0479 96.403C74.6901 95.548 73.9999 95.0034 73.4555 94.5955C73.389 94.5457 73.3246 94.4978 73.2623 94.4514C72.7598 94.0775 72.3932 93.8047 72.1461 93.4423C71.9194 93.1098 71.7641 92.6451 71.9719 91.7909L71.972 91.7909L71.9751 91.7772C72.3616 90.0587 73.7277 88.8305 75.3452 87.3764C75.4055 87.3221 75.4662 87.2676 75.5272 87.2127C77.125 85.7743 78.9484 84.0755 79.1534 81.4968L79.1549 81.4787L79.1555 81.4605C79.1792 80.7777 78.9999 80.1929 78.7968 79.6951C78.7081 79.4777 78.6091 79.2641 78.5191 79.0698C78.5078 79.0452 78.4965 79.021 78.4855 78.997C78.3885 78.7872 78.3022 78.5966 78.2288 78.4067C77.8258 76.9949 78.3753 75.709 79.4975 74.4928C80.6349 73.2601 82.2464 72.2346 83.619 71.4392L83.629 71.4334L83.6389 71.4273C84.7856 70.7183 86.0554 69.79 87.0339 68.6474C88.0149 67.5019 88.75 66.0836 88.696 64.4231L88.6952 64.3994L88.693 64.3757C88.4672 61.8988 90.1168 59.7687 92.3617 58.455L92.3729 58.4485L92.3839 58.4415C93.0932 57.9953 93.8856 57.6593 94.747 57.3205C94.8876 57.2652 95.0307 57.2096 95.1755 57.1534C95.8966 56.8733 96.6612 56.5762 97.3857 56.2121L97.3876 56.2111C99.7843 54.9985 101.895 52.9491 102.728 50.2887C103.399 48.1456 105.141 46.4012 107.169 45.4243L107.183 45.4174L107.197 45.41C108.408 44.7675 109.832 44.5203 111.339 44.2629C114.451 43.81 117.403 42.0127 119.159 39.3946L119.165 39.3858L119.17 39.3767C120.828 36.7598 123.4 34.7194 126.387 34.3699C127.073 34.2895 127.734 34.3507 128.491 34.424L128.523 34.4271C129.247 34.4973 130.063 34.5764 130.932 34.4757C133.042 34.2711 134.732 33.2676 136.221 32.1271C136.836 31.6553 137.435 31.1456 138.014 30.6527C138.132 30.5516 138.25 30.4512 138.367 30.352C139.059 29.7658 139.729 29.213 140.423 28.7362C142.261 27.6154 144.545 26.9195 146.34 27.5317C147.974 28.48 149.493 28.768 150.943 28.6194C152.389 28.4712 153.705 27.8943 154.925 27.2345C155.471 26.9396 156.013 26.6193 156.543 26.3064C156.606 26.2689 156.669 26.2316 156.732 26.1944C157.328 25.843 157.91 25.5033 158.501 25.1984C159.683 24.5885 160.852 24.1432 162.098 24.0505L162.098 24.0505L162.106 24.0498C163.172 23.9605 163.785 24.1553 164.21 24.4141C164.624 24.6657 164.917 25.0025 165.306 25.4491C165.355 25.506 165.406 25.5647 165.459 25.6252C165.905 26.1334 166.467 26.7322 167.354 27.0913C168.244 27.4514 169.356 27.532 170.855 27.2501L170.862 27.2487C171.669 27.0891 172.465 26.8184 173.231 26.53C173.558 26.4066 173.869 26.2844 174.175 26.1643C174.615 25.9917 175.043 25.8233 175.495 25.6614C176.993 25.1247 178.35 24.8167 179.666 25.1339L179.674 25.1357C180.675 25.3666 181.235 25.8226 181.369 26.529C181.388 26.6399 181.407 26.7587 181.428 26.8832C181.523 27.47 181.639 28.1849 181.883 28.8077C182.198 29.6145 182.762 30.3756 183.817 30.7438C185.358 31.4007 187.025 31.1774 188.472 30.9195C188.698 30.8792 188.918 30.8382 189.134 30.7981C190.391 30.5646 191.475 30.3632 192.47 30.5109C193.264 30.6543 193.765 30.873 194.078 31.1075C194.376 31.3302 194.538 31.5903 194.62 31.907C194.709 32.2456 194.714 32.679 194.628 33.2325C194.543 33.7835 194.376 34.4024 194.164 35.0959L194.156 35.1195L194.151 35.1435C193.812 36.5489 194.266 37.7713 195.13 38.6246C195.967 39.4514 197.167 39.9181 198.379 39.9652C198.475 39.9718 198.572 39.9784 198.669 39.9849C199.923 40.0694 201.243 40.1583 202.261 40.546C202.793 40.7486 203.167 41.0076 203.398 41.3257C203.618 41.6273 203.766 42.0611 203.704 42.7406C203.644 43.2524 203.395 43.8205 203.008 44.4902C202.825 44.8057 202.624 45.1238 202.413 45.4592L202.381 45.5091C202.161 45.8573 201.931 46.2236 201.72 46.5949C201.305 47.3277 200.919 48.1576 200.832 49.0456C200.74 49.9751 200.979 50.908 201.695 51.8012ZM107.602 75.3883L107.607 75.3801L107.611 75.3719C108.369 73.9923 108.384 72.5908 107.536 71.6067C106.723 70.6647 105.35 70.3854 103.936 70.6833C102.483 70.9468 100.728 71.8324 99.4618 73.0565C98.1992 74.2766 97.2368 76.0363 97.9297 77.9674L97.9572 78.0441L97.9994 78.1138C98.6951 79.2641 99.8579 79.6102 100.93 79.5923C101.983 79.5746 103.062 79.2147 103.879 78.8165L103.891 78.8104L103.904 78.8039C105.349 78.0371 106.713 76.9211 107.602 75.3883ZM122.118 101.648L122.105 101.648L122.093 101.648C120.349 101.673 118.542 102.354 117.113 103.448C115.684 104.543 114.562 106.109 114.315 107.954L114.311 107.979L114.31 108.005C114.245 108.937 114.499 109.723 115.021 110.318C115.527 110.896 116.222 111.222 116.922 111.383C118.292 111.698 119.928 111.44 121.065 110.848C122.751 110.054 124.286 108.833 125.164 107.111C125.824 105.891 125.877 104.548 125.31 103.467C124.732 102.368 123.579 101.672 122.118 101.648ZM155.945 45.5594L155.946 45.5567C156.359 44.8054 156.509 43.9198 156.287 43.1062C156.057 42.2646 155.443 41.5662 154.48 41.2435L154.468 41.2395L154.456 41.2359C152.981 40.7916 151.407 41.0436 150.037 41.641C148.667 42.2381 147.426 43.2105 146.581 44.3296C145.674 45.4839 145.33 46.8606 145.846 48.0127C146.382 49.2087 147.675 49.8042 149.271 49.7093L149.281 49.7088L149.291 49.708C151.892 49.4912 154.615 47.9579 155.945 45.5594ZM166.812 74.0634L166.807 74.0747L166.802 74.0862C166.366 75.0546 166.261 75.9679 166.502 76.7764C166.744 77.5887 167.303 78.1815 167.977 78.566C169.281 79.3104 171.112 79.3465 172.623 78.7699C174.657 78.1045 176.722 76.743 177.665 74.6243C178.326 73.2805 178.189 71.9409 177.397 70.9582C176.631 70.0062 175.354 69.5169 173.966 69.5836C171.071 69.6619 168.108 71.404 166.812 74.0634ZM126.896 50.4219L126.867 50.4077L126.837 50.396C125.909 50.0356 124.811 50.0894 123.782 50.3516C122.737 50.6175 121.673 51.1198 120.756 51.7705C119.844 52.4181 119.032 53.2456 118.548 54.1895C118.057 55.1493 117.894 56.2603 118.367 57.3651L118.411 57.4671L118.481 57.5537C119.425 58.7321 120.783 58.9478 121.995 58.7829C123.187 58.6208 124.365 58.0839 125.234 57.5607C126.303 56.9751 127.546 55.7721 128.166 54.4819C128.481 53.8277 128.68 53.0577 128.508 52.2935C128.328 51.4877 127.772 50.8452 126.896 50.4219ZM138.276 78.1153L138.292 78.1056L138.308 78.0952C139.841 77.0893 140.844 75.9536 141.334 74.8184C141.828 73.6763 141.804 72.5067 141.213 71.5832C140.624 70.6624 139.571 70.1457 138.333 70.0941C137.098 70.0426 135.648 70.4434 134.101 71.3686L134.091 71.3741L134.082 71.3799C132.526 72.3674 131.504 73.4942 131.001 74.628C130.494 75.7694 130.511 76.944 131.103 77.8742C131.692 78.8003 132.75 79.3243 133.998 79.3818C135.243 79.4391 136.709 79.0424 138.276 78.1153ZM105.902 93.5907L105.868 93.5155L105.82 93.4485C105.147 92.5059 104.213 92.0389 103.208 91.9302C102.23 91.8246 101.209 92.0572 100.276 92.4496C98.434 93.224 96.6595 94.743 95.9074 96.2223C95.3207 97.3646 95.138 98.4198 95.4404 99.3199C95.7503 100.242 96.4992 100.798 97.3252 101.07C98.92 101.596 101.111 101.196 102.682 100.12C103.621 99.5036 104.691 98.6013 105.405 97.5179C106.126 96.4225 106.543 95.033 105.902 93.5907ZM176.661 49.7061L176.614 49.6341L176.552 49.5736C175.181 48.2195 173.325 48.1548 171.711 48.5962C170.095 49.0379 168.544 50.022 167.528 51.0624L167.508 51.0826L167.49 51.1042C166.438 52.3426 165.9 53.5128 165.949 54.5734C166.001 55.7041 166.705 56.486 167.606 56.9095C168.481 57.3208 169.581 57.4259 170.672 57.2844C171.77 57.142 172.925 56.7422 173.938 56.0675C174.859 55.4843 175.898 54.5771 176.546 53.5091C177.204 52.4257 177.53 51.0292 176.661 49.7061ZM152.872 101.124L152.888 101.115L152.902 101.105C156.11 99.0226 157.193 96.1452 155.882 94.1035C154.583 92.0812 151.5 91.785 148.226 93.7119L148.211 93.721L148.196 93.7307C144.988 95.8135 143.905 98.6909 145.216 100.733C146.515 102.755 149.598 103.051 152.872 101.124Z" stroke="url(#paint14_linear_985_5103)" stroke-width="1.62581"/>
</g>
</g>
</g>
</g>
<defs>
<filter id="filter0_i_985_5103" x="65.8023" y="22.8616" width="88.7328" height="77.3547" filterUnits="userSpaceOnUse" color-interpolation-filters="sRGB">
<feFlood flood-opacity="0" result="BackgroundImageFix"/>
<feBlend mode="normal" in="SourceGraphic" in2="BackgroundImageFix" result="shape"/>
<feColorMatrix in="SourceAlpha" type="matrix" values="0 0 0 0 0 0 0 0 0 0 0 0 0 0 0 0 0 0 127 0" result="hardAlpha"/>
<feOffset dx="-0.812903" dy="-2.43871"/>
<feGaussianBlur stdDeviation="3.25161"/>
<feComposite in2="hardAlpha" operator="arithmetic" k2="-1" k3="1"/>
<feColorMatrix type="matrix" values="0 0 0 0 0.633576 0 0 0 0 0.708414 0 0 0 0 0.85809 0 0 0 0.67 0"/>
<feBlend mode="normal" in2="shape" result="effect1_innerShadow_985_5103"/>
</filter>
<filter id="filter1_d_985_5103" x="65.9601" y="25.6539" width="87.7298" height="72.199" filterUnits="userSpaceOnUse" color-interpolation-filters="sRGB">
<feFlood flood-opacity="0" result="BackgroundImageFix"/>
<feColorMatrix in="SourceAlpha" type="matrix" values="0 0 0 0 0 0 0 0 0 0 0 0 0 0 0 0 0 0 127 0" result="hardAlpha"/>
<feOffset dx="1.62581" dy="3.25161"/>
<feGaussianBlur stdDeviation="1.62581"/>
<feColorMatrix type="matrix" values="0 0 0 0 1 0 0 0 0 1 0 0 0 0 1 0 0 0 1 0"/>
<feBlend mode="normal" in2="BackgroundImageFix" result="effect1_dropShadow_985_5103"/>
<feBlend mode="normal" in="SourceGraphic" in2="effect1_dropShadow_985_5103" result="shape"/>
</filter>
<filter id="filter2_d_985_5103" x="62.632" y="18.7952" width="87.3864" height="78.1279" filterUnits="userSpaceOnUse" color-interpolation-filters="sRGB">
<feFlood flood-opacity="0" result="BackgroundImageFix"/>
<feColorMatrix in="SourceAlpha" type="matrix" values="0 0 0 0 0 0 0 0 0 0 0 0 0 0 0 0 0 0 127 0" result="hardAlpha"/>
<feOffset dy="3.25161"/>
<feGaussianBlur stdDeviation="0.812903"/>
<feColorMatrix type="matrix" values="0 0 0 0 0.664046 0 0 0 0 0.628125 0 0 0 0 0.871875 0 0 0 0.67 0"/>
<feBlend mode="normal" in2="BackgroundImageFix" result="effect1_dropShadow_985_5103"/>
<feBlend mode="normal" in="SourceGraphic" in2="effect1_dropShadow_985_5103" result="shape"/>
</filter>
<filter id="filter3_d_985_5103" x="58.168" y="11.3449" width="91.1715" height="79.7934" filterUnits="userSpaceOnUse" color-interpolation-filters="sRGB">
<feFlood flood-opacity="0" result="BackgroundImageFix"/>
<feColorMatrix in="SourceAlpha" type="matrix" values="0 0 0 0 0 0 0 0 0 0 0 0 0 0 0 0 0 0 127 0" result="hardAlpha"/>
<feOffset dx="1.62581" dy="3.25161"/>
<feGaussianBlur stdDeviation="0.812903"/>
<feColorMatrix type="matrix" values="0 0 0 0 0.570702 0 0 0 0 0.507292 0 0 0 0 0.942708 0 0 0 0.78 0"/>
<feBlend mode="normal" in2="BackgroundImageFix" result="effect1_dropShadow_985_5103"/>
<feBlend mode="normal" in="SourceGraphic" in2="effect1_dropShadow_985_5103" result="shape"/>
</filter>
<filter id="filter4_i_985_5103" x="57.3551" y="8.9062" width="88.7328" height="77.3547" filterUnits="userSpaceOnUse" color-interpolation-filters="sRGB">
<feFlood flood-opacity="0" result="BackgroundImageFix"/>
<feBlend mode="normal" in="SourceGraphic" in2="BackgroundImageFix" result="shape"/>
<feColorMatrix in="SourceAlpha" type="matrix" values="0 0 0 0 0 0 0 0 0 0 0 0 0 0 0 0 0 0 127 0" result="hardAlpha"/>
<feOffset dx="-0.812903" dy="-2.43871"/>
<feGaussianBlur stdDeviation="3.25161"/>
<feComposite in2="hardAlpha" operator="arithmetic" k2="-1" k3="1"/>
<feColorMatrix type="matrix" values="0 0 0 0 0.722674 0 0 0 0 0.771447 0 0 0 0 0.868993 0 0 0 0.67 0"/>
<feBlend mode="normal" in2="shape" result="effect1_innerShadow_985_5103"/>
</filter>
<filter id="filter5_d_985_5103" x="57.5109" y="11.6985" width="87.7298" height="72.199" filterUnits="userSpaceOnUse" color-interpolation-filters="sRGB">
<feFlood flood-opacity="0" result="BackgroundImageFix"/>
<feColorMatrix in="SourceAlpha" type="matrix" values="0 0 0 0 0 0 0 0 0 0 0 0 0 0 0 0 0 0 127 0" result="hardAlpha"/>
<feOffset dx="1.62581" dy="3.25161"/>
<feGaussianBlur stdDeviation="1.62581"/>
<feColorMatrix type="matrix" values="0 0 0 0 1 0 0 0 0 1 0 0 0 0 1 0 0 0 1 0"/>
<feBlend mode="normal" in2="BackgroundImageFix" result="effect1_dropShadow_985_5103"/>
<feBlend mode="normal" in="SourceGraphic" in2="effect1_dropShadow_985_5103" result="shape"/>
</filter>
<filter id="filter6_i_985_5103" x="82.1383" y="43.767" width="149.42" height="129.067" filterUnits="userSpaceOnUse" color-interpolation-filters="sRGB">
<feFlood flood-opacity="0" result="BackgroundImageFix"/>
<feBlend mode="normal" in="SourceGraphic" in2="BackgroundImageFix" result="shape"/>
<feColorMatrix in="SourceAlpha" type="matrix" values="0 0 0 0 0 0 0 0 0 0 0 0 0 0 0 0 0 0 127 0" result="hardAlpha"/>
<feOffset dx="-0.812903" dy="-2.43871"/>
<feGaussianBlur stdDeviation="3.25161"/>
<feComposite in2="hardAlpha" operator="arithmetic" k2="-1" k3="1"/>
<feColorMatrix type="matrix" values="0 0 0 0 0.633576 0 0 0 0 0.708414 0 0 0 0 0.85809 0 0 0 0.67 0"/>
<feBlend mode="normal" in2="shape" result="effect1_innerShadow_985_5103"/>
</filter>
<filter id="filter7_d_985_5103" x="82.9582" y="46.8035" width="143.798" height="117.547" filterUnits="userSpaceOnUse" color-interpolation-filters="sRGB">
<feFlood flood-opacity="0" result="BackgroundImageFix"/>
<feColorMatrix in="SourceAlpha" type="matrix" values="0 0 0 0 0 0 0 0 0 0 0 0 0 0 0 0 0 0 127 0" result="hardAlpha"/>
<feOffset dx="1.62581" dy="3.25161"/>
<feGaussianBlur stdDeviation="1.62581"/>
<feColorMatrix type="matrix" values="0 0 0 0 1 0 0 0 0 1 0 0 0 0 1 0 0 0 1 0"/>
<feBlend mode="normal" in2="BackgroundImageFix" result="effect1_dropShadow_985_5103"/>
<feBlend mode="normal" in="SourceGraphic" in2="effect1_dropShadow_985_5103" result="shape"/>
</filter>
<filter id="filter8_d_985_5103" x="77.3351" y="35.2104" width="145.463" height="128.69" filterUnits="userSpaceOnUse" color-interpolation-filters="sRGB">
<feFlood flood-opacity="0" result="BackgroundImageFix"/>
<feColorMatrix in="SourceAlpha" type="matrix" values="0 0 0 0 0 0 0 0 0 0 0 0 0 0 0 0 0 0 127 0" result="hardAlpha"/>
<feOffset dy="3.25161"/>
<feGaussianBlur stdDeviation="0.812903"/>
<feColorMatrix type="matrix" values="0 0 0 0 0.664046 0 0 0 0 0.628125 0 0 0 0 0.871875 0 0 0 0.67 0"/>
<feBlend mode="normal" in2="BackgroundImageFix" result="effect1_dropShadow_985_5103"/>
<feBlend mode="normal" in="SourceGraphic" in2="effect1_dropShadow_985_5103" result="shape"/>
</filter>
<filter id="filter9_d_985_5103" x="68.6719" y="22.6174" width="151.859" height="131.505" filterUnits="userSpaceOnUse" color-interpolation-filters="sRGB">
<feFlood flood-opacity="0" result="BackgroundImageFix"/>
<feColorMatrix in="SourceAlpha" type="matrix" values="0 0 0 0 0 0 0 0 0 0 0 0 0 0 0 0 0 0 127 0" result="hardAlpha"/>
<feOffset dx="1.62581" dy="3.25161"/>
<feGaussianBlur stdDeviation="0.812903"/>
<feColorMatrix type="matrix" values="0 0 0 0 0.570702 0 0 0 0 0.507292 0 0 0 0 0.942708 0 0 0 0.78 0"/>
<feBlend mode="normal" in2="BackgroundImageFix" result="effect1_dropShadow_985_5103"/>
<feBlend mode="normal" in="SourceGraphic" in2="effect1_dropShadow_985_5103" result="shape"/>
</filter>
<filter id="filter10_i_985_5103" x="67.859" y="20.1787" width="149.42" height="129.067" filterUnits="userSpaceOnUse" color-interpolation-filters="sRGB">
<feFlood flood-opacity="0" result="BackgroundImageFix"/>
<feBlend mode="normal" in="SourceGraphic" in2="BackgroundImageFix" result="shape"/>
<feColorMatrix in="SourceAlpha" type="matrix" values="0 0 0 0 0 0 0 0 0 0 0 0 0 0 0 0 0 0 127 0" result="hardAlpha"/>
<feOffset dx="-0.812903" dy="-2.43871"/>
<feGaussianBlur stdDeviation="3.25161"/>
<feComposite in2="hardAlpha" operator="arithmetic" k2="-1" k3="1"/>
<feColorMatrix type="matrix" values="0 0 0 0 0.722674 0 0 0 0 0.771447 0 0 0 0 0.868993 0 0 0 0.67 0"/>
<feBlend mode="normal" in2="shape" result="effect1_innerShadow_985_5103"/>
</filter>
<filter id="filter11_d_985_5103" x="68.6847" y="23.2151" width="143.798" height="117.546" filterUnits="userSpaceOnUse" color-interpolation-filters="sRGB">
<feFlood flood-opacity="0" result="BackgroundImageFix"/>
<feColorMatrix in="SourceAlpha" type="matrix" values="0 0 0 0 0 0 0 0 0 0 0 0 0 0 0 0 0 0 127 0" result="hardAlpha"/>
<feOffset dx="1.62581" dy="3.25161"/>
<feGaussianBlur stdDeviation="1.62581"/>
<feColorMatrix type="matrix" values="0 0 0 0 1 0 0 0 0 1 0 0 0 0 1 0 0 0 1 0"/>
<feBlend mode="normal" in2="BackgroundImageFix" result="effect1_dropShadow_985_5103"/>
<feBlend mode="normal" in="SourceGraphic" in2="effect1_dropShadow_985_5103" result="shape"/>
</filter>
<radialGradient id="paint0_radial_985_5103" cx="0" cy="0" r="1" gradientUnits="userSpaceOnUse" gradientTransform="translate(148.219 222.363) rotate(90) scale(55.1693 318.574)">
<stop stop-color="#D3DEEB"/>
<stop offset="0.148052" stop-color="#E2EBF5" stop-opacity="0.869792"/>
<stop offset="1" stop-color="white" stop-opacity="0"/>
</radialGradient>
<radialGradient id="paint1_radial_985_5103" cx="0" cy="0" r="1" gradientUnits="userSpaceOnUse" gradientTransform="translate(108.184 57.1251) rotate(61.6081) scale(35.5394 49.6276)">
<stop stop-color="#DCE2EF"/>
<stop offset="0.860243" stop-color="#E5E9F3"/>
<stop offset="1" stop-color="#D2DBEC"/>
</radialGradient>
<radialGradient id="paint2_radial_985_5103" cx="0" cy="0" r="1" gradientUnits="userSpaceOnUse" gradientTransform="translate(104.53 48.3453) rotate(43.1211) scale(71.617 48.3789)">
<stop stop-color="white"/>
<stop offset="1" stop-color="#F5F6F8"/>
</radialGradient>
<linearGradient id="paint3_linear_985_5103" x1="152.507" y1="68.5655" x2="86.0888" y2="79.4614" gradientUnits="userSpaceOnUse">
<stop stop-color="white"/>
<stop offset="1" stop-color="white" stop-opacity="0"/>
</linearGradient>
<radialGradient id="paint4_radial_985_5103" cx="0" cy="0" r="1" gradientUnits="userSpaceOnUse" gradientTransform="translate(45.2097 32.6538) rotate(90) scale(32.6538 46.1415)">
<stop stop-color="#9480FE"/>
<stop offset="0.796178" stop-color="#937FFB"/>
<stop offset="0.872964" stop-color="#CAC0FE"/>
<stop offset="0.927083" stop-color="#9783FD"/>
<stop offset="0.989583" stop-color="#7067D6"/>
</radialGradient>
<radialGradient id="paint5_radial_985_5103" cx="0" cy="0" r="1" gradientUnits="userSpaceOnUse" gradientTransform="translate(99.7371 43.1697) rotate(61.6081) scale(35.5394 49.6276)">
<stop stop-color="#DCE2EF"/>
<stop offset="0.860243" stop-color="#E9EDF5"/>
<stop offset="1" stop-color="#BBC9E3"/>
</radialGradient>
<linearGradient id="paint6_linear_985_5103" x1="141.82" y1="21.6304" x2="58.085" y2="57.8769" gradientUnits="userSpaceOnUse">
<stop stop-color="white" stop-opacity="0"/>
<stop offset="0.162377" stop-color="#E4E9F4"/>
<stop offset="0.304856" stop-color="#E4E9F4"/>
<stop offset="0.389299" stop-color="white" stop-opacity="0"/>
<stop offset="0.449395" stop-color="#E4E9F4"/>
<stop offset="0.52677" stop-color="#EFF2F8"/>
<stop offset="0.585369" stop-color="white" stop-opacity="0"/>
<stop offset="0.628608" stop-color="#DEE4F1"/>
<stop offset="0.7066" stop-color="#E2E8F3" stop-opacity="0"/>
<stop offset="0.746908" stop-color="#E7EBF5"/>
<stop offset="1" stop-color="white" stop-opacity="0"/>
</linearGradient>
<linearGradient id="paint7_linear_985_5103" x1="144.058" y1="54.6101" x2="77.6396" y2="65.506" gradientUnits="userSpaceOnUse">
<stop stop-color="#F6F8FB"/>
<stop offset="1" stop-color="white" stop-opacity="0"/>
</linearGradient>
<radialGradient id="paint8_radial_985_5103" cx="0" cy="0" r="1" gradientUnits="userSpaceOnUse" gradientTransform="translate(153.215 99.9981) rotate(61.6081) scale(60.0711 83.8838)">
<stop stop-color="#DCE2EF"/>
<stop offset="0.860243" stop-color="#F2F4F9"/>
<stop offset="1" stop-color="#EDF1F7"/>
</radialGradient>
<radialGradient id="paint9_radial_985_5103" cx="0" cy="0" r="1" gradientUnits="userSpaceOnUse" gradientTransform="translate(147.029 85.1579) rotate(43.1211) scale(121.052 81.7732)">
<stop stop-color="white"/>
<stop offset="1" stop-color="#F5F6F8"/>
</radialGradient>
<linearGradient id="paint10_linear_985_5103" x1="228.124" y1="119.335" x2="115.859" y2="137.752" gradientUnits="userSpaceOnUse">
<stop stop-color="white"/>
<stop offset="1" stop-color="white" stop-opacity="0"/>
</linearGradient>
<radialGradient id="paint11_radial_985_5103" cx="0" cy="0" r="1" gradientUnits="userSpaceOnUse" gradientTransform="translate(76.4164 55.1935) rotate(90) scale(55.1935 77.9914)">
<stop stop-color="#9480FE"/>
<stop offset="0.796178" stop-color="#937FFB"/>
<stop offset="0.872964" stop-color="#CAC0FE"/>
<stop offset="0.927083" stop-color="#9783FD"/>
<stop offset="0.989583" stop-color="#7067D6"/>
</radialGradient>
<radialGradient id="paint12_radial_985_5103" cx="0" cy="0" r="1" gradientUnits="userSpaceOnUse" gradientTransform="translate(138.935 76.4098) rotate(61.6081) scale(60.0711 83.8838)">
<stop stop-color="#DCE2EF"/>
<stop offset="0.860243" stop-color="#F2F4F9"/>
<stop offset="1" stop-color="#EDF1F7"/>
</radialGradient>
<linearGradient id="paint13_linear_985_5103" x1="210.067" y1="40.0026" x2="68.5321" y2="101.269" gradientUnits="userSpaceOnUse">
<stop stop-color="white" stop-opacity="0"/>
<stop offset="0.162377" stop-color="#E4E9F4"/>
<stop offset="0.304856" stop-color="#E4E9F4"/>
<stop offset="0.389299" stop-color="white" stop-opacity="0"/>
<stop offset="0.449395" stop-color="#E4E9F4"/>
<stop offset="0.52677" stop-color="#EFF2F8"/>
<stop offset="0.585369" stop-color="white" stop-opacity="0"/>
<stop offset="0.628608" stop-color="#DEE4F1"/>
<stop offset="0.7066" stop-color="#E2E8F3" stop-opacity="0"/>
<stop offset="0.746908" stop-color="#E7EBF5"/>
<stop offset="1" stop-color="white" stop-opacity="0"/>
</linearGradient>
<linearGradient id="paint14_linear_985_5103" x1="213.851" y1="95.7471" x2="101.585" y2="114.164" gradientUnits="userSpaceOnUse">
<stop stop-color="white"/>
<stop offset="1" stop-color="white" stop-opacity="0"/>
</linearGradient>
<clipPath id="clip0_985_5103">
<rect width="300" height="250" fill="white"/>
</clipPath>
<clipPath id="clip1_985_5103">
<rect width="176.4" height="164.206" fill="white" transform="translate(56.0898 10)"/>
</clipPath>
</defs>
</svg>
