<svg width="198" height="162" viewBox="0 0 198 162" fill="none" xmlns="http://www.w3.org/2000/svg">
<path d="M18.2295 91.404C17.6722 88.1107 15.7595 86.464 12.4915 86.464C10.0088 86.464 8.14685 87.4267 6.90552 89.352C5.66418 91.2773 5.09418 94.4313 5.19552 98.814C5.70218 97.294 6.66485 96.1033 8.08352 95.242C9.52752 94.3553 11.1742 93.912 13.0235 93.912C15.6835 93.912 17.7862 94.7353 19.3315 96.382C20.9022 98.0033 21.6875 100.245 21.6875 103.108C21.6875 104.78 21.3582 106.3 20.6995 107.668C20.0662 109.011 19.0782 110.087 17.7355 110.898C16.4182 111.709 14.7715 112.114 12.7955 112.114C9.02085 112.114 6.41152 110.911 4.96752 108.504C3.54885 106.097 2.83952 102.69 2.83952 98.282C2.83952 88.9087 6.05685 84.222 12.4915 84.222C14.9235 84.222 16.8362 84.8933 18.2295 86.236C19.6228 87.5533 20.4462 89.276 20.6995 91.404H18.2295ZM12.5295 96.192C11.3388 96.192 10.2115 96.4327 9.14752 96.914C8.08352 97.3953 7.20952 98.13 6.52552 99.118C5.86685 100.081 5.53752 101.271 5.53752 102.69C5.53752 104.742 6.14552 106.452 7.36152 107.82C8.57752 109.188 10.3508 109.872 12.6815 109.872C14.6322 109.872 16.1902 109.277 17.3555 108.086C18.5208 106.895 19.1035 105.274 19.1035 103.222C19.1035 101.018 18.5335 99.2953 17.3935 98.054C16.2535 96.8127 14.6322 96.192 12.5295 96.192ZM26.472 98.13C26.472 93.7727 27.1433 90.3907 28.486 87.984C29.8286 85.5773 32.2353 84.374 35.706 84.374C39.1766 84.374 41.5833 85.5773 42.926 87.984C44.2686 90.3907 44.94 93.7727 44.94 98.13C44.94 102.563 44.2686 105.996 42.926 108.428C41.5833 110.86 39.1766 112.076 35.706 112.076C32.21 112.076 29.7906 110.86 28.448 108.428C27.1306 105.996 26.472 102.563 26.472 98.13ZM42.318 98.13C42.318 95.774 42.1533 93.7853 41.824 92.164C41.4946 90.5427 40.8486 89.238 39.886 88.25C38.9233 87.262 37.53 86.768 35.706 86.768C33.882 86.768 32.4886 87.262 31.526 88.25C30.5633 89.238 29.9173 90.5427 29.588 92.164C29.2586 93.7853 29.094 95.774 29.094 98.13C29.094 100.562 29.2586 102.601 29.588 104.248C29.9173 105.869 30.5633 107.174 31.526 108.162C32.4886 109.15 33.882 109.644 35.706 109.644C37.53 109.644 38.9233 109.15 39.886 108.162C40.8486 107.174 41.4946 105.869 41.824 104.248C42.1533 102.601 42.318 100.562 42.318 98.13ZM86.8397 85.78V112H84.1797V91.062L74.8317 112H72.8937L63.5457 91.138V112H60.8857V85.78H63.6977L73.8437 108.504L83.9897 85.78H86.8397ZM94.204 87.338C93.672 87.338 93.216 87.148 92.836 86.768C92.456 86.388 92.266 85.9193 92.266 85.362C92.266 84.8047 92.456 84.3487 92.836 83.994C93.216 83.614 93.672 83.424 94.204 83.424C94.736 83.424 95.192 83.614 95.572 83.994C95.952 84.3487 96.142 84.8047 96.142 85.362C96.142 85.9193 95.952 86.388 95.572 86.768C95.192 87.148 94.736 87.338 94.204 87.338ZM95.534 91.252V112H92.874V91.252H95.534ZM104.218 83.88V112H101.558V83.88H104.218ZM112.901 83.88V112H110.241V83.88H112.901ZM120.255 87.338C119.723 87.338 119.267 87.148 118.887 86.768C118.507 86.388 118.317 85.9193 118.317 85.362C118.317 84.8047 118.507 84.3487 118.887 83.994C119.267 83.614 119.723 83.424 120.255 83.424C120.787 83.424 121.243 83.614 121.623 83.994C122.003 84.3487 122.193 84.8047 122.193 85.362C122.193 85.9193 122.003 86.388 121.623 86.768C121.243 87.148 120.787 87.338 120.255 87.338ZM121.585 91.252V112H118.925V91.252H121.585ZM136.69 112.304C134.74 112.304 132.979 111.873 131.408 111.012C129.863 110.125 128.634 108.884 127.722 107.288C126.836 105.667 126.392 103.779 126.392 101.626C126.392 99.4727 126.848 97.598 127.76 96.002C128.672 94.3807 129.914 93.1393 131.484 92.278C133.055 91.3913 134.816 90.948 136.766 90.948C138.717 90.948 140.478 91.3913 142.048 92.278C143.644 93.1393 144.886 94.3807 145.772 96.002C146.684 97.598 147.14 99.4727 147.14 101.626C147.14 103.754 146.684 105.629 145.772 107.25C144.86 108.871 143.606 110.125 142.01 111.012C140.414 111.873 138.641 112.304 136.69 112.304ZM136.69 109.986C138.058 109.986 139.325 109.682 140.49 109.074C141.656 108.441 142.593 107.503 143.302 106.262C144.037 104.995 144.404 103.45 144.404 101.626C144.404 99.802 144.05 98.2693 143.34 97.028C142.631 95.7613 141.694 94.824 140.528 94.216C139.363 93.5827 138.096 93.266 136.728 93.266C135.36 93.266 134.094 93.5827 132.928 94.216C131.763 94.824 130.826 95.7613 130.116 97.028C129.432 98.2693 129.09 99.802 129.09 101.626C129.09 103.45 129.432 104.995 130.116 106.262C130.826 107.503 131.75 108.441 132.89 109.074C134.056 109.682 135.322 109.986 136.69 109.986ZM161.717 90.872C164.2 90.872 166.227 91.6447 167.797 93.19C169.368 94.71 170.153 96.9267 170.153 99.84V112H167.531V100.144C167.531 97.8893 166.961 96.1667 165.821 94.976C164.707 93.7853 163.174 93.19 161.223 93.19C159.222 93.19 157.626 93.8233 156.435 95.09C155.245 96.3567 154.649 98.2187 154.649 100.676V112H151.989V91.252H154.649V94.786C155.308 93.5193 156.258 92.5567 157.499 91.898C158.741 91.214 160.147 90.872 161.717 90.872ZM195.15 99.08H186.676V107.63H184.206V99.08H175.77V96.8H184.206V88.25H186.676V96.8H195.15V99.08Z" fill="white"/>
<path d="M6.6875 145.602C5.43229 145.602 4.4401 146.021 3.71094 146.859C2.98698 147.693 2.625 148.836 2.625 150.289C2.625 151.784 2.97396 152.94 3.67188 153.758C4.375 154.57 5.375 154.977 6.67188 154.977C7.46875 154.977 8.3776 154.833 9.39844 154.547V155.711C8.60677 156.008 7.63021 156.156 6.46875 156.156C4.78646 156.156 3.48698 155.646 2.57031 154.625C1.65885 153.604 1.20312 152.154 1.20312 150.273C1.20312 149.096 1.42188 148.065 1.85938 147.18C2.30208 146.294 2.9375 145.612 3.76562 145.133C4.59896 144.654 5.57812 144.414 6.70312 144.414C7.90104 144.414 8.94792 144.633 9.84375 145.07L9.28125 146.211C8.41667 145.805 7.55208 145.602 6.6875 145.602ZM19.0859 151.711C19.0859 153.107 18.7344 154.198 18.0312 154.984C17.3281 155.766 16.3568 156.156 15.1172 156.156C14.3516 156.156 13.6719 155.977 13.0781 155.617C12.4844 155.258 12.026 154.742 11.7031 154.07C11.3802 153.398 11.2188 152.612 11.2188 151.711C11.2188 150.315 11.5677 149.229 12.2656 148.453C12.9635 147.672 13.9323 147.281 15.1719 147.281C16.3698 147.281 17.3203 147.68 18.0234 148.477C18.7318 149.273 19.0859 150.352 19.0859 151.711ZM12.5625 151.711C12.5625 152.805 12.7812 153.638 13.2188 154.211C13.6562 154.784 14.2995 155.07 15.1484 155.07C15.9974 155.07 16.6406 154.786 17.0781 154.219C17.5208 153.646 17.7422 152.81 17.7422 151.711C17.7422 150.622 17.5208 149.797 17.0781 149.234C16.6406 148.667 15.9922 148.383 15.1328 148.383C14.2839 148.383 13.6432 148.661 13.2109 149.219C12.7786 149.776 12.5625 150.607 12.5625 151.711ZM32.2812 156V150.43C32.2812 149.747 32.1354 149.237 31.8438 148.898C31.5521 148.555 31.099 148.383 30.4844 148.383C29.6771 148.383 29.0807 148.615 28.6953 149.078C28.3099 149.542 28.1172 150.255 28.1172 151.219V156H26.8203V150.43C26.8203 149.747 26.6745 149.237 26.3828 148.898C26.0911 148.555 25.6354 148.383 25.0156 148.383C24.2031 148.383 23.6068 148.628 23.2266 149.117C22.8516 149.602 22.6641 150.398 22.6641 151.508V156H21.3672V147.438H22.4219L22.6328 148.609H22.6953C22.9401 148.193 23.2839 147.867 23.7266 147.633C24.1745 147.398 24.6745 147.281 25.2266 147.281C26.5651 147.281 27.4401 147.766 27.8516 148.734H27.9141C28.1693 148.286 28.5391 147.932 29.0234 147.672C29.5078 147.411 30.0599 147.281 30.6797 147.281C31.6484 147.281 32.3724 147.531 32.8516 148.031C33.3359 148.526 33.5781 149.32 33.5781 150.414V156H32.2812ZM40.2422 156.156C39.6849 156.156 39.1745 156.055 38.7109 155.852C38.2526 155.643 37.8672 155.326 37.5547 154.898H37.4609C37.5234 155.398 37.5547 155.872 37.5547 156.32V159.844H36.2578V147.438H37.3125L37.4922 148.609H37.5547C37.888 148.141 38.276 147.802 38.7188 147.594C39.1615 147.385 39.6693 147.281 40.2422 147.281C41.3776 147.281 42.2526 147.669 42.8672 148.445C43.487 149.221 43.7969 150.31 43.7969 151.711C43.7969 153.117 43.4818 154.211 42.8516 154.992C42.2266 155.768 41.3568 156.156 40.2422 156.156ZM40.0547 148.383C39.1797 148.383 38.5469 148.625 38.1562 149.109C37.7656 149.594 37.5651 150.365 37.5547 151.422V151.711C37.5547 152.914 37.7552 153.776 38.1562 154.297C38.5573 154.812 39.2005 155.07 40.0859 155.07C40.8255 155.07 41.4036 154.771 41.8203 154.172C42.2422 153.573 42.4531 152.747 42.4531 151.695C42.4531 150.628 42.2422 149.81 41.8203 149.242C41.4036 148.669 40.8151 148.383 40.0547 148.383ZM47.3672 156H46.0703V143.844H47.3672V156ZM51.4141 156H50.1172V147.438H51.4141V156ZM50.0078 145.117C50.0078 144.82 50.0807 144.604 50.2266 144.469C50.3724 144.328 50.5547 144.258 50.7734 144.258C50.9818 144.258 51.1615 144.328 51.3125 144.469C51.4635 144.609 51.5391 144.826 51.5391 145.117C51.5391 145.409 51.4635 145.628 51.3125 145.773C51.1615 145.914 50.9818 145.984 50.7734 145.984C50.5547 145.984 50.3724 145.914 50.2266 145.773C50.0807 145.628 50.0078 145.409 50.0078 145.117ZM59.4297 156L59.1719 154.781H59.1094C58.6823 155.318 58.2552 155.682 57.8281 155.875C57.4062 156.062 56.8776 156.156 56.2422 156.156C55.3932 156.156 54.7266 155.938 54.2422 155.5C53.763 155.062 53.5234 154.44 53.5234 153.633C53.5234 151.904 54.9062 150.997 57.6719 150.914L59.125 150.867V150.336C59.125 149.664 58.9792 149.169 58.6875 148.852C58.401 148.529 57.9401 148.367 57.3047 148.367C56.5911 148.367 55.7839 148.586 54.8828 149.023L54.4844 148.031C54.9062 147.802 55.3672 147.622 55.8672 147.492C56.3724 147.362 56.8776 147.297 57.3828 147.297C58.4036 147.297 59.1589 147.523 59.6484 147.977C60.1432 148.43 60.3906 149.156 60.3906 150.156V156H59.4297ZM56.5 155.086C57.3073 155.086 57.9401 154.865 58.3984 154.422C58.862 153.979 59.0938 153.359 59.0938 152.562V151.789L57.7969 151.844C56.7656 151.88 56.0208 152.042 55.5625 152.328C55.1094 152.609 54.8828 153.049 54.8828 153.648C54.8828 154.117 55.0234 154.474 55.3047 154.719C55.5911 154.964 55.9896 155.086 56.5 155.086ZM68.9297 156V150.461C68.9297 149.763 68.7708 149.242 68.4531 148.898C68.1354 148.555 67.638 148.383 66.9609 148.383C66.0651 148.383 65.4089 148.625 64.9922 149.109C64.5755 149.594 64.3672 150.393 64.3672 151.508V156H63.0703V147.438H64.125L64.3359 148.609H64.3984C64.6641 148.188 65.0365 147.862 65.5156 147.633C65.9948 147.398 66.5286 147.281 67.1172 147.281C68.1484 147.281 68.9245 147.531 69.4453 148.031C69.9661 148.526 70.2266 149.32 70.2266 150.414V156H68.9297ZM75.6641 155.086C75.8932 155.086 76.1146 155.07 76.3281 155.039C76.5417 155.003 76.7109 154.966 76.8359 154.93V155.922C76.6953 155.99 76.487 156.044 76.2109 156.086C75.9401 156.133 75.6953 156.156 75.4766 156.156C73.8203 156.156 72.9922 155.284 72.9922 153.539V148.445H71.7656V147.82L72.9922 147.281L73.5391 145.453H74.2891V147.438H76.7734V148.445H74.2891V153.484C74.2891 154 74.4115 154.396 74.6562 154.672C74.901 154.948 75.237 155.086 75.6641 155.086ZM90.1484 147.906C90.1484 149.062 89.7526 149.953 88.9609 150.578C88.1745 151.198 87.0469 151.508 85.5781 151.508H84.2344V156H82.9062V144.578H85.8672C88.7214 144.578 90.1484 145.688 90.1484 147.906ZM84.2344 150.367H85.4297C86.6068 150.367 87.4583 150.177 87.9844 149.797C88.5104 149.417 88.7734 148.807 88.7734 147.969C88.7734 147.214 88.526 146.651 88.0312 146.281C87.5365 145.911 86.7656 145.727 85.7188 145.727H84.2344V150.367ZM97.6172 156L97.3594 154.781H97.2969C96.8698 155.318 96.4427 155.682 96.0156 155.875C95.5938 156.062 95.0651 156.156 94.4297 156.156C93.5807 156.156 92.9141 155.938 92.4297 155.5C91.9505 155.062 91.7109 154.44 91.7109 153.633C91.7109 151.904 93.0938 150.997 95.8594 150.914L97.3125 150.867V150.336C97.3125 149.664 97.1667 149.169 96.875 148.852C96.5885 148.529 96.1276 148.367 95.4922 148.367C94.7786 148.367 93.9714 148.586 93.0703 149.023L92.6719 148.031C93.0938 147.802 93.5547 147.622 94.0547 147.492C94.5599 147.362 95.0651 147.297 95.5703 147.297C96.5911 147.297 97.3464 147.523 97.8359 147.977C98.3307 148.43 98.5781 149.156 98.5781 150.156V156H97.6172ZM94.6875 155.086C95.4948 155.086 96.1276 154.865 96.5859 154.422C97.0495 153.979 97.2812 153.359 97.2812 152.562V151.789L95.9844 151.844C94.9531 151.88 94.2083 152.042 93.75 152.328C93.2969 152.609 93.0703 153.049 93.0703 153.648C93.0703 154.117 93.2109 154.474 93.4922 154.719C93.7786 154.964 94.1771 155.086 94.6875 155.086ZM108.266 147.438V148.258L106.68 148.445C106.826 148.628 106.956 148.867 107.07 149.164C107.185 149.456 107.242 149.786 107.242 150.156C107.242 150.995 106.956 151.664 106.383 152.164C105.81 152.664 105.023 152.914 104.023 152.914C103.768 152.914 103.529 152.893 103.305 152.852C102.753 153.143 102.477 153.51 102.477 153.953C102.477 154.188 102.573 154.362 102.766 154.477C102.958 154.586 103.289 154.641 103.758 154.641H105.273C106.201 154.641 106.911 154.836 107.406 155.227C107.906 155.617 108.156 156.185 108.156 156.93C108.156 157.878 107.776 158.599 107.016 159.094C106.255 159.594 105.146 159.844 103.688 159.844C102.568 159.844 101.703 159.635 101.094 159.219C100.49 158.802 100.188 158.214 100.188 157.453C100.188 156.932 100.354 156.482 100.688 156.102C101.021 155.721 101.49 155.464 102.094 155.328C101.875 155.229 101.69 155.076 101.539 154.867C101.393 154.659 101.32 154.417 101.32 154.141C101.32 153.828 101.404 153.555 101.57 153.32C101.737 153.086 102 152.859 102.359 152.641C101.917 152.458 101.555 152.148 101.273 151.711C100.997 151.273 100.859 150.773 100.859 150.211C100.859 149.273 101.141 148.552 101.703 148.047C102.266 147.536 103.062 147.281 104.094 147.281C104.542 147.281 104.945 147.333 105.305 147.438H108.266ZM101.438 157.438C101.438 157.901 101.633 158.253 102.023 158.492C102.414 158.732 102.974 158.852 103.703 158.852C104.792 158.852 105.596 158.688 106.117 158.359C106.643 158.036 106.906 157.596 106.906 157.039C106.906 156.576 106.763 156.253 106.477 156.07C106.19 155.893 105.651 155.805 104.859 155.805H103.305C102.716 155.805 102.258 155.945 101.93 156.227C101.602 156.508 101.438 156.911 101.438 157.438ZM102.141 150.18C102.141 150.779 102.31 151.232 102.648 151.539C102.987 151.846 103.458 152 104.062 152C105.328 152 105.961 151.385 105.961 150.156C105.961 148.87 105.32 148.227 104.039 148.227C103.43 148.227 102.961 148.391 102.633 148.719C102.305 149.047 102.141 149.534 102.141 150.18ZM113.641 156.156C112.375 156.156 111.375 155.771 110.641 155C109.911 154.229 109.547 153.159 109.547 151.789C109.547 150.409 109.885 149.312 110.562 148.5C111.245 147.688 112.159 147.281 113.305 147.281C114.378 147.281 115.227 147.635 115.852 148.344C116.477 149.047 116.789 149.977 116.789 151.133V151.953H110.891C110.917 152.958 111.169 153.721 111.648 154.242C112.133 154.763 112.812 155.023 113.688 155.023C114.609 155.023 115.521 154.831 116.422 154.445V155.602C115.964 155.799 115.529 155.94 115.117 156.023C114.711 156.112 114.219 156.156 113.641 156.156ZM113.289 148.367C112.602 148.367 112.052 148.591 111.641 149.039C111.234 149.487 110.995 150.107 110.922 150.898H115.398C115.398 150.081 115.216 149.456 114.852 149.023C114.487 148.586 113.966 148.367 113.289 148.367ZM120.883 156L117.633 147.438H119.023L120.867 152.516C121.284 153.703 121.529 154.474 121.602 154.828H121.664C121.721 154.552 121.901 153.982 122.203 153.117C122.51 152.247 123.195 150.354 124.258 147.438H125.648L122.398 156H120.883ZM128.32 156H127.023V147.438H128.32V156ZM126.914 145.117C126.914 144.82 126.987 144.604 127.133 144.469C127.279 144.328 127.461 144.258 127.68 144.258C127.888 144.258 128.068 144.328 128.219 144.469C128.37 144.609 128.445 144.826 128.445 145.117C128.445 145.409 128.37 145.628 128.219 145.773C128.068 145.914 127.888 145.984 127.68 145.984C127.461 145.984 127.279 145.914 127.133 145.773C126.987 145.628 126.914 145.409 126.914 145.117ZM134.688 156.156C133.422 156.156 132.422 155.771 131.688 155C130.958 154.229 130.594 153.159 130.594 151.789C130.594 150.409 130.932 149.312 131.609 148.5C132.292 147.688 133.206 147.281 134.352 147.281C135.424 147.281 136.273 147.635 136.898 148.344C137.523 149.047 137.836 149.977 137.836 151.133V151.953H131.938C131.964 152.958 132.216 153.721 132.695 154.242C133.18 154.763 133.859 155.023 134.734 155.023C135.656 155.023 136.568 154.831 137.469 154.445V155.602C137.01 155.799 136.576 155.94 136.164 156.023C135.758 156.112 135.266 156.156 134.688 156.156ZM134.336 148.367C133.648 148.367 133.099 148.591 132.688 149.039C132.281 149.487 132.042 150.107 131.969 150.898H136.445C136.445 150.081 136.263 149.456 135.898 149.023C135.534 148.586 135.013 148.367 134.336 148.367ZM147.047 156L145.477 150.977C145.378 150.669 145.193 149.971 144.922 148.883H144.859C144.651 149.794 144.469 150.497 144.312 150.992L142.695 156H141.195L138.859 147.438H140.219C140.771 149.589 141.19 151.227 141.477 152.352C141.768 153.477 141.935 154.234 141.977 154.625H142.039C142.096 154.328 142.188 153.945 142.312 153.477C142.443 153.003 142.555 152.628 142.648 152.352L144.219 147.438H145.625L147.156 152.352C147.448 153.247 147.646 154 147.75 154.609H147.812C147.833 154.422 147.888 154.133 147.977 153.742C148.07 153.352 148.615 151.25 149.609 147.438H150.953L148.586 156H147.047ZM158.031 153.664C158.031 154.461 157.734 155.076 157.141 155.508C156.547 155.94 155.714 156.156 154.641 156.156C153.505 156.156 152.62 155.977 151.984 155.617V154.414C152.396 154.622 152.836 154.786 153.305 154.906C153.779 155.026 154.234 155.086 154.672 155.086C155.349 155.086 155.87 154.979 156.234 154.766C156.599 154.547 156.781 154.216 156.781 153.773C156.781 153.44 156.635 153.156 156.344 152.922C156.057 152.682 155.495 152.401 154.656 152.078C153.859 151.781 153.292 151.523 152.953 151.305C152.62 151.081 152.37 150.828 152.203 150.547C152.042 150.266 151.961 149.93 151.961 149.539C151.961 148.841 152.245 148.292 152.812 147.891C153.38 147.484 154.159 147.281 155.148 147.281C156.07 147.281 156.971 147.469 157.852 147.844L157.391 148.898C156.531 148.544 155.753 148.367 155.055 148.367C154.44 148.367 153.977 148.464 153.664 148.656C153.352 148.849 153.195 149.115 153.195 149.453C153.195 149.682 153.253 149.878 153.367 150.039C153.487 150.201 153.677 150.354 153.938 150.5C154.198 150.646 154.698 150.857 155.438 151.133C156.453 151.503 157.138 151.875 157.492 152.25C157.852 152.625 158.031 153.096 158.031 153.664Z" fill="#E7E9ED"/>
<path d="M17 13C17 13.5523 16.5523 14 16 14C15.4477 14 15 13.5523 15 13C15 12.4477 15.4477 12 16 12C16.5523 12 17 12.4477 17 13Z" fill="white"/>
<path d="M13 13C13 13.5523 12.5523 14 12 14C11.4477 14 11 13.5523 11 13C11 12.4477 11.4477 12 12 12C12.5523 12 13 12.4477 13 13Z" fill="white"/>
<path d="M9 13C9 13.5523 8.55228 14 8 14C7.44772 14 7 13.5523 7 13C7 12.4477 7.44772 12 8 12C8.55228 12 9 12.4477 9 13Z" fill="white"/>
<path d="M47 41C47 40.4477 46.5523 40 46 40H14C13.4477 40 13 40.4477 13 41C13 41.5523 13.4477 42 14 42H46C46.5523 42 47 41.5523 47 41Z" fill="white"/>
<path d="M40 45C40 44.4477 39.6556 44 39.2308 44H20.7692C20.3444 44 20 44.4477 20 45C20 45.5523 20.3444 46 20.7692 46H39.2308C39.6556 46 40 45.5523 40 45Z" fill="white"/>
<path fill-rule="evenodd" clip-rule="evenodd" d="M30 36C33.3137 36 36 33.3137 36 30C36 26.6863 33.3137 24 30 24C26.6863 24 24 26.6863 24 30C24 33.3137 26.6863 36 30 36ZM30 38C34.4183 38 38 34.4183 38 30C38 25.5817 34.4183 22 30 22C25.5817 22 22 25.5817 22 30C22 34.4183 25.5817 38 30 38Z" fill="white"/>
<path fill-rule="evenodd" clip-rule="evenodd" d="M33.2928 29.7071C33.6833 29.3166 33.6833 28.6834 33.2928 28.2929C32.9023 27.9024 32.2691 27.9024 31.8786 28.2929L28.9999 31.1716L28.1212 30.2929C27.7306 29.9024 27.0975 29.9024 26.707 30.2929C26.3164 30.6834 26.3164 31.3166 26.707 31.7071L28.2927 33.2929C28.6833 33.6834 29.3164 33.6834 29.707 33.2929L30.4049 32.5949C30.408 32.5919 30.4111 32.5888 30.4141 32.5858L33.2928 29.7071Z" fill="white"/>
<path fill-rule="evenodd" clip-rule="evenodd" d="M7 10H53C54.1046 10 55 10.8954 55 12V16.5351C54.4117 16.1948 53.7286 16 53 16H7C6.27143 16 5.58835 16.1948 5 16.5351V12C5 10.8954 5.89543 10 7 10ZM5 20V47C5 48.1046 5.89543 49 7 49H21H22H26H28H53C54.1046 49 55 48.1046 55 47V26V25V21V20C55 18.8954 54.1046 18 53 18H7C5.89543 18 5 18.8954 5 20ZM28 51H26H22H21H7C4.79086 51 3 49.2091 3 47V20V12C3 9.79086 4.79086 8 7 8H53C55.2091 8 57 9.79086 57 12V20V21V25V26V47C57 49.2091 55.2091 51 53 51H28Z" fill="white"/>
</svg>
