<svg width="1920" height="779" viewBox="0 0 1920 779" fill="none" xmlns="http://www.w3.org/2000/svg">
<g clip-path="url(#clip0_781_0)">
<rect width="1920" height="780" fill="url(#paint0_linear_781_0)"/>
<path d="M1354.43 -73.6067C1358.26 -75.8158 1364.46 -75.8158 1368.29 -73.6067L1590.46 54.6647C1594.29 56.8738 1594.29 60.4555 1590.46 62.6647L1437.26 151.117C1433.43 153.326 1427.23 153.326 1423.4 151.117L1201.23 22.8451C1197.4 20.636 1197.4 17.0543 1201.23 14.8451L1354.43 -73.6067Z" fill="white" fill-opacity="0.1"/>
<path fill-rule="evenodd" clip-rule="evenodd" d="M1587 56.6647L1364.83 -71.6067C1362.91 -72.7113 1359.81 -72.7113 1357.9 -71.6067L1204.69 16.8451C1202.78 17.9497 1202.78 19.7406 1204.69 20.8451L1426.87 149.117C1428.78 150.221 1431.88 150.221 1433.79 149.117L1587 60.6647C1588.91 59.5601 1588.91 57.7693 1587 56.6647ZM1368.29 -73.6067C1364.46 -75.8158 1358.26 -75.8158 1354.43 -73.6067L1201.23 14.8451C1197.4 17.0543 1197.4 20.636 1201.23 22.8451L1423.4 151.117C1427.23 153.326 1433.43 153.326 1437.26 151.117L1590.46 62.6647C1594.29 60.4555 1594.29 56.8738 1590.46 54.6647L1368.29 -73.6067Z" fill="white" fill-opacity="0.1"/>
<path fill-rule="evenodd" clip-rule="evenodd" d="M1578.03 67.1861L1346.6 -66.4307L1350.07 -68.4307L1581.5 65.1861L1578.03 67.1861Z" fill="white" fill-opacity="0.1"/>
<path fill-rule="evenodd" clip-rule="evenodd" d="M1421.7 107.891L1276.1 23.8271L1279.56 21.8271L1425.17 105.891L1421.7 107.891Z" fill="white" fill-opacity="0.1"/>
<path fill-rule="evenodd" clip-rule="evenodd" d="M1429.36 125.588L1245.45 19.4026L1248.91 17.4026L1432.83 123.588L1429.36 125.588Z" fill="white" fill-opacity="0.1"/>
<path fill-rule="evenodd" clip-rule="evenodd" d="M1364.83 56.6646C1381.96 66.5559 1409.73 66.5559 1426.87 56.6646C1444 46.7733 1444 30.7364 1426.87 20.8451C1409.73 10.9538 1381.96 10.9538 1364.83 20.8451C1347.69 30.7364 1347.69 46.7733 1364.83 56.6646ZM1361.36 58.6646C1380.41 69.6605 1411.29 69.6605 1430.33 58.6646C1449.38 47.6688 1449.38 29.8409 1430.33 18.8451C1411.29 7.84921 1380.41 7.84921 1361.36 18.8451C1342.32 29.8409 1342.32 47.6688 1361.36 58.6646Z" fill="white" fill-opacity="0.1"/>
<path fill-rule="evenodd" clip-rule="evenodd" d="M1385.35 40.9136L1418.2 40.9136L1418.2 43.742L1380.46 43.742L1380.46 32.2175L1385.35 32.2175L1385.35 40.9136Z" fill="white" fill-opacity="0.1"/>
<path d="M1287.91 104.903C1291.74 102.694 1297.94 102.694 1301.77 104.903L1523.94 233.174C1527.77 235.383 1527.77 238.965 1523.94 241.174L1370.74 329.626C1366.91 331.835 1360.71 331.835 1356.88 329.626L1134.71 201.355C1130.88 199.146 1130.88 195.564 1134.71 193.355L1287.91 104.903Z" fill="white" fill-opacity="0.1"/>
<path fill-rule="evenodd" clip-rule="evenodd" d="M1520.48 235.174L1298.31 106.903C1296.39 105.798 1293.29 105.798 1291.38 106.903L1138.17 195.355C1136.26 196.459 1136.26 198.25 1138.17 199.355L1360.35 327.626C1362.26 328.731 1365.36 328.731 1367.28 327.626L1520.48 239.174C1522.39 238.07 1522.39 236.279 1520.48 235.174ZM1301.77 104.903C1297.94 102.694 1291.74 102.694 1287.91 104.903L1134.71 193.355C1130.88 195.564 1130.88 199.146 1134.71 201.355L1356.88 329.626C1360.71 331.835 1366.91 331.835 1370.74 329.626L1523.94 241.174C1527.77 238.965 1527.77 235.383 1523.94 233.174L1301.77 104.903Z" fill="white" fill-opacity="0.1"/>
<path fill-rule="evenodd" clip-rule="evenodd" d="M1511.51 245.696L1280.08 112.079L1283.55 110.079L1514.98 243.696L1511.51 245.696Z" fill="white" fill-opacity="0.1"/>
<path fill-rule="evenodd" clip-rule="evenodd" d="M1355.18 286.4L1209.58 202.336L1213.04 200.336L1358.65 284.4L1355.18 286.4Z" fill="white" fill-opacity="0.1"/>
<path fill-rule="evenodd" clip-rule="evenodd" d="M1362.85 304.098L1178.93 197.912L1182.39 195.912L1366.31 302.098L1362.85 304.098Z" fill="white" fill-opacity="0.1"/>
<path d="M1296.53 111.389C1295.92 111.741 1294.94 111.741 1294.33 111.389C1293.72 111.037 1293.72 110.467 1294.33 110.116C1294.94 109.764 1295.92 109.764 1296.53 110.116C1297.14 110.467 1297.14 111.037 1296.53 111.389Z" fill="white" fill-opacity="0.2"/>
<path d="M1300.94 113.936C1300.34 114.288 1299.35 114.288 1298.74 113.936C1298.13 113.585 1298.13 113.014 1298.74 112.663C1299.35 112.311 1300.34 112.311 1300.94 112.663C1301.55 113.014 1301.55 113.585 1300.94 113.936Z" fill="white" fill-opacity="0.2"/>
<path d="M1305.36 116.483C1304.75 116.835 1303.76 116.835 1303.15 116.483C1302.54 116.132 1302.54 115.561 1303.15 115.21C1303.76 114.858 1304.75 114.858 1305.36 115.21C1305.97 115.561 1305.97 116.132 1305.36 116.483Z" fill="white" fill-opacity="0.2"/>
<path fill-rule="evenodd" clip-rule="evenodd" d="M1298.31 235.174C1315.44 245.065 1343.21 245.065 1360.35 235.174C1377.48 225.283 1377.48 209.246 1360.35 199.355C1343.21 189.463 1315.44 189.463 1298.31 199.355C1281.17 209.246 1281.17 225.283 1298.31 235.174ZM1294.84 237.174C1313.89 248.17 1344.77 248.17 1363.81 237.174C1382.86 226.178 1382.86 208.35 1363.81 197.355C1344.77 186.359 1313.89 186.359 1294.84 197.355C1275.8 208.35 1275.8 226.178 1294.84 237.174Z" fill="white" fill-opacity="0.1"/>
<path fill-rule="evenodd" clip-rule="evenodd" d="M1318.84 219.423L1351.68 219.423L1351.68 222.252L1313.94 222.252L1313.94 210.727L1318.84 210.727L1318.84 219.423Z" fill="white" fill-opacity="0.1"/>
<path d="M1030.91 -43.6069C1034.74 -45.8161 1040.94 -45.8161 1044.77 -43.6069L1266.94 84.6644C1270.77 86.8736 1270.77 90.4553 1266.94 92.6644L1113.74 181.116C1109.91 183.325 1103.71 183.325 1099.88 181.116L877.709 52.8449C873.882 50.6357 873.882 47.054 877.709 44.8449L1030.91 -43.6069Z" fill="white" fill-opacity="0.1"/>
<path fill-rule="evenodd" clip-rule="evenodd" d="M1263.48 86.6644L1041.3 -41.6069C1039.39 -42.7115 1036.29 -42.7115 1034.38 -41.6069L881.173 46.8449C879.26 47.9495 879.26 49.7403 881.173 50.8449L1103.35 179.116C1105.26 180.221 1108.36 180.221 1110.27 179.116L1263.48 90.6644C1265.39 89.5599 1265.39 87.769 1263.48 86.6644ZM1044.77 -43.6069C1040.94 -45.8161 1034.74 -45.8161 1030.91 -43.6069L877.709 44.8449C873.882 47.054 873.882 50.6357 877.709 52.8449L1099.88 181.116C1103.71 183.325 1109.91 183.325 1113.74 181.116L1266.94 92.6644C1270.77 90.4553 1270.77 86.8736 1266.94 84.6644L1044.77 -43.6069Z" fill="white" fill-opacity="0.1"/>
<path fill-rule="evenodd" clip-rule="evenodd" d="M1254.51 97.1858L1023.08 -36.4309L1026.54 -38.4309L1257.98 95.1858L1254.51 97.1858Z" fill="white" fill-opacity="0.1"/>
<path fill-rule="evenodd" clip-rule="evenodd" d="M1098.18 137.89L952.579 53.8269L956.043 51.8269L1101.65 135.89L1098.18 137.89Z" fill="white" fill-opacity="0.1"/>
<path fill-rule="evenodd" clip-rule="evenodd" d="M1105.84 155.588L921.925 49.4023L925.389 47.4023L1109.31 153.588L1105.84 155.588Z" fill="white" fill-opacity="0.1"/>
<path fill-rule="evenodd" clip-rule="evenodd" d="M1041.3 86.6644C1058.44 96.5557 1086.21 96.5557 1103.34 86.6644C1120.48 76.7731 1120.48 60.7361 1103.34 50.8448C1086.21 40.9535 1058.44 40.9535 1041.3 50.8448C1024.17 60.7361 1024.17 76.7731 1041.3 86.6644ZM1037.84 88.6644C1056.88 99.6603 1087.76 99.6603 1106.81 88.6644C1125.85 77.6685 1125.85 59.8407 1106.81 48.8448C1087.76 37.849 1056.88 37.849 1037.84 48.8448C1018.79 59.8407 1018.79 77.6685 1037.84 88.6644Z" fill="white" fill-opacity="0.1"/>
<path fill-rule="evenodd" clip-rule="evenodd" d="M1061.83 70.9133L1094.68 70.9133L1094.68 73.7418L1056.93 73.7418L1056.93 62.2173L1061.83 62.2173L1061.83 70.9133Z" fill="white" fill-opacity="0.1"/>
<path d="M974.335 145.842C978.162 143.633 984.366 143.633 988.192 145.842L1210.36 274.114C1214.19 276.323 1214.19 279.905 1210.36 282.114L1057.16 370.565C1053.34 372.775 1047.13 372.775 1043.3 370.565L821.132 242.294C817.306 240.085 817.306 236.503 821.132 234.294L974.335 145.842Z" fill="white" fill-opacity="0.1"/>
<path fill-rule="evenodd" clip-rule="evenodd" d="M1206.9 276.114L984.728 147.842C982.815 146.738 979.713 146.738 977.8 147.842L824.597 236.294C822.683 237.399 822.683 239.19 824.597 240.294L1046.77 368.565C1048.68 369.67 1051.78 369.67 1053.7 368.565L1206.9 280.114C1208.81 279.009 1208.81 277.218 1206.9 276.114ZM988.192 145.842C984.366 143.633 978.162 143.633 974.335 145.842L821.132 234.294C817.306 236.503 817.306 240.085 821.132 242.294L1043.3 370.565C1047.13 372.775 1053.34 372.775 1057.16 370.565L1210.36 282.114C1214.19 279.905 1214.19 276.323 1210.36 274.114L988.192 145.842Z" fill="white" fill-opacity="0.1"/>
<path fill-rule="evenodd" clip-rule="evenodd" d="M1197.94 286.635L966.505 153.019L969.969 151.019L1201.4 284.635L1197.94 286.635Z" fill="white" fill-opacity="0.1"/>
<path fill-rule="evenodd" clip-rule="evenodd" d="M1041.6 327.339L896.003 243.276L899.467 241.276L1045.07 325.339L1041.6 327.339Z" fill="white" fill-opacity="0.1"/>
<path fill-rule="evenodd" clip-rule="evenodd" d="M1049.27 345.037L865.348 238.852L868.812 236.852L1052.73 343.037L1049.27 345.037Z" fill="white" fill-opacity="0.1"/>
<path d="M982.955 152.328C982.345 152.68 981.358 152.68 980.749 152.328C980.139 151.977 980.139 151.406 980.749 151.055C981.358 150.703 982.345 150.703 982.955 151.055C983.564 151.406 983.564 151.977 982.955 152.328Z" fill="white" fill-opacity="0.2"/>
<path d="M987.367 154.876C986.757 155.227 985.77 155.227 985.161 154.876C984.552 154.524 984.552 153.954 985.161 153.602C985.77 153.25 986.757 153.25 987.367 153.602C987.976 153.954 987.976 154.524 987.367 154.876Z" fill="white" fill-opacity="0.2"/>
<path d="M991.779 157.423C991.17 157.774 990.182 157.774 989.573 157.423C988.964 157.071 988.964 156.501 989.573 156.149C990.182 155.797 991.17 155.797 991.779 156.149C992.388 156.501 992.388 157.071 991.779 157.423Z" fill="white" fill-opacity="0.2"/>
<path fill-rule="evenodd" clip-rule="evenodd" d="M984.727 276.114C1001.86 286.005 1029.64 286.005 1046.77 276.114C1063.9 266.222 1063.9 250.185 1046.77 240.294C1029.64 230.403 1001.86 230.403 984.727 240.294C967.595 250.185 967.595 266.222 984.727 276.114ZM981.263 278.114C1000.31 289.109 1031.19 289.109 1050.23 278.114C1069.28 267.118 1069.28 249.29 1050.23 238.294C1031.19 227.298 1000.31 227.298 981.263 238.294C962.218 249.29 962.218 267.118 981.263 278.114Z" fill="white" fill-opacity="0.1"/>
<path fill-rule="evenodd" clip-rule="evenodd" d="M1005.26 260.363L1038.1 260.363L1038.1 263.191L1000.36 263.191L1000.36 251.666L1005.26 251.667L1005.26 260.363Z" fill="white" fill-opacity="0.1"/>
<path d="M902.027 329.75C905.853 327.541 912.057 327.541 915.883 329.75L1138.06 458.022C1141.88 460.231 1141.88 463.813 1138.06 466.022L984.853 554.474C981.026 556.683 974.823 556.683 970.996 554.474L748.824 426.202C744.997 423.993 744.997 420.411 748.824 418.202L902.027 329.75Z" fill="white" fill-opacity="0.1"/>
<path fill-rule="evenodd" clip-rule="evenodd" d="M1134.59 460.022L912.419 331.75C910.506 330.646 907.404 330.646 905.491 331.75L752.288 420.202C750.375 421.307 750.375 423.098 752.288 424.202L974.46 552.474C976.374 553.578 979.476 553.578 981.389 552.474L1134.59 464.022C1136.5 462.917 1136.5 461.126 1134.59 460.022ZM915.883 329.75C912.057 327.541 905.853 327.541 902.027 329.75L748.824 418.202C744.997 420.411 744.997 423.993 748.824 426.202L970.996 554.474C974.823 556.683 981.026 556.683 984.853 554.474L1138.06 466.022C1141.88 463.813 1141.88 460.231 1138.06 458.022L915.883 329.75Z" fill="white" fill-opacity="0.1"/>
<path fill-rule="evenodd" clip-rule="evenodd" d="M1125.63 470.543L894.196 336.927L897.66 334.927L1129.09 468.543L1125.63 470.543Z" fill="white" fill-opacity="0.1"/>
<path fill-rule="evenodd" clip-rule="evenodd" d="M969.296 511.248L823.694 427.184L827.158 425.184L972.76 509.248L969.296 511.248Z" fill="white" fill-opacity="0.1"/>
<path fill-rule="evenodd" clip-rule="evenodd" d="M976.958 528.945L793.04 422.76L796.504 420.76L980.423 526.945L976.958 528.945Z" fill="white" fill-opacity="0.1"/>
<path d="M910.646 336.237C910.037 336.588 909.049 336.588 908.44 336.237C907.831 335.885 907.831 335.315 908.44 334.963C909.049 334.611 910.037 334.611 910.646 334.963C911.255 335.315 911.255 335.885 910.646 336.237Z" fill="white" fill-opacity="0.2"/>
<path d="M915.058 338.784C914.449 339.136 913.461 339.136 912.852 338.784C912.243 338.432 912.243 337.862 912.852 337.51C913.461 337.159 914.449 337.159 915.058 337.51C915.667 337.862 915.667 338.432 915.058 338.784Z" fill="white" fill-opacity="0.2"/>
<path d="M919.47 341.331C918.861 341.682 917.873 341.682 917.264 341.331C916.655 340.979 916.655 340.409 917.264 340.057C917.873 339.706 918.861 339.706 919.47 340.057C920.079 340.409 920.079 340.979 919.47 341.331Z" fill="white" fill-opacity="0.2"/>
<path fill-rule="evenodd" clip-rule="evenodd" d="M912.419 460.022C929.551 469.913 957.328 469.913 974.46 460.022C991.592 450.131 991.592 434.094 974.46 424.202C957.328 414.311 929.551 414.311 912.419 424.202C895.287 434.094 895.287 450.131 912.419 460.022ZM908.955 462.022C928 473.018 958.879 473.018 977.924 462.022C996.97 451.026 996.97 433.198 977.924 422.202C958.879 411.206 928 411.206 908.955 422.202C889.909 433.198 889.909 451.026 908.955 462.022Z" fill="white" fill-opacity="0.1"/>
<path fill-rule="evenodd" clip-rule="evenodd" d="M932.948 444.271L965.793 444.271L965.793 447.099L928.049 447.099L928.049 435.575L932.948 435.575L932.948 444.271Z" fill="white" fill-opacity="0.1"/>
<path d="M1613.45 75.937C1617.28 73.7279 1623.48 73.7279 1627.31 75.937L1849.48 204.208C1853.31 206.418 1853.31 209.999 1849.48 212.208L1696.28 300.66C1692.45 302.869 1686.25 302.869 1682.42 300.66L1460.25 172.389C1456.42 170.18 1456.42 166.598 1460.25 164.389L1613.45 75.937Z" fill="white" fill-opacity="0.1"/>
<path fill-rule="evenodd" clip-rule="evenodd" d="M1846.02 206.208L1623.84 77.937C1621.93 76.8324 1618.83 76.8324 1616.92 77.937L1463.71 166.389C1461.8 167.493 1461.8 169.284 1463.71 170.389L1685.89 298.66C1687.8 299.765 1690.9 299.765 1692.81 298.66L1846.02 210.208C1847.93 209.104 1847.93 207.313 1846.02 206.208ZM1627.31 75.937C1623.48 73.7279 1617.28 73.7279 1613.45 75.937L1460.25 164.389C1456.42 166.598 1456.42 170.18 1460.25 172.389L1682.42 300.66C1686.25 302.869 1692.45 302.869 1696.28 300.66L1849.48 212.208C1853.31 209.999 1853.31 206.418 1849.48 204.208L1627.31 75.937Z" fill="white" fill-opacity="0.1"/>
<path fill-rule="evenodd" clip-rule="evenodd" d="M1837.05 216.73L1605.62 83.113L1609.08 81.113L1840.51 214.73L1837.05 216.73Z" fill="white" fill-opacity="0.1"/>
<path fill-rule="evenodd" clip-rule="evenodd" d="M1680.72 257.434L1535.12 173.371L1538.58 171.371L1684.18 255.434L1680.72 257.434Z" fill="white" fill-opacity="0.1"/>
<path fill-rule="evenodd" clip-rule="evenodd" d="M1688.38 275.132L1504.46 168.946L1507.93 166.946L1691.85 273.132L1688.38 275.132Z" fill="white" fill-opacity="0.1"/>
<path d="M1622.07 82.4233C1621.46 82.775 1620.47 82.775 1619.86 82.4233C1619.25 82.0716 1619.25 81.5014 1619.86 81.1497C1620.47 80.798 1621.46 80.798 1622.07 81.1497C1622.68 81.5014 1622.68 82.0716 1622.07 82.4233Z" fill="white" fill-opacity="0.2"/>
<path d="M1626.48 84.9704C1625.87 85.3221 1624.89 85.3221 1624.28 84.9704C1623.67 84.6187 1623.67 84.0485 1624.28 83.6968C1624.89 83.3452 1625.87 83.3452 1626.48 83.6968C1627.09 84.0485 1627.09 84.6187 1626.48 84.9704Z" fill="white" fill-opacity="0.2"/>
<path d="M1630.89 87.5175C1630.28 87.8692 1629.3 87.8692 1628.69 87.5175C1628.08 87.1658 1628.08 86.5956 1628.69 86.244C1629.3 85.8923 1630.28 85.8923 1630.89 86.244C1631.5 86.5956 1631.5 87.1658 1630.89 87.5175Z" fill="white" fill-opacity="0.2"/>
<path fill-rule="evenodd" clip-rule="evenodd" d="M1623.84 206.208C1640.98 216.1 1668.75 216.1 1685.88 206.208C1703.02 196.317 1703.02 180.28 1685.88 170.389C1668.75 160.497 1640.98 160.497 1623.84 170.389C1606.71 180.28 1606.71 196.317 1623.84 206.208ZM1620.38 208.208C1639.42 219.204 1670.3 219.204 1689.35 208.208C1708.39 197.212 1708.39 179.385 1689.35 168.389C1670.3 157.393 1639.42 157.393 1620.38 168.389C1601.33 179.385 1601.33 197.212 1620.38 208.208Z" fill="white" fill-opacity="0.1"/>
<path fill-rule="evenodd" clip-rule="evenodd" d="M1644.37 190.457L1677.22 190.457L1677.22 193.286L1639.47 193.286L1639.47 181.761L1644.37 181.761L1644.37 190.457Z" fill="white" fill-opacity="0.1"/>
<path d="M1546.93 254.447C1550.76 252.238 1556.96 252.238 1560.79 254.447L1782.96 382.719C1786.79 384.928 1786.79 388.51 1782.96 390.719L1629.76 479.17C1625.93 481.38 1619.73 481.38 1615.9 479.17L1393.73 350.899C1389.9 348.69 1389.9 345.108 1393.73 342.899L1546.93 254.447Z" fill="white" fill-opacity="0.1"/>
<path fill-rule="evenodd" clip-rule="evenodd" d="M1779.5 384.719L1557.32 256.447C1555.41 255.343 1552.31 255.343 1550.4 256.447L1397.19 344.899C1395.28 346.004 1395.28 347.795 1397.19 348.899L1619.37 477.17C1621.28 478.275 1624.38 478.275 1626.29 477.17L1779.5 388.719C1781.41 387.614 1781.41 385.823 1779.5 384.719ZM1560.79 254.447C1556.96 252.238 1550.76 252.238 1546.93 254.447L1393.73 342.899C1389.9 345.108 1389.9 348.69 1393.73 350.899L1615.9 479.17C1619.73 481.38 1625.93 481.38 1629.76 479.17L1782.96 390.719C1786.79 388.51 1786.79 384.928 1782.96 382.719L1560.79 254.447Z" fill="white" fill-opacity="0.1"/>
<path fill-rule="evenodd" clip-rule="evenodd" d="M1770.53 395.24L1539.1 261.624L1542.56 259.624L1774 393.24L1770.53 395.24Z" fill="white" fill-opacity="0.1"/>
<path fill-rule="evenodd" clip-rule="evenodd" d="M1614.2 435.944L1468.6 351.881L1472.06 349.881L1617.66 433.944L1614.2 435.944Z" fill="white" fill-opacity="0.1"/>
<path fill-rule="evenodd" clip-rule="evenodd" d="M1621.86 453.642L1437.95 347.457L1441.41 345.457L1625.33 451.642L1621.86 453.642Z" fill="white" fill-opacity="0.1"/>
<path d="M1555.55 260.933C1554.94 261.285 1553.95 261.285 1553.34 260.933C1552.74 260.582 1552.74 260.011 1553.34 259.66C1553.95 259.308 1554.94 259.308 1555.55 259.66C1556.16 260.011 1556.16 260.582 1555.55 260.933Z" fill="white" fill-opacity="0.2"/>
<path d="M1559.96 263.481C1559.35 263.832 1558.37 263.832 1557.76 263.481C1557.15 263.129 1557.15 262.559 1557.76 262.207C1558.37 261.855 1559.35 261.855 1559.96 262.207C1560.57 262.559 1560.57 263.129 1559.96 263.481Z" fill="white" fill-opacity="0.2"/>
<path d="M1564.37 266.028C1563.76 266.379 1562.78 266.379 1562.17 266.028C1561.56 265.676 1561.56 265.106 1562.17 264.754C1562.78 264.402 1563.76 264.402 1564.37 264.754C1564.98 265.106 1564.98 265.676 1564.37 266.028Z" fill="white" fill-opacity="0.2"/>
<path fill-rule="evenodd" clip-rule="evenodd" d="M1557.32 384.719C1574.46 394.61 1602.23 394.61 1619.37 384.719C1636.5 374.827 1636.5 358.79 1619.37 348.899C1602.23 339.008 1574.46 339.008 1557.32 348.899C1540.19 358.79 1540.19 374.827 1557.32 384.719ZM1553.86 386.719C1572.91 397.714 1603.78 397.714 1622.83 386.719C1641.87 375.723 1641.87 357.895 1622.83 346.899C1603.78 335.903 1572.91 335.903 1553.86 346.899C1534.81 357.895 1534.81 375.723 1553.86 386.719Z" fill="white" fill-opacity="0.1"/>
<path fill-rule="evenodd" clip-rule="evenodd" d="M1577.85 368.968L1610.7 368.968L1610.7 371.796L1572.95 371.796L1572.95 360.271L1577.85 360.271L1577.85 368.968Z" fill="white" fill-opacity="0.1"/>
<path d="M1233.35 295.387C1237.18 293.178 1243.38 293.178 1247.21 295.387L1469.38 423.659C1473.21 425.868 1473.21 429.449 1469.38 431.659L1316.18 520.11C1312.35 522.32 1306.15 522.32 1302.32 520.11L1080.15 391.839C1076.32 389.63 1076.32 386.048 1080.15 383.839L1233.35 295.387Z" fill="white" fill-opacity="0.1"/>
<path fill-rule="evenodd" clip-rule="evenodd" d="M1465.92 425.659L1243.75 297.387C1241.83 296.283 1238.73 296.283 1236.82 297.387L1083.61 385.839C1081.7 386.944 1081.7 388.734 1083.61 389.839L1305.79 518.11C1307.7 519.215 1310.8 519.215 1312.71 518.11L1465.92 429.659C1467.83 428.554 1467.83 426.763 1465.92 425.659ZM1247.21 295.387C1243.38 293.178 1237.18 293.178 1233.35 295.387L1080.15 383.839C1076.32 386.048 1076.32 389.63 1080.15 391.839L1302.32 520.11C1306.15 522.32 1312.35 522.32 1316.18 520.11L1469.38 431.659C1473.21 429.449 1473.21 425.868 1469.38 423.659L1247.21 295.387Z" fill="white" fill-opacity="0.1"/>
<path fill-rule="evenodd" clip-rule="evenodd" d="M1456.95 436.18L1225.52 302.563L1228.99 300.563L1460.42 434.18L1456.95 436.18Z" fill="white" fill-opacity="0.1"/>
<path fill-rule="evenodd" clip-rule="evenodd" d="M1300.62 476.884L1155.02 392.821L1158.48 390.821L1304.09 474.884L1300.62 476.884Z" fill="white" fill-opacity="0.1"/>
<path fill-rule="evenodd" clip-rule="evenodd" d="M1308.28 494.582L1124.37 388.396L1127.83 386.396L1311.75 492.582L1308.28 494.582Z" fill="white" fill-opacity="0.1"/>
<path d="M1241.97 301.873C1241.36 302.225 1240.38 302.225 1239.77 301.873C1239.16 301.522 1239.16 300.951 1239.77 300.6C1240.38 300.248 1241.36 300.248 1241.97 300.6C1242.58 300.951 1242.58 301.522 1241.97 301.873Z" fill="white" fill-opacity="0.2"/>
<path d="M1246.38 304.421C1245.78 304.772 1244.79 304.772 1244.18 304.421C1243.57 304.069 1243.57 303.499 1244.18 303.147C1244.79 302.795 1245.78 302.795 1246.38 303.147C1246.99 303.499 1246.99 304.069 1246.38 304.421Z" fill="white" fill-opacity="0.2"/>
<path d="M1250.8 306.967C1250.19 307.319 1249.2 307.319 1248.59 306.967C1247.98 306.616 1247.98 306.046 1248.59 305.694C1249.2 305.342 1250.19 305.342 1250.8 305.694C1251.41 306.046 1251.41 306.616 1250.8 306.967Z" fill="white" fill-opacity="0.2"/>
<path fill-rule="evenodd" clip-rule="evenodd" d="M1243.74 425.659C1260.88 435.55 1288.65 435.55 1305.79 425.659C1322.92 415.767 1322.92 399.73 1305.79 389.839C1288.65 379.948 1260.88 379.948 1243.74 389.839C1226.61 399.73 1226.61 415.767 1243.74 425.659ZM1240.28 427.659C1259.33 438.654 1290.2 438.654 1309.25 427.659C1328.3 416.663 1328.3 398.835 1309.25 387.839C1290.2 376.843 1259.33 376.843 1240.28 387.839C1221.24 398.835 1221.24 416.663 1240.28 427.659Z" fill="white" fill-opacity="0.1"/>
<path fill-rule="evenodd" clip-rule="evenodd" d="M1264.27 409.907L1297.12 409.907L1297.12 412.736L1259.38 412.736L1259.38 401.211L1264.27 401.211L1264.27 409.907Z" fill="white" fill-opacity="0.1"/>
<path d="M1161.04 479.295C1164.87 477.086 1171.07 477.086 1174.9 479.295L1397.07 607.566C1400.9 609.775 1400.9 613.357 1397.07 615.566L1243.87 704.018C1240.04 706.227 1233.84 706.227 1230.01 704.018L1007.84 575.747C1004.02 573.538 1004.02 569.956 1007.84 567.747L1161.04 479.295Z" fill="white" fill-opacity="0.1"/>
<path fill-rule="evenodd" clip-rule="evenodd" d="M1393.61 609.566L1171.44 481.295C1169.52 480.19 1166.42 480.19 1164.51 481.295L1011.31 569.747C1009.39 570.851 1009.39 572.642 1011.31 573.747L1233.48 702.018C1235.39 703.123 1238.49 703.123 1240.41 702.018L1393.61 613.566C1395.52 612.462 1395.52 610.671 1393.61 609.566ZM1174.9 479.295C1171.07 477.086 1164.87 477.086 1161.04 479.295L1007.84 567.747C1004.02 569.956 1004.02 573.538 1007.84 575.747L1230.01 704.018C1233.84 706.227 1240.04 706.227 1243.87 704.018L1397.07 615.566C1400.9 613.357 1400.9 609.775 1397.07 607.566L1174.9 479.295Z" fill="white" fill-opacity="0.1"/>
<path fill-rule="evenodd" clip-rule="evenodd" d="M1384.64 620.088L1153.21 486.471L1156.68 484.471L1388.11 618.088L1384.64 620.088Z" fill="white" fill-opacity="0.1"/>
<path fill-rule="evenodd" clip-rule="evenodd" d="M1228.31 660.792L1082.71 576.729L1086.18 574.729L1231.78 658.792L1228.31 660.792Z" fill="white" fill-opacity="0.1"/>
<path fill-rule="evenodd" clip-rule="evenodd" d="M1235.98 678.49L1052.06 572.304L1055.52 570.304L1239.44 676.49L1235.98 678.49Z" fill="white" fill-opacity="0.1"/>
<path d="M1169.66 485.781C1169.05 486.133 1168.07 486.133 1167.46 485.781C1166.85 485.429 1166.85 484.859 1167.46 484.507C1168.07 484.156 1169.05 484.156 1169.66 484.507C1170.27 484.859 1170.27 485.429 1169.66 485.781Z" fill="white" fill-opacity="0.2"/>
<path d="M1174.08 488.328C1173.47 488.68 1172.48 488.68 1171.87 488.328C1171.26 487.977 1171.26 487.406 1171.87 487.055C1172.48 486.703 1173.47 486.703 1174.08 487.055C1174.68 487.406 1174.68 487.977 1174.08 488.328Z" fill="white" fill-opacity="0.2"/>
<path d="M1178.49 490.875C1177.88 491.227 1176.89 491.227 1176.28 490.875C1175.67 490.524 1175.67 489.953 1176.28 489.602C1176.89 489.25 1177.88 489.25 1178.49 489.602C1179.1 489.953 1179.1 490.524 1178.49 490.875Z" fill="white" fill-opacity="0.2"/>
<path fill-rule="evenodd" clip-rule="evenodd" d="M1171.44 609.566C1188.57 619.458 1216.35 619.458 1233.48 609.566C1250.61 599.675 1250.61 583.638 1233.48 573.747C1216.35 563.855 1188.57 563.855 1171.44 573.747C1154.3 583.638 1154.3 599.675 1171.44 609.566ZM1167.97 611.566C1187.02 622.562 1217.9 622.562 1236.94 611.566C1255.99 600.57 1255.99 582.743 1236.94 571.747C1217.9 560.751 1187.02 560.751 1167.97 571.747C1148.93 582.743 1148.93 600.57 1167.97 611.566Z" fill="white" fill-opacity="0.1"/>
<path fill-rule="evenodd" clip-rule="evenodd" d="M1191.97 593.815L1224.81 593.815L1224.81 596.644L1187.07 596.644L1187.07 585.119L1191.97 585.119L1191.97 593.815Z" fill="white" fill-opacity="0.1"/>
<path d="M1872.47 225.481C1876.3 223.272 1882.5 223.272 1886.33 225.481L2108.5 353.753C2112.33 355.962 2112.33 359.544 2108.5 361.753L1955.3 450.205C1951.47 452.414 1945.27 452.414 1941.44 450.205L1719.27 321.933C1715.44 319.724 1715.44 316.142 1719.27 313.933L1872.47 225.481Z" fill="white" fill-opacity="0.1"/>
<path fill-rule="evenodd" clip-rule="evenodd" d="M2105.04 355.753L1882.86 227.481C1880.95 226.377 1877.85 226.377 1875.93 227.481L1722.73 315.933C1720.82 317.038 1720.82 318.829 1722.73 319.933L1944.9 448.205C1946.82 449.309 1949.92 449.309 1951.83 448.205L2105.04 359.753C2106.95 358.648 2106.95 356.857 2105.04 355.753ZM1886.33 225.481C1882.5 223.272 1876.3 223.272 1872.47 225.481L1719.27 313.933C1715.44 316.142 1715.44 319.724 1719.27 321.933L1941.44 450.205C1945.27 452.414 1951.47 452.414 1955.3 450.205L2108.5 361.753C2112.33 359.544 2112.33 355.962 2108.5 353.753L1886.33 225.481Z" fill="white" fill-opacity="0.1"/>
<path fill-rule="evenodd" clip-rule="evenodd" d="M2096.07 366.274L1864.64 232.658L1868.1 230.658L2099.53 364.274L2096.07 366.274Z" fill="white" fill-opacity="0.1"/>
<path fill-rule="evenodd" clip-rule="evenodd" d="M1939.74 406.979L1794.14 322.915L1797.6 320.915L1943.2 404.979L1939.74 406.979Z" fill="white" fill-opacity="0.1"/>
<path fill-rule="evenodd" clip-rule="evenodd" d="M1947.4 424.676L1763.48 318.491L1766.95 316.491L1950.87 422.676L1947.4 424.676Z" fill="white" fill-opacity="0.1"/>
<path d="M1881.09 231.967C1880.48 232.319 1879.49 232.319 1878.88 231.967C1878.27 231.616 1878.27 231.046 1878.88 230.694C1879.49 230.342 1880.48 230.342 1881.09 230.694C1881.7 231.046 1881.7 231.616 1881.09 231.967Z" fill="white" fill-opacity="0.2"/>
<path d="M1885.5 234.515C1884.89 234.867 1883.9 234.867 1883.29 234.515C1882.69 234.163 1882.69 233.593 1883.29 233.241C1883.9 232.89 1884.89 232.89 1885.5 233.241C1886.11 233.593 1886.11 234.163 1885.5 234.515Z" fill="white" fill-opacity="0.2"/>
<path d="M1889.91 237.062C1889.3 237.413 1888.31 237.413 1887.71 237.062C1887.1 236.71 1887.1 236.14 1887.71 235.788C1888.31 235.436 1889.3 235.436 1889.91 235.788C1890.52 236.14 1890.52 236.71 1889.91 237.062Z" fill="white" fill-opacity="0.2"/>
<path fill-rule="evenodd" clip-rule="evenodd" d="M1882.86 355.753C1899.99 365.644 1927.77 365.644 1944.9 355.753C1962.04 345.861 1962.04 329.825 1944.9 319.933C1927.77 310.042 1899.99 310.042 1882.86 319.933C1865.73 329.825 1865.73 345.861 1882.86 355.753ZM1879.4 357.753C1898.44 368.749 1929.32 368.749 1948.37 357.753C1967.41 346.757 1967.41 328.929 1948.37 317.933C1929.32 306.937 1898.44 306.937 1879.4 317.933C1860.35 328.929 1860.35 346.757 1879.4 357.753Z" fill="white" fill-opacity="0.1"/>
<path fill-rule="evenodd" clip-rule="evenodd" d="M1903.39 340.002L1936.24 340.002L1936.24 342.83L1898.49 342.83L1898.49 331.306L1903.39 331.306L1903.39 340.002Z" fill="white" fill-opacity="0.1"/>
<path d="M1805.95 403.992C1809.78 401.783 1815.98 401.783 1819.81 403.992L2041.98 532.264C2045.81 534.473 2045.81 538.054 2041.98 540.264L1888.78 628.715C1884.95 630.925 1878.75 630.925 1874.92 628.715L1652.75 500.444C1648.92 498.235 1648.92 494.653 1652.75 492.444L1805.95 403.992Z" fill="white" fill-opacity="0.1"/>
<path fill-rule="evenodd" clip-rule="evenodd" d="M2038.52 534.264L1816.34 405.992C1814.43 404.888 1811.33 404.888 1809.41 405.992L1656.21 494.444C1654.3 495.549 1654.3 497.339 1656.21 498.444L1878.38 626.715C1880.3 627.82 1883.4 627.82 1885.31 626.715L2038.52 538.264C2040.43 537.159 2040.43 535.368 2038.52 534.264ZM1819.81 403.992C1815.98 401.783 1809.78 401.783 1805.95 403.992L1652.75 492.444C1648.92 494.653 1648.92 498.235 1652.75 500.444L1874.92 628.715C1878.75 630.925 1884.95 630.925 1888.78 628.715L2041.98 540.264C2045.81 538.054 2045.81 534.473 2041.98 532.264L1819.81 403.992Z" fill="white" fill-opacity="0.1"/>
<path fill-rule="evenodd" clip-rule="evenodd" d="M2029.55 544.785L1798.12 411.168L1801.58 409.168L2033.01 542.785L2029.55 544.785Z" fill="white" fill-opacity="0.1"/>
<path fill-rule="evenodd" clip-rule="evenodd" d="M1873.22 585.489L1727.62 501.426L1731.08 499.426L1876.68 583.489L1873.22 585.489Z" fill="white" fill-opacity="0.1"/>
<path fill-rule="evenodd" clip-rule="evenodd" d="M1880.88 603.187L1696.96 497.001L1700.43 495.001L1884.35 601.187L1880.88 603.187Z" fill="white" fill-opacity="0.1"/>
<path d="M1814.57 410.478C1813.96 410.83 1812.97 410.83 1812.36 410.478C1811.75 410.127 1811.75 409.556 1812.36 409.205C1812.97 408.853 1813.96 408.853 1814.57 409.205C1815.18 409.556 1815.18 410.127 1814.57 410.478Z" fill="white" fill-opacity="0.2"/>
<path d="M1818.98 413.026C1818.37 413.377 1817.38 413.377 1816.77 413.026C1816.17 412.674 1816.17 412.104 1816.77 411.752C1817.38 411.4 1818.37 411.4 1818.98 411.752C1819.59 412.104 1819.59 412.674 1818.98 413.026Z" fill="white" fill-opacity="0.2"/>
<path d="M1823.39 415.572C1822.78 415.924 1821.8 415.924 1821.19 415.572C1820.58 415.221 1820.58 414.651 1821.19 414.299C1821.8 413.947 1822.78 413.947 1823.39 414.299C1824 414.651 1824 415.221 1823.39 415.572Z" fill="white" fill-opacity="0.2"/>
<path fill-rule="evenodd" clip-rule="evenodd" d="M1816.34 534.264C1833.47 544.155 1861.25 544.155 1878.38 534.264C1895.52 524.372 1895.52 508.335 1878.38 498.444C1861.25 488.553 1833.47 488.553 1816.34 498.444C1799.21 508.335 1799.21 524.372 1816.34 534.264ZM1812.88 536.264C1831.92 547.259 1862.8 547.259 1881.85 536.264C1900.89 525.268 1900.89 507.44 1881.85 496.444C1862.8 485.448 1831.92 485.448 1812.88 496.444C1793.83 507.44 1793.83 525.268 1812.88 536.264Z" fill="white" fill-opacity="0.1"/>
<path fill-rule="evenodd" clip-rule="evenodd" d="M1836.87 518.512L1869.72 518.512L1869.72 521.341L1831.97 521.341L1831.97 509.816L1836.87 509.816L1836.87 518.512Z" fill="white" fill-opacity="0.1"/>
<path d="M1492.37 444.932C1496.2 442.722 1502.4 442.723 1506.23 444.932L1728.4 573.203C1732.23 575.412 1732.23 578.994 1728.4 581.203L1575.2 669.655C1571.37 671.864 1565.17 671.864 1561.34 669.655L1339.17 541.383C1335.34 539.174 1335.34 535.593 1339.17 533.383L1492.37 444.932Z" fill="white" fill-opacity="0.1"/>
<path fill-rule="evenodd" clip-rule="evenodd" d="M1724.94 575.203L1502.76 446.932C1500.85 445.827 1497.75 445.827 1495.84 446.932L1342.63 535.383C1340.72 536.488 1340.72 538.279 1342.63 539.383L1564.81 667.655C1566.72 668.759 1569.82 668.759 1571.73 667.655L1724.94 579.203C1726.85 578.098 1726.85 576.308 1724.94 575.203ZM1506.23 444.932C1502.4 442.723 1496.2 442.722 1492.37 444.932L1339.17 533.383C1335.34 535.593 1335.34 539.174 1339.17 541.383L1561.34 669.655C1565.17 671.864 1571.37 671.864 1575.2 669.655L1728.4 581.203C1732.23 578.994 1732.23 575.412 1728.4 573.203L1506.23 444.932Z" fill="white" fill-opacity="0.1"/>
<path fill-rule="evenodd" clip-rule="evenodd" d="M1715.97 585.725L1484.54 452.108L1488 450.108L1719.43 583.725L1715.97 585.725Z" fill="white" fill-opacity="0.1"/>
<path fill-rule="evenodd" clip-rule="evenodd" d="M1559.64 626.429L1414.04 542.365L1417.5 540.365L1563.1 624.429L1559.64 626.429Z" fill="white" fill-opacity="0.1"/>
<path fill-rule="evenodd" clip-rule="evenodd" d="M1567.3 644.126L1383.39 537.941L1386.85 535.941L1570.77 642.126L1567.3 644.126Z" fill="white" fill-opacity="0.1"/>
<path d="M1500.99 451.418C1500.38 451.769 1499.39 451.769 1498.78 451.418C1498.17 451.066 1498.17 450.496 1498.78 450.144C1499.39 449.792 1500.38 449.792 1500.99 450.144C1501.6 450.496 1501.6 451.066 1500.99 451.418Z" fill="white" fill-opacity="0.2"/>
<path d="M1505.4 453.965C1504.79 454.317 1503.81 454.317 1503.2 453.965C1502.59 453.613 1502.59 453.043 1503.2 452.691C1503.81 452.34 1504.79 452.34 1505.4 452.691C1506.01 453.043 1506.01 453.613 1505.4 453.965Z" fill="white" fill-opacity="0.2"/>
<path d="M1509.81 456.512C1509.2 456.864 1508.22 456.864 1507.61 456.512C1507 456.16 1507 455.59 1507.61 455.238C1508.22 454.887 1509.2 454.887 1509.81 455.238C1510.42 455.59 1510.42 456.16 1509.81 456.512Z" fill="white" fill-opacity="0.2"/>
<path fill-rule="evenodd" clip-rule="evenodd" d="M1502.76 575.203C1519.9 585.094 1547.67 585.094 1564.8 575.203C1581.94 565.312 1581.94 549.275 1564.8 539.383C1547.67 529.492 1519.9 529.492 1502.76 539.383C1485.63 549.275 1485.63 565.312 1502.76 575.203ZM1499.3 577.203C1518.34 588.199 1549.22 588.199 1568.27 577.203C1587.31 566.207 1587.31 548.379 1568.27 537.383C1549.22 526.388 1518.34 526.388 1499.3 537.383C1480.25 548.379 1480.25 566.207 1499.3 577.203Z" fill="white" fill-opacity="0.1"/>
<path fill-rule="evenodd" clip-rule="evenodd" d="M1523.29 559.452L1556.14 559.452L1556.14 562.28L1518.39 562.28L1518.39 550.756L1523.29 550.756L1523.29 559.452Z" fill="white" fill-opacity="0.1"/>
<path d="M1420.06 628.839C1423.89 626.63 1430.09 626.63 1433.92 628.839L1656.09 757.111C1659.92 759.32 1659.92 762.902 1656.09 765.111L1502.89 853.563C1499.06 855.772 1492.86 855.772 1489.03 853.563L1266.86 725.291C1263.03 723.082 1263.03 719.5 1266.86 717.291L1420.06 628.839Z" fill="white" fill-opacity="0.1"/>
<path fill-rule="evenodd" clip-rule="evenodd" d="M1652.63 759.111L1430.46 630.839C1428.54 629.735 1425.44 629.735 1423.53 630.839L1270.33 719.291C1268.41 720.396 1268.41 722.187 1270.33 723.291L1492.5 851.563C1494.41 852.667 1497.51 852.667 1499.43 851.563L1652.63 763.111C1654.54 762.006 1654.54 760.215 1652.63 759.111ZM1433.92 628.839C1430.09 626.63 1423.89 626.63 1420.06 628.839L1266.86 717.291C1263.03 719.5 1263.03 723.082 1266.86 725.291L1489.03 853.563C1492.86 855.772 1499.06 855.772 1502.89 853.563L1656.09 765.111C1659.92 762.902 1659.92 759.32 1656.09 757.111L1433.92 628.839Z" fill="white" fill-opacity="0.1"/>
<path fill-rule="evenodd" clip-rule="evenodd" d="M1643.66 769.632L1412.23 636.016L1415.7 634.016L1647.13 767.632L1643.66 769.632Z" fill="white" fill-opacity="0.1"/>
<path fill-rule="evenodd" clip-rule="evenodd" d="M1487.33 810.336L1341.73 726.273L1345.2 724.273L1490.8 808.336L1487.33 810.336Z" fill="white" fill-opacity="0.1"/>
<path fill-rule="evenodd" clip-rule="evenodd" d="M1495 828.034L1311.08 721.849L1314.54 719.849L1498.46 826.034L1495 828.034Z" fill="white" fill-opacity="0.1"/>
<path d="M1428.68 635.325C1428.07 635.677 1427.09 635.677 1426.48 635.325C1425.87 634.974 1425.87 634.404 1426.48 634.052C1427.09 633.7 1428.07 633.7 1428.68 634.052C1429.29 634.404 1429.29 634.974 1428.68 635.325Z" fill="white" fill-opacity="0.2"/>
<path d="M1433.1 637.873C1432.49 638.224 1431.5 638.224 1430.89 637.873C1430.28 637.521 1430.28 636.951 1430.89 636.599C1431.5 636.247 1432.49 636.247 1433.1 636.599C1433.7 636.951 1433.7 637.521 1433.1 637.873Z" fill="white" fill-opacity="0.2"/>
<path d="M1437.51 640.42C1436.9 640.771 1435.91 640.771 1435.3 640.42C1434.69 640.068 1434.69 639.498 1435.3 639.146C1435.91 638.794 1436.9 638.794 1437.51 639.146C1438.12 639.498 1438.12 640.068 1437.51 640.42Z" fill="white" fill-opacity="0.2"/>
<path fill-rule="evenodd" clip-rule="evenodd" d="M1430.46 759.111C1447.59 769.002 1475.36 769.002 1492.5 759.111C1509.63 749.219 1509.63 733.182 1492.5 723.291C1475.36 713.4 1447.59 713.4 1430.46 723.291C1413.32 733.182 1413.32 749.219 1430.46 759.111ZM1426.99 761.111C1446.04 772.107 1476.92 772.107 1495.96 761.111C1515.01 750.115 1515.01 732.287 1495.96 721.291C1476.92 710.295 1446.04 710.295 1426.99 721.291C1407.95 732.287 1407.95 750.115 1426.99 761.111Z" fill="white" fill-opacity="0.1"/>
<path fill-rule="evenodd" clip-rule="evenodd" d="M1450.98 743.36L1483.83 743.36L1483.83 746.188L1446.09 746.188L1446.09 734.664L1450.98 734.664L1450.98 743.36Z" fill="white" fill-opacity="0.1"/>
<path d="M2064.97 553.537C2068.8 551.327 2075 551.327 2078.83 553.537L2301 681.808C2304.82 684.017 2304.82 687.599 2301 689.808L2147.8 778.26C2143.97 780.469 2137.77 780.469 2133.94 778.26L1911.77 649.988C1907.94 647.779 1907.94 644.198 1911.77 641.988L2064.97 553.537Z" fill="white" fill-opacity="0.1"/>
<path fill-rule="evenodd" clip-rule="evenodd" d="M2297.53 683.808L2075.36 555.537C2073.45 554.432 2070.35 554.432 2068.43 555.537L1915.23 643.988C1913.32 645.093 1913.32 646.884 1915.23 647.988L2137.4 776.26C2139.32 777.364 2142.42 777.364 2144.33 776.26L2297.53 687.808C2299.45 686.703 2299.45 684.913 2297.53 683.808ZM2078.83 553.537C2075 551.327 2068.8 551.327 2064.97 553.537L1911.77 641.988C1907.94 644.198 1907.94 647.779 1911.77 649.988L2133.94 778.26C2137.77 780.469 2143.97 780.469 2147.8 778.26L2301 689.808C2304.82 687.599 2304.82 684.017 2301 681.808L2078.83 553.537Z" fill="white" fill-opacity="0.1"/>
<path d="M1751.39 594.476C1755.22 592.267 1761.42 592.267 1765.25 594.476L1987.42 722.747C1991.25 724.957 1991.25 728.538 1987.42 730.747L1834.22 819.199C1830.39 821.408 1824.19 821.408 1820.36 819.199L1598.19 690.928C1594.36 688.719 1594.36 685.137 1598.19 682.928L1751.39 594.476Z" fill="white" fill-opacity="0.1"/>
<path fill-rule="evenodd" clip-rule="evenodd" d="M1983.95 724.747L1761.78 596.476C1759.87 595.372 1756.77 595.372 1754.85 596.476L1601.65 684.928C1599.74 686.032 1599.74 687.823 1601.65 688.928L1823.82 817.199C1825.74 818.304 1828.84 818.304 1830.75 817.199L1983.95 728.747C1985.87 727.643 1985.87 725.852 1983.95 724.747ZM1765.25 594.476C1761.42 592.267 1755.22 592.267 1751.39 594.476L1598.19 682.928C1594.36 685.137 1594.36 688.719 1598.19 690.928L1820.36 819.199C1824.19 821.408 1830.39 821.408 1834.22 819.199L1987.42 730.747C1991.25 728.538 1991.25 724.957 1987.42 722.747L1765.25 594.476Z" fill="white" fill-opacity="0.1"/>
<path fill-rule="evenodd" clip-rule="evenodd" d="M1974.99 735.269L1743.56 601.652L1747.02 599.652L1978.45 733.269L1974.99 735.269Z" fill="white" fill-opacity="0.1"/>
<path fill-rule="evenodd" clip-rule="evenodd" d="M1818.66 775.973L1673.06 691.91L1676.52 689.91L1822.12 773.973L1818.66 775.973Z" fill="white" fill-opacity="0.1"/>
<path fill-rule="evenodd" clip-rule="evenodd" d="M1826.32 793.671L1642.4 687.485L1645.87 685.485L1829.79 791.671L1826.32 793.671Z" fill="white" fill-opacity="0.1"/>
<path d="M1760.01 600.962C1759.4 601.314 1758.41 601.314 1757.8 600.962C1757.19 600.61 1757.19 600.04 1757.8 599.689C1758.41 599.337 1759.4 599.337 1760.01 599.689C1760.62 600.04 1760.62 600.61 1760.01 600.962Z" fill="white" fill-opacity="0.2"/>
<path d="M1764.42 603.509C1763.81 603.861 1762.82 603.861 1762.21 603.509C1761.61 603.158 1761.61 602.588 1762.21 602.236C1762.82 601.884 1763.81 601.884 1764.42 602.236C1765.03 602.588 1765.03 603.158 1764.42 603.509Z" fill="white" fill-opacity="0.2"/>
<path d="M1768.83 606.056C1768.22 606.408 1767.23 606.408 1766.63 606.056C1766.02 605.705 1766.02 605.134 1766.63 604.783C1767.23 604.431 1768.22 604.431 1768.83 604.783C1769.44 605.134 1769.44 605.705 1768.83 606.056Z" fill="white" fill-opacity="0.2"/>
<path fill-rule="evenodd" clip-rule="evenodd" d="M1761.78 724.747C1778.91 734.639 1806.69 734.639 1823.82 724.747C1840.96 714.856 1840.96 698.819 1823.82 688.928C1806.69 679.037 1778.91 679.037 1761.78 688.928C1744.65 698.819 1744.65 714.856 1761.78 724.747ZM1758.32 726.747C1777.36 737.743 1808.24 737.743 1827.29 726.747C1846.33 715.752 1846.33 697.924 1827.29 686.928C1808.24 675.932 1777.36 675.932 1758.32 686.928C1739.27 697.924 1739.27 715.752 1758.32 726.747Z" fill="white" fill-opacity="0.1"/>
<path fill-rule="evenodd" clip-rule="evenodd" d="M1782.31 708.996L1815.16 708.996L1815.16 711.825L1777.41 711.825L1777.41 700.3L1782.31 700.3L1782.31 708.996Z" fill="white" fill-opacity="0.1"/>
<path d="M1679.08 778.384C1682.91 776.175 1689.11 776.175 1692.94 778.384L1915.11 906.655C1918.94 908.864 1918.94 912.446 1915.11 914.655L1761.91 1003.11C1758.08 1005.32 1751.88 1005.32 1748.05 1003.11L1525.88 874.836C1522.05 872.626 1522.05 869.045 1525.88 866.836L1679.08 778.384Z" fill="white" fill-opacity="0.1"/>
<path fill-rule="evenodd" clip-rule="evenodd" d="M1911.65 908.655L1689.47 780.384C1687.56 779.279 1684.46 779.279 1682.55 780.384L1529.34 868.836C1527.43 869.94 1527.43 871.731 1529.34 872.836L1751.52 1001.11C1753.43 1002.21 1756.53 1002.21 1758.44 1001.11L1911.65 912.655C1913.56 911.551 1913.56 909.76 1911.65 908.655ZM1692.94 778.384C1689.11 776.175 1682.91 776.175 1679.08 778.384L1525.88 866.836C1522.05 869.045 1522.05 872.626 1525.88 874.836L1748.05 1003.11C1751.88 1005.32 1758.08 1005.32 1761.91 1003.11L1915.11 914.655C1918.94 912.446 1918.94 908.864 1915.11 906.655L1692.94 778.384Z" fill="white" fill-opacity="0.1"/>
<rect x="615" y="583" width="805" height="1" fill="white"/>
<rect x="822" y="503" width="602.011" height="1" fill="white"/>
<path fill-rule="evenodd" clip-rule="evenodd" d="M1415.95 662.996C1523.77 662.202 1631.17 638.055 1713.44 590.556C1880.78 493.943 1880.78 337.303 1713.44 240.69C1546.1 144.077 1274.79 144.077 1107.46 240.69C1040.16 279.541 999.933 328.098 986.761 378.556L984.694 379.749C997.552 328.605 1038.06 279.332 1106.22 239.979C1274.24 142.973 1546.66 142.973 1714.67 239.979C1882.69 336.984 1882.69 494.262 1714.67 591.267C1631.62 639.221 1523.05 663.47 1414.19 664.012L1415.95 662.996Z" fill="white"/>
<path fill-rule="evenodd" clip-rule="evenodd" d="M1419.44 582.991C1490.41 581.725 1560.73 565.453 1614.91 534.176C1727.83 468.982 1727.83 363.281 1614.91 298.087C1501.99 232.893 1318.91 232.893 1205.99 298.087C1177.98 314.257 1156.92 332.919 1142.81 352.836L1139.68 354.645C1153.86 333.786 1175.56 314.235 1204.76 297.376C1318.36 231.789 1502.54 231.789 1616.14 297.376C1729.74 362.963 1729.74 469.3 1616.14 534.887C1561.17 566.624 1489.67 583.004 1417.64 584.026L1419.44 582.991Z" fill="white"/>
<path fill-rule="evenodd" clip-rule="evenodd" d="M1420.26 502.987C1455.26 501.669 1489.62 493.286 1516.37 477.839C1574.87 444.064 1574.87 389.304 1516.37 355.528C1457.87 321.753 1363.03 321.753 1304.52 355.528C1300.11 358.076 1296.03 360.743 1292.28 363.512L1291.04 362.795C1294.8 360.03 1298.88 357.365 1303.29 354.817C1362.47 320.649 1458.42 320.649 1517.61 354.817C1576.79 388.985 1576.79 444.383 1517.61 478.551C1490.04 494.466 1454.49 502.968 1418.4 504.057L1420.26 502.987Z" fill="white"/>
<g opacity="0.2" clip-path="url(#clip1_781_0)" filter="url(#filter0_f_781_0)">
<path d="M1520.56 426.78L1520.66 449.38H1371.76L1371.46 400.88H1410.46L1410.66 426.78H1520.56Z" fill="#7965E5"/>
<path d="M1544.96 367.68C1603.26 401.28 1603.56 456.08 1545.66 489.78C1487.76 523.48 1393.26 523.38 1334.96 489.78C1276.66 456.08 1276.36 401.38 1334.26 367.68C1392.16 333.98 1486.66 333.98 1544.96 367.68ZM1362.36 473.78C1405.36 498.58 1475.16 498.58 1517.96 473.78C1560.66 448.98 1560.46 408.48 1517.46 383.68C1474.46 358.88 1404.66 358.88 1361.86 383.68C1319.16 408.48 1319.36 448.88 1362.36 473.78Z" fill="#7965E5"/>
<path d="M1721.16 458.78C1720.06 459.48 1693.76 476.18 1651.66 495.98C1594.86 522.78 1539.06 541.68 1485.66 552.08C1357.76 576.98 1239.16 556.68 1234.16 555.88L1224.16 554.08L1221.06 548.28C1219.56 545.38 1184.06 476.78 1226.76 402.58C1244.56 371.58 1276.96 339.18 1323.06 306.18C1357.16 281.78 1385.86 266.48 1387.06 265.88L1396.66 260.78L1622.96 322.28L1729.96 453.18L1721.16 458.78ZM1473.16 530.68C1570.06 511.78 1656.16 464.88 1683.36 448.98L1593.76 339.28L1404.26 287.78C1376.86 303.58 1296.16 353.58 1263.76 409.78C1231.96 465.18 1248.56 518.28 1255.76 535.78C1267.56 537.38 1288.86 539.78 1315.96 541.08C1354.36 542.78 1412.86 542.38 1473.16 530.68Z" fill="#7965E5"/>
</g>
<g clip-path="url(#clip2_781_0)">
<path d="M1580.12 211.231L1580.02 238.313L1394.21 187.963L1394.31 160.881L1580.12 211.231Z" fill="#6D63DE"/>
<path d="M1508.93 283.97C1522.07 292.28 1534.23 304.696 1536.58 320.632C1536.88 322.49 1536.97 324.25 1536.97 326.107L1537.07 299.026C1537.07 295.506 1536.58 291.987 1535.6 288.565C1531.58 274.878 1520.8 264.416 1509.03 256.888C1475.2 236.064 1429.7 232.349 1391.36 240.366C1363.52 246.33 1326.16 262.852 1321.75 294.333C1321.26 296.484 1321.55 322.686 1321.45 325.521C1321.45 316.624 1324.88 308.021 1330.28 300.981C1340.18 287.881 1354.99 279.473 1370.09 273.704C1412.54 257.866 1469.91 259.821 1508.93 283.97Z" fill="url(#paint1_linear_781_0)"/>
<path d="M1667.97 318.384L1667.88 345.466L1580.02 238.313L1580.12 211.231L1667.97 318.384Z" fill="url(#paint2_linear_781_0)"/>
<path d="M1362.44 318.873L1362.34 345.954L1362.04 298.537L1362.14 271.456L1362.44 318.873Z" fill="#9383F6"/>
<g filter="url(#filter1_i_781_0)">
<path d="M1508.34 296.777L1508.44 318.873H1362.44L1362.14 271.456H1400.38L1400.58 296.777H1508.34Z" fill="url(#paint3_linear_781_0)"/>
</g>
<path d="M1508.44 318.873L1508.34 345.954H1362.34L1362.44 318.873H1508.44Z" fill="#6A5EE9"/>
<path d="M1259.48 302.253C1280.27 270.185 1310.08 245.157 1340.57 222.67C1355.67 211.72 1371.26 201.553 1387.24 191.971C1389.6 190.603 1391.91 189.296 1394.26 187.927L1394.34 160.865C1390.03 163.309 1385.77 165.77 1381.56 168.41C1353.61 185.519 1326.65 204.583 1302.23 226.581C1264.19 260.604 1238.01 299.026 1238.1 348.399L1238.01 375.48C1237.81 354.167 1244.09 326.108 1259.48 302.253Z" fill="url(#paint4_linear_781_0)"/>
<path d="M1559.72 363.845C1567.66 354.851 1573.45 343.705 1574.82 331.68C1575.61 327.867 1575.02 303.328 1575.21 299.026C1575.21 306.065 1573.65 313.007 1570.8 319.459C1555.21 353.971 1512.07 371.471 1476.96 378.413C1434.51 386.527 1389.5 384.083 1348.91 368.929C1328.51 361.01 1308.61 349.571 1295.17 331.876C1287.92 322.197 1283.11 310.367 1283.21 298.146L1283.11 325.227C1283.7 363.357 1322.43 387.016 1354.79 398.162C1399.99 413.316 1451.27 413.902 1496.97 400.508C1520.4 393.469 1543.45 382.323 1559.72 363.845Z" fill="url(#paint5_linear_781_0)"/>
<g filter="url(#filter2_i_781_0)">
<path d="M1532.27 238.997C1589.43 271.847 1589.73 325.423 1532.95 358.371C1476.18 391.318 1383.52 391.221 1326.35 358.371C1269.19 325.423 1268.89 271.945 1325.67 238.997C1382.44 206.05 1475.1 206.05 1532.27 238.997ZM1353.22 342.728C1395.38 366.974 1463.82 366.974 1505.79 342.728C1547.66 318.482 1547.46 278.886 1505.3 254.64C1463.14 230.394 1394.7 230.394 1352.73 254.64C1310.86 278.886 1311.06 318.384 1353.22 342.728Z" fill="url(#paint6_linear_781_0)"/>
</g>
<path d="M1705.04 328.063C1679.35 343.803 1652.38 357.491 1624.93 370.005C1586 387.603 1545.7 402.17 1504.32 412.533C1454.9 424.95 1403.82 430.523 1352.93 431.305C1320.47 431.794 1287.92 430.327 1255.56 426.71C1243.01 425.341 1230.16 423.483 1217.71 421.235C1212.81 412.533 1208.88 402.952 1206.14 393.371C1199.77 348.496 1199.77 348.496 1199.77 348.496C1199.77 363.65 1201.92 378.804 1199.77 348.496C1199.57 353.873 1199.67 377.533 1199.86 382.421C1200.84 403.148 1205.45 423.874 1214.57 442.45C1214.67 442.548 1214.67 442.646 1214.67 442.743L1217.71 448.414C1224.47 449.685 1232.61 451.054 1239.38 451.934C1279.48 457.311 1319.98 459.266 1360.48 458.288C1408.62 457.115 1456.86 451.543 1503.63 439.908C1561.68 425.341 1617.48 402.757 1670.43 374.893C1682.19 368.636 1693.76 362.183 1705.04 355.242L1713.67 349.767L1713.77 322.686L1705.04 328.063Z" fill="url(#paint7_linear_781_0)"/>
<g filter="url(#filter3_i_781_0)">
<path d="M1705.04 328.063C1703.96 328.747 1678.17 345.074 1636.89 364.432C1581.2 390.634 1526.48 409.112 1474.12 419.28C1348.71 443.624 1232.42 423.777 1227.52 422.897L1217.71 421.137L1214.67 415.467C1213.2 412.631 1178.39 345.563 1220.26 273.02C1237.71 242.712 1269.48 211.036 1314.69 178.773C1348.12 154.917 1376.26 139.959 1377.44 139.275L1386.85 134.289L1608.75 194.415L1713.67 322.392L1705.04 328.063ZM1461.86 398.357C1556.88 379.879 1641.3 334.027 1667.97 318.482L1580.12 211.231L1394.31 160.881C1367.44 176.328 1288.31 225.212 1256.54 280.157C1225.36 334.32 1241.64 386.234 1248.7 403.344C1260.27 404.908 1281.15 407.254 1307.72 408.525C1345.38 410.187 1402.74 409.796 1461.86 398.357Z" fill="url(#paint8_linear_781_0)"/>
</g>
<circle opacity="0.2" cx="1537.07" cy="294.579" r="53.6522" fill="url(#paint9_radial_781_0)"/>
</g>
<circle opacity="0.1" cx="405.5" cy="182.5" r="40.5" fill="url(#paint10_linear_781_0)"/>
<circle opacity="0.1" cx="770.5" cy="322.5" r="19.5" fill="url(#paint11_linear_781_0)"/>
<circle opacity="0.1" cx="1687.5" cy="2.5" r="26.5" fill="url(#paint12_linear_781_0)"/>
<circle opacity="0.1" cx="353.5" cy="108.5" r="11.5" fill="url(#paint13_linear_781_0)"/>
</g>
<defs>
<filter id="filter0_f_781_0" x="1201.86" y="256.78" width="532.1" height="311.7" filterUnits="userSpaceOnUse" color-interpolation-filters="sRGB">
<feFlood flood-opacity="0" result="BackgroundImageFix"/>
<feBlend mode="normal" in="SourceGraphic" in2="BackgroundImageFix" result="shape"/>
<feGaussianBlur stdDeviation="2" result="effect1_foregroundBlur_781_0"/>
</filter>
<filter id="filter1_i_781_0" x="1362.14" y="271.456" width="147.297" height="47.417" filterUnits="userSpaceOnUse" color-interpolation-filters="sRGB">
<feFlood flood-opacity="0" result="BackgroundImageFix"/>
<feBlend mode="normal" in="SourceGraphic" in2="BackgroundImageFix" result="shape"/>
<feColorMatrix in="SourceAlpha" type="matrix" values="0 0 0 0 0 0 0 0 0 0 0 0 0 0 0 0 0 0 127 0" result="hardAlpha"/>
<feOffset dx="1"/>
<feGaussianBlur stdDeviation="0.5"/>
<feComposite in2="hardAlpha" operator="arithmetic" k2="-1" k3="1"/>
<feColorMatrix type="matrix" values="0 0 0 0 1 0 0 0 0 1 0 0 0 0 1 0 0 0 1 0"/>
<feBlend mode="normal" in2="shape" result="effect1_innerShadow_781_0"/>
</filter>
<filter id="filter2_i_781_0" x="1283.28" y="214.287" width="293.056" height="168.758" filterUnits="userSpaceOnUse" color-interpolation-filters="sRGB">
<feFlood flood-opacity="0" result="BackgroundImageFix"/>
<feBlend mode="normal" in="SourceGraphic" in2="BackgroundImageFix" result="shape"/>
<feColorMatrix in="SourceAlpha" type="matrix" values="0 0 0 0 0 0 0 0 0 0 0 0 0 0 0 0 0 0 127 0" result="hardAlpha"/>
<feOffset dx="1"/>
<feGaussianBlur stdDeviation="0.5"/>
<feComposite in2="hardAlpha" operator="arithmetic" k2="-1" k3="1"/>
<feColorMatrix type="matrix" values="0 0 0 0 1 0 0 0 0 1 0 0 0 0 1 0 0 0 1 0"/>
<feBlend mode="normal" in2="shape" result="effect1_innerShadow_781_0"/>
</filter>
<filter id="filter3_i_781_0" x="1199.7" y="134.289" width="514.965" height="297.066" filterUnits="userSpaceOnUse" color-interpolation-filters="sRGB">
<feFlood flood-opacity="0" result="BackgroundImageFix"/>
<feBlend mode="normal" in="SourceGraphic" in2="BackgroundImageFix" result="shape"/>
<feColorMatrix in="SourceAlpha" type="matrix" values="0 0 0 0 0 0 0 0 0 0 0 0 0 0 0 0 0 0 127 0" result="hardAlpha"/>
<feOffset dx="1"/>
<feGaussianBlur stdDeviation="0.5"/>
<feComposite in2="hardAlpha" operator="arithmetic" k2="-1" k3="1"/>
<feColorMatrix type="matrix" values="0 0 0 0 1 0 0 0 0 1 0 0 0 0 1 0 0 0 1 0"/>
<feBlend mode="normal" in2="shape" result="effect1_innerShadow_781_0"/>
</filter>
<linearGradient id="paint0_linear_781_0" x1="1920" y1="780" x2="1681.5" y2="-229.869" gradientUnits="userSpaceOnUse">
<stop stop-color="#8770FF"/>
<stop offset="1" stop-color="#AA9AFF"/>
</linearGradient>
<linearGradient id="paint1_linear_781_0" x1="1380.95" y1="236.45" x2="1565.07" y2="247.622" gradientUnits="userSpaceOnUse">
<stop stop-color="#6C61E7"/>
<stop offset="0.498015" stop-color="#7F6CF2"/>
<stop offset="1" stop-color="#BBAFFE"/>
</linearGradient>
<linearGradient id="paint2_linear_781_0" x1="1570.84" y1="230.036" x2="1624.03" y2="374.524" gradientUnits="userSpaceOnUse">
<stop stop-color="#675BE2"/>
<stop offset="0.452139" stop-color="#7F6CF2"/>
<stop offset="1" stop-color="#BBAFFE"/>
</linearGradient>
<linearGradient id="paint3_linear_781_0" x1="1370.82" y1="158.751" x2="1277.28" y2="293.43" gradientUnits="userSpaceOnUse">
<stop stop-color="#D4CCFF"/>
<stop offset="1" stop-color="#9783FF"/>
</linearGradient>
<linearGradient id="paint4_linear_781_0" x1="1394.3" y1="181.644" x2="1427.81" y2="228.464" gradientUnits="userSpaceOnUse">
<stop stop-color="#6B61DF"/>
<stop offset="0.864598" stop-color="#7F6CF2"/>
<stop offset="1" stop-color="#BBAFFE"/>
</linearGradient>
<linearGradient id="paint5_linear_781_0" x1="1466.5" y1="393.141" x2="1330.69" y2="489.197" gradientUnits="userSpaceOnUse">
<stop stop-color="#695DE0"/>
<stop offset="0.498015" stop-color="#7F6CF2"/>
<stop offset="1" stop-color="#BBAFFE"/>
</linearGradient>
<linearGradient id="paint6_linear_781_0" x1="1379.68" y1="156.123" x2="1362.74" y2="379.24" gradientUnits="userSpaceOnUse">
<stop stop-color="#D4CCFF"/>
<stop offset="1" stop-color="#9783FF"/>
</linearGradient>
<linearGradient id="paint7_linear_781_0" x1="1391.86" y1="627.885" x2="1217.62" y2="645.117" gradientUnits="userSpaceOnUse">
<stop stop-color="#665BD7"/>
<stop offset="0.864598" stop-color="#7F6CF2"/>
<stop offset="1" stop-color="#BBAFFE"/>
</linearGradient>
<linearGradient id="paint8_linear_781_0" x1="1297.73" y1="151.456" x2="1382.73" y2="462.022" gradientUnits="userSpaceOnUse">
<stop stop-color="#D4CCFF"/>
<stop offset="1" stop-color="#9783FF"/>
</linearGradient>
<radialGradient id="paint9_radial_781_0" cx="0" cy="0" r="1" gradientUnits="userSpaceOnUse" gradientTransform="translate(1537.07 294.579) rotate(90) scale(53.6522)">
<stop stop-color="white"/>
<stop offset="0.140625" stop-color="white" stop-opacity="0.53"/>
<stop offset="0.265625" stop-color="white" stop-opacity="0.33"/>
<stop offset="0.494792" stop-color="white" stop-opacity="0.2"/>
<stop offset="0.739583" stop-color="white" stop-opacity="0"/>
<stop offset="1" stop-color="white" stop-opacity="0"/>
</radialGradient>
<linearGradient id="paint10_linear_781_0" x1="405.5" y1="142" x2="405.5" y2="223" gradientUnits="userSpaceOnUse">
<stop stop-color="white"/>
<stop offset="1" stop-color="white" stop-opacity="0"/>
</linearGradient>
<linearGradient id="paint11_linear_781_0" x1="770.5" y1="303" x2="770.5" y2="342" gradientUnits="userSpaceOnUse">
<stop stop-color="white"/>
<stop offset="1" stop-color="white" stop-opacity="0"/>
</linearGradient>
<linearGradient id="paint12_linear_781_0" x1="1687.5" y1="-24" x2="1687.5" y2="29" gradientUnits="userSpaceOnUse">
<stop stop-color="white"/>
<stop offset="1" stop-color="white" stop-opacity="0"/>
</linearGradient>
<linearGradient id="paint13_linear_781_0" x1="353.5" y1="97" x2="353.5" y2="120" gradientUnits="userSpaceOnUse">
<stop stop-color="white"/>
<stop offset="1" stop-color="white" stop-opacity="0"/>
</linearGradient>
<clipPath id="clip0_781_0">
<rect width="1920" height="779" fill="white"/>
</clipPath>
<clipPath id="clip1_781_0">
<rect width="524.1" height="303.7" fill="white" transform="translate(1205.86 260.78)"/>
</clipPath>
<clipPath id="clip2_781_0">
<rect width="514" height="324" fill="white" transform="translate(1199.67 134.484)"/>
</clipPath>
</defs>
</svg>
