<svg width="160" height="162" viewBox="0 0 160 162" fill="none" xmlns="http://www.w3.org/2000/svg">
<path d="M1.35573 87.148V84.754H7.81573V112H5.11773V87.148H1.35573ZM13.7434 98.13C13.7434 93.7727 14.4148 90.3907 15.7574 87.984C17.1001 85.5773 19.5068 84.374 22.9774 84.374C26.4481 84.374 28.8548 85.5773 30.1974 87.984C31.5401 90.3907 32.2114 93.7727 32.2114 98.13C32.2114 102.563 31.5401 105.996 30.1974 108.428C28.8548 110.86 26.4481 112.076 22.9774 112.076C19.4814 112.076 17.0621 110.86 15.7194 108.428C14.4021 105.996 13.7434 102.563 13.7434 98.13ZM29.5894 98.13C29.5894 95.774 29.4248 93.7853 29.0954 92.164C28.7661 90.5427 28.1201 89.238 27.1574 88.25C26.1948 87.262 24.8014 86.768 22.9774 86.768C21.1534 86.768 19.7601 87.262 18.7974 88.25C17.8348 89.238 17.1888 90.5427 16.8594 92.164C16.5301 93.7853 16.3654 95.774 16.3654 98.13C16.3654 100.562 16.5301 102.601 16.8594 104.248C17.1888 105.869 17.8348 107.174 18.7974 108.162C19.7601 109.15 21.1534 109.644 22.9774 109.644C24.8014 109.644 26.1948 109.15 27.1574 108.162C28.1201 107.174 28.7661 105.869 29.0954 104.248C29.4248 102.601 29.5894 100.562 29.5894 98.13ZM37.1595 98.13C37.1595 93.7727 37.8308 90.3907 39.1735 87.984C40.5161 85.5773 42.9228 84.374 46.3935 84.374C49.8641 84.374 52.2708 85.5773 53.6135 87.984C54.9561 90.3907 55.6275 93.7727 55.6275 98.13C55.6275 102.563 54.9561 105.996 53.6135 108.428C52.2708 110.86 49.8641 112.076 46.3935 112.076C42.8975 112.076 40.4781 110.86 39.1355 108.428C37.8181 105.996 37.1595 102.563 37.1595 98.13ZM53.0055 98.13C53.0055 95.774 52.8408 93.7853 52.5115 92.164C52.1821 90.5427 51.5361 89.238 50.5735 88.25C49.6108 87.262 48.2175 86.768 46.3935 86.768C44.5695 86.768 43.1761 87.262 42.2135 88.25C41.2508 89.238 40.6048 90.5427 40.2755 92.164C39.9461 93.7853 39.7815 95.774 39.7815 98.13C39.7815 100.562 39.9461 102.601 40.2755 104.248C40.6048 105.869 41.2508 107.174 42.2135 108.162C43.1761 109.15 44.5695 109.644 46.3935 109.644C48.2175 109.644 49.6108 109.15 50.5735 108.162C51.5361 107.174 52.1821 105.869 52.5115 104.248C52.8408 102.601 53.0055 100.562 53.0055 98.13ZM63.5775 107.592L59.6255 117.548H57.8015L60.6135 107.592H63.5775ZM67.1438 98.13C67.1438 93.7727 67.8152 90.3907 69.1578 87.984C70.5005 85.5773 72.9072 84.374 76.3778 84.374C79.8485 84.374 82.2552 85.5773 83.5978 87.984C84.9405 90.3907 85.6118 93.7727 85.6118 98.13C85.6118 102.563 84.9405 105.996 83.5978 108.428C82.2552 110.86 79.8485 112.076 76.3778 112.076C72.8818 112.076 70.4625 110.86 69.1198 108.428C67.8025 105.996 67.1438 102.563 67.1438 98.13ZM82.9898 98.13C82.9898 95.774 82.8252 93.7853 82.4958 92.164C82.1665 90.5427 81.5205 89.238 80.5578 88.25C79.5952 87.262 78.2018 86.768 76.3778 86.768C74.5538 86.768 73.1605 87.262 72.1978 88.25C71.2352 89.238 70.5892 90.5427 70.2598 92.164C69.9305 93.7853 69.7658 95.774 69.7658 98.13C69.7658 100.562 69.9305 102.601 70.2598 104.248C70.5892 105.869 71.2352 107.174 72.1978 108.162C73.1605 109.15 74.5538 109.644 76.3778 109.644C78.2018 109.644 79.5952 109.15 80.5578 108.162C81.5205 107.174 82.1665 105.869 82.4958 104.248C82.8252 102.601 82.9898 100.562 82.9898 98.13ZM90.5598 98.13C90.5598 93.7727 91.2312 90.3907 92.5738 87.984C93.9165 85.5773 96.3232 84.374 99.7938 84.374C103.265 84.374 105.671 85.5773 107.014 87.984C108.357 90.3907 109.028 93.7727 109.028 98.13C109.028 102.563 108.357 105.996 107.014 108.428C105.671 110.86 103.265 112.076 99.7938 112.076C96.2978 112.076 93.8785 110.86 92.5358 108.428C91.2185 105.996 90.5598 102.563 90.5598 98.13ZM106.406 98.13C106.406 95.774 106.241 93.7853 105.912 92.164C105.583 90.5427 104.937 89.238 103.974 88.25C103.011 87.262 101.618 86.768 99.7938 86.768C97.9698 86.768 96.5765 87.262 95.6138 88.25C94.6512 89.238 94.0052 90.5427 93.6758 92.164C93.3465 93.7853 93.1818 95.774 93.1818 98.13C93.1818 100.562 93.3465 102.601 93.6758 104.248C94.0052 105.869 94.6512 107.174 95.6138 108.162C96.5765 109.15 97.9698 109.644 99.7938 109.644C101.618 109.644 103.011 109.15 103.974 108.162C104.937 107.174 105.583 105.869 105.912 104.248C106.241 102.601 106.406 100.562 106.406 98.13ZM113.976 98.13C113.976 93.7727 114.647 90.3907 115.99 87.984C117.333 85.5773 119.739 84.374 123.21 84.374C126.681 84.374 129.087 85.5773 130.43 87.984C131.773 90.3907 132.444 93.7727 132.444 98.13C132.444 102.563 131.773 105.996 130.43 108.428C129.087 110.86 126.681 112.076 123.21 112.076C119.714 112.076 117.295 110.86 115.952 108.428C114.635 105.996 113.976 102.563 113.976 98.13ZM129.822 98.13C129.822 95.774 129.657 93.7853 129.328 92.164C128.999 90.5427 128.353 89.238 127.39 88.25C126.427 87.262 125.034 86.768 123.21 86.768C121.386 86.768 119.993 87.262 119.03 88.25C118.067 89.238 117.421 90.5427 117.092 92.164C116.763 93.7853 116.598 95.774 116.598 98.13C116.598 100.562 116.763 102.601 117.092 104.248C117.421 105.869 118.067 107.174 119.03 108.162C119.993 109.15 121.386 109.644 123.21 109.644C125.034 109.644 126.427 109.15 127.39 108.162C128.353 107.174 128.999 105.869 129.328 104.248C129.657 102.601 129.822 100.562 129.822 98.13ZM157.076 99.08H148.602V107.63H146.132V99.08H137.696V96.8H146.132V88.25H148.602V96.8H157.076V99.08Z" fill="white"/>
<path d="M8.89844 147.906C8.89844 149.062 8.5026 149.953 7.71094 150.578C6.92448 151.198 5.79688 151.508 4.32812 151.508H2.98438V156H1.65625V144.578H4.61719C7.47135 144.578 8.89844 145.688 8.89844 147.906ZM2.98438 150.367H4.17969C5.35677 150.367 6.20833 150.177 6.73438 149.797C7.26042 149.417 7.52344 148.807 7.52344 147.969C7.52344 147.214 7.27604 146.651 6.78125 146.281C6.28646 145.911 5.51562 145.727 4.46875 145.727H2.98438V150.367ZM18.4922 151.711C18.4922 153.107 18.1406 154.198 17.4375 154.984C16.7344 155.766 15.763 156.156 14.5234 156.156C13.7578 156.156 13.0781 155.977 12.4844 155.617C11.8906 155.258 11.4323 154.742 11.1094 154.07C10.7865 153.398 10.625 152.612 10.625 151.711C10.625 150.315 10.974 149.229 11.6719 148.453C12.3698 147.672 13.3385 147.281 14.5781 147.281C15.776 147.281 16.7266 147.68 17.4297 148.477C18.138 149.273 18.4922 150.352 18.4922 151.711ZM11.9688 151.711C11.9688 152.805 12.1875 153.638 12.625 154.211C13.0625 154.784 13.7057 155.07 14.5547 155.07C15.4036 155.07 16.0469 154.786 16.4844 154.219C16.9271 153.646 17.1484 152.81 17.1484 151.711C17.1484 150.622 16.9271 149.797 16.4844 149.234C16.0469 148.667 15.3984 148.383 14.5391 148.383C13.6901 148.383 13.0495 148.661 12.6172 149.219C12.1849 149.776 11.9688 150.607 11.9688 151.711ZM22.0703 156H20.7734V143.844H22.0703V156ZM26.1172 156H24.8203V147.438H26.1172V156ZM24.7109 145.117C24.7109 144.82 24.7839 144.604 24.9297 144.469C25.0755 144.328 25.2578 144.258 25.4766 144.258C25.6849 144.258 25.8646 144.328 26.0156 144.469C26.1667 144.609 26.2422 144.826 26.2422 145.117C26.2422 145.409 26.1667 145.628 26.0156 145.773C25.8646 145.914 25.6849 145.984 25.4766 145.984C25.2578 145.984 25.0755 145.914 24.9297 145.773C24.7839 145.628 24.7109 145.409 24.7109 145.117ZM32.2891 156.156C31.0495 156.156 30.0885 155.776 29.4062 155.016C28.7292 154.25 28.3906 153.169 28.3906 151.773C28.3906 150.341 28.7344 149.234 29.4219 148.453C30.1146 147.672 31.099 147.281 32.375 147.281C32.7865 147.281 33.1979 147.326 33.6094 147.414C34.0208 147.503 34.3438 147.607 34.5781 147.727L34.1797 148.828C33.8932 148.714 33.5807 148.62 33.2422 148.547C32.9036 148.469 32.6042 148.43 32.3438 148.43C30.6042 148.43 29.7344 149.539 29.7344 151.758C29.7344 152.81 29.9453 153.617 30.3672 154.18C30.7943 154.742 31.4245 155.023 32.2578 155.023C32.9714 155.023 33.7031 154.87 34.4531 154.562V155.711C33.8802 156.008 33.1589 156.156 32.2891 156.156ZM37.7891 156H36.4922V147.438H37.7891V156ZM36.3828 145.117C36.3828 144.82 36.4557 144.604 36.6016 144.469C36.7474 144.328 36.9297 144.258 37.1484 144.258C37.3568 144.258 37.5365 144.328 37.6875 144.469C37.8385 144.609 37.9141 144.826 37.9141 145.117C37.9141 145.409 37.8385 145.628 37.6875 145.773C37.5365 145.914 37.3568 145.984 37.1484 145.984C36.9297 145.984 36.7474 145.914 36.6016 145.773C36.4557 145.628 36.3828 145.409 36.3828 145.117ZM44.1562 156.156C42.8906 156.156 41.8906 155.771 41.1562 155C40.4271 154.229 40.0625 153.159 40.0625 151.789C40.0625 150.409 40.401 149.312 41.0781 148.5C41.7604 147.688 42.6745 147.281 43.8203 147.281C44.8932 147.281 45.7422 147.635 46.3672 148.344C46.9922 149.047 47.3047 149.977 47.3047 151.133V151.953H41.4062C41.4323 152.958 41.6849 153.721 42.1641 154.242C42.6484 154.763 43.3281 155.023 44.2031 155.023C45.125 155.023 46.0365 154.831 46.9375 154.445V155.602C46.4792 155.799 46.0443 155.94 45.6328 156.023C45.2266 156.112 44.7344 156.156 44.1562 156.156ZM43.8047 148.367C43.1172 148.367 42.5677 148.591 42.1562 149.039C41.75 149.487 41.5104 150.107 41.4375 150.898H45.9141C45.9141 150.081 45.7318 149.456 45.3672 149.023C45.0026 148.586 44.4818 148.367 43.8047 148.367ZM55.0469 153.664C55.0469 154.461 54.75 155.076 54.1562 155.508C53.5625 155.94 52.7292 156.156 51.6562 156.156C50.5208 156.156 49.6354 155.977 49 155.617V154.414C49.4115 154.622 49.8516 154.786 50.3203 154.906C50.7943 155.026 51.25 155.086 51.6875 155.086C52.3646 155.086 52.8854 154.979 53.25 154.766C53.6146 154.547 53.7969 154.216 53.7969 153.773C53.7969 153.44 53.651 153.156 53.3594 152.922C53.0729 152.682 52.5104 152.401 51.6719 152.078C50.875 151.781 50.3073 151.523 49.9688 151.305C49.6354 151.081 49.3854 150.828 49.2188 150.547C49.0573 150.266 48.9766 149.93 48.9766 149.539C48.9766 148.841 49.2604 148.292 49.8281 147.891C50.3958 147.484 51.1745 147.281 52.1641 147.281C53.0859 147.281 53.987 147.469 54.8672 147.844L54.4062 148.898C53.5469 148.544 52.7682 148.367 52.0703 148.367C51.4557 148.367 50.9922 148.464 50.6797 148.656C50.3672 148.849 50.2109 149.115 50.2109 149.453C50.2109 149.682 50.2682 149.878 50.3828 150.039C50.5026 150.201 50.6927 150.354 50.9531 150.5C51.2135 150.646 51.7135 150.857 52.4531 151.133C53.4688 151.503 54.1536 151.875 54.5078 152.25C54.8672 152.625 55.0469 153.096 55.0469 153.664ZM66.4062 145.602C65.151 145.602 64.1589 146.021 63.4297 146.859C62.7057 147.693 62.3438 148.836 62.3438 150.289C62.3438 151.784 62.6927 152.94 63.3906 153.758C64.0938 154.57 65.0938 154.977 66.3906 154.977C67.1875 154.977 68.0964 154.833 69.1172 154.547V155.711C68.3255 156.008 67.349 156.156 66.1875 156.156C64.5052 156.156 63.2057 155.646 62.2891 154.625C61.3776 153.604 60.9219 152.154 60.9219 150.273C60.9219 149.096 61.1406 148.065 61.5781 147.18C62.0208 146.294 62.6562 145.612 63.4844 145.133C64.3177 144.654 65.2969 144.414 66.4219 144.414C67.6198 144.414 68.6667 144.633 69.5625 145.07L69 146.211C68.1354 145.805 67.2708 145.602 66.4062 145.602ZM75.3203 147.281C75.7005 147.281 76.0417 147.312 76.3438 147.375L76.1641 148.578C75.8099 148.5 75.4974 148.461 75.2266 148.461C74.5339 148.461 73.9401 148.742 73.4453 149.305C72.9557 149.867 72.7109 150.568 72.7109 151.406V156H71.4141V147.438H72.4844L72.6328 149.023H72.6953C73.013 148.466 73.3958 148.036 73.8438 147.734C74.2917 147.432 74.7839 147.281 75.3203 147.281ZM81.5625 156.156C80.2969 156.156 79.2969 155.771 78.5625 155C77.8333 154.229 77.4688 153.159 77.4688 151.789C77.4688 150.409 77.8073 149.312 78.4844 148.5C79.1667 147.688 80.0807 147.281 81.2266 147.281C82.2995 147.281 83.1484 147.635 83.7734 148.344C84.3984 149.047 84.7109 149.977 84.7109 151.133V151.953H78.8125C78.8385 152.958 79.0911 153.721 79.5703 154.242C80.0547 154.763 80.7344 155.023 81.6094 155.023C82.5312 155.023 83.4427 154.831 84.3438 154.445V155.602C83.8854 155.799 83.4505 155.94 83.0391 156.023C82.6328 156.112 82.1406 156.156 81.5625 156.156ZM81.2109 148.367C80.5234 148.367 79.974 148.591 79.5625 149.039C79.1562 149.487 78.9167 150.107 78.8438 150.898H83.3203C83.3203 150.081 83.138 149.456 82.7734 149.023C82.4089 148.586 81.888 148.367 81.2109 148.367ZM92.1953 156L91.9375 154.781H91.875C91.4479 155.318 91.0208 155.682 90.5938 155.875C90.1719 156.062 89.6432 156.156 89.0078 156.156C88.1589 156.156 87.4922 155.938 87.0078 155.5C86.5286 155.062 86.2891 154.44 86.2891 153.633C86.2891 151.904 87.6719 150.997 90.4375 150.914L91.8906 150.867V150.336C91.8906 149.664 91.7448 149.169 91.4531 148.852C91.1667 148.529 90.7057 148.367 90.0703 148.367C89.3568 148.367 88.5495 148.586 87.6484 149.023L87.25 148.031C87.6719 147.802 88.1328 147.622 88.6328 147.492C89.138 147.362 89.6432 147.297 90.1484 147.297C91.1693 147.297 91.9245 147.523 92.4141 147.977C92.9089 148.43 93.1562 149.156 93.1562 150.156V156H92.1953ZM89.2656 155.086C90.0729 155.086 90.7057 154.865 91.1641 154.422C91.6276 153.979 91.8594 153.359 91.8594 152.562V151.789L90.5625 151.844C89.5312 151.88 88.7865 152.042 88.3281 152.328C87.875 152.609 87.6484 153.049 87.6484 153.648C87.6484 154.117 87.7891 154.474 88.0703 154.719C88.3568 154.964 88.7552 155.086 89.2656 155.086ZM98.6016 155.086C98.8307 155.086 99.0521 155.07 99.2656 155.039C99.4792 155.003 99.6484 154.966 99.7734 154.93V155.922C99.6328 155.99 99.4245 156.044 99.1484 156.086C98.8776 156.133 98.6328 156.156 98.4141 156.156C96.7578 156.156 95.9297 155.284 95.9297 153.539V148.445H94.7031V147.82L95.9297 147.281L96.4766 145.453H97.2266V147.438H99.7109V148.445H97.2266V153.484C97.2266 154 97.349 154.396 97.5938 154.672C97.8385 154.948 98.1745 155.086 98.6016 155.086ZM105.109 156.156C103.844 156.156 102.844 155.771 102.109 155C101.38 154.229 101.016 153.159 101.016 151.789C101.016 150.409 101.354 149.312 102.031 148.5C102.714 147.688 103.628 147.281 104.773 147.281C105.846 147.281 106.695 147.635 107.32 148.344C107.945 149.047 108.258 149.977 108.258 151.133V151.953H102.359C102.385 152.958 102.638 153.721 103.117 154.242C103.602 154.763 104.281 155.023 105.156 155.023C106.078 155.023 106.99 154.831 107.891 154.445V155.602C107.432 155.799 106.997 155.94 106.586 156.023C106.18 156.112 105.688 156.156 105.109 156.156ZM104.758 148.367C104.07 148.367 103.521 148.591 103.109 149.039C102.703 149.487 102.464 150.107 102.391 150.898H106.867C106.867 150.081 106.685 149.456 106.32 149.023C105.956 148.586 105.435 148.367 104.758 148.367ZM116.305 154.852H116.234C115.635 155.721 114.74 156.156 113.547 156.156C112.427 156.156 111.555 155.773 110.93 155.008C110.31 154.242 110 153.154 110 151.742C110 150.331 110.312 149.234 110.938 148.453C111.562 147.672 112.432 147.281 113.547 147.281C114.708 147.281 115.599 147.703 116.219 148.547H116.32L116.266 147.93L116.234 147.328V143.844H117.531V156H116.477L116.305 154.852ZM113.711 155.07C114.596 155.07 115.237 154.831 115.633 154.352C116.034 153.867 116.234 153.089 116.234 152.016V151.742C116.234 150.529 116.031 149.664 115.625 149.148C115.224 148.628 114.581 148.367 113.695 148.367C112.935 148.367 112.352 148.664 111.945 149.258C111.544 149.846 111.344 150.68 111.344 151.758C111.344 152.852 111.544 153.677 111.945 154.234C112.346 154.792 112.935 155.07 113.711 155.07Z" fill="#E7E9ED"/>
<path fill-rule="evenodd" clip-rule="evenodd" d="M13.0079 15.1392L2.06251 19.2928L2.45735 29.4067C2.74237 36.7077 6.64665 43.468 13.0079 47.6447C19.3692 43.468 23.2735 36.7077 23.5585 29.4067L23.9533 19.2928L13.0079 15.1392ZM12.2983 13.2693C12.7555 13.0958 13.2604 13.0958 13.7175 13.2693L24.6629 17.4229C25.4664 17.7278 25.9853 18.512 25.9518 19.3708L25.557 29.4847C25.2442 37.4974 20.9426 44.869 14.0109 49.3784C13.4009 49.7753 12.615 49.7753 12.0049 49.3784C5.0732 44.869 0.771672 37.4974 0.458876 29.4847L0.0640337 19.3708C0.0305069 18.512 0.549385 17.7278 1.35291 17.4229L12.2983 13.2693Z" fill="white"/>
<path fill-rule="evenodd" clip-rule="evenodd" d="M39.0078 2H21.0078C19.9032 2 19.0078 2.89543 19.0078 4H41.0078C41.0078 2.89543 40.1124 2 39.0078 2ZM21.0078 0C18.7987 0 17.0078 1.79086 17.0078 4V6H43.0078V4C43.0078 1.79086 41.217 0 39.0078 0H21.0078Z" fill="white"/>
<path fill-rule="evenodd" clip-rule="evenodd" d="M25.0078 12L35.0078 12C36.1124 12 37.0078 11.1046 37.0078 10L37.0078 6L23.0078 6L23.0078 10C23.0078 11.1046 23.9032 12 25.0078 12ZM35.0078 14C37.217 14 39.0078 12.2091 39.0078 10L39.0078 4L21.0078 4L21.0078 10C21.0078 12.2091 22.7987 14 25.0078 14L35.0078 14Z" fill="white"/>
<path fill-rule="evenodd" clip-rule="evenodd" d="M13.0078 36C16.3215 36 19.0078 33.3137 19.0078 30C19.0078 26.6863 16.3215 24 13.0078 24C9.6941 24 7.00781 26.6863 7.00781 30C7.00781 33.3137 9.6941 36 13.0078 36ZM13.0078 38C17.4261 38 21.0078 34.4183 21.0078 30C21.0078 25.5817 17.4261 22 13.0078 22C8.58953 22 5.00781 25.5817 5.00781 30C5.00781 34.4183 8.58953 38 13.0078 38Z" fill="white"/>
<path fill-rule="evenodd" clip-rule="evenodd" d="M16.3006 29.7071C16.6911 29.3166 16.6911 28.6834 16.3006 28.2929C15.9101 27.9024 15.2769 27.9024 14.8864 28.2929L12.0077 31.1716L11.129 30.2929C10.7385 29.9024 10.1053 29.9024 9.71477 30.2929C9.32424 30.6834 9.32424 31.3166 9.71477 31.7071L11.3006 33.2929C11.6911 33.6834 12.3242 33.6834 12.7148 33.2929L13.4127 32.5949C13.4158 32.5919 13.4189 32.5888 13.4219 32.5858L16.3006 29.7071Z" fill="white"/>
<path fill-rule="evenodd" clip-rule="evenodd" d="M14.0078 6H46.0078C47.1124 6 48.0078 6.89543 48.0078 8V9C48.0078 9.03481 48.0096 9.0692 48.0131 9.10309V12.8384H48.0208C48.0123 12.891 48.0078 12.945 48.0078 13V56C48.0078 57.1046 47.1124 58 46.0078 58H19.0078C18.9508 58 18.895 58.0048 18.8406 58.0139H15.175C15.1206 58.0048 15.0648 58 15.0078 58H14.0078C12.9032 58 12.0078 57.1046 12.0078 56V52C12.0078 51.4477 11.5601 51 11.0078 51C10.4555 51 10.0078 51.4477 10.0078 52V56C10.0078 58.2091 11.7987 60 14.0078 60H14.2405H15.0078H19.0078H20.1274H46.0078C48.217 60 50.0078 58.2091 50.0078 56V13C50.0078 12.945 50.0034 12.891 49.9948 12.8384H50.0078V9V8.38403V8C50.0078 5.79086 48.2169 4 46.0078 4H14.0078C11.7987 4 10.0078 5.79086 10.0078 8V11C10.0078 11.5523 10.4555 12 11.0078 12C11.5601 12 12.0078 11.5523 12.0078 11V8C12.0078 6.89543 12.9032 6 14.0078 6Z" fill="white"/>
</svg>
