<svg width="160" height="162" viewBox="0 0 160 162" fill="none" xmlns="http://www.w3.org/2000/svg">
<path d="M1.4114 87.148V84.754H7.8714V112H5.1734V87.148H1.4114ZM12.6211 105.54V103.526L26.4531 84.906H29.6071V103.222H33.6731V105.54H29.6071V112H26.9851V105.54H12.6211ZM27.0991 87.832L15.6991 103.222H27.0991V87.832ZM37.1038 98.13C37.1038 93.7727 37.7751 90.3907 39.1178 87.984C40.4605 85.5773 42.8671 84.374 46.3378 84.374C49.8085 84.374 52.2151 85.5773 53.5578 87.984C54.9005 90.3907 55.5718 93.7727 55.5718 98.13C55.5718 102.563 54.9005 105.996 53.5578 108.428C52.2151 110.86 49.8085 112.076 46.3378 112.076C42.8418 112.076 40.4225 110.86 39.0798 108.428C37.7625 105.996 37.1038 102.563 37.1038 98.13ZM52.9498 98.13C52.9498 95.774 52.7851 93.7853 52.4558 92.164C52.1265 90.5427 51.4805 89.238 50.5178 88.25C49.5551 87.262 48.1618 86.768 46.3378 86.768C44.5138 86.768 43.1205 87.262 42.1578 88.25C41.1951 89.238 40.5491 90.5427 40.2198 92.164C39.8905 93.7853 39.7258 95.774 39.7258 98.13C39.7258 100.562 39.8905 102.601 40.2198 104.248C40.5491 105.869 41.1951 107.174 42.1578 108.162C43.1205 109.15 44.5138 109.644 46.3378 109.644C48.1618 109.644 49.5551 109.15 50.5178 108.162C51.4805 107.174 52.1265 105.869 52.4558 104.248C52.7851 102.601 52.9498 100.562 52.9498 98.13ZM63.5218 107.592L59.5698 117.548H57.7458L60.5578 107.592H63.5218ZM67.0882 98.13C67.0882 93.7727 67.7595 90.3907 69.1022 87.984C70.4448 85.5773 72.8515 84.374 76.3222 84.374C79.7928 84.374 82.1995 85.5773 83.5422 87.984C84.8848 90.3907 85.5562 93.7727 85.5562 98.13C85.5562 102.563 84.8848 105.996 83.5422 108.428C82.1995 110.86 79.7928 112.076 76.3222 112.076C72.8262 112.076 70.4068 110.86 69.0642 108.428C67.7468 105.996 67.0882 102.563 67.0882 98.13ZM82.9342 98.13C82.9342 95.774 82.7695 93.7853 82.4402 92.164C82.1108 90.5427 81.4648 89.238 80.5022 88.25C79.5395 87.262 78.1462 86.768 76.3222 86.768C74.4982 86.768 73.1048 87.262 72.1422 88.25C71.1795 89.238 70.5335 90.5427 70.2042 92.164C69.8748 93.7853 69.7102 95.774 69.7102 98.13C69.7102 100.562 69.8748 102.601 70.2042 104.248C70.5335 105.869 71.1795 107.174 72.1422 108.162C73.1048 109.15 74.4982 109.644 76.3222 109.644C78.1462 109.644 79.5395 109.15 80.5022 108.162C81.4648 107.174 82.1108 105.869 82.4402 104.248C82.7695 102.601 82.9342 100.562 82.9342 98.13ZM90.5042 98.13C90.5042 93.7727 91.1755 90.3907 92.5182 87.984C93.8608 85.5773 96.2675 84.374 99.7382 84.374C103.209 84.374 105.616 85.5773 106.958 87.984C108.301 90.3907 108.972 93.7727 108.972 98.13C108.972 102.563 108.301 105.996 106.958 108.428C105.616 110.86 103.209 112.076 99.7382 112.076C96.2422 112.076 93.8228 110.86 92.4802 108.428C91.1628 105.996 90.5042 102.563 90.5042 98.13ZM106.35 98.13C106.35 95.774 106.186 93.7853 105.856 92.164C105.527 90.5427 104.881 89.238 103.918 88.25C102.956 87.262 101.562 86.768 99.7382 86.768C97.9142 86.768 96.5208 87.262 95.5582 88.25C94.5955 89.238 93.9495 90.5427 93.6202 92.164C93.2908 93.7853 93.1262 95.774 93.1262 98.13C93.1262 100.562 93.2908 102.601 93.6202 104.248C93.9495 105.869 94.5955 107.174 95.5582 108.162C96.5208 109.15 97.9142 109.644 99.7382 109.644C101.562 109.644 102.956 109.15 103.918 108.162C104.881 107.174 105.527 105.869 105.856 104.248C106.186 102.601 106.35 100.562 106.35 98.13ZM113.92 98.13C113.92 93.7727 114.592 90.3907 115.934 87.984C117.277 85.5773 119.684 84.374 123.154 84.374C126.625 84.374 129.032 85.5773 130.374 87.984C131.717 90.3907 132.388 93.7727 132.388 98.13C132.388 102.563 131.717 105.996 130.374 108.428C129.032 110.86 126.625 112.076 123.154 112.076C119.658 112.076 117.239 110.86 115.896 108.428C114.579 105.996 113.92 102.563 113.92 98.13ZM129.766 98.13C129.766 95.774 129.602 93.7853 129.272 92.164C128.943 90.5427 128.297 89.238 127.334 88.25C126.372 87.262 124.978 86.768 123.154 86.768C121.33 86.768 119.937 87.262 118.974 88.25C118.012 89.238 117.366 90.5427 117.036 92.164C116.707 93.7853 116.542 95.774 116.542 98.13C116.542 100.562 116.707 102.601 117.036 104.248C117.366 105.869 118.012 107.174 118.974 108.162C119.937 109.15 121.33 109.644 123.154 109.644C124.978 109.644 126.372 109.15 127.334 108.162C128.297 107.174 128.943 105.869 129.272 104.248C129.602 102.601 129.766 100.562 129.766 98.13ZM157.02 99.08H148.546V107.63H146.076V99.08H137.64V96.8H146.076V88.25H148.546V96.8H157.02V99.08Z" fill="white"/>
<path d="M1.76562 144.578H4.99219C6.50781 144.578 7.60417 144.805 8.28125 145.258C8.95833 145.711 9.29688 146.427 9.29688 147.406C9.29688 148.083 9.10677 148.643 8.72656 149.086C8.35156 149.523 7.80208 149.807 7.07812 149.938V150.016C8.8125 150.312 9.67969 151.224 9.67969 152.75C9.67969 153.771 9.33333 154.568 8.64062 155.141C7.95312 155.714 6.98958 156 5.75 156H1.76562V144.578ZM3.09375 149.469H5.28125C6.21875 149.469 6.89323 149.323 7.30469 149.031C7.71615 148.734 7.92188 148.237 7.92188 147.539C7.92188 146.898 7.69271 146.438 7.23438 146.156C6.77604 145.87 6.04688 145.727 5.04688 145.727H3.09375V149.469ZM3.09375 150.594V154.867H5.47656C6.39844 154.867 7.09115 154.69 7.55469 154.336C8.02344 153.977 8.25781 153.417 8.25781 152.656C8.25781 151.948 8.01823 151.427 7.53906 151.094C7.0651 150.76 6.34115 150.594 5.36719 150.594H3.09375ZM13.1641 147.438V152.992C13.1641 153.69 13.3229 154.211 13.6406 154.555C13.9583 154.898 14.4557 155.07 15.1328 155.07C16.0286 155.07 16.6823 154.826 17.0938 154.336C17.5104 153.846 17.7188 153.047 17.7188 151.938V147.438H19.0156V156H17.9453L17.7578 154.852H17.6875C17.4219 155.273 17.0521 155.596 16.5781 155.82C16.1094 156.044 15.5729 156.156 14.9688 156.156C13.9271 156.156 13.1458 155.909 12.625 155.414C12.1094 154.919 11.8516 154.128 11.8516 153.039V147.438H13.1641ZM27.2969 153.664C27.2969 154.461 27 155.076 26.4062 155.508C25.8125 155.94 24.9792 156.156 23.9062 156.156C22.7708 156.156 21.8854 155.977 21.25 155.617V154.414C21.6615 154.622 22.1016 154.786 22.5703 154.906C23.0443 155.026 23.5 155.086 23.9375 155.086C24.6146 155.086 25.1354 154.979 25.5 154.766C25.8646 154.547 26.0469 154.216 26.0469 153.773C26.0469 153.44 25.901 153.156 25.6094 152.922C25.3229 152.682 24.7604 152.401 23.9219 152.078C23.125 151.781 22.5573 151.523 22.2188 151.305C21.8854 151.081 21.6354 150.828 21.4688 150.547C21.3073 150.266 21.2266 149.93 21.2266 149.539C21.2266 148.841 21.5104 148.292 22.0781 147.891C22.6458 147.484 23.4245 147.281 24.4141 147.281C25.3359 147.281 26.237 147.469 27.1172 147.844L26.6562 148.898C25.7969 148.544 25.0182 148.367 24.3203 148.367C23.7057 148.367 23.2422 148.464 22.9297 148.656C22.6172 148.849 22.4609 149.115 22.4609 149.453C22.4609 149.682 22.5182 149.878 22.6328 150.039C22.7526 150.201 22.9427 150.354 23.2031 150.5C23.4635 150.646 23.9635 150.857 24.7031 151.133C25.7188 151.503 26.4036 151.875 26.7578 152.25C27.1172 152.625 27.2969 153.096 27.2969 153.664ZM30.7109 156H29.4141V147.438H30.7109V156ZM29.3047 145.117C29.3047 144.82 29.3776 144.604 29.5234 144.469C29.6693 144.328 29.8516 144.258 30.0703 144.258C30.2786 144.258 30.4583 144.328 30.6094 144.469C30.7604 144.609 30.8359 144.826 30.8359 145.117C30.8359 145.409 30.7604 145.628 30.6094 145.773C30.4583 145.914 30.2786 145.984 30.0703 145.984C29.8516 145.984 29.6693 145.914 29.5234 145.773C29.3776 145.628 29.3047 145.409 29.3047 145.117ZM39.3203 156V150.461C39.3203 149.763 39.1615 149.242 38.8438 148.898C38.526 148.555 38.0286 148.383 37.3516 148.383C36.4557 148.383 35.7995 148.625 35.3828 149.109C34.9661 149.594 34.7578 150.393 34.7578 151.508V156H33.4609V147.438H34.5156L34.7266 148.609H34.7891C35.0547 148.188 35.4271 147.862 35.9062 147.633C36.3854 147.398 36.9193 147.281 37.5078 147.281C38.5391 147.281 39.3151 147.531 39.8359 148.031C40.3568 148.526 40.6172 149.32 40.6172 150.414V156H39.3203ZM46.9062 156.156C45.6406 156.156 44.6406 155.771 43.9062 155C43.1771 154.229 42.8125 153.159 42.8125 151.789C42.8125 150.409 43.151 149.312 43.8281 148.5C44.5104 147.688 45.4245 147.281 46.5703 147.281C47.6432 147.281 48.4922 147.635 49.1172 148.344C49.7422 149.047 50.0547 149.977 50.0547 151.133V151.953H44.1562C44.1823 152.958 44.4349 153.721 44.9141 154.242C45.3984 154.763 46.0781 155.023 46.9531 155.023C47.875 155.023 48.7865 154.831 49.6875 154.445V155.602C49.2292 155.799 48.7943 155.94 48.3828 156.023C47.9766 156.112 47.4844 156.156 46.9062 156.156ZM46.5547 148.367C45.8672 148.367 45.3177 148.591 44.9062 149.039C44.5 149.487 44.2604 150.107 44.1875 150.898H48.6641C48.6641 150.081 48.4818 149.456 48.1172 149.023C47.7526 148.586 47.2318 148.367 46.5547 148.367ZM57.7969 153.664C57.7969 154.461 57.5 155.076 56.9062 155.508C56.3125 155.94 55.4792 156.156 54.4062 156.156C53.2708 156.156 52.3854 155.977 51.75 155.617V154.414C52.1615 154.622 52.6016 154.786 53.0703 154.906C53.5443 155.026 54 155.086 54.4375 155.086C55.1146 155.086 55.6354 154.979 56 154.766C56.3646 154.547 56.5469 154.216 56.5469 153.773C56.5469 153.44 56.401 153.156 56.1094 152.922C55.8229 152.682 55.2604 152.401 54.4219 152.078C53.625 151.781 53.0573 151.523 52.7188 151.305C52.3854 151.081 52.1354 150.828 51.9688 150.547C51.8073 150.266 51.7266 149.93 51.7266 149.539C51.7266 148.841 52.0104 148.292 52.5781 147.891C53.1458 147.484 53.9245 147.281 54.9141 147.281C55.8359 147.281 56.737 147.469 57.6172 147.844L57.1562 148.898C56.2969 148.544 55.5182 148.367 54.8203 148.367C54.2057 148.367 53.7422 148.464 53.4297 148.656C53.1172 148.849 52.9609 149.115 52.9609 149.453C52.9609 149.682 53.0182 149.878 53.1328 150.039C53.2526 150.201 53.4427 150.354 53.7031 150.5C53.9635 150.646 54.4635 150.857 55.2031 151.133C56.2188 151.503 56.9036 151.875 57.2578 152.25C57.6172 152.625 57.7969 153.096 57.7969 153.664ZM65.4375 153.664C65.4375 154.461 65.1406 155.076 64.5469 155.508C63.9531 155.94 63.1198 156.156 62.0469 156.156C60.9115 156.156 60.026 155.977 59.3906 155.617V154.414C59.8021 154.622 60.2422 154.786 60.7109 154.906C61.1849 155.026 61.6406 155.086 62.0781 155.086C62.7552 155.086 63.276 154.979 63.6406 154.766C64.0052 154.547 64.1875 154.216 64.1875 153.773C64.1875 153.44 64.0417 153.156 63.75 152.922C63.4635 152.682 62.901 152.401 62.0625 152.078C61.2656 151.781 60.6979 151.523 60.3594 151.305C60.026 151.081 59.776 150.828 59.6094 150.547C59.4479 150.266 59.3672 149.93 59.3672 149.539C59.3672 148.841 59.651 148.292 60.2188 147.891C60.7865 147.484 61.5651 147.281 62.5547 147.281C63.4766 147.281 64.3776 147.469 65.2578 147.844L64.7969 148.898C63.9375 148.544 63.1589 148.367 62.4609 148.367C61.8464 148.367 61.3828 148.464 61.0703 148.656C60.7578 148.849 60.6016 149.115 60.6016 149.453C60.6016 149.682 60.6589 149.878 60.7734 150.039C60.8932 150.201 61.0833 150.354 61.3438 150.5C61.6042 150.646 62.1042 150.857 62.8438 151.133C63.8594 151.503 64.5443 151.875 64.8984 152.25C65.2578 152.625 65.4375 153.096 65.4375 153.664ZM71.1719 156.156C69.9062 156.156 68.9062 155.771 68.1719 155C67.4427 154.229 67.0781 153.159 67.0781 151.789C67.0781 150.409 67.4167 149.312 68.0938 148.5C68.776 147.688 69.6901 147.281 70.8359 147.281C71.9089 147.281 72.7578 147.635 73.3828 148.344C74.0078 149.047 74.3203 149.977 74.3203 151.133V151.953H68.4219C68.4479 152.958 68.7005 153.721 69.1797 154.242C69.6641 154.763 70.3438 155.023 71.2188 155.023C72.1406 155.023 73.0521 154.831 73.9531 154.445V155.602C73.4948 155.799 73.0599 155.94 72.6484 156.023C72.2422 156.112 71.75 156.156 71.1719 156.156ZM70.8203 148.367C70.1328 148.367 69.5833 148.591 69.1719 149.039C68.7656 149.487 68.526 150.107 68.4531 150.898H72.9297C72.9297 150.081 72.7474 149.456 72.3828 149.023C72.0182 148.586 71.4974 148.367 70.8203 148.367ZM82.0625 153.664C82.0625 154.461 81.7656 155.076 81.1719 155.508C80.5781 155.94 79.7448 156.156 78.6719 156.156C77.5365 156.156 76.651 155.977 76.0156 155.617V154.414C76.4271 154.622 76.8672 154.786 77.3359 154.906C77.8099 155.026 78.2656 155.086 78.7031 155.086C79.3802 155.086 79.901 154.979 80.2656 154.766C80.6302 154.547 80.8125 154.216 80.8125 153.773C80.8125 153.44 80.6667 153.156 80.375 152.922C80.0885 152.682 79.526 152.401 78.6875 152.078C77.8906 151.781 77.3229 151.523 76.9844 151.305C76.651 151.081 76.401 150.828 76.2344 150.547C76.0729 150.266 75.9922 149.93 75.9922 149.539C75.9922 148.841 76.276 148.292 76.8438 147.891C77.4115 147.484 78.1901 147.281 79.1797 147.281C80.1016 147.281 81.0026 147.469 81.8828 147.844L81.4219 148.898C80.5625 148.544 79.7839 148.367 79.0859 148.367C78.4714 148.367 78.0078 148.464 77.6953 148.656C77.3828 148.849 77.2266 149.115 77.2266 149.453C77.2266 149.682 77.2839 149.878 77.3984 150.039C77.5182 150.201 77.7083 150.354 77.9688 150.5C78.2292 150.646 78.7292 150.857 79.4688 151.133C80.4844 151.503 81.1693 151.875 81.5234 152.25C81.8828 152.625 82.0625 153.096 82.0625 153.664Z" fill="#E7E9ED"/>
<path fill-rule="evenodd" clip-rule="evenodd" d="M18.1652 50H41.834C40.883 44.3252 35.9447 40 29.9996 40C24.0544 40 19.1161 44.3252 18.1652 50ZM41.9996 52C43.1041 52 44.0146 51.0994 43.8586 50.0059C42.8907 43.2185 37.0546 38 29.9996 38C22.9446 38 17.1084 43.2185 16.1405 50.0059C15.9846 51.0994 16.895 52 17.9996 52H41.9996Z" fill="white"/>
<path fill-rule="evenodd" clip-rule="evenodd" d="M5.19018 50H23.8108C22.9212 45.378 19.0364 42 14.5005 42C9.9646 42 6.07975 45.378 5.19018 50ZM4.9992 50C4.99835 49.9999 4.99794 49.9998 4.99795 49.9998L4.9992 50ZM24.0005 52C25.105 52 26.0174 51.0983 25.8427 50.0076C24.9332 44.3284 20.2013 40 14.5005 40C8.79968 40 4.06773 44.3284 3.15826 50.0076C2.98359 51.0983 3.89591 52 5.00048 52H24.0005Z" fill="white"/>
<path fill-rule="evenodd" clip-rule="evenodd" d="M36.1902 50H54.8108C53.9212 45.378 50.0364 42 45.5005 42C40.9646 42 37.0797 45.378 36.1902 50ZM35.9992 50C35.9983 49.9999 35.9979 49.9998 35.9979 49.9998L35.9992 50ZM55.0005 52C56.105 52 57.0174 51.0983 56.8427 50.0076C55.9332 44.3284 51.2013 40 45.5005 40C39.7997 40 35.0677 44.3284 34.1583 50.0076C33.9836 51.0983 34.8959 52 36.0005 52H55.0005Z" fill="white"/>
<path fill-rule="evenodd" clip-rule="evenodd" d="M30 38C32.7614 38 35 35.7614 35 33C35 30.2386 32.7614 28 30 28C27.2386 28 25 30.2386 25 33C25 35.7614 27.2386 38 30 38ZM30 40C33.866 40 37 36.866 37 33C37 29.134 33.866 26 30 26C26.134 26 23 29.134 23 33C23 36.866 26.134 40 30 40Z" fill="white"/>
<path fill-rule="evenodd" clip-rule="evenodd" d="M14.5 40C16.433 40 18 38.433 18 36.5C18 34.567 16.433 33 14.5 33C12.567 33 11 34.567 11 36.5C11 38.433 12.567 40 14.5 40ZM14.5 42C17.5376 42 20 39.5376 20 36.5C20 33.4624 17.5376 31 14.5 31C11.4624 31 9 33.4624 9 36.5C9 39.5376 11.4624 42 14.5 42Z" fill="white"/>
<path fill-rule="evenodd" clip-rule="evenodd" d="M45.5 40C47.433 40 49 38.433 49 36.5C49 34.567 47.433 33 45.5 33C43.567 33 42 34.567 42 36.5C42 38.433 43.567 40 45.5 40ZM45.5 42C48.5376 42 51 39.5376 51 36.5C51 33.4624 48.5376 31 45.5 31C42.4624 31 40 33.4624 40 36.5C40 39.5376 42.4624 42 45.5 42Z" fill="white"/>
<path fill-rule="evenodd" clip-rule="evenodd" d="M26 11H34C35.1046 11 36 11.8954 36 13V26C36 26.5523 36.4477 27 37 27C37.5523 27 38 26.5523 38 26V13C38 10.7909 36.2091 9 34 9H26C23.7909 9 22 10.7909 22 13V26C22 26.5523 22.4477 27 23 27C23.5523 27 24 26.5523 24 26V13C24 11.8954 24.8954 11 26 11Z" fill="white"/>
<path fill-rule="evenodd" clip-rule="evenodd" d="M44 2H52C53.1046 2 54 2.89543 54 4V5V6V10V41C54 41.5523 54.4477 42 55 42C55.5523 42 56 41.5523 56 41V10V6V5V4C56 1.79086 54.2091 0 52 0H44C41.7909 0 40 1.79086 40 4V29C40 29.5523 40.4477 30 41 30C41.5523 30 42 29.5523 42 29V4C42 2.89543 42.8954 2 44 2Z" fill="white"/>
<path fill-rule="evenodd" clip-rule="evenodd" d="M8 21H16C17.1046 21 18 21.8954 18 23V29C18 29.5523 18.4477 30 19 30C19.5523 30 20 29.5523 20 29V23C20 20.7909 18.2091 19 16 19H8C5.79086 19 4 20.7909 4 23V25V26V30V31V37C4 38.8675 5.27976 40.4361 7.01012 40.8766C7.54533 41.0128 8 40.5523 8 40C8 39.4477 7.52548 39.0207 7.04103 38.7555C6.42067 38.4159 6 37.7571 6 37V31V30V26V25V23C6 21.8954 6.89543 21 8 21Z" fill="white"/>
<path fill-rule="evenodd" clip-rule="evenodd" d="M54 56H6C5.44772 56 5 56.4477 5 57C5 57.5523 5.44772 58 6 58H45H46H50H51H54C54.5523 58 55 57.5523 55 57C55 56.4477 54.5523 56 54 56ZM51 60H50H46H45H6C4.34315 60 3 58.6569 3 57C3 55.3431 4.34315 54 6 54H54C55.6569 54 57 55.3431 57 57C57 58.6569 55.6569 60 54 60H51Z" fill="white"/>
</svg>
