<svg width="446" height="24" viewBox="0 0 446 24" fill="none" xmlns="http://www.w3.org/2000/svg">
<path d="M7.92773 18H1.56055V6.57812H7.92773V7.75781H2.88867V11.4375H7.62305V12.6094H2.88867V16.8125H7.92773V18ZM12.334 13.6172L9.35742 9.4375H10.834L13.0918 12.7188L15.3418 9.4375H16.8027L13.8262 13.6172L16.959 18H15.4902L13.0918 14.5312L10.6699 18H9.20117L12.334 13.6172ZM22.084 18.1562C20.8444 18.1562 19.8835 17.776 19.2012 17.0156C18.5241 16.25 18.1855 15.1693 18.1855 13.7734C18.1855 12.3411 18.5293 11.2344 19.2168 10.4531C19.9095 9.67188 20.8939 9.28125 22.1699 9.28125C22.5814 9.28125 22.9928 9.32552 23.4043 9.41406C23.8158 9.5026 24.1387 9.60677 24.373 9.72656L23.9746 10.8281C23.6882 10.7135 23.3757 10.6198 23.0371 10.5469C22.6986 10.4688 22.3991 10.4297 22.1387 10.4297C20.3991 10.4297 19.5293 11.5391 19.5293 13.7578C19.5293 14.8099 19.7402 15.6172 20.1621 16.1797C20.5892 16.7422 21.2194 17.0234 22.0527 17.0234C22.7663 17.0234 23.498 16.8698 24.248 16.5625V17.7109C23.6751 18.0078 22.9538 18.1562 22.084 18.1562ZM29.9043 18.1562C28.6387 18.1562 27.6387 17.7708 26.9043 17C26.1751 16.2292 25.8105 15.1589 25.8105 13.7891C25.8105 12.4089 26.1491 11.3125 26.8262 10.5C27.5085 9.6875 28.4225 9.28125 29.5684 9.28125C30.6413 9.28125 31.4902 9.63542 32.1152 10.3438C32.7402 11.0469 33.0527 11.9766 33.0527 13.1328V13.9531H27.1543C27.1803 14.9583 27.4329 15.7214 27.9121 16.2422C28.3965 16.763 29.0762 17.0234 29.9512 17.0234C30.873 17.0234 31.7845 16.8307 32.6855 16.4453V17.6016C32.2272 17.7995 31.7923 17.9401 31.3809 18.0234C30.9746 18.112 30.4824 18.1562 29.9043 18.1562ZM29.5527 10.3672C28.8652 10.3672 28.3158 10.5911 27.9043 11.0391C27.498 11.487 27.2585 12.1068 27.1855 12.8984H31.6621C31.6621 12.0807 31.4798 11.4557 31.1152 11.0234C30.7507 10.5859 30.2298 10.3672 29.5527 10.3672ZM36.5684 18H35.2715V5.84375H36.5684V18ZM40.6152 18H39.3184V5.84375H40.6152V18ZM46.9824 18.1562C45.7168 18.1562 44.7168 17.7708 43.9824 17C43.2533 16.2292 42.8887 15.1589 42.8887 13.7891C42.8887 12.4089 43.2272 11.3125 43.9043 10.5C44.5866 9.6875 45.5007 9.28125 46.6465 9.28125C47.7194 9.28125 48.5684 9.63542 49.1934 10.3438C49.8184 11.0469 50.1309 11.9766 50.1309 13.1328V13.9531H44.2324C44.2585 14.9583 44.5111 15.7214 44.9902 16.2422C45.4746 16.763 46.1543 17.0234 47.0293 17.0234C47.9512 17.0234 48.8626 16.8307 49.7637 16.4453V17.6016C49.3053 17.7995 48.8704 17.9401 48.459 18.0234C48.0527 18.112 47.5605 18.1562 46.9824 18.1562ZM46.6309 10.3672C45.9434 10.3672 45.3939 10.5911 44.9824 11.0391C44.5762 11.487 44.3366 12.1068 44.2637 12.8984H48.7402C48.7402 12.0807 48.5579 11.4557 48.1934 11.0234C47.8288 10.5859 47.3079 10.3672 46.6309 10.3672ZM58.209 18V12.4609C58.209 11.763 58.0501 11.2422 57.7324 10.8984C57.4147 10.5547 56.9173 10.3828 56.2402 10.3828C55.3444 10.3828 54.6882 10.625 54.2715 11.1094C53.8548 11.5938 53.6465 12.3932 53.6465 13.5078V18H52.3496V9.4375H53.4043L53.6152 10.6094H53.6777C53.9434 10.1875 54.3158 9.86198 54.7949 9.63281C55.2741 9.39844 55.8079 9.28125 56.3965 9.28125C57.4277 9.28125 58.2038 9.53125 58.7246 10.0312C59.2454 10.526 59.5059 11.3203 59.5059 12.4141V18H58.209ZM64.9434 17.0859C65.1725 17.0859 65.3939 17.0703 65.6074 17.0391C65.821 17.0026 65.9902 16.9661 66.1152 16.9297V17.9219C65.9746 17.9896 65.7663 18.0443 65.4902 18.0859C65.2194 18.1328 64.9746 18.1562 64.7559 18.1562C63.0996 18.1562 62.2715 17.2839 62.2715 15.5391V10.4453H61.0449V9.82031L62.2715 9.28125L62.8184 7.45312H63.5684V9.4375H66.0527V10.4453H63.5684V15.4844C63.5684 16 63.6908 16.3958 63.9355 16.6719C64.1803 16.9479 64.5163 17.0859 64.9434 17.0859Z" fill="#1D212A"/>
<path d="M213.217 18L217.951 7.77344H211.725V6.57812H219.326V7.61719L214.654 18H213.217ZM222.881 16.1406L222.998 16.3203C222.863 16.8411 222.667 17.4453 222.412 18.1328C222.157 18.8255 221.891 19.4688 221.615 20.0625H220.639C220.779 19.5208 220.933 18.8516 221.1 18.0547C221.271 17.2578 221.391 16.6198 221.459 16.1406H222.881ZM232.42 12.2734C232.42 14.2474 232.107 15.7214 231.482 16.6953C230.863 17.6693 229.912 18.1562 228.631 18.1562C227.402 18.1562 226.467 17.6589 225.826 16.6641C225.186 15.6641 224.865 14.2005 224.865 12.2734C224.865 10.2839 225.175 8.80729 225.795 7.84375C226.415 6.88021 227.36 6.39844 228.631 6.39844C229.87 6.39844 230.811 6.90104 231.451 7.90625C232.097 8.91146 232.42 10.3672 232.42 12.2734ZM226.178 12.2734C226.178 13.9349 226.373 15.1458 226.764 15.9062C227.154 16.6615 227.777 17.0391 228.631 17.0391C229.495 17.0391 230.12 16.6562 230.506 15.8906C230.896 15.1198 231.092 13.9141 231.092 12.2734C231.092 10.6328 230.896 9.43229 230.506 8.67188C230.12 7.90625 229.495 7.52344 228.631 7.52344C227.777 7.52344 227.154 7.90104 226.764 8.65625C226.373 9.40625 226.178 10.612 226.178 12.2734ZM241.576 12.2734C241.576 14.2474 241.264 15.7214 240.639 16.6953C240.019 17.6693 239.068 18.1562 237.787 18.1562C236.558 18.1562 235.623 17.6589 234.982 16.6641C234.342 15.6641 234.021 14.2005 234.021 12.2734C234.021 10.2839 234.331 8.80729 234.951 7.84375C235.571 6.88021 236.516 6.39844 237.787 6.39844C239.027 6.39844 239.967 6.90104 240.607 7.90625C241.253 8.91146 241.576 10.3672 241.576 12.2734ZM235.334 12.2734C235.334 13.9349 235.529 15.1458 235.92 15.9062C236.311 16.6615 236.933 17.0391 237.787 17.0391C238.652 17.0391 239.277 16.6562 239.662 15.8906C240.053 15.1198 240.248 13.9141 240.248 12.2734C240.248 10.6328 240.053 9.43229 239.662 8.67188C239.277 7.90625 238.652 7.52344 237.787 7.52344C236.933 7.52344 236.311 7.90104 235.92 8.65625C235.529 9.40625 235.334 10.612 235.334 12.2734ZM250.732 12.2734C250.732 14.2474 250.42 15.7214 249.795 16.6953C249.175 17.6693 248.225 18.1562 246.943 18.1562C245.714 18.1562 244.779 17.6589 244.139 16.6641C243.498 15.6641 243.178 14.2005 243.178 12.2734C243.178 10.2839 243.488 8.80729 244.107 7.84375C244.727 6.88021 245.673 6.39844 246.943 6.39844C248.183 6.39844 249.123 6.90104 249.764 7.90625C250.41 8.91146 250.732 10.3672 250.732 12.2734ZM244.49 12.2734C244.49 13.9349 244.686 15.1458 245.076 15.9062C245.467 16.6615 246.089 17.0391 246.943 17.0391C247.808 17.0391 248.433 16.6562 248.818 15.8906C249.209 15.1198 249.404 13.9141 249.404 12.2734C249.404 10.6328 249.209 9.43229 248.818 8.67188C248.433 7.90625 247.808 7.52344 246.943 7.52344C246.089 7.52344 245.467 7.90104 245.076 8.65625C244.686 9.40625 244.49 10.612 244.49 12.2734ZM260.975 9.28125C261.355 9.28125 261.696 9.3125 261.998 9.375L261.818 10.5781C261.464 10.5 261.152 10.4609 260.881 10.4609C260.188 10.4609 259.594 10.7422 259.1 11.3047C258.61 11.8672 258.365 12.5677 258.365 13.4062V18H257.068V9.4375H258.139L258.287 11.0234H258.35C258.667 10.4661 259.05 10.0365 259.498 9.73438C259.946 9.43229 260.438 9.28125 260.975 9.28125ZM267.217 18.1562C265.951 18.1562 264.951 17.7708 264.217 17C263.488 16.2292 263.123 15.1589 263.123 13.7891C263.123 12.4089 263.462 11.3125 264.139 10.5C264.821 9.6875 265.735 9.28125 266.881 9.28125C267.954 9.28125 268.803 9.63542 269.428 10.3438C270.053 11.0469 270.365 11.9766 270.365 13.1328V13.9531H264.467C264.493 14.9583 264.745 15.7214 265.225 16.2422C265.709 16.763 266.389 17.0234 267.264 17.0234C268.186 17.0234 269.097 16.8307 269.998 16.4453V17.6016C269.54 17.7995 269.105 17.9401 268.693 18.0234C268.287 18.112 267.795 18.1562 267.217 18.1562ZM266.865 10.3672C266.178 10.3672 265.628 10.5911 265.217 11.0391C264.811 11.487 264.571 12.1068 264.498 12.8984H268.975C268.975 12.0807 268.792 11.4557 268.428 11.0234C268.063 10.5859 267.542 10.3672 266.865 10.3672ZM274.459 18L271.209 9.4375H272.6L274.443 14.5156C274.86 15.7031 275.105 16.474 275.178 16.8281H275.24C275.298 16.5521 275.477 15.9818 275.779 15.1172C276.087 14.2474 276.771 12.3542 277.834 9.4375H279.225L275.975 18H274.459ZM281.896 18H280.6V9.4375H281.896V18ZM280.49 7.11719C280.49 6.82031 280.563 6.60417 280.709 6.46875C280.855 6.32812 281.037 6.25781 281.256 6.25781C281.464 6.25781 281.644 6.32812 281.795 6.46875C281.946 6.60938 282.021 6.82552 282.021 7.11719C282.021 7.40885 281.946 7.6276 281.795 7.77344C281.644 7.91406 281.464 7.98438 281.256 7.98438C281.037 7.98438 280.855 7.91406 280.709 7.77344C280.563 7.6276 280.49 7.40885 280.49 7.11719ZM288.264 18.1562C286.998 18.1562 285.998 17.7708 285.264 17C284.535 16.2292 284.17 15.1589 284.17 13.7891C284.17 12.4089 284.508 11.3125 285.186 10.5C285.868 9.6875 286.782 9.28125 287.928 9.28125C289.001 9.28125 289.85 9.63542 290.475 10.3438C291.1 11.0469 291.412 11.9766 291.412 13.1328V13.9531H285.514C285.54 14.9583 285.792 15.7214 286.271 16.2422C286.756 16.763 287.436 17.0234 288.311 17.0234C289.232 17.0234 290.144 16.8307 291.045 16.4453V17.6016C290.587 17.7995 290.152 17.9401 289.74 18.0234C289.334 18.112 288.842 18.1562 288.264 18.1562ZM287.912 10.3672C287.225 10.3672 286.675 10.5911 286.264 11.0391C285.857 11.487 285.618 12.1068 285.545 12.8984H290.021C290.021 12.0807 289.839 11.4557 289.475 11.0234C289.11 10.5859 288.589 10.3672 287.912 10.3672ZM300.623 18L299.053 12.9766C298.954 12.6693 298.769 11.9714 298.498 10.8828H298.436C298.227 11.7943 298.045 12.4974 297.889 12.9922L296.271 18H294.771L292.436 9.4375H293.795C294.347 11.5885 294.766 13.2266 295.053 14.3516C295.344 15.4766 295.511 16.2344 295.553 16.625H295.615C295.673 16.3281 295.764 15.9453 295.889 15.4766C296.019 15.0026 296.131 14.6276 296.225 14.3516L297.795 9.4375H299.201L300.732 14.3516C301.024 15.2474 301.222 16 301.326 16.6094H301.389C301.41 16.4219 301.464 16.1328 301.553 15.7422C301.646 15.3516 302.191 13.25 303.186 9.4375H304.529L302.162 18H300.623ZM311.607 15.6641C311.607 16.4609 311.311 17.0755 310.717 17.5078C310.123 17.9401 309.29 18.1562 308.217 18.1562C307.081 18.1562 306.196 17.9766 305.561 17.6172V16.4141C305.972 16.6224 306.412 16.7865 306.881 16.9062C307.355 17.026 307.811 17.0859 308.248 17.0859C308.925 17.0859 309.446 16.9792 309.811 16.7656C310.175 16.5469 310.357 16.2161 310.357 15.7734C310.357 15.4401 310.212 15.1562 309.92 14.9219C309.633 14.6823 309.071 14.401 308.232 14.0781C307.436 13.7812 306.868 13.5234 306.529 13.3047C306.196 13.0807 305.946 12.8281 305.779 12.5469C305.618 12.2656 305.537 11.9297 305.537 11.5391C305.537 10.8411 305.821 10.2917 306.389 9.89062C306.956 9.48438 307.735 9.28125 308.725 9.28125C309.646 9.28125 310.548 9.46875 311.428 9.84375L310.967 10.8984C310.107 10.5443 309.329 10.3672 308.631 10.3672C308.016 10.3672 307.553 10.4635 307.24 10.6562C306.928 10.849 306.771 11.1146 306.771 11.4531C306.771 11.6823 306.829 11.8776 306.943 12.0391C307.063 12.2005 307.253 12.3542 307.514 12.5C307.774 12.6458 308.274 12.8568 309.014 13.1328C310.029 13.5026 310.714 13.875 311.068 14.25C311.428 14.625 311.607 15.0964 311.607 15.6641ZM325.271 13.7109C325.271 15.1068 324.92 16.1979 324.217 16.9844C323.514 17.7656 322.542 18.1562 321.303 18.1562C320.537 18.1562 319.857 17.9766 319.264 17.6172C318.67 17.2578 318.212 16.7422 317.889 16.0703C317.566 15.3984 317.404 14.612 317.404 13.7109C317.404 12.3151 317.753 11.2292 318.451 10.4531C319.149 9.67188 320.118 9.28125 321.357 9.28125C322.555 9.28125 323.506 9.67969 324.209 10.4766C324.917 11.2734 325.271 12.3516 325.271 13.7109ZM318.748 13.7109C318.748 14.8047 318.967 15.638 319.404 16.2109C319.842 16.7839 320.485 17.0703 321.334 17.0703C322.183 17.0703 322.826 16.7865 323.264 16.2188C323.706 15.6458 323.928 14.8099 323.928 13.7109C323.928 12.6224 323.706 11.7969 323.264 11.2344C322.826 10.6667 322.178 10.3828 321.318 10.3828C320.469 10.3828 319.829 10.6615 319.396 11.2188C318.964 11.776 318.748 12.6068 318.748 13.7109ZM333.412 18V12.4609C333.412 11.763 333.253 11.2422 332.936 10.8984C332.618 10.5547 332.12 10.3828 331.443 10.3828C330.548 10.3828 329.891 10.625 329.475 11.1094C329.058 11.5938 328.85 12.3932 328.85 13.5078V18H327.553V9.4375H328.607L328.818 10.6094H328.881C329.146 10.1875 329.519 9.86198 329.998 9.63281C330.477 9.39844 331.011 9.28125 331.6 9.28125C332.631 9.28125 333.407 9.53125 333.928 10.0312C334.449 10.526 334.709 11.3203 334.709 12.4141V18H333.412Z" fill="#1D212A"/>
<g clip-path="url(#clip0_925_53)">
<path d="M98.9902 0H74.9902V24H98.9902V0Z" fill="#00B67A"/>
<path d="M124.99 0H100.99V24H124.99V0Z" fill="#00B67A"/>
<path d="M150.99 0H126.99V24H150.99V0Z" fill="#00B67A"/>
<path d="M176.99 0H152.99V24H176.99V0Z" fill="#00B67A"/>
<path d="M202.99 0H190.99V24H202.99V0Z" fill="#DCDCE6"/>
<path d="M190.99 0H178.99V24H190.99V0Z" fill="#00B67A"/>
<path d="M86.9898 16.1748L90.6398 15.2498L92.1648 19.9498L86.9898 16.1748ZM95.3898 10.0998H88.9648L86.9898 4.0498L85.0148 10.0998H78.5898L83.7898 13.8498L81.8148 19.8998L87.0148 16.1498L90.2148 13.8498L95.3898 10.0998Z" fill="white"/>
<path d="M112.99 16.1748L116.64 15.2498L118.165 19.9498L112.99 16.1748ZM121.39 10.0998H114.965L112.99 4.0498L111.015 10.0998H104.59L109.79 13.8498L107.815 19.8998L113.015 16.1498L116.215 13.8498L121.39 10.0998Z" fill="white"/>
<path d="M138.99 16.1748L142.64 15.2498L144.165 19.9498L138.99 16.1748ZM147.39 10.0998H140.965L138.99 4.0498L137.015 10.0998H130.59L135.79 13.8498L133.815 19.8998L139.015 16.1498L142.215 13.8498L147.39 10.0998Z" fill="white"/>
<path d="M164.99 16.1748L168.64 15.2498L170.165 19.9498L164.99 16.1748ZM173.39 10.0998H166.965L164.99 4.0498L163.015 10.0998H156.59L161.79 13.8498L159.815 19.8998L165.015 16.1498L168.215 13.8498L173.39 10.0998Z" fill="white"/>
<path d="M190.99 16.1748L194.64 15.2498L196.165 19.9498L190.99 16.1748ZM199.39 10.0998H192.965L190.99 4.0498L189.015 10.0998H182.59L187.79 13.8498L185.815 19.8998L191.015 16.1498L194.215 13.8498L199.39 10.0998Z" fill="white"/>
</g>
<path d="M371.534 6H381.761V7.84615H377.74V18.2243H375.529V7.84615H371.525V6H371.534ZM381.324 9.37311H383.214V11.0812H383.25C383.312 10.8397 383.428 10.6068 383.598 10.3825C383.767 10.1582 383.972 9.94249 384.213 9.76132C384.454 9.57153 384.721 9.42487 385.015 9.3041C385.309 9.19195 385.613 9.13156 385.916 9.13156C386.148 9.13156 386.317 9.14019 386.406 9.14881C386.495 9.15744 386.584 9.1747 386.683 9.18332V11.064C386.54 11.0381 386.397 11.0208 386.246 11.0036C386.094 10.9863 385.951 10.9777 385.809 10.9777C385.47 10.9777 385.149 11.0467 384.846 11.1761C384.543 11.3055 384.284 11.504 384.061 11.7541C383.838 12.0129 383.66 12.3235 383.526 12.7031C383.393 13.0827 383.33 13.514 383.33 14.0058V18.2157H381.315V9.37311H381.324ZM395.946 18.2243H393.967V16.9907H393.931C393.682 17.4393 393.316 17.793 392.826 18.0604C392.335 18.3278 391.836 18.4659 391.328 18.4659C390.124 18.4659 389.25 18.1812 388.715 17.6032C388.18 17.0252 387.913 16.1538 387.913 14.9892V9.37311H389.928V14.7994C389.928 15.5758 390.08 16.128 390.392 16.4472C390.695 16.7664 391.132 16.9303 391.684 16.9303C392.112 16.9303 392.46 16.8699 392.745 16.7405C393.031 16.6111 393.262 16.4472 393.432 16.2315C393.61 16.0244 393.735 15.7656 393.815 15.4723C393.896 15.179 393.931 14.8598 393.931 14.5147V9.38174H395.946V18.2243ZM399.379 15.3861C399.441 15.9554 399.664 16.3523 400.048 16.5852C400.44 16.8095 400.903 16.9303 401.447 16.9303C401.635 16.9303 401.849 16.913 402.089 16.8871C402.33 16.8613 402.562 16.8009 402.767 16.7232C402.981 16.6456 403.15 16.5248 403.293 16.3695C403.427 16.2142 403.489 16.0158 403.48 15.7656C403.471 15.5155 403.373 15.3084 403.195 15.1531C403.017 14.9892 402.794 14.8684 402.517 14.7649C402.241 14.67 401.929 14.5838 401.572 14.5147C401.216 14.4457 400.859 14.3681 400.493 14.2904C400.119 14.2128 399.753 14.1093 399.406 13.9971C399.058 13.885 398.746 13.7297 398.469 13.5313C398.193 13.3415 397.97 13.0913 397.81 12.7894C397.64 12.4874 397.56 12.1165 397.56 11.6679C397.56 11.1848 397.685 10.7879 397.926 10.4601C398.166 10.1323 398.478 9.87347 398.844 9.67505C399.218 9.47664 399.628 9.33861 400.083 9.25234C400.538 9.1747 400.975 9.13156 401.385 9.13156C401.857 9.13156 402.312 9.18332 402.74 9.27822C403.168 9.37311 403.56 9.5284 403.908 9.7527C404.256 9.96837 404.541 10.2531 404.773 10.5981C405.005 10.9432 405.147 11.3659 405.21 11.8577H403.106C403.008 11.3918 402.794 11.0726 402.446 10.9173C402.098 10.7534 401.697 10.6758 401.251 10.6758C401.109 10.6758 400.939 10.6844 400.743 10.7103C400.547 10.7362 400.369 10.7793 400.19 10.8397C400.021 10.9001 399.878 10.995 399.753 11.1157C399.637 11.2365 399.575 11.3918 399.575 11.5902C399.575 11.8318 399.664 12.0216 399.834 12.1682C400.003 12.3149 400.226 12.4357 400.502 12.5392C400.779 12.6341 401.091 12.7203 401.447 12.7894C401.804 12.8584 402.17 12.936 402.544 13.0137C402.91 13.0913 403.266 13.1948 403.623 13.307C403.979 13.4191 404.292 13.5744 404.568 13.7728C404.844 13.9712 405.067 14.2128 405.237 14.5061C405.406 14.7994 405.495 15.1704 405.495 15.6017C405.495 16.128 405.37 16.5679 405.121 16.9389C404.871 17.3012 404.55 17.6032 404.158 17.8275C403.765 18.0518 403.32 18.2243 402.838 18.3278C402.357 18.4313 401.875 18.4831 401.403 18.4831C400.823 18.4831 400.288 18.4227 399.798 18.2933C399.308 18.1639 398.88 17.9741 398.523 17.7239C398.166 17.4651 397.881 17.1459 397.676 16.7664C397.471 16.3868 397.364 15.9295 397.346 15.4033H399.379V15.3861ZM406.03 9.37311H407.555V6.71603H409.57V9.37311H411.389V10.8311H409.57V15.5586C409.57 15.7656 409.579 15.9382 409.597 16.0935C409.614 16.2401 409.659 16.3695 409.721 16.473C409.784 16.5766 409.882 16.6542 410.016 16.706C410.149 16.7577 410.319 16.7836 410.551 16.7836C410.693 16.7836 410.836 16.7836 410.979 16.775C411.121 16.7664 411.264 16.7491 411.406 16.7146V18.2243C411.184 18.2502 410.961 18.2674 410.756 18.2933C410.542 18.3192 410.328 18.3278 410.105 18.3278C409.57 18.3278 409.142 18.2761 408.821 18.1812C408.5 18.0863 408.241 17.9396 408.063 17.7498C407.876 17.56 407.76 17.3271 407.689 17.0424C407.626 16.7577 407.582 16.4299 407.573 16.0676V10.8483H406.048V9.37311H406.03ZM412.815 9.37311H414.723V10.5723H414.759C415.044 10.0546 415.436 9.69231 415.945 9.46801C416.453 9.24371 416.997 9.13156 417.594 9.13156C418.316 9.13156 418.94 9.25234 419.475 9.50252C420.01 9.74407 420.456 10.0805 420.813 10.5119C421.169 10.9432 421.428 11.4436 421.606 12.0129C421.785 12.5823 421.874 13.1948 421.874 13.8418C421.874 14.4371 421.794 15.0151 421.633 15.5672C421.473 16.128 421.232 16.6197 420.911 17.051C420.59 17.4824 420.18 17.8188 419.68 18.0776C419.181 18.3364 418.602 18.4659 417.924 18.4659C417.63 18.4659 417.336 18.44 417.041 18.3882C416.747 18.3365 416.462 18.2502 416.194 18.138C415.927 18.0259 415.668 17.8792 415.445 17.6981C415.214 17.5169 415.026 17.3098 414.866 17.0769H414.83V21.4939H412.815V9.37311ZM419.859 13.8073C419.859 13.4105 419.805 13.0223 419.698 12.6427C419.591 12.2631 419.431 11.9353 419.217 11.642C419.003 11.3487 418.735 11.1157 418.423 10.9432C418.102 10.7707 417.737 10.6758 417.327 10.6758C416.48 10.6758 415.838 10.9605 415.41 11.5298C414.982 12.0992 414.768 12.8584 414.768 13.8073C414.768 14.2559 414.821 14.67 414.937 15.0496C415.053 15.4292 415.214 15.757 415.445 16.0331C415.668 16.3091 415.936 16.5248 416.248 16.6801C416.56 16.844 416.925 16.9216 417.336 16.9216C417.799 16.9216 418.183 16.8267 418.504 16.6456C418.825 16.4644 419.083 16.2229 419.288 15.9382C419.493 15.6449 419.645 15.317 419.734 14.9461C419.814 14.5751 419.859 14.1955 419.859 13.8073ZM423.416 6H425.431V7.84615H423.416V6ZM423.416 9.37311H425.431V18.2243H423.416V9.37311ZM427.232 6H429.247V18.2243H427.232V6ZM435.426 18.4659C434.695 18.4659 434.044 18.3451 433.473 18.1122C432.903 17.8792 432.421 17.5514 432.02 17.1459C431.628 16.7318 431.325 16.2401 431.12 15.6707C430.915 15.1014 430.808 14.4716 430.808 13.7901C430.808 13.1172 430.915 12.496 431.12 11.9267C431.325 11.3573 431.628 10.8656 432.02 10.4515C432.412 10.0374 432.903 9.71819 433.473 9.48526C434.044 9.25234 434.695 9.13156 435.426 9.13156C436.157 9.13156 436.808 9.25234 437.379 9.48526C437.949 9.71819 438.431 10.046 438.832 10.4515C439.224 10.8656 439.527 11.3573 439.732 11.9267C439.938 12.496 440.045 13.1172 440.045 13.7901C440.045 14.4716 439.938 15.1014 439.732 15.6707C439.527 16.2401 439.224 16.7318 438.832 17.1459C438.44 17.56 437.949 17.8792 437.379 18.1122C436.808 18.3451 436.157 18.4659 435.426 18.4659ZM435.426 16.9216C435.872 16.9216 436.264 16.8267 436.594 16.6456C436.924 16.4644 437.191 16.2229 437.405 15.9295C437.619 15.6362 437.771 15.2998 437.878 14.9288C437.976 14.5579 438.03 14.1783 438.03 13.7901C438.03 13.4105 437.976 13.0395 437.878 12.66C437.78 12.2804 437.619 11.9526 437.405 11.6592C437.191 11.3659 436.924 11.133 436.594 10.9518C436.264 10.7707 435.872 10.6758 435.426 10.6758C434.98 10.6758 434.588 10.7707 434.258 10.9518C433.928 11.133 433.661 11.3746 433.447 11.6592C433.233 11.9526 433.081 12.2804 432.974 12.66C432.876 13.0395 432.823 13.4105 432.823 13.7901C432.823 14.1783 432.876 14.5579 432.974 14.9288C433.072 15.2998 433.233 15.6362 433.447 15.9295C433.661 16.2229 433.928 16.4644 434.258 16.6456C434.588 16.8354 434.98 16.9216 435.426 16.9216ZM440.633 9.37311H442.158V6.71603H444.173V9.37311H445.991V10.8311H444.173V15.5586C444.173 15.7656 444.182 15.9382 444.199 16.0935C444.217 16.2401 444.262 16.3695 444.324 16.473C444.387 16.5766 444.485 16.6542 444.618 16.706C444.752 16.7577 444.922 16.7836 445.153 16.7836C445.296 16.7836 445.439 16.7836 445.581 16.775C445.724 16.7664 445.867 16.7491 446.009 16.7146V18.2243C445.786 18.2502 445.564 18.2674 445.358 18.2933C445.144 18.3192 444.93 18.3278 444.708 18.3278C444.173 18.3278 443.745 18.2761 443.424 18.1812C443.103 18.0863 442.844 17.9396 442.666 17.7498C442.479 17.56 442.363 17.3271 442.291 17.0424C442.229 16.7577 442.184 16.4299 442.175 16.0676V10.8483H440.651V9.37311H440.633Z" fill="#1D212A"/>
<path d="M369.179 8.50611H359.942L357.089 0L354.227 8.50611L344.99 8.49748L352.471 13.7599L349.609 22.2574L357.089 17.0036L364.561 22.2574L361.708 13.7599L369.179 8.50611Z" fill="#00B67A"/>
<path d="M362.344 15.6865L361.702 13.7627L357.084 17.0064L362.344 15.6865Z" fill="#005128"/>
<defs>
<clipPath id="clip0_925_53">
<rect width="128" height="24" fill="white" transform="translate(74.9902)"/>
</clipPath>
</defs>
</svg>
