<svg width="24" height="24" viewBox="0 0 24 24" fill="none" xmlns="http://www.w3.org/2000/svg">
<path d="M7.72965 21.9892H7.63218C5.66853 21.9715 3.73328 21.5064 1.96654 20.6275C1.64156 20.471 1.37397 20.212 1.20296 19.8883C1.03195 19.5646 0.966495 19.1933 1.01617 18.8287C1.0702 18.4616 1.23596 18.1215 1.48978 17.8567C1.7436 17.592 2.07251 17.4163 2.42954 17.3546C3.52442 17.2049 4.57771 16.8265 5.52432 16.2428C3.88087 14.9254 2.61565 13.1767 1.86275 11.182C1.10985 9.18735 0.897319 7.02098 1.24767 4.91251C1.29518 4.57854 1.43527 4.26559 1.65127 4.01091C1.86728 3.75622 2.1501 3.57053 2.46609 3.47592C2.77352 3.37693 3.10253 3.3727 3.41228 3.46376C3.72202 3.55481 3.99887 3.73714 4.20843 3.9881C4.91999 4.94472 5.81417 5.74268 6.83644 6.33331C7.8587 6.92394 8.98762 7.29485 10.1543 7.42342C10.21 5.95167 10.8269 4.56113 11.8723 3.55087C12.3942 3.03842 13.0105 2.63759 13.6851 2.37176C14.3596 2.10592 15.0791 1.98039 15.8014 2.00248C16.5238 2.02457 17.2347 2.19384 17.8926 2.50043C18.5505 2.80701 19.1423 3.24478 19.6336 3.78822C19.7616 3.90423 19.9206 3.97817 20.09 4.00044C20.2595 4.02271 20.4316 3.9923 20.584 3.91314C20.8745 3.77267 21.198 3.71978 21.5167 3.76067C21.8354 3.80156 22.1362 3.93452 22.384 4.14405C22.6318 4.35359 22.8163 4.63105 22.9162 4.94406C23.016 5.25707 23.0269 5.59273 22.9477 5.91188C22.6667 7.09877 22.1342 8.20766 21.3881 9.15981C21.2237 12.7135 19.6956 16.0564 17.137 18.4597C14.5784 20.8629 11.1969 22.1317 7.72965 21.9892ZM7.72965 19.4908H7.82713C9.24374 19.5407 10.6559 19.3019 11.9818 18.788C13.3077 18.2742 14.521 17.4957 15.5512 16.4975C16.5814 15.4994 17.4082 14.3015 17.9834 12.9733C18.5587 11.6451 18.8711 10.213 18.9025 8.76007C18.9227 8.36189 19.0828 7.98466 19.3534 7.69824C19.6505 7.31254 19.904 6.89345 20.1088 6.44903C19.6698 6.44989 19.2357 6.35575 18.8346 6.17278C18.4336 5.98981 18.0748 5.72212 17.7816 5.38721C17.4997 5.10058 17.1648 4.8745 16.7966 4.72221C16.4283 4.56991 16.0342 4.49446 15.6372 4.50027C15.2362 4.48964 14.8371 4.56031 14.4628 4.70823C14.0886 4.85615 13.7465 5.0784 13.4562 5.36222C13.0646 5.74323 12.7774 6.22301 12.6235 6.75355C12.4695 7.28408 12.4542 7.84677 12.579 8.38531L12.8957 9.8094L11.4702 9.90934C10.0094 10.0315 8.54022 9.8266 7.16433 9.30892C5.78843 8.79124 4.53872 7.97313 3.50175 6.91124C3.45727 8.55569 3.8585 10.1806 4.66082 11.6052C5.46314 13.0299 6.63511 14.1985 8.04644 14.9811L9.20394 15.6557L8.43634 16.78C7.60622 17.8962 6.46882 18.7316 5.17098 19.1785C6.00354 19.3924 6.85918 19.4973 7.71747 19.4908H7.72965Z" fill="#8770FF"/>
</svg>
