<svg width="135" height="133" viewBox="0 0 135 133" fill="none" xmlns="http://www.w3.org/2000/svg">
<mask id="path-1-inside-1_985_5132" fill="white">
<path d="M89.9552 38.5493H79.8067L78.7991 36.3194C78.7991 36.3194 76.424 26.8241 64.0443 20.3501C64.0443 20.3501 61.3813 17.9763 52.9602 18.4798C44.5392 18.9834 43.2437 18.9834 40.6526 23.0116C38.0615 27.0399 42.0201 36.3913 42.0201 36.3913L46.3386 44.8795L27.6252 41.4986L26.8335 38.3335C26.8335 38.3335 22.2271 27.6873 26.6176 17.6886C31.008 7.76173 39.7169 5.96339 39.7169 5.96339C39.7169 5.96339 47.8501 3.80539 59.9418 5.38793C72.0335 6.97046 82.7577 18.4798 82.7577 18.4798C82.7577 18.4798 90.6749 26.4645 94.2736 38.909"/>
</mask>
<g filter="url(#filter0_i_985_5132)">
<path d="M89.9552 38.5493H79.8067L78.7991 36.3194C78.7991 36.3194 76.424 26.8241 64.0443 20.3501C64.0443 20.3501 61.3813 17.9763 52.9602 18.4798C44.5392 18.9834 43.2437 18.9834 40.6526 23.0116C38.0615 27.0399 42.0201 36.3913 42.0201 36.3913L46.3386 44.8795L27.6252 41.4986L26.8335 38.3335C26.8335 38.3335 22.2271 27.6873 26.6176 17.6886C31.008 7.76173 39.7169 5.96339 39.7169 5.96339C39.7169 5.96339 47.8501 3.80539 59.9418 5.38793C72.0335 6.97046 82.7577 18.4798 82.7577 18.4798C82.7577 18.4798 90.6749 26.4645 94.2736 38.909" fill="white"/>
</g>
<path d="M79.8067 38.5493L78.3753 39.1961L78.7929 40.1201H79.8067V38.5493ZM78.7991 36.3194L77.2753 36.7005L77.3096 36.8375L77.3677 36.9662L78.7991 36.3194ZM64.0443 20.3501L62.9991 21.5226L63.1442 21.652L63.3164 21.742L64.0443 20.3501ZM42.0201 36.3913L40.5736 37.0036L40.5951 37.0544L40.6201 37.1035L42.0201 36.3913ZM46.3386 44.8795L46.0593 46.4252L49.1736 46.9878L47.7386 44.1672L46.3386 44.8795ZM27.6252 41.4986L26.1014 41.8797L26.3476 42.8639L27.3459 43.0443L27.6252 41.4986ZM26.8335 38.3335L28.3573 37.9523L28.3261 37.8277L28.2751 37.7098L26.8335 38.3335ZM26.6176 17.6886L25.181 17.0532L25.1794 17.057L26.6176 17.6886ZM39.7169 5.96339L40.0346 7.50169L40.0775 7.49284L40.1198 7.48161L39.7169 5.96339ZM82.7577 18.4798L81.6085 19.5506L81.6251 19.5685L81.6423 19.5858L82.7577 18.4798ZM89.9552 36.9785H79.8067V40.1201H89.9552V36.9785ZM81.2382 37.9025L80.2305 35.6726L77.3677 36.9662L78.3753 39.1961L81.2382 37.9025ZM78.7991 36.3194C80.3229 35.9382 80.3227 35.9374 80.3225 35.9365C80.3224 35.9362 80.3222 35.9352 80.322 35.9346C80.3217 35.9332 80.3213 35.9317 80.3209 35.9301C80.32 35.9268 80.319 35.9229 80.3179 35.9185C80.3156 35.9096 80.3127 35.8984 80.309 35.885C80.3018 35.8581 80.292 35.8222 80.2792 35.7777C80.2536 35.6887 80.2164 35.5651 80.1657 35.4101C80.0642 35.1001 79.9084 34.6639 79.6829 34.1266C79.232 33.0523 78.5013 31.5714 77.3674 29.8858C75.0949 26.5076 71.216 22.328 64.7722 18.9582L63.3164 21.742C69.2523 24.8462 72.7508 28.6513 74.7608 31.6392C75.7681 33.1366 76.4049 34.4341 76.7862 35.3425C76.9768 35.7966 77.1033 36.1528 77.1801 36.3874C77.2184 36.5046 77.2444 36.5913 77.2596 36.6446C77.2673 36.6712 77.2723 36.6894 77.2748 36.6988C77.2761 36.7036 77.2767 36.7061 77.2768 36.7064C77.2768 36.7066 77.2767 36.7061 77.2765 36.7052C77.2763 36.7047 77.2762 36.704 77.276 36.7033C77.2759 36.7029 77.2757 36.7022 77.2757 36.702C77.2755 36.7013 77.2753 36.7005 78.7991 36.3194ZM64.0443 20.3501C65.0895 19.1776 65.0885 19.1767 65.0876 19.1758C65.0872 19.1755 65.0862 19.1746 65.0855 19.174C65.0842 19.1728 65.0828 19.1716 65.0813 19.1703C65.0784 19.1677 65.0753 19.1651 65.0721 19.1622C65.0656 19.1566 65.0583 19.1504 65.0504 19.1437C65.0345 19.1303 65.0158 19.1148 64.9941 19.0974C64.9508 19.0627 64.8956 19.0205 64.828 18.972C64.6927 18.8751 64.5077 18.7537 64.2674 18.6184C63.786 18.3473 63.0866 18.0226 62.1235 17.7253C60.1968 17.1305 57.2334 16.6508 52.8665 16.9119L53.054 20.0478C57.1082 19.8054 59.6868 20.2608 61.1968 20.727C61.9521 20.9602 62.4448 21.1974 62.7259 21.3557C62.8668 21.4351 62.9557 21.4952 62.9989 21.5262C63.0205 21.5416 63.0309 21.5499 63.0306 21.5497C63.0305 21.5496 63.0277 21.5474 63.0225 21.543C63.0198 21.5407 63.0166 21.5379 63.0127 21.5345C63.0107 21.5329 63.0086 21.531 63.0064 21.529C63.0052 21.5281 63.0041 21.527 63.0029 21.526C63.0023 21.5254 63.0013 21.5246 63.001 21.5243C63.0001 21.5235 62.9991 21.5226 64.0443 20.3501ZM52.8665 16.9119C48.779 17.1563 46.0739 17.284 44.1237 17.9337C41.9201 18.6679 40.7008 20.0332 39.3315 22.1619L41.9737 23.8614C43.1955 21.9618 43.9195 21.313 45.1167 20.9142C46.5673 20.4309 48.7205 20.3069 53.054 20.0478L52.8665 16.9119ZM39.3315 22.1619C38.4475 23.5363 38.195 25.2299 38.2024 26.809C38.2099 28.4143 38.4878 30.0872 38.8354 31.5704C39.1849 33.062 39.6172 34.4133 39.9604 35.3886C40.1325 35.8777 40.2835 36.2759 40.3924 36.5542C40.4469 36.6934 40.491 36.8029 40.522 36.8789C40.5376 36.917 40.5498 36.9467 40.5585 36.9676C40.5629 36.9781 40.5664 36.9863 40.5689 36.9924C40.5701 36.9954 40.5712 36.9978 40.572 36.9997C40.5724 37.0006 40.5727 37.0014 40.573 37.0021C40.5731 37.0024 40.5733 37.0028 40.5733 37.003C40.5735 37.0033 40.5736 37.0036 42.0201 36.3913C43.4666 35.779 43.4667 35.7792 43.4668 35.7794C43.4668 35.7794 43.4669 35.7796 43.4669 35.7796C43.4669 35.7797 43.4669 35.7797 43.4668 35.7795C43.4667 35.7791 43.4663 35.7781 43.4656 35.7766C43.4644 35.7736 43.4622 35.7684 43.4591 35.7611C43.453 35.7464 43.4434 35.7231 43.4305 35.6916C43.4049 35.6287 43.3664 35.5333 43.3177 35.409C43.2203 35.1602 43.0823 34.7963 42.9238 34.3458C42.6057 33.4418 42.2103 32.2035 41.894 30.8537C41.5758 29.4955 41.3499 28.0753 41.3439 26.7943C41.3378 25.4871 41.5622 24.5012 41.9737 23.8614L39.3315 22.1619ZM40.6201 37.1035L44.9386 45.5917L47.7386 44.1672L43.4201 35.679L40.6201 37.1035ZM46.6178 43.3337L27.9045 39.9528L27.3459 43.0443L46.0593 46.4252L46.6178 43.3337ZM29.149 41.1174L28.3573 37.9523L25.3097 38.7147L26.1014 41.8797L29.149 41.1174ZM26.8335 38.3335C28.2751 37.7098 28.2753 37.7102 28.2755 37.7106C28.2755 37.7107 28.2756 37.711 28.2757 37.7112C28.2759 37.7115 28.2759 37.7117 28.2759 37.7117C28.2759 37.7117 28.2757 37.7111 28.2751 37.7099C28.2741 37.7074 28.2719 37.7023 28.2688 37.6948C28.2625 37.6798 28.2521 37.6549 28.2381 37.6203C28.2101 37.5513 28.1674 37.444 28.1135 37.3013C28.0055 37.0157 27.8526 36.5887 27.6807 36.0423C27.3363 34.9479 26.9185 33.3833 26.6315 31.5213C26.0549 27.7795 26.0232 22.9492 28.0558 18.3201L25.1794 17.057C22.8215 22.4267 22.8978 27.9188 23.5267 31.9998C23.8425 34.0492 24.3019 35.7711 24.684 36.9853C24.8753 37.5932 25.048 38.0761 25.1748 38.4117C25.2382 38.5796 25.2903 38.7108 25.3276 38.8026C25.3462 38.8486 25.3612 38.8846 25.372 38.9105C25.3775 38.9234 25.3819 38.9338 25.3852 38.9416C25.3869 38.9455 25.3882 38.9488 25.3894 38.9514C25.3899 38.9527 25.3904 38.9538 25.3908 38.9548C25.391 38.9553 25.3913 38.9559 25.3914 38.9562C25.3917 38.9567 25.3919 38.9572 26.8335 38.3335ZM28.0541 18.3239C30.0995 13.6991 33.1341 10.9932 35.6415 9.43834C36.8992 8.65838 38.0257 8.16779 38.8271 7.87468C39.2273 7.7283 39.5447 7.63181 39.7547 7.57345C39.8597 7.54429 39.9375 7.52472 39.9853 7.51324C40.0091 7.5075 40.0254 7.50379 40.0338 7.50193C40.038 7.501 40.0402 7.50053 40.0403 7.5005C40.0404 7.50048 40.0399 7.50058 40.039 7.50078C40.0385 7.50088 40.0379 7.501 40.0372 7.50116C40.0368 7.50123 40.0362 7.50137 40.036 7.50141C40.0353 7.50155 40.0346 7.50169 39.7169 5.96339C39.3993 4.42509 39.3985 4.42525 39.3977 4.42542C39.3974 4.42549 39.3965 4.42566 39.3959 4.4258C39.3946 4.42606 39.3932 4.42635 39.3917 4.42668C39.3886 4.42732 39.385 4.42808 39.3809 4.42897C39.3726 4.43074 39.3623 4.433 39.3498 4.43578C39.325 4.44133 39.2918 4.44893 39.2508 4.45879C39.1689 4.4785 39.0553 4.50725 38.9136 4.54665C38.6301 4.62542 38.2329 4.74697 37.748 4.9243C36.7793 5.27859 35.4541 5.85801 33.9859 6.76849C31.0411 8.59454 27.526 11.7512 25.181 17.0532L28.0541 18.3239ZM39.7169 5.96339C40.1198 7.48161 40.1194 7.48171 40.119 7.48181C40.119 7.48182 40.1187 7.48191 40.1185 7.48195C40.1182 7.48203 40.118 7.48207 40.118 7.48209C40.1179 7.48211 40.1183 7.48201 40.1191 7.48178C40.1209 7.48132 40.1246 7.48036 40.1303 7.47891C40.1416 7.47602 40.1606 7.47119 40.1873 7.4646C40.2408 7.45143 40.3247 7.43123 40.4382 7.40544C40.6651 7.35386 41.0101 7.27991 41.4649 7.19502C42.3746 7.02521 43.7232 6.81175 45.4457 6.64572C48.8916 6.31356 53.8273 6.17183 59.7379 6.9454L60.1456 3.83045C53.9645 3.02148 48.7878 3.16749 45.1442 3.5187C43.322 3.69435 41.8815 3.92149 40.8885 4.10684C40.3919 4.19954 40.0069 4.28182 39.7419 4.34207C39.6093 4.3722 39.5067 4.39682 39.4351 4.41449C39.3993 4.42332 39.3712 4.43041 39.351 4.43559C39.3409 4.43818 39.3328 4.44028 39.3266 4.44189C39.3235 4.44269 39.3209 4.44337 39.3189 4.44392C39.3178 4.44419 39.3169 4.44443 39.3161 4.44464C39.3157 4.44475 39.3152 4.44488 39.315 4.44493C39.3145 4.44506 39.3141 4.44517 39.7169 5.96339ZM59.7379 6.9454C65.3969 7.68602 70.8443 10.7787 74.9551 13.7939C76.9935 15.289 78.666 16.7373 79.827 17.8104C80.407 18.3463 80.8577 18.7871 81.1609 19.0912C81.3125 19.2433 81.4272 19.3611 81.5025 19.4394C81.5402 19.4786 81.5681 19.5078 81.5859 19.5266C81.5947 19.536 81.6011 19.5427 81.6049 19.5468C81.6068 19.5488 81.608 19.5501 81.6086 19.5508C81.6089 19.5511 81.6091 19.5512 81.6091 19.5512C81.609 19.5512 81.6089 19.5511 81.6089 19.5511C81.6087 19.5509 81.6085 19.5506 82.7577 18.4798C83.9069 17.409 83.9066 17.4087 83.9063 17.4083C83.9061 17.4082 83.9057 17.4078 83.9054 17.4074C83.9047 17.4067 83.9039 17.4058 83.9029 17.4047C83.9009 17.4026 83.8982 17.3997 83.8949 17.3962C83.8883 17.3892 83.8791 17.3794 83.8673 17.3669C83.8437 17.342 83.8099 17.3065 83.7661 17.261C83.6785 17.1699 83.5509 17.0389 83.3856 16.8732C83.0552 16.5417 82.5736 16.071 81.9592 15.5032C80.7316 14.3687 78.9673 12.8408 76.8132 11.2608C72.5389 8.12566 66.5784 4.67237 60.1456 3.83045L59.7379 6.9454ZM82.7577 18.4798C81.6423 19.5858 81.6421 19.5855 81.6418 19.5853C81.6418 19.5853 81.6416 19.585 81.6415 19.585C81.6413 19.5848 81.6413 19.5848 81.6414 19.5848C81.6415 19.585 81.6422 19.5857 81.6433 19.5868C81.6455 19.589 81.6496 19.5932 81.6555 19.5993C81.6673 19.6114 81.6865 19.6312 81.7126 19.6585C81.7648 19.7131 81.8448 19.7977 81.9497 19.9115C82.1593 20.1391 82.4681 20.4832 82.8522 20.9369C83.6209 21.8447 84.6895 23.1889 85.8696 24.9144C88.2335 28.3707 91.0242 33.3264 92.7647 39.3453L95.7826 38.4726C93.9244 32.047 90.9571 26.7881 88.4627 23.141C87.2137 21.3148 86.078 19.885 85.2498 18.9069C84.8355 18.4176 84.4976 18.0407 84.2602 17.783C84.1415 17.6541 84.0479 17.5551 83.9824 17.4866C83.9496 17.4524 83.9239 17.4258 83.9056 17.407C83.8964 17.3975 83.8891 17.3901 83.8836 17.3846C83.8809 17.3818 83.8787 17.3795 83.8769 17.3777C83.8761 17.3768 83.8753 17.3761 83.8747 17.3754C83.8743 17.3751 83.8739 17.3747 83.8738 17.3746C83.8734 17.3742 83.8731 17.3739 82.7577 18.4798Z" fill="url(#paint0_linear_985_5132)" mask="url(#path-1-inside-1_985_5132)"/>
<path d="M127.527 99.1893C126.159 100.34 124.432 100.988 122.704 101.132L58.6471 107.102C51.3776 107.677 44.2521 103.361 40.4375 97.319C39.8617 96.312 39.2859 95.3049 38.926 94.2259L21.0763 46.1023C20.0687 43.4408 19.9967 40.4196 21.3642 37.9738C18.4852 42.9372 15.6063 47.8287 12.7993 52.7921C11.3598 55.2379 11.4317 58.1872 12.3674 60.8487L29.1375 108.037C29.3534 108.613 29.5693 109.188 29.8572 109.764C31.3687 112.785 33.7439 115.374 36.5509 117.245C39.5738 119.259 43.1725 120.554 46.8432 120.482C47.2751 120.482 47.7069 120.482 48.1388 120.41L110.973 113.648C112.772 113.432 114.427 112.785 115.795 111.634C119.25 108.037 125.871 101.06 127.527 99.1893Z" fill="url(#paint1_linear_985_5132)"/>
<path d="M107.883 45.0607L107.883 45.0607L107.887 45.0696L127.965 87.7915C127.966 87.7925 127.966 87.7935 127.967 87.7945C128.723 89.4439 129.129 91.011 129.264 92.4987C129.398 93.9689 129.194 95.263 128.688 96.337L128.68 96.3545L128.673 96.3724C128.228 97.4522 127.461 98.4149 126.497 99.1243C125.466 99.8305 124.232 100.289 122.709 100.421L122.704 100.421L58.6469 106.392L58.6469 106.392L58.6331 106.393C56.8215 106.595 54.8401 106.329 52.9524 105.841C51.0122 105.286 49.1498 104.457 47.4294 103.287L47.4204 103.281L47.4111 103.275C45.6765 102.166 44.0836 100.78 42.771 99.1925C41.4523 97.5971 40.4206 95.8744 39.7352 94.0249L39.7351 94.0247L21.8855 45.9011L21.8844 45.8983C21.2747 44.2734 21.0796 42.7386 21.2112 41.3573C21.3406 39.9996 21.8586 38.7673 22.5715 37.7944C23.3423 36.7686 24.3807 35.9813 25.6527 35.378C26.9632 34.7901 28.4999 34.5151 30.2899 34.5151L30.2917 34.5151L91.9001 34.3712C91.9004 34.3712 91.9007 34.3712 91.901 34.3712C93.3894 34.3714 94.9575 34.642 96.5364 35.1909C98.1269 35.7438 99.6509 36.5049 101.109 37.4765C102.557 38.441 103.877 39.619 105.069 40.8793C106.25 42.1996 107.205 43.5701 107.883 45.0607Z" fill="#EDF0F6" stroke="url(#paint2_linear_985_5132)" stroke-width="1.57075"/>
<path d="M100.391 40.8512L95.497 47.2532C95.425 47.1094 95.353 47.0374 95.2811 46.9655C95.2091 46.8936 95.0652 46.7497 94.9932 46.6778C94.9212 46.6058 94.7773 46.5339 94.6333 46.5339C94.4894 46.462 94.4174 46.462 94.2734 46.462L99.1677 40.0599C99.3116 40.0599 99.4518 39.988 99.5958 40.0599C99.7397 40.1318 99.9129 40.1889 100.057 40.2609C100.201 40.3328 100.356 40.4879 100.428 40.6317C100.572 40.7037 100.391 40.7792 100.391 40.8512Z" fill="#BBAFFE"/>
<path d="M119.035 83.1481L113.637 89.1905L119.035 83.1481Z" fill="#483C87"/>
<g filter="url(#filter1_d_985_5132)">
<path d="M120.108 83.6519L113.706 88.3993L95.4961 47.2533L100.39 40.8512L120.108 83.6519Z" fill="#BBAFFE"/>
<path d="M86.3563 62.9348L80.8143 69.2649C85.3487 62.8628 75.5601 54.9501 69.2983 56.5327C68.0748 56.8204 66.9951 57.4678 66.2754 58.4749L70.9537 51.857C71.3856 51.2096 72.0334 50.7061 72.7531 50.3464C79.0869 47.3252 91.8264 56.1011 87.0761 62.8628" fill="url(#paint3_linear_985_5132)"/>
<path d="M90.5325 73.0055L85.4223 79.3356L79.7363 70.4159L84.6306 64.0138L90.5325 73.0055Z" fill="#8673F4"/>
<path d="M99.2372 40.0599L94.3429 46.462L37.627 48.1165L41.0097 41.0026L99.2372 40.0599Z" fill="url(#paint4_linear_985_5132)"/>
<path d="M93.5528 80.2708C88.5866 80.6304 78.7261 81.3498 73.8318 81.7094C73.256 78.4724 71.8885 70.7036 71.3127 67.5385C65.0509 63.3664 59.221 54.4466 63.8274 47.2533L59.221 53.9431C58.7172 54.5905 58.3573 55.3818 58.0694 56.173C55.8382 63.1506 60.9484 70.3439 66.4185 74.0845C66.9943 77.2496 68.2898 85.1623 68.7936 88.1115C69.0095 88.1115 78.1503 87.3922 78.0063 87.3922C82.9726 86.9606 92.5452 86.2413 97.1516 85.8816C97.2235 85.7377 102.542 79.4726 102.398 79.6164C102.254 79.5445 93.5528 80.2708 93.5528 80.2708Z" fill="url(#paint5_linear_985_5132)"/>
<g filter="url(#filter2_i_985_5132)">
<path d="M72.6083 43.0092C83.2605 42.5056 98.3752 55.0221 93.6249 66.3157C95.5682 69.2649 100.39 76.6022 102.406 79.6234L93.6249 80.2708C88.7306 80.6304 78.7981 81.3498 73.9038 81.7094L72.3204 72.5739L71.4567 67.5385C69.7293 66.3157 68.1459 64.9489 66.7784 63.3664C59.7249 55.8134 60.5166 43.4408 72.6083 43.0092ZM84.628 64.0138C90.458 59.41 84.1242 51.7851 78.7261 50.2745C73.328 48.4042 68.2179 51.857 70.665 57.6836C72.0325 60.8487 75.1994 63.0067 78.2943 64.3015L80.0217 73.6529L90.458 73.0055L84.628 64.0138Z" fill="url(#paint6_linear_985_5132)"/>
</g>
<path d="M125.001 89.0492C124.785 89.1931 124.6 89.4714 124.312 89.6153C124.025 89.7592 123.744 89.8423 123.384 89.9862C123.024 90.0581 122.713 90.1924 122.353 90.2643L63.4583 95.6804C62.2347 95.8242 60.9392 95.6804 59.7156 95.3207C58.4921 94.961 57.2685 94.3856 56.1169 93.6662C54.9653 92.9469 53.9577 92.0117 53.094 91.0047C52.2303 89.9976 51.5825 88.8467 51.0787 87.6238L34.1647 42.1618C33.9487 41.6582 33.8768 41.1547 33.7328 40.6512C33.6609 40.1476 33.6609 39.716 33.6609 39.2844C33.6609 38.8528 33.7328 38.4212 33.8768 37.9896C34.0207 37.558 33.9487 36.9928 34.1647 36.6332L30.2061 43.8163C29.9901 44.1759 29.8462 44.5356 29.7023 44.9672C29.5583 45.3988 29.4863 45.7585 29.4863 46.262C29.4863 46.6936 29.4863 47.1971 29.5583 47.6287C29.6303 48.1323 29.7742 48.5639 29.9182 49.0674L46.4003 94.0259C46.8322 95.2488 47.48 96.3278 48.3436 97.3348C49.2073 98.3419 50.215 99.2051 51.2946 99.9244C52.3742 100.644 53.5978 101.219 54.8214 101.507C56.0449 101.867 57.2685 102.011 58.4921 101.867L116.863 96.2558C117.223 96.2558 117.583 96.1839 117.943 96.04C118.303 95.9681 118.591 95.8242 118.879 95.6804C119.167 95.5365 119.454 95.3926 119.67 95.1768C119.886 94.961 120.174 94.8172 120.318 94.6014L125.632 88.5271C125.392 88.6868 125.197 88.8052 125.001 89.0492Z" fill="url(#paint7_linear_985_5132)"/>
<g filter="url(#filter3_i_985_5132)">
<path d="M96.287 33.6578C97.2946 33.6578 98.3743 33.8017 99.4539 34.1614C100.533 34.521 101.541 35.0246 102.477 35.672C103.412 36.3194 104.348 37.1106 105.068 37.9019C105.86 38.7651 106.435 39.7002 106.939 40.7073L125.725 81.7814C126.228 82.8604 126.516 83.9394 126.588 84.9464C126.66 85.9535 126.516 86.8167 126.156 87.608C125.797 88.3993 125.293 89.0467 124.573 89.5502C123.853 90.0537 122.99 90.3415 121.91 90.4853L62.9628 95.7365C61.7392 95.8803 60.4437 95.7365 59.2201 95.3768C57.9965 95.0171 56.773 94.4417 55.6214 93.7223C54.4698 93.003 53.4621 92.0679 52.5984 91.0608C51.7347 90.0537 51.087 88.9028 50.5832 87.6799L33.5972 42.2898C33.1653 41.2108 33.0214 40.1318 33.1653 39.1967C33.2373 38.2616 33.5972 37.3984 34.101 36.679C34.6048 35.9597 35.3245 35.3842 36.1882 34.9526C37.0519 34.521 38.1316 34.3052 39.2831 34.3052L96.287 33.6578ZM119.103 82.3568L100.39 40.8512C100.318 40.7073 100.246 40.6354 100.174 40.5634C100.102 40.4915 99.9577 40.3476 99.8857 40.2757C99.8138 40.2038 99.6698 40.1318 99.5259 40.1318C99.3819 40.0599 99.3099 40.0599 99.166 40.0599L41.9462 41.2108C41.8023 41.2108 41.7303 41.2108 41.5863 41.2828C41.5144 41.3547 41.4424 41.4266 41.3704 41.4986C41.2984 41.5705 41.2984 41.6424 41.2984 41.7863C41.2984 41.8582 41.2984 42.0021 41.3704 42.146L58.5723 87.1045C58.6443 87.2483 58.7163 87.3922 58.7883 87.4641C58.8602 87.608 59.0042 87.6799 59.1481 87.7519C59.2921 87.8238 59.436 87.8957 59.508 87.9677C59.6519 88.0396 59.7959 88.0396 59.9398 88.0396L118.671 83.4358C118.815 83.4358 118.887 83.3639 118.959 83.3639C119.031 83.292 119.103 83.22 119.175 83.1481C119.247 83.0762 119.247 82.9323 119.247 82.8604C119.175 82.5726 119.175 82.5007 119.103 82.3568Z" fill="url(#paint8_linear_985_5132)"/>
</g>
</g>
<defs>
<filter id="filter0_i_985_5132" x="22.3646" y="0.0957417" width="71.9089" height="44.7837" filterUnits="userSpaceOnUse" color-interpolation-filters="sRGB">
<feFlood flood-opacity="0" result="BackgroundImageFix"/>
<feBlend mode="normal" in="SourceGraphic" in2="BackgroundImageFix" result="shape"/>
<feColorMatrix in="SourceAlpha" type="matrix" values="0 0 0 0 0 0 0 0 0 0 0 0 0 0 0 0 0 0 127 0" result="hardAlpha"/>
<feOffset dx="-2.35613" dy="-4.71226"/>
<feGaussianBlur stdDeviation="2.74882"/>
<feComposite in2="hardAlpha" operator="arithmetic" k2="-1" k3="1"/>
<feColorMatrix type="matrix" values="0 0 0 0 0.749913 0 0 0 0 0.795505 0 0 0 0 0.891753 0 0 0 0.79 0"/>
<feBlend mode="normal" in2="shape" result="effect1_innerShadow_985_5132"/>
</filter>
<filter id="filter1_d_985_5132" x="29.4863" y="33.6578" width="98.6899" height="70.6201" filterUnits="userSpaceOnUse" color-interpolation-filters="sRGB">
<feFlood flood-opacity="0" result="BackgroundImageFix"/>
<feColorMatrix in="SourceAlpha" type="matrix" values="0 0 0 0 0 0 0 0 0 0 0 0 0 0 0 0 0 0 127 0" result="hardAlpha"/>
<feOffset dx="0.785377" dy="1.57075"/>
<feGaussianBlur stdDeviation="0.392689"/>
<feColorMatrix type="matrix" values="0 0 0 0 0.56849 0 0 0 0 0.635938 0 0 0 0 0.770833 0 0 0 0.26 0"/>
<feBlend mode="normal" in2="BackgroundImageFix" result="effect1_dropShadow_985_5132"/>
<feBlend mode="normal" in="SourceGraphic" in2="effect1_dropShadow_985_5132" result="shape"/>
</filter>
<filter id="filter2_i_985_5132" x="62.2969" y="42.9945" width="40.5021" height="38.715" filterUnits="userSpaceOnUse" color-interpolation-filters="sRGB">
<feFlood flood-opacity="0" result="BackgroundImageFix"/>
<feBlend mode="normal" in="SourceGraphic" in2="BackgroundImageFix" result="shape"/>
<feColorMatrix in="SourceAlpha" type="matrix" values="0 0 0 0 0 0 0 0 0 0 0 0 0 0 0 0 0 0 127 0" result="hardAlpha"/>
<feOffset dx="0.392689"/>
<feGaussianBlur stdDeviation="0.392689"/>
<feComposite in2="hardAlpha" operator="arithmetic" k2="-1" k3="1"/>
<feColorMatrix type="matrix" values="0 0 0 0 1 0 0 0 0 1 0 0 0 0 1 0 0 0 1 0"/>
<feBlend mode="normal" in2="shape" result="effect1_innerShadow_985_5132"/>
</filter>
<filter id="filter3_i_985_5132" x="33.1113" y="33.6578" width="93.8868" height="62.1338" filterUnits="userSpaceOnUse" color-interpolation-filters="sRGB">
<feFlood flood-opacity="0" result="BackgroundImageFix"/>
<feBlend mode="normal" in="SourceGraphic" in2="BackgroundImageFix" result="shape"/>
<feColorMatrix in="SourceAlpha" type="matrix" values="0 0 0 0 0 0 0 0 0 0 0 0 0 0 0 0 0 0 127 0" result="hardAlpha"/>
<feOffset dx="0.392689"/>
<feGaussianBlur stdDeviation="0.392689"/>
<feComposite in2="hardAlpha" operator="arithmetic" k2="-1" k3="1"/>
<feColorMatrix type="matrix" values="0 0 0 0 1 0 0 0 0 1 0 0 0 0 1 0 0 0 1 0"/>
<feBlend mode="normal" in2="shape" result="effect1_innerShadow_985_5132"/>
</filter>
<linearGradient id="paint0_linear_985_5132" x1="32.0078" y1="14.3568" x2="37.7215" y2="22.8023" gradientUnits="userSpaceOnUse">
<stop stop-color="white"/>
<stop offset="1" stop-color="white" stop-opacity="0"/>
</linearGradient>
<linearGradient id="paint1_linear_985_5132" x1="11.6875" y1="36.1294" x2="69.5046" y2="120.555" gradientUnits="userSpaceOnUse">
<stop stop-color="white"/>
<stop offset="0.712492" stop-color="#F4F7FB"/>
<stop offset="0.827246" stop-color="#E2E8F4"/>
<stop offset="1" stop-color="#D2DCEE"/>
</linearGradient>
<linearGradient id="paint2_linear_985_5132" x1="65.0638" y1="38.641" x2="132.699" y2="86.6868" gradientUnits="userSpaceOnUse">
<stop stop-color="white"/>
<stop offset="1" stop-color="white" stop-opacity="0"/>
</linearGradient>
<linearGradient id="paint3_linear_985_5132" x1="67.7813" y1="70.4327" x2="89.7887" y2="61.2163" gradientUnits="userSpaceOnUse">
<stop stop-color="#6A61CC"/>
<stop offset="0.498015" stop-color="#7F6CF2"/>
<stop offset="1" stop-color="#BBAFFE"/>
</linearGradient>
<linearGradient id="paint4_linear_985_5132" x1="42.4655" y1="45.8111" x2="58.8529" y2="18.4336" gradientUnits="userSpaceOnUse">
<stop stop-color="#6A61CC"/>
<stop offset="0.460989" stop-color="#7F6CF2"/>
<stop offset="1" stop-color="#BBAFFE"/>
</linearGradient>
<linearGradient id="paint5_linear_985_5132" x1="84.4587" y1="92.9235" x2="69.7061" y2="82.982" gradientUnits="userSpaceOnUse">
<stop stop-color="#6A61CC"/>
<stop offset="0.832618" stop-color="#7F6CF2"/>
<stop offset="0.864792" stop-color="#BBAFFE"/>
</linearGradient>
<linearGradient id="paint6_linear_985_5132" x1="-26.9453" y1="1.32016" x2="96.2335" y2="83.7938" gradientUnits="userSpaceOnUse">
<stop stop-color="#D4CCFF"/>
<stop offset="1" stop-color="#9783FF"/>
</linearGradient>
<linearGradient id="paint7_linear_985_5132" x1="105.45" y1="97.2458" x2="50.5785" y2="102.917" gradientUnits="userSpaceOnUse">
<stop stop-color="#6A61CC"/>
<stop offset="0.783523" stop-color="#7F6CF2"/>
<stop offset="1" stop-color="#BBAFFE"/>
</linearGradient>
<linearGradient id="paint8_linear_985_5132" x1="-22.4892" y1="8.36659" x2="35.8886" y2="86.9286" gradientUnits="userSpaceOnUse">
<stop stop-color="#D4CCFF"/>
<stop offset="1" stop-color="#9783FF"/>
</linearGradient>
</defs>
</svg>
